<?xml version="1.0" encoding="utf-8" standalone="no"?>
<!DOCTYPE svg PUBLIC "-//W3C//DTD SVG 1.1//EN"
  "http://www.w3.org/Graphics/SVG/1.1/DTD/svg11.dtd">
<svg xmlns:xlink="http://www.w3.org/1999/xlink" width="432pt" height="360pt" viewBox="0 0 432 360" xmlns="http://www.w3.org/2000/svg" version="1.1">
 <metadata>
  <rdf:RDF xmlns:dc="http://purl.org/dc/elements/1.1/" xmlns:cc="http://creativecommons.org/ns#" xmlns:rdf="http://www.w3.org/1999/02/22-rdf-syntax-ns#">
   <cc:Work>
    <dc:type rdf:resource="http://purl.org/dc/dcmitype/StillImage"/>
    <dc:date>2026-07-01T17:33:25.447566</dc:date>
    <dc:format>image/svg+xml</dc:format>
    <dc:creator>
     <cc:Agent>
      <dc:title>Matplotlib v3.10.0, https://matplotlib.org/</dc:title>
     </cc:Agent>
    </dc:creator>
   </cc:Work>
  </rdf:RDF>
 </metadata>
 <defs>
  <style type="text/css">*{stroke-linejoin: round; stroke-linecap: butt}</style>
 </defs>
 <g id="figure_1">
  <g id="patch_1">
   <path d="M 0 360 
L 432 360 
L 432 0 
L 0 0 
z
" style="fill: #ffffff"/>
  </g>
  <g id="axes_1">
   <g id="patch_2">
    <path d="M 75.44 300.42 
L 409.455 300.42 
L 409.455 15.84 
L 75.44 15.84 
z
" style="fill: #ffffff"/>
   </g>
   <g id="matplotlib.axis_1">
    <g id="xtick_1">
     <g id="line2d_1">
      <defs>
       <path id="m4ce76da91a" d="M 0 0 
L 0 3.5 
" style="stroke: #000000; stroke-width: 0.8"/>
      </defs>
      <g>
       <use xlink:href="#m4ce76da91a" x="75.44" y="300.42" style="stroke: #000000; stroke-width: 0.8"/>
      </g>
     </g>
     <g id="text_1">
      <!-- 0 -->
      <g transform="translate(71.547344 317.440938) scale(0.14 -0.14)">
       <defs>
        <path id="ArialMT-30" d="M 266 2259 
Q 266 3072 433 3567 
Q 600 4063 929 4331 
Q 1259 4600 1759 4600 
Q 2128 4600 2406 4451 
Q 2684 4303 2865 4023 
Q 3047 3744 3150 3342 
Q 3253 2941 3253 2259 
Q 3253 1453 3087 958 
Q 2922 463 2592 192 
Q 2263 -78 1759 -78 
Q 1097 -78 719 397 
Q 266 969 266 2259 
z
M 844 2259 
Q 844 1131 1108 757 
Q 1372 384 1759 384 
Q 2147 384 2411 759 
Q 2675 1134 2675 2259 
Q 2675 3391 2411 3762 
Q 2147 4134 1753 4134 
Q 1366 4134 1134 3806 
Q 844 3388 844 2259 
z
" transform="scale(0.015625)"/>
       </defs>
       <use xlink:href="#ArialMT-30"/>
      </g>
     </g>
    </g>
    <g id="xtick_2">
     <g id="line2d_2">
      <g>
       <use xlink:href="#m4ce76da91a" x="158.94375" y="300.42" style="stroke: #000000; stroke-width: 0.8"/>
      </g>
     </g>
     <g id="text_2">
      <!-- 50 -->
      <g transform="translate(151.158438 317.440938) scale(0.14 -0.14)">
       <defs>
        <path id="ArialMT-35" d="M 266 1200 
L 856 1250 
Q 922 819 1161 601 
Q 1400 384 1738 384 
Q 2144 384 2425 690 
Q 2706 997 2706 1503 
Q 2706 1984 2436 2262 
Q 2166 2541 1728 2541 
Q 1456 2541 1237 2417 
Q 1019 2294 894 2097 
L 366 2166 
L 809 4519 
L 3088 4519 
L 3088 3981 
L 1259 3981 
L 1013 2750 
Q 1425 3038 1878 3038 
Q 2478 3038 2890 2622 
Q 3303 2206 3303 1553 
Q 3303 931 2941 478 
Q 2500 -78 1738 -78 
Q 1113 -78 717 272 
Q 322 622 266 1200 
z
" transform="scale(0.015625)"/>
       </defs>
       <use xlink:href="#ArialMT-35"/>
       <use xlink:href="#ArialMT-30" transform="translate(55.615234 0)"/>
      </g>
     </g>
    </g>
    <g id="xtick_3">
     <g id="line2d_3">
      <g>
       <use xlink:href="#m4ce76da91a" x="242.4475" y="300.42" style="stroke: #000000; stroke-width: 0.8"/>
      </g>
     </g>
     <g id="text_3">
      <!-- 100 -->
      <g transform="translate(230.769531 317.440938) scale(0.14 -0.14)">
       <defs>
        <path id="ArialMT-31" d="M 2384 0 
L 1822 0 
L 1822 3584 
Q 1619 3391 1289 3197 
Q 959 3003 697 2906 
L 697 3450 
Q 1169 3672 1522 3987 
Q 1875 4303 2022 4600 
L 2384 4600 
L 2384 0 
z
" transform="scale(0.015625)"/>
       </defs>
       <use xlink:href="#ArialMT-31"/>
       <use xlink:href="#ArialMT-30" transform="translate(55.615234 0)"/>
       <use xlink:href="#ArialMT-30" transform="translate(111.230469 0)"/>
      </g>
     </g>
    </g>
    <g id="xtick_4">
     <g id="line2d_4">
      <g>
       <use xlink:href="#m4ce76da91a" x="325.95125" y="300.42" style="stroke: #000000; stroke-width: 0.8"/>
      </g>
     </g>
     <g id="text_4">
      <!-- 150 -->
      <g transform="translate(314.273281 317.440938) scale(0.14 -0.14)">
       <use xlink:href="#ArialMT-31"/>
       <use xlink:href="#ArialMT-35" transform="translate(55.615234 0)"/>
       <use xlink:href="#ArialMT-30" transform="translate(111.230469 0)"/>
      </g>
     </g>
    </g>
    <g id="xtick_5">
     <g id="line2d_5">
      <g>
       <use xlink:href="#m4ce76da91a" x="409.455" y="300.42" style="stroke: #000000; stroke-width: 0.8"/>
      </g>
     </g>
     <g id="text_5">
      <!-- 200 -->
      <g transform="translate(397.777031 317.440938) scale(0.14 -0.14)">
       <defs>
        <path id="ArialMT-32" d="M 3222 541 
L 3222 0 
L 194 0 
Q 188 203 259 391 
Q 375 700 629 1000 
Q 884 1300 1366 1694 
Q 2113 2306 2375 2664 
Q 2638 3022 2638 3341 
Q 2638 3675 2398 3904 
Q 2159 4134 1775 4134 
Q 1369 4134 1125 3890 
Q 881 3647 878 3216 
L 300 3275 
Q 359 3922 746 4261 
Q 1134 4600 1788 4600 
Q 2447 4600 2831 4234 
Q 3216 3869 3216 3328 
Q 3216 3053 3103 2787 
Q 2991 2522 2730 2228 
Q 2469 1934 1863 1422 
Q 1356 997 1212 845 
Q 1069 694 975 541 
L 3222 541 
z
" transform="scale(0.015625)"/>
       </defs>
       <use xlink:href="#ArialMT-32"/>
       <use xlink:href="#ArialMT-30" transform="translate(55.615234 0)"/>
       <use xlink:href="#ArialMT-30" transform="translate(111.230469 0)"/>
      </g>
     </g>
    </g>
    <g id="text_6">
     <!-- Shear rate  $\dot\gamma$  (1/s) -->
     <g transform="translate(158.6475 341.823438) scale(0.2 -0.2)">
      <defs>
       <path id="ArialMT-53" d="M 288 1472 
L 859 1522 
Q 900 1178 1048 958 
Q 1197 738 1509 602 
Q 1822 466 2213 466 
Q 2559 466 2825 569 
Q 3091 672 3220 851 
Q 3350 1031 3350 1244 
Q 3350 1459 3225 1620 
Q 3100 1781 2813 1891 
Q 2628 1963 1997 2114 
Q 1366 2266 1113 2400 
Q 784 2572 623 2826 
Q 463 3081 463 3397 
Q 463 3744 659 4045 
Q 856 4347 1234 4503 
Q 1613 4659 2075 4659 
Q 2584 4659 2973 4495 
Q 3363 4331 3572 4012 
Q 3781 3694 3797 3291 
L 3216 3247 
Q 3169 3681 2898 3903 
Q 2628 4125 2100 4125 
Q 1550 4125 1298 3923 
Q 1047 3722 1047 3438 
Q 1047 3191 1225 3031 
Q 1400 2872 2139 2705 
Q 2878 2538 3153 2413 
Q 3553 2228 3743 1945 
Q 3934 1663 3934 1294 
Q 3934 928 3725 604 
Q 3516 281 3123 101 
Q 2731 -78 2241 -78 
Q 1619 -78 1198 103 
Q 778 284 539 648 
Q 300 1013 288 1472 
z
" transform="scale(0.015625)"/>
       <path id="ArialMT-68" d="M 422 0 
L 422 4581 
L 984 4581 
L 984 2938 
Q 1378 3394 1978 3394 
Q 2347 3394 2619 3248 
Q 2891 3103 3008 2847 
Q 3125 2591 3125 2103 
L 3125 0 
L 2563 0 
L 2563 2103 
Q 2563 2525 2380 2717 
Q 2197 2909 1863 2909 
Q 1613 2909 1392 2779 
Q 1172 2650 1078 2428 
Q 984 2206 984 1816 
L 984 0 
L 422 0 
z
" transform="scale(0.015625)"/>
       <path id="ArialMT-65" d="M 2694 1069 
L 3275 997 
Q 3138 488 2766 206 
Q 2394 -75 1816 -75 
Q 1088 -75 661 373 
Q 234 822 234 1631 
Q 234 2469 665 2931 
Q 1097 3394 1784 3394 
Q 2450 3394 2872 2941 
Q 3294 2488 3294 1666 
Q 3294 1616 3291 1516 
L 816 1516 
Q 847 969 1125 678 
Q 1403 388 1819 388 
Q 2128 388 2347 550 
Q 2566 713 2694 1069 
z
M 847 1978 
L 2700 1978 
Q 2663 2397 2488 2606 
Q 2219 2931 1791 2931 
Q 1403 2931 1139 2672 
Q 875 2413 847 1978 
z
" transform="scale(0.015625)"/>
       <path id="ArialMT-61" d="M 2588 409 
Q 2275 144 1986 34 
Q 1697 -75 1366 -75 
Q 819 -75 525 192 
Q 231 459 231 875 
Q 231 1119 342 1320 
Q 453 1522 633 1644 
Q 813 1766 1038 1828 
Q 1203 1872 1538 1913 
Q 2219 1994 2541 2106 
Q 2544 2222 2544 2253 
Q 2544 2597 2384 2738 
Q 2169 2928 1744 2928 
Q 1347 2928 1158 2789 
Q 969 2650 878 2297 
L 328 2372 
Q 403 2725 575 2942 
Q 747 3159 1072 3276 
Q 1397 3394 1825 3394 
Q 2250 3394 2515 3294 
Q 2781 3194 2906 3042 
Q 3031 2891 3081 2659 
Q 3109 2516 3109 2141 
L 3109 1391 
Q 3109 606 3145 398 
Q 3181 191 3288 0 
L 2700 0 
Q 2613 175 2588 409 
z
M 2541 1666 
Q 2234 1541 1622 1453 
Q 1275 1403 1131 1340 
Q 988 1278 909 1158 
Q 831 1038 831 891 
Q 831 666 1001 516 
Q 1172 366 1500 366 
Q 1825 366 2078 508 
Q 2331 650 2450 897 
Q 2541 1088 2541 1459 
L 2541 1666 
z
" transform="scale(0.015625)"/>
       <path id="ArialMT-72" d="M 416 0 
L 416 3319 
L 922 3319 
L 922 2816 
Q 1116 3169 1280 3281 
Q 1444 3394 1641 3394 
Q 1925 3394 2219 3213 
L 2025 2691 
Q 1819 2813 1613 2813 
Q 1428 2813 1281 2702 
Q 1134 2591 1072 2394 
Q 978 2094 978 1738 
L 978 0 
L 416 0 
z
" transform="scale(0.015625)"/>
       <path id="ArialMT-20" transform="scale(0.015625)"/>
       <path id="ArialMT-74" d="M 1650 503 
L 1731 6 
Q 1494 -44 1306 -44 
Q 1000 -44 831 53 
Q 663 150 594 308 
Q 525 466 525 972 
L 525 2881 
L 113 2881 
L 113 3319 
L 525 3319 
L 525 4141 
L 1084 4478 
L 1084 3319 
L 1650 3319 
L 1650 2881 
L 1084 2881 
L 1084 941 
Q 1084 700 1114 631 
Q 1144 563 1211 522 
Q 1278 481 1403 481 
Q 1497 481 1650 503 
z
" transform="scale(0.015625)"/>
       <path id="DejaVuSans-307" d="M -1894 4863 
L -1319 4863 
L -1319 4134 
L -1894 4134 
L -1894 4863 
z
M -1600 3584 
L -1600 3584 
z
" transform="scale(0.015625)"/>
       <path id="DejaVuSans-Oblique-3b3" d="M 1491 2950 
L 1838 788 
L 3456 3500 
L 4066 3500 
L 1972 0 
L 1713 -1331 
L 1138 -1331 
L 1397 0 
L 988 2613 
Q 925 3006 628 3006 
L 475 3006 
L 569 3500 
L 788 3500 
Q 1403 3500 1491 2950 
z
" transform="scale(0.015625)"/>
       <path id="ArialMT-28" d="M 1497 -1347 
Q 1031 -759 709 28 
Q 388 816 388 1659 
Q 388 2403 628 3084 
Q 909 3875 1497 4659 
L 1900 4659 
Q 1522 4009 1400 3731 
Q 1209 3300 1100 2831 
Q 966 2247 966 1656 
Q 966 153 1900 -1347 
L 1497 -1347 
z
" transform="scale(0.015625)"/>
       <path id="ArialMT-2f" d="M 0 -78 
L 1328 4659 
L 1778 4659 
L 453 -78 
L 0 -78 
z
" transform="scale(0.015625)"/>
       <path id="ArialMT-73" d="M 197 991 
L 753 1078 
Q 800 744 1014 566 
Q 1228 388 1613 388 
Q 2000 388 2187 545 
Q 2375 703 2375 916 
Q 2375 1106 2209 1216 
Q 2094 1291 1634 1406 
Q 1016 1563 777 1677 
Q 538 1791 414 1992 
Q 291 2194 291 2438 
Q 291 2659 392 2848 
Q 494 3038 669 3163 
Q 800 3259 1026 3326 
Q 1253 3394 1513 3394 
Q 1903 3394 2198 3281 
Q 2494 3169 2634 2976 
Q 2775 2784 2828 2463 
L 2278 2388 
Q 2241 2644 2061 2787 
Q 1881 2931 1553 2931 
Q 1166 2931 1000 2803 
Q 834 2675 834 2503 
Q 834 2394 903 2306 
Q 972 2216 1119 2156 
Q 1203 2125 1616 2013 
Q 2213 1853 2448 1751 
Q 2684 1650 2818 1456 
Q 2953 1263 2953 975 
Q 2953 694 2789 445 
Q 2625 197 2315 61 
Q 2006 -75 1616 -75 
Q 969 -75 630 194 
Q 291 463 197 991 
z
" transform="scale(0.015625)"/>
       <path id="ArialMT-29" d="M 791 -1347 
L 388 -1347 
Q 1322 153 1322 1656 
Q 1322 2244 1188 2822 
Q 1081 3291 891 3722 
Q 769 4003 388 4659 
L 791 4659 
Q 1378 3875 1659 3084 
Q 1900 2403 1900 1659 
Q 1900 816 1576 28 
Q 1253 -759 791 -1347 
z
" transform="scale(0.015625)"/>
      </defs>
      <use xlink:href="#ArialMT-53" transform="translate(0 0.828125)"/>
      <use xlink:href="#ArialMT-68" transform="translate(66.699219 0.828125)"/>
      <use xlink:href="#ArialMT-65" transform="translate(122.314453 0.828125)"/>
      <use xlink:href="#ArialMT-61" transform="translate(177.929688 0.828125)"/>
      <use xlink:href="#ArialMT-72" transform="translate(233.544922 0.828125)"/>
      <use xlink:href="#ArialMT-20" transform="translate(266.845703 0.828125)"/>
      <use xlink:href="#ArialMT-72" transform="translate(294.628906 0.828125)"/>
      <use xlink:href="#ArialMT-61" transform="translate(327.929688 0.828125)"/>
      <use xlink:href="#ArialMT-74" transform="translate(383.544922 0.828125)"/>
      <use xlink:href="#ArialMT-65" transform="translate(411.328125 0.828125)"/>
      <use xlink:href="#ArialMT-20" transform="translate(466.943359 0.828125)"/>
      <use xlink:href="#ArialMT-20" transform="translate(494.726562 0.828125)"/>
      <use xlink:href="#DejaVuSans-307" transform="translate(583.126953 12.015625)"/>
      <use xlink:href="#DejaVuSans-Oblique-3b3" transform="translate(522.509766 0.828125)"/>
      <use xlink:href="#ArialMT-20" transform="translate(581.689453 0.828125)"/>
      <use xlink:href="#ArialMT-20" transform="translate(609.472656 0.828125)"/>
      <use xlink:href="#ArialMT-28" transform="translate(637.255859 0.828125)"/>
      <use xlink:href="#ArialMT-31" transform="translate(670.556641 0.828125)"/>
      <use xlink:href="#ArialMT-2f" transform="translate(726.171875 0.828125)"/>
      <use xlink:href="#ArialMT-73" transform="translate(753.955078 0.828125)"/>
      <use xlink:href="#ArialMT-29" transform="translate(803.955078 0.828125)"/>
     </g>
    </g>
   </g>
   <g id="matplotlib.axis_2">
    <g id="ytick_1">
     <g id="line2d_6">
      <defs>
       <path id="m46e6026e60" d="M 0 0 
L -3.5 0 
" style="stroke: #000000; stroke-width: 0.8"/>
      </defs>
      <g>
       <use xlink:href="#m46e6026e60" x="75.44" y="300.42" style="stroke: #000000; stroke-width: 0.8"/>
      </g>
     </g>
     <g id="text_7">
      <!-- 0 -->
      <g transform="translate(60.654688 305.430469) scale(0.14 -0.14)">
       <use xlink:href="#ArialMT-30"/>
      </g>
     </g>
    </g>
    <g id="ytick_2">
     <g id="line2d_7">
      <g>
       <use xlink:href="#m46e6026e60" x="75.44" y="243.504" style="stroke: #000000; stroke-width: 0.8"/>
      </g>
     </g>
     <g id="text_8">
      <!-- 200 -->
      <g transform="translate(45.084063 248.514469) scale(0.14 -0.14)">
       <use xlink:href="#ArialMT-32"/>
       <use xlink:href="#ArialMT-30" transform="translate(55.615234 0)"/>
       <use xlink:href="#ArialMT-30" transform="translate(111.230469 0)"/>
      </g>
     </g>
    </g>
    <g id="ytick_3">
     <g id="line2d_8">
      <g>
       <use xlink:href="#m46e6026e60" x="75.44" y="186.588" style="stroke: #000000; stroke-width: 0.8"/>
      </g>
     </g>
     <g id="text_9">
      <!-- 400 -->
      <g transform="translate(45.084063 191.598469) scale(0.14 -0.14)">
       <defs>
        <path id="ArialMT-34" d="M 2069 0 
L 2069 1097 
L 81 1097 
L 81 1613 
L 2172 4581 
L 2631 4581 
L 2631 1613 
L 3250 1613 
L 3250 1097 
L 2631 1097 
L 2631 0 
L 2069 0 
z
M 2069 1613 
L 2069 3678 
L 634 1613 
L 2069 1613 
z
" transform="scale(0.015625)"/>
       </defs>
       <use xlink:href="#ArialMT-34"/>
       <use xlink:href="#ArialMT-30" transform="translate(55.615234 0)"/>
       <use xlink:href="#ArialMT-30" transform="translate(111.230469 0)"/>
      </g>
     </g>
    </g>
    <g id="ytick_4">
     <g id="line2d_9">
      <g>
       <use xlink:href="#m46e6026e60" x="75.44" y="129.672" style="stroke: #000000; stroke-width: 0.8"/>
      </g>
     </g>
     <g id="text_10">
      <!-- 600 -->
      <g transform="translate(45.084063 134.682469) scale(0.14 -0.14)">
       <defs>
        <path id="ArialMT-36" d="M 3184 3459 
L 2625 3416 
Q 2550 3747 2413 3897 
Q 2184 4138 1850 4138 
Q 1581 4138 1378 3988 
Q 1113 3794 959 3422 
Q 806 3050 800 2363 
Q 1003 2672 1297 2822 
Q 1591 2972 1913 2972 
Q 2475 2972 2870 2558 
Q 3266 2144 3266 1488 
Q 3266 1056 3080 686 
Q 2894 316 2569 119 
Q 2244 -78 1831 -78 
Q 1128 -78 684 439 
Q 241 956 241 2144 
Q 241 3472 731 4075 
Q 1159 4600 1884 4600 
Q 2425 4600 2770 4297 
Q 3116 3994 3184 3459 
z
M 888 1484 
Q 888 1194 1011 928 
Q 1134 663 1356 523 
Q 1578 384 1822 384 
Q 2178 384 2434 671 
Q 2691 959 2691 1453 
Q 2691 1928 2437 2201 
Q 2184 2475 1800 2475 
Q 1419 2475 1153 2201 
Q 888 1928 888 1484 
z
" transform="scale(0.015625)"/>
       </defs>
       <use xlink:href="#ArialMT-36"/>
       <use xlink:href="#ArialMT-30" transform="translate(55.615234 0)"/>
       <use xlink:href="#ArialMT-30" transform="translate(111.230469 0)"/>
      </g>
     </g>
    </g>
    <g id="ytick_5">
     <g id="line2d_10">
      <g>
       <use xlink:href="#m46e6026e60" x="75.44" y="72.756" style="stroke: #000000; stroke-width: 0.8"/>
      </g>
     </g>
     <g id="text_11">
      <!-- 800 -->
      <g transform="translate(45.084063 77.766469) scale(0.14 -0.14)">
       <defs>
        <path id="ArialMT-38" d="M 1131 2484 
Q 781 2613 612 2850 
Q 444 3088 444 3419 
Q 444 3919 803 4259 
Q 1163 4600 1759 4600 
Q 2359 4600 2725 4251 
Q 3091 3903 3091 3403 
Q 3091 3084 2923 2848 
Q 2756 2613 2416 2484 
Q 2838 2347 3058 2040 
Q 3278 1734 3278 1309 
Q 3278 722 2862 322 
Q 2447 -78 1769 -78 
Q 1091 -78 675 323 
Q 259 725 259 1325 
Q 259 1772 486 2073 
Q 713 2375 1131 2484 
z
M 1019 3438 
Q 1019 3113 1228 2906 
Q 1438 2700 1772 2700 
Q 2097 2700 2305 2904 
Q 2513 3109 2513 3406 
Q 2513 3716 2298 3927 
Q 2084 4138 1766 4138 
Q 1444 4138 1231 3931 
Q 1019 3725 1019 3438 
z
M 838 1322 
Q 838 1081 952 856 
Q 1066 631 1291 507 
Q 1516 384 1775 384 
Q 2178 384 2440 643 
Q 2703 903 2703 1303 
Q 2703 1709 2433 1975 
Q 2163 2241 1756 2241 
Q 1359 2241 1098 1978 
Q 838 1716 838 1322 
z
" transform="scale(0.015625)"/>
       </defs>
       <use xlink:href="#ArialMT-38"/>
       <use xlink:href="#ArialMT-30" transform="translate(55.615234 0)"/>
       <use xlink:href="#ArialMT-30" transform="translate(111.230469 0)"/>
      </g>
     </g>
    </g>
    <g id="ytick_6">
     <g id="line2d_11">
      <g>
       <use xlink:href="#m46e6026e60" x="75.44" y="15.84" style="stroke: #000000; stroke-width: 0.8"/>
      </g>
     </g>
     <g id="text_12">
      <!-- 1000 -->
      <g transform="translate(37.29875 20.850469) scale(0.14 -0.14)">
       <use xlink:href="#ArialMT-31"/>
       <use xlink:href="#ArialMT-30" transform="translate(55.615234 0)"/>
       <use xlink:href="#ArialMT-30" transform="translate(111.230469 0)"/>
       <use xlink:href="#ArialMT-30" transform="translate(166.845703 0)"/>
      </g>
     </g>
    </g>
    <g id="text_13">
     <!-- Shear stress  $\tau$  (Pa) -->
     <g transform="translate(28.89875 250.33) rotate(-90) scale(0.2 -0.2)">
      <defs>
       <path id="DejaVuSans-Oblique-3c4" d="M 2103 638 
Q 2188 488 2525 488 
L 2800 488 
L 2706 0 
L 2363 0 
Q 1800 0 1600 300 
Q 1403 606 1534 1269 
L 1856 2925 
L 541 2925 
L 653 3500 
L 3881 3500 
L 3769 2925 
L 2444 2925 
L 2113 1234 
Q 2025 781 2103 638 
z
" transform="scale(0.015625)"/>
       <path id="ArialMT-50" d="M 494 0 
L 494 4581 
L 2222 4581 
Q 2678 4581 2919 4538 
Q 3256 4481 3484 4323 
Q 3713 4166 3852 3881 
Q 3991 3597 3991 3256 
Q 3991 2672 3619 2267 
Q 3247 1863 2275 1863 
L 1100 1863 
L 1100 0 
L 494 0 
z
M 1100 2403 
L 2284 2403 
Q 2872 2403 3119 2622 
Q 3366 2841 3366 3238 
Q 3366 3525 3220 3729 
Q 3075 3934 2838 4000 
Q 2684 4041 2272 4041 
L 1100 4041 
L 1100 2403 
z
" transform="scale(0.015625)"/>
      </defs>
      <use xlink:href="#ArialMT-53" transform="translate(0 0.203125)"/>
      <use xlink:href="#ArialMT-68" transform="translate(66.699219 0.203125)"/>
      <use xlink:href="#ArialMT-65" transform="translate(122.314453 0.203125)"/>
      <use xlink:href="#ArialMT-61" transform="translate(177.929688 0.203125)"/>
      <use xlink:href="#ArialMT-72" transform="translate(233.544922 0.203125)"/>
      <use xlink:href="#ArialMT-20" transform="translate(266.845703 0.203125)"/>
      <use xlink:href="#ArialMT-73" transform="translate(294.628906 0.203125)"/>
      <use xlink:href="#ArialMT-74" transform="translate(344.628906 0.203125)"/>
      <use xlink:href="#ArialMT-72" transform="translate(372.412109 0.203125)"/>
      <use xlink:href="#ArialMT-65" transform="translate(405.712891 0.203125)"/>
      <use xlink:href="#ArialMT-73" transform="translate(461.328125 0.203125)"/>
      <use xlink:href="#ArialMT-73" transform="translate(511.328125 0.203125)"/>
      <use xlink:href="#ArialMT-20" transform="translate(561.328125 0.203125)"/>
      <use xlink:href="#ArialMT-20" transform="translate(589.111328 0.203125)"/>
      <use xlink:href="#DejaVuSans-Oblique-3c4" transform="translate(616.894531 0.203125)"/>
      <use xlink:href="#ArialMT-20" transform="translate(677.099609 0.203125)"/>
      <use xlink:href="#ArialMT-20" transform="translate(704.882812 0.203125)"/>
      <use xlink:href="#ArialMT-28" transform="translate(732.666016 0.203125)"/>
      <use xlink:href="#ArialMT-50" transform="translate(765.966797 0.203125)"/>
      <use xlink:href="#ArialMT-61" transform="translate(832.666016 0.203125)"/>
      <use xlink:href="#ArialMT-29" transform="translate(888.28125 0.203125)"/>
     </g>
    </g>
   </g>
   <g id="line2d_12">
    <path d="M 75.44167 300.406064 
L 75.661405 299.662503 
L 76.435978 297.83001 
L 77.834434 295.114216 
L 79.920351 291.564461 
L 82.836043 287.079032 
L 86.211222 282.278776 
L 90.173963 276.983147 
L 95.5946 270.141665 
L 101.335116 263.256367 
L 108.71067 254.805352 
L 115.59081 247.22829 
L 123.893714 238.392601 
L 133.913601 228.089212 
L 146.005529 216.074325 
L 155.426086 206.975036 
L 166.104295 196.894107 
L 178.208054 185.725639 
L 191.927674 173.352306 
L 207.478876 159.644126 
L 225.106175 144.457096 
L 245.086734 127.631675 
L 267.734714 108.991111 
L 293.406218 88.339587 
L 322.504889 65.460157 
L 338.480095 53.11085 
L 355.488257 40.112474 
L 373.596166 26.430912 
L 392.874932 12.030259 
L 410.519638 -1 
L 410.519638 -1 
" clip-path="url(#pb74d5b81cb)" style="fill: none; stroke-dasharray: 7.4,3.2; stroke-dashoffset: 0; stroke: #4285f4; stroke-opacity: 0.95; stroke-width: 2"/>
   </g>
   <g id="line2d_13">
    <path d="M 75.44167 300.400754 
L 75.70719 298.777507 
L 76.719657 293.940474 
L 78.516426 286.445846 
L 81.196463 276.22412 
L 84.942615 262.88174 
L 89.279126 248.237645 
L 94.370551 231.755601 
L 101.335116 210.067624 
L 108.71067 187.880252 
L 118.18696 160.244441 
L 127.02673 135.148843 
L 137.694502 105.560386 
L 150.568294 70.674714 
L 160.597983 44.013052 
L 171.966645 14.257336 
L 177.863523 -1 
L 177.863523 -1 
" clip-path="url(#pb74d5b81cb)" style="fill: none; stroke-dasharray: 7.4,3.2; stroke-dashoffset: 0; stroke: #ea4335; stroke-opacity: 0.95; stroke-width: 2"/>
   </g>
   <g id="line2d_14">
    <path d="M 75.44167 300.416385 
L 75.854283 299.215103 
L 77.689013 293.25822 
L 81.196463 281.142067 
L 86.907688 260.570514 
L 94.370551 232.846393 
L 104.792136 193.153976 
L 115.59081 151.206311 
L 130.362326 92.854508 
L 146.005529 30.12853 
L 153.695319 -1 
L 153.695319 -1 
" clip-path="url(#pb74d5b81cb)" style="fill: none; stroke-dasharray: 7.4,3.2; stroke-dashoffset: 0; stroke: #fbbc05; stroke-opacity: 0.95; stroke-width: 2"/>
   </g>
   <g id="line2d_15">
    <path d="M 75.44167 300.3616 
L 75.623466 298.489085 
L 76.168107 295.031841 
L 77.084134 290.539132 
L 78.516426 284.666551 
L 80.210051 278.583551 
L 82.386859 271.531144 
L 84.942615 263.942875 
L 88.438634 254.361386 
L 92.140959 244.913598 
L 96.897795 233.527829 
L 101.335116 223.480484 
L 106.690044 211.924007 
L 113.152332 198.631722 
L 118.18696 188.67866 
L 123.893714 177.752369 
L 130.362326 165.757682 
L 137.694502 152.590131 
L 146.005529 138.135031 
L 155.426086 122.266482 
L 166.104295 104.846274 
L 178.208054 85.722684 
L 191.927674 64.72915 
L 207.478876 41.682827 
L 216.016504 29.327888 
L 225.106175 16.382989 
L 237.553164 -1 
L 237.553164 -1 
" clip-path="url(#pb74d5b81cb)" style="fill: none; stroke-dasharray: 7.4,3.2; stroke-dashoffset: 0; stroke: #34a853; stroke-opacity: 0.95; stroke-width: 2"/>
   </g>
   <g id="line2d_16">
    <path d="M 75.44167 300.397306 
L 75.647959 299.361703 
L 76.318675 297.085356 
L 77.552424 293.714227 
L 79.392667 289.375078 
L 81.964956 283.956063 
L 84.942615 278.209313 
L 88.438634 271.915141 
L 93.220842 263.837297 
L 98.285256 255.755619 
L 104.792136 245.888575 
L 110.86195 237.082489 
L 118.18696 226.85434 
L 127.02673 214.974484 
L 133.913601 206.006947 
L 141.719875 196.098265 
L 150.568294 185.149663 
L 160.597983 173.052001 
L 171.966645 159.684685 
L 184.853032 144.914465 
L 199.459763 128.594105 
L 216.016504 110.560918 
L 234.783584 90.635142 
L 256.056085 68.618148 
L 267.734714 56.757732 
L 280.168482 44.290464 
L 293.406218 31.185293 
L 307.499905 17.40958 
L 326.62846 -1 
L 326.62846 -1 
" clip-path="url(#pb74d5b81cb)" style="fill: none; stroke-dasharray: 7.4,3.2; stroke-dashoffset: 0; stroke: #ff6d00; stroke-opacity: 0.95; stroke-width: 2"/>
   </g>
   <g id="patch_3">
    <path d="M 75.44 300.42 
L 75.44 15.84 
" style="fill: none; stroke: #000000; stroke-width: 1.5; stroke-linejoin: miter; stroke-linecap: square"/>
   </g>
   <g id="patch_4">
    <path d="M 409.455 300.42 
L 409.455 15.84 
" style="fill: none; stroke: #000000; stroke-width: 1.5; stroke-linejoin: miter; stroke-linecap: square"/>
   </g>
   <g id="patch_5">
    <path d="M 75.44 300.42 
L 409.455 300.42 
" style="fill: none; stroke: #000000; stroke-width: 1.5; stroke-linejoin: miter; stroke-linecap: square"/>
   </g>
   <g id="patch_6">
    <path d="M 75.44 15.84 
L 409.455 15.84 
" style="fill: none; stroke: #000000; stroke-width: 1.5; stroke-linejoin: miter; stroke-linecap: square"/>
   </g>
   <g id="PathCollection_1">
    <defs>
     <path id="m68ad2d6942" d="M 0 5 
C 1.326016 5 2.597899 4.473168 3.535534 3.535534 
C 4.473168 2.597899 5 1.326016 5 0 
C 5 -1.326016 4.473168 -2.597899 3.535534 -3.535534 
C 2.597899 -4.473168 1.326016 -5 0 -5 
C -1.326016 -5 -2.597899 -4.473168 -3.535534 -3.535534 
C -4.473168 -2.597899 -5 -1.326016 -5 0 
C -5 1.326016 -4.473168 2.597899 -3.535534 3.535534 
C -2.597899 4.473168 -1.326016 5 0 5 
z
" style="stroke: #000000; stroke-opacity: 0.95; stroke-width: 0.4"/>
    </defs>
    <g clip-path="url(#pb74d5b81cb)">
     <use xlink:href="#m68ad2d6942" x="209.046" y="159.032077" style="fill: #4285f4; fill-opacity: 0.95; stroke: #000000; stroke-opacity: 0.95; stroke-width: 0.4"/>
     <use xlink:href="#m68ad2d6942" x="242.4475" y="129.902415" style="fill: #4285f4; fill-opacity: 0.95; stroke: #000000; stroke-opacity: 0.95; stroke-width: 0.4"/>
     <use xlink:href="#m68ad2d6942" x="275.849" y="101.739884" style="fill: #4285f4; fill-opacity: 0.95; stroke: #000000; stroke-opacity: 0.95; stroke-width: 0.4"/>
     <use xlink:href="#m68ad2d6942" x="309.2505" y="75.021941" style="fill: #4285f4; fill-opacity: 0.95; stroke: #000000; stroke-opacity: 0.95; stroke-width: 0.4"/>
     <use xlink:href="#m68ad2d6942" x="342.652" y="49.280217" style="fill: #4285f4; fill-opacity: 0.95; stroke: #000000; stroke-opacity: 0.95; stroke-width: 0.4"/>
     <use xlink:href="#m68ad2d6942" x="376.0535" y="24.126701" style="fill: #4285f4; fill-opacity: 0.95; stroke: #000000; stroke-opacity: 0.95; stroke-width: 0.4"/>
     <use xlink:href="#m68ad2d6942" x="409.455" y="-0.603773" style="fill: #4285f4; fill-opacity: 0.95; stroke: #000000; stroke-opacity: 0.95; stroke-width: 0.4"/>
     <use xlink:href="#m68ad2d6942" x="410.009759" y="-1" style="fill: #4285f4; fill-opacity: 0.95; stroke: #000000; stroke-opacity: 0.95; stroke-width: 0.4"/>
    </g>
   </g>
   <g id="PathCollection_2">
    <defs>
     <path id="m7d0d69c1da" d="M 0 5 
C 1.326016 5 2.597899 4.473168 3.535534 3.535534 
C 4.473168 2.597899 5 1.326016 5 0 
C 5 -1.326016 4.473168 -2.597899 3.535534 -3.535534 
C 2.597899 -4.473168 1.326016 -5 0 -5 
C -1.326016 -5 -2.597899 -4.473168 -3.535534 -3.535534 
C -4.473168 -2.597899 -5 -1.326016 -5 0 
C -5 1.326016 -4.473168 2.597899 -3.535534 3.535534 
C -2.597899 4.473168 -1.326016 5 0 5 
z
" style="stroke: #000000; stroke-opacity: 0.95; stroke-width: 0.4"/>
    </defs>
    <g clip-path="url(#pb74d5b81cb)">
     <use xlink:href="#m7d0d69c1da" x="85.46045" y="261.171052" style="fill: #ea4335; fill-opacity: 0.95; stroke: #000000; stroke-opacity: 0.95; stroke-width: 0.4"/>
     <use xlink:href="#m7d0d69c1da" x="88.8006" y="249.719272" style="fill: #ea4335; fill-opacity: 0.95; stroke: #000000; stroke-opacity: 0.95; stroke-width: 0.4"/>
     <use xlink:href="#m7d0d69c1da" x="92.14075" y="238.746027" style="fill: #ea4335; fill-opacity: 0.95; stroke: #000000; stroke-opacity: 0.95; stroke-width: 0.4"/>
     <use xlink:href="#m7d0d69c1da" x="95.4809" y="228.154839" style="fill: #ea4335; fill-opacity: 0.95; stroke: #000000; stroke-opacity: 0.95; stroke-width: 0.4"/>
     <use xlink:href="#m7d0d69c1da" x="98.82105" y="217.828528" style="fill: #ea4335; fill-opacity: 0.95; stroke: #000000; stroke-opacity: 0.95; stroke-width: 0.4"/>
     <use xlink:href="#m7d0d69c1da" x="102.1612" y="207.755049" style="fill: #ea4335; fill-opacity: 0.95; stroke: #000000; stroke-opacity: 0.95; stroke-width: 0.4"/>
     <use xlink:href="#m7d0d69c1da" x="105.50135" y="197.839549" style="fill: #ea4335; fill-opacity: 0.95; stroke: #000000; stroke-opacity: 0.95; stroke-width: 0.4"/>
     <use xlink:href="#m7d0d69c1da" x="108.8415" y="188.151585" style="fill: #ea4335; fill-opacity: 0.95; stroke: #000000; stroke-opacity: 0.95; stroke-width: 0.4"/>
     <use xlink:href="#m7d0d69c1da" x="112.18165" y="176.609737" style="fill: #ea4335; fill-opacity: 0.95; stroke: #000000; stroke-opacity: 0.95; stroke-width: 0.4"/>
    </g>
   </g>
   <g id="PathCollection_3">
    <defs>
     <path id="m9d51ec441f" d="M 0 5 
C 1.326016 5 2.597899 4.473168 3.535534 3.535534 
C 4.473168 2.597899 5 1.326016 5 0 
C 5 -1.326016 4.473168 -2.597899 3.535534 -3.535534 
C 2.597899 -4.473168 1.326016 -5 0 -5 
C -1.326016 -5 -2.597899 -4.473168 -3.535534 -3.535534 
C -4.473168 -2.597899 -5 -1.326016 -5 0 
C -5 1.326016 -4.473168 2.597899 -3.535534 3.535534 
C -2.597899 4.473168 -1.326016 5 0 5 
z
" style="stroke: #000000; stroke-opacity: 0.95; stroke-width: 0.4"/>
    </defs>
    <g clip-path="url(#pb74d5b81cb)">
     <use xlink:href="#m9d51ec441f" x="92.14075" y="240.926065" style="fill: #fbbc05; fill-opacity: 0.95; stroke: #000000; stroke-opacity: 0.95; stroke-width: 0.4"/>
     <use xlink:href="#m9d51ec441f" x="125.54225" y="116.217542" style="fill: #fbbc05; fill-opacity: 0.95; stroke: #000000; stroke-opacity: 0.95; stroke-width: 0.4"/>
     <use xlink:href="#m9d51ec441f" x="142.243" y="40.673061" style="fill: #fbbc05; fill-opacity: 0.95; stroke: #000000; stroke-opacity: 0.95; stroke-width: 0.4"/>
    </g>
   </g>
   <g id="PathCollection_4">
    <defs>
     <path id="mc2bedf6733" d="M 0 5 
C 1.326016 5 2.597899 4.473168 3.535534 3.535534 
C 4.473168 2.597899 5 1.326016 5 0 
C 5 -1.326016 4.473168 -2.597899 3.535534 -3.535534 
C 2.597899 -4.473168 1.326016 -5 0 -5 
C -1.326016 -5 -2.597899 -4.473168 -3.535534 -3.535534 
C -4.473168 -2.597899 -5 -1.326016 -5 0 
C -5 1.326016 -4.473168 2.597899 -3.535534 3.535534 
C -2.597899 4.473168 -1.326016 5 0 5 
z
" style="stroke: #000000; stroke-opacity: 0.95; stroke-width: 0.4"/>
    </defs>
    <g clip-path="url(#pb74d5b81cb)">
     <use xlink:href="#mc2bedf6733" x="112.18165" y="200.609366" style="fill: #34a853; fill-opacity: 0.95; stroke: #000000; stroke-opacity: 0.95; stroke-width: 0.4"/>
     <use xlink:href="#mc2bedf6733" x="115.5218" y="193.89764" style="fill: #34a853; fill-opacity: 0.95; stroke: #000000; stroke-opacity: 0.95; stroke-width: 0.4"/>
     <use xlink:href="#mc2bedf6733" x="118.86195" y="187.337876" style="fill: #34a853; fill-opacity: 0.95; stroke: #000000; stroke-opacity: 0.95; stroke-width: 0.4"/>
     <use xlink:href="#mc2bedf6733" x="122.2021" y="180.945921" style="fill: #34a853; fill-opacity: 0.95; stroke: #000000; stroke-opacity: 0.95; stroke-width: 0.4"/>
     <use xlink:href="#mc2bedf6733" x="125.54225" y="174.687302" style="fill: #34a853; fill-opacity: 0.95; stroke: #000000; stroke-opacity: 0.95; stroke-width: 0.4"/>
    </g>
   </g>
   <g id="PathCollection_5">
    <defs>
     <path id="m0ce22546ce" d="M 0 5 
C 1.326016 5 2.597899 4.473168 3.535534 3.535534 
C 4.473168 2.597899 5 1.326016 5 0 
C 5 -1.326016 4.473168 -2.597899 3.535534 -3.535534 
C 2.597899 -4.473168 1.326016 -5 0 -5 
C -1.326016 -5 -2.597899 -4.473168 -3.535534 -3.535534 
C -4.473168 -2.597899 -5 -1.326016 -5 0 
C -5 1.326016 -4.473168 2.597899 -3.535534 3.535534 
C -2.597899 4.473168 -1.326016 5 0 5 
z
" style="stroke: #000000; stroke-opacity: 0.95; stroke-width: 0.4"/>
    </defs>
    <g clip-path="url(#pb74d5b81cb)">
     <use xlink:href="#m0ce22546ce" x="98.82105" y="255.053007" style="fill: #ff6d00; fill-opacity: 0.95; stroke: #000000; stroke-opacity: 0.95; stroke-width: 0.4"/>
     <use xlink:href="#m0ce22546ce" x="105.50135" y="244.801986" style="fill: #ff6d00; fill-opacity: 0.95; stroke: #000000; stroke-opacity: 0.95; stroke-width: 0.4"/>
     <use xlink:href="#m0ce22546ce" x="108.8415" y="239.87218" style="fill: #ff6d00; fill-opacity: 0.95; stroke: #000000; stroke-opacity: 0.95; stroke-width: 0.4"/>
     <use xlink:href="#m0ce22546ce" x="112.18165" y="235.069712" style="fill: #ff6d00; fill-opacity: 0.95; stroke: #000000; stroke-opacity: 0.95; stroke-width: 0.4"/>
     <use xlink:href="#m0ce22546ce" x="115.5218" y="230.508099" style="fill: #ff6d00; fill-opacity: 0.95; stroke: #000000; stroke-opacity: 0.95; stroke-width: 0.4"/>
     <use xlink:href="#m0ce22546ce" x="118.86195" y="225.845086" style="fill: #ff6d00; fill-opacity: 0.95; stroke: #000000; stroke-opacity: 0.95; stroke-width: 0.4"/>
     <use xlink:href="#m0ce22546ce" x="122.2021" y="221.371923" style="fill: #ff6d00; fill-opacity: 0.95; stroke: #000000; stroke-opacity: 0.95; stroke-width: 0.4"/>
     <use xlink:href="#m0ce22546ce" x="125.54225" y="217.009184" style="fill: #ff6d00; fill-opacity: 0.95; stroke: #000000; stroke-opacity: 0.95; stroke-width: 0.4"/>
     <use xlink:href="#m0ce22546ce" x="128.8824" y="212.776884" style="fill: #ff6d00; fill-opacity: 0.95; stroke: #000000; stroke-opacity: 0.95; stroke-width: 0.4"/>
    </g>
   </g>
   <g id="legend_1">
    <g id="line2d_17">
     <path d="M 151.38 210.5325 
L 162.63 210.5325 
L 173.88 210.5325 
" style="fill: none; stroke-dasharray: 7.4,3.2; stroke-dashoffset: 0; stroke: #4285f4; stroke-opacity: 0.95; stroke-width: 2"/>
    </g>
    <g id="text_14">
     <!-- PEG-300K 5%: $\tau=13.9\,\dot\gamma^{0.82}$  ($R^2$=1.00) -->
     <g transform="translate(182.88 214.47) scale(0.1125 -0.1125)">
      <defs>
       <path id="ArialMT-45" d="M 506 0 
L 506 4581 
L 3819 4581 
L 3819 4041 
L 1113 4041 
L 1113 2638 
L 3647 2638 
L 3647 2100 
L 1113 2100 
L 1113 541 
L 3925 541 
L 3925 0 
L 506 0 
z
" transform="scale(0.015625)"/>
       <path id="ArialMT-47" d="M 2638 1797 
L 2638 2334 
L 4578 2338 
L 4578 638 
Q 4131 281 3656 101 
Q 3181 -78 2681 -78 
Q 2006 -78 1454 211 
Q 903 500 622 1047 
Q 341 1594 341 2269 
Q 341 2938 620 3517 
Q 900 4097 1425 4378 
Q 1950 4659 2634 4659 
Q 3131 4659 3532 4498 
Q 3934 4338 4162 4050 
Q 4391 3763 4509 3300 
L 3963 3150 
Q 3859 3500 3706 3700 
Q 3553 3900 3268 4020 
Q 2984 4141 2638 4141 
Q 2222 4141 1919 4014 
Q 1616 3888 1430 3681 
Q 1244 3475 1141 3228 
Q 966 2803 966 2306 
Q 966 1694 1177 1281 
Q 1388 869 1791 669 
Q 2194 469 2647 469 
Q 3041 469 3416 620 
Q 3791 772 3984 944 
L 3984 1797 
L 2638 1797 
z
" transform="scale(0.015625)"/>
       <path id="ArialMT-2d" d="M 203 1375 
L 203 1941 
L 1931 1941 
L 1931 1375 
L 203 1375 
z
" transform="scale(0.015625)"/>
       <path id="ArialMT-33" d="M 269 1209 
L 831 1284 
Q 928 806 1161 595 
Q 1394 384 1728 384 
Q 2125 384 2398 659 
Q 2672 934 2672 1341 
Q 2672 1728 2419 1979 
Q 2166 2231 1775 2231 
Q 1616 2231 1378 2169 
L 1441 2663 
Q 1497 2656 1531 2656 
Q 1891 2656 2178 2843 
Q 2466 3031 2466 3422 
Q 2466 3731 2256 3934 
Q 2047 4138 1716 4138 
Q 1388 4138 1169 3931 
Q 950 3725 888 3313 
L 325 3413 
Q 428 3978 793 4289 
Q 1159 4600 1703 4600 
Q 2078 4600 2393 4439 
Q 2709 4278 2876 4000 
Q 3044 3722 3044 3409 
Q 3044 3113 2884 2869 
Q 2725 2625 2413 2481 
Q 2819 2388 3044 2092 
Q 3269 1797 3269 1353 
Q 3269 753 2831 336 
Q 2394 -81 1725 -81 
Q 1122 -81 723 278 
Q 325 638 269 1209 
z
" transform="scale(0.015625)"/>
       <path id="ArialMT-4b" d="M 469 0 
L 469 4581 
L 1075 4581 
L 1075 2309 
L 3350 4581 
L 4172 4581 
L 2250 2725 
L 4256 0 
L 3456 0 
L 1825 2319 
L 1075 1588 
L 1075 0 
L 469 0 
z
" transform="scale(0.015625)"/>
       <path id="ArialMT-25" d="M 372 3481 
Q 372 3972 619 4315 
Q 866 4659 1334 4659 
Q 1766 4659 2048 4351 
Q 2331 4044 2331 3447 
Q 2331 2866 2045 2552 
Q 1759 2238 1341 2238 
Q 925 2238 648 2547 
Q 372 2856 372 3481 
z
M 1350 4272 
Q 1141 4272 1002 4090 
Q 863 3909 863 3425 
Q 863 2984 1003 2804 
Q 1144 2625 1350 2625 
Q 1563 2625 1702 2806 
Q 1841 2988 1841 3469 
Q 1841 3913 1700 4092 
Q 1559 4272 1350 4272 
z
M 1353 -169 
L 3859 4659 
L 4316 4659 
L 1819 -169 
L 1353 -169 
z
M 3334 1075 
Q 3334 1569 3581 1911 
Q 3828 2253 4300 2253 
Q 4731 2253 5014 1945 
Q 5297 1638 5297 1041 
Q 5297 459 5011 145 
Q 4725 -169 4303 -169 
Q 3888 -169 3611 142 
Q 3334 453 3334 1075 
z
M 4316 1866 
Q 4103 1866 3964 1684 
Q 3825 1503 3825 1019 
Q 3825 581 3965 400 
Q 4106 219 4313 219 
Q 4528 219 4667 400 
Q 4806 581 4806 1063 
Q 4806 1506 4665 1686 
Q 4525 1866 4316 1866 
z
" transform="scale(0.015625)"/>
       <path id="ArialMT-3a" d="M 578 2678 
L 578 3319 
L 1219 3319 
L 1219 2678 
L 578 2678 
z
M 578 0 
L 578 641 
L 1219 641 
L 1219 0 
L 578 0 
z
" transform="scale(0.015625)"/>
       <path id="DejaVuSans-3d" d="M 678 2906 
L 4684 2906 
L 4684 2381 
L 678 2381 
L 678 2906 
z
M 678 1631 
L 4684 1631 
L 4684 1100 
L 678 1100 
L 678 1631 
z
" transform="scale(0.015625)"/>
       <path id="DejaVuSans-31" d="M 794 531 
L 1825 531 
L 1825 4091 
L 703 3866 
L 703 4441 
L 1819 4666 
L 2450 4666 
L 2450 531 
L 3481 531 
L 3481 0 
L 794 0 
L 794 531 
z
" transform="scale(0.015625)"/>
       <path id="DejaVuSans-33" d="M 2597 2516 
Q 3050 2419 3304 2112 
Q 3559 1806 3559 1356 
Q 3559 666 3084 287 
Q 2609 -91 1734 -91 
Q 1441 -91 1130 -33 
Q 819 25 488 141 
L 488 750 
Q 750 597 1062 519 
Q 1375 441 1716 441 
Q 2309 441 2620 675 
Q 2931 909 2931 1356 
Q 2931 1769 2642 2001 
Q 2353 2234 1838 2234 
L 1294 2234 
L 1294 2753 
L 1863 2753 
Q 2328 2753 2575 2939 
Q 2822 3125 2822 3475 
Q 2822 3834 2567 4026 
Q 2313 4219 1838 4219 
Q 1578 4219 1281 4162 
Q 984 4106 628 3988 
L 628 4550 
Q 988 4650 1302 4700 
Q 1616 4750 1894 4750 
Q 2613 4750 3031 4423 
Q 3450 4097 3450 3541 
Q 3450 3153 3228 2886 
Q 3006 2619 2597 2516 
z
" transform="scale(0.015625)"/>
       <path id="DejaVuSans-2e" d="M 684 794 
L 1344 794 
L 1344 0 
L 684 0 
L 684 794 
z
" transform="scale(0.015625)"/>
       <path id="DejaVuSans-39" d="M 703 97 
L 703 672 
Q 941 559 1184 500 
Q 1428 441 1663 441 
Q 2288 441 2617 861 
Q 2947 1281 2994 2138 
Q 2813 1869 2534 1725 
Q 2256 1581 1919 1581 
Q 1219 1581 811 2004 
Q 403 2428 403 3163 
Q 403 3881 828 4315 
Q 1253 4750 1959 4750 
Q 2769 4750 3195 4129 
Q 3622 3509 3622 2328 
Q 3622 1225 3098 567 
Q 2575 -91 1691 -91 
Q 1453 -91 1209 -44 
Q 966 3 703 97 
z
M 1959 2075 
Q 2384 2075 2632 2365 
Q 2881 2656 2881 3163 
Q 2881 3666 2632 3958 
Q 2384 4250 1959 4250 
Q 1534 4250 1286 3958 
Q 1038 3666 1038 3163 
Q 1038 2656 1286 2365 
Q 1534 2075 1959 2075 
z
" transform="scale(0.015625)"/>
       <path id="DejaVuSans-30" d="M 2034 4250 
Q 1547 4250 1301 3770 
Q 1056 3291 1056 2328 
Q 1056 1369 1301 889 
Q 1547 409 2034 409 
Q 2525 409 2770 889 
Q 3016 1369 3016 2328 
Q 3016 3291 2770 3770 
Q 2525 4250 2034 4250 
z
M 2034 4750 
Q 2819 4750 3233 4129 
Q 3647 3509 3647 2328 
Q 3647 1150 3233 529 
Q 2819 -91 2034 -91 
Q 1250 -91 836 529 
Q 422 1150 422 2328 
Q 422 3509 836 4129 
Q 1250 4750 2034 4750 
z
" transform="scale(0.015625)"/>
       <path id="DejaVuSans-38" d="M 2034 2216 
Q 1584 2216 1326 1975 
Q 1069 1734 1069 1313 
Q 1069 891 1326 650 
Q 1584 409 2034 409 
Q 2484 409 2743 651 
Q 3003 894 3003 1313 
Q 3003 1734 2745 1975 
Q 2488 2216 2034 2216 
z
M 1403 2484 
Q 997 2584 770 2862 
Q 544 3141 544 3541 
Q 544 4100 942 4425 
Q 1341 4750 2034 4750 
Q 2731 4750 3128 4425 
Q 3525 4100 3525 3541 
Q 3525 3141 3298 2862 
Q 3072 2584 2669 2484 
Q 3125 2378 3379 2068 
Q 3634 1759 3634 1313 
Q 3634 634 3220 271 
Q 2806 -91 2034 -91 
Q 1263 -91 848 271 
Q 434 634 434 1313 
Q 434 1759 690 2068 
Q 947 2378 1403 2484 
z
M 1172 3481 
Q 1172 3119 1398 2916 
Q 1625 2713 2034 2713 
Q 2441 2713 2670 2916 
Q 2900 3119 2900 3481 
Q 2900 3844 2670 4047 
Q 2441 4250 2034 4250 
Q 1625 4250 1398 4047 
Q 1172 3844 1172 3481 
z
" transform="scale(0.015625)"/>
       <path id="DejaVuSans-32" d="M 1228 531 
L 3431 531 
L 3431 0 
L 469 0 
L 469 531 
Q 828 903 1448 1529 
Q 2069 2156 2228 2338 
Q 2531 2678 2651 2914 
Q 2772 3150 2772 3378 
Q 2772 3750 2511 3984 
Q 2250 4219 1831 4219 
Q 1534 4219 1204 4116 
Q 875 4013 500 3803 
L 500 4441 
Q 881 4594 1212 4672 
Q 1544 4750 1819 4750 
Q 2544 4750 2975 4387 
Q 3406 4025 3406 3419 
Q 3406 3131 3298 2873 
Q 3191 2616 2906 2266 
Q 2828 2175 2409 1742 
Q 1991 1309 1228 531 
z
" transform="scale(0.015625)"/>
       <path id="DejaVuSans-Oblique-52" d="M 1613 4147 
L 1294 2491 
L 2106 2491 
Q 2584 2491 2879 2755 
Q 3175 3019 3175 3444 
Q 3175 3784 2976 3965 
Q 2778 4147 2406 4147 
L 1613 4147 
z
M 2772 2241 
Q 2972 2194 3105 2009 
Q 3238 1825 3413 1275 
L 3809 0 
L 3144 0 
L 2778 1197 
Q 2638 1659 2453 1815 
Q 2269 1972 1888 1972 
L 1191 1972 
L 806 0 
L 172 0 
L 1081 4666 
L 2503 4666 
Q 3150 4666 3495 4373 
Q 3841 4081 3841 3531 
Q 3841 3044 3547 2687 
Q 3253 2331 2772 2241 
z
" transform="scale(0.015625)"/>
       <path id="ArialMT-3d" d="M 3381 2694 
L 356 2694 
L 356 3219 
L 3381 3219 
L 3381 2694 
z
M 3381 1303 
L 356 1303 
L 356 1828 
L 3381 1828 
L 3381 1303 
z
" transform="scale(0.015625)"/>
       <path id="ArialMT-2e" d="M 581 0 
L 581 641 
L 1222 641 
L 1222 0 
L 581 0 
z
" transform="scale(0.015625)"/>
      </defs>
      <use xlink:href="#ArialMT-50" transform="translate(0 0.765625)"/>
      <use xlink:href="#ArialMT-45" transform="translate(66.699219 0.765625)"/>
      <use xlink:href="#ArialMT-47" transform="translate(133.398438 0.765625)"/>
      <use xlink:href="#ArialMT-2d" transform="translate(211.181641 0.765625)"/>
      <use xlink:href="#ArialMT-33" transform="translate(244.482422 0.765625)"/>
      <use xlink:href="#ArialMT-30" transform="translate(300.097656 0.765625)"/>
      <use xlink:href="#ArialMT-30" transform="translate(355.712891 0.765625)"/>
      <use xlink:href="#ArialMT-4b" transform="translate(411.328125 0.765625)"/>
      <use xlink:href="#ArialMT-20" transform="translate(478.027344 0.765625)"/>
      <use xlink:href="#ArialMT-35" transform="translate(505.810547 0.765625)"/>
      <use xlink:href="#ArialMT-25" transform="translate(561.425781 0.765625)"/>
      <use xlink:href="#ArialMT-3a" transform="translate(650.341797 0.765625)"/>
      <use xlink:href="#ArialMT-20" transform="translate(678.125 0.765625)"/>
      <use xlink:href="#DejaVuSans-Oblique-3c4" transform="translate(705.908203 0.765625)"/>
      <use xlink:href="#DejaVuSans-3d" transform="translate(785.595703 0.765625)"/>
      <use xlink:href="#DejaVuSans-31" transform="translate(888.867188 0.765625)"/>
      <use xlink:href="#DejaVuSans-33" transform="translate(952.490234 0.765625)"/>
      <use xlink:href="#DejaVuSans-2e" transform="translate(1016.113281 0.765625)"/>
      <use xlink:href="#DejaVuSans-39" transform="translate(1047.900391 0.765625)"/>
      <use xlink:href="#DejaVuSans-307" transform="translate(1188.376301 11.953125)"/>
      <use xlink:href="#DejaVuSans-Oblique-3b3" transform="translate(1127.759114 0.765625)"/>
      <use xlink:href="#DejaVuSans-30" transform="translate(1187.895833 39.046875) scale(0.7)"/>
      <use xlink:href="#DejaVuSans-2e" transform="translate(1232.431965 39.046875) scale(0.7)"/>
      <use xlink:href="#DejaVuSans-38" transform="translate(1252.845442 39.046875) scale(0.7)"/>
      <use xlink:href="#DejaVuSans-32" transform="translate(1297.381575 39.046875) scale(0.7)"/>
      <use xlink:href="#ArialMT-20" transform="translate(1344.652083 0.765625)"/>
      <use xlink:href="#ArialMT-20" transform="translate(1372.435286 0.765625)"/>
      <use xlink:href="#ArialMT-28" transform="translate(1400.218489 0.765625)"/>
      <use xlink:href="#DejaVuSans-Oblique-52" transform="translate(1433.51927 0.765625)"/>
      <use xlink:href="#DejaVuSans-32" transform="translate(1510.018463 39.046875) scale(0.7)"/>
      <use xlink:href="#ArialMT-3d" transform="translate(1557.288971 0.765625)"/>
      <use xlink:href="#ArialMT-31" transform="translate(1615.687408 0.765625)"/>
      <use xlink:href="#ArialMT-2e" transform="translate(1671.302642 0.765625)"/>
      <use xlink:href="#ArialMT-30" transform="translate(1699.085846 0.765625)"/>
      <use xlink:href="#ArialMT-30" transform="translate(1754.70108 0.765625)"/>
      <use xlink:href="#ArialMT-29" transform="translate(1810.316314 0.765625)"/>
     </g>
    </g>
    <g id="line2d_18">
     <path d="M 151.38 228.87 
L 162.63 228.87 
L 173.88 228.87 
" style="fill: none; stroke-dasharray: 7.4,3.2; stroke-dashoffset: 0; stroke: #ea4335; stroke-opacity: 0.95; stroke-width: 2"/>
    </g>
    <g id="text_15">
     <!-- PEG-300K 10%: $\tau=28.8\,\dot\gamma^{0.88}$  ($R^2$=1.00) -->
     <g transform="translate(182.88 232.8075) scale(0.1125 -0.1125)">
      <use xlink:href="#ArialMT-50" transform="translate(0 0.765625)"/>
      <use xlink:href="#ArialMT-45" transform="translate(66.699219 0.765625)"/>
      <use xlink:href="#ArialMT-47" transform="translate(133.398438 0.765625)"/>
      <use xlink:href="#ArialMT-2d" transform="translate(211.181641 0.765625)"/>
      <use xlink:href="#ArialMT-33" transform="translate(244.482422 0.765625)"/>
      <use xlink:href="#ArialMT-30" transform="translate(300.097656 0.765625)"/>
      <use xlink:href="#ArialMT-30" transform="translate(355.712891 0.765625)"/>
      <use xlink:href="#ArialMT-4b" transform="translate(411.328125 0.765625)"/>
      <use xlink:href="#ArialMT-20" transform="translate(478.027344 0.765625)"/>
      <use xlink:href="#ArialMT-31" transform="translate(505.810547 0.765625)"/>
      <use xlink:href="#ArialMT-30" transform="translate(561.425781 0.765625)"/>
      <use xlink:href="#ArialMT-25" transform="translate(617.041016 0.765625)"/>
      <use xlink:href="#ArialMT-3a" transform="translate(705.957031 0.765625)"/>
      <use xlink:href="#ArialMT-20" transform="translate(733.740234 0.765625)"/>
      <use xlink:href="#DejaVuSans-Oblique-3c4" transform="translate(761.523438 0.765625)"/>
      <use xlink:href="#DejaVuSans-3d" transform="translate(841.210938 0.765625)"/>
      <use xlink:href="#DejaVuSans-32" transform="translate(944.482422 0.765625)"/>
      <use xlink:href="#DejaVuSans-38" transform="translate(1008.105469 0.765625)"/>
      <use xlink:href="#DejaVuSans-2e" transform="translate(1071.728516 0.765625)"/>
      <use xlink:href="#DejaVuSans-38" transform="translate(1100.890625 0.765625)"/>
      <use xlink:href="#DejaVuSans-307" transform="translate(1241.366536 11.953125)"/>
      <use xlink:href="#DejaVuSans-Oblique-3b3" transform="translate(1180.749348 0.765625)"/>
      <use xlink:href="#DejaVuSans-30" transform="translate(1240.886067 39.046875) scale(0.7)"/>
      <use xlink:href="#DejaVuSans-2e" transform="translate(1285.4222 39.046875) scale(0.7)"/>
      <use xlink:href="#DejaVuSans-38" transform="translate(1305.835676 39.046875) scale(0.7)"/>
      <use xlink:href="#DejaVuSans-38" transform="translate(1350.371809 39.046875) scale(0.7)"/>
      <use xlink:href="#ArialMT-20" transform="translate(1397.642317 0.765625)"/>
      <use xlink:href="#ArialMT-20" transform="translate(1425.42552 0.765625)"/>
      <use xlink:href="#ArialMT-28" transform="translate(1453.208723 0.765625)"/>
      <use xlink:href="#DejaVuSans-Oblique-52" transform="translate(1486.509504 0.765625)"/>
      <use xlink:href="#DejaVuSans-32" transform="translate(1563.008697 39.046875) scale(0.7)"/>
      <use xlink:href="#ArialMT-3d" transform="translate(1610.279205 0.765625)"/>
      <use xlink:href="#ArialMT-31" transform="translate(1668.677642 0.765625)"/>
      <use xlink:href="#ArialMT-2e" transform="translate(1724.292877 0.765625)"/>
      <use xlink:href="#ArialMT-30" transform="translate(1752.07608 0.765625)"/>
      <use xlink:href="#ArialMT-30" transform="translate(1807.691314 0.765625)"/>
      <use xlink:href="#ArialMT-29" transform="translate(1863.306549 0.765625)"/>
     </g>
    </g>
    <g id="line2d_19">
     <path d="M 151.38 247.2075 
L 162.63 247.2075 
L 173.88 247.2075 
" style="fill: none; stroke-dasharray: 7.4,3.2; stroke-dashoffset: 0; stroke: #fbbc05; stroke-opacity: 0.95; stroke-width: 2"/>
    </g>
    <g id="text_16">
     <!-- PEG-600K 5%: $\tau=18.4\,\dot\gamma^{1.05}$  ($R^2$=1.00) -->
     <g transform="translate(182.88 251.145) scale(0.1125 -0.1125)">
      <defs>
       <path id="DejaVuSans-34" d="M 2419 4116 
L 825 1625 
L 2419 1625 
L 2419 4116 
z
M 2253 4666 
L 3047 4666 
L 3047 1625 
L 3713 1625 
L 3713 1100 
L 3047 1100 
L 3047 0 
L 2419 0 
L 2419 1100 
L 313 1100 
L 313 1709 
L 2253 4666 
z
" transform="scale(0.015625)"/>
       <path id="DejaVuSans-35" d="M 691 4666 
L 3169 4666 
L 3169 4134 
L 1269 4134 
L 1269 2991 
Q 1406 3038 1543 3061 
Q 1681 3084 1819 3084 
Q 2600 3084 3056 2656 
Q 3513 2228 3513 1497 
Q 3513 744 3044 326 
Q 2575 -91 1722 -91 
Q 1428 -91 1123 -41 
Q 819 9 494 109 
L 494 744 
Q 775 591 1075 516 
Q 1375 441 1709 441 
Q 2250 441 2565 725 
Q 2881 1009 2881 1497 
Q 2881 1984 2565 2268 
Q 2250 2553 1709 2553 
Q 1456 2553 1204 2497 
Q 953 2441 691 2322 
L 691 4666 
z
" transform="scale(0.015625)"/>
      </defs>
      <use xlink:href="#ArialMT-50" transform="translate(0 0.765625)"/>
      <use xlink:href="#ArialMT-45" transform="translate(66.699219 0.765625)"/>
      <use xlink:href="#ArialMT-47" transform="translate(133.398438 0.765625)"/>
      <use xlink:href="#ArialMT-2d" transform="translate(211.181641 0.765625)"/>
      <use xlink:href="#ArialMT-36" transform="translate(244.482422 0.765625)"/>
      <use xlink:href="#ArialMT-30" transform="translate(300.097656 0.765625)"/>
      <use xlink:href="#ArialMT-30" transform="translate(355.712891 0.765625)"/>
      <use xlink:href="#ArialMT-4b" transform="translate(411.328125 0.765625)"/>
      <use xlink:href="#ArialMT-20" transform="translate(478.027344 0.765625)"/>
      <use xlink:href="#ArialMT-35" transform="translate(505.810547 0.765625)"/>
      <use xlink:href="#ArialMT-25" transform="translate(561.425781 0.765625)"/>
      <use xlink:href="#ArialMT-3a" transform="translate(650.341797 0.765625)"/>
      <use xlink:href="#ArialMT-20" transform="translate(678.125 0.765625)"/>
      <use xlink:href="#DejaVuSans-Oblique-3c4" transform="translate(705.908203 0.765625)"/>
      <use xlink:href="#DejaVuSans-3d" transform="translate(785.595703 0.765625)"/>
      <use xlink:href="#DejaVuSans-31" transform="translate(888.867188 0.765625)"/>
      <use xlink:href="#DejaVuSans-38" transform="translate(952.490234 0.765625)"/>
      <use xlink:href="#DejaVuSans-2e" transform="translate(1016.113281 0.765625)"/>
      <use xlink:href="#DejaVuSans-34" transform="translate(1047.900391 0.765625)"/>
      <use xlink:href="#DejaVuSans-307" transform="translate(1188.376301 11.953125)"/>
      <use xlink:href="#DejaVuSans-Oblique-3b3" transform="translate(1127.759114 0.765625)"/>
      <use xlink:href="#DejaVuSans-31" transform="translate(1187.895833 39.046875) scale(0.7)"/>
      <use xlink:href="#DejaVuSans-2e" transform="translate(1232.431965 39.046875) scale(0.7)"/>
      <use xlink:href="#DejaVuSans-30" transform="translate(1254.682942 39.046875) scale(0.7)"/>
      <use xlink:href="#DejaVuSans-35" transform="translate(1299.219075 39.046875) scale(0.7)"/>
      <use xlink:href="#ArialMT-20" transform="translate(1346.489583 0.765625)"/>
      <use xlink:href="#ArialMT-20" transform="translate(1374.272786 0.765625)"/>
      <use xlink:href="#ArialMT-28" transform="translate(1402.055989 0.765625)"/>
      <use xlink:href="#DejaVuSans-Oblique-52" transform="translate(1435.35677 0.765625)"/>
      <use xlink:href="#DejaVuSans-32" transform="translate(1511.855963 39.046875) scale(0.7)"/>
      <use xlink:href="#ArialMT-3d" transform="translate(1559.126471 0.765625)"/>
      <use xlink:href="#ArialMT-31" transform="translate(1617.524908 0.765625)"/>
      <use xlink:href="#ArialMT-2e" transform="translate(1673.140142 0.765625)"/>
      <use xlink:href="#ArialMT-30" transform="translate(1700.923346 0.765625)"/>
      <use xlink:href="#ArialMT-30" transform="translate(1756.53858 0.765625)"/>
      <use xlink:href="#ArialMT-29" transform="translate(1812.153814 0.765625)"/>
     </g>
    </g>
    <g id="line2d_20">
     <path d="M 151.38 265.545 
L 162.63 265.545 
L 173.88 265.545 
" style="fill: none; stroke-dasharray: 7.4,3.2; stroke-dashoffset: 0; stroke: #34a853; stroke-opacity: 0.95; stroke-width: 2"/>
    </g>
    <g id="text_17">
     <!-- PEG-600K 6.5%: $\tau=35.1\,\dot\gamma^{0.74}$  ($R^2$=1.00) -->
     <g transform="translate(182.88 269.4825) scale(0.1125 -0.1125)">
      <defs>
       <path id="DejaVuSans-37" d="M 525 4666 
L 3525 4666 
L 3525 4397 
L 1831 0 
L 1172 0 
L 2766 4134 
L 525 4134 
L 525 4666 
z
" transform="scale(0.015625)"/>
      </defs>
      <use xlink:href="#ArialMT-50" transform="translate(0 0.765625)"/>
      <use xlink:href="#ArialMT-45" transform="translate(66.699219 0.765625)"/>
      <use xlink:href="#ArialMT-47" transform="translate(133.398438 0.765625)"/>
      <use xlink:href="#ArialMT-2d" transform="translate(211.181641 0.765625)"/>
      <use xlink:href="#ArialMT-36" transform="translate(244.482422 0.765625)"/>
      <use xlink:href="#ArialMT-30" transform="translate(300.097656 0.765625)"/>
      <use xlink:href="#ArialMT-30" transform="translate(355.712891 0.765625)"/>
      <use xlink:href="#ArialMT-4b" transform="translate(411.328125 0.765625)"/>
      <use xlink:href="#ArialMT-20" transform="translate(478.027344 0.765625)"/>
      <use xlink:href="#ArialMT-36" transform="translate(505.810547 0.765625)"/>
      <use xlink:href="#ArialMT-2e" transform="translate(561.425781 0.765625)"/>
      <use xlink:href="#ArialMT-35" transform="translate(589.208984 0.765625)"/>
      <use xlink:href="#ArialMT-25" transform="translate(644.824219 0.765625)"/>
      <use xlink:href="#ArialMT-3a" transform="translate(733.740234 0.765625)"/>
      <use xlink:href="#ArialMT-20" transform="translate(761.523438 0.765625)"/>
      <use xlink:href="#DejaVuSans-Oblique-3c4" transform="translate(789.306641 0.765625)"/>
      <use xlink:href="#DejaVuSans-3d" transform="translate(868.994141 0.765625)"/>
      <use xlink:href="#DejaVuSans-33" transform="translate(972.265625 0.765625)"/>
      <use xlink:href="#DejaVuSans-35" transform="translate(1035.888672 0.765625)"/>
      <use xlink:href="#DejaVuSans-2e" transform="translate(1099.511719 0.765625)"/>
      <use xlink:href="#DejaVuSans-31" transform="translate(1131.298828 0.765625)"/>
      <use xlink:href="#DejaVuSans-307" transform="translate(1271.774739 11.953125)"/>
      <use xlink:href="#DejaVuSans-Oblique-3b3" transform="translate(1211.157551 0.765625)"/>
      <use xlink:href="#DejaVuSans-30" transform="translate(1271.29427 39.046875) scale(0.7)"/>
      <use xlink:href="#DejaVuSans-2e" transform="translate(1315.830403 39.046875) scale(0.7)"/>
      <use xlink:href="#DejaVuSans-37" transform="translate(1332.656379 39.046875) scale(0.7)"/>
      <use xlink:href="#DejaVuSans-34" transform="translate(1377.192512 39.046875) scale(0.7)"/>
      <use xlink:href="#ArialMT-20" transform="translate(1424.46302 0.765625)"/>
      <use xlink:href="#ArialMT-20" transform="translate(1452.246223 0.765625)"/>
      <use xlink:href="#ArialMT-28" transform="translate(1480.029426 0.765625)"/>
      <use xlink:href="#DejaVuSans-Oblique-52" transform="translate(1513.330208 0.765625)"/>
      <use xlink:href="#DejaVuSans-32" transform="translate(1589.8294 39.046875) scale(0.7)"/>
      <use xlink:href="#ArialMT-3d" transform="translate(1637.099908 0.765625)"/>
      <use xlink:href="#ArialMT-31" transform="translate(1695.498346 0.765625)"/>
      <use xlink:href="#ArialMT-2e" transform="translate(1751.11358 0.765625)"/>
      <use xlink:href="#ArialMT-30" transform="translate(1778.896783 0.765625)"/>
      <use xlink:href="#ArialMT-30" transform="translate(1834.512017 0.765625)"/>
      <use xlink:href="#ArialMT-29" transform="translate(1890.127252 0.765625)"/>
     </g>
    </g>
    <g id="line2d_21">
     <path d="M 151.38 283.8825 
L 162.63 283.8825 
L 173.88 283.8825 
" style="fill: none; stroke-dasharray: 7.4,3.2; stroke-dashoffset: 0; stroke: #ff6d00; stroke-opacity: 0.95; stroke-width: 2"/>
    </g>
    <g id="text_18">
     <!-- PEG-600K 10%: $\tau=19.5\,\dot\gamma^{0.80}$  ($R^2$=1.00) -->
     <g transform="translate(182.88 287.82) scale(0.1125 -0.1125)">
      <use xlink:href="#ArialMT-50" transform="translate(0 0.765625)"/>
      <use xlink:href="#ArialMT-45" transform="translate(66.699219 0.765625)"/>
      <use xlink:href="#ArialMT-47" transform="translate(133.398438 0.765625)"/>
      <use xlink:href="#ArialMT-2d" transform="translate(211.181641 0.765625)"/>
      <use xlink:href="#ArialMT-36" transform="translate(244.482422 0.765625)"/>
      <use xlink:href="#ArialMT-30" transform="translate(300.097656 0.765625)"/>
      <use xlink:href="#ArialMT-30" transform="translate(355.712891 0.765625)"/>
      <use xlink:href="#ArialMT-4b" transform="translate(411.328125 0.765625)"/>
      <use xlink:href="#ArialMT-20" transform="translate(478.027344 0.765625)"/>
      <use xlink:href="#ArialMT-31" transform="translate(505.810547 0.765625)"/>
      <use xlink:href="#ArialMT-30" transform="translate(561.425781 0.765625)"/>
      <use xlink:href="#ArialMT-25" transform="translate(617.041016 0.765625)"/>
      <use xlink:href="#ArialMT-3a" transform="translate(705.957031 0.765625)"/>
      <use xlink:href="#ArialMT-20" transform="translate(733.740234 0.765625)"/>
      <use xlink:href="#DejaVuSans-Oblique-3c4" transform="translate(761.523438 0.765625)"/>
      <use xlink:href="#DejaVuSans-3d" transform="translate(841.210938 0.765625)"/>
      <use xlink:href="#DejaVuSans-31" transform="translate(944.482422 0.765625)"/>
      <use xlink:href="#DejaVuSans-39" transform="translate(1008.105469 0.765625)"/>
      <use xlink:href="#DejaVuSans-2e" transform="translate(1071.728516 0.765625)"/>
      <use xlink:href="#DejaVuSans-35" transform="translate(1103.515625 0.765625)"/>
      <use xlink:href="#DejaVuSans-307" transform="translate(1243.991536 11.953125)"/>
      <use xlink:href="#DejaVuSans-Oblique-3b3" transform="translate(1183.374348 0.765625)"/>
      <use xlink:href="#DejaVuSans-30" transform="translate(1243.511067 39.046875) scale(0.7)"/>
      <use xlink:href="#DejaVuSans-2e" transform="translate(1288.0472 39.046875) scale(0.7)"/>
      <use xlink:href="#DejaVuSans-38" transform="translate(1308.460676 39.046875) scale(0.7)"/>
      <use xlink:href="#DejaVuSans-30" transform="translate(1352.996809 39.046875) scale(0.7)"/>
      <use xlink:href="#ArialMT-20" transform="translate(1400.267317 0.765625)"/>
      <use xlink:href="#ArialMT-20" transform="translate(1428.05052 0.765625)"/>
      <use xlink:href="#ArialMT-28" transform="translate(1455.833723 0.765625)"/>
      <use xlink:href="#DejaVuSans-Oblique-52" transform="translate(1489.134504 0.765625)"/>
      <use xlink:href="#DejaVuSans-32" transform="translate(1565.633697 39.046875) scale(0.7)"/>
      <use xlink:href="#ArialMT-3d" transform="translate(1612.904205 0.765625)"/>
      <use xlink:href="#ArialMT-31" transform="translate(1671.302642 0.765625)"/>
      <use xlink:href="#ArialMT-2e" transform="translate(1726.917877 0.765625)"/>
      <use xlink:href="#ArialMT-30" transform="translate(1754.70108 0.765625)"/>
      <use xlink:href="#ArialMT-30" transform="translate(1810.316314 0.765625)"/>
      <use xlink:href="#ArialMT-29" transform="translate(1865.931549 0.765625)"/>
     </g>
    </g>
   </g>
  </g>
 </g>
 <defs>
  <clipPath id="pb74d5b81cb">
   <rect x="75.44" y="15.84" width="334.015" height="284.58"/>
  </clipPath>
 </defs>
</svg>
