<?xml version="1.0" encoding="utf-8" standalone="no"?>
<!DOCTYPE svg PUBLIC "-//W3C//DTD SVG 1.1//EN"
  "http://www.w3.org/Graphics/SVG/1.1/DTD/svg11.dtd">
<svg xmlns:xlink="http://www.w3.org/1999/xlink" width="432pt" height="360pt" viewBox="0 0 432 360" xmlns="http://www.w3.org/2000/svg" version="1.1">
 <metadata>
  <rdf:RDF xmlns:dc="http://purl.org/dc/elements/1.1/" xmlns:cc="http://creativecommons.org/ns#" xmlns:rdf="http://www.w3.org/1999/02/22-rdf-syntax-ns#">
   <cc:Work>
    <dc:type rdf:resource="http://purl.org/dc/dcmitype/StillImage"/>
    <dc:date>2026-07-07T10:55:28.757690</dc:date>
    <dc:format>image/svg+xml</dc:format>
    <dc:creator>
     <cc:Agent>
      <dc:title>Matplotlib v3.10.0, https://matplotlib.org/</dc:title>
     </cc:Agent>
    </dc:creator>
   </cc:Work>
  </rdf:RDF>
 </metadata>
 <defs>
  <style type="text/css">*{stroke-linejoin: round; stroke-linecap: butt}</style>
 </defs>
 <g id="figure_1">
  <g id="patch_1">
   <path d="M 0 360 
L 432 360 
L 432 0 
L 0 0 
z
" style="fill: #ffffff"/>
  </g>
  <g id="axes_1">
   <g id="patch_2">
    <path d="M 59.78 300.42 
L 411.39 300.42 
L 411.39 15.84 
L 59.78 15.84 
z
" style="fill: #ffffff"/>
   </g>
   <g id="matplotlib.axis_1">
    <g id="xtick_1">
     <g id="line2d_1">
      <defs>
       <path id="m27364897fc" d="M 0 0 
L 0 3.5 
" style="stroke: #000000; stroke-width: 0.8"/>
      </defs>
      <g>
       <use xlink:href="#m27364897fc" x="59.78" y="300.42" style="stroke: #000000; stroke-width: 0.8"/>
      </g>
     </g>
     <g id="text_1">
      <!-- 0.0 -->
      <g transform="translate(50.05 317.440938) scale(0.14 -0.14)">
       <defs>
        <path id="ArialMT-30" d="M 266 2259 
Q 266 3072 433 3567 
Q 600 4063 929 4331 
Q 1259 4600 1759 4600 
Q 2128 4600 2406 4451 
Q 2684 4303 2865 4023 
Q 3047 3744 3150 3342 
Q 3253 2941 3253 2259 
Q 3253 1453 3087 958 
Q 2922 463 2592 192 
Q 2263 -78 1759 -78 
Q 1097 -78 719 397 
Q 266 969 266 2259 
z
M 844 2259 
Q 844 1131 1108 757 
Q 1372 384 1759 384 
Q 2147 384 2411 759 
Q 2675 1134 2675 2259 
Q 2675 3391 2411 3762 
Q 2147 4134 1753 4134 
Q 1366 4134 1134 3806 
Q 844 3388 844 2259 
z
" transform="scale(0.015625)"/>
        <path id="ArialMT-2e" d="M 581 0 
L 581 641 
L 1222 641 
L 1222 0 
L 581 0 
z
" transform="scale(0.015625)"/>
       </defs>
       <use xlink:href="#ArialMT-30"/>
       <use xlink:href="#ArialMT-2e" transform="translate(55.615234 0)"/>
       <use xlink:href="#ArialMT-30" transform="translate(83.398438 0)"/>
      </g>
     </g>
    </g>
    <g id="xtick_2">
     <g id="line2d_2">
      <g>
       <use xlink:href="#m27364897fc" x="118.381667" y="300.42" style="stroke: #000000; stroke-width: 0.8"/>
      </g>
     </g>
     <g id="text_2">
      <!-- 0.5 -->
      <g transform="translate(108.651667 317.440938) scale(0.14 -0.14)">
       <defs>
        <path id="ArialMT-35" d="M 266 1200 
L 856 1250 
Q 922 819 1161 601 
Q 1400 384 1738 384 
Q 2144 384 2425 690 
Q 2706 997 2706 1503 
Q 2706 1984 2436 2262 
Q 2166 2541 1728 2541 
Q 1456 2541 1237 2417 
Q 1019 2294 894 2097 
L 366 2166 
L 809 4519 
L 3088 4519 
L 3088 3981 
L 1259 3981 
L 1013 2750 
Q 1425 3038 1878 3038 
Q 2478 3038 2890 2622 
Q 3303 2206 3303 1553 
Q 3303 931 2941 478 
Q 2500 -78 1738 -78 
Q 1113 -78 717 272 
Q 322 622 266 1200 
z
" transform="scale(0.015625)"/>
       </defs>
       <use xlink:href="#ArialMT-30"/>
       <use xlink:href="#ArialMT-2e" transform="translate(55.615234 0)"/>
       <use xlink:href="#ArialMT-35" transform="translate(83.398438 0)"/>
      </g>
     </g>
    </g>
    <g id="xtick_3">
     <g id="line2d_3">
      <g>
       <use xlink:href="#m27364897fc" x="176.983333" y="300.42" style="stroke: #000000; stroke-width: 0.8"/>
      </g>
     </g>
     <g id="text_3">
      <!-- 1.0 -->
      <g transform="translate(167.253333 317.440938) scale(0.14 -0.14)">
       <defs>
        <path id="ArialMT-31" d="M 2384 0 
L 1822 0 
L 1822 3584 
Q 1619 3391 1289 3197 
Q 959 3003 697 2906 
L 697 3450 
Q 1169 3672 1522 3987 
Q 1875 4303 2022 4600 
L 2384 4600 
L 2384 0 
z
" transform="scale(0.015625)"/>
       </defs>
       <use xlink:href="#ArialMT-31"/>
       <use xlink:href="#ArialMT-2e" transform="translate(55.615234 0)"/>
       <use xlink:href="#ArialMT-30" transform="translate(83.398438 0)"/>
      </g>
     </g>
    </g>
    <g id="xtick_4">
     <g id="line2d_4">
      <g>
       <use xlink:href="#m27364897fc" x="235.585" y="300.42" style="stroke: #000000; stroke-width: 0.8"/>
      </g>
     </g>
     <g id="text_4">
      <!-- 1.5 -->
      <g transform="translate(225.855 317.440938) scale(0.14 -0.14)">
       <use xlink:href="#ArialMT-31"/>
       <use xlink:href="#ArialMT-2e" transform="translate(55.615234 0)"/>
       <use xlink:href="#ArialMT-35" transform="translate(83.398438 0)"/>
      </g>
     </g>
    </g>
    <g id="xtick_5">
     <g id="line2d_5">
      <g>
       <use xlink:href="#m27364897fc" x="294.186667" y="300.42" style="stroke: #000000; stroke-width: 0.8"/>
      </g>
     </g>
     <g id="text_5">
      <!-- 2.0 -->
      <g transform="translate(284.456667 317.440938) scale(0.14 -0.14)">
       <defs>
        <path id="ArialMT-32" d="M 3222 541 
L 3222 0 
L 194 0 
Q 188 203 259 391 
Q 375 700 629 1000 
Q 884 1300 1366 1694 
Q 2113 2306 2375 2664 
Q 2638 3022 2638 3341 
Q 2638 3675 2398 3904 
Q 2159 4134 1775 4134 
Q 1369 4134 1125 3890 
Q 881 3647 878 3216 
L 300 3275 
Q 359 3922 746 4261 
Q 1134 4600 1788 4600 
Q 2447 4600 2831 4234 
Q 3216 3869 3216 3328 
Q 3216 3053 3103 2787 
Q 2991 2522 2730 2228 
Q 2469 1934 1863 1422 
Q 1356 997 1212 845 
Q 1069 694 975 541 
L 3222 541 
z
" transform="scale(0.015625)"/>
       </defs>
       <use xlink:href="#ArialMT-32"/>
       <use xlink:href="#ArialMT-2e" transform="translate(55.615234 0)"/>
       <use xlink:href="#ArialMT-30" transform="translate(83.398438 0)"/>
      </g>
     </g>
    </g>
    <g id="xtick_6">
     <g id="line2d_6">
      <g>
       <use xlink:href="#m27364897fc" x="352.788333" y="300.42" style="stroke: #000000; stroke-width: 0.8"/>
      </g>
     </g>
     <g id="text_6">
      <!-- 2.5 -->
      <g transform="translate(343.058333 317.440938) scale(0.14 -0.14)">
       <use xlink:href="#ArialMT-32"/>
       <use xlink:href="#ArialMT-2e" transform="translate(55.615234 0)"/>
       <use xlink:href="#ArialMT-35" transform="translate(83.398438 0)"/>
      </g>
     </g>
    </g>
    <g id="xtick_7">
     <g id="line2d_7">
      <g>
       <use xlink:href="#m27364897fc" x="411.39" y="300.42" style="stroke: #000000; stroke-width: 0.8"/>
      </g>
     </g>
     <g id="text_7">
      <!-- 3.0 -->
      <g transform="translate(401.66 317.440938) scale(0.14 -0.14)">
       <defs>
        <path id="ArialMT-33" d="M 269 1209 
L 831 1284 
Q 928 806 1161 595 
Q 1394 384 1728 384 
Q 2125 384 2398 659 
Q 2672 934 2672 1341 
Q 2672 1728 2419 1979 
Q 2166 2231 1775 2231 
Q 1616 2231 1378 2169 
L 1441 2663 
Q 1497 2656 1531 2656 
Q 1891 2656 2178 2843 
Q 2466 3031 2466 3422 
Q 2466 3731 2256 3934 
Q 2047 4138 1716 4138 
Q 1388 4138 1169 3931 
Q 950 3725 888 3313 
L 325 3413 
Q 428 3978 793 4289 
Q 1159 4600 1703 4600 
Q 2078 4600 2393 4439 
Q 2709 4278 2876 4000 
Q 3044 3722 3044 3409 
Q 3044 3113 2884 2869 
Q 2725 2625 2413 2481 
Q 2819 2388 3044 2092 
Q 3269 1797 3269 1353 
Q 3269 753 2831 336 
Q 2394 -81 1725 -81 
Q 1122 -81 723 278 
Q 325 638 269 1209 
z
" transform="scale(0.015625)"/>
       </defs>
       <use xlink:href="#ArialMT-33"/>
       <use xlink:href="#ArialMT-2e" transform="translate(55.615234 0)"/>
       <use xlink:href="#ArialMT-30" transform="translate(83.398438 0)"/>
      </g>
     </g>
    </g>
    <g id="text_8">
     <!-- Shear rate  $\dot\gamma$  (1/s) -->
     <g transform="translate(151.785 341.823438) scale(0.2 -0.2)">
      <defs>
       <path id="ArialMT-53" d="M 288 1472 
L 859 1522 
Q 900 1178 1048 958 
Q 1197 738 1509 602 
Q 1822 466 2213 466 
Q 2559 466 2825 569 
Q 3091 672 3220 851 
Q 3350 1031 3350 1244 
Q 3350 1459 3225 1620 
Q 3100 1781 2813 1891 
Q 2628 1963 1997 2114 
Q 1366 2266 1113 2400 
Q 784 2572 623 2826 
Q 463 3081 463 3397 
Q 463 3744 659 4045 
Q 856 4347 1234 4503 
Q 1613 4659 2075 4659 
Q 2584 4659 2973 4495 
Q 3363 4331 3572 4012 
Q 3781 3694 3797 3291 
L 3216 3247 
Q 3169 3681 2898 3903 
Q 2628 4125 2100 4125 
Q 1550 4125 1298 3923 
Q 1047 3722 1047 3438 
Q 1047 3191 1225 3031 
Q 1400 2872 2139 2705 
Q 2878 2538 3153 2413 
Q 3553 2228 3743 1945 
Q 3934 1663 3934 1294 
Q 3934 928 3725 604 
Q 3516 281 3123 101 
Q 2731 -78 2241 -78 
Q 1619 -78 1198 103 
Q 778 284 539 648 
Q 300 1013 288 1472 
z
" transform="scale(0.015625)"/>
       <path id="ArialMT-68" d="M 422 0 
L 422 4581 
L 984 4581 
L 984 2938 
Q 1378 3394 1978 3394 
Q 2347 3394 2619 3248 
Q 2891 3103 3008 2847 
Q 3125 2591 3125 2103 
L 3125 0 
L 2563 0 
L 2563 2103 
Q 2563 2525 2380 2717 
Q 2197 2909 1863 2909 
Q 1613 2909 1392 2779 
Q 1172 2650 1078 2428 
Q 984 2206 984 1816 
L 984 0 
L 422 0 
z
" transform="scale(0.015625)"/>
       <path id="ArialMT-65" d="M 2694 1069 
L 3275 997 
Q 3138 488 2766 206 
Q 2394 -75 1816 -75 
Q 1088 -75 661 373 
Q 234 822 234 1631 
Q 234 2469 665 2931 
Q 1097 3394 1784 3394 
Q 2450 3394 2872 2941 
Q 3294 2488 3294 1666 
Q 3294 1616 3291 1516 
L 816 1516 
Q 847 969 1125 678 
Q 1403 388 1819 388 
Q 2128 388 2347 550 
Q 2566 713 2694 1069 
z
M 847 1978 
L 2700 1978 
Q 2663 2397 2488 2606 
Q 2219 2931 1791 2931 
Q 1403 2931 1139 2672 
Q 875 2413 847 1978 
z
" transform="scale(0.015625)"/>
       <path id="ArialMT-61" d="M 2588 409 
Q 2275 144 1986 34 
Q 1697 -75 1366 -75 
Q 819 -75 525 192 
Q 231 459 231 875 
Q 231 1119 342 1320 
Q 453 1522 633 1644 
Q 813 1766 1038 1828 
Q 1203 1872 1538 1913 
Q 2219 1994 2541 2106 
Q 2544 2222 2544 2253 
Q 2544 2597 2384 2738 
Q 2169 2928 1744 2928 
Q 1347 2928 1158 2789 
Q 969 2650 878 2297 
L 328 2372 
Q 403 2725 575 2942 
Q 747 3159 1072 3276 
Q 1397 3394 1825 3394 
Q 2250 3394 2515 3294 
Q 2781 3194 2906 3042 
Q 3031 2891 3081 2659 
Q 3109 2516 3109 2141 
L 3109 1391 
Q 3109 606 3145 398 
Q 3181 191 3288 0 
L 2700 0 
Q 2613 175 2588 409 
z
M 2541 1666 
Q 2234 1541 1622 1453 
Q 1275 1403 1131 1340 
Q 988 1278 909 1158 
Q 831 1038 831 891 
Q 831 666 1001 516 
Q 1172 366 1500 366 
Q 1825 366 2078 508 
Q 2331 650 2450 897 
Q 2541 1088 2541 1459 
L 2541 1666 
z
" transform="scale(0.015625)"/>
       <path id="ArialMT-72" d="M 416 0 
L 416 3319 
L 922 3319 
L 922 2816 
Q 1116 3169 1280 3281 
Q 1444 3394 1641 3394 
Q 1925 3394 2219 3213 
L 2025 2691 
Q 1819 2813 1613 2813 
Q 1428 2813 1281 2702 
Q 1134 2591 1072 2394 
Q 978 2094 978 1738 
L 978 0 
L 416 0 
z
" transform="scale(0.015625)"/>
       <path id="ArialMT-20" transform="scale(0.015625)"/>
       <path id="ArialMT-74" d="M 1650 503 
L 1731 6 
Q 1494 -44 1306 -44 
Q 1000 -44 831 53 
Q 663 150 594 308 
Q 525 466 525 972 
L 525 2881 
L 113 2881 
L 113 3319 
L 525 3319 
L 525 4141 
L 1084 4478 
L 1084 3319 
L 1650 3319 
L 1650 2881 
L 1084 2881 
L 1084 941 
Q 1084 700 1114 631 
Q 1144 563 1211 522 
Q 1278 481 1403 481 
Q 1497 481 1650 503 
z
" transform="scale(0.015625)"/>
       <path id="DejaVuSans-307" d="M -1894 4863 
L -1319 4863 
L -1319 4134 
L -1894 4134 
L -1894 4863 
z
M -1600 3584 
L -1600 3584 
z
" transform="scale(0.015625)"/>
       <path id="DejaVuSans-Oblique-3b3" d="M 1491 2950 
L 1838 788 
L 3456 3500 
L 4066 3500 
L 1972 0 
L 1713 -1331 
L 1138 -1331 
L 1397 0 
L 988 2613 
Q 925 3006 628 3006 
L 475 3006 
L 569 3500 
L 788 3500 
Q 1403 3500 1491 2950 
z
" transform="scale(0.015625)"/>
       <path id="ArialMT-28" d="M 1497 -1347 
Q 1031 -759 709 28 
Q 388 816 388 1659 
Q 388 2403 628 3084 
Q 909 3875 1497 4659 
L 1900 4659 
Q 1522 4009 1400 3731 
Q 1209 3300 1100 2831 
Q 966 2247 966 1656 
Q 966 153 1900 -1347 
L 1497 -1347 
z
" transform="scale(0.015625)"/>
       <path id="ArialMT-2f" d="M 0 -78 
L 1328 4659 
L 1778 4659 
L 453 -78 
L 0 -78 
z
" transform="scale(0.015625)"/>
       <path id="ArialMT-73" d="M 197 991 
L 753 1078 
Q 800 744 1014 566 
Q 1228 388 1613 388 
Q 2000 388 2187 545 
Q 2375 703 2375 916 
Q 2375 1106 2209 1216 
Q 2094 1291 1634 1406 
Q 1016 1563 777 1677 
Q 538 1791 414 1992 
Q 291 2194 291 2438 
Q 291 2659 392 2848 
Q 494 3038 669 3163 
Q 800 3259 1026 3326 
Q 1253 3394 1513 3394 
Q 1903 3394 2198 3281 
Q 2494 3169 2634 2976 
Q 2775 2784 2828 2463 
L 2278 2388 
Q 2241 2644 2061 2787 
Q 1881 2931 1553 2931 
Q 1166 2931 1000 2803 
Q 834 2675 834 2503 
Q 834 2394 903 2306 
Q 972 2216 1119 2156 
Q 1203 2125 1616 2013 
Q 2213 1853 2448 1751 
Q 2684 1650 2818 1456 
Q 2953 1263 2953 975 
Q 2953 694 2789 445 
Q 2625 197 2315 61 
Q 2006 -75 1616 -75 
Q 969 -75 630 194 
Q 291 463 197 991 
z
" transform="scale(0.015625)"/>
       <path id="ArialMT-29" d="M 791 -1347 
L 388 -1347 
Q 1322 153 1322 1656 
Q 1322 2244 1188 2822 
Q 1081 3291 891 3722 
Q 769 4003 388 4659 
L 791 4659 
Q 1378 3875 1659 3084 
Q 1900 2403 1900 1659 
Q 1900 816 1576 28 
Q 1253 -759 791 -1347 
z
" transform="scale(0.015625)"/>
      </defs>
      <use xlink:href="#ArialMT-53" transform="translate(0 0.828125)"/>
      <use xlink:href="#ArialMT-68" transform="translate(66.699219 0.828125)"/>
      <use xlink:href="#ArialMT-65" transform="translate(122.314453 0.828125)"/>
      <use xlink:href="#ArialMT-61" transform="translate(177.929688 0.828125)"/>
      <use xlink:href="#ArialMT-72" transform="translate(233.544922 0.828125)"/>
      <use xlink:href="#ArialMT-20" transform="translate(266.845703 0.828125)"/>
      <use xlink:href="#ArialMT-72" transform="translate(294.628906 0.828125)"/>
      <use xlink:href="#ArialMT-61" transform="translate(327.929688 0.828125)"/>
      <use xlink:href="#ArialMT-74" transform="translate(383.544922 0.828125)"/>
      <use xlink:href="#ArialMT-65" transform="translate(411.328125 0.828125)"/>
      <use xlink:href="#ArialMT-20" transform="translate(466.943359 0.828125)"/>
      <use xlink:href="#ArialMT-20" transform="translate(494.726562 0.828125)"/>
      <use xlink:href="#DejaVuSans-307" transform="translate(583.126953 12.015625)"/>
      <use xlink:href="#DejaVuSans-Oblique-3b3" transform="translate(522.509766 0.828125)"/>
      <use xlink:href="#ArialMT-20" transform="translate(581.689453 0.828125)"/>
      <use xlink:href="#ArialMT-20" transform="translate(609.472656 0.828125)"/>
      <use xlink:href="#ArialMT-28" transform="translate(637.255859 0.828125)"/>
      <use xlink:href="#ArialMT-31" transform="translate(670.556641 0.828125)"/>
      <use xlink:href="#ArialMT-2f" transform="translate(726.171875 0.828125)"/>
      <use xlink:href="#ArialMT-73" transform="translate(753.955078 0.828125)"/>
      <use xlink:href="#ArialMT-29" transform="translate(803.955078 0.828125)"/>
     </g>
    </g>
   </g>
   <g id="matplotlib.axis_2">
    <g id="ytick_1">
     <g id="line2d_8">
      <defs>
       <path id="m1b76ca0ed4" d="M 0 0 
L -3.5 0 
" style="stroke: #000000; stroke-width: 0.8"/>
      </defs>
      <g>
       <use xlink:href="#m1b76ca0ed4" x="59.78" y="300.42" style="stroke: #000000; stroke-width: 0.8"/>
      </g>
     </g>
     <g id="text_9">
      <!-- 0 -->
      <g transform="translate(44.994688 305.430469) scale(0.14 -0.14)">
       <use xlink:href="#ArialMT-30"/>
      </g>
     </g>
    </g>
    <g id="ytick_2">
     <g id="line2d_9">
      <g>
       <use xlink:href="#m1b76ca0ed4" x="59.78" y="243.504" style="stroke: #000000; stroke-width: 0.8"/>
      </g>
     </g>
     <g id="text_10">
      <!-- 10 -->
      <g transform="translate(37.209375 248.514469) scale(0.14 -0.14)">
       <use xlink:href="#ArialMT-31"/>
       <use xlink:href="#ArialMT-30" transform="translate(55.615234 0)"/>
      </g>
     </g>
    </g>
    <g id="ytick_3">
     <g id="line2d_10">
      <g>
       <use xlink:href="#m1b76ca0ed4" x="59.78" y="186.588" style="stroke: #000000; stroke-width: 0.8"/>
      </g>
     </g>
     <g id="text_11">
      <!-- 20 -->
      <g transform="translate(37.209375 191.598469) scale(0.14 -0.14)">
       <use xlink:href="#ArialMT-32"/>
       <use xlink:href="#ArialMT-30" transform="translate(55.615234 0)"/>
      </g>
     </g>
    </g>
    <g id="ytick_4">
     <g id="line2d_11">
      <g>
       <use xlink:href="#m1b76ca0ed4" x="59.78" y="129.672" style="stroke: #000000; stroke-width: 0.8"/>
      </g>
     </g>
     <g id="text_12">
      <!-- 30 -->
      <g transform="translate(37.209375 134.682469) scale(0.14 -0.14)">
       <use xlink:href="#ArialMT-33"/>
       <use xlink:href="#ArialMT-30" transform="translate(55.615234 0)"/>
      </g>
     </g>
    </g>
    <g id="ytick_5">
     <g id="line2d_12">
      <g>
       <use xlink:href="#m1b76ca0ed4" x="59.78" y="72.756" style="stroke: #000000; stroke-width: 0.8"/>
      </g>
     </g>
     <g id="text_13">
      <!-- 40 -->
      <g transform="translate(37.209375 77.766469) scale(0.14 -0.14)">
       <defs>
        <path id="ArialMT-34" d="M 2069 0 
L 2069 1097 
L 81 1097 
L 81 1613 
L 2172 4581 
L 2631 4581 
L 2631 1613 
L 3250 1613 
L 3250 1097 
L 2631 1097 
L 2631 0 
L 2069 0 
z
M 2069 1613 
L 2069 3678 
L 634 1613 
L 2069 1613 
z
" transform="scale(0.015625)"/>
       </defs>
       <use xlink:href="#ArialMT-34"/>
       <use xlink:href="#ArialMT-30" transform="translate(55.615234 0)"/>
      </g>
     </g>
    </g>
    <g id="ytick_6">
     <g id="line2d_13">
      <g>
       <use xlink:href="#m1b76ca0ed4" x="59.78" y="15.84" style="stroke: #000000; stroke-width: 0.8"/>
      </g>
     </g>
     <g id="text_14">
      <!-- 50 -->
      <g transform="translate(37.209375 20.850469) scale(0.14 -0.14)">
       <use xlink:href="#ArialMT-35"/>
       <use xlink:href="#ArialMT-30" transform="translate(55.615234 0)"/>
      </g>
     </g>
    </g>
    <g id="text_15">
     <!-- Shear stress  $\tau$  (Pa) -->
     <g transform="translate(28.809375 250.33) rotate(-90) scale(0.2 -0.2)">
      <defs>
       <path id="DejaVuSans-Oblique-3c4" d="M 2103 638 
Q 2188 488 2525 488 
L 2800 488 
L 2706 0 
L 2363 0 
Q 1800 0 1600 300 
Q 1403 606 1534 1269 
L 1856 2925 
L 541 2925 
L 653 3500 
L 3881 3500 
L 3769 2925 
L 2444 2925 
L 2113 1234 
Q 2025 781 2103 638 
z
" transform="scale(0.015625)"/>
       <path id="ArialMT-50" d="M 494 0 
L 494 4581 
L 2222 4581 
Q 2678 4581 2919 4538 
Q 3256 4481 3484 4323 
Q 3713 4166 3852 3881 
Q 3991 3597 3991 3256 
Q 3991 2672 3619 2267 
Q 3247 1863 2275 1863 
L 1100 1863 
L 1100 0 
L 494 0 
z
M 1100 2403 
L 2284 2403 
Q 2872 2403 3119 2622 
Q 3366 2841 3366 3238 
Q 3366 3525 3220 3729 
Q 3075 3934 2838 4000 
Q 2684 4041 2272 4041 
L 1100 4041 
L 1100 2403 
z
" transform="scale(0.015625)"/>
      </defs>
      <use xlink:href="#ArialMT-53" transform="translate(0 0.203125)"/>
      <use xlink:href="#ArialMT-68" transform="translate(66.699219 0.203125)"/>
      <use xlink:href="#ArialMT-65" transform="translate(122.314453 0.203125)"/>
      <use xlink:href="#ArialMT-61" transform="translate(177.929688 0.203125)"/>
      <use xlink:href="#ArialMT-72" transform="translate(233.544922 0.203125)"/>
      <use xlink:href="#ArialMT-20" transform="translate(266.845703 0.203125)"/>
      <use xlink:href="#ArialMT-73" transform="translate(294.628906 0.203125)"/>
      <use xlink:href="#ArialMT-74" transform="translate(344.628906 0.203125)"/>
      <use xlink:href="#ArialMT-72" transform="translate(372.412109 0.203125)"/>
      <use xlink:href="#ArialMT-65" transform="translate(405.712891 0.203125)"/>
      <use xlink:href="#ArialMT-73" transform="translate(461.328125 0.203125)"/>
      <use xlink:href="#ArialMT-73" transform="translate(511.328125 0.203125)"/>
      <use xlink:href="#ArialMT-20" transform="translate(561.328125 0.203125)"/>
      <use xlink:href="#ArialMT-20" transform="translate(589.111328 0.203125)"/>
      <use xlink:href="#DejaVuSans-Oblique-3c4" transform="translate(616.894531 0.203125)"/>
      <use xlink:href="#ArialMT-20" transform="translate(677.099609 0.203125)"/>
      <use xlink:href="#ArialMT-20" transform="translate(704.882812 0.203125)"/>
      <use xlink:href="#ArialMT-28" transform="translate(732.666016 0.203125)"/>
      <use xlink:href="#ArialMT-50" transform="translate(765.966797 0.203125)"/>
      <use xlink:href="#ArialMT-61" transform="translate(832.666016 0.203125)"/>
      <use xlink:href="#ArialMT-29" transform="translate(888.28125 0.203125)"/>
     </g>
    </g>
   </g>
   <g id="line2d_14">
    <path d="M 59.897203 114.146453 
L 60.13445 102.271758 
L 60.509456 94.122509 
L 61.018393 87.934153 
L 61.599821 83.317249 
L 62.328606 79.195241 
L 63.181579 75.599858 
L 64.106752 72.559109 
L 65.283557 69.477233 
L 66.451579 66.981747 
L 67.867491 64.459296 
L 69.583903 61.909588 
L 71.106295 59.979243 
L 72.865092 58.033275 
L 74.897001 56.071557 
L 77.244435 54.093963 
L 79.956388 52.100363 
L 83.089464 50.090629 
L 86.709059 48.064629 
L 90.89072 46.022232 
L 95.721727 43.963305 
L 101.302914 41.887714 
L 107.750772 39.795325 
L 115.199881 37.686002 
L 123.80572 35.559607 
L 133.74791 33.416003 
L 145.233968 31.25505 
L 158.50363 29.076607 
L 173.833862 26.880533 
L 191.544639 24.666686 
L 212.005623 22.434922 
L 235.643876 20.185095 
L 262.95278 17.917059 
L 294.502328 15.630668 
L 330.951027 13.325772 
L 373.059638 11.002221 
L 421.707056 8.659866 
L 433 8.162958 
L 433 8.162958 
" clip-path="url(#p379d86694c)" style="fill: none; stroke-dasharray: 7.4,3.2; stroke-dashoffset: 0; stroke: #4285f4; stroke-opacity: 0.95; stroke-width: 2"/>
   </g>
   <g id="line2d_15">
    <path d="M 59.897203 297.490695 
L 60.253078 294.032026 
L 60.851938 290.330911 
L 61.689524 286.48966 
L 62.724365 282.676307 
L 64.106752 278.41859 
L 65.83949 273.862867 
L 67.867491 269.214147 
L 70.067155 264.724364 
L 72.865092 259.588608 
L 75.642146 254.952882 
L 79.008576 249.790845 
L 83.089464 244.042745 
L 86.709059 239.307316 
L 90.89072 234.174132 
L 95.721727 228.609785 
L 101.302914 222.578058 
L 107.750772 216.039693 
L 112.59646 211.378448 
L 117.931628 206.45971 
L 123.80572 201.269258 
L 130.273173 195.79208 
L 137.393925 190.012337 
L 145.233968 183.913316 
L 153.86596 177.47738 
L 163.369899 170.685917 
L 173.833862 163.519287 
L 185.354825 155.956765 
L 198.03956 147.976484 
L 212.005623 139.555364 
L 227.382444 130.669053 
L 244.312529 121.291855 
L 262.95278 111.396652 
L 283.475944 100.954828 
L 306.072223 89.936189 
L 318.212419 84.200673 
L 330.951027 78.30887 
L 344.317545 72.256519 
L 358.342923 66.039247 
L 373.059638 59.652559 
L 388.501766 53.091838 
L 404.705066 46.352344 
L 433 34.927363 
L 433 34.927363 
" clip-path="url(#p379d86694c)" style="fill: none; stroke-dasharray: 7.4,3.2; stroke-dashoffset: 0; stroke: #ea4335; stroke-opacity: 0.95; stroke-width: 2"/>
   </g>
   <g id="line2d_16">
    <path d="M 59.897203 299.539602 
L 60.381747 297.486906 
L 61.281217 294.673631 
L 62.58605 291.316064 
L 64.320026 287.449732 
L 66.451579 283.204297 
L 69.123352 278.363907 
L 72.250403 273.145272 
L 75.642146 267.864805 
L 79.956388 261.562024 
L 84.238431 255.65196 
L 89.429254 248.843012 
L 95.721727 240.998464 
L 101.302914 234.341557 
L 107.750772 226.938887 
L 115.199881 218.706907 
L 123.80572 209.55271 
L 133.74791 199.372982 
L 145.233968 188.052835 
L 153.86596 179.809984 
L 163.369899 170.962467 
L 173.833862 161.465929 
L 185.354825 151.272759 
L 198.03956 140.331854 
L 212.005623 128.588364 
L 227.382444 115.983414 
L 244.312529 102.45381 
L 262.95278 87.931723 
L 283.475944 72.344348 
L 306.072223 55.61354 
L 330.951027 37.655419 
L 358.342923 18.379956 
L 386.581014 -1 
L 386.581014 -1 
" clip-path="url(#p379d86694c)" style="fill: none; stroke-dasharray: 7.4,3.2; stroke-dashoffset: 0; stroke: #fbbc05; stroke-opacity: 0.95; stroke-width: 2"/>
   </g>
   <g id="line2d_17">
    <path d="M 59.897203 295.001827 
L 60.18949 291.622661 
L 60.664269 288.565347 
L 61.355215 285.593386 
L 62.208882 282.884958 
L 63.349249 280.064791 
L 64.543812 277.655814 
L 66.138173 274.961741 
L 67.867491 272.474675 
L 70.067155 269.744642 
L 72.250403 267.369806 
L 74.897001 264.811113 
L 78.105289 262.054331 
L 81.994472 259.084124 
L 85.444032 256.706515 
L 89.429254 254.192148 
L 94.033318 251.533157 
L 99.352322 248.721222 
L 105.497283 245.747547 
L 112.59646 242.602828 
L 120.798029 239.277228 
L 130.273173 235.760341 
L 141.219657 232.041166 
L 149.446151 229.443615 
L 158.50363 226.747388 
L 168.476035 223.948738 
L 179.455786 221.043775 
L 191.544639 218.028458 
L 204.854628 214.898596 
L 219.509103 211.649839 
L 235.643876 208.277669 
L 253.408477 204.777398 
L 272.967539 201.144159 
L 294.502328 197.372903 
L 318.212419 193.458385 
L 344.317545 189.395165 
L 373.059638 185.177591 
L 404.705066 180.799803 
L 433 177.0973 
L 433 177.0973 
" clip-path="url(#p379d86694c)" style="fill: none; stroke-dasharray: 7.4,3.2; stroke-dashoffset: 0; stroke: #34a853; stroke-opacity: 0.95; stroke-width: 2"/>
   </g>
   <g id="patch_3">
    <path d="M 59.78 300.42 
L 59.78 15.84 
" style="fill: none; stroke: #000000; stroke-width: 1.5; stroke-linejoin: miter; stroke-linecap: square"/>
   </g>
   <g id="patch_4">
    <path d="M 411.39 300.42 
L 411.39 15.84 
" style="fill: none; stroke: #000000; stroke-width: 1.5; stroke-linejoin: miter; stroke-linecap: square"/>
   </g>
   <g id="patch_5">
    <path d="M 59.78 300.42 
L 411.39 300.42 
" style="fill: none; stroke: #000000; stroke-width: 1.5; stroke-linejoin: miter; stroke-linecap: square"/>
   </g>
   <g id="patch_6">
    <path d="M 59.78 15.84 
L 411.39 15.84 
" style="fill: none; stroke: #000000; stroke-width: 1.5; stroke-linejoin: miter; stroke-linecap: square"/>
   </g>
   <g id="PathCollection_1">
    <defs>
     <path id="m3a137ef36e" d="M 0 5 
C 1.326016 5 2.597899 4.473168 3.535534 3.535534 
C 4.473168 2.597899 5 1.326016 5 0 
C 5 -1.326016 4.473168 -2.597899 3.535534 -3.535534 
C 2.597899 -4.473168 1.326016 -5 0 -5 
C -1.326016 -5 -2.597899 -4.473168 -3.535534 -3.535534 
C -4.473168 -2.597899 -5 -1.326016 -5 0 
C -5 1.326016 -4.473168 2.597899 -3.535534 3.535534 
C -2.597899 4.473168 -1.326016 5 0 5 
z
" style="stroke: #000000; stroke-opacity: 0.95; stroke-width: 0.4"/>
    </defs>
    <g clip-path="url(#p379d86694c)">
     <use xlink:href="#m3a137ef36e" x="481.712" y="28.148887" style="fill: #4285f4; fill-opacity: 0.95; stroke: #000000; stroke-opacity: 0.95; stroke-width: 0.4"/>
     <use xlink:href="#m3a137ef36e" x="579.041276" y="-1" style="fill: #4285f4; fill-opacity: 0.95; stroke: #000000; stroke-opacity: 0.95; stroke-width: 0.4"/>
     <use xlink:href="#m3a137ef36e" x="1107.028001" y="-1" style="fill: #4285f4; fill-opacity: 0.95; stroke: #000000; stroke-opacity: 0.95; stroke-width: 0.4"/>
     <use xlink:href="#m3a137ef36e" x="1184.932" y="7.746908" style="fill: #4285f4; fill-opacity: 0.95; stroke: #000000; stroke-opacity: 0.95; stroke-width: 0.4"/>
     <use xlink:href="#m3a137ef36e" x="1325.576" y="0.155498" style="fill: #4285f4; fill-opacity: 0.95; stroke: #000000; stroke-opacity: 0.95; stroke-width: 0.4"/>
     <use xlink:href="#m3a137ef36e" x="1350.762514" y="-1" style="fill: #4285f4; fill-opacity: 0.95; stroke: #000000; stroke-opacity: 0.95; stroke-width: 0.4"/>
    </g>
   </g>
   <g id="PathCollection_2">
    <defs>
     <path id="mfa6a9dc956" d="M 0 5 
C 1.326016 5 2.597899 4.473168 3.535534 3.535534 
C 4.473168 2.597899 5 1.326016 5 0 
C 5 -1.326016 4.473168 -2.597899 3.535534 -3.535534 
C 2.597899 -4.473168 1.326016 -5 0 -5 
C -1.326016 -5 -2.597899 -4.473168 -3.535534 -3.535534 
C -4.473168 -2.597899 -5 -1.326016 -5 0 
C -5 1.326016 -4.473168 2.597899 -3.535534 3.535534 
C -2.597899 4.473168 -1.326016 5 0 5 
z
" style="stroke: #000000; stroke-opacity: 0.95; stroke-width: 0.4"/>
    </defs>
    <g clip-path="url(#p379d86694c)">
     <use xlink:href="#mfa6a9dc956" x="153.542667" y="184.218251" style="fill: #ea4335; fill-opacity: 0.95; stroke: #000000; stroke-opacity: 0.95; stroke-width: 0.4"/>
     <use xlink:href="#mfa6a9dc956" x="200.424" y="138.050174" style="fill: #ea4335; fill-opacity: 0.95; stroke: #000000; stroke-opacity: 0.95; stroke-width: 0.4"/>
     <use xlink:href="#mfa6a9dc956" x="247.305333" y="100.441948" style="fill: #ea4335; fill-opacity: 0.95; stroke: #000000; stroke-opacity: 0.95; stroke-width: 0.4"/>
     <use xlink:href="#mfa6a9dc956" x="294.186667" y="115.190868" style="fill: #ea4335; fill-opacity: 0.95; stroke: #000000; stroke-opacity: 0.95; stroke-width: 0.4"/>
    </g>
   </g>
   <g id="PathCollection_3">
    <defs>
     <path id="mda465828ca" d="M 0 5 
C 1.326016 5 2.597899 4.473168 3.535534 3.535534 
C 4.473168 2.597899 5 1.326016 5 0 
C 5 -1.326016 4.473168 -2.597899 3.535534 -3.535534 
C 2.597899 -4.473168 1.326016 -5 0 -5 
C -1.326016 -5 -2.597899 -4.473168 -3.535534 -3.535534 
C -4.473168 -2.597899 -5 -1.326016 -5 0 
C -5 1.326016 -4.473168 2.597899 -3.535534 3.535534 
C -2.597899 4.473168 -1.326016 5 0 5 
z
" style="stroke: #000000; stroke-opacity: 0.95; stroke-width: 0.4"/>
    </defs>
    <g clip-path="url(#p379d86694c)">
     <use xlink:href="#mda465828ca" x="83.220667" y="256.020241" style="fill: #fbbc05; fill-opacity: 0.95; stroke: #000000; stroke-opacity: 0.95; stroke-width: 0.4"/>
     <use xlink:href="#mda465828ca" x="106.661333" y="230.020046" style="fill: #fbbc05; fill-opacity: 0.95; stroke: #000000; stroke-opacity: 0.95; stroke-width: 0.4"/>
     <use xlink:href="#mda465828ca" x="130.102" y="204.468842" style="fill: #fbbc05; fill-opacity: 0.95; stroke: #000000; stroke-opacity: 0.95; stroke-width: 0.4"/>
     <use xlink:href="#mda465828ca" x="153.542667" y="181.317372" style="fill: #fbbc05; fill-opacity: 0.95; stroke: #000000; stroke-opacity: 0.95; stroke-width: 0.4"/>
     <use xlink:href="#mda465828ca" x="176.983333" y="158.278452" style="fill: #fbbc05; fill-opacity: 0.95; stroke: #000000; stroke-opacity: 0.95; stroke-width: 0.4"/>
     <use xlink:href="#mda465828ca" x="200.424" y="135.999238" style="fill: #fbbc05; fill-opacity: 0.95; stroke: #000000; stroke-opacity: 0.95; stroke-width: 0.4"/>
     <use xlink:href="#mda465828ca" x="223.864667" y="115.640376" style="fill: #fbbc05; fill-opacity: 0.95; stroke: #000000; stroke-opacity: 0.95; stroke-width: 0.4"/>
     <use xlink:href="#mda465828ca" x="247.305333" y="99.197057" style="fill: #fbbc05; fill-opacity: 0.95; stroke: #000000; stroke-opacity: 0.95; stroke-width: 0.4"/>
     <use xlink:href="#mda465828ca" x="270.746" y="83.551526" style="fill: #fbbc05; fill-opacity: 0.95; stroke: #000000; stroke-opacity: 0.95; stroke-width: 0.4"/>
     <use xlink:href="#mda465828ca" x="294.186667" y="65.276905" style="fill: #fbbc05; fill-opacity: 0.95; stroke: #000000; stroke-opacity: 0.95; stroke-width: 0.4"/>
    </g>
   </g>
   <g id="PathCollection_4">
    <defs>
     <path id="m74e6c022d0" d="M 0 5 
C 1.326016 5 2.597899 4.473168 3.535534 3.535534 
C 4.473168 2.597899 5 1.326016 5 0 
C 5 -1.326016 4.473168 -2.597899 3.535534 -3.535534 
C 2.597899 -4.473168 1.326016 -5 0 -5 
C -1.326016 -5 -2.597899 -4.473168 -3.535534 -3.535534 
C -4.473168 -2.597899 -5 -1.326016 -5 0 
C -5 1.326016 -4.473168 2.597899 -3.535534 3.535534 
C -2.597899 4.473168 -1.326016 5 0 5 
z
" style="stroke: #000000; stroke-opacity: 0.95; stroke-width: 0.4"/>
    </defs>
    <g clip-path="url(#p379d86694c)">
     <use xlink:href="#m74e6c022d0" x="83.220667" y="258.001547" style="fill: #34a853; fill-opacity: 0.95; stroke: #000000; stroke-opacity: 0.95; stroke-width: 0.4"/>
     <use xlink:href="#m74e6c022d0" x="106.661333" y="246.386629" style="fill: #34a853; fill-opacity: 0.95; stroke: #000000; stroke-opacity: 0.95; stroke-width: 0.4"/>
     <use xlink:href="#m74e6c022d0" x="130.102" y="234.017854" style="fill: #34a853; fill-opacity: 0.95; stroke: #000000; stroke-opacity: 0.95; stroke-width: 0.4"/>
     <use xlink:href="#m74e6c022d0" x="153.542667" y="228.99947" style="fill: #34a853; fill-opacity: 0.95; stroke: #000000; stroke-opacity: 0.95; stroke-width: 0.4"/>
    </g>
   </g>
   <g id="legend_1">
    <g id="line2d_18">
     <path d="M 138.15 224.1 
L 150.15 224.1 
L 162.15 224.1 
" style="fill: none; stroke-dasharray: 7.4,3.2; stroke-dashoffset: 0; stroke: #4285f4; stroke-opacity: 0.95; stroke-width: 2"/>
    </g>
    <g id="text_16">
     <!-- Carbopol 0.2%: $\tau=48.1\,\dot\gamma^{0.06}$  ($R^2$=0.20) -->
     <g transform="translate(171.75 228.3) scale(0.12 -0.12)">
      <defs>
       <path id="ArialMT-43" d="M 3763 1606 
L 4369 1453 
Q 4178 706 3683 314 
Q 3188 -78 2472 -78 
Q 1731 -78 1267 223 
Q 803 525 561 1097 
Q 319 1669 319 2325 
Q 319 3041 592 3573 
Q 866 4106 1370 4382 
Q 1875 4659 2481 4659 
Q 3169 4659 3637 4309 
Q 4106 3959 4291 3325 
L 3694 3184 
Q 3534 3684 3231 3912 
Q 2928 4141 2469 4141 
Q 1941 4141 1586 3887 
Q 1231 3634 1087 3207 
Q 944 2781 944 2328 
Q 944 1744 1114 1308 
Q 1284 872 1643 656 
Q 2003 441 2422 441 
Q 2931 441 3284 734 
Q 3638 1028 3763 1606 
z
" transform="scale(0.015625)"/>
       <path id="ArialMT-62" d="M 941 0 
L 419 0 
L 419 4581 
L 981 4581 
L 981 2947 
Q 1338 3394 1891 3394 
Q 2197 3394 2470 3270 
Q 2744 3147 2920 2923 
Q 3097 2700 3197 2384 
Q 3297 2069 3297 1709 
Q 3297 856 2875 390 
Q 2453 -75 1863 -75 
Q 1275 -75 941 416 
L 941 0 
z
M 934 1684 
Q 934 1088 1097 822 
Q 1363 388 1816 388 
Q 2184 388 2453 708 
Q 2722 1028 2722 1663 
Q 2722 2313 2464 2622 
Q 2206 2931 1841 2931 
Q 1472 2931 1203 2611 
Q 934 2291 934 1684 
z
" transform="scale(0.015625)"/>
       <path id="ArialMT-6f" d="M 213 1659 
Q 213 2581 725 3025 
Q 1153 3394 1769 3394 
Q 2453 3394 2887 2945 
Q 3322 2497 3322 1706 
Q 3322 1066 3130 698 
Q 2938 331 2570 128 
Q 2203 -75 1769 -75 
Q 1072 -75 642 372 
Q 213 819 213 1659 
z
M 791 1659 
Q 791 1022 1069 705 
Q 1347 388 1769 388 
Q 2188 388 2466 706 
Q 2744 1025 2744 1678 
Q 2744 2294 2464 2611 
Q 2184 2928 1769 2928 
Q 1347 2928 1069 2612 
Q 791 2297 791 1659 
z
" transform="scale(0.015625)"/>
       <path id="ArialMT-70" d="M 422 -1272 
L 422 3319 
L 934 3319 
L 934 2888 
Q 1116 3141 1344 3267 
Q 1572 3394 1897 3394 
Q 2322 3394 2647 3175 
Q 2972 2956 3137 2557 
Q 3303 2159 3303 1684 
Q 3303 1175 3120 767 
Q 2938 359 2589 142 
Q 2241 -75 1856 -75 
Q 1575 -75 1351 44 
Q 1128 163 984 344 
L 984 -1272 
L 422 -1272 
z
M 931 1641 
Q 931 1000 1190 694 
Q 1450 388 1819 388 
Q 2194 388 2461 705 
Q 2728 1022 2728 1688 
Q 2728 2322 2467 2637 
Q 2206 2953 1844 2953 
Q 1484 2953 1207 2617 
Q 931 2281 931 1641 
z
" transform="scale(0.015625)"/>
       <path id="ArialMT-6c" d="M 409 0 
L 409 4581 
L 972 4581 
L 972 0 
L 409 0 
z
" transform="scale(0.015625)"/>
       <path id="ArialMT-25" d="M 372 3481 
Q 372 3972 619 4315 
Q 866 4659 1334 4659 
Q 1766 4659 2048 4351 
Q 2331 4044 2331 3447 
Q 2331 2866 2045 2552 
Q 1759 2238 1341 2238 
Q 925 2238 648 2547 
Q 372 2856 372 3481 
z
M 1350 4272 
Q 1141 4272 1002 4090 
Q 863 3909 863 3425 
Q 863 2984 1003 2804 
Q 1144 2625 1350 2625 
Q 1563 2625 1702 2806 
Q 1841 2988 1841 3469 
Q 1841 3913 1700 4092 
Q 1559 4272 1350 4272 
z
M 1353 -169 
L 3859 4659 
L 4316 4659 
L 1819 -169 
L 1353 -169 
z
M 3334 1075 
Q 3334 1569 3581 1911 
Q 3828 2253 4300 2253 
Q 4731 2253 5014 1945 
Q 5297 1638 5297 1041 
Q 5297 459 5011 145 
Q 4725 -169 4303 -169 
Q 3888 -169 3611 142 
Q 3334 453 3334 1075 
z
M 4316 1866 
Q 4103 1866 3964 1684 
Q 3825 1503 3825 1019 
Q 3825 581 3965 400 
Q 4106 219 4313 219 
Q 4528 219 4667 400 
Q 4806 581 4806 1063 
Q 4806 1506 4665 1686 
Q 4525 1866 4316 1866 
z
" transform="scale(0.015625)"/>
       <path id="ArialMT-3a" d="M 578 2678 
L 578 3319 
L 1219 3319 
L 1219 2678 
L 578 2678 
z
M 578 0 
L 578 641 
L 1219 641 
L 1219 0 
L 578 0 
z
" transform="scale(0.015625)"/>
       <path id="DejaVuSans-3d" d="M 678 2906 
L 4684 2906 
L 4684 2381 
L 678 2381 
L 678 2906 
z
M 678 1631 
L 4684 1631 
L 4684 1100 
L 678 1100 
L 678 1631 
z
" transform="scale(0.015625)"/>
       <path id="DejaVuSans-34" d="M 2419 4116 
L 825 1625 
L 2419 1625 
L 2419 4116 
z
M 2253 4666 
L 3047 4666 
L 3047 1625 
L 3713 1625 
L 3713 1100 
L 3047 1100 
L 3047 0 
L 2419 0 
L 2419 1100 
L 313 1100 
L 313 1709 
L 2253 4666 
z
" transform="scale(0.015625)"/>
       <path id="DejaVuSans-38" d="M 2034 2216 
Q 1584 2216 1326 1975 
Q 1069 1734 1069 1313 
Q 1069 891 1326 650 
Q 1584 409 2034 409 
Q 2484 409 2743 651 
Q 3003 894 3003 1313 
Q 3003 1734 2745 1975 
Q 2488 2216 2034 2216 
z
M 1403 2484 
Q 997 2584 770 2862 
Q 544 3141 544 3541 
Q 544 4100 942 4425 
Q 1341 4750 2034 4750 
Q 2731 4750 3128 4425 
Q 3525 4100 3525 3541 
Q 3525 3141 3298 2862 
Q 3072 2584 2669 2484 
Q 3125 2378 3379 2068 
Q 3634 1759 3634 1313 
Q 3634 634 3220 271 
Q 2806 -91 2034 -91 
Q 1263 -91 848 271 
Q 434 634 434 1313 
Q 434 1759 690 2068 
Q 947 2378 1403 2484 
z
M 1172 3481 
Q 1172 3119 1398 2916 
Q 1625 2713 2034 2713 
Q 2441 2713 2670 2916 
Q 2900 3119 2900 3481 
Q 2900 3844 2670 4047 
Q 2441 4250 2034 4250 
Q 1625 4250 1398 4047 
Q 1172 3844 1172 3481 
z
" transform="scale(0.015625)"/>
       <path id="DejaVuSans-2e" d="M 684 794 
L 1344 794 
L 1344 0 
L 684 0 
L 684 794 
z
" transform="scale(0.015625)"/>
       <path id="DejaVuSans-31" d="M 794 531 
L 1825 531 
L 1825 4091 
L 703 3866 
L 703 4441 
L 1819 4666 
L 2450 4666 
L 2450 531 
L 3481 531 
L 3481 0 
L 794 0 
L 794 531 
z
" transform="scale(0.015625)"/>
       <path id="DejaVuSans-30" d="M 2034 4250 
Q 1547 4250 1301 3770 
Q 1056 3291 1056 2328 
Q 1056 1369 1301 889 
Q 1547 409 2034 409 
Q 2525 409 2770 889 
Q 3016 1369 3016 2328 
Q 3016 3291 2770 3770 
Q 2525 4250 2034 4250 
z
M 2034 4750 
Q 2819 4750 3233 4129 
Q 3647 3509 3647 2328 
Q 3647 1150 3233 529 
Q 2819 -91 2034 -91 
Q 1250 -91 836 529 
Q 422 1150 422 2328 
Q 422 3509 836 4129 
Q 1250 4750 2034 4750 
z
" transform="scale(0.015625)"/>
       <path id="DejaVuSans-36" d="M 2113 2584 
Q 1688 2584 1439 2293 
Q 1191 2003 1191 1497 
Q 1191 994 1439 701 
Q 1688 409 2113 409 
Q 2538 409 2786 701 
Q 3034 994 3034 1497 
Q 3034 2003 2786 2293 
Q 2538 2584 2113 2584 
z
M 3366 4563 
L 3366 3988 
Q 3128 4100 2886 4159 
Q 2644 4219 2406 4219 
Q 1781 4219 1451 3797 
Q 1122 3375 1075 2522 
Q 1259 2794 1537 2939 
Q 1816 3084 2150 3084 
Q 2853 3084 3261 2657 
Q 3669 2231 3669 1497 
Q 3669 778 3244 343 
Q 2819 -91 2113 -91 
Q 1303 -91 875 529 
Q 447 1150 447 2328 
Q 447 3434 972 4092 
Q 1497 4750 2381 4750 
Q 2619 4750 2861 4703 
Q 3103 4656 3366 4563 
z
" transform="scale(0.015625)"/>
       <path id="DejaVuSans-Oblique-52" d="M 1613 4147 
L 1294 2491 
L 2106 2491 
Q 2584 2491 2879 2755 
Q 3175 3019 3175 3444 
Q 3175 3784 2976 3965 
Q 2778 4147 2406 4147 
L 1613 4147 
z
M 2772 2241 
Q 2972 2194 3105 2009 
Q 3238 1825 3413 1275 
L 3809 0 
L 3144 0 
L 2778 1197 
Q 2638 1659 2453 1815 
Q 2269 1972 1888 1972 
L 1191 1972 
L 806 0 
L 172 0 
L 1081 4666 
L 2503 4666 
Q 3150 4666 3495 4373 
Q 3841 4081 3841 3531 
Q 3841 3044 3547 2687 
Q 3253 2331 2772 2241 
z
" transform="scale(0.015625)"/>
       <path id="DejaVuSans-32" d="M 1228 531 
L 3431 531 
L 3431 0 
L 469 0 
L 469 531 
Q 828 903 1448 1529 
Q 2069 2156 2228 2338 
Q 2531 2678 2651 2914 
Q 2772 3150 2772 3378 
Q 2772 3750 2511 3984 
Q 2250 4219 1831 4219 
Q 1534 4219 1204 4116 
Q 875 4013 500 3803 
L 500 4441 
Q 881 4594 1212 4672 
Q 1544 4750 1819 4750 
Q 2544 4750 2975 4387 
Q 3406 4025 3406 3419 
Q 3406 3131 3298 2873 
Q 3191 2616 2906 2266 
Q 2828 2175 2409 1742 
Q 1991 1309 1228 531 
z
" transform="scale(0.015625)"/>
       <path id="ArialMT-3d" d="M 3381 2694 
L 356 2694 
L 356 3219 
L 3381 3219 
L 3381 2694 
z
M 3381 1303 
L 356 1303 
L 356 1828 
L 3381 1828 
L 3381 1303 
z
" transform="scale(0.015625)"/>
      </defs>
      <use xlink:href="#ArialMT-43" transform="translate(0 0.765625)"/>
      <use xlink:href="#ArialMT-61" transform="translate(72.216797 0.765625)"/>
      <use xlink:href="#ArialMT-72" transform="translate(127.832031 0.765625)"/>
      <use xlink:href="#ArialMT-62" transform="translate(161.132812 0.765625)"/>
      <use xlink:href="#ArialMT-6f" transform="translate(216.748047 0.765625)"/>
      <use xlink:href="#ArialMT-70" transform="translate(272.363281 0.765625)"/>
      <use xlink:href="#ArialMT-6f" transform="translate(327.978516 0.765625)"/>
      <use xlink:href="#ArialMT-6c" transform="translate(383.59375 0.765625)"/>
      <use xlink:href="#ArialMT-20" transform="translate(405.810547 0.765625)"/>
      <use xlink:href="#ArialMT-30" transform="translate(433.59375 0.765625)"/>
      <use xlink:href="#ArialMT-2e" transform="translate(489.208984 0.765625)"/>
      <use xlink:href="#ArialMT-32" transform="translate(516.992188 0.765625)"/>
      <use xlink:href="#ArialMT-25" transform="translate(572.607422 0.765625)"/>
      <use xlink:href="#ArialMT-3a" transform="translate(661.523438 0.765625)"/>
      <use xlink:href="#ArialMT-20" transform="translate(689.306641 0.765625)"/>
      <use xlink:href="#DejaVuSans-Oblique-3c4" transform="translate(717.089844 0.765625)"/>
      <use xlink:href="#DejaVuSans-3d" transform="translate(796.777344 0.765625)"/>
      <use xlink:href="#DejaVuSans-34" transform="translate(900.048828 0.765625)"/>
      <use xlink:href="#DejaVuSans-38" transform="translate(963.671875 0.765625)"/>
      <use xlink:href="#DejaVuSans-2e" transform="translate(1027.294922 0.765625)"/>
      <use xlink:href="#DejaVuSans-31" transform="translate(1059.082031 0.765625)"/>
      <use xlink:href="#DejaVuSans-307" transform="translate(1199.557942 11.953125)"/>
      <use xlink:href="#DejaVuSans-Oblique-3b3" transform="translate(1138.940754 0.765625)"/>
      <use xlink:href="#DejaVuSans-30" transform="translate(1199.077473 39.046875) scale(0.7)"/>
      <use xlink:href="#DejaVuSans-2e" transform="translate(1243.613606 39.046875) scale(0.7)"/>
      <use xlink:href="#DejaVuSans-30" transform="translate(1265.864583 39.046875) scale(0.7)"/>
      <use xlink:href="#DejaVuSans-36" transform="translate(1310.400715 39.046875) scale(0.7)"/>
      <use xlink:href="#ArialMT-20" transform="translate(1357.671223 0.765625)"/>
      <use xlink:href="#ArialMT-20" transform="translate(1385.454426 0.765625)"/>
      <use xlink:href="#ArialMT-28" transform="translate(1413.237629 0.765625)"/>
      <use xlink:href="#DejaVuSans-Oblique-52" transform="translate(1446.538411 0.765625)"/>
      <use xlink:href="#DejaVuSans-32" transform="translate(1523.037603 39.046875) scale(0.7)"/>
      <use xlink:href="#ArialMT-3d" transform="translate(1570.308111 0.765625)"/>
      <use xlink:href="#ArialMT-30" transform="translate(1628.706549 0.765625)"/>
      <use xlink:href="#ArialMT-2e" transform="translate(1684.321783 0.765625)"/>
      <use xlink:href="#ArialMT-32" transform="translate(1712.104986 0.765625)"/>
      <use xlink:href="#ArialMT-30" transform="translate(1767.720221 0.765625)"/>
      <use xlink:href="#ArialMT-29" transform="translate(1823.335455 0.765625)"/>
     </g>
    </g>
    <g id="line2d_19">
     <path d="M 138.15 243.66 
L 150.15 243.66 
L 162.15 243.66 
" style="fill: none; stroke-dasharray: 7.4,3.2; stroke-dashoffset: 0; stroke: #ea4335; stroke-opacity: 0.95; stroke-width: 2"/>
    </g>
    <g id="text_17">
     <!-- Carbopol 0.3%: $\tau=24.4\,\dot\gamma^{0.56}$  ($R^2$=0.85) -->
     <g transform="translate(171.75 247.86) scale(0.12 -0.12)">
      <defs>
       <path id="DejaVuSans-35" d="M 691 4666 
L 3169 4666 
L 3169 4134 
L 1269 4134 
L 1269 2991 
Q 1406 3038 1543 3061 
Q 1681 3084 1819 3084 
Q 2600 3084 3056 2656 
Q 3513 2228 3513 1497 
Q 3513 744 3044 326 
Q 2575 -91 1722 -91 
Q 1428 -91 1123 -41 
Q 819 9 494 109 
L 494 744 
Q 775 591 1075 516 
Q 1375 441 1709 441 
Q 2250 441 2565 725 
Q 2881 1009 2881 1497 
Q 2881 1984 2565 2268 
Q 2250 2553 1709 2553 
Q 1456 2553 1204 2497 
Q 953 2441 691 2322 
L 691 4666 
z
" transform="scale(0.015625)"/>
       <path id="ArialMT-38" d="M 1131 2484 
Q 781 2613 612 2850 
Q 444 3088 444 3419 
Q 444 3919 803 4259 
Q 1163 4600 1759 4600 
Q 2359 4600 2725 4251 
Q 3091 3903 3091 3403 
Q 3091 3084 2923 2848 
Q 2756 2613 2416 2484 
Q 2838 2347 3058 2040 
Q 3278 1734 3278 1309 
Q 3278 722 2862 322 
Q 2447 -78 1769 -78 
Q 1091 -78 675 323 
Q 259 725 259 1325 
Q 259 1772 486 2073 
Q 713 2375 1131 2484 
z
M 1019 3438 
Q 1019 3113 1228 2906 
Q 1438 2700 1772 2700 
Q 2097 2700 2305 2904 
Q 2513 3109 2513 3406 
Q 2513 3716 2298 3927 
Q 2084 4138 1766 4138 
Q 1444 4138 1231 3931 
Q 1019 3725 1019 3438 
z
M 838 1322 
Q 838 1081 952 856 
Q 1066 631 1291 507 
Q 1516 384 1775 384 
Q 2178 384 2440 643 
Q 2703 903 2703 1303 
Q 2703 1709 2433 1975 
Q 2163 2241 1756 2241 
Q 1359 2241 1098 1978 
Q 838 1716 838 1322 
z
" transform="scale(0.015625)"/>
      </defs>
      <use xlink:href="#ArialMT-43" transform="translate(0 0.765625)"/>
      <use xlink:href="#ArialMT-61" transform="translate(72.216797 0.765625)"/>
      <use xlink:href="#ArialMT-72" transform="translate(127.832031 0.765625)"/>
      <use xlink:href="#ArialMT-62" transform="translate(161.132812 0.765625)"/>
      <use xlink:href="#ArialMT-6f" transform="translate(216.748047 0.765625)"/>
      <use xlink:href="#ArialMT-70" transform="translate(272.363281 0.765625)"/>
      <use xlink:href="#ArialMT-6f" transform="translate(327.978516 0.765625)"/>
      <use xlink:href="#ArialMT-6c" transform="translate(383.59375 0.765625)"/>
      <use xlink:href="#ArialMT-20" transform="translate(405.810547 0.765625)"/>
      <use xlink:href="#ArialMT-30" transform="translate(433.59375 0.765625)"/>
      <use xlink:href="#ArialMT-2e" transform="translate(489.208984 0.765625)"/>
      <use xlink:href="#ArialMT-33" transform="translate(516.992188 0.765625)"/>
      <use xlink:href="#ArialMT-25" transform="translate(572.607422 0.765625)"/>
      <use xlink:href="#ArialMT-3a" transform="translate(661.523438 0.765625)"/>
      <use xlink:href="#ArialMT-20" transform="translate(689.306641 0.765625)"/>
      <use xlink:href="#DejaVuSans-Oblique-3c4" transform="translate(717.089844 0.765625)"/>
      <use xlink:href="#DejaVuSans-3d" transform="translate(796.777344 0.765625)"/>
      <use xlink:href="#DejaVuSans-32" transform="translate(900.048828 0.765625)"/>
      <use xlink:href="#DejaVuSans-34" transform="translate(963.671875 0.765625)"/>
      <use xlink:href="#DejaVuSans-2e" transform="translate(1027.294922 0.765625)"/>
      <use xlink:href="#DejaVuSans-34" transform="translate(1059.082031 0.765625)"/>
      <use xlink:href="#DejaVuSans-307" transform="translate(1199.557942 11.953125)"/>
      <use xlink:href="#DejaVuSans-Oblique-3b3" transform="translate(1138.940754 0.765625)"/>
      <use xlink:href="#DejaVuSans-30" transform="translate(1199.077473 39.046875) scale(0.7)"/>
      <use xlink:href="#DejaVuSans-2e" transform="translate(1243.613606 39.046875) scale(0.7)"/>
      <use xlink:href="#DejaVuSans-35" transform="translate(1265.864583 39.046875) scale(0.7)"/>
      <use xlink:href="#DejaVuSans-36" transform="translate(1310.400715 39.046875) scale(0.7)"/>
      <use xlink:href="#ArialMT-20" transform="translate(1357.671223 0.765625)"/>
      <use xlink:href="#ArialMT-20" transform="translate(1385.454426 0.765625)"/>
      <use xlink:href="#ArialMT-28" transform="translate(1413.237629 0.765625)"/>
      <use xlink:href="#DejaVuSans-Oblique-52" transform="translate(1446.538411 0.765625)"/>
      <use xlink:href="#DejaVuSans-32" transform="translate(1523.037603 39.046875) scale(0.7)"/>
      <use xlink:href="#ArialMT-3d" transform="translate(1570.308111 0.765625)"/>
      <use xlink:href="#ArialMT-30" transform="translate(1628.706549 0.765625)"/>
      <use xlink:href="#ArialMT-2e" transform="translate(1684.321783 0.765625)"/>
      <use xlink:href="#ArialMT-38" transform="translate(1712.104986 0.765625)"/>
      <use xlink:href="#ArialMT-35" transform="translate(1767.720221 0.765625)"/>
      <use xlink:href="#ArialMT-29" transform="translate(1823.335455 0.765625)"/>
     </g>
    </g>
    <g id="line2d_20">
     <path d="M 138.15 263.22 
L 150.15 263.22 
L 162.15 263.22 
" style="fill: none; stroke-dasharray: 7.4,3.2; stroke-dashoffset: 0; stroke: #fbbc05; stroke-opacity: 0.95; stroke-width: 2"/>
    </g>
    <g id="text_18">
     <!-- Carbopol 0.35%: $\tau=24.9\,\dot\gamma^{0.74}$  ($R^2$=1.00) -->
     <g transform="translate(171.75 267.42) scale(0.12 -0.12)">
      <defs>
       <path id="DejaVuSans-39" d="M 703 97 
L 703 672 
Q 941 559 1184 500 
Q 1428 441 1663 441 
Q 2288 441 2617 861 
Q 2947 1281 2994 2138 
Q 2813 1869 2534 1725 
Q 2256 1581 1919 1581 
Q 1219 1581 811 2004 
Q 403 2428 403 3163 
Q 403 3881 828 4315 
Q 1253 4750 1959 4750 
Q 2769 4750 3195 4129 
Q 3622 3509 3622 2328 
Q 3622 1225 3098 567 
Q 2575 -91 1691 -91 
Q 1453 -91 1209 -44 
Q 966 3 703 97 
z
M 1959 2075 
Q 2384 2075 2632 2365 
Q 2881 2656 2881 3163 
Q 2881 3666 2632 3958 
Q 2384 4250 1959 4250 
Q 1534 4250 1286 3958 
Q 1038 3666 1038 3163 
Q 1038 2656 1286 2365 
Q 1534 2075 1959 2075 
z
" transform="scale(0.015625)"/>
       <path id="DejaVuSans-37" d="M 525 4666 
L 3525 4666 
L 3525 4397 
L 1831 0 
L 1172 0 
L 2766 4134 
L 525 4134 
L 525 4666 
z
" transform="scale(0.015625)"/>
      </defs>
      <use xlink:href="#ArialMT-43" transform="translate(0 0.765625)"/>
      <use xlink:href="#ArialMT-61" transform="translate(72.216797 0.765625)"/>
      <use xlink:href="#ArialMT-72" transform="translate(127.832031 0.765625)"/>
      <use xlink:href="#ArialMT-62" transform="translate(161.132812 0.765625)"/>
      <use xlink:href="#ArialMT-6f" transform="translate(216.748047 0.765625)"/>
      <use xlink:href="#ArialMT-70" transform="translate(272.363281 0.765625)"/>
      <use xlink:href="#ArialMT-6f" transform="translate(327.978516 0.765625)"/>
      <use xlink:href="#ArialMT-6c" transform="translate(383.59375 0.765625)"/>
      <use xlink:href="#ArialMT-20" transform="translate(405.810547 0.765625)"/>
      <use xlink:href="#ArialMT-30" transform="translate(433.59375 0.765625)"/>
      <use xlink:href="#ArialMT-2e" transform="translate(489.208984 0.765625)"/>
      <use xlink:href="#ArialMT-33" transform="translate(516.992188 0.765625)"/>
      <use xlink:href="#ArialMT-35" transform="translate(572.607422 0.765625)"/>
      <use xlink:href="#ArialMT-25" transform="translate(628.222656 0.765625)"/>
      <use xlink:href="#ArialMT-3a" transform="translate(717.138672 0.765625)"/>
      <use xlink:href="#ArialMT-20" transform="translate(744.921875 0.765625)"/>
      <use xlink:href="#DejaVuSans-Oblique-3c4" transform="translate(772.705078 0.765625)"/>
      <use xlink:href="#DejaVuSans-3d" transform="translate(852.392578 0.765625)"/>
      <use xlink:href="#DejaVuSans-32" transform="translate(955.664062 0.765625)"/>
      <use xlink:href="#DejaVuSans-34" transform="translate(1019.287109 0.765625)"/>
      <use xlink:href="#DejaVuSans-2e" transform="translate(1082.910156 0.765625)"/>
      <use xlink:href="#DejaVuSans-39" transform="translate(1114.697266 0.765625)"/>
      <use xlink:href="#DejaVuSans-307" transform="translate(1255.173176 11.953125)"/>
      <use xlink:href="#DejaVuSans-Oblique-3b3" transform="translate(1194.555989 0.765625)"/>
      <use xlink:href="#DejaVuSans-30" transform="translate(1254.692708 39.046875) scale(0.7)"/>
      <use xlink:href="#DejaVuSans-2e" transform="translate(1299.22884 39.046875) scale(0.7)"/>
      <use xlink:href="#DejaVuSans-37" transform="translate(1316.054817 39.046875) scale(0.7)"/>
      <use xlink:href="#DejaVuSans-34" transform="translate(1360.59095 39.046875) scale(0.7)"/>
      <use xlink:href="#ArialMT-20" transform="translate(1407.861458 0.765625)"/>
      <use xlink:href="#ArialMT-20" transform="translate(1435.644661 0.765625)"/>
      <use xlink:href="#ArialMT-28" transform="translate(1463.427864 0.765625)"/>
      <use xlink:href="#DejaVuSans-Oblique-52" transform="translate(1496.728645 0.765625)"/>
      <use xlink:href="#DejaVuSans-32" transform="translate(1573.227838 39.046875) scale(0.7)"/>
      <use xlink:href="#ArialMT-3d" transform="translate(1620.498346 0.765625)"/>
      <use xlink:href="#ArialMT-31" transform="translate(1678.896783 0.765625)"/>
      <use xlink:href="#ArialMT-2e" transform="translate(1734.512017 0.765625)"/>
      <use xlink:href="#ArialMT-30" transform="translate(1762.295221 0.765625)"/>
      <use xlink:href="#ArialMT-30" transform="translate(1817.910455 0.765625)"/>
      <use xlink:href="#ArialMT-29" transform="translate(1873.525689 0.765625)"/>
     </g>
    </g>
    <g id="line2d_21">
     <path d="M 138.15 282.78 
L 150.15 282.78 
L 162.15 282.78 
" style="fill: none; stroke-dasharray: 7.4,3.2; stroke-dashoffset: 0; stroke: #34a853; stroke-opacity: 0.95; stroke-width: 2"/>
    </g>
    <g id="text_19">
     <!-- Carbopol 0.4%: $\tau=13.8\,\dot\gamma^{0.39}$  ($R^2$=0.99) -->
     <g transform="translate(171.75 286.98) scale(0.12 -0.12)">
      <defs>
       <path id="DejaVuSans-33" d="M 2597 2516 
Q 3050 2419 3304 2112 
Q 3559 1806 3559 1356 
Q 3559 666 3084 287 
Q 2609 -91 1734 -91 
Q 1441 -91 1130 -33 
Q 819 25 488 141 
L 488 750 
Q 750 597 1062 519 
Q 1375 441 1716 441 
Q 2309 441 2620 675 
Q 2931 909 2931 1356 
Q 2931 1769 2642 2001 
Q 2353 2234 1838 2234 
L 1294 2234 
L 1294 2753 
L 1863 2753 
Q 2328 2753 2575 2939 
Q 2822 3125 2822 3475 
Q 2822 3834 2567 4026 
Q 2313 4219 1838 4219 
Q 1578 4219 1281 4162 
Q 984 4106 628 3988 
L 628 4550 
Q 988 4650 1302 4700 
Q 1616 4750 1894 4750 
Q 2613 4750 3031 4423 
Q 3450 4097 3450 3541 
Q 3450 3153 3228 2886 
Q 3006 2619 2597 2516 
z
" transform="scale(0.015625)"/>
       <path id="ArialMT-39" d="M 350 1059 
L 891 1109 
Q 959 728 1153 556 
Q 1347 384 1650 384 
Q 1909 384 2104 503 
Q 2300 622 2425 820 
Q 2550 1019 2634 1356 
Q 2719 1694 2719 2044 
Q 2719 2081 2716 2156 
Q 2547 1888 2255 1720 
Q 1963 1553 1622 1553 
Q 1053 1553 659 1965 
Q 266 2378 266 3053 
Q 266 3750 677 4175 
Q 1088 4600 1706 4600 
Q 2153 4600 2523 4359 
Q 2894 4119 3086 3673 
Q 3278 3228 3278 2384 
Q 3278 1506 3087 986 
Q 2897 466 2520 194 
Q 2144 -78 1638 -78 
Q 1100 -78 759 220 
Q 419 519 350 1059 
z
M 2653 3081 
Q 2653 3566 2395 3850 
Q 2138 4134 1775 4134 
Q 1400 4134 1122 3828 
Q 844 3522 844 3034 
Q 844 2597 1108 2323 
Q 1372 2050 1759 2050 
Q 2150 2050 2401 2323 
Q 2653 2597 2653 3081 
z
" transform="scale(0.015625)"/>
      </defs>
      <use xlink:href="#ArialMT-43" transform="translate(0 0.765625)"/>
      <use xlink:href="#ArialMT-61" transform="translate(72.216797 0.765625)"/>
      <use xlink:href="#ArialMT-72" transform="translate(127.832031 0.765625)"/>
      <use xlink:href="#ArialMT-62" transform="translate(161.132812 0.765625)"/>
      <use xlink:href="#ArialMT-6f" transform="translate(216.748047 0.765625)"/>
      <use xlink:href="#ArialMT-70" transform="translate(272.363281 0.765625)"/>
      <use xlink:href="#ArialMT-6f" transform="translate(327.978516 0.765625)"/>
      <use xlink:href="#ArialMT-6c" transform="translate(383.59375 0.765625)"/>
      <use xlink:href="#ArialMT-20" transform="translate(405.810547 0.765625)"/>
      <use xlink:href="#ArialMT-30" transform="translate(433.59375 0.765625)"/>
      <use xlink:href="#ArialMT-2e" transform="translate(489.208984 0.765625)"/>
      <use xlink:href="#ArialMT-34" transform="translate(516.992188 0.765625)"/>
      <use xlink:href="#ArialMT-25" transform="translate(572.607422 0.765625)"/>
      <use xlink:href="#ArialMT-3a" transform="translate(661.523438 0.765625)"/>
      <use xlink:href="#ArialMT-20" transform="translate(689.306641 0.765625)"/>
      <use xlink:href="#DejaVuSans-Oblique-3c4" transform="translate(717.089844 0.765625)"/>
      <use xlink:href="#DejaVuSans-3d" transform="translate(796.777344 0.765625)"/>
      <use xlink:href="#DejaVuSans-31" transform="translate(900.048828 0.765625)"/>
      <use xlink:href="#DejaVuSans-33" transform="translate(963.671875 0.765625)"/>
      <use xlink:href="#DejaVuSans-2e" transform="translate(1027.294922 0.765625)"/>
      <use xlink:href="#DejaVuSans-38" transform="translate(1056.457031 0.765625)"/>
      <use xlink:href="#DejaVuSans-307" transform="translate(1196.932942 11.953125)"/>
      <use xlink:href="#DejaVuSans-Oblique-3b3" transform="translate(1136.315754 0.765625)"/>
      <use xlink:href="#DejaVuSans-30" transform="translate(1196.452473 39.046875) scale(0.7)"/>
      <use xlink:href="#DejaVuSans-2e" transform="translate(1240.988606 39.046875) scale(0.7)"/>
      <use xlink:href="#DejaVuSans-33" transform="translate(1263.239583 39.046875) scale(0.7)"/>
      <use xlink:href="#DejaVuSans-39" transform="translate(1307.775715 39.046875) scale(0.7)"/>
      <use xlink:href="#ArialMT-20" transform="translate(1355.046223 0.765625)"/>
      <use xlink:href="#ArialMT-20" transform="translate(1382.829426 0.765625)"/>
      <use xlink:href="#ArialMT-28" transform="translate(1410.612629 0.765625)"/>
      <use xlink:href="#DejaVuSans-Oblique-52" transform="translate(1443.913411 0.765625)"/>
      <use xlink:href="#DejaVuSans-32" transform="translate(1520.412603 39.046875) scale(0.7)"/>
      <use xlink:href="#ArialMT-3d" transform="translate(1567.683111 0.765625)"/>
      <use xlink:href="#ArialMT-30" transform="translate(1626.081549 0.765625)"/>
      <use xlink:href="#ArialMT-2e" transform="translate(1681.696783 0.765625)"/>
      <use xlink:href="#ArialMT-39" transform="translate(1709.479986 0.765625)"/>
      <use xlink:href="#ArialMT-39" transform="translate(1765.095221 0.765625)"/>
      <use xlink:href="#ArialMT-29" transform="translate(1820.710455 0.765625)"/>
     </g>
    </g>
   </g>
  </g>
 </g>
 <defs>
  <clipPath id="p379d86694c">
   <rect x="59.78" y="15.84" width="351.61" height="284.58"/>
  </clipPath>
 </defs>
</svg>
