<?xml version="1.0" encoding="utf-8" standalone="no"?>
<!DOCTYPE svg PUBLIC "-//W3C//DTD SVG 1.1//EN"
  "http://www.w3.org/Graphics/SVG/1.1/DTD/svg11.dtd">
<svg xmlns:xlink="http://www.w3.org/1999/xlink" width="432pt" height="360pt" viewBox="0 0 432 360" xmlns="http://www.w3.org/2000/svg" version="1.1">
 <metadata>
  <rdf:RDF xmlns:dc="http://purl.org/dc/elements/1.1/" xmlns:cc="http://creativecommons.org/ns#" xmlns:rdf="http://www.w3.org/1999/02/22-rdf-syntax-ns#">
   <cc:Work>
    <dc:type rdf:resource="http://purl.org/dc/dcmitype/StillImage"/>
    <dc:date>2026-07-02T12:27:01.023188</dc:date>
    <dc:format>image/svg+xml</dc:format>
    <dc:creator>
     <cc:Agent>
      <dc:title>Matplotlib v3.10.0, https://matplotlib.org/</dc:title>
     </cc:Agent>
    </dc:creator>
   </cc:Work>
  </rdf:RDF>
 </metadata>
 <defs>
  <style type="text/css">*{stroke-linejoin: round; stroke-linecap: butt}</style>
 </defs>
 <g id="figure_1">
  <g id="patch_1">
   <path d="M 0 360 
L 432 360 
L 432 0 
L 0 0 
z
" style="fill: #ffffff"/>
  </g>
  <g id="axes_1">
   <g id="patch_2">
    <path d="M 61.652 293.686875 
L 410.057189 293.686875 
L 410.057189 15.84 
L 61.652 15.84 
z
" style="fill: #ffffff"/>
   </g>
   <g id="matplotlib.axis_1">
    <g id="xtick_1">
     <g id="line2d_1">
      <defs>
       <path id="me0bf329e4c" d="M 0 0 
L 0 3.5 
" style="stroke: #000000; stroke-width: 0.8"/>
      </defs>
      <g>
       <use xlink:href="#me0bf329e4c" x="61.652" y="293.686875" style="stroke: #000000; stroke-width: 0.8"/>
      </g>
     </g>
     <g id="text_1">
      <!-- $\mathdefault{10^{-1}}$ -->
      <g transform="translate(47.792 315.124375) scale(0.14 -0.14)">
       <defs>
        <path id="ArialMT-31" d="M 2384 0 
L 1822 0 
L 1822 3584 
Q 1619 3391 1289 3197 
Q 959 3003 697 2906 
L 697 3450 
Q 1169 3672 1522 3987 
Q 1875 4303 2022 4600 
L 2384 4600 
L 2384 0 
z
" transform="scale(0.015625)"/>
        <path id="ArialMT-30" d="M 266 2259 
Q 266 3072 433 3567 
Q 600 4063 929 4331 
Q 1259 4600 1759 4600 
Q 2128 4600 2406 4451 
Q 2684 4303 2865 4023 
Q 3047 3744 3150 3342 
Q 3253 2941 3253 2259 
Q 3253 1453 3087 958 
Q 2922 463 2592 192 
Q 2263 -78 1759 -78 
Q 1097 -78 719 397 
Q 266 969 266 2259 
z
M 844 2259 
Q 844 1131 1108 757 
Q 1372 384 1759 384 
Q 2147 384 2411 759 
Q 2675 1134 2675 2259 
Q 2675 3391 2411 3762 
Q 2147 4134 1753 4134 
Q 1366 4134 1134 3806 
Q 844 3388 844 2259 
z
" transform="scale(0.015625)"/>
        <path id="ArialMT-2212" d="M 3381 1997 
L 356 1997 
L 356 2522 
L 3381 2522 
L 3381 1997 
z
" transform="scale(0.015625)"/>
       </defs>
       <use xlink:href="#ArialMT-31" transform="translate(0 0.99375)"/>
       <use xlink:href="#ArialMT-30" transform="translate(55.615234 0.99375)"/>
       <use xlink:href="#ArialMT-2212" transform="translate(112.972813 70.6875) scale(0.7)"/>
       <use xlink:href="#ArialMT-31" transform="translate(153.851719 70.6875) scale(0.7)"/>
      </g>
     </g>
    </g>
    <g id="xtick_2">
     <g id="line2d_2">
      <g>
       <use xlink:href="#me0bf329e4c" x="148.753297" y="293.686875" style="stroke: #000000; stroke-width: 0.8"/>
      </g>
     </g>
     <g id="text_2">
      <!-- $\mathdefault{10^{0}}$ -->
      <g transform="translate(137.763297 315.124375) scale(0.14 -0.14)">
       <use xlink:href="#ArialMT-31" transform="translate(0 0.99375)"/>
       <use xlink:href="#ArialMT-30" transform="translate(55.615234 0.99375)"/>
       <use xlink:href="#ArialMT-30" transform="translate(112.972813 70.6875) scale(0.7)"/>
      </g>
     </g>
    </g>
    <g id="xtick_3">
     <g id="line2d_3">
      <g>
       <use xlink:href="#me0bf329e4c" x="235.854594" y="293.686875" style="stroke: #000000; stroke-width: 0.8"/>
      </g>
     </g>
     <g id="text_3">
      <!-- $\mathdefault{10^{1}}$ -->
      <g transform="translate(224.864594 315.124375) scale(0.14 -0.14)">
       <use xlink:href="#ArialMT-31" transform="translate(0 0.99375)"/>
       <use xlink:href="#ArialMT-30" transform="translate(55.615234 0.99375)"/>
       <use xlink:href="#ArialMT-31" transform="translate(112.972813 70.6875) scale(0.7)"/>
      </g>
     </g>
    </g>
    <g id="xtick_4">
     <g id="line2d_4">
      <g>
       <use xlink:href="#me0bf329e4c" x="322.955892" y="293.686875" style="stroke: #000000; stroke-width: 0.8"/>
      </g>
     </g>
     <g id="text_4">
      <!-- $\mathdefault{10^{2}}$ -->
      <g transform="translate(311.965892 315.124375) scale(0.14 -0.14)">
       <defs>
        <path id="ArialMT-32" d="M 3222 541 
L 3222 0 
L 194 0 
Q 188 203 259 391 
Q 375 700 629 1000 
Q 884 1300 1366 1694 
Q 2113 2306 2375 2664 
Q 2638 3022 2638 3341 
Q 2638 3675 2398 3904 
Q 2159 4134 1775 4134 
Q 1369 4134 1125 3890 
Q 881 3647 878 3216 
L 300 3275 
Q 359 3922 746 4261 
Q 1134 4600 1788 4600 
Q 2447 4600 2831 4234 
Q 3216 3869 3216 3328 
Q 3216 3053 3103 2787 
Q 2991 2522 2730 2228 
Q 2469 1934 1863 1422 
Q 1356 997 1212 845 
Q 1069 694 975 541 
L 3222 541 
z
" transform="scale(0.015625)"/>
       </defs>
       <use xlink:href="#ArialMT-31" transform="translate(0 0.99375)"/>
       <use xlink:href="#ArialMT-30" transform="translate(55.615234 0.99375)"/>
       <use xlink:href="#ArialMT-32" transform="translate(112.972813 70.6875) scale(0.7)"/>
      </g>
     </g>
    </g>
    <g id="xtick_5">
     <g id="line2d_5">
      <g>
       <use xlink:href="#me0bf329e4c" x="410.057189" y="293.686875" style="stroke: #000000; stroke-width: 0.8"/>
      </g>
     </g>
     <g id="text_5">
      <!-- $\mathdefault{10^{3}}$ -->
      <g transform="translate(399.067189 315.124375) scale(0.14 -0.14)">
       <defs>
        <path id="ArialMT-33" d="M 269 1209 
L 831 1284 
Q 928 806 1161 595 
Q 1394 384 1728 384 
Q 2125 384 2398 659 
Q 2672 934 2672 1341 
Q 2672 1728 2419 1979 
Q 2166 2231 1775 2231 
Q 1616 2231 1378 2169 
L 1441 2663 
Q 1497 2656 1531 2656 
Q 1891 2656 2178 2843 
Q 2466 3031 2466 3422 
Q 2466 3731 2256 3934 
Q 2047 4138 1716 4138 
Q 1388 4138 1169 3931 
Q 950 3725 888 3313 
L 325 3413 
Q 428 3978 793 4289 
Q 1159 4600 1703 4600 
Q 2078 4600 2393 4439 
Q 2709 4278 2876 4000 
Q 3044 3722 3044 3409 
Q 3044 3113 2884 2869 
Q 2725 2625 2413 2481 
Q 2819 2388 3044 2092 
Q 3269 1797 3269 1353 
Q 3269 753 2831 336 
Q 2394 -81 1725 -81 
Q 1122 -81 723 278 
Q 325 638 269 1209 
z
" transform="scale(0.015625)"/>
       </defs>
       <use xlink:href="#ArialMT-31" transform="translate(0 0.99375)"/>
       <use xlink:href="#ArialMT-30" transform="translate(55.615234 0.99375)"/>
       <use xlink:href="#ArialMT-33" transform="translate(112.972813 70.6875) scale(0.7)"/>
      </g>
     </g>
    </g>
    <g id="xtick_6">
     <g id="line2d_6">
      <defs>
       <path id="m9ac0239b8b" d="M 0 0 
L 0 2 
" style="stroke: #000000; stroke-width: 0.6"/>
      </defs>
      <g>
       <use xlink:href="#m9ac0239b8b" x="87.872103" y="293.686875" style="stroke: #000000; stroke-width: 0.6"/>
      </g>
     </g>
    </g>
    <g id="xtick_7">
     <g id="line2d_7">
      <g>
       <use xlink:href="#m9ac0239b8b" x="103.20988" y="293.686875" style="stroke: #000000; stroke-width: 0.6"/>
      </g>
     </g>
    </g>
    <g id="xtick_8">
     <g id="line2d_8">
      <g>
       <use xlink:href="#m9ac0239b8b" x="114.092206" y="293.686875" style="stroke: #000000; stroke-width: 0.6"/>
      </g>
     </g>
    </g>
    <g id="xtick_9">
     <g id="line2d_9">
      <g>
       <use xlink:href="#m9ac0239b8b" x="122.533194" y="293.686875" style="stroke: #000000; stroke-width: 0.6"/>
      </g>
     </g>
    </g>
    <g id="xtick_10">
     <g id="line2d_10">
      <g>
       <use xlink:href="#m9ac0239b8b" x="129.429983" y="293.686875" style="stroke: #000000; stroke-width: 0.6"/>
      </g>
     </g>
    </g>
    <g id="xtick_11">
     <g id="line2d_11">
      <g>
       <use xlink:href="#m9ac0239b8b" x="135.261136" y="293.686875" style="stroke: #000000; stroke-width: 0.6"/>
      </g>
     </g>
    </g>
    <g id="xtick_12">
     <g id="line2d_12">
      <g>
       <use xlink:href="#m9ac0239b8b" x="140.312309" y="293.686875" style="stroke: #000000; stroke-width: 0.6"/>
      </g>
     </g>
    </g>
    <g id="xtick_13">
     <g id="line2d_13">
      <g>
       <use xlink:href="#m9ac0239b8b" x="144.76776" y="293.686875" style="stroke: #000000; stroke-width: 0.6"/>
      </g>
     </g>
    </g>
    <g id="xtick_14">
     <g id="line2d_14">
      <g>
       <use xlink:href="#m9ac0239b8b" x="174.9734" y="293.686875" style="stroke: #000000; stroke-width: 0.6"/>
      </g>
     </g>
    </g>
    <g id="xtick_15">
     <g id="line2d_15">
      <g>
       <use xlink:href="#m9ac0239b8b" x="190.311177" y="293.686875" style="stroke: #000000; stroke-width: 0.6"/>
      </g>
     </g>
    </g>
    <g id="xtick_16">
     <g id="line2d_16">
      <g>
       <use xlink:href="#m9ac0239b8b" x="201.193503" y="293.686875" style="stroke: #000000; stroke-width: 0.6"/>
      </g>
     </g>
    </g>
    <g id="xtick_17">
     <g id="line2d_17">
      <g>
       <use xlink:href="#m9ac0239b8b" x="209.634491" y="293.686875" style="stroke: #000000; stroke-width: 0.6"/>
      </g>
     </g>
    </g>
    <g id="xtick_18">
     <g id="line2d_18">
      <g>
       <use xlink:href="#m9ac0239b8b" x="216.531281" y="293.686875" style="stroke: #000000; stroke-width: 0.6"/>
      </g>
     </g>
    </g>
    <g id="xtick_19">
     <g id="line2d_19">
      <g>
       <use xlink:href="#m9ac0239b8b" x="222.362433" y="293.686875" style="stroke: #000000; stroke-width: 0.6"/>
      </g>
     </g>
    </g>
    <g id="xtick_20">
     <g id="line2d_20">
      <g>
       <use xlink:href="#m9ac0239b8b" x="227.413607" y="293.686875" style="stroke: #000000; stroke-width: 0.6"/>
      </g>
     </g>
    </g>
    <g id="xtick_21">
     <g id="line2d_21">
      <g>
       <use xlink:href="#m9ac0239b8b" x="231.869058" y="293.686875" style="stroke: #000000; stroke-width: 0.6"/>
      </g>
     </g>
    </g>
    <g id="xtick_22">
     <g id="line2d_22">
      <g>
       <use xlink:href="#m9ac0239b8b" x="262.074698" y="293.686875" style="stroke: #000000; stroke-width: 0.6"/>
      </g>
     </g>
    </g>
    <g id="xtick_23">
     <g id="line2d_23">
      <g>
       <use xlink:href="#m9ac0239b8b" x="277.412475" y="293.686875" style="stroke: #000000; stroke-width: 0.6"/>
      </g>
     </g>
    </g>
    <g id="xtick_24">
     <g id="line2d_24">
      <g>
       <use xlink:href="#m9ac0239b8b" x="288.294801" y="293.686875" style="stroke: #000000; stroke-width: 0.6"/>
      </g>
     </g>
    </g>
    <g id="xtick_25">
     <g id="line2d_25">
      <g>
       <use xlink:href="#m9ac0239b8b" x="296.735788" y="293.686875" style="stroke: #000000; stroke-width: 0.6"/>
      </g>
     </g>
    </g>
    <g id="xtick_26">
     <g id="line2d_26">
      <g>
       <use xlink:href="#m9ac0239b8b" x="303.632578" y="293.686875" style="stroke: #000000; stroke-width: 0.6"/>
      </g>
     </g>
    </g>
    <g id="xtick_27">
     <g id="line2d_27">
      <g>
       <use xlink:href="#m9ac0239b8b" x="309.46373" y="293.686875" style="stroke: #000000; stroke-width: 0.6"/>
      </g>
     </g>
    </g>
    <g id="xtick_28">
     <g id="line2d_28">
      <g>
       <use xlink:href="#m9ac0239b8b" x="314.514904" y="293.686875" style="stroke: #000000; stroke-width: 0.6"/>
      </g>
     </g>
    </g>
    <g id="xtick_29">
     <g id="line2d_29">
      <g>
       <use xlink:href="#m9ac0239b8b" x="318.970355" y="293.686875" style="stroke: #000000; stroke-width: 0.6"/>
      </g>
     </g>
    </g>
    <g id="xtick_30">
     <g id="line2d_30">
      <g>
       <use xlink:href="#m9ac0239b8b" x="349.175995" y="293.686875" style="stroke: #000000; stroke-width: 0.6"/>
      </g>
     </g>
    </g>
    <g id="xtick_31">
     <g id="line2d_31">
      <g>
       <use xlink:href="#m9ac0239b8b" x="364.513772" y="293.686875" style="stroke: #000000; stroke-width: 0.6"/>
      </g>
     </g>
    </g>
    <g id="xtick_32">
     <g id="line2d_32">
      <g>
       <use xlink:href="#m9ac0239b8b" x="375.396098" y="293.686875" style="stroke: #000000; stroke-width: 0.6"/>
      </g>
     </g>
    </g>
    <g id="xtick_33">
     <g id="line2d_33">
      <g>
       <use xlink:href="#m9ac0239b8b" x="383.837086" y="293.686875" style="stroke: #000000; stroke-width: 0.6"/>
      </g>
     </g>
    </g>
    <g id="xtick_34">
     <g id="line2d_34">
      <g>
       <use xlink:href="#m9ac0239b8b" x="390.733875" y="293.686875" style="stroke: #000000; stroke-width: 0.6"/>
      </g>
     </g>
    </g>
    <g id="xtick_35">
     <g id="line2d_35">
      <g>
       <use xlink:href="#m9ac0239b8b" x="396.565027" y="293.686875" style="stroke: #000000; stroke-width: 0.6"/>
      </g>
     </g>
    </g>
    <g id="xtick_36">
     <g id="line2d_36">
      <g>
       <use xlink:href="#m9ac0239b8b" x="401.616201" y="293.686875" style="stroke: #000000; stroke-width: 0.6"/>
      </g>
     </g>
    </g>
    <g id="xtick_37">
     <g id="line2d_37">
      <g>
       <use xlink:href="#m9ac0239b8b" x="406.071652" y="293.686875" style="stroke: #000000; stroke-width: 0.6"/>
      </g>
     </g>
    </g>
    <g id="text_6">
     <!-- Shear rate  $\dot\gamma$  (1/s) -->
     <g transform="translate(152.054594 339.506875) scale(0.2 -0.2)">
      <defs>
       <path id="ArialMT-53" d="M 288 1472 
L 859 1522 
Q 900 1178 1048 958 
Q 1197 738 1509 602 
Q 1822 466 2213 466 
Q 2559 466 2825 569 
Q 3091 672 3220 851 
Q 3350 1031 3350 1244 
Q 3350 1459 3225 1620 
Q 3100 1781 2813 1891 
Q 2628 1963 1997 2114 
Q 1366 2266 1113 2400 
Q 784 2572 623 2826 
Q 463 3081 463 3397 
Q 463 3744 659 4045 
Q 856 4347 1234 4503 
Q 1613 4659 2075 4659 
Q 2584 4659 2973 4495 
Q 3363 4331 3572 4012 
Q 3781 3694 3797 3291 
L 3216 3247 
Q 3169 3681 2898 3903 
Q 2628 4125 2100 4125 
Q 1550 4125 1298 3923 
Q 1047 3722 1047 3438 
Q 1047 3191 1225 3031 
Q 1400 2872 2139 2705 
Q 2878 2538 3153 2413 
Q 3553 2228 3743 1945 
Q 3934 1663 3934 1294 
Q 3934 928 3725 604 
Q 3516 281 3123 101 
Q 2731 -78 2241 -78 
Q 1619 -78 1198 103 
Q 778 284 539 648 
Q 300 1013 288 1472 
z
" transform="scale(0.015625)"/>
       <path id="ArialMT-68" d="M 422 0 
L 422 4581 
L 984 4581 
L 984 2938 
Q 1378 3394 1978 3394 
Q 2347 3394 2619 3248 
Q 2891 3103 3008 2847 
Q 3125 2591 3125 2103 
L 3125 0 
L 2563 0 
L 2563 2103 
Q 2563 2525 2380 2717 
Q 2197 2909 1863 2909 
Q 1613 2909 1392 2779 
Q 1172 2650 1078 2428 
Q 984 2206 984 1816 
L 984 0 
L 422 0 
z
" transform="scale(0.015625)"/>
       <path id="ArialMT-65" d="M 2694 1069 
L 3275 997 
Q 3138 488 2766 206 
Q 2394 -75 1816 -75 
Q 1088 -75 661 373 
Q 234 822 234 1631 
Q 234 2469 665 2931 
Q 1097 3394 1784 3394 
Q 2450 3394 2872 2941 
Q 3294 2488 3294 1666 
Q 3294 1616 3291 1516 
L 816 1516 
Q 847 969 1125 678 
Q 1403 388 1819 388 
Q 2128 388 2347 550 
Q 2566 713 2694 1069 
z
M 847 1978 
L 2700 1978 
Q 2663 2397 2488 2606 
Q 2219 2931 1791 2931 
Q 1403 2931 1139 2672 
Q 875 2413 847 1978 
z
" transform="scale(0.015625)"/>
       <path id="ArialMT-61" d="M 2588 409 
Q 2275 144 1986 34 
Q 1697 -75 1366 -75 
Q 819 -75 525 192 
Q 231 459 231 875 
Q 231 1119 342 1320 
Q 453 1522 633 1644 
Q 813 1766 1038 1828 
Q 1203 1872 1538 1913 
Q 2219 1994 2541 2106 
Q 2544 2222 2544 2253 
Q 2544 2597 2384 2738 
Q 2169 2928 1744 2928 
Q 1347 2928 1158 2789 
Q 969 2650 878 2297 
L 328 2372 
Q 403 2725 575 2942 
Q 747 3159 1072 3276 
Q 1397 3394 1825 3394 
Q 2250 3394 2515 3294 
Q 2781 3194 2906 3042 
Q 3031 2891 3081 2659 
Q 3109 2516 3109 2141 
L 3109 1391 
Q 3109 606 3145 398 
Q 3181 191 3288 0 
L 2700 0 
Q 2613 175 2588 409 
z
M 2541 1666 
Q 2234 1541 1622 1453 
Q 1275 1403 1131 1340 
Q 988 1278 909 1158 
Q 831 1038 831 891 
Q 831 666 1001 516 
Q 1172 366 1500 366 
Q 1825 366 2078 508 
Q 2331 650 2450 897 
Q 2541 1088 2541 1459 
L 2541 1666 
z
" transform="scale(0.015625)"/>
       <path id="ArialMT-72" d="M 416 0 
L 416 3319 
L 922 3319 
L 922 2816 
Q 1116 3169 1280 3281 
Q 1444 3394 1641 3394 
Q 1925 3394 2219 3213 
L 2025 2691 
Q 1819 2813 1613 2813 
Q 1428 2813 1281 2702 
Q 1134 2591 1072 2394 
Q 978 2094 978 1738 
L 978 0 
L 416 0 
z
" transform="scale(0.015625)"/>
       <path id="ArialMT-20" transform="scale(0.015625)"/>
       <path id="ArialMT-74" d="M 1650 503 
L 1731 6 
Q 1494 -44 1306 -44 
Q 1000 -44 831 53 
Q 663 150 594 308 
Q 525 466 525 972 
L 525 2881 
L 113 2881 
L 113 3319 
L 525 3319 
L 525 4141 
L 1084 4478 
L 1084 3319 
L 1650 3319 
L 1650 2881 
L 1084 2881 
L 1084 941 
Q 1084 700 1114 631 
Q 1144 563 1211 522 
Q 1278 481 1403 481 
Q 1497 481 1650 503 
z
" transform="scale(0.015625)"/>
       <path id="DejaVuSans-307" d="M -1894 4863 
L -1319 4863 
L -1319 4134 
L -1894 4134 
L -1894 4863 
z
M -1600 3584 
L -1600 3584 
z
" transform="scale(0.015625)"/>
       <path id="DejaVuSans-Oblique-3b3" d="M 1491 2950 
L 1838 788 
L 3456 3500 
L 4066 3500 
L 1972 0 
L 1713 -1331 
L 1138 -1331 
L 1397 0 
L 988 2613 
Q 925 3006 628 3006 
L 475 3006 
L 569 3500 
L 788 3500 
Q 1403 3500 1491 2950 
z
" transform="scale(0.015625)"/>
       <path id="ArialMT-28" d="M 1497 -1347 
Q 1031 -759 709 28 
Q 388 816 388 1659 
Q 388 2403 628 3084 
Q 909 3875 1497 4659 
L 1900 4659 
Q 1522 4009 1400 3731 
Q 1209 3300 1100 2831 
Q 966 2247 966 1656 
Q 966 153 1900 -1347 
L 1497 -1347 
z
" transform="scale(0.015625)"/>
       <path id="ArialMT-2f" d="M 0 -78 
L 1328 4659 
L 1778 4659 
L 453 -78 
L 0 -78 
z
" transform="scale(0.015625)"/>
       <path id="ArialMT-73" d="M 197 991 
L 753 1078 
Q 800 744 1014 566 
Q 1228 388 1613 388 
Q 2000 388 2187 545 
Q 2375 703 2375 916 
Q 2375 1106 2209 1216 
Q 2094 1291 1634 1406 
Q 1016 1563 777 1677 
Q 538 1791 414 1992 
Q 291 2194 291 2438 
Q 291 2659 392 2848 
Q 494 3038 669 3163 
Q 800 3259 1026 3326 
Q 1253 3394 1513 3394 
Q 1903 3394 2198 3281 
Q 2494 3169 2634 2976 
Q 2775 2784 2828 2463 
L 2278 2388 
Q 2241 2644 2061 2787 
Q 1881 2931 1553 2931 
Q 1166 2931 1000 2803 
Q 834 2675 834 2503 
Q 834 2394 903 2306 
Q 972 2216 1119 2156 
Q 1203 2125 1616 2013 
Q 2213 1853 2448 1751 
Q 2684 1650 2818 1456 
Q 2953 1263 2953 975 
Q 2953 694 2789 445 
Q 2625 197 2315 61 
Q 2006 -75 1616 -75 
Q 969 -75 630 194 
Q 291 463 197 991 
z
" transform="scale(0.015625)"/>
       <path id="ArialMT-29" d="M 791 -1347 
L 388 -1347 
Q 1322 153 1322 1656 
Q 1322 2244 1188 2822 
Q 1081 3291 891 3722 
Q 769 4003 388 4659 
L 791 4659 
Q 1378 3875 1659 3084 
Q 1900 2403 1900 1659 
Q 1900 816 1576 28 
Q 1253 -759 791 -1347 
z
" transform="scale(0.015625)"/>
      </defs>
      <use xlink:href="#ArialMT-53" transform="translate(0 0.828125)"/>
      <use xlink:href="#ArialMT-68" transform="translate(66.699219 0.828125)"/>
      <use xlink:href="#ArialMT-65" transform="translate(122.314453 0.828125)"/>
      <use xlink:href="#ArialMT-61" transform="translate(177.929688 0.828125)"/>
      <use xlink:href="#ArialMT-72" transform="translate(233.544922 0.828125)"/>
      <use xlink:href="#ArialMT-20" transform="translate(266.845703 0.828125)"/>
      <use xlink:href="#ArialMT-72" transform="translate(294.628906 0.828125)"/>
      <use xlink:href="#ArialMT-61" transform="translate(327.929688 0.828125)"/>
      <use xlink:href="#ArialMT-74" transform="translate(383.544922 0.828125)"/>
      <use xlink:href="#ArialMT-65" transform="translate(411.328125 0.828125)"/>
      <use xlink:href="#ArialMT-20" transform="translate(466.943359 0.828125)"/>
      <use xlink:href="#ArialMT-20" transform="translate(494.726562 0.828125)"/>
      <use xlink:href="#DejaVuSans-307" transform="translate(583.126953 12.015625)"/>
      <use xlink:href="#DejaVuSans-Oblique-3b3" transform="translate(522.509766 0.828125)"/>
      <use xlink:href="#ArialMT-20" transform="translate(581.689453 0.828125)"/>
      <use xlink:href="#ArialMT-20" transform="translate(609.472656 0.828125)"/>
      <use xlink:href="#ArialMT-28" transform="translate(637.255859 0.828125)"/>
      <use xlink:href="#ArialMT-31" transform="translate(670.556641 0.828125)"/>
      <use xlink:href="#ArialMT-2f" transform="translate(726.171875 0.828125)"/>
      <use xlink:href="#ArialMT-73" transform="translate(753.955078 0.828125)"/>
      <use xlink:href="#ArialMT-29" transform="translate(803.955078 0.828125)"/>
     </g>
    </g>
   </g>
   <g id="matplotlib.axis_2">
    <g id="ytick_1">
     <g id="line2d_38">
      <defs>
       <path id="m86af8466e1" d="M 0 0 
L -3.5 0 
" style="stroke: #000000; stroke-width: 0.8"/>
      </defs>
      <g>
       <use xlink:href="#m86af8466e1" x="61.652" y="293.686875" style="stroke: #000000; stroke-width: 0.8"/>
      </g>
     </g>
     <g id="text_7">
      <!-- 0 -->
      <g transform="translate(46.866688 298.697344) scale(0.14 -0.14)">
       <use xlink:href="#ArialMT-30"/>
      </g>
     </g>
    </g>
    <g id="ytick_2">
     <g id="line2d_39">
      <g>
       <use xlink:href="#m86af8466e1" x="61.652" y="238.1175" style="stroke: #000000; stroke-width: 0.8"/>
      </g>
     </g>
     <g id="text_8">
      <!-- 10 -->
      <g transform="translate(39.081375 243.127969) scale(0.14 -0.14)">
       <use xlink:href="#ArialMT-31"/>
       <use xlink:href="#ArialMT-30" transform="translate(55.615234 0)"/>
      </g>
     </g>
    </g>
    <g id="ytick_3">
     <g id="line2d_40">
      <g>
       <use xlink:href="#m86af8466e1" x="61.652" y="182.548125" style="stroke: #000000; stroke-width: 0.8"/>
      </g>
     </g>
     <g id="text_9">
      <!-- 20 -->
      <g transform="translate(39.081375 187.558594) scale(0.14 -0.14)">
       <use xlink:href="#ArialMT-32"/>
       <use xlink:href="#ArialMT-30" transform="translate(55.615234 0)"/>
      </g>
     </g>
    </g>
    <g id="ytick_4">
     <g id="line2d_41">
      <g>
       <use xlink:href="#m86af8466e1" x="61.652" y="126.97875" style="stroke: #000000; stroke-width: 0.8"/>
      </g>
     </g>
     <g id="text_10">
      <!-- 30 -->
      <g transform="translate(39.081375 131.989219) scale(0.14 -0.14)">
       <use xlink:href="#ArialMT-33"/>
       <use xlink:href="#ArialMT-30" transform="translate(55.615234 0)"/>
      </g>
     </g>
    </g>
    <g id="ytick_5">
     <g id="line2d_42">
      <g>
       <use xlink:href="#m86af8466e1" x="61.652" y="71.409375" style="stroke: #000000; stroke-width: 0.8"/>
      </g>
     </g>
     <g id="text_11">
      <!-- 40 -->
      <g transform="translate(39.081375 76.419844) scale(0.14 -0.14)">
       <defs>
        <path id="ArialMT-34" d="M 2069 0 
L 2069 1097 
L 81 1097 
L 81 1613 
L 2172 4581 
L 2631 4581 
L 2631 1613 
L 3250 1613 
L 3250 1097 
L 2631 1097 
L 2631 0 
L 2069 0 
z
M 2069 1613 
L 2069 3678 
L 634 1613 
L 2069 1613 
z
" transform="scale(0.015625)"/>
       </defs>
       <use xlink:href="#ArialMT-34"/>
       <use xlink:href="#ArialMT-30" transform="translate(55.615234 0)"/>
      </g>
     </g>
    </g>
    <g id="ytick_6">
     <g id="line2d_43">
      <g>
       <use xlink:href="#m86af8466e1" x="61.652" y="15.84" style="stroke: #000000; stroke-width: 0.8"/>
      </g>
     </g>
     <g id="text_12">
      <!-- 50 -->
      <g transform="translate(39.081375 20.850469) scale(0.14 -0.14)">
       <defs>
        <path id="ArialMT-35" d="M 266 1200 
L 856 1250 
Q 922 819 1161 601 
Q 1400 384 1738 384 
Q 2144 384 2425 690 
Q 2706 997 2706 1503 
Q 2706 1984 2436 2262 
Q 2166 2541 1728 2541 
Q 1456 2541 1237 2417 
Q 1019 2294 894 2097 
L 366 2166 
L 809 4519 
L 3088 4519 
L 3088 3981 
L 1259 3981 
L 1013 2750 
Q 1425 3038 1878 3038 
Q 2478 3038 2890 2622 
Q 3303 2206 3303 1553 
Q 3303 931 2941 478 
Q 2500 -78 1738 -78 
Q 1113 -78 717 272 
Q 322 622 266 1200 
z
" transform="scale(0.015625)"/>
       </defs>
       <use xlink:href="#ArialMT-35"/>
       <use xlink:href="#ArialMT-30" transform="translate(55.615234 0)"/>
      </g>
     </g>
    </g>
    <g id="text_13">
     <!-- Apparent viscosity  $\mu_\mathrm{app}$  (KcP) -->
     <g transform="translate(28.881375 291.863438) rotate(-90) scale(0.2 -0.2)">
      <defs>
       <path id="ArialMT-41" d="M -9 0 
L 1750 4581 
L 2403 4581 
L 4278 0 
L 3588 0 
L 3053 1388 
L 1138 1388 
L 634 0 
L -9 0 
z
M 1313 1881 
L 2866 1881 
L 2388 3150 
Q 2169 3728 2063 4100 
Q 1975 3659 1816 3225 
L 1313 1881 
z
" transform="scale(0.015625)"/>
       <path id="ArialMT-70" d="M 422 -1272 
L 422 3319 
L 934 3319 
L 934 2888 
Q 1116 3141 1344 3267 
Q 1572 3394 1897 3394 
Q 2322 3394 2647 3175 
Q 2972 2956 3137 2557 
Q 3303 2159 3303 1684 
Q 3303 1175 3120 767 
Q 2938 359 2589 142 
Q 2241 -75 1856 -75 
Q 1575 -75 1351 44 
Q 1128 163 984 344 
L 984 -1272 
L 422 -1272 
z
M 931 1641 
Q 931 1000 1190 694 
Q 1450 388 1819 388 
Q 2194 388 2461 705 
Q 2728 1022 2728 1688 
Q 2728 2322 2467 2637 
Q 2206 2953 1844 2953 
Q 1484 2953 1207 2617 
Q 931 2281 931 1641 
z
" transform="scale(0.015625)"/>
       <path id="ArialMT-6e" d="M 422 0 
L 422 3319 
L 928 3319 
L 928 2847 
Q 1294 3394 1984 3394 
Q 2284 3394 2536 3286 
Q 2788 3178 2913 3003 
Q 3038 2828 3088 2588 
Q 3119 2431 3119 2041 
L 3119 0 
L 2556 0 
L 2556 2019 
Q 2556 2363 2490 2533 
Q 2425 2703 2258 2804 
Q 2091 2906 1866 2906 
Q 1506 2906 1245 2678 
Q 984 2450 984 1813 
L 984 0 
L 422 0 
z
" transform="scale(0.015625)"/>
       <path id="ArialMT-76" d="M 1344 0 
L 81 3319 
L 675 3319 
L 1388 1331 
Q 1503 1009 1600 663 
Q 1675 925 1809 1294 
L 2547 3319 
L 3125 3319 
L 1869 0 
L 1344 0 
z
" transform="scale(0.015625)"/>
       <path id="ArialMT-69" d="M 425 3934 
L 425 4581 
L 988 4581 
L 988 3934 
L 425 3934 
z
M 425 0 
L 425 3319 
L 988 3319 
L 988 0 
L 425 0 
z
" transform="scale(0.015625)"/>
       <path id="ArialMT-63" d="M 2588 1216 
L 3141 1144 
Q 3050 572 2676 248 
Q 2303 -75 1759 -75 
Q 1078 -75 664 370 
Q 250 816 250 1647 
Q 250 2184 428 2587 
Q 606 2991 970 3192 
Q 1334 3394 1763 3394 
Q 2303 3394 2647 3120 
Q 2991 2847 3088 2344 
L 2541 2259 
Q 2463 2594 2264 2762 
Q 2066 2931 1784 2931 
Q 1359 2931 1093 2626 
Q 828 2322 828 1663 
Q 828 994 1084 691 
Q 1341 388 1753 388 
Q 2084 388 2306 591 
Q 2528 794 2588 1216 
z
" transform="scale(0.015625)"/>
       <path id="ArialMT-6f" d="M 213 1659 
Q 213 2581 725 3025 
Q 1153 3394 1769 3394 
Q 2453 3394 2887 2945 
Q 3322 2497 3322 1706 
Q 3322 1066 3130 698 
Q 2938 331 2570 128 
Q 2203 -75 1769 -75 
Q 1072 -75 642 372 
Q 213 819 213 1659 
z
M 791 1659 
Q 791 1022 1069 705 
Q 1347 388 1769 388 
Q 2188 388 2466 706 
Q 2744 1025 2744 1678 
Q 2744 2294 2464 2611 
Q 2184 2928 1769 2928 
Q 1347 2928 1069 2612 
Q 791 2297 791 1659 
z
" transform="scale(0.015625)"/>
       <path id="ArialMT-79" d="M 397 -1278 
L 334 -750 
Q 519 -800 656 -800 
Q 844 -800 956 -737 
Q 1069 -675 1141 -563 
Q 1194 -478 1313 -144 
Q 1328 -97 1363 -6 
L 103 3319 
L 709 3319 
L 1400 1397 
Q 1534 1031 1641 628 
Q 1738 1016 1872 1384 
L 2581 3319 
L 3144 3319 
L 1881 -56 
Q 1678 -603 1566 -809 
Q 1416 -1088 1222 -1217 
Q 1028 -1347 759 -1347 
Q 597 -1347 397 -1278 
z
" transform="scale(0.015625)"/>
       <path id="DejaVuSans-Oblique-3bc" d="M -84 -1331 
L 856 3500 
L 1434 3500 
L 1009 1322 
Q 997 1256 987 1175 
Q 978 1094 978 1013 
Q 978 722 1161 565 
Q 1344 409 1684 409 
Q 2147 409 2431 671 
Q 2716 934 2816 1459 
L 3213 3500 
L 3788 3500 
L 3266 809 
Q 3253 750 3248 706 
Q 3244 663 3244 628 
Q 3244 531 3283 486 
Q 3322 441 3406 441 
Q 3438 441 3492 456 
Q 3547 472 3647 513 
L 3559 50 
Q 3422 -19 3297 -55 
Q 3172 -91 3053 -91 
Q 2847 -91 2730 40 
Q 2613 172 2613 403 
Q 2438 153 2195 31 
Q 1953 -91 1625 -91 
Q 1334 -91 1117 43 
Q 900 178 831 397 
L 494 -1331 
L -84 -1331 
z
" transform="scale(0.015625)"/>
       <path id="DejaVuSans-61" d="M 2194 1759 
Q 1497 1759 1228 1600 
Q 959 1441 959 1056 
Q 959 750 1161 570 
Q 1363 391 1709 391 
Q 2188 391 2477 730 
Q 2766 1069 2766 1631 
L 2766 1759 
L 2194 1759 
z
M 3341 1997 
L 3341 0 
L 2766 0 
L 2766 531 
Q 2569 213 2275 61 
Q 1981 -91 1556 -91 
Q 1019 -91 701 211 
Q 384 513 384 1019 
Q 384 1609 779 1909 
Q 1175 2209 1959 2209 
L 2766 2209 
L 2766 2266 
Q 2766 2663 2505 2880 
Q 2244 3097 1772 3097 
Q 1472 3097 1187 3025 
Q 903 2953 641 2809 
L 641 3341 
Q 956 3463 1253 3523 
Q 1550 3584 1831 3584 
Q 2591 3584 2966 3190 
Q 3341 2797 3341 1997 
z
" transform="scale(0.015625)"/>
       <path id="DejaVuSans-70" d="M 1159 525 
L 1159 -1331 
L 581 -1331 
L 581 3500 
L 1159 3500 
L 1159 2969 
Q 1341 3281 1617 3432 
Q 1894 3584 2278 3584 
Q 2916 3584 3314 3078 
Q 3713 2572 3713 1747 
Q 3713 922 3314 415 
Q 2916 -91 2278 -91 
Q 1894 -91 1617 61 
Q 1341 213 1159 525 
z
M 3116 1747 
Q 3116 2381 2855 2742 
Q 2594 3103 2138 3103 
Q 1681 3103 1420 2742 
Q 1159 2381 1159 1747 
Q 1159 1113 1420 752 
Q 1681 391 2138 391 
Q 2594 391 2855 752 
Q 3116 1113 3116 1747 
z
" transform="scale(0.015625)"/>
       <path id="ArialMT-4b" d="M 469 0 
L 469 4581 
L 1075 4581 
L 1075 2309 
L 3350 4581 
L 4172 4581 
L 2250 2725 
L 4256 0 
L 3456 0 
L 1825 2319 
L 1075 1588 
L 1075 0 
L 469 0 
z
" transform="scale(0.015625)"/>
       <path id="ArialMT-50" d="M 494 0 
L 494 4581 
L 2222 4581 
Q 2678 4581 2919 4538 
Q 3256 4481 3484 4323 
Q 3713 4166 3852 3881 
Q 3991 3597 3991 3256 
Q 3991 2672 3619 2267 
Q 3247 1863 2275 1863 
L 1100 1863 
L 1100 0 
L 494 0 
z
M 1100 2403 
L 2284 2403 
Q 2872 2403 3119 2622 
Q 3366 2841 3366 3238 
Q 3366 3525 3220 3729 
Q 3075 3934 2838 4000 
Q 2684 4041 2272 4041 
L 1100 4041 
L 1100 2403 
z
" transform="scale(0.015625)"/>
      </defs>
      <use xlink:href="#ArialMT-41" transform="translate(0 0.203125)"/>
      <use xlink:href="#ArialMT-70" transform="translate(66.699219 0.203125)"/>
      <use xlink:href="#ArialMT-70" transform="translate(122.314453 0.203125)"/>
      <use xlink:href="#ArialMT-61" transform="translate(177.929688 0.203125)"/>
      <use xlink:href="#ArialMT-72" transform="translate(233.544922 0.203125)"/>
      <use xlink:href="#ArialMT-65" transform="translate(266.845703 0.203125)"/>
      <use xlink:href="#ArialMT-6e" transform="translate(322.460938 0.203125)"/>
      <use xlink:href="#ArialMT-74" transform="translate(378.076172 0.203125)"/>
      <use xlink:href="#ArialMT-20" transform="translate(405.859375 0.203125)"/>
      <use xlink:href="#ArialMT-76" transform="translate(433.642578 0.203125)"/>
      <use xlink:href="#ArialMT-69" transform="translate(483.642578 0.203125)"/>
      <use xlink:href="#ArialMT-73" transform="translate(505.859375 0.203125)"/>
      <use xlink:href="#ArialMT-63" transform="translate(555.859375 0.203125)"/>
      <use xlink:href="#ArialMT-6f" transform="translate(605.859375 0.203125)"/>
      <use xlink:href="#ArialMT-73" transform="translate(661.474609 0.203125)"/>
      <use xlink:href="#ArialMT-69" transform="translate(711.474609 0.203125)"/>
      <use xlink:href="#ArialMT-74" transform="translate(733.691406 0.203125)"/>
      <use xlink:href="#ArialMT-79" transform="translate(761.474609 0.203125)"/>
      <use xlink:href="#ArialMT-20" transform="translate(811.474609 0.203125)"/>
      <use xlink:href="#ArialMT-20" transform="translate(839.257812 0.203125)"/>
      <use xlink:href="#DejaVuSans-Oblique-3bc" transform="translate(867.041016 0.203125)"/>
      <use xlink:href="#DejaVuSans-61" transform="translate(930.664062 -16.203125) scale(0.7)"/>
      <use xlink:href="#DejaVuSans-70" transform="translate(973.55957 -16.203125) scale(0.7)"/>
      <use xlink:href="#DejaVuSans-70" transform="translate(1017.993164 -16.203125) scale(0.7)"/>
      <use xlink:href="#ArialMT-20" transform="translate(1065.161133 0.203125)"/>
      <use xlink:href="#ArialMT-20" transform="translate(1092.944336 0.203125)"/>
      <use xlink:href="#ArialMT-28" transform="translate(1120.727539 0.203125)"/>
      <use xlink:href="#ArialMT-4b" transform="translate(1154.02832 0.203125)"/>
      <use xlink:href="#ArialMT-63" transform="translate(1220.727539 0.203125)"/>
      <use xlink:href="#ArialMT-50" transform="translate(1270.727539 0.203125)"/>
      <use xlink:href="#ArialMT-29" transform="translate(1337.426758 0.203125)"/>
     </g>
    </g>
   </g>
   <g id="line2d_44">
    <path d="M -1 127.785546 
L 410.057189 127.785546 
L 410.057189 127.785546 
" clip-path="url(#p647fa38d46)" style="fill: none; stroke: #4285f4; stroke-opacity: 0.95; stroke-width: 2.2; stroke-linecap: square"/>
   </g>
   <g id="line2d_45">
    <path d="M -1 134.783909 
L 6.594658 140.499642 
L 15.333919 146.822155 
L 24.073179 152.883718 
L 32.81244 158.695101 
L 41.551701 164.266631 
L 50.290961 169.608206 
L 60.486765 175.562047 
L 70.682569 181.230197 
L 80.878373 186.626364 
L 91.074177 191.763599 
L 101.269981 196.654327 
L 111.465785 201.310376 
L 121.661589 205.743007 
L 133.313937 210.549027 
L 144.966284 215.092405 
L 156.618632 219.387492 
L 168.270979 223.447859 
L 179.923327 227.286331 
L 193.032218 231.354453 
L 206.141108 235.173336 
L 219.249999 238.758249 
L 232.35889 242.123528 
L 246.924324 245.621469 
L 261.489759 248.882117 
L 276.055193 251.92157 
L 292.077171 255.027367 
L 308.099149 257.902207 
L 324.121126 260.563265 
L 341.599647 263.241068 
L 359.078169 265.702391 
L 378.013233 268.144794 
L 398.404841 270.537226 
L 410.057189 271.802325 
L 410.057189 271.802325 
" clip-path="url(#p647fa38d46)" style="fill: none; stroke: #ea4335; stroke-opacity: 0.95; stroke-width: 2; stroke-linecap: square"/>
   </g>
   <g id="line2d_46">
    <path d="M 100.586203 -1 
L 104.183068 9.153228 
L 108.552698 21.010048 
L 112.922329 32.372782 
L 117.291959 43.262018 
L 121.661589 53.697488 
L 126.03122 63.698101 
L 130.40085 73.281978 
L 136.227024 85.442135 
L 142.053197 96.931392 
L 147.879371 107.786766 
L 153.705545 118.043228 
L 159.531719 127.733821 
L 165.357892 136.889766 
L 171.184066 145.54056 
L 177.01024 153.714074 
L 182.836413 161.436639 
L 188.662587 168.733135 
L 194.488761 175.62707 
L 200.314935 182.140654 
L 206.141108 188.294871 
L 211.967282 194.109547 
L 217.793456 199.603418 
L 223.61963 204.794181 
L 229.445803 209.698559 
L 235.271977 214.332354 
L 241.098151 218.710494 
L 246.924324 222.847083 
L 252.750498 226.755449 
L 260.033215 231.339082 
L 267.315933 235.608817 
L 274.59865 239.58615 
L 281.881367 243.291104 
L 289.164084 246.742334 
L 296.446801 249.957216 
L 303.729518 252.951933 
L 312.468779 256.276135 
L 321.208039 259.329063 
L 329.9473 262.132854 
L 338.686561 264.707841 
L 347.425821 267.072694 
L 357.621625 269.588902 
L 367.817429 271.867218 
L 378.013233 273.930133 
L 389.665581 276.050029 
L 401.317928 277.94246 
L 410.057189 279.227293 
L 410.057189 279.227293 
" clip-path="url(#p647fa38d46)" style="fill: none; stroke: #fbbc05; stroke-opacity: 0.95; stroke-width: 2; stroke-linecap: square"/>
   </g>
   <g id="line2d_47">
    <path d="M -1 12.511617 
L 3.681571 22.029407 
L 9.507745 33.422366 
L 15.333919 44.33752 
L 21.160093 54.794906 
L 26.986266 64.813723 
L 32.81244 74.412364 
L 38.638614 83.608451 
L 44.464788 92.418866 
L 50.290961 100.859783 
L 56.117135 108.946699 
L 61.943309 116.694461 
L 67.769482 124.117292 
L 73.595656 131.228819 
L 79.42183 138.042097 
L 85.248004 144.569636 
L 91.074177 150.823418 
L 98.356894 158.27312 
L 105.639612 165.334353 
L 112.922329 172.027374 
L 120.205046 178.371383 
L 127.487763 184.38458 
L 134.77048 190.084215 
L 142.053197 195.486639 
L 149.335915 200.60735 
L 156.618632 205.461039 
L 163.901349 210.061629 
L 171.184066 214.422318 
L 178.466783 218.555617 
L 187.206044 223.232071 
L 195.945304 227.617445 
L 204.684565 231.729856 
L 213.423826 235.586296 
L 222.163086 239.202696 
L 230.902347 242.593997 
L 239.641607 245.774211 
L 249.837411 249.235153 
L 260.033215 252.446095 
L 270.229019 255.425098 
L 280.424823 258.188913 
L 292.077171 261.103954 
L 303.729518 263.779616 
L 315.381866 266.235556 
L 328.490757 268.75826 
L 341.599647 271.049135 
L 356.165082 273.348497 
L 370.730516 275.414308 
L 386.752494 277.445188 
L 402.774472 279.250348 
L 410.057189 280.00315 
L 410.057189 280.00315 
" clip-path="url(#p647fa38d46)" style="fill: none; stroke: #34a853; stroke-opacity: 0.95; stroke-width: 2; stroke-linecap: square"/>
   </g>
   <g id="line2d_48">
    <path d="M 82.281537 -1 
L 85.248004 9.024128 
L 89.617634 23.169997 
L 93.987264 36.61291 
L 98.356894 49.387797 
L 102.726525 61.527857 
L 107.096155 73.064636 
L 111.465785 84.028112 
L 115.835416 94.446776 
L 120.205046 104.3477 
L 124.574676 113.756614 
L 128.944307 122.697966 
L 133.313937 131.194992 
L 137.683567 139.269772 
L 142.053197 146.943288 
L 146.422828 154.23548 
L 150.792458 161.165299 
L 155.162088 167.750751 
L 159.531719 174.008949 
L 163.901349 179.956156 
L 168.270979 185.607826 
L 172.640609 190.978645 
L 177.01024 196.08257 
L 182.836413 202.495461 
L 188.662587 208.487007 
L 194.488761 214.08489 
L 200.314935 219.314976 
L 206.141108 224.20143 
L 211.967282 228.766829 
L 217.793456 233.032268 
L 223.61963 237.017455 
L 229.445803 240.740804 
L 235.271977 244.219517 
L 241.098151 247.469669 
L 246.924324 250.506276 
L 254.207042 254.023024 
L 261.489759 257.253358 
L 268.772476 260.220605 
L 276.055193 262.946191 
L 283.33791 265.449797 
L 290.620627 267.749503 
L 299.359888 270.263287 
L 308.099149 272.533441 
L 316.838409 274.583577 
L 327.034213 276.725656 
L 337.230017 278.627541 
L 347.425821 280.316165 
L 359.078169 282.015436 
L 370.730516 283.498748 
L 383.839407 284.94337 
L 398.404841 286.309566 
L 410.057189 287.247141 
L 410.057189 287.247141 
" clip-path="url(#p647fa38d46)" style="fill: none; stroke: #ff6d00; stroke-opacity: 0.95; stroke-width: 2; stroke-linecap: square"/>
   </g>
   <g id="patch_3">
    <path d="M 61.652 293.686875 
L 61.652 15.84 
" style="fill: none; stroke: #000000; stroke-width: 1.5; stroke-linejoin: miter; stroke-linecap: square"/>
   </g>
   <g id="patch_4">
    <path d="M 410.057189 293.686875 
L 410.057189 15.84 
" style="fill: none; stroke: #000000; stroke-width: 1.5; stroke-linejoin: miter; stroke-linecap: square"/>
   </g>
   <g id="patch_5">
    <path d="M 61.652 293.686875 
L 410.057189 293.686875 
" style="fill: none; stroke: #000000; stroke-width: 1.5; stroke-linejoin: miter; stroke-linecap: square"/>
   </g>
   <g id="patch_6">
    <path d="M 61.652 15.84 
L 410.057189 15.84 
" style="fill: none; stroke: #000000; stroke-width: 1.5; stroke-linejoin: miter; stroke-linecap: square"/>
   </g>
   <g id="PathCollection_1">
    <defs>
     <path id="md4ed11640c" d="M 0 3.391165 
C 0.899347 3.391165 1.761981 3.03385 2.397916 2.397916 
C 3.03385 1.761981 3.391165 0.899347 3.391165 0 
C 3.391165 -0.899347 3.03385 -1.761981 2.397916 -2.397916 
C 1.761981 -3.03385 0.899347 -3.391165 0 -3.391165 
C -0.899347 -3.391165 -1.761981 -3.03385 -2.397916 -2.397916 
C -3.03385 -1.761981 -3.391165 -0.899347 -3.391165 0 
C -3.391165 0.899347 -3.03385 1.761981 -2.397916 2.397916 
C -1.761981 3.03385 -0.899347 3.391165 0 3.391165 
z
" style="stroke: #000000; stroke-opacity: 0.95; stroke-width: 0.35"/>
    </defs>
    <g clip-path="url(#p647fa38d46)">
     <use xlink:href="#md4ed11640c" x="211.118117" y="127.785546" style="fill: #4285f4; fill-opacity: 0.95; stroke: #000000; stroke-opacity: 0.95; stroke-width: 0.35"/>
    </g>
   </g>
   <g id="PathCollection_2">
    <g clip-path="url(#p647fa38d46)">
     <use xlink:href="#md4ed11640c" x="148.753297" y="127.785546" style="fill: #4285f4; fill-opacity: 0.95; stroke: #000000; stroke-opacity: 0.95; stroke-width: 0.35"/>
     <use xlink:href="#md4ed11640c" x="235.854594" y="127.785546" style="fill: #4285f4; fill-opacity: 0.95; stroke: #000000; stroke-opacity: 0.95; stroke-width: 0.35"/>
     <use xlink:href="#md4ed11640c" x="262.074698" y="127.785546" style="fill: #4285f4; fill-opacity: 0.95; stroke: #000000; stroke-opacity: 0.95; stroke-width: 0.35"/>
     <use xlink:href="#md4ed11640c" x="270.515685" y="127.785546" style="fill: #4285f4; fill-opacity: 0.95; stroke: #000000; stroke-opacity: 0.95; stroke-width: 0.35"/>
     <use xlink:href="#md4ed11640c" x="277.412475" y="127.785546" style="fill: #4285f4; fill-opacity: 0.95; stroke: #000000; stroke-opacity: 0.95; stroke-width: 0.35"/>
    </g>
   </g>
   <g id="PathCollection_3">
    <defs>
     <path id="me78b4ae7c9" d="M 0 3.391165 
C 0.899347 3.391165 1.761981 3.03385 2.397916 2.397916 
C 3.03385 1.761981 3.391165 0.899347 3.391165 0 
C 3.391165 -0.899347 3.03385 -1.761981 2.397916 -2.397916 
C 1.761981 -3.03385 0.899347 -3.391165 0 -3.391165 
C -0.899347 -3.391165 -1.761981 -3.03385 -2.397916 -2.397916 
C -3.03385 -1.761981 -3.391165 -0.899347 -3.391165 0 
C -3.391165 0.899347 -3.03385 1.761981 -2.397916 2.397916 
C -1.761981 3.03385 -0.899347 3.391165 0 3.391165 
z
" style="stroke: #000000; stroke-opacity: 0.95; stroke-width: 0.35"/>
    </defs>
    <g clip-path="url(#p647fa38d46)">
     <use xlink:href="#me78b4ae7c9" x="314.514904" y="259.176199" style="fill: #ea4335; fill-opacity: 0.95; stroke: #000000; stroke-opacity: 0.95; stroke-width: 0.35"/>
     <use xlink:href="#me78b4ae7c9" x="322.955892" y="260.390243" style="fill: #ea4335; fill-opacity: 0.95; stroke: #000000; stroke-opacity: 0.95; stroke-width: 0.35"/>
     <use xlink:href="#me78b4ae7c9" x="329.852681" y="261.35698" style="fill: #ea4335; fill-opacity: 0.95; stroke: #000000; stroke-opacity: 0.95; stroke-width: 0.35"/>
     <use xlink:href="#me78b4ae7c9" x="335.683833" y="262.248993" style="fill: #ea4335; fill-opacity: 0.95; stroke: #000000; stroke-opacity: 0.95; stroke-width: 0.35"/>
     <use xlink:href="#me78b4ae7c9" x="340.735007" y="263.037144" style="fill: #ea4335; fill-opacity: 0.95; stroke: #000000; stroke-opacity: 0.95; stroke-width: 0.35"/>
     <use xlink:href="#me78b4ae7c9" x="345.190458" y="263.71396" style="fill: #ea4335; fill-opacity: 0.95; stroke: #000000; stroke-opacity: 0.95; stroke-width: 0.35"/>
     <use xlink:href="#me78b4ae7c9" x="349.175995" y="264.296716" style="fill: #ea4335; fill-opacity: 0.95; stroke: #000000; stroke-opacity: 0.95; stroke-width: 0.35"/>
     <use xlink:href="#me78b4ae7c9" x="352.781351" y="264.851093" style="fill: #ea4335; fill-opacity: 0.95; stroke: #000000; stroke-opacity: 0.95; stroke-width: 0.35"/>
     <use xlink:href="#me78b4ae7c9" x="356.072784" y="265.382193" style="fill: #ea4335; fill-opacity: 0.95; stroke: #000000; stroke-opacity: 0.95; stroke-width: 0.35"/>
     <use xlink:href="#me78b4ae7c9" x="359.100608" y="265.792202" style="fill: #ea4335; fill-opacity: 0.95; stroke: #000000; stroke-opacity: 0.95; stroke-width: 0.35"/>
    </g>
   </g>
   <g id="PathCollection_4">
    <defs>
     <path id="m260c19e1dd" d="M 0 3.391165 
C 0.899347 3.391165 1.761981 3.03385 2.397916 2.397916 
C 3.03385 1.761981 3.391165 0.899347 3.391165 0 
C 3.391165 -0.899347 3.03385 -1.761981 2.397916 -2.397916 
C 1.761981 -3.03385 0.899347 -3.391165 0 -3.391165 
C -0.899347 -3.391165 -1.761981 -3.03385 -2.397916 -2.397916 
C -3.03385 -1.761981 -3.391165 -0.899347 -3.391165 0 
C -3.391165 0.899347 -3.03385 1.761981 -2.397916 2.397916 
C -1.761981 3.03385 -0.899347 3.391165 0 3.391165 
z
" style="stroke: #000000; stroke-opacity: 0.95; stroke-width: 0.35"/>
    </defs>
    <g clip-path="url(#p647fa38d46)">
     <use xlink:href="#m260c19e1dd" x="148.753297" y="109.960442" style="fill: #fbbc05; fill-opacity: 0.95; stroke: #000000; stroke-opacity: 0.95; stroke-width: 0.35"/>
     <use xlink:href="#m260c19e1dd" x="155.650086" y="121.614641" style="fill: #fbbc05; fill-opacity: 0.95; stroke: #000000; stroke-opacity: 0.95; stroke-width: 0.35"/>
     <use xlink:href="#m260c19e1dd" x="161.481239" y="129.755127" style="fill: #fbbc05; fill-opacity: 0.95; stroke: #000000; stroke-opacity: 0.95; stroke-width: 0.35"/>
     <use xlink:href="#m260c19e1dd" x="166.532412" y="138.321665" style="fill: #fbbc05; fill-opacity: 0.95; stroke: #000000; stroke-opacity: 0.95; stroke-width: 0.35"/>
     <use xlink:href="#m260c19e1dd" x="170.987864" y="146.0047" style="fill: #fbbc05; fill-opacity: 0.95; stroke: #000000; stroke-opacity: 0.95; stroke-width: 0.35"/>
     <use xlink:href="#m260c19e1dd" x="174.9734" y="150.533694" style="fill: #fbbc05; fill-opacity: 0.95; stroke: #000000; stroke-opacity: 0.95; stroke-width: 0.35"/>
     <use xlink:href="#m260c19e1dd" x="181.87019" y="159.669917" style="fill: #fbbc05; fill-opacity: 0.95; stroke: #000000; stroke-opacity: 0.95; stroke-width: 0.35"/>
     <use xlink:href="#m260c19e1dd" x="187.701342" y="168.164775" style="fill: #fbbc05; fill-opacity: 0.95; stroke: #000000; stroke-opacity: 0.95; stroke-width: 0.35"/>
     <use xlink:href="#m260c19e1dd" x="192.752516" y="174.191745" style="fill: #fbbc05; fill-opacity: 0.95; stroke: #000000; stroke-opacity: 0.95; stroke-width: 0.35"/>
     <use xlink:href="#m260c19e1dd" x="197.207967" y="178.360938" style="fill: #fbbc05; fill-opacity: 0.95; stroke: #000000; stroke-opacity: 0.95; stroke-width: 0.35"/>
     <use xlink:href="#m260c19e1dd" x="201.193503" y="182.979791" style="fill: #fbbc05; fill-opacity: 0.95; stroke: #000000; stroke-opacity: 0.95; stroke-width: 0.35"/>
    </g>
   </g>
   <g id="PathCollection_5">
    <defs>
     <path id="m230d7c0cc5" d="M 0 3.391165 
C 0.899347 3.391165 1.761981 3.03385 2.397916 2.397916 
C 3.03385 1.761981 3.391165 0.899347 3.391165 0 
C 3.391165 -0.899347 3.03385 -1.761981 2.397916 -2.397916 
C 1.761981 -3.03385 0.899347 -3.391165 0 -3.391165 
C -0.899347 -3.391165 -1.761981 -3.03385 -2.397916 -2.397916 
C -3.03385 -1.761981 -3.391165 -0.899347 -3.391165 0 
C -3.391165 0.899347 -3.03385 1.761981 -2.397916 2.397916 
C -1.761981 3.03385 -0.899347 3.391165 0 3.391165 
z
" style="stroke: #000000; stroke-opacity: 0.95; stroke-width: 0.35"/>
    </defs>
    <g clip-path="url(#p647fa38d46)">
     <use xlink:href="#m230d7c0cc5" x="288.294801" y="259.772043" style="fill: #34a853; fill-opacity: 0.95; stroke: #000000; stroke-opacity: 0.95; stroke-width: 0.35"/>
     <use xlink:href="#m230d7c0cc5" x="309.46373" y="265.054441" style="fill: #34a853; fill-opacity: 0.95; stroke: #000000; stroke-opacity: 0.95; stroke-width: 0.35"/>
     <use xlink:href="#m230d7c0cc5" x="322.955892" y="267.92851" style="fill: #34a853; fill-opacity: 0.95; stroke: #000000; stroke-opacity: 0.95; stroke-width: 0.35"/>
     <use xlink:href="#m230d7c0cc5" x="332.880505" y="269.778311" style="fill: #34a853; fill-opacity: 0.95; stroke: #000000; stroke-opacity: 0.95; stroke-width: 0.35"/>
     <use xlink:href="#m230d7c0cc5" x="340.735007" y="271.086332" style="fill: #34a853; fill-opacity: 0.95; stroke: #000000; stroke-opacity: 0.95; stroke-width: 0.35"/>
     <use xlink:href="#m230d7c0cc5" x="347.235692" y="272.022075" style="fill: #34a853; fill-opacity: 0.95; stroke: #000000; stroke-opacity: 0.95; stroke-width: 0.35"/>
     <use xlink:href="#m230d7c0cc5" x="352.781351" y="272.834216" style="fill: #34a853; fill-opacity: 0.95; stroke: #000000; stroke-opacity: 0.95; stroke-width: 0.35"/>
     <use xlink:href="#m230d7c0cc5" x="357.616983" y="273.599436" style="fill: #34a853; fill-opacity: 0.95; stroke: #000000; stroke-opacity: 0.95; stroke-width: 0.35"/>
     <use xlink:href="#m230d7c0cc5" x="361.903936" y="273.976815" style="fill: #34a853; fill-opacity: 0.95; stroke: #000000; stroke-opacity: 0.95; stroke-width: 0.35"/>
     <use xlink:href="#m230d7c0cc5" x="365.754133" y="274.58261" style="fill: #34a853; fill-opacity: 0.95; stroke: #000000; stroke-opacity: 0.95; stroke-width: 0.35"/>
    </g>
   </g>
   <g id="PathCollection_6">
    <defs>
     <path id="m6c080c6efc" d="M 0 3.391165 
C 0.899347 3.391165 1.761981 3.03385 2.397916 2.397916 
C 3.03385 1.761981 3.391165 0.899347 3.391165 0 
C 3.391165 -0.899347 3.03385 -1.761981 2.397916 -2.397916 
C 1.761981 -3.03385 0.899347 -3.391165 0 -3.391165 
C -0.899347 -3.391165 -1.761981 -3.03385 -2.397916 -2.397916 
C -3.03385 -1.761981 -3.391165 -0.899347 -3.391165 0 
C -3.391165 0.899347 -3.03385 1.761981 -2.397916 2.397916 
C -1.761981 3.03385 -0.899347 3.391165 0 3.391165 
z
" style="stroke: #000000; stroke-opacity: 0.95; stroke-width: 0.35"/>
    </defs>
    <g clip-path="url(#p647fa38d46)">
     <use xlink:href="#m6c080c6efc" x="140.312309" y="151.871337" style="fill: #ff6d00; fill-opacity: 0.95; stroke: #000000; stroke-opacity: 0.95; stroke-width: 0.35"/>
     <use xlink:href="#m6c080c6efc" x="155.650086" y="161.58006" style="fill: #ff6d00; fill-opacity: 0.95; stroke: #000000; stroke-opacity: 0.95; stroke-width: 0.35"/>
     <use xlink:href="#m6c080c6efc" x="166.532412" y="171.657751" style="fill: #ff6d00; fill-opacity: 0.95; stroke: #000000; stroke-opacity: 0.95; stroke-width: 0.35"/>
     <use xlink:href="#m6c080c6efc" x="174.9734" y="203.263557" style="fill: #ff6d00; fill-opacity: 0.95; stroke: #000000; stroke-opacity: 0.95; stroke-width: 0.35"/>
    </g>
   </g>
   <g id="legend_1">
    <g id="line2d_49">
     <path d="M 268.603439 31.029375 
L 280.603439 31.029375 
L 292.603439 31.029375 
" style="fill: none; stroke: #4285f4; stroke-opacity: 0.95; stroke-width: 2.2; stroke-linecap: square"/>
    </g>
    <g id="text_14">
     <!-- Silicone -->
     <g transform="translate(302.203439 35.229375) scale(0.12 -0.12)">
      <defs>
       <path id="ArialMT-6c" d="M 409 0 
L 409 4581 
L 972 4581 
L 972 0 
L 409 0 
z
" transform="scale(0.015625)"/>
      </defs>
      <use xlink:href="#ArialMT-53"/>
      <use xlink:href="#ArialMT-69" transform="translate(66.699219 0)"/>
      <use xlink:href="#ArialMT-6c" transform="translate(88.916016 0)"/>
      <use xlink:href="#ArialMT-69" transform="translate(111.132812 0)"/>
      <use xlink:href="#ArialMT-63" transform="translate(133.349609 0)"/>
      <use xlink:href="#ArialMT-6f" transform="translate(183.349609 0)"/>
      <use xlink:href="#ArialMT-6e" transform="translate(238.964844 0)"/>
      <use xlink:href="#ArialMT-65" transform="translate(294.580078 0)"/>
     </g>
    </g>
    <g id="line2d_50">
     <path d="M 268.603439 48.15 
L 280.603439 48.15 
L 292.603439 48.15 
" style="fill: none; stroke: #ea4335; stroke-opacity: 0.95; stroke-width: 2; stroke-linecap: square"/>
    </g>
    <g id="text_15">
     <!-- PEG (n=0.82) -->
     <g transform="translate(302.203439 52.35) scale(0.12 -0.12)">
      <defs>
       <path id="ArialMT-45" d="M 506 0 
L 506 4581 
L 3819 4581 
L 3819 4041 
L 1113 4041 
L 1113 2638 
L 3647 2638 
L 3647 2100 
L 1113 2100 
L 1113 541 
L 3925 541 
L 3925 0 
L 506 0 
z
" transform="scale(0.015625)"/>
       <path id="ArialMT-47" d="M 2638 1797 
L 2638 2334 
L 4578 2338 
L 4578 638 
Q 4131 281 3656 101 
Q 3181 -78 2681 -78 
Q 2006 -78 1454 211 
Q 903 500 622 1047 
Q 341 1594 341 2269 
Q 341 2938 620 3517 
Q 900 4097 1425 4378 
Q 1950 4659 2634 4659 
Q 3131 4659 3532 4498 
Q 3934 4338 4162 4050 
Q 4391 3763 4509 3300 
L 3963 3150 
Q 3859 3500 3706 3700 
Q 3553 3900 3268 4020 
Q 2984 4141 2638 4141 
Q 2222 4141 1919 4014 
Q 1616 3888 1430 3681 
Q 1244 3475 1141 3228 
Q 966 2803 966 2306 
Q 966 1694 1177 1281 
Q 1388 869 1791 669 
Q 2194 469 2647 469 
Q 3041 469 3416 620 
Q 3791 772 3984 944 
L 3984 1797 
L 2638 1797 
z
" transform="scale(0.015625)"/>
       <path id="ArialMT-3d" d="M 3381 2694 
L 356 2694 
L 356 3219 
L 3381 3219 
L 3381 2694 
z
M 3381 1303 
L 356 1303 
L 356 1828 
L 3381 1828 
L 3381 1303 
z
" transform="scale(0.015625)"/>
       <path id="ArialMT-2e" d="M 581 0 
L 581 641 
L 1222 641 
L 1222 0 
L 581 0 
z
" transform="scale(0.015625)"/>
       <path id="ArialMT-38" d="M 1131 2484 
Q 781 2613 612 2850 
Q 444 3088 444 3419 
Q 444 3919 803 4259 
Q 1163 4600 1759 4600 
Q 2359 4600 2725 4251 
Q 3091 3903 3091 3403 
Q 3091 3084 2923 2848 
Q 2756 2613 2416 2484 
Q 2838 2347 3058 2040 
Q 3278 1734 3278 1309 
Q 3278 722 2862 322 
Q 2447 -78 1769 -78 
Q 1091 -78 675 323 
Q 259 725 259 1325 
Q 259 1772 486 2073 
Q 713 2375 1131 2484 
z
M 1019 3438 
Q 1019 3113 1228 2906 
Q 1438 2700 1772 2700 
Q 2097 2700 2305 2904 
Q 2513 3109 2513 3406 
Q 2513 3716 2298 3927 
Q 2084 4138 1766 4138 
Q 1444 4138 1231 3931 
Q 1019 3725 1019 3438 
z
M 838 1322 
Q 838 1081 952 856 
Q 1066 631 1291 507 
Q 1516 384 1775 384 
Q 2178 384 2440 643 
Q 2703 903 2703 1303 
Q 2703 1709 2433 1975 
Q 2163 2241 1756 2241 
Q 1359 2241 1098 1978 
Q 838 1716 838 1322 
z
" transform="scale(0.015625)"/>
      </defs>
      <use xlink:href="#ArialMT-50"/>
      <use xlink:href="#ArialMT-45" transform="translate(66.699219 0)"/>
      <use xlink:href="#ArialMT-47" transform="translate(133.398438 0)"/>
      <use xlink:href="#ArialMT-20" transform="translate(211.181641 0)"/>
      <use xlink:href="#ArialMT-28" transform="translate(238.964844 0)"/>
      <use xlink:href="#ArialMT-6e" transform="translate(272.265625 0)"/>
      <use xlink:href="#ArialMT-3d" transform="translate(327.880859 0)"/>
      <use xlink:href="#ArialMT-30" transform="translate(386.279297 0)"/>
      <use xlink:href="#ArialMT-2e" transform="translate(441.894531 0)"/>
      <use xlink:href="#ArialMT-38" transform="translate(469.677734 0)"/>
      <use xlink:href="#ArialMT-32" transform="translate(525.292969 0)"/>
      <use xlink:href="#ArialMT-29" transform="translate(580.908203 0)"/>
     </g>
    </g>
    <g id="line2d_51">
     <path d="M 268.603439 65.41125 
L 280.603439 65.41125 
L 292.603439 65.41125 
" style="fill: none; stroke: #fbbc05; stroke-opacity: 0.95; stroke-width: 2; stroke-linecap: square"/>
    </g>
    <g id="text_16">
     <!-- Sepineo (n=0.63) -->
     <g transform="translate(302.203439 69.61125) scale(0.12 -0.12)">
      <defs>
       <path id="ArialMT-36" d="M 3184 3459 
L 2625 3416 
Q 2550 3747 2413 3897 
Q 2184 4138 1850 4138 
Q 1581 4138 1378 3988 
Q 1113 3794 959 3422 
Q 806 3050 800 2363 
Q 1003 2672 1297 2822 
Q 1591 2972 1913 2972 
Q 2475 2972 2870 2558 
Q 3266 2144 3266 1488 
Q 3266 1056 3080 686 
Q 2894 316 2569 119 
Q 2244 -78 1831 -78 
Q 1128 -78 684 439 
Q 241 956 241 2144 
Q 241 3472 731 4075 
Q 1159 4600 1884 4600 
Q 2425 4600 2770 4297 
Q 3116 3994 3184 3459 
z
M 888 1484 
Q 888 1194 1011 928 
Q 1134 663 1356 523 
Q 1578 384 1822 384 
Q 2178 384 2434 671 
Q 2691 959 2691 1453 
Q 2691 1928 2437 2201 
Q 2184 2475 1800 2475 
Q 1419 2475 1153 2201 
Q 888 1928 888 1484 
z
" transform="scale(0.015625)"/>
      </defs>
      <use xlink:href="#ArialMT-53"/>
      <use xlink:href="#ArialMT-65" transform="translate(66.699219 0)"/>
      <use xlink:href="#ArialMT-70" transform="translate(122.314453 0)"/>
      <use xlink:href="#ArialMT-69" transform="translate(177.929688 0)"/>
      <use xlink:href="#ArialMT-6e" transform="translate(200.146484 0)"/>
      <use xlink:href="#ArialMT-65" transform="translate(255.761719 0)"/>
      <use xlink:href="#ArialMT-6f" transform="translate(311.376953 0)"/>
      <use xlink:href="#ArialMT-20" transform="translate(366.992188 0)"/>
      <use xlink:href="#ArialMT-28" transform="translate(394.775391 0)"/>
      <use xlink:href="#ArialMT-6e" transform="translate(428.076172 0)"/>
      <use xlink:href="#ArialMT-3d" transform="translate(483.691406 0)"/>
      <use xlink:href="#ArialMT-30" transform="translate(542.089844 0)"/>
      <use xlink:href="#ArialMT-2e" transform="translate(597.705078 0)"/>
      <use xlink:href="#ArialMT-36" transform="translate(625.488281 0)"/>
      <use xlink:href="#ArialMT-33" transform="translate(681.103516 0)"/>
      <use xlink:href="#ArialMT-29" transform="translate(736.71875 0)"/>
     </g>
    </g>
    <g id="line2d_52">
     <path d="M 268.603439 82.6725 
L 280.603439 82.6725 
L 292.603439 82.6725 
" style="fill: none; stroke: #34a853; stroke-opacity: 0.95; stroke-width: 2; stroke-linecap: square"/>
    </g>
    <g id="text_17">
     <!-- Solagum (n=0.72) -->
     <g transform="translate(302.203439 86.8725) scale(0.12 -0.12)">
      <defs>
       <path id="ArialMT-67" d="M 319 -275 
L 866 -356 
Q 900 -609 1056 -725 
Q 1266 -881 1628 -881 
Q 2019 -881 2231 -725 
Q 2444 -569 2519 -288 
Q 2563 -116 2559 434 
Q 2191 0 1641 0 
Q 956 0 581 494 
Q 206 988 206 1678 
Q 206 2153 378 2554 
Q 550 2956 876 3175 
Q 1203 3394 1644 3394 
Q 2231 3394 2613 2919 
L 2613 3319 
L 3131 3319 
L 3131 450 
Q 3131 -325 2973 -648 
Q 2816 -972 2473 -1159 
Q 2131 -1347 1631 -1347 
Q 1038 -1347 672 -1080 
Q 306 -813 319 -275 
z
M 784 1719 
Q 784 1066 1043 766 
Q 1303 466 1694 466 
Q 2081 466 2343 764 
Q 2606 1063 2606 1700 
Q 2606 2309 2336 2618 
Q 2066 2928 1684 2928 
Q 1309 2928 1046 2623 
Q 784 2319 784 1719 
z
" transform="scale(0.015625)"/>
       <path id="ArialMT-75" d="M 2597 0 
L 2597 488 
Q 2209 -75 1544 -75 
Q 1250 -75 995 37 
Q 741 150 617 320 
Q 494 491 444 738 
Q 409 903 409 1263 
L 409 3319 
L 972 3319 
L 972 1478 
Q 972 1038 1006 884 
Q 1059 663 1231 536 
Q 1403 409 1656 409 
Q 1909 409 2131 539 
Q 2353 669 2445 892 
Q 2538 1116 2538 1541 
L 2538 3319 
L 3100 3319 
L 3100 0 
L 2597 0 
z
" transform="scale(0.015625)"/>
       <path id="ArialMT-6d" d="M 422 0 
L 422 3319 
L 925 3319 
L 925 2853 
Q 1081 3097 1340 3245 
Q 1600 3394 1931 3394 
Q 2300 3394 2536 3241 
Q 2772 3088 2869 2813 
Q 3263 3394 3894 3394 
Q 4388 3394 4653 3120 
Q 4919 2847 4919 2278 
L 4919 0 
L 4359 0 
L 4359 2091 
Q 4359 2428 4304 2576 
Q 4250 2725 4106 2815 
Q 3963 2906 3769 2906 
Q 3419 2906 3187 2673 
Q 2956 2441 2956 1928 
L 2956 0 
L 2394 0 
L 2394 2156 
Q 2394 2531 2256 2718 
Q 2119 2906 1806 2906 
Q 1569 2906 1367 2781 
Q 1166 2656 1075 2415 
Q 984 2175 984 1722 
L 984 0 
L 422 0 
z
" transform="scale(0.015625)"/>
       <path id="ArialMT-37" d="M 303 3981 
L 303 4522 
L 3269 4522 
L 3269 4084 
Q 2831 3619 2401 2847 
Q 1972 2075 1738 1259 
Q 1569 684 1522 0 
L 944 0 
Q 953 541 1156 1306 
Q 1359 2072 1739 2783 
Q 2119 3494 2547 3981 
L 303 3981 
z
" transform="scale(0.015625)"/>
      </defs>
      <use xlink:href="#ArialMT-53"/>
      <use xlink:href="#ArialMT-6f" transform="translate(66.699219 0)"/>
      <use xlink:href="#ArialMT-6c" transform="translate(122.314453 0)"/>
      <use xlink:href="#ArialMT-61" transform="translate(144.53125 0)"/>
      <use xlink:href="#ArialMT-67" transform="translate(200.146484 0)"/>
      <use xlink:href="#ArialMT-75" transform="translate(255.761719 0)"/>
      <use xlink:href="#ArialMT-6d" transform="translate(311.376953 0)"/>
      <use xlink:href="#ArialMT-20" transform="translate(394.677734 0)"/>
      <use xlink:href="#ArialMT-28" transform="translate(422.460938 0)"/>
      <use xlink:href="#ArialMT-6e" transform="translate(455.761719 0)"/>
      <use xlink:href="#ArialMT-3d" transform="translate(511.376953 0)"/>
      <use xlink:href="#ArialMT-30" transform="translate(569.775391 0)"/>
      <use xlink:href="#ArialMT-2e" transform="translate(625.390625 0)"/>
      <use xlink:href="#ArialMT-37" transform="translate(653.173828 0)"/>
      <use xlink:href="#ArialMT-32" transform="translate(708.789062 0)"/>
      <use xlink:href="#ArialMT-29" transform="translate(764.404297 0)"/>
     </g>
    </g>
    <g id="line2d_53">
     <path d="M 268.603439 99.93375 
L 280.603439 99.93375 
L 292.603439 99.93375 
" style="fill: none; stroke: #ff6d00; stroke-opacity: 0.95; stroke-width: 2; stroke-linecap: square"/>
    </g>
    <g id="text_18">
     <!-- Carbopol (n=0.56) -->
     <g transform="translate(302.203439 104.13375) scale(0.12 -0.12)">
      <defs>
       <path id="ArialMT-43" d="M 3763 1606 
L 4369 1453 
Q 4178 706 3683 314 
Q 3188 -78 2472 -78 
Q 1731 -78 1267 223 
Q 803 525 561 1097 
Q 319 1669 319 2325 
Q 319 3041 592 3573 
Q 866 4106 1370 4382 
Q 1875 4659 2481 4659 
Q 3169 4659 3637 4309 
Q 4106 3959 4291 3325 
L 3694 3184 
Q 3534 3684 3231 3912 
Q 2928 4141 2469 4141 
Q 1941 4141 1586 3887 
Q 1231 3634 1087 3207 
Q 944 2781 944 2328 
Q 944 1744 1114 1308 
Q 1284 872 1643 656 
Q 2003 441 2422 441 
Q 2931 441 3284 734 
Q 3638 1028 3763 1606 
z
" transform="scale(0.015625)"/>
       <path id="ArialMT-62" d="M 941 0 
L 419 0 
L 419 4581 
L 981 4581 
L 981 2947 
Q 1338 3394 1891 3394 
Q 2197 3394 2470 3270 
Q 2744 3147 2920 2923 
Q 3097 2700 3197 2384 
Q 3297 2069 3297 1709 
Q 3297 856 2875 390 
Q 2453 -75 1863 -75 
Q 1275 -75 941 416 
L 941 0 
z
M 934 1684 
Q 934 1088 1097 822 
Q 1363 388 1816 388 
Q 2184 388 2453 708 
Q 2722 1028 2722 1663 
Q 2722 2313 2464 2622 
Q 2206 2931 1841 2931 
Q 1472 2931 1203 2611 
Q 934 2291 934 1684 
z
" transform="scale(0.015625)"/>
      </defs>
      <use xlink:href="#ArialMT-43"/>
      <use xlink:href="#ArialMT-61" transform="translate(72.216797 0)"/>
      <use xlink:href="#ArialMT-72" transform="translate(127.832031 0)"/>
      <use xlink:href="#ArialMT-62" transform="translate(161.132812 0)"/>
      <use xlink:href="#ArialMT-6f" transform="translate(216.748047 0)"/>
      <use xlink:href="#ArialMT-70" transform="translate(272.363281 0)"/>
      <use xlink:href="#ArialMT-6f" transform="translate(327.978516 0)"/>
      <use xlink:href="#ArialMT-6c" transform="translate(383.59375 0)"/>
      <use xlink:href="#ArialMT-20" transform="translate(405.810547 0)"/>
      <use xlink:href="#ArialMT-28" transform="translate(433.59375 0)"/>
      <use xlink:href="#ArialMT-6e" transform="translate(466.894531 0)"/>
      <use xlink:href="#ArialMT-3d" transform="translate(522.509766 0)"/>
      <use xlink:href="#ArialMT-30" transform="translate(580.908203 0)"/>
      <use xlink:href="#ArialMT-2e" transform="translate(636.523438 0)"/>
      <use xlink:href="#ArialMT-35" transform="translate(664.306641 0)"/>
      <use xlink:href="#ArialMT-36" transform="translate(719.921875 0)"/>
      <use xlink:href="#ArialMT-29" transform="translate(775.537109 0)"/>
     </g>
    </g>
   </g>
  </g>
 </g>
 <defs>
  <clipPath id="p647fa38d46">
   <rect x="61.652" y="15.84" width="348.405189" height="277.846875"/>
  </clipPath>
 </defs>
</svg>
