<?xml version="1.0" encoding="utf-8" standalone="no"?>
<!DOCTYPE svg PUBLIC "-//W3C//DTD SVG 1.1//EN"
  "http://www.w3.org/Graphics/SVG/1.1/DTD/svg11.dtd">
<svg xmlns:xlink="http://www.w3.org/1999/xlink" width="852.332045pt" height="312.203651pt" viewBox="0 0 852.332045 312.203651" xmlns="http://www.w3.org/2000/svg" version="1.1">
 <metadata>
  <rdf:RDF xmlns:dc="http://purl.org/dc/elements/1.1/" xmlns:cc="http://creativecommons.org/ns#" xmlns:rdf="http://www.w3.org/1999/02/22-rdf-syntax-ns#">
   <cc:Work>
    <dc:type rdf:resource="http://purl.org/dc/dcmitype/StillImage"/>
    <dc:date>2026-05-30T13:28:05.468478</dc:date>
    <dc:format>image/svg+xml</dc:format>
    <dc:creator>
     <cc:Agent>
      <dc:title>Matplotlib v3.10.0, https://matplotlib.org/</dc:title>
     </cc:Agent>
    </dc:creator>
   </cc:Work>
  </rdf:RDF>
 </metadata>
 <defs>
  <style type="text/css">*{stroke-linejoin: round; stroke-linecap: butt}</style>
 </defs>
 <g id="figure_1">
  <g id="patch_1">
   <path d="M 0 312.203651 
L 852.332045 312.203651 
L 852.332045 0 
L 0 0 
z
" style="fill: #ffffff"/>
  </g>
  <g id="axes_1">
   <g id="patch_2">
    <path d="M 48.8975 270.776151 
L 413.179432 270.776151 
L 413.179432 23.077969 
L 48.8975 23.077969 
z
" style="fill: #ffffff"/>
   </g>
   <g id="matplotlib.axis_1">
    <g id="xtick_1">
     <g id="line2d_1">
      <path d="M 55.375774 270.776151 
L 55.375774 23.077969 
" clip-path="url(#p85758f83d9)" style="fill: none; stroke: #b0b0b0; stroke-opacity: 0.3; stroke-width: 0.8; stroke-linecap: square"/>
     </g>
     <g id="line2d_2">
      <defs>
       <path id="m79cdca71a3" d="M 0 0 
L 0 3.5 
" style="stroke: #000000; stroke-width: 0.8"/>
      </defs>
      <g>
       <use xlink:href="#m79cdca71a3" x="55.375774" y="270.776151" style="stroke: #000000; stroke-width: 0.8"/>
      </g>
     </g>
     <g id="text_1">
      <!-- −4.0 -->
      <g transform="translate(40.806086 286.894276) scale(0.12 -0.12)">
       <defs>
        <path id="DejaVuSans-2212" d="M 678 2272 
L 4684 2272 
L 4684 1741 
L 678 1741 
L 678 2272 
z
" transform="scale(0.015625)"/>
        <path id="DejaVuSans-34" d="M 2419 4116 
L 825 1625 
L 2419 1625 
L 2419 4116 
z
M 2253 4666 
L 3047 4666 
L 3047 1625 
L 3713 1625 
L 3713 1100 
L 3047 1100 
L 3047 0 
L 2419 0 
L 2419 1100 
L 313 1100 
L 313 1709 
L 2253 4666 
z
" transform="scale(0.015625)"/>
        <path id="DejaVuSans-2e" d="M 684 794 
L 1344 794 
L 1344 0 
L 684 0 
L 684 794 
z
" transform="scale(0.015625)"/>
        <path id="DejaVuSans-30" d="M 2034 4250 
Q 1547 4250 1301 3770 
Q 1056 3291 1056 2328 
Q 1056 1369 1301 889 
Q 1547 409 2034 409 
Q 2525 409 2770 889 
Q 3016 1369 3016 2328 
Q 3016 3291 2770 3770 
Q 2525 4250 2034 4250 
z
M 2034 4750 
Q 2819 4750 3233 4129 
Q 3647 3509 3647 2328 
Q 3647 1150 3233 529 
Q 2819 -91 2034 -91 
Q 1250 -91 836 529 
Q 422 1150 422 2328 
Q 422 3509 836 4129 
Q 1250 4750 2034 4750 
z
" transform="scale(0.015625)"/>
       </defs>
       <use xlink:href="#DejaVuSans-2212"/>
       <use xlink:href="#DejaVuSans-34" transform="translate(83.789062 0)"/>
       <use xlink:href="#DejaVuSans-2e" transform="translate(147.412109 0)"/>
       <use xlink:href="#DejaVuSans-30" transform="translate(179.199219 0)"/>
      </g>
     </g>
    </g>
    <g id="xtick_2">
     <g id="line2d_3">
      <path d="M 112.663455 270.776151 
L 112.663455 23.077969 
" clip-path="url(#p85758f83d9)" style="fill: none; stroke: #b0b0b0; stroke-opacity: 0.3; stroke-width: 0.8; stroke-linecap: square"/>
     </g>
     <g id="line2d_4">
      <g>
       <use xlink:href="#m79cdca71a3" x="112.663455" y="270.776151" style="stroke: #000000; stroke-width: 0.8"/>
      </g>
     </g>
     <g id="text_2">
      <!-- −3.5 -->
      <g transform="translate(98.093767 286.894276) scale(0.12 -0.12)">
       <defs>
        <path id="DejaVuSans-33" d="M 2597 2516 
Q 3050 2419 3304 2112 
Q 3559 1806 3559 1356 
Q 3559 666 3084 287 
Q 2609 -91 1734 -91 
Q 1441 -91 1130 -33 
Q 819 25 488 141 
L 488 750 
Q 750 597 1062 519 
Q 1375 441 1716 441 
Q 2309 441 2620 675 
Q 2931 909 2931 1356 
Q 2931 1769 2642 2001 
Q 2353 2234 1838 2234 
L 1294 2234 
L 1294 2753 
L 1863 2753 
Q 2328 2753 2575 2939 
Q 2822 3125 2822 3475 
Q 2822 3834 2567 4026 
Q 2313 4219 1838 4219 
Q 1578 4219 1281 4162 
Q 984 4106 628 3988 
L 628 4550 
Q 988 4650 1302 4700 
Q 1616 4750 1894 4750 
Q 2613 4750 3031 4423 
Q 3450 4097 3450 3541 
Q 3450 3153 3228 2886 
Q 3006 2619 2597 2516 
z
" transform="scale(0.015625)"/>
        <path id="DejaVuSans-35" d="M 691 4666 
L 3169 4666 
L 3169 4134 
L 1269 4134 
L 1269 2991 
Q 1406 3038 1543 3061 
Q 1681 3084 1819 3084 
Q 2600 3084 3056 2656 
Q 3513 2228 3513 1497 
Q 3513 744 3044 326 
Q 2575 -91 1722 -91 
Q 1428 -91 1123 -41 
Q 819 9 494 109 
L 494 744 
Q 775 591 1075 516 
Q 1375 441 1709 441 
Q 2250 441 2565 725 
Q 2881 1009 2881 1497 
Q 2881 1984 2565 2268 
Q 2250 2553 1709 2553 
Q 1456 2553 1204 2497 
Q 953 2441 691 2322 
L 691 4666 
z
" transform="scale(0.015625)"/>
       </defs>
       <use xlink:href="#DejaVuSans-2212"/>
       <use xlink:href="#DejaVuSans-33" transform="translate(83.789062 0)"/>
       <use xlink:href="#DejaVuSans-2e" transform="translate(147.412109 0)"/>
       <use xlink:href="#DejaVuSans-35" transform="translate(179.199219 0)"/>
      </g>
     </g>
    </g>
    <g id="xtick_3">
     <g id="line2d_5">
      <path d="M 169.951136 270.776151 
L 169.951136 23.077969 
" clip-path="url(#p85758f83d9)" style="fill: none; stroke: #b0b0b0; stroke-opacity: 0.3; stroke-width: 0.8; stroke-linecap: square"/>
     </g>
     <g id="line2d_6">
      <g>
       <use xlink:href="#m79cdca71a3" x="169.951136" y="270.776151" style="stroke: #000000; stroke-width: 0.8"/>
      </g>
     </g>
     <g id="text_3">
      <!-- −3.0 -->
      <g transform="translate(155.381449 286.894276) scale(0.12 -0.12)">
       <use xlink:href="#DejaVuSans-2212"/>
       <use xlink:href="#DejaVuSans-33" transform="translate(83.789062 0)"/>
       <use xlink:href="#DejaVuSans-2e" transform="translate(147.412109 0)"/>
       <use xlink:href="#DejaVuSans-30" transform="translate(179.199219 0)"/>
      </g>
     </g>
    </g>
    <g id="xtick_4">
     <g id="line2d_7">
      <path d="M 227.238818 270.776151 
L 227.238818 23.077969 
" clip-path="url(#p85758f83d9)" style="fill: none; stroke: #b0b0b0; stroke-opacity: 0.3; stroke-width: 0.8; stroke-linecap: square"/>
     </g>
     <g id="line2d_8">
      <g>
       <use xlink:href="#m79cdca71a3" x="227.238818" y="270.776151" style="stroke: #000000; stroke-width: 0.8"/>
      </g>
     </g>
     <g id="text_4">
      <!-- −2.5 -->
      <g transform="translate(212.66913 286.894276) scale(0.12 -0.12)">
       <defs>
        <path id="DejaVuSans-32" d="M 1228 531 
L 3431 531 
L 3431 0 
L 469 0 
L 469 531 
Q 828 903 1448 1529 
Q 2069 2156 2228 2338 
Q 2531 2678 2651 2914 
Q 2772 3150 2772 3378 
Q 2772 3750 2511 3984 
Q 2250 4219 1831 4219 
Q 1534 4219 1204 4116 
Q 875 4013 500 3803 
L 500 4441 
Q 881 4594 1212 4672 
Q 1544 4750 1819 4750 
Q 2544 4750 2975 4387 
Q 3406 4025 3406 3419 
Q 3406 3131 3298 2873 
Q 3191 2616 2906 2266 
Q 2828 2175 2409 1742 
Q 1991 1309 1228 531 
z
" transform="scale(0.015625)"/>
       </defs>
       <use xlink:href="#DejaVuSans-2212"/>
       <use xlink:href="#DejaVuSans-32" transform="translate(83.789062 0)"/>
       <use xlink:href="#DejaVuSans-2e" transform="translate(147.412109 0)"/>
       <use xlink:href="#DejaVuSans-35" transform="translate(179.199219 0)"/>
      </g>
     </g>
    </g>
    <g id="xtick_5">
     <g id="line2d_9">
      <path d="M 284.526499 270.776151 
L 284.526499 23.077969 
" clip-path="url(#p85758f83d9)" style="fill: none; stroke: #b0b0b0; stroke-opacity: 0.3; stroke-width: 0.8; stroke-linecap: square"/>
     </g>
     <g id="line2d_10">
      <g>
       <use xlink:href="#m79cdca71a3" x="284.526499" y="270.776151" style="stroke: #000000; stroke-width: 0.8"/>
      </g>
     </g>
     <g id="text_5">
      <!-- −2.0 -->
      <g transform="translate(269.956811 286.894276) scale(0.12 -0.12)">
       <use xlink:href="#DejaVuSans-2212"/>
       <use xlink:href="#DejaVuSans-32" transform="translate(83.789062 0)"/>
       <use xlink:href="#DejaVuSans-2e" transform="translate(147.412109 0)"/>
       <use xlink:href="#DejaVuSans-30" transform="translate(179.199219 0)"/>
      </g>
     </g>
    </g>
    <g id="xtick_6">
     <g id="line2d_11">
      <path d="M 341.81418 270.776151 
L 341.81418 23.077969 
" clip-path="url(#p85758f83d9)" style="fill: none; stroke: #b0b0b0; stroke-opacity: 0.3; stroke-width: 0.8; stroke-linecap: square"/>
     </g>
     <g id="line2d_12">
      <g>
       <use xlink:href="#m79cdca71a3" x="341.81418" y="270.776151" style="stroke: #000000; stroke-width: 0.8"/>
      </g>
     </g>
     <g id="text_6">
      <!-- −1.5 -->
      <g transform="translate(327.244493 286.894276) scale(0.12 -0.12)">
       <defs>
        <path id="DejaVuSans-31" d="M 794 531 
L 1825 531 
L 1825 4091 
L 703 3866 
L 703 4441 
L 1819 4666 
L 2450 4666 
L 2450 531 
L 3481 531 
L 3481 0 
L 794 0 
L 794 531 
z
" transform="scale(0.015625)"/>
       </defs>
       <use xlink:href="#DejaVuSans-2212"/>
       <use xlink:href="#DejaVuSans-31" transform="translate(83.789062 0)"/>
       <use xlink:href="#DejaVuSans-2e" transform="translate(147.412109 0)"/>
       <use xlink:href="#DejaVuSans-35" transform="translate(179.199219 0)"/>
      </g>
     </g>
    </g>
    <g id="xtick_7">
     <g id="line2d_13">
      <path d="M 399.101861 270.776151 
L 399.101861 23.077969 
" clip-path="url(#p85758f83d9)" style="fill: none; stroke: #b0b0b0; stroke-opacity: 0.3; stroke-width: 0.8; stroke-linecap: square"/>
     </g>
     <g id="line2d_14">
      <g>
       <use xlink:href="#m79cdca71a3" x="399.101861" y="270.776151" style="stroke: #000000; stroke-width: 0.8"/>
      </g>
     </g>
     <g id="text_7">
      <!-- −1.0 -->
      <g transform="translate(384.532174 286.894276) scale(0.12 -0.12)">
       <use xlink:href="#DejaVuSans-2212"/>
       <use xlink:href="#DejaVuSans-31" transform="translate(83.789062 0)"/>
       <use xlink:href="#DejaVuSans-2e" transform="translate(147.412109 0)"/>
       <use xlink:href="#DejaVuSans-30" transform="translate(179.199219 0)"/>
      </g>
     </g>
    </g>
    <g id="text_8">
     <!-- log h  (h in mm) -->
     <g transform="translate(182.911903 302.508026) scale(0.12 -0.12)">
      <defs>
       <path id="DejaVuSans-6c" d="M 603 4863 
L 1178 4863 
L 1178 0 
L 603 0 
L 603 4863 
z
" transform="scale(0.015625)"/>
       <path id="DejaVuSans-6f" d="M 1959 3097 
Q 1497 3097 1228 2736 
Q 959 2375 959 1747 
Q 959 1119 1226 758 
Q 1494 397 1959 397 
Q 2419 397 2687 759 
Q 2956 1122 2956 1747 
Q 2956 2369 2687 2733 
Q 2419 3097 1959 3097 
z
M 1959 3584 
Q 2709 3584 3137 3096 
Q 3566 2609 3566 1747 
Q 3566 888 3137 398 
Q 2709 -91 1959 -91 
Q 1206 -91 779 398 
Q 353 888 353 1747 
Q 353 2609 779 3096 
Q 1206 3584 1959 3584 
z
" transform="scale(0.015625)"/>
       <path id="DejaVuSans-67" d="M 2906 1791 
Q 2906 2416 2648 2759 
Q 2391 3103 1925 3103 
Q 1463 3103 1205 2759 
Q 947 2416 947 1791 
Q 947 1169 1205 825 
Q 1463 481 1925 481 
Q 2391 481 2648 825 
Q 2906 1169 2906 1791 
z
M 3481 434 
Q 3481 -459 3084 -895 
Q 2688 -1331 1869 -1331 
Q 1566 -1331 1297 -1286 
Q 1028 -1241 775 -1147 
L 775 -588 
Q 1028 -725 1275 -790 
Q 1522 -856 1778 -856 
Q 2344 -856 2625 -561 
Q 2906 -266 2906 331 
L 2906 616 
Q 2728 306 2450 153 
Q 2172 0 1784 0 
Q 1141 0 747 490 
Q 353 981 353 1791 
Q 353 2603 747 3093 
Q 1141 3584 1784 3584 
Q 2172 3584 2450 3431 
Q 2728 3278 2906 2969 
L 2906 3500 
L 3481 3500 
L 3481 434 
z
" transform="scale(0.015625)"/>
       <path id="DejaVuSans-20" transform="scale(0.015625)"/>
       <path id="DejaVuSans-68" d="M 3513 2113 
L 3513 0 
L 2938 0 
L 2938 2094 
Q 2938 2591 2744 2837 
Q 2550 3084 2163 3084 
Q 1697 3084 1428 2787 
Q 1159 2491 1159 1978 
L 1159 0 
L 581 0 
L 581 4863 
L 1159 4863 
L 1159 2956 
Q 1366 3272 1645 3428 
Q 1925 3584 2291 3584 
Q 2894 3584 3203 3211 
Q 3513 2838 3513 2113 
z
" transform="scale(0.015625)"/>
       <path id="DejaVuSans-28" d="M 1984 4856 
Q 1566 4138 1362 3434 
Q 1159 2731 1159 2009 
Q 1159 1288 1364 580 
Q 1569 -128 1984 -844 
L 1484 -844 
Q 1016 -109 783 600 
Q 550 1309 550 2009 
Q 550 2706 781 3412 
Q 1013 4119 1484 4856 
L 1984 4856 
z
" transform="scale(0.015625)"/>
       <path id="DejaVuSans-69" d="M 603 3500 
L 1178 3500 
L 1178 0 
L 603 0 
L 603 3500 
z
M 603 4863 
L 1178 4863 
L 1178 4134 
L 603 4134 
L 603 4863 
z
" transform="scale(0.015625)"/>
       <path id="DejaVuSans-6e" d="M 3513 2113 
L 3513 0 
L 2938 0 
L 2938 2094 
Q 2938 2591 2744 2837 
Q 2550 3084 2163 3084 
Q 1697 3084 1428 2787 
Q 1159 2491 1159 1978 
L 1159 0 
L 581 0 
L 581 3500 
L 1159 3500 
L 1159 2956 
Q 1366 3272 1645 3428 
Q 1925 3584 2291 3584 
Q 2894 3584 3203 3211 
Q 3513 2838 3513 2113 
z
" transform="scale(0.015625)"/>
       <path id="DejaVuSans-6d" d="M 3328 2828 
Q 3544 3216 3844 3400 
Q 4144 3584 4550 3584 
Q 5097 3584 5394 3201 
Q 5691 2819 5691 2113 
L 5691 0 
L 5113 0 
L 5113 2094 
Q 5113 2597 4934 2840 
Q 4756 3084 4391 3084 
Q 3944 3084 3684 2787 
Q 3425 2491 3425 1978 
L 3425 0 
L 2847 0 
L 2847 2094 
Q 2847 2600 2669 2842 
Q 2491 3084 2119 3084 
Q 1678 3084 1418 2786 
Q 1159 2488 1159 1978 
L 1159 0 
L 581 0 
L 581 3500 
L 1159 3500 
L 1159 2956 
Q 1356 3278 1631 3431 
Q 1906 3584 2284 3584 
Q 2666 3584 2933 3390 
Q 3200 3197 3328 2828 
z
" transform="scale(0.015625)"/>
       <path id="DejaVuSans-29" d="M 513 4856 
L 1013 4856 
Q 1481 4119 1714 3412 
Q 1947 2706 1947 2009 
Q 1947 1309 1714 600 
Q 1481 -109 1013 -844 
L 513 -844 
Q 928 -128 1133 580 
Q 1338 1288 1338 2009 
Q 1338 2731 1133 3434 
Q 928 4138 513 4856 
z
" transform="scale(0.015625)"/>
      </defs>
      <use xlink:href="#DejaVuSans-6c"/>
      <use xlink:href="#DejaVuSans-6f" transform="translate(27.783203 0)"/>
      <use xlink:href="#DejaVuSans-67" transform="translate(88.964844 0)"/>
      <use xlink:href="#DejaVuSans-20" transform="translate(152.441406 0)"/>
      <use xlink:href="#DejaVuSans-68" transform="translate(184.228516 0)"/>
      <use xlink:href="#DejaVuSans-20" transform="translate(247.607422 0)"/>
      <use xlink:href="#DejaVuSans-20" transform="translate(279.394531 0)"/>
      <use xlink:href="#DejaVuSans-28" transform="translate(311.181641 0)"/>
      <use xlink:href="#DejaVuSans-68" transform="translate(350.195312 0)"/>
      <use xlink:href="#DejaVuSans-20" transform="translate(413.574219 0)"/>
      <use xlink:href="#DejaVuSans-69" transform="translate(445.361328 0)"/>
      <use xlink:href="#DejaVuSans-6e" transform="translate(473.144531 0)"/>
      <use xlink:href="#DejaVuSans-20" transform="translate(536.523438 0)"/>
      <use xlink:href="#DejaVuSans-6d" transform="translate(568.310547 0)"/>
      <use xlink:href="#DejaVuSans-6d" transform="translate(665.722656 0)"/>
      <use xlink:href="#DejaVuSans-29" transform="translate(763.134766 0)"/>
     </g>
    </g>
   </g>
   <g id="matplotlib.axis_2">
    <g id="ytick_1">
     <g id="line2d_15">
      <path d="M 48.8975 263.588185 
L 413.179432 263.588185 
" clip-path="url(#p85758f83d9)" style="fill: none; stroke: #b0b0b0; stroke-opacity: 0.3; stroke-width: 0.8; stroke-linecap: square"/>
     </g>
     <g id="line2d_16">
      <defs>
       <path id="m859004bf98" d="M 0 0 
L -3.5 0 
" style="stroke: #000000; stroke-width: 0.8"/>
      </defs>
      <g>
       <use xlink:href="#m859004bf98" x="48.8975" y="263.588185" style="stroke: #000000; stroke-width: 0.8"/>
      </g>
     </g>
     <g id="text_9">
      <!-- 4.2 -->
      <g transform="translate(22.81375 268.147248) scale(0.12 -0.12)">
       <use xlink:href="#DejaVuSans-34"/>
       <use xlink:href="#DejaVuSans-2e" transform="translate(63.623047 0)"/>
       <use xlink:href="#DejaVuSans-32" transform="translate(95.410156 0)"/>
      </g>
     </g>
    </g>
    <g id="ytick_2">
     <g id="line2d_17">
      <path d="M 48.8975 229.744129 
L 413.179432 229.744129 
" clip-path="url(#p85758f83d9)" style="fill: none; stroke: #b0b0b0; stroke-opacity: 0.3; stroke-width: 0.8; stroke-linecap: square"/>
     </g>
     <g id="line2d_18">
      <g>
       <use xlink:href="#m859004bf98" x="48.8975" y="229.744129" style="stroke: #000000; stroke-width: 0.8"/>
      </g>
     </g>
     <g id="text_10">
      <!-- 4.3 -->
      <g transform="translate(22.81375 234.303192) scale(0.12 -0.12)">
       <use xlink:href="#DejaVuSans-34"/>
       <use xlink:href="#DejaVuSans-2e" transform="translate(63.623047 0)"/>
       <use xlink:href="#DejaVuSans-33" transform="translate(95.410156 0)"/>
      </g>
     </g>
    </g>
    <g id="ytick_3">
     <g id="line2d_19">
      <path d="M 48.8975 195.900073 
L 413.179432 195.900073 
" clip-path="url(#p85758f83d9)" style="fill: none; stroke: #b0b0b0; stroke-opacity: 0.3; stroke-width: 0.8; stroke-linecap: square"/>
     </g>
     <g id="line2d_20">
      <g>
       <use xlink:href="#m859004bf98" x="48.8975" y="195.900073" style="stroke: #000000; stroke-width: 0.8"/>
      </g>
     </g>
     <g id="text_11">
      <!-- 4.4 -->
      <g transform="translate(22.81375 200.459135) scale(0.12 -0.12)">
       <use xlink:href="#DejaVuSans-34"/>
       <use xlink:href="#DejaVuSans-2e" transform="translate(63.623047 0)"/>
       <use xlink:href="#DejaVuSans-34" transform="translate(95.410156 0)"/>
      </g>
     </g>
    </g>
    <g id="ytick_4">
     <g id="line2d_21">
      <path d="M 48.8975 162.056016 
L 413.179432 162.056016 
" clip-path="url(#p85758f83d9)" style="fill: none; stroke: #b0b0b0; stroke-opacity: 0.3; stroke-width: 0.8; stroke-linecap: square"/>
     </g>
     <g id="line2d_22">
      <g>
       <use xlink:href="#m859004bf98" x="48.8975" y="162.056016" style="stroke: #000000; stroke-width: 0.8"/>
      </g>
     </g>
     <g id="text_12">
      <!-- 4.5 -->
      <g transform="translate(22.81375 166.615079) scale(0.12 -0.12)">
       <use xlink:href="#DejaVuSans-34"/>
       <use xlink:href="#DejaVuSans-2e" transform="translate(63.623047 0)"/>
       <use xlink:href="#DejaVuSans-35" transform="translate(95.410156 0)"/>
      </g>
     </g>
    </g>
    <g id="ytick_5">
     <g id="line2d_23">
      <path d="M 48.8975 128.21196 
L 413.179432 128.21196 
" clip-path="url(#p85758f83d9)" style="fill: none; stroke: #b0b0b0; stroke-opacity: 0.3; stroke-width: 0.8; stroke-linecap: square"/>
     </g>
     <g id="line2d_24">
      <g>
       <use xlink:href="#m859004bf98" x="48.8975" y="128.21196" style="stroke: #000000; stroke-width: 0.8"/>
      </g>
     </g>
     <g id="text_13">
      <!-- 4.6 -->
      <g transform="translate(22.81375 132.771023) scale(0.12 -0.12)">
       <defs>
        <path id="DejaVuSans-36" d="M 2113 2584 
Q 1688 2584 1439 2293 
Q 1191 2003 1191 1497 
Q 1191 994 1439 701 
Q 1688 409 2113 409 
Q 2538 409 2786 701 
Q 3034 994 3034 1497 
Q 3034 2003 2786 2293 
Q 2538 2584 2113 2584 
z
M 3366 4563 
L 3366 3988 
Q 3128 4100 2886 4159 
Q 2644 4219 2406 4219 
Q 1781 4219 1451 3797 
Q 1122 3375 1075 2522 
Q 1259 2794 1537 2939 
Q 1816 3084 2150 3084 
Q 2853 3084 3261 2657 
Q 3669 2231 3669 1497 
Q 3669 778 3244 343 
Q 2819 -91 2113 -91 
Q 1303 -91 875 529 
Q 447 1150 447 2328 
Q 447 3434 972 4092 
Q 1497 4750 2381 4750 
Q 2619 4750 2861 4703 
Q 3103 4656 3366 4563 
z
" transform="scale(0.015625)"/>
       </defs>
       <use xlink:href="#DejaVuSans-34"/>
       <use xlink:href="#DejaVuSans-2e" transform="translate(63.623047 0)"/>
       <use xlink:href="#DejaVuSans-36" transform="translate(95.410156 0)"/>
      </g>
     </g>
    </g>
    <g id="ytick_6">
     <g id="line2d_25">
      <path d="M 48.8975 94.367904 
L 413.179432 94.367904 
" clip-path="url(#p85758f83d9)" style="fill: none; stroke: #b0b0b0; stroke-opacity: 0.3; stroke-width: 0.8; stroke-linecap: square"/>
     </g>
     <g id="line2d_26">
      <g>
       <use xlink:href="#m859004bf98" x="48.8975" y="94.367904" style="stroke: #000000; stroke-width: 0.8"/>
      </g>
     </g>
     <g id="text_14">
      <!-- 4.7 -->
      <g transform="translate(22.81375 98.926966) scale(0.12 -0.12)">
       <defs>
        <path id="DejaVuSans-37" d="M 525 4666 
L 3525 4666 
L 3525 4397 
L 1831 0 
L 1172 0 
L 2766 4134 
L 525 4134 
L 525 4666 
z
" transform="scale(0.015625)"/>
       </defs>
       <use xlink:href="#DejaVuSans-34"/>
       <use xlink:href="#DejaVuSans-2e" transform="translate(63.623047 0)"/>
       <use xlink:href="#DejaVuSans-37" transform="translate(95.410156 0)"/>
      </g>
     </g>
    </g>
    <g id="ytick_7">
     <g id="line2d_27">
      <path d="M 48.8975 60.523847 
L 413.179432 60.523847 
" clip-path="url(#p85758f83d9)" style="fill: none; stroke: #b0b0b0; stroke-opacity: 0.3; stroke-width: 0.8; stroke-linecap: square"/>
     </g>
     <g id="line2d_28">
      <g>
       <use xlink:href="#m859004bf98" x="48.8975" y="60.523847" style="stroke: #000000; stroke-width: 0.8"/>
      </g>
     </g>
     <g id="text_15">
      <!-- 4.8 -->
      <g transform="translate(22.81375 65.08291) scale(0.12 -0.12)">
       <defs>
        <path id="DejaVuSans-38" d="M 2034 2216 
Q 1584 2216 1326 1975 
Q 1069 1734 1069 1313 
Q 1069 891 1326 650 
Q 1584 409 2034 409 
Q 2484 409 2743 651 
Q 3003 894 3003 1313 
Q 3003 1734 2745 1975 
Q 2488 2216 2034 2216 
z
M 1403 2484 
Q 997 2584 770 2862 
Q 544 3141 544 3541 
Q 544 4100 942 4425 
Q 1341 4750 2034 4750 
Q 2731 4750 3128 4425 
Q 3525 4100 3525 3541 
Q 3525 3141 3298 2862 
Q 3072 2584 2669 2484 
Q 3125 2378 3379 2068 
Q 3634 1759 3634 1313 
Q 3634 634 3220 271 
Q 2806 -91 2034 -91 
Q 1263 -91 848 271 
Q 434 634 434 1313 
Q 434 1759 690 2068 
Q 947 2378 1403 2484 
z
M 1172 3481 
Q 1172 3119 1398 2916 
Q 1625 2713 2034 2713 
Q 2441 2713 2670 2916 
Q 2900 3119 2900 3481 
Q 2900 3844 2670 4047 
Q 2441 4250 2034 4250 
Q 1625 4250 1398 4047 
Q 1172 3844 1172 3481 
z
" transform="scale(0.015625)"/>
       </defs>
       <use xlink:href="#DejaVuSans-34"/>
       <use xlink:href="#DejaVuSans-2e" transform="translate(63.623047 0)"/>
       <use xlink:href="#DejaVuSans-38" transform="translate(95.410156 0)"/>
      </g>
     </g>
    </g>
    <g id="ytick_8">
     <g id="line2d_29">
      <path d="M 48.8975 26.679791 
L 413.179432 26.679791 
" clip-path="url(#p85758f83d9)" style="fill: none; stroke: #b0b0b0; stroke-opacity: 0.3; stroke-width: 0.8; stroke-linecap: square"/>
     </g>
     <g id="line2d_30">
      <g>
       <use xlink:href="#m859004bf98" x="48.8975" y="26.679791" style="stroke: #000000; stroke-width: 0.8"/>
      </g>
     </g>
     <g id="text_16">
      <!-- 4.9 -->
      <g transform="translate(22.81375 31.238853) scale(0.12 -0.12)">
       <defs>
        <path id="DejaVuSans-39" d="M 703 97 
L 703 672 
Q 941 559 1184 500 
Q 1428 441 1663 441 
Q 2288 441 2617 861 
Q 2947 1281 2994 2138 
Q 2813 1869 2534 1725 
Q 2256 1581 1919 1581 
Q 1219 1581 811 2004 
Q 403 2428 403 3163 
Q 403 3881 828 4315 
Q 1253 4750 1959 4750 
Q 2769 4750 3195 4129 
Q 3622 3509 3622 2328 
Q 3622 1225 3098 567 
Q 2575 -91 1691 -91 
Q 1453 -91 1209 -44 
Q 966 3 703 97 
z
M 1959 2075 
Q 2384 2075 2632 2365 
Q 2881 2656 2881 3163 
Q 2881 3666 2632 3958 
Q 2384 4250 1959 4250 
Q 1534 4250 1286 3958 
Q 1038 3666 1038 3163 
Q 1038 2656 1286 2365 
Q 1534 2075 1959 2075 
z
" transform="scale(0.015625)"/>
       </defs>
       <use xlink:href="#DejaVuSans-34"/>
       <use xlink:href="#DejaVuSans-2e" transform="translate(63.623047 0)"/>
       <use xlink:href="#DejaVuSans-39" transform="translate(95.410156 0)"/>
      </g>
     </g>
    </g>
    <g id="text_17">
     <!-- log(T/Ω) -->
     <g transform="translate(16.318125 171.027372) rotate(-90) scale(0.12 -0.12)">
      <defs>
       <path id="DejaVuSans-54" d="M -19 4666 
L 3928 4666 
L 3928 4134 
L 2272 4134 
L 2272 0 
L 1638 0 
L 1638 4134 
L -19 4134 
L -19 4666 
z
" transform="scale(0.015625)"/>
       <path id="DejaVuSans-2f" d="M 1625 4666 
L 2156 4666 
L 531 -594 
L 0 -594 
L 1625 4666 
z
" transform="scale(0.015625)"/>
       <path id="DejaVuSans-3a9" d="M 4647 556 
L 4647 0 
L 2772 0 
L 2772 556 
Q 3325 859 3634 1378 
Q 3944 1897 3944 2528 
Q 3944 3278 3531 3731 
Q 3119 4184 2444 4184 
Q 1769 4184 1355 3729 
Q 941 3275 941 2528 
Q 941 1897 1250 1378 
Q 1563 859 2119 556 
L 2119 0 
L 244 0 
L 244 556 
L 1241 556 
Q 747 991 519 1456 
Q 294 1922 294 2497 
Q 294 3491 894 4106 
Q 1491 4722 2444 4722 
Q 3391 4722 3994 4106 
Q 4594 3494 4594 2528 
Q 4594 1922 4372 1459 
Q 4150 997 3647 556 
L 4647 556 
z
" transform="scale(0.015625)"/>
      </defs>
      <use xlink:href="#DejaVuSans-6c"/>
      <use xlink:href="#DejaVuSans-6f" transform="translate(27.783203 0)"/>
      <use xlink:href="#DejaVuSans-67" transform="translate(88.964844 0)"/>
      <use xlink:href="#DejaVuSans-28" transform="translate(152.441406 0)"/>
      <use xlink:href="#DejaVuSans-54" transform="translate(191.455078 0)"/>
      <use xlink:href="#DejaVuSans-2f" transform="translate(252.539062 0)"/>
      <use xlink:href="#DejaVuSans-3a9" transform="translate(286.230469 0)"/>
      <use xlink:href="#DejaVuSans-29" transform="translate(362.646484 0)"/>
     </g>
    </g>
   </g>
   <g id="line2d_31">
    <defs>
     <path id="m238aa04649" d="M 0 3 
C 0.795609 3 1.55874 2.683901 2.12132 2.12132 
C 2.683901 1.55874 3 0.795609 3 0 
C 3 -0.795609 2.683901 -1.55874 2.12132 -2.12132 
C 1.55874 -2.683901 0.795609 -3 0 -3 
C -0.795609 -3 -1.55874 -2.683901 -2.12132 -2.12132 
C -2.683901 -1.55874 -3 -0.795609 -3 0 
C -3 0.795609 -2.683901 1.55874 -2.12132 2.12132 
C -1.55874 2.683901 -0.795609 3 0 3 
z
" style="stroke: #1f77b4"/>
    </defs>
    <g clip-path="url(#p85758f83d9)">
     <use xlink:href="#m238aa04649" x="65.45577" y="69.547867" style="fill: #1f77b4; stroke: #1f77b4"/>
     <use xlink:href="#m238aa04649" x="144.873359" y="88.530451" style="fill: #1f77b4; stroke: #1f77b4"/>
     <use xlink:href="#m238aa04649" x="191.329671" y="103.416154" style="fill: #1f77b4; stroke: #1f77b4"/>
     <use xlink:href="#m238aa04649" x="224.290949" y="118.74414" style="fill: #1f77b4; stroke: #1f77b4"/>
     <use xlink:href="#m238aa04649" x="249.857702" y="131.485615" style="fill: #1f77b4; stroke: #1f77b4"/>
     <use xlink:href="#m238aa04649" x="270.747261" y="145.416908" style="fill: #1f77b4; stroke: #1f77b4"/>
     <use xlink:href="#m238aa04649" x="288.409131" y="157.266816" style="fill: #1f77b4; stroke: #1f77b4"/>
     <use xlink:href="#m238aa04649" x="303.708538" y="170.059635" style="fill: #1f77b4; stroke: #1f77b4"/>
     <use xlink:href="#m238aa04649" x="317.203572" y="181.09374" style="fill: #1f77b4; stroke: #1f77b4"/>
     <use xlink:href="#m238aa04649" x="329.275292" y="193.378458" style="fill: #1f77b4; stroke: #1f77b4"/>
     <use xlink:href="#m238aa04649" x="340.19549" y="202.067609" style="fill: #1f77b4; stroke: #1f77b4"/>
     <use xlink:href="#m238aa04649" x="350.16485" y="212.146273" style="fill: #1f77b4; stroke: #1f77b4"/>
     <use xlink:href="#m238aa04649" x="359.335772" y="220.38339" style="fill: #1f77b4; stroke: #1f77b4"/>
     <use xlink:href="#m238aa04649" x="367.82672" y="229.773797" style="fill: #1f77b4; stroke: #1f77b4"/>
     <use xlink:href="#m238aa04649" x="375.731603" y="237.860692" style="fill: #1f77b4; stroke: #1f77b4"/>
     <use xlink:href="#m238aa04649" x="383.126128" y="246.30627" style="fill: #1f77b4; stroke: #1f77b4"/>
     <use xlink:href="#m238aa04649" x="390.072216" y="253.454171" style="fill: #1f77b4; stroke: #1f77b4"/>
     <use xlink:href="#m238aa04649" x="396.621162" y="259.517142" style="fill: #1f77b4; stroke: #1f77b4"/>
    </g>
   </g>
   <g id="line2d_32">
    <path d="M 65.45577 34.336977 
L 68.800875 36.424555 
L 72.14598 38.512134 
L 75.491085 40.599712 
L 78.83619 42.68729 
L 82.181294 44.774869 
L 85.526399 46.862447 
L 88.871504 48.950025 
L 92.216609 51.037604 
L 95.561714 53.125182 
L 98.906819 55.21276 
L 102.251924 57.300339 
L 105.597029 59.387917 
L 108.942134 61.475495 
L 112.287239 63.563073 
L 115.632344 65.650652 
L 118.977449 67.73823 
L 122.322554 69.825808 
L 125.667659 71.913387 
L 129.012764 74.000965 
L 132.357869 76.088543 
L 135.702974 78.176122 
L 139.048079 80.2637 
L 142.393184 82.351278 
L 145.738289 84.438857 
L 149.083394 86.526435 
L 152.428499 88.614013 
L 155.773604 90.701592 
L 159.118709 92.78917 
L 162.463814 94.876748 
L 165.808919 96.964327 
L 169.154024 99.051905 
L 172.499129 101.139483 
L 175.844234 103.227062 
L 179.189339 105.31464 
L 182.534444 107.402218 
L 185.879549 109.489797 
L 189.224654 111.577375 
L 192.569759 113.664953 
L 195.914864 115.752531 
L 199.259969 117.84011 
L 202.605073 119.927688 
L 205.950178 122.015266 
L 209.295283 124.102845 
L 212.640388 126.190423 
L 215.985493 128.278001 
L 219.330598 130.36558 
L 222.675703 132.453158 
L 226.020808 134.540736 
L 229.365913 136.628315 
L 232.711018 138.715893 
L 236.056123 140.803471 
L 239.401228 142.89105 
L 242.746333 144.978628 
L 246.091438 147.066206 
L 249.436543 149.153785 
L 252.781648 151.241363 
L 256.126753 153.328941 
L 259.471858 155.41652 
L 262.816963 157.504098 
L 266.162068 159.591676 
L 269.507173 161.679254 
L 272.852278 163.766833 
L 276.197383 165.854411 
L 279.542488 167.941989 
L 282.887593 170.029568 
L 286.232698 172.117146 
L 289.577803 174.204724 
L 292.922908 176.292303 
L 296.268013 178.379881 
L 299.613118 180.467459 
L 302.958223 182.555038 
L 306.303328 184.642616 
L 309.648433 186.730194 
L 312.993538 188.817773 
L 316.338643 190.905351 
L 319.683748 192.992929 
L 323.028853 195.080508 
L 326.373957 197.168086 
L 329.719062 199.255664 
L 333.064167 201.343243 
L 336.409272 203.430821 
L 339.754377 205.518399 
L 343.099482 207.605978 
L 346.444587 209.693556 
L 349.789692 211.781134 
L 353.134797 213.868712 
L 356.479902 215.956291 
L 359.825007 218.043869 
L 363.170112 220.131447 
L 366.515217 222.219026 
L 369.860322 224.306604 
L 373.205427 226.394182 
L 376.550532 228.481761 
L 379.895637 230.569339 
L 383.240742 232.656917 
L 386.585847 234.744496 
L 389.930952 236.832074 
L 393.276057 238.919652 
L 396.621162 241.007231 
" clip-path="url(#p85758f83d9)" style="fill: none; stroke-dasharray: 5.92,2.56; stroke-dashoffset: 0; stroke: #000000; stroke-width: 1.6"/>
   </g>
   <g id="patch_3">
    <path d="M 48.8975 270.776151 
L 48.8975 23.077969 
" style="fill: none; stroke: #000000; stroke-width: 0.8; stroke-linejoin: miter; stroke-linecap: square"/>
   </g>
   <g id="patch_4">
    <path d="M 413.179432 270.776151 
L 413.179432 23.077969 
" style="fill: none; stroke: #000000; stroke-width: 0.8; stroke-linejoin: miter; stroke-linecap: square"/>
   </g>
   <g id="patch_5">
    <path d="M 48.8975 270.776151 
L 413.179432 270.776151 
" style="fill: none; stroke: #000000; stroke-width: 0.8; stroke-linejoin: miter; stroke-linecap: square"/>
   </g>
   <g id="patch_6">
    <path d="M 48.8975 23.077969 
L 413.179432 23.077969 
" style="fill: none; stroke: #000000; stroke-width: 0.8; stroke-linejoin: miter; stroke-linecap: square"/>
   </g>
   <g id="text_18">
    <!-- Log–log scaling (linear axes) -->
    <g transform="translate(138.798388 17.077969) scale(0.13 -0.13)">
     <defs>
      <path id="DejaVuSans-4c" d="M 628 4666 
L 1259 4666 
L 1259 531 
L 3531 531 
L 3531 0 
L 628 0 
L 628 4666 
z
" transform="scale(0.015625)"/>
      <path id="DejaVuSans-2013" d="M 313 1978 
L 2888 1978 
L 2888 1528 
L 313 1528 
L 313 1978 
z
" transform="scale(0.015625)"/>
      <path id="DejaVuSans-73" d="M 2834 3397 
L 2834 2853 
Q 2591 2978 2328 3040 
Q 2066 3103 1784 3103 
Q 1356 3103 1142 2972 
Q 928 2841 928 2578 
Q 928 2378 1081 2264 
Q 1234 2150 1697 2047 
L 1894 2003 
Q 2506 1872 2764 1633 
Q 3022 1394 3022 966 
Q 3022 478 2636 193 
Q 2250 -91 1575 -91 
Q 1294 -91 989 -36 
Q 684 19 347 128 
L 347 722 
Q 666 556 975 473 
Q 1284 391 1588 391 
Q 1994 391 2212 530 
Q 2431 669 2431 922 
Q 2431 1156 2273 1281 
Q 2116 1406 1581 1522 
L 1381 1569 
Q 847 1681 609 1914 
Q 372 2147 372 2553 
Q 372 3047 722 3315 
Q 1072 3584 1716 3584 
Q 2034 3584 2315 3537 
Q 2597 3491 2834 3397 
z
" transform="scale(0.015625)"/>
      <path id="DejaVuSans-63" d="M 3122 3366 
L 3122 2828 
Q 2878 2963 2633 3030 
Q 2388 3097 2138 3097 
Q 1578 3097 1268 2742 
Q 959 2388 959 1747 
Q 959 1106 1268 751 
Q 1578 397 2138 397 
Q 2388 397 2633 464 
Q 2878 531 3122 666 
L 3122 134 
Q 2881 22 2623 -34 
Q 2366 -91 2075 -91 
Q 1284 -91 818 406 
Q 353 903 353 1747 
Q 353 2603 823 3093 
Q 1294 3584 2113 3584 
Q 2378 3584 2631 3529 
Q 2884 3475 3122 3366 
z
" transform="scale(0.015625)"/>
      <path id="DejaVuSans-61" d="M 2194 1759 
Q 1497 1759 1228 1600 
Q 959 1441 959 1056 
Q 959 750 1161 570 
Q 1363 391 1709 391 
Q 2188 391 2477 730 
Q 2766 1069 2766 1631 
L 2766 1759 
L 2194 1759 
z
M 3341 1997 
L 3341 0 
L 2766 0 
L 2766 531 
Q 2569 213 2275 61 
Q 1981 -91 1556 -91 
Q 1019 -91 701 211 
Q 384 513 384 1019 
Q 384 1609 779 1909 
Q 1175 2209 1959 2209 
L 2766 2209 
L 2766 2266 
Q 2766 2663 2505 2880 
Q 2244 3097 1772 3097 
Q 1472 3097 1187 3025 
Q 903 2953 641 2809 
L 641 3341 
Q 956 3463 1253 3523 
Q 1550 3584 1831 3584 
Q 2591 3584 2966 3190 
Q 3341 2797 3341 1997 
z
" transform="scale(0.015625)"/>
      <path id="DejaVuSans-65" d="M 3597 1894 
L 3597 1613 
L 953 1613 
Q 991 1019 1311 708 
Q 1631 397 2203 397 
Q 2534 397 2845 478 
Q 3156 559 3463 722 
L 3463 178 
Q 3153 47 2828 -22 
Q 2503 -91 2169 -91 
Q 1331 -91 842 396 
Q 353 884 353 1716 
Q 353 2575 817 3079 
Q 1281 3584 2069 3584 
Q 2775 3584 3186 3129 
Q 3597 2675 3597 1894 
z
M 3022 2063 
Q 3016 2534 2758 2815 
Q 2500 3097 2075 3097 
Q 1594 3097 1305 2825 
Q 1016 2553 972 2059 
L 3022 2063 
z
" transform="scale(0.015625)"/>
      <path id="DejaVuSans-72" d="M 2631 2963 
Q 2534 3019 2420 3045 
Q 2306 3072 2169 3072 
Q 1681 3072 1420 2755 
Q 1159 2438 1159 1844 
L 1159 0 
L 581 0 
L 581 3500 
L 1159 3500 
L 1159 2956 
Q 1341 3275 1631 3429 
Q 1922 3584 2338 3584 
Q 2397 3584 2469 3576 
Q 2541 3569 2628 3553 
L 2631 2963 
z
" transform="scale(0.015625)"/>
      <path id="DejaVuSans-78" d="M 3513 3500 
L 2247 1797 
L 3578 0 
L 2900 0 
L 1881 1375 
L 863 0 
L 184 0 
L 1544 1831 
L 300 3500 
L 978 3500 
L 1906 2253 
L 2834 3500 
L 3513 3500 
z
" transform="scale(0.015625)"/>
     </defs>
     <use xlink:href="#DejaVuSans-4c"/>
     <use xlink:href="#DejaVuSans-6f" transform="translate(53.962891 0)"/>
     <use xlink:href="#DejaVuSans-67" transform="translate(115.144531 0)"/>
     <use xlink:href="#DejaVuSans-2013" transform="translate(178.621094 0)"/>
     <use xlink:href="#DejaVuSans-6c" transform="translate(228.621094 0)"/>
     <use xlink:href="#DejaVuSans-6f" transform="translate(256.404297 0)"/>
     <use xlink:href="#DejaVuSans-67" transform="translate(317.585938 0)"/>
     <use xlink:href="#DejaVuSans-20" transform="translate(381.0625 0)"/>
     <use xlink:href="#DejaVuSans-73" transform="translate(412.849609 0)"/>
     <use xlink:href="#DejaVuSans-63" transform="translate(464.949219 0)"/>
     <use xlink:href="#DejaVuSans-61" transform="translate(519.929688 0)"/>
     <use xlink:href="#DejaVuSans-6c" transform="translate(581.208984 0)"/>
     <use xlink:href="#DejaVuSans-69" transform="translate(608.992188 0)"/>
     <use xlink:href="#DejaVuSans-6e" transform="translate(636.775391 0)"/>
     <use xlink:href="#DejaVuSans-67" transform="translate(700.154297 0)"/>
     <use xlink:href="#DejaVuSans-20" transform="translate(763.630859 0)"/>
     <use xlink:href="#DejaVuSans-28" transform="translate(795.417969 0)"/>
     <use xlink:href="#DejaVuSans-6c" transform="translate(834.431641 0)"/>
     <use xlink:href="#DejaVuSans-69" transform="translate(862.214844 0)"/>
     <use xlink:href="#DejaVuSans-6e" transform="translate(889.998047 0)"/>
     <use xlink:href="#DejaVuSans-65" transform="translate(953.376953 0)"/>
     <use xlink:href="#DejaVuSans-61" transform="translate(1014.900391 0)"/>
     <use xlink:href="#DejaVuSans-72" transform="translate(1076.179688 0)"/>
     <use xlink:href="#DejaVuSans-20" transform="translate(1117.292969 0)"/>
     <use xlink:href="#DejaVuSans-61" transform="translate(1149.080078 0)"/>
     <use xlink:href="#DejaVuSans-78" transform="translate(1210.359375 0)"/>
     <use xlink:href="#DejaVuSans-65" transform="translate(1266.414062 0)"/>
     <use xlink:href="#DejaVuSans-73" transform="translate(1327.9375 0)"/>
     <use xlink:href="#DejaVuSans-29" transform="translate(1380.037109 0)"/>
    </g>
   </g>
   <g id="legend_1">
    <g id="patch_7">
     <path d="M 199.735682 60.434219 
L 406.179432 60.434219 
Q 408.179432 60.434219 408.179432 58.434219 
L 408.179432 30.077969 
Q 408.179432 28.077969 406.179432 28.077969 
L 199.735682 28.077969 
Q 197.735682 28.077969 197.735682 30.077969 
L 197.735682 58.434219 
Q 197.735682 60.434219 199.735682 60.434219 
z
" style="fill: #ffffff; opacity: 0.8; stroke: #cccccc; stroke-linejoin: miter"/>
    </g>
    <g id="line2d_33">
     <g>
      <use xlink:href="#m238aa04649" x="211.735682" y="36.176406" style="fill: #1f77b4; stroke: #1f77b4"/>
     </g>
    </g>
    <g id="text_19">
     <!-- 70kcp -->
     <g transform="translate(229.735682 39.676406) scale(0.1 -0.1)">
      <defs>
       <path id="DejaVuSans-6b" d="M 581 4863 
L 1159 4863 
L 1159 1991 
L 2875 3500 
L 3609 3500 
L 1753 1863 
L 3688 0 
L 2938 0 
L 1159 1709 
L 1159 0 
L 581 0 
L 581 4863 
z
" transform="scale(0.015625)"/>
       <path id="DejaVuSans-70" d="M 1159 525 
L 1159 -1331 
L 581 -1331 
L 581 3500 
L 1159 3500 
L 1159 2969 
Q 1341 3281 1617 3432 
Q 1894 3584 2278 3584 
Q 2916 3584 3314 3078 
Q 3713 2572 3713 1747 
Q 3713 922 3314 415 
Q 2916 -91 2278 -91 
Q 1894 -91 1617 61 
Q 1341 213 1159 525 
z
M 3116 1747 
Q 3116 2381 2855 2742 
Q 2594 3103 2138 3103 
Q 1681 3103 1420 2742 
Q 1159 2381 1159 1747 
Q 1159 1113 1420 752 
Q 1681 391 2138 391 
Q 2594 391 2855 752 
Q 3116 1113 3116 1747 
z
" transform="scale(0.015625)"/>
      </defs>
      <use xlink:href="#DejaVuSans-37"/>
      <use xlink:href="#DejaVuSans-30" transform="translate(63.623047 0)"/>
      <use xlink:href="#DejaVuSans-6b" transform="translate(127.246094 0)"/>
      <use xlink:href="#DejaVuSans-63" transform="translate(185.15625 0)"/>
      <use xlink:href="#DejaVuSans-70" transform="translate(240.136719 0)"/>
     </g>
    </g>
    <g id="line2d_34">
     <path d="M 201.735682 50.854531 
L 211.735682 50.854531 
L 221.735682 50.854531 
" style="fill: none; stroke-dasharray: 5.92,2.56; stroke-dashoffset: 0; stroke: #000000; stroke-width: 1.6"/>
    </g>
    <g id="text_20">
     <!-- slope = -0.211 ± 0.014,  R²=0.938 -->
     <g transform="translate(229.735682 54.354531) scale(0.1 -0.1)">
      <defs>
       <path id="DejaVuSans-3d" d="M 678 2906 
L 4684 2906 
L 4684 2381 
L 678 2381 
L 678 2906 
z
M 678 1631 
L 4684 1631 
L 4684 1100 
L 678 1100 
L 678 1631 
z
" transform="scale(0.015625)"/>
       <path id="DejaVuSans-2d" d="M 313 2009 
L 1997 2009 
L 1997 1497 
L 313 1497 
L 313 2009 
z
" transform="scale(0.015625)"/>
       <path id="DejaVuSans-b1" d="M 2944 4013 
L 2944 2803 
L 4684 2803 
L 4684 2272 
L 2944 2272 
L 2944 1063 
L 2419 1063 
L 2419 2272 
L 678 2272 
L 678 2803 
L 2419 2803 
L 2419 4013 
L 2944 4013 
z
M 678 531 
L 4684 531 
L 4684 0 
L 678 0 
L 678 531 
z
" transform="scale(0.015625)"/>
       <path id="DejaVuSans-2c" d="M 750 794 
L 1409 794 
L 1409 256 
L 897 -744 
L 494 -744 
L 750 256 
L 750 794 
z
" transform="scale(0.015625)"/>
       <path id="DejaVuSans-52" d="M 2841 2188 
Q 3044 2119 3236 1894 
Q 3428 1669 3622 1275 
L 4263 0 
L 3584 0 
L 2988 1197 
Q 2756 1666 2539 1819 
Q 2322 1972 1947 1972 
L 1259 1972 
L 1259 0 
L 628 0 
L 628 4666 
L 2053 4666 
Q 2853 4666 3247 4331 
Q 3641 3997 3641 3322 
Q 3641 2881 3436 2590 
Q 3231 2300 2841 2188 
z
M 1259 4147 
L 1259 2491 
L 2053 2491 
Q 2509 2491 2742 2702 
Q 2975 2913 2975 3322 
Q 2975 3731 2742 3939 
Q 2509 4147 2053 4147 
L 1259 4147 
z
" transform="scale(0.015625)"/>
       <path id="DejaVuSans-b2" d="M 838 2444 
L 2163 2444 
L 2163 2088 
L 294 2088 
L 294 2431 
Q 400 2528 597 2703 
Q 1672 3656 1672 3950 
Q 1672 4156 1509 4282 
Q 1347 4409 1081 4409 
Q 919 4409 728 4354 
Q 538 4300 313 4191 
L 313 4575 
Q 553 4663 761 4706 
Q 969 4750 1147 4750 
Q 1600 4750 1872 4544 
Q 2144 4338 2144 4000 
Q 2144 3566 1109 2678 
Q 934 2528 838 2444 
z
" transform="scale(0.015625)"/>
      </defs>
      <use xlink:href="#DejaVuSans-73"/>
      <use xlink:href="#DejaVuSans-6c" transform="translate(52.099609 0)"/>
      <use xlink:href="#DejaVuSans-6f" transform="translate(79.882812 0)"/>
      <use xlink:href="#DejaVuSans-70" transform="translate(141.064453 0)"/>
      <use xlink:href="#DejaVuSans-65" transform="translate(204.541016 0)"/>
      <use xlink:href="#DejaVuSans-20" transform="translate(266.064453 0)"/>
      <use xlink:href="#DejaVuSans-3d" transform="translate(297.851562 0)"/>
      <use xlink:href="#DejaVuSans-20" transform="translate(381.640625 0)"/>
      <use xlink:href="#DejaVuSans-2d" transform="translate(413.427734 0)"/>
      <use xlink:href="#DejaVuSans-30" transform="translate(449.511719 0)"/>
      <use xlink:href="#DejaVuSans-2e" transform="translate(513.134766 0)"/>
      <use xlink:href="#DejaVuSans-32" transform="translate(544.921875 0)"/>
      <use xlink:href="#DejaVuSans-31" transform="translate(608.544922 0)"/>
      <use xlink:href="#DejaVuSans-31" transform="translate(672.167969 0)"/>
      <use xlink:href="#DejaVuSans-20" transform="translate(735.791016 0)"/>
      <use xlink:href="#DejaVuSans-b1" transform="translate(767.578125 0)"/>
      <use xlink:href="#DejaVuSans-20" transform="translate(851.367188 0)"/>
      <use xlink:href="#DejaVuSans-30" transform="translate(883.154297 0)"/>
      <use xlink:href="#DejaVuSans-2e" transform="translate(946.777344 0)"/>
      <use xlink:href="#DejaVuSans-30" transform="translate(978.564453 0)"/>
      <use xlink:href="#DejaVuSans-31" transform="translate(1042.1875 0)"/>
      <use xlink:href="#DejaVuSans-34" transform="translate(1105.810547 0)"/>
      <use xlink:href="#DejaVuSans-2c" transform="translate(1169.433594 0)"/>
      <use xlink:href="#DejaVuSans-20" transform="translate(1201.220703 0)"/>
      <use xlink:href="#DejaVuSans-20" transform="translate(1233.007812 0)"/>
      <use xlink:href="#DejaVuSans-52" transform="translate(1264.794922 0)"/>
      <use xlink:href="#DejaVuSans-b2" transform="translate(1334.277344 0)"/>
      <use xlink:href="#DejaVuSans-3d" transform="translate(1374.365234 0)"/>
      <use xlink:href="#DejaVuSans-30" transform="translate(1458.154297 0)"/>
      <use xlink:href="#DejaVuSans-2e" transform="translate(1521.777344 0)"/>
      <use xlink:href="#DejaVuSans-39" transform="translate(1553.564453 0)"/>
      <use xlink:href="#DejaVuSans-33" transform="translate(1617.1875 0)"/>
      <use xlink:href="#DejaVuSans-38" transform="translate(1680.810547 0)"/>
     </g>
    </g>
   </g>
  </g>
  <g id="axes_2">
   <g id="patch_8">
    <path d="M 480.850114 270.776151 
L 845.132045 270.776151 
L 845.132045 23.077969 
L 480.850114 23.077969 
z
" style="fill: #ffffff"/>
   </g>
   <g id="matplotlib.axis_3">
    <g id="xtick_8">
     <g id="line2d_35">
      <path d="M 526.628859 270.776151 
L 526.628859 23.077969 
" clip-path="url(#p091ac4287f)" style="fill: none; stroke: #b0b0b0; stroke-opacity: 0.3; stroke-width: 0.8; stroke-linecap: square"/>
     </g>
     <g id="line2d_36">
      <g>
       <use xlink:href="#m79cdca71a3" x="526.628859" y="270.776151" style="stroke: #000000; stroke-width: 0.8"/>
      </g>
     </g>
     <g id="text_21">
      <!-- 0.05 -->
      <g transform="translate(513.269484 286.894276) scale(0.12 -0.12)">
       <use xlink:href="#DejaVuSans-30"/>
       <use xlink:href="#DejaVuSans-2e" transform="translate(63.623047 0)"/>
       <use xlink:href="#DejaVuSans-30" transform="translate(95.410156 0)"/>
       <use xlink:href="#DejaVuSans-35" transform="translate(159.033203 0)"/>
      </g>
     </g>
    </g>
    <g id="xtick_9">
     <g id="line2d_37">
      <path d="M 575.329652 270.776151 
L 575.329652 23.077969 
" clip-path="url(#p091ac4287f)" style="fill: none; stroke: #b0b0b0; stroke-opacity: 0.3; stroke-width: 0.8; stroke-linecap: square"/>
     </g>
     <g id="line2d_38">
      <g>
       <use xlink:href="#m79cdca71a3" x="575.329652" y="270.776151" style="stroke: #000000; stroke-width: 0.8"/>
      </g>
     </g>
     <g id="text_22">
      <!-- 0.10 -->
      <g transform="translate(561.970277 286.894276) scale(0.12 -0.12)">
       <use xlink:href="#DejaVuSans-30"/>
       <use xlink:href="#DejaVuSans-2e" transform="translate(63.623047 0)"/>
       <use xlink:href="#DejaVuSans-31" transform="translate(95.410156 0)"/>
       <use xlink:href="#DejaVuSans-30" transform="translate(159.033203 0)"/>
      </g>
     </g>
    </g>
    <g id="xtick_10">
     <g id="line2d_39">
      <path d="M 624.030445 270.776151 
L 624.030445 23.077969 
" clip-path="url(#p091ac4287f)" style="fill: none; stroke: #b0b0b0; stroke-opacity: 0.3; stroke-width: 0.8; stroke-linecap: square"/>
     </g>
     <g id="line2d_40">
      <g>
       <use xlink:href="#m79cdca71a3" x="624.030445" y="270.776151" style="stroke: #000000; stroke-width: 0.8"/>
      </g>
     </g>
     <g id="text_23">
      <!-- 0.15 -->
      <g transform="translate(610.67107 286.894276) scale(0.12 -0.12)">
       <use xlink:href="#DejaVuSans-30"/>
       <use xlink:href="#DejaVuSans-2e" transform="translate(63.623047 0)"/>
       <use xlink:href="#DejaVuSans-31" transform="translate(95.410156 0)"/>
       <use xlink:href="#DejaVuSans-35" transform="translate(159.033203 0)"/>
      </g>
     </g>
    </g>
    <g id="xtick_11">
     <g id="line2d_41">
      <path d="M 672.731238 270.776151 
L 672.731238 23.077969 
" clip-path="url(#p091ac4287f)" style="fill: none; stroke: #b0b0b0; stroke-opacity: 0.3; stroke-width: 0.8; stroke-linecap: square"/>
     </g>
     <g id="line2d_42">
      <g>
       <use xlink:href="#m79cdca71a3" x="672.731238" y="270.776151" style="stroke: #000000; stroke-width: 0.8"/>
      </g>
     </g>
     <g id="text_24">
      <!-- 0.20 -->
      <g transform="translate(659.371863 286.894276) scale(0.12 -0.12)">
       <use xlink:href="#DejaVuSans-30"/>
       <use xlink:href="#DejaVuSans-2e" transform="translate(63.623047 0)"/>
       <use xlink:href="#DejaVuSans-32" transform="translate(95.410156 0)"/>
       <use xlink:href="#DejaVuSans-30" transform="translate(159.033203 0)"/>
      </g>
     </g>
    </g>
    <g id="xtick_12">
     <g id="line2d_43">
      <path d="M 721.432031 270.776151 
L 721.432031 23.077969 
" clip-path="url(#p091ac4287f)" style="fill: none; stroke: #b0b0b0; stroke-opacity: 0.3; stroke-width: 0.8; stroke-linecap: square"/>
     </g>
     <g id="line2d_44">
      <g>
       <use xlink:href="#m79cdca71a3" x="721.432031" y="270.776151" style="stroke: #000000; stroke-width: 0.8"/>
      </g>
     </g>
     <g id="text_25">
      <!-- 0.25 -->
      <g transform="translate(708.072656 286.894276) scale(0.12 -0.12)">
       <use xlink:href="#DejaVuSans-30"/>
       <use xlink:href="#DejaVuSans-2e" transform="translate(63.623047 0)"/>
       <use xlink:href="#DejaVuSans-32" transform="translate(95.410156 0)"/>
       <use xlink:href="#DejaVuSans-35" transform="translate(159.033203 0)"/>
      </g>
     </g>
    </g>
    <g id="xtick_13">
     <g id="line2d_45">
      <path d="M 770.132824 270.776151 
L 770.132824 23.077969 
" clip-path="url(#p091ac4287f)" style="fill: none; stroke: #b0b0b0; stroke-opacity: 0.3; stroke-width: 0.8; stroke-linecap: square"/>
     </g>
     <g id="line2d_46">
      <g>
       <use xlink:href="#m79cdca71a3" x="770.132824" y="270.776151" style="stroke: #000000; stroke-width: 0.8"/>
      </g>
     </g>
     <g id="text_26">
      <!-- 0.30 -->
      <g transform="translate(756.773449 286.894276) scale(0.12 -0.12)">
       <use xlink:href="#DejaVuSans-30"/>
       <use xlink:href="#DejaVuSans-2e" transform="translate(63.623047 0)"/>
       <use xlink:href="#DejaVuSans-33" transform="translate(95.410156 0)"/>
       <use xlink:href="#DejaVuSans-30" transform="translate(159.033203 0)"/>
      </g>
     </g>
    </g>
    <g id="xtick_14">
     <g id="line2d_47">
      <path d="M 818.833617 270.776151 
L 818.833617 23.077969 
" clip-path="url(#p091ac4287f)" style="fill: none; stroke: #b0b0b0; stroke-opacity: 0.3; stroke-width: 0.8; stroke-linecap: square"/>
     </g>
     <g id="line2d_48">
      <g>
       <use xlink:href="#m79cdca71a3" x="818.833617" y="270.776151" style="stroke: #000000; stroke-width: 0.8"/>
      </g>
     </g>
     <g id="text_27">
      <!-- 0.35 -->
      <g transform="translate(805.474242 286.894276) scale(0.12 -0.12)">
       <use xlink:href="#DejaVuSans-30"/>
       <use xlink:href="#DejaVuSans-2e" transform="translate(63.623047 0)"/>
       <use xlink:href="#DejaVuSans-33" transform="translate(95.410156 0)"/>
       <use xlink:href="#DejaVuSans-35" transform="translate(159.033203 0)"/>
      </g>
     </g>
    </g>
    <g id="text_28">
     <!-- h (mm) -->
     <g transform="translate(640.91108 302.508026) scale(0.12 -0.12)">
      <use xlink:href="#DejaVuSans-68"/>
      <use xlink:href="#DejaVuSans-20" transform="translate(63.378906 0)"/>
      <use xlink:href="#DejaVuSans-28" transform="translate(95.166016 0)"/>
      <use xlink:href="#DejaVuSans-6d" transform="translate(134.179688 0)"/>
      <use xlink:href="#DejaVuSans-6d" transform="translate(231.591797 0)"/>
      <use xlink:href="#DejaVuSans-29" transform="translate(329.003906 0)"/>
     </g>
    </g>
   </g>
   <g id="matplotlib.axis_4">
    <g id="ytick_9">
     <g id="line2d_49">
      <path d="M 480.850114 259.517142 
L 845.132045 259.517142 
" clip-path="url(#p091ac4287f)" style="fill: none; stroke: #b0b0b0; stroke-opacity: 0.3; stroke-width: 0.8; stroke-linecap: square"/>
     </g>
     <g id="line2d_50">
      <g>
       <use xlink:href="#m859004bf98" x="480.850114" y="259.517142" style="stroke: #000000; stroke-width: 0.8"/>
      </g>
     </g>
     <g id="text_29">
      <!-- −1.0 -->
      <g transform="translate(444.710739 264.076205) scale(0.12 -0.12)">
       <use xlink:href="#DejaVuSans-2212"/>
       <use xlink:href="#DejaVuSans-31" transform="translate(83.789062 0)"/>
       <use xlink:href="#DejaVuSans-2e" transform="translate(147.412109 0)"/>
       <use xlink:href="#DejaVuSans-30" transform="translate(179.199219 0)"/>
      </g>
     </g>
    </g>
    <g id="ytick_10">
     <g id="line2d_51">
      <path d="M 480.850114 208.800848 
L 845.132045 208.800848 
" clip-path="url(#p091ac4287f)" style="fill: none; stroke: #b0b0b0; stroke-opacity: 0.3; stroke-width: 0.8; stroke-linecap: square"/>
     </g>
     <g id="line2d_52">
      <g>
       <use xlink:href="#m859004bf98" x="480.850114" y="208.800848" style="stroke: #000000; stroke-width: 0.8"/>
      </g>
     </g>
     <g id="text_30">
      <!-- −0.8 -->
      <g transform="translate(444.710739 213.359911) scale(0.12 -0.12)">
       <use xlink:href="#DejaVuSans-2212"/>
       <use xlink:href="#DejaVuSans-30" transform="translate(83.789062 0)"/>
       <use xlink:href="#DejaVuSans-2e" transform="translate(147.412109 0)"/>
       <use xlink:href="#DejaVuSans-38" transform="translate(179.199219 0)"/>
      </g>
     </g>
    </g>
    <g id="ytick_11">
     <g id="line2d_53">
      <path d="M 480.850114 158.084554 
L 845.132045 158.084554 
" clip-path="url(#p091ac4287f)" style="fill: none; stroke: #b0b0b0; stroke-opacity: 0.3; stroke-width: 0.8; stroke-linecap: square"/>
     </g>
     <g id="line2d_54">
      <g>
       <use xlink:href="#m859004bf98" x="480.850114" y="158.084554" style="stroke: #000000; stroke-width: 0.8"/>
      </g>
     </g>
     <g id="text_31">
      <!-- −0.6 -->
      <g transform="translate(444.710739 162.643617) scale(0.12 -0.12)">
       <use xlink:href="#DejaVuSans-2212"/>
       <use xlink:href="#DejaVuSans-30" transform="translate(83.789062 0)"/>
       <use xlink:href="#DejaVuSans-2e" transform="translate(147.412109 0)"/>
       <use xlink:href="#DejaVuSans-36" transform="translate(179.199219 0)"/>
      </g>
     </g>
    </g>
    <g id="ytick_12">
     <g id="line2d_55">
      <path d="M 480.850114 107.36826 
L 845.132045 107.36826 
" clip-path="url(#p091ac4287f)" style="fill: none; stroke: #b0b0b0; stroke-opacity: 0.3; stroke-width: 0.8; stroke-linecap: square"/>
     </g>
     <g id="line2d_56">
      <g>
       <use xlink:href="#m859004bf98" x="480.850114" y="107.36826" style="stroke: #000000; stroke-width: 0.8"/>
      </g>
     </g>
     <g id="text_32">
      <!-- −0.4 -->
      <g transform="translate(444.710739 111.927323) scale(0.12 -0.12)">
       <use xlink:href="#DejaVuSans-2212"/>
       <use xlink:href="#DejaVuSans-30" transform="translate(83.789062 0)"/>
       <use xlink:href="#DejaVuSans-2e" transform="translate(147.412109 0)"/>
       <use xlink:href="#DejaVuSans-34" transform="translate(179.199219 0)"/>
      </g>
     </g>
    </g>
    <g id="ytick_13">
     <g id="line2d_57">
      <path d="M 480.850114 56.651966 
L 845.132045 56.651966 
" clip-path="url(#p091ac4287f)" style="fill: none; stroke: #b0b0b0; stroke-opacity: 0.3; stroke-width: 0.8; stroke-linecap: square"/>
     </g>
     <g id="line2d_58">
      <g>
       <use xlink:href="#m859004bf98" x="480.850114" y="56.651966" style="stroke: #000000; stroke-width: 0.8"/>
      </g>
     </g>
     <g id="text_33">
      <!-- −0.2 -->
      <g transform="translate(444.710739 61.211028) scale(0.12 -0.12)">
       <use xlink:href="#DejaVuSans-2212"/>
       <use xlink:href="#DejaVuSans-30" transform="translate(83.789062 0)"/>
       <use xlink:href="#DejaVuSans-2e" transform="translate(147.412109 0)"/>
       <use xlink:href="#DejaVuSans-32" transform="translate(179.199219 0)"/>
      </g>
     </g>
    </g>
    <g id="text_34">
     <!-- local d log y / d log h -->
     <g transform="translate(438.215114 209.543622) rotate(-90) scale(0.12 -0.12)">
      <defs>
       <path id="DejaVuSans-64" d="M 2906 2969 
L 2906 4863 
L 3481 4863 
L 3481 0 
L 2906 0 
L 2906 525 
Q 2725 213 2448 61 
Q 2172 -91 1784 -91 
Q 1150 -91 751 415 
Q 353 922 353 1747 
Q 353 2572 751 3078 
Q 1150 3584 1784 3584 
Q 2172 3584 2448 3432 
Q 2725 3281 2906 2969 
z
M 947 1747 
Q 947 1113 1208 752 
Q 1469 391 1925 391 
Q 2381 391 2643 752 
Q 2906 1113 2906 1747 
Q 2906 2381 2643 2742 
Q 2381 3103 1925 3103 
Q 1469 3103 1208 2742 
Q 947 2381 947 1747 
z
" transform="scale(0.015625)"/>
       <path id="DejaVuSans-79" d="M 2059 -325 
Q 1816 -950 1584 -1140 
Q 1353 -1331 966 -1331 
L 506 -1331 
L 506 -850 
L 844 -850 
Q 1081 -850 1212 -737 
Q 1344 -625 1503 -206 
L 1606 56 
L 191 3500 
L 800 3500 
L 1894 763 
L 2988 3500 
L 3597 3500 
L 2059 -325 
z
" transform="scale(0.015625)"/>
      </defs>
      <use xlink:href="#DejaVuSans-6c"/>
      <use xlink:href="#DejaVuSans-6f" transform="translate(27.783203 0)"/>
      <use xlink:href="#DejaVuSans-63" transform="translate(88.964844 0)"/>
      <use xlink:href="#DejaVuSans-61" transform="translate(143.945312 0)"/>
      <use xlink:href="#DejaVuSans-6c" transform="translate(205.224609 0)"/>
      <use xlink:href="#DejaVuSans-20" transform="translate(233.007812 0)"/>
      <use xlink:href="#DejaVuSans-64" transform="translate(264.794922 0)"/>
      <use xlink:href="#DejaVuSans-20" transform="translate(328.271484 0)"/>
      <use xlink:href="#DejaVuSans-6c" transform="translate(360.058594 0)"/>
      <use xlink:href="#DejaVuSans-6f" transform="translate(387.841797 0)"/>
      <use xlink:href="#DejaVuSans-67" transform="translate(449.023438 0)"/>
      <use xlink:href="#DejaVuSans-20" transform="translate(512.5 0)"/>
      <use xlink:href="#DejaVuSans-79" transform="translate(544.287109 0)"/>
      <use xlink:href="#DejaVuSans-20" transform="translate(603.466797 0)"/>
      <use xlink:href="#DejaVuSans-2f" transform="translate(635.253906 0)"/>
      <use xlink:href="#DejaVuSans-20" transform="translate(668.945312 0)"/>
      <use xlink:href="#DejaVuSans-64" transform="translate(700.732422 0)"/>
      <use xlink:href="#DejaVuSans-20" transform="translate(764.208984 0)"/>
      <use xlink:href="#DejaVuSans-6c" transform="translate(795.996094 0)"/>
      <use xlink:href="#DejaVuSans-6f" transform="translate(823.779297 0)"/>
      <use xlink:href="#DejaVuSans-67" transform="translate(884.960938 0)"/>
      <use xlink:href="#DejaVuSans-20" transform="translate(948.4375 0)"/>
      <use xlink:href="#DejaVuSans-68" transform="translate(980.224609 0)"/>
     </g>
    </g>
   </g>
   <g id="line2d_59">
    <path d="M 497.408384 34.336977 
L 516.888701 34.336977 
L 536.369018 34.336977 
L 555.849335 44.343369 
L 575.329652 53.35598 
L 594.80997 61.275644 
L 614.290287 69.065222 
L 633.770604 76.054213 
L 653.250921 80.921096 
L 672.731238 83.741506 
L 692.211555 85.430749 
L 711.691873 87.015925 
L 731.17219 92.17294 
L 750.652507 95.280611 
L 770.132824 98.391414 
L 789.613141 95.616796 
L 809.093459 94.981823 
L 828.573776 90.01868 
" clip-path="url(#p091ac4287f)" style="fill: none; stroke: #1f77b4; stroke-width: 1.6; stroke-linecap: square"/>
    <g clip-path="url(#p091ac4287f)">
     <use xlink:href="#m238aa04649" x="497.408384" y="34.336977" style="fill: #1f77b4; stroke: #1f77b4"/>
     <use xlink:href="#m238aa04649" x="516.888701" y="34.336977" style="fill: #1f77b4; stroke: #1f77b4"/>
     <use xlink:href="#m238aa04649" x="536.369018" y="34.336977" style="fill: #1f77b4; stroke: #1f77b4"/>
     <use xlink:href="#m238aa04649" x="555.849335" y="44.343369" style="fill: #1f77b4; stroke: #1f77b4"/>
     <use xlink:href="#m238aa04649" x="575.329652" y="53.35598" style="fill: #1f77b4; stroke: #1f77b4"/>
     <use xlink:href="#m238aa04649" x="594.80997" y="61.275644" style="fill: #1f77b4; stroke: #1f77b4"/>
     <use xlink:href="#m238aa04649" x="614.290287" y="69.065222" style="fill: #1f77b4; stroke: #1f77b4"/>
     <use xlink:href="#m238aa04649" x="633.770604" y="76.054213" style="fill: #1f77b4; stroke: #1f77b4"/>
     <use xlink:href="#m238aa04649" x="653.250921" y="80.921096" style="fill: #1f77b4; stroke: #1f77b4"/>
     <use xlink:href="#m238aa04649" x="672.731238" y="83.741506" style="fill: #1f77b4; stroke: #1f77b4"/>
     <use xlink:href="#m238aa04649" x="692.211555" y="85.430749" style="fill: #1f77b4; stroke: #1f77b4"/>
     <use xlink:href="#m238aa04649" x="711.691873" y="87.015925" style="fill: #1f77b4; stroke: #1f77b4"/>
     <use xlink:href="#m238aa04649" x="731.17219" y="92.17294" style="fill: #1f77b4; stroke: #1f77b4"/>
     <use xlink:href="#m238aa04649" x="750.652507" y="95.280611" style="fill: #1f77b4; stroke: #1f77b4"/>
     <use xlink:href="#m238aa04649" x="770.132824" y="98.391414" style="fill: #1f77b4; stroke: #1f77b4"/>
     <use xlink:href="#m238aa04649" x="789.613141" y="95.616796" style="fill: #1f77b4; stroke: #1f77b4"/>
     <use xlink:href="#m238aa04649" x="809.093459" y="94.981823" style="fill: #1f77b4; stroke: #1f77b4"/>
     <use xlink:href="#m238aa04649" x="828.573776" y="90.01868" style="fill: #1f77b4; stroke: #1f77b4"/>
    </g>
   </g>
   <g id="line2d_60">
    <path d="M 480.850114 259.517142 
L 845.132045 259.517142 
" clip-path="url(#p091ac4287f)" style="fill: none; stroke-dasharray: 5.92,2.56; stroke-dashoffset: 0; stroke: #ff0000; stroke-width: 1.6"/>
   </g>
   <g id="patch_9">
    <path d="M 480.850114 270.776151 
L 480.850114 23.077969 
" style="fill: none; stroke: #000000; stroke-width: 0.8; stroke-linejoin: miter; stroke-linecap: square"/>
   </g>
   <g id="patch_10">
    <path d="M 845.132045 270.776151 
L 845.132045 23.077969 
" style="fill: none; stroke: #000000; stroke-width: 0.8; stroke-linejoin: miter; stroke-linecap: square"/>
   </g>
   <g id="patch_11">
    <path d="M 480.850114 270.776151 
L 845.132045 270.776151 
" style="fill: none; stroke: #000000; stroke-width: 0.8; stroke-linejoin: miter; stroke-linecap: square"/>
   </g>
   <g id="patch_12">
    <path d="M 480.850114 23.077969 
L 845.132045 23.077969 
" style="fill: none; stroke: #000000; stroke-width: 0.8; stroke-linejoin: miter; stroke-linecap: square"/>
   </g>
   <g id="text_35">
    <!-- Local scaling exponent (window = 5) -->
    <g transform="translate(543.07522 17.077969) scale(0.13 -0.13)">
     <defs>
      <path id="DejaVuSans-74" d="M 1172 4494 
L 1172 3500 
L 2356 3500 
L 2356 3053 
L 1172 3053 
L 1172 1153 
Q 1172 725 1289 603 
Q 1406 481 1766 481 
L 2356 481 
L 2356 0 
L 1766 0 
Q 1100 0 847 248 
Q 594 497 594 1153 
L 594 3053 
L 172 3053 
L 172 3500 
L 594 3500 
L 594 4494 
L 1172 4494 
z
" transform="scale(0.015625)"/>
      <path id="DejaVuSans-77" d="M 269 3500 
L 844 3500 
L 1563 769 
L 2278 3500 
L 2956 3500 
L 3675 769 
L 4391 3500 
L 4966 3500 
L 4050 0 
L 3372 0 
L 2619 2869 
L 1863 0 
L 1184 0 
L 269 3500 
z
" transform="scale(0.015625)"/>
     </defs>
     <use xlink:href="#DejaVuSans-4c"/>
     <use xlink:href="#DejaVuSans-6f" transform="translate(53.962891 0)"/>
     <use xlink:href="#DejaVuSans-63" transform="translate(115.144531 0)"/>
     <use xlink:href="#DejaVuSans-61" transform="translate(170.125 0)"/>
     <use xlink:href="#DejaVuSans-6c" transform="translate(231.404297 0)"/>
     <use xlink:href="#DejaVuSans-20" transform="translate(259.1875 0)"/>
     <use xlink:href="#DejaVuSans-73" transform="translate(290.974609 0)"/>
     <use xlink:href="#DejaVuSans-63" transform="translate(343.074219 0)"/>
     <use xlink:href="#DejaVuSans-61" transform="translate(398.054688 0)"/>
     <use xlink:href="#DejaVuSans-6c" transform="translate(459.333984 0)"/>
     <use xlink:href="#DejaVuSans-69" transform="translate(487.117188 0)"/>
     <use xlink:href="#DejaVuSans-6e" transform="translate(514.900391 0)"/>
     <use xlink:href="#DejaVuSans-67" transform="translate(578.279297 0)"/>
     <use xlink:href="#DejaVuSans-20" transform="translate(641.755859 0)"/>
     <use xlink:href="#DejaVuSans-65" transform="translate(673.542969 0)"/>
     <use xlink:href="#DejaVuSans-78" transform="translate(733.316406 0)"/>
     <use xlink:href="#DejaVuSans-70" transform="translate(792.496094 0)"/>
     <use xlink:href="#DejaVuSans-6f" transform="translate(855.972656 0)"/>
     <use xlink:href="#DejaVuSans-6e" transform="translate(917.154297 0)"/>
     <use xlink:href="#DejaVuSans-65" transform="translate(980.533203 0)"/>
     <use xlink:href="#DejaVuSans-6e" transform="translate(1042.056641 0)"/>
     <use xlink:href="#DejaVuSans-74" transform="translate(1105.435547 0)"/>
     <use xlink:href="#DejaVuSans-20" transform="translate(1144.644531 0)"/>
     <use xlink:href="#DejaVuSans-28" transform="translate(1176.431641 0)"/>
     <use xlink:href="#DejaVuSans-77" transform="translate(1215.445312 0)"/>
     <use xlink:href="#DejaVuSans-69" transform="translate(1297.232422 0)"/>
     <use xlink:href="#DejaVuSans-6e" transform="translate(1325.015625 0)"/>
     <use xlink:href="#DejaVuSans-64" transform="translate(1388.394531 0)"/>
     <use xlink:href="#DejaVuSans-6f" transform="translate(1451.871094 0)"/>
     <use xlink:href="#DejaVuSans-77" transform="translate(1513.052734 0)"/>
     <use xlink:href="#DejaVuSans-20" transform="translate(1594.839844 0)"/>
     <use xlink:href="#DejaVuSans-3d" transform="translate(1626.626953 0)"/>
     <use xlink:href="#DejaVuSans-20" transform="translate(1710.416016 0)"/>
     <use xlink:href="#DejaVuSans-35" transform="translate(1742.203125 0)"/>
     <use xlink:href="#DejaVuSans-29" transform="translate(1805.826172 0)"/>
    </g>
   </g>
   <g id="legend_2">
    <g id="patch_13">
     <path d="M 703.43517 45.756094 
L 838.132045 45.756094 
Q 840.132045 45.756094 840.132045 43.756094 
L 840.132045 30.077969 
Q 840.132045 28.077969 838.132045 28.077969 
L 703.43517 28.077969 
Q 701.43517 28.077969 701.43517 30.077969 
L 701.43517 43.756094 
Q 701.43517 45.756094 703.43517 45.756094 
z
" style="fill: #ffffff; opacity: 0.8; stroke: #cccccc; stroke-linejoin: miter"/>
    </g>
    <g id="line2d_61">
     <path d="M 705.43517 36.176406 
L 715.43517 36.176406 
L 725.43517 36.176406 
" style="fill: none; stroke-dasharray: 5.92,2.56; stroke-dashoffset: 0; stroke: #ff0000; stroke-width: 1.6"/>
    </g>
    <g id="text_36">
     <!-- ideal 1/h slope = −1 -->
     <g transform="translate(733.43517 39.676406) scale(0.1 -0.1)">
      <use xlink:href="#DejaVuSans-69"/>
      <use xlink:href="#DejaVuSans-64" transform="translate(27.783203 0)"/>
      <use xlink:href="#DejaVuSans-65" transform="translate(91.259766 0)"/>
      <use xlink:href="#DejaVuSans-61" transform="translate(152.783203 0)"/>
      <use xlink:href="#DejaVuSans-6c" transform="translate(214.0625 0)"/>
      <use xlink:href="#DejaVuSans-20" transform="translate(241.845703 0)"/>
      <use xlink:href="#DejaVuSans-31" transform="translate(273.632812 0)"/>
      <use xlink:href="#DejaVuSans-2f" transform="translate(337.255859 0)"/>
      <use xlink:href="#DejaVuSans-68" transform="translate(370.947266 0)"/>
      <use xlink:href="#DejaVuSans-20" transform="translate(434.326172 0)"/>
      <use xlink:href="#DejaVuSans-73" transform="translate(466.113281 0)"/>
      <use xlink:href="#DejaVuSans-6c" transform="translate(518.212891 0)"/>
      <use xlink:href="#DejaVuSans-6f" transform="translate(545.996094 0)"/>
      <use xlink:href="#DejaVuSans-70" transform="translate(607.177734 0)"/>
      <use xlink:href="#DejaVuSans-65" transform="translate(670.654297 0)"/>
      <use xlink:href="#DejaVuSans-20" transform="translate(732.177734 0)"/>
      <use xlink:href="#DejaVuSans-3d" transform="translate(763.964844 0)"/>
      <use xlink:href="#DejaVuSans-20" transform="translate(847.753906 0)"/>
      <use xlink:href="#DejaVuSans-2212" transform="translate(879.541016 0)"/>
      <use xlink:href="#DejaVuSans-31" transform="translate(963.330078 0)"/>
     </g>
    </g>
   </g>
  </g>
 </g>
 <defs>
  <clipPath id="p85758f83d9">
   <rect x="48.8975" y="23.077969" width="364.281932" height="247.698182"/>
  </clipPath>
  <clipPath id="p091ac4287f">
   <rect x="480.850114" y="23.077969" width="364.281932" height="247.698182"/>
  </clipPath>
 </defs>
</svg>
