<?xml version="1.0" encoding="utf-8" standalone="no"?>
<!DOCTYPE svg PUBLIC "-//W3C//DTD SVG 1.1//EN"
  "http://www.w3.org/Graphics/SVG/1.1/DTD/svg11.dtd">
<svg xmlns:xlink="http://www.w3.org/1999/xlink" width="442.88375pt" height="308.441469pt" viewBox="0 0 442.88375 308.441469" xmlns="http://www.w3.org/2000/svg" version="1.1">
 <metadata>
  <rdf:RDF xmlns:dc="http://purl.org/dc/elements/1.1/" xmlns:cc="http://creativecommons.org/ns#" xmlns:rdf="http://www.w3.org/1999/02/22-rdf-syntax-ns#">
   <cc:Work>
    <dc:type rdf:resource="http://purl.org/dc/dcmitype/StillImage"/>
    <dc:date>2026-05-29T17:12:41.026325</dc:date>
    <dc:format>image/svg+xml</dc:format>
    <dc:creator>
     <cc:Agent>
      <dc:title>Matplotlib v3.10.0, https://matplotlib.org/</dc:title>
     </cc:Agent>
    </dc:creator>
   </cc:Work>
  </rdf:RDF>
 </metadata>
 <defs>
  <style type="text/css">*{stroke-linejoin: round; stroke-linecap: butt}</style>
 </defs>
 <g id="figure_1">
  <g id="patch_1">
   <path d="M 0 308.441469 
L 442.88375 308.441469 
L 442.88375 0 
L 0 0 
z
" style="fill: #ffffff"/>
  </g>
  <g id="axes_1">
   <g id="patch_2">
    <path d="M 45.08375 267.013969 
L 435.68375 267.013969 
L 435.68375 23.077969 
L 45.08375 23.077969 
z
" style="fill: #ffffff"/>
   </g>
   <g id="matplotlib.axis_1">
    <g id="xtick_1">
     <g id="line2d_1">
      <path d="M 94.169846 267.013969 
L 94.169846 23.077969 
" clip-path="url(#p9ce8d6af9e)" style="fill: none; stroke: #b0b0b0; stroke-opacity: 0.3; stroke-width: 0.8; stroke-linecap: square"/>
     </g>
     <g id="line2d_2">
      <defs>
       <path id="m9720858f7a" d="M 0 0 
L 0 3.5 
" style="stroke: #000000; stroke-width: 0.8"/>
      </defs>
      <g>
       <use xlink:href="#m9720858f7a" x="94.169846" y="267.013969" style="stroke: #000000; stroke-width: 0.8"/>
      </g>
     </g>
     <g id="text_1">
      <!-- 0.05 -->
      <g transform="translate(80.810471 283.132094) scale(0.12 -0.12)">
       <defs>
        <path id="DejaVuSans-30" d="M 2034 4250 
Q 1547 4250 1301 3770 
Q 1056 3291 1056 2328 
Q 1056 1369 1301 889 
Q 1547 409 2034 409 
Q 2525 409 2770 889 
Q 3016 1369 3016 2328 
Q 3016 3291 2770 3770 
Q 2525 4250 2034 4250 
z
M 2034 4750 
Q 2819 4750 3233 4129 
Q 3647 3509 3647 2328 
Q 3647 1150 3233 529 
Q 2819 -91 2034 -91 
Q 1250 -91 836 529 
Q 422 1150 422 2328 
Q 422 3509 836 4129 
Q 1250 4750 2034 4750 
z
" transform="scale(0.015625)"/>
        <path id="DejaVuSans-2e" d="M 684 794 
L 1344 794 
L 1344 0 
L 684 0 
L 684 794 
z
" transform="scale(0.015625)"/>
        <path id="DejaVuSans-35" d="M 691 4666 
L 3169 4666 
L 3169 4134 
L 1269 4134 
L 1269 2991 
Q 1406 3038 1543 3061 
Q 1681 3084 1819 3084 
Q 2600 3084 3056 2656 
Q 3513 2228 3513 1497 
Q 3513 744 3044 326 
Q 2575 -91 1722 -91 
Q 1428 -91 1123 -41 
Q 819 9 494 109 
L 494 744 
Q 775 591 1075 516 
Q 1375 441 1709 441 
Q 2250 441 2565 725 
Q 2881 1009 2881 1497 
Q 2881 1984 2565 2268 
Q 2250 2553 1709 2553 
Q 1456 2553 1204 2497 
Q 953 2441 691 2322 
L 691 4666 
z
" transform="scale(0.015625)"/>
       </defs>
       <use xlink:href="#DejaVuSans-30"/>
       <use xlink:href="#DejaVuSans-2e" transform="translate(63.623047 0)"/>
       <use xlink:href="#DejaVuSans-30" transform="translate(95.410156 0)"/>
       <use xlink:href="#DejaVuSans-35" transform="translate(159.033203 0)"/>
      </g>
     </g>
    </g>
    <g id="xtick_2">
     <g id="line2d_3">
      <path d="M 146.389098 267.013969 
L 146.389098 23.077969 
" clip-path="url(#p9ce8d6af9e)" style="fill: none; stroke: #b0b0b0; stroke-opacity: 0.3; stroke-width: 0.8; stroke-linecap: square"/>
     </g>
     <g id="line2d_4">
      <g>
       <use xlink:href="#m9720858f7a" x="146.389098" y="267.013969" style="stroke: #000000; stroke-width: 0.8"/>
      </g>
     </g>
     <g id="text_2">
      <!-- 0.10 -->
      <g transform="translate(133.029723 283.132094) scale(0.12 -0.12)">
       <defs>
        <path id="DejaVuSans-31" d="M 794 531 
L 1825 531 
L 1825 4091 
L 703 3866 
L 703 4441 
L 1819 4666 
L 2450 4666 
L 2450 531 
L 3481 531 
L 3481 0 
L 794 0 
L 794 531 
z
" transform="scale(0.015625)"/>
       </defs>
       <use xlink:href="#DejaVuSans-30"/>
       <use xlink:href="#DejaVuSans-2e" transform="translate(63.623047 0)"/>
       <use xlink:href="#DejaVuSans-31" transform="translate(95.410156 0)"/>
       <use xlink:href="#DejaVuSans-30" transform="translate(159.033203 0)"/>
      </g>
     </g>
    </g>
    <g id="xtick_3">
     <g id="line2d_5">
      <path d="M 198.608349 267.013969 
L 198.608349 23.077969 
" clip-path="url(#p9ce8d6af9e)" style="fill: none; stroke: #b0b0b0; stroke-opacity: 0.3; stroke-width: 0.8; stroke-linecap: square"/>
     </g>
     <g id="line2d_6">
      <g>
       <use xlink:href="#m9720858f7a" x="198.608349" y="267.013969" style="stroke: #000000; stroke-width: 0.8"/>
      </g>
     </g>
     <g id="text_3">
      <!-- 0.15 -->
      <g transform="translate(185.248974 283.132094) scale(0.12 -0.12)">
       <use xlink:href="#DejaVuSans-30"/>
       <use xlink:href="#DejaVuSans-2e" transform="translate(63.623047 0)"/>
       <use xlink:href="#DejaVuSans-31" transform="translate(95.410156 0)"/>
       <use xlink:href="#DejaVuSans-35" transform="translate(159.033203 0)"/>
      </g>
     </g>
    </g>
    <g id="xtick_4">
     <g id="line2d_7">
      <path d="M 250.8276 267.013969 
L 250.8276 23.077969 
" clip-path="url(#p9ce8d6af9e)" style="fill: none; stroke: #b0b0b0; stroke-opacity: 0.3; stroke-width: 0.8; stroke-linecap: square"/>
     </g>
     <g id="line2d_8">
      <g>
       <use xlink:href="#m9720858f7a" x="250.8276" y="267.013969" style="stroke: #000000; stroke-width: 0.8"/>
      </g>
     </g>
     <g id="text_4">
      <!-- 0.20 -->
      <g transform="translate(237.468225 283.132094) scale(0.12 -0.12)">
       <defs>
        <path id="DejaVuSans-32" d="M 1228 531 
L 3431 531 
L 3431 0 
L 469 0 
L 469 531 
Q 828 903 1448 1529 
Q 2069 2156 2228 2338 
Q 2531 2678 2651 2914 
Q 2772 3150 2772 3378 
Q 2772 3750 2511 3984 
Q 2250 4219 1831 4219 
Q 1534 4219 1204 4116 
Q 875 4013 500 3803 
L 500 4441 
Q 881 4594 1212 4672 
Q 1544 4750 1819 4750 
Q 2544 4750 2975 4387 
Q 3406 4025 3406 3419 
Q 3406 3131 3298 2873 
Q 3191 2616 2906 2266 
Q 2828 2175 2409 1742 
Q 1991 1309 1228 531 
z
" transform="scale(0.015625)"/>
       </defs>
       <use xlink:href="#DejaVuSans-30"/>
       <use xlink:href="#DejaVuSans-2e" transform="translate(63.623047 0)"/>
       <use xlink:href="#DejaVuSans-32" transform="translate(95.410156 0)"/>
       <use xlink:href="#DejaVuSans-30" transform="translate(159.033203 0)"/>
      </g>
     </g>
    </g>
    <g id="xtick_5">
     <g id="line2d_9">
      <path d="M 303.046852 267.013969 
L 303.046852 23.077969 
" clip-path="url(#p9ce8d6af9e)" style="fill: none; stroke: #b0b0b0; stroke-opacity: 0.3; stroke-width: 0.8; stroke-linecap: square"/>
     </g>
     <g id="line2d_10">
      <g>
       <use xlink:href="#m9720858f7a" x="303.046852" y="267.013969" style="stroke: #000000; stroke-width: 0.8"/>
      </g>
     </g>
     <g id="text_5">
      <!-- 0.25 -->
      <g transform="translate(289.687477 283.132094) scale(0.12 -0.12)">
       <use xlink:href="#DejaVuSans-30"/>
       <use xlink:href="#DejaVuSans-2e" transform="translate(63.623047 0)"/>
       <use xlink:href="#DejaVuSans-32" transform="translate(95.410156 0)"/>
       <use xlink:href="#DejaVuSans-35" transform="translate(159.033203 0)"/>
      </g>
     </g>
    </g>
    <g id="xtick_6">
     <g id="line2d_11">
      <path d="M 355.266103 267.013969 
L 355.266103 23.077969 
" clip-path="url(#p9ce8d6af9e)" style="fill: none; stroke: #b0b0b0; stroke-opacity: 0.3; stroke-width: 0.8; stroke-linecap: square"/>
     </g>
     <g id="line2d_12">
      <g>
       <use xlink:href="#m9720858f7a" x="355.266103" y="267.013969" style="stroke: #000000; stroke-width: 0.8"/>
      </g>
     </g>
     <g id="text_6">
      <!-- 0.30 -->
      <g transform="translate(341.906728 283.132094) scale(0.12 -0.12)">
       <defs>
        <path id="DejaVuSans-33" d="M 2597 2516 
Q 3050 2419 3304 2112 
Q 3559 1806 3559 1356 
Q 3559 666 3084 287 
Q 2609 -91 1734 -91 
Q 1441 -91 1130 -33 
Q 819 25 488 141 
L 488 750 
Q 750 597 1062 519 
Q 1375 441 1716 441 
Q 2309 441 2620 675 
Q 2931 909 2931 1356 
Q 2931 1769 2642 2001 
Q 2353 2234 1838 2234 
L 1294 2234 
L 1294 2753 
L 1863 2753 
Q 2328 2753 2575 2939 
Q 2822 3125 2822 3475 
Q 2822 3834 2567 4026 
Q 2313 4219 1838 4219 
Q 1578 4219 1281 4162 
Q 984 4106 628 3988 
L 628 4550 
Q 988 4650 1302 4700 
Q 1616 4750 1894 4750 
Q 2613 4750 3031 4423 
Q 3450 4097 3450 3541 
Q 3450 3153 3228 2886 
Q 3006 2619 2597 2516 
z
" transform="scale(0.015625)"/>
       </defs>
       <use xlink:href="#DejaVuSans-30"/>
       <use xlink:href="#DejaVuSans-2e" transform="translate(63.623047 0)"/>
       <use xlink:href="#DejaVuSans-33" transform="translate(95.410156 0)"/>
       <use xlink:href="#DejaVuSans-30" transform="translate(159.033203 0)"/>
      </g>
     </g>
    </g>
    <g id="xtick_7">
     <g id="line2d_13">
      <path d="M 407.485354 267.013969 
L 407.485354 23.077969 
" clip-path="url(#p9ce8d6af9e)" style="fill: none; stroke: #b0b0b0; stroke-opacity: 0.3; stroke-width: 0.8; stroke-linecap: square"/>
     </g>
     <g id="line2d_14">
      <g>
       <use xlink:href="#m9720858f7a" x="407.485354" y="267.013969" style="stroke: #000000; stroke-width: 0.8"/>
      </g>
     </g>
     <g id="text_7">
      <!-- 0.35 -->
      <g transform="translate(394.125979 283.132094) scale(0.12 -0.12)">
       <use xlink:href="#DejaVuSans-30"/>
       <use xlink:href="#DejaVuSans-2e" transform="translate(63.623047 0)"/>
       <use xlink:href="#DejaVuSans-33" transform="translate(95.410156 0)"/>
       <use xlink:href="#DejaVuSans-35" transform="translate(159.033203 0)"/>
      </g>
     </g>
    </g>
    <g id="text_8">
     <!-- h (mm) -->
     <g transform="translate(218.30375 298.745844) scale(0.12 -0.12)">
      <defs>
       <path id="DejaVuSans-68" d="M 3513 2113 
L 3513 0 
L 2938 0 
L 2938 2094 
Q 2938 2591 2744 2837 
Q 2550 3084 2163 3084 
Q 1697 3084 1428 2787 
Q 1159 2491 1159 1978 
L 1159 0 
L 581 0 
L 581 4863 
L 1159 4863 
L 1159 2956 
Q 1366 3272 1645 3428 
Q 1925 3584 2291 3584 
Q 2894 3584 3203 3211 
Q 3513 2838 3513 2113 
z
" transform="scale(0.015625)"/>
       <path id="DejaVuSans-20" transform="scale(0.015625)"/>
       <path id="DejaVuSans-28" d="M 1984 4856 
Q 1566 4138 1362 3434 
Q 1159 2731 1159 2009 
Q 1159 1288 1364 580 
Q 1569 -128 1984 -844 
L 1484 -844 
Q 1016 -109 783 600 
Q 550 1309 550 2009 
Q 550 2706 781 3412 
Q 1013 4119 1484 4856 
L 1984 4856 
z
" transform="scale(0.015625)"/>
       <path id="DejaVuSans-6d" d="M 3328 2828 
Q 3544 3216 3844 3400 
Q 4144 3584 4550 3584 
Q 5097 3584 5394 3201 
Q 5691 2819 5691 2113 
L 5691 0 
L 5113 0 
L 5113 2094 
Q 5113 2597 4934 2840 
Q 4756 3084 4391 3084 
Q 3944 3084 3684 2787 
Q 3425 2491 3425 1978 
L 3425 0 
L 2847 0 
L 2847 2094 
Q 2847 2600 2669 2842 
Q 2491 3084 2119 3084 
Q 1678 3084 1418 2786 
Q 1159 2488 1159 1978 
L 1159 0 
L 581 0 
L 581 3500 
L 1159 3500 
L 1159 2956 
Q 1356 3278 1631 3431 
Q 1906 3584 2284 3584 
Q 2666 3584 2933 3390 
Q 3200 3197 3328 2828 
z
" transform="scale(0.015625)"/>
       <path id="DejaVuSans-29" d="M 513 4856 
L 1013 4856 
Q 1481 4119 1714 3412 
Q 1947 2706 1947 2009 
Q 1947 1309 1714 600 
Q 1481 -109 1013 -844 
L 513 -844 
Q 928 -128 1133 580 
Q 1338 1288 1338 2009 
Q 1338 2731 1133 3434 
Q 928 4138 513 4856 
z
" transform="scale(0.015625)"/>
      </defs>
      <use xlink:href="#DejaVuSans-68"/>
      <use xlink:href="#DejaVuSans-20" transform="translate(63.378906 0)"/>
      <use xlink:href="#DejaVuSans-28" transform="translate(95.166016 0)"/>
      <use xlink:href="#DejaVuSans-6d" transform="translate(134.179688 0)"/>
      <use xlink:href="#DejaVuSans-6d" transform="translate(231.591797 0)"/>
      <use xlink:href="#DejaVuSans-29" transform="translate(329.003906 0)"/>
     </g>
    </g>
   </g>
   <g id="matplotlib.axis_2">
    <g id="ytick_1">
     <g id="line2d_15">
      <path d="M 45.08375 253.740527 
L 435.68375 253.740527 
" clip-path="url(#p9ce8d6af9e)" style="fill: none; stroke: #b0b0b0; stroke-opacity: 0.3; stroke-width: 0.8; stroke-linecap: square"/>
     </g>
     <g id="line2d_16">
      <defs>
       <path id="m2cff1b9279" d="M 0 0 
L -3.5 0 
" style="stroke: #000000; stroke-width: 0.8"/>
      </defs>
      <g>
       <use xlink:href="#m2cff1b9279" x="45.08375" y="253.740527" style="stroke: #000000; stroke-width: 0.8"/>
      </g>
     </g>
     <g id="text_9">
      <!-- 10 -->
      <g transform="translate(22.81375 258.29959) scale(0.12 -0.12)">
       <use xlink:href="#DejaVuSans-31"/>
       <use xlink:href="#DejaVuSans-30" transform="translate(63.623047 0)"/>
      </g>
     </g>
    </g>
    <g id="ytick_2">
     <g id="line2d_17">
      <path d="M 45.08375 209.340831 
L 435.68375 209.340831 
" clip-path="url(#p9ce8d6af9e)" style="fill: none; stroke: #b0b0b0; stroke-opacity: 0.3; stroke-width: 0.8; stroke-linecap: square"/>
     </g>
     <g id="line2d_18">
      <g>
       <use xlink:href="#m2cff1b9279" x="45.08375" y="209.340831" style="stroke: #000000; stroke-width: 0.8"/>
      </g>
     </g>
     <g id="text_10">
      <!-- 12 -->
      <g transform="translate(22.81375 213.899894) scale(0.12 -0.12)">
       <use xlink:href="#DejaVuSans-31"/>
       <use xlink:href="#DejaVuSans-32" transform="translate(63.623047 0)"/>
      </g>
     </g>
    </g>
    <g id="ytick_3">
     <g id="line2d_19">
      <path d="M 45.08375 164.941136 
L 435.68375 164.941136 
" clip-path="url(#p9ce8d6af9e)" style="fill: none; stroke: #b0b0b0; stroke-opacity: 0.3; stroke-width: 0.8; stroke-linecap: square"/>
     </g>
     <g id="line2d_20">
      <g>
       <use xlink:href="#m2cff1b9279" x="45.08375" y="164.941136" style="stroke: #000000; stroke-width: 0.8"/>
      </g>
     </g>
     <g id="text_11">
      <!-- 14 -->
      <g transform="translate(22.81375 169.500198) scale(0.12 -0.12)">
       <defs>
        <path id="DejaVuSans-34" d="M 2419 4116 
L 825 1625 
L 2419 1625 
L 2419 4116 
z
M 2253 4666 
L 3047 4666 
L 3047 1625 
L 3713 1625 
L 3713 1100 
L 3047 1100 
L 3047 0 
L 2419 0 
L 2419 1100 
L 313 1100 
L 313 1709 
L 2253 4666 
z
" transform="scale(0.015625)"/>
       </defs>
       <use xlink:href="#DejaVuSans-31"/>
       <use xlink:href="#DejaVuSans-34" transform="translate(63.623047 0)"/>
      </g>
     </g>
    </g>
    <g id="ytick_4">
     <g id="line2d_21">
      <path d="M 45.08375 120.54144 
L 435.68375 120.54144 
" clip-path="url(#p9ce8d6af9e)" style="fill: none; stroke: #b0b0b0; stroke-opacity: 0.3; stroke-width: 0.8; stroke-linecap: square"/>
     </g>
     <g id="line2d_22">
      <g>
       <use xlink:href="#m2cff1b9279" x="45.08375" y="120.54144" style="stroke: #000000; stroke-width: 0.8"/>
      </g>
     </g>
     <g id="text_12">
      <!-- 16 -->
      <g transform="translate(22.81375 125.100503) scale(0.12 -0.12)">
       <defs>
        <path id="DejaVuSans-36" d="M 2113 2584 
Q 1688 2584 1439 2293 
Q 1191 2003 1191 1497 
Q 1191 994 1439 701 
Q 1688 409 2113 409 
Q 2538 409 2786 701 
Q 3034 994 3034 1497 
Q 3034 2003 2786 2293 
Q 2538 2584 2113 2584 
z
M 3366 4563 
L 3366 3988 
Q 3128 4100 2886 4159 
Q 2644 4219 2406 4219 
Q 1781 4219 1451 3797 
Q 1122 3375 1075 2522 
Q 1259 2794 1537 2939 
Q 1816 3084 2150 3084 
Q 2853 3084 3261 2657 
Q 3669 2231 3669 1497 
Q 3669 778 3244 343 
Q 2819 -91 2113 -91 
Q 1303 -91 875 529 
Q 447 1150 447 2328 
Q 447 3434 972 4092 
Q 1497 4750 2381 4750 
Q 2619 4750 2861 4703 
Q 3103 4656 3366 4563 
z
" transform="scale(0.015625)"/>
       </defs>
       <use xlink:href="#DejaVuSans-31"/>
       <use xlink:href="#DejaVuSans-36" transform="translate(63.623047 0)"/>
      </g>
     </g>
    </g>
    <g id="ytick_5">
     <g id="line2d_23">
      <path d="M 45.08375 76.141744 
L 435.68375 76.141744 
" clip-path="url(#p9ce8d6af9e)" style="fill: none; stroke: #b0b0b0; stroke-opacity: 0.3; stroke-width: 0.8; stroke-linecap: square"/>
     </g>
     <g id="line2d_24">
      <g>
       <use xlink:href="#m2cff1b9279" x="45.08375" y="76.141744" style="stroke: #000000; stroke-width: 0.8"/>
      </g>
     </g>
     <g id="text_13">
      <!-- 18 -->
      <g transform="translate(22.81375 80.700807) scale(0.12 -0.12)">
       <defs>
        <path id="DejaVuSans-38" d="M 2034 2216 
Q 1584 2216 1326 1975 
Q 1069 1734 1069 1313 
Q 1069 891 1326 650 
Q 1584 409 2034 409 
Q 2484 409 2743 651 
Q 3003 894 3003 1313 
Q 3003 1734 2745 1975 
Q 2488 2216 2034 2216 
z
M 1403 2484 
Q 997 2584 770 2862 
Q 544 3141 544 3541 
Q 544 4100 942 4425 
Q 1341 4750 2034 4750 
Q 2731 4750 3128 4425 
Q 3525 4100 3525 3541 
Q 3525 3141 3298 2862 
Q 3072 2584 2669 2484 
Q 3125 2378 3379 2068 
Q 3634 1759 3634 1313 
Q 3634 634 3220 271 
Q 2806 -91 2034 -91 
Q 1263 -91 848 271 
Q 434 634 434 1313 
Q 434 1759 690 2068 
Q 947 2378 1403 2484 
z
M 1172 3481 
Q 1172 3119 1398 2916 
Q 1625 2713 2034 2713 
Q 2441 2713 2670 2916 
Q 2900 3119 2900 3481 
Q 2900 3844 2670 4047 
Q 2441 4250 2034 4250 
Q 1625 4250 1398 4047 
Q 1172 3844 1172 3481 
z
" transform="scale(0.015625)"/>
       </defs>
       <use xlink:href="#DejaVuSans-31"/>
       <use xlink:href="#DejaVuSans-38" transform="translate(63.623047 0)"/>
      </g>
     </g>
    </g>
    <g id="ytick_6">
     <g id="line2d_25">
      <path d="M 45.08375 31.742049 
L 435.68375 31.742049 
" clip-path="url(#p9ce8d6af9e)" style="fill: none; stroke: #b0b0b0; stroke-opacity: 0.3; stroke-width: 0.8; stroke-linecap: square"/>
     </g>
     <g id="line2d_26">
      <g>
       <use xlink:href="#m2cff1b9279" x="45.08375" y="31.742049" style="stroke: #000000; stroke-width: 0.8"/>
      </g>
     </g>
     <g id="text_14">
      <!-- 20 -->
      <g transform="translate(22.81375 36.301111) scale(0.12 -0.12)">
       <use xlink:href="#DejaVuSans-32"/>
       <use xlink:href="#DejaVuSans-30" transform="translate(63.623047 0)"/>
      </g>
     </g>
    </g>
    <g id="text_15">
     <!-- T/Ω -->
     <g transform="translate(16.318125 155.317219) rotate(-90) scale(0.12 -0.12)">
      <defs>
       <path id="DejaVuSans-54" d="M -19 4666 
L 3928 4666 
L 3928 4134 
L 2272 4134 
L 2272 0 
L 1638 0 
L 1638 4134 
L -19 4134 
L -19 4666 
z
" transform="scale(0.015625)"/>
       <path id="DejaVuSans-2f" d="M 1625 4666 
L 2156 4666 
L 531 -594 
L 0 -594 
L 1625 4666 
z
" transform="scale(0.015625)"/>
       <path id="DejaVuSans-3a9" d="M 4647 556 
L 4647 0 
L 2772 0 
L 2772 556 
Q 3325 859 3634 1378 
Q 3944 1897 3944 2528 
Q 3944 3278 3531 3731 
Q 3119 4184 2444 4184 
Q 1769 4184 1355 3729 
Q 941 3275 941 2528 
Q 941 1897 1250 1378 
Q 1563 859 2119 556 
L 2119 0 
L 244 0 
L 244 556 
L 1241 556 
Q 747 991 519 1456 
Q 294 1922 294 2497 
Q 294 3491 894 4106 
Q 1491 4722 2444 4722 
Q 3391 4722 3994 4106 
Q 4594 3494 4594 2528 
Q 4594 1922 4372 1459 
Q 4150 997 3647 556 
L 4647 556 
z
" transform="scale(0.015625)"/>
      </defs>
      <use xlink:href="#DejaVuSans-54"/>
      <use xlink:href="#DejaVuSans-2f" transform="translate(61.083984 0)"/>
      <use xlink:href="#DejaVuSans-3a9" transform="translate(94.775391 0)"/>
     </g>
    </g>
   </g>
   <g id="line2d_27">
    <defs>
     <path id="mbe094398f1" d="M 0 2 
C 0.530406 2 1.03916 1.789267 1.414214 1.414214 
C 1.789267 1.03916 2 0.530406 2 0 
C 2 -0.530406 1.789267 -1.03916 1.414214 -1.414214 
C 1.03916 -1.789267 0.530406 -2 0 -2 
C -0.530406 -2 -1.03916 -1.789267 -1.414214 -1.414214 
C -1.789267 -1.03916 -2 -0.530406 -2 0 
C -2 0.530406 -1.789267 1.03916 -1.414214 1.414214 
C -1.03916 1.789267 -0.530406 2 0 2 
z
" style="stroke: #000000"/>
    </defs>
    <g clip-path="url(#p9ce8d6af9e)">
     <use xlink:href="#mbe094398f1" x="62.838295" y="79.588007" style="stroke: #000000"/>
     <use xlink:href="#mbe094398f1" x="83.725996" y="102.887275" style="stroke: #000000"/>
     <use xlink:href="#mbe094398f1" x="104.613697" y="120.54144" style="stroke: #000000"/>
     <use xlink:href="#mbe094398f1" x="125.501397" y="137.22304" style="stroke: #000000"/>
     <use xlink:href="#mbe094398f1" x="146.389098" y="151.17723" style="stroke: #000000"/>
     <use xlink:href="#mbe094398f1" x="167.276798" y="164.645138" style="stroke: #000000"/>
     <use xlink:href="#mbe094398f1" x="188.164499" y="175.597063" style="stroke: #000000"/>
     <use xlink:href="#mbe094398f1" x="209.052199" y="186.464417" style="stroke: #000000"/>
     <use xlink:href="#mbe094398f1" x="229.9399" y="195.450069" style="stroke: #000000"/>
     <use xlink:href="#mbe094398f1" x="250.8276" y="205.302573" style="stroke: #000000"/>
     <use xlink:href="#mbe094398f1" x="271.715301" y="213.569374" style="stroke: #000000"/>
     <use xlink:href="#mbe094398f1" x="292.603001" y="222.11103" style="stroke: #000000"/>
     <use xlink:href="#mbe094398f1" x="313.490702" y="228.686413" style="stroke: #000000"/>
     <use xlink:href="#mbe094398f1" x="334.378402" y="235.430938" style="stroke: #000000"/>
     <use xlink:href="#mbe094398f1" x="355.266103" y="240.991472" style="stroke: #000000"/>
     <use xlink:href="#mbe094398f1" x="376.153803" y="246.256007" style="stroke: #000000"/>
     <use xlink:href="#mbe094398f1" x="397.041504" y="250.759405" style="stroke: #000000"/>
     <use xlink:href="#mbe094398f1" x="417.929205" y="254.670806" style="stroke: #000000"/>
    </g>
   </g>
   <g id="line2d_28">
    <path d="M 62.838295 34.165969 
L 64.6182 49.30403 
L 66.398104 62.237834 
L 68.178008 73.416152 
L 69.957913 83.173674 
L 71.737817 91.765096 
L 73.517721 99.387667 
L 75.297626 106.196525 
L 77.07753 112.315365 
L 78.857434 117.84402 
L 80.637339 122.863948 
L 83.307195 129.583662 
L 85.977051 135.488381 
L 88.646908 140.717896 
L 91.316764 145.381759 
L 93.986621 149.567036 
L 96.656477 153.343799 
L 99.326334 156.769074 
L 101.99619 159.889747 
L 105.555999 163.643117 
L 109.115807 166.998624 
L 112.675616 170.016345 
L 116.235425 172.744841 
L 119.795233 175.22379 
L 124.244994 178.020887 
L 128.694755 180.531016 
L 133.144516 182.796184 
L 138.484228 185.238733 
L 143.823941 187.425228 
L 150.053606 189.703137 
L 156.283272 191.732811 
L 163.402889 193.79748 
L 170.522506 195.633489 
L 178.532075 197.470201 
L 187.431597 199.273794 
L 197.221071 201.018949 
L 207.900496 202.687932 
L 219.469874 204.269389 
L 232.819157 205.855917 
L 247.058391 207.320588 
L 263.07753 208.742868 
L 280.876573 210.099498 
L 301.345472 211.429461 
L 324.484228 212.70085 
L 350.292841 213.893825 
L 380.551214 215.060889 
L 415.259348 216.166609 
L 417.929205 216.243209 
L 417.929205 216.243209 
" clip-path="url(#p9ce8d6af9e)" style="fill: none; stroke: #1f77b4; stroke-width: 1.6; stroke-linecap: square"/>
   </g>
   <g id="line2d_29">
    <path d="M 62.838295 80.452399 
L 69.957913 88.032412 
L 77.07753 95.262595 
L 84.197147 102.166618 
L 91.316764 108.766066 
L 98.436382 115.080658 
L 106.445951 121.866501 
L 114.45552 128.338089 
L 122.46509 134.516759 
L 130.474659 140.421958 
L 138.484228 146.071448 
L 147.38375 152.06848 
L 156.283272 157.790219 
L 165.182793 163.255196 
L 174.972267 168.990239 
L 184.76174 174.455503 
L 194.551214 179.669586 
L 205.23064 185.091057 
L 215.910066 190.253685 
L 226.589492 195.175577 
L 238.15887 200.255009 
L 249.728248 205.090186 
L 262.187578 210.043834 
L 274.646908 214.753582 
L 287.99619 219.549025 
L 301.345472 224.104167 
L 315.584707 228.717944 
L 329.823941 233.097623 
L 344.953128 237.513937 
L 360.082315 241.704346 
L 376.101453 245.913778 
L 393.010544 250.12277 
L 410.809587 254.313862 
L 417.929205 255.925969 
L 417.929205 255.925969 
" clip-path="url(#p9ce8d6af9e)" style="fill: none; stroke: #ff7f0e; stroke-width: 1.6; stroke-linecap: square"/>
   </g>
   <g id="line2d_30">
    <path d="M 62.838295 80.52958 
L 69.957913 88.070749 
L 77.07753 95.270763 
L 84.197147 102.151892 
L 91.316764 108.734527 
L 98.436382 115.037371 
L 106.445951 121.814973 
L 114.45552 128.282585 
L 122.46509 134.460663 
L 130.474659 140.367915 
L 138.484228 146.021485 
L 147.38375 152.024801 
L 156.283272 157.754096 
L 165.182793 163.227418 
L 174.972267 168.972082 
L 184.76174 174.447021 
L 194.551214 179.670494 
L 205.23064 185.101575 
L 215.910066 190.272897 
L 226.589492 195.202368 
L 238.15887 200.288589 
L 249.728248 205.128952 
L 262.187578 210.086306 
L 274.646908 214.797759 
L 287.106238 219.280878 
L 300.45552 223.848926 
L 313.804803 228.190925 
L 328.044037 232.591361 
L 343.173224 237.024848 
L 358.30241 241.227765 
L 374.321549 245.445741 
L 391.23064 249.658933 
L 408.139731 253.645662 
L 417.929205 255.857209 
L 417.929205 255.857209 
" clip-path="url(#p9ce8d6af9e)" style="fill: none; stroke: #2ca02c; stroke-width: 1.6; stroke-linecap: square"/>
   </g>
   <g id="line2d_31">
    <path d="M 62.838295 89.209341 
L 66.398104 89.663671 
L 69.067961 90.220062 
L 71.737817 90.983821 
L 74.407673 91.961278 
L 77.07753 93.148421 
L 79.747386 94.533791 
L 83.307195 96.660771 
L 86.867004 99.065748 
L 91.316764 102.390795 
L 96.656477 106.733 
L 102.886142 112.118524 
L 113.565568 121.709161 
L 126.91485 133.636918 
L 135.814372 141.281816 
L 143.823941 147.867682 
L 151.833511 154.145809 
L 158.953128 159.460347 
L 166.072745 164.525567 
L 173.192362 169.347193 
L 181.201932 174.491054 
L 189.211501 179.352047 
L 197.221071 183.946008 
L 205.23064 188.289131 
L 213.240209 192.397397 
L 222.139731 196.705424 
L 231.039252 200.762588 
L 239.938774 204.587629 
L 249.728248 208.547767 
L 259.517721 212.269261 
L 270.197147 216.079576 
L 280.876573 219.651579 
L 292.445951 223.27596 
L 304.015329 226.667836 
L 316.474659 230.084318 
L 329.823941 233.498286 
L 343.173224 236.681532 
L 357.412458 239.847354 
L 372.541645 242.976837 
L 388.560783 246.054019 
L 405.469874 249.065747 
L 417.929205 251.144432 
L 417.929205 251.144432 
" clip-path="url(#p9ce8d6af9e)" style="fill: none; stroke: #d62728; stroke-width: 1.6; stroke-linecap: square"/>
   </g>
   <g id="patch_3">
    <path d="M 45.08375 267.013969 
L 45.08375 23.077969 
" style="fill: none; stroke: #000000; stroke-width: 0.8; stroke-linejoin: miter; stroke-linecap: square"/>
   </g>
   <g id="patch_4">
    <path d="M 435.68375 267.013969 
L 435.68375 23.077969 
" style="fill: none; stroke: #000000; stroke-width: 0.8; stroke-linejoin: miter; stroke-linecap: square"/>
   </g>
   <g id="patch_5">
    <path d="M 45.08375 267.013969 
L 435.68375 267.013969 
" style="fill: none; stroke: #000000; stroke-width: 0.8; stroke-linejoin: miter; stroke-linecap: square"/>
   </g>
   <g id="patch_6">
    <path d="M 45.08375 23.077969 
L 435.68375 23.077969 
" style="fill: none; stroke: #000000; stroke-width: 0.8; stroke-linejoin: miter; stroke-linecap: square"/>
   </g>
   <g id="text_16">
    <!-- Direct fits — 12.5kcp -->
    <g transform="translate(172.262734 17.077969) scale(0.13 -0.13)">
     <defs>
      <path id="DejaVuSans-44" d="M 1259 4147 
L 1259 519 
L 2022 519 
Q 2988 519 3436 956 
Q 3884 1394 3884 2338 
Q 3884 3275 3436 3711 
Q 2988 4147 2022 4147 
L 1259 4147 
z
M 628 4666 
L 1925 4666 
Q 3281 4666 3915 4102 
Q 4550 3538 4550 2338 
Q 4550 1131 3912 565 
Q 3275 0 1925 0 
L 628 0 
L 628 4666 
z
" transform="scale(0.015625)"/>
      <path id="DejaVuSans-69" d="M 603 3500 
L 1178 3500 
L 1178 0 
L 603 0 
L 603 3500 
z
M 603 4863 
L 1178 4863 
L 1178 4134 
L 603 4134 
L 603 4863 
z
" transform="scale(0.015625)"/>
      <path id="DejaVuSans-72" d="M 2631 2963 
Q 2534 3019 2420 3045 
Q 2306 3072 2169 3072 
Q 1681 3072 1420 2755 
Q 1159 2438 1159 1844 
L 1159 0 
L 581 0 
L 581 3500 
L 1159 3500 
L 1159 2956 
Q 1341 3275 1631 3429 
Q 1922 3584 2338 3584 
Q 2397 3584 2469 3576 
Q 2541 3569 2628 3553 
L 2631 2963 
z
" transform="scale(0.015625)"/>
      <path id="DejaVuSans-65" d="M 3597 1894 
L 3597 1613 
L 953 1613 
Q 991 1019 1311 708 
Q 1631 397 2203 397 
Q 2534 397 2845 478 
Q 3156 559 3463 722 
L 3463 178 
Q 3153 47 2828 -22 
Q 2503 -91 2169 -91 
Q 1331 -91 842 396 
Q 353 884 353 1716 
Q 353 2575 817 3079 
Q 1281 3584 2069 3584 
Q 2775 3584 3186 3129 
Q 3597 2675 3597 1894 
z
M 3022 2063 
Q 3016 2534 2758 2815 
Q 2500 3097 2075 3097 
Q 1594 3097 1305 2825 
Q 1016 2553 972 2059 
L 3022 2063 
z
" transform="scale(0.015625)"/>
      <path id="DejaVuSans-63" d="M 3122 3366 
L 3122 2828 
Q 2878 2963 2633 3030 
Q 2388 3097 2138 3097 
Q 1578 3097 1268 2742 
Q 959 2388 959 1747 
Q 959 1106 1268 751 
Q 1578 397 2138 397 
Q 2388 397 2633 464 
Q 2878 531 3122 666 
L 3122 134 
Q 2881 22 2623 -34 
Q 2366 -91 2075 -91 
Q 1284 -91 818 406 
Q 353 903 353 1747 
Q 353 2603 823 3093 
Q 1294 3584 2113 3584 
Q 2378 3584 2631 3529 
Q 2884 3475 3122 3366 
z
" transform="scale(0.015625)"/>
      <path id="DejaVuSans-74" d="M 1172 4494 
L 1172 3500 
L 2356 3500 
L 2356 3053 
L 1172 3053 
L 1172 1153 
Q 1172 725 1289 603 
Q 1406 481 1766 481 
L 2356 481 
L 2356 0 
L 1766 0 
Q 1100 0 847 248 
Q 594 497 594 1153 
L 594 3053 
L 172 3053 
L 172 3500 
L 594 3500 
L 594 4494 
L 1172 4494 
z
" transform="scale(0.015625)"/>
      <path id="DejaVuSans-66" d="M 2375 4863 
L 2375 4384 
L 1825 4384 
Q 1516 4384 1395 4259 
Q 1275 4134 1275 3809 
L 1275 3500 
L 2222 3500 
L 2222 3053 
L 1275 3053 
L 1275 0 
L 697 0 
L 697 3053 
L 147 3053 
L 147 3500 
L 697 3500 
L 697 3744 
Q 697 4328 969 4595 
Q 1241 4863 1831 4863 
L 2375 4863 
z
" transform="scale(0.015625)"/>
      <path id="DejaVuSans-73" d="M 2834 3397 
L 2834 2853 
Q 2591 2978 2328 3040 
Q 2066 3103 1784 3103 
Q 1356 3103 1142 2972 
Q 928 2841 928 2578 
Q 928 2378 1081 2264 
Q 1234 2150 1697 2047 
L 1894 2003 
Q 2506 1872 2764 1633 
Q 3022 1394 3022 966 
Q 3022 478 2636 193 
Q 2250 -91 1575 -91 
Q 1294 -91 989 -36 
Q 684 19 347 128 
L 347 722 
Q 666 556 975 473 
Q 1284 391 1588 391 
Q 1994 391 2212 530 
Q 2431 669 2431 922 
Q 2431 1156 2273 1281 
Q 2116 1406 1581 1522 
L 1381 1569 
Q 847 1681 609 1914 
Q 372 2147 372 2553 
Q 372 3047 722 3315 
Q 1072 3584 1716 3584 
Q 2034 3584 2315 3537 
Q 2597 3491 2834 3397 
z
" transform="scale(0.015625)"/>
      <path id="DejaVuSans-2014" d="M 313 1978 
L 6088 1978 
L 6088 1528 
L 313 1528 
L 313 1978 
z
" transform="scale(0.015625)"/>
      <path id="DejaVuSans-6b" d="M 581 4863 
L 1159 4863 
L 1159 1991 
L 2875 3500 
L 3609 3500 
L 1753 1863 
L 3688 0 
L 2938 0 
L 1159 1709 
L 1159 0 
L 581 0 
L 581 4863 
z
" transform="scale(0.015625)"/>
      <path id="DejaVuSans-70" d="M 1159 525 
L 1159 -1331 
L 581 -1331 
L 581 3500 
L 1159 3500 
L 1159 2969 
Q 1341 3281 1617 3432 
Q 1894 3584 2278 3584 
Q 2916 3584 3314 3078 
Q 3713 2572 3713 1747 
Q 3713 922 3314 415 
Q 2916 -91 2278 -91 
Q 1894 -91 1617 61 
Q 1341 213 1159 525 
z
M 3116 1747 
Q 3116 2381 2855 2742 
Q 2594 3103 2138 3103 
Q 1681 3103 1420 2742 
Q 1159 2381 1159 1747 
Q 1159 1113 1420 752 
Q 1681 391 2138 391 
Q 2594 391 2855 752 
Q 3116 1113 3116 1747 
z
" transform="scale(0.015625)"/>
     </defs>
     <use xlink:href="#DejaVuSans-44"/>
     <use xlink:href="#DejaVuSans-69" transform="translate(77.001953 0)"/>
     <use xlink:href="#DejaVuSans-72" transform="translate(104.785156 0)"/>
     <use xlink:href="#DejaVuSans-65" transform="translate(143.648438 0)"/>
     <use xlink:href="#DejaVuSans-63" transform="translate(205.171875 0)"/>
     <use xlink:href="#DejaVuSans-74" transform="translate(260.152344 0)"/>
     <use xlink:href="#DejaVuSans-20" transform="translate(299.361328 0)"/>
     <use xlink:href="#DejaVuSans-66" transform="translate(331.148438 0)"/>
     <use xlink:href="#DejaVuSans-69" transform="translate(366.353516 0)"/>
     <use xlink:href="#DejaVuSans-74" transform="translate(394.136719 0)"/>
     <use xlink:href="#DejaVuSans-73" transform="translate(433.345703 0)"/>
     <use xlink:href="#DejaVuSans-20" transform="translate(485.445312 0)"/>
     <use xlink:href="#DejaVuSans-2014" transform="translate(517.232422 0)"/>
     <use xlink:href="#DejaVuSans-20" transform="translate(617.232422 0)"/>
     <use xlink:href="#DejaVuSans-31" transform="translate(649.019531 0)"/>
     <use xlink:href="#DejaVuSans-32" transform="translate(712.642578 0)"/>
     <use xlink:href="#DejaVuSans-2e" transform="translate(776.265625 0)"/>
     <use xlink:href="#DejaVuSans-35" transform="translate(808.052734 0)"/>
     <use xlink:href="#DejaVuSans-6b" transform="translate(871.675781 0)"/>
     <use xlink:href="#DejaVuSans-63" transform="translate(929.585938 0)"/>
     <use xlink:href="#DejaVuSans-70" transform="translate(984.566406 0)"/>
    </g>
   </g>
   <g id="legend_1">
    <g id="patch_7">
     <path d="M 340.413438 104.746719 
L 428.68375 104.746719 
Q 430.68375 104.746719 430.68375 102.746719 
L 430.68375 30.077969 
Q 430.68375 28.077969 428.68375 28.077969 
L 340.413438 28.077969 
Q 338.413438 28.077969 338.413438 30.077969 
L 338.413438 102.746719 
Q 338.413438 104.746719 340.413438 104.746719 
z
" style="fill: #ffffff; opacity: 0.8; stroke: #cccccc; stroke-linejoin: miter"/>
    </g>
    <g id="line2d_32">
     <g>
      <use xlink:href="#mbe094398f1" x="352.413438" y="36.176406" style="stroke: #000000"/>
     </g>
    </g>
    <g id="text_17">
     <!-- data -->
     <g transform="translate(370.413438 39.676406) scale(0.1 -0.1)">
      <defs>
       <path id="DejaVuSans-64" d="M 2906 2969 
L 2906 4863 
L 3481 4863 
L 3481 0 
L 2906 0 
L 2906 525 
Q 2725 213 2448 61 
Q 2172 -91 1784 -91 
Q 1150 -91 751 415 
Q 353 922 353 1747 
Q 353 2572 751 3078 
Q 1150 3584 1784 3584 
Q 2172 3584 2448 3432 
Q 2725 3281 2906 2969 
z
M 947 1747 
Q 947 1113 1208 752 
Q 1469 391 1925 391 
Q 2381 391 2643 752 
Q 2906 1113 2906 1747 
Q 2906 2381 2643 2742 
Q 2381 3103 1925 3103 
Q 1469 3103 1208 2742 
Q 947 2381 947 1747 
z
" transform="scale(0.015625)"/>
       <path id="DejaVuSans-61" d="M 2194 1759 
Q 1497 1759 1228 1600 
Q 959 1441 959 1056 
Q 959 750 1161 570 
Q 1363 391 1709 391 
Q 2188 391 2477 730 
Q 2766 1069 2766 1631 
L 2766 1759 
L 2194 1759 
z
M 3341 1997 
L 3341 0 
L 2766 0 
L 2766 531 
Q 2569 213 2275 61 
Q 1981 -91 1556 -91 
Q 1019 -91 701 211 
Q 384 513 384 1019 
Q 384 1609 779 1909 
Q 1175 2209 1959 2209 
L 2766 2209 
L 2766 2266 
Q 2766 2663 2505 2880 
Q 2244 3097 1772 3097 
Q 1472 3097 1187 3025 
Q 903 2953 641 2809 
L 641 3341 
Q 956 3463 1253 3523 
Q 1550 3584 1831 3584 
Q 2591 3584 2966 3190 
Q 3341 2797 3341 1997 
z
" transform="scale(0.015625)"/>
      </defs>
      <use xlink:href="#DejaVuSans-64"/>
      <use xlink:href="#DejaVuSans-61" transform="translate(63.476562 0)"/>
      <use xlink:href="#DejaVuSans-74" transform="translate(124.755859 0)"/>
      <use xlink:href="#DejaVuSans-61" transform="translate(163.964844 0)"/>
     </g>
    </g>
    <g id="line2d_33">
     <path d="M 342.413438 50.854531 
L 352.413438 50.854531 
L 362.413438 50.854531 
" style="fill: none; stroke: #1f77b4; stroke-width: 1.6; stroke-linecap: square"/>
    </g>
    <g id="text_18">
     <!-- hyperbolic -->
     <g transform="translate(370.413438 54.354531) scale(0.1 -0.1)">
      <defs>
       <path id="DejaVuSans-79" d="M 2059 -325 
Q 1816 -950 1584 -1140 
Q 1353 -1331 966 -1331 
L 506 -1331 
L 506 -850 
L 844 -850 
Q 1081 -850 1212 -737 
Q 1344 -625 1503 -206 
L 1606 56 
L 191 3500 
L 800 3500 
L 1894 763 
L 2988 3500 
L 3597 3500 
L 2059 -325 
z
" transform="scale(0.015625)"/>
       <path id="DejaVuSans-62" d="M 3116 1747 
Q 3116 2381 2855 2742 
Q 2594 3103 2138 3103 
Q 1681 3103 1420 2742 
Q 1159 2381 1159 1747 
Q 1159 1113 1420 752 
Q 1681 391 2138 391 
Q 2594 391 2855 752 
Q 3116 1113 3116 1747 
z
M 1159 2969 
Q 1341 3281 1617 3432 
Q 1894 3584 2278 3584 
Q 2916 3584 3314 3078 
Q 3713 2572 3713 1747 
Q 3713 922 3314 415 
Q 2916 -91 2278 -91 
Q 1894 -91 1617 61 
Q 1341 213 1159 525 
L 1159 0 
L 581 0 
L 581 4863 
L 1159 4863 
L 1159 2969 
z
" transform="scale(0.015625)"/>
       <path id="DejaVuSans-6f" d="M 1959 3097 
Q 1497 3097 1228 2736 
Q 959 2375 959 1747 
Q 959 1119 1226 758 
Q 1494 397 1959 397 
Q 2419 397 2687 759 
Q 2956 1122 2956 1747 
Q 2956 2369 2687 2733 
Q 2419 3097 1959 3097 
z
M 1959 3584 
Q 2709 3584 3137 3096 
Q 3566 2609 3566 1747 
Q 3566 888 3137 398 
Q 2709 -91 1959 -91 
Q 1206 -91 779 398 
Q 353 888 353 1747 
Q 353 2609 779 3096 
Q 1206 3584 1959 3584 
z
" transform="scale(0.015625)"/>
       <path id="DejaVuSans-6c" d="M 603 4863 
L 1178 4863 
L 1178 0 
L 603 0 
L 603 4863 
z
" transform="scale(0.015625)"/>
      </defs>
      <use xlink:href="#DejaVuSans-68"/>
      <use xlink:href="#DejaVuSans-79" transform="translate(63.378906 0)"/>
      <use xlink:href="#DejaVuSans-70" transform="translate(122.558594 0)"/>
      <use xlink:href="#DejaVuSans-65" transform="translate(186.035156 0)"/>
      <use xlink:href="#DejaVuSans-72" transform="translate(247.558594 0)"/>
      <use xlink:href="#DejaVuSans-62" transform="translate(288.671875 0)"/>
      <use xlink:href="#DejaVuSans-6f" transform="translate(352.148438 0)"/>
      <use xlink:href="#DejaVuSans-6c" transform="translate(413.330078 0)"/>
      <use xlink:href="#DejaVuSans-69" transform="translate(441.113281 0)"/>
      <use xlink:href="#DejaVuSans-63" transform="translate(468.896484 0)"/>
     </g>
    </g>
    <g id="line2d_34">
     <path d="M 342.413438 65.532656 
L 352.413438 65.532656 
L 362.413438 65.532656 
" style="fill: none; stroke: #ff7f0e; stroke-width: 1.6; stroke-linecap: square"/>
    </g>
    <g id="text_19">
     <!-- regularized -->
     <g transform="translate(370.413438 69.032656) scale(0.1 -0.1)">
      <defs>
       <path id="DejaVuSans-67" d="M 2906 1791 
Q 2906 2416 2648 2759 
Q 2391 3103 1925 3103 
Q 1463 3103 1205 2759 
Q 947 2416 947 1791 
Q 947 1169 1205 825 
Q 1463 481 1925 481 
Q 2391 481 2648 825 
Q 2906 1169 2906 1791 
z
M 3481 434 
Q 3481 -459 3084 -895 
Q 2688 -1331 1869 -1331 
Q 1566 -1331 1297 -1286 
Q 1028 -1241 775 -1147 
L 775 -588 
Q 1028 -725 1275 -790 
Q 1522 -856 1778 -856 
Q 2344 -856 2625 -561 
Q 2906 -266 2906 331 
L 2906 616 
Q 2728 306 2450 153 
Q 2172 0 1784 0 
Q 1141 0 747 490 
Q 353 981 353 1791 
Q 353 2603 747 3093 
Q 1141 3584 1784 3584 
Q 2172 3584 2450 3431 
Q 2728 3278 2906 2969 
L 2906 3500 
L 3481 3500 
L 3481 434 
z
" transform="scale(0.015625)"/>
       <path id="DejaVuSans-75" d="M 544 1381 
L 544 3500 
L 1119 3500 
L 1119 1403 
Q 1119 906 1312 657 
Q 1506 409 1894 409 
Q 2359 409 2629 706 
Q 2900 1003 2900 1516 
L 2900 3500 
L 3475 3500 
L 3475 0 
L 2900 0 
L 2900 538 
Q 2691 219 2414 64 
Q 2138 -91 1772 -91 
Q 1169 -91 856 284 
Q 544 659 544 1381 
z
M 1991 3584 
L 1991 3584 
z
" transform="scale(0.015625)"/>
       <path id="DejaVuSans-7a" d="M 353 3500 
L 3084 3500 
L 3084 2975 
L 922 459 
L 3084 459 
L 3084 0 
L 275 0 
L 275 525 
L 2438 3041 
L 353 3041 
L 353 3500 
z
" transform="scale(0.015625)"/>
      </defs>
      <use xlink:href="#DejaVuSans-72"/>
      <use xlink:href="#DejaVuSans-65" transform="translate(38.863281 0)"/>
      <use xlink:href="#DejaVuSans-67" transform="translate(100.386719 0)"/>
      <use xlink:href="#DejaVuSans-75" transform="translate(163.863281 0)"/>
      <use xlink:href="#DejaVuSans-6c" transform="translate(227.242188 0)"/>
      <use xlink:href="#DejaVuSans-61" transform="translate(255.025391 0)"/>
      <use xlink:href="#DejaVuSans-72" transform="translate(316.304688 0)"/>
      <use xlink:href="#DejaVuSans-69" transform="translate(357.417969 0)"/>
      <use xlink:href="#DejaVuSans-7a" transform="translate(385.201172 0)"/>
      <use xlink:href="#DejaVuSans-65" transform="translate(437.691406 0)"/>
      <use xlink:href="#DejaVuSans-64" transform="translate(499.214844 0)"/>
     </g>
    </g>
    <g id="line2d_35">
     <path d="M 342.413438 80.210781 
L 352.413438 80.210781 
L 362.413438 80.210781 
" style="fill: none; stroke: #2ca02c; stroke-width: 1.6; stroke-linecap: square"/>
    </g>
    <g id="text_20">
     <!-- gen_power -->
     <g transform="translate(370.413438 83.710781) scale(0.1 -0.1)">
      <defs>
       <path id="DejaVuSans-6e" d="M 3513 2113 
L 3513 0 
L 2938 0 
L 2938 2094 
Q 2938 2591 2744 2837 
Q 2550 3084 2163 3084 
Q 1697 3084 1428 2787 
Q 1159 2491 1159 1978 
L 1159 0 
L 581 0 
L 581 3500 
L 1159 3500 
L 1159 2956 
Q 1366 3272 1645 3428 
Q 1925 3584 2291 3584 
Q 2894 3584 3203 3211 
Q 3513 2838 3513 2113 
z
" transform="scale(0.015625)"/>
       <path id="DejaVuSans-5f" d="M 3263 -1063 
L 3263 -1509 
L -63 -1509 
L -63 -1063 
L 3263 -1063 
z
" transform="scale(0.015625)"/>
       <path id="DejaVuSans-77" d="M 269 3500 
L 844 3500 
L 1563 769 
L 2278 3500 
L 2956 3500 
L 3675 769 
L 4391 3500 
L 4966 3500 
L 4050 0 
L 3372 0 
L 2619 2869 
L 1863 0 
L 1184 0 
L 269 3500 
z
" transform="scale(0.015625)"/>
      </defs>
      <use xlink:href="#DejaVuSans-67"/>
      <use xlink:href="#DejaVuSans-65" transform="translate(63.476562 0)"/>
      <use xlink:href="#DejaVuSans-6e" transform="translate(125 0)"/>
      <use xlink:href="#DejaVuSans-5f" transform="translate(188.378906 0)"/>
      <use xlink:href="#DejaVuSans-70" transform="translate(238.378906 0)"/>
      <use xlink:href="#DejaVuSans-6f" transform="translate(301.855469 0)"/>
      <use xlink:href="#DejaVuSans-77" transform="translate(363.037109 0)"/>
      <use xlink:href="#DejaVuSans-65" transform="translate(444.824219 0)"/>
      <use xlink:href="#DejaVuSans-72" transform="translate(506.347656 0)"/>
     </g>
    </g>
    <g id="line2d_36">
     <path d="M 342.413438 95.167031 
L 352.413438 95.167031 
L 362.413438 95.167031 
" style="fill: none; stroke: #d62728; stroke-width: 1.6; stroke-linecap: square"/>
    </g>
    <g id="text_21">
     <!-- saturation -->
     <g transform="translate(370.413438 98.667031) scale(0.1 -0.1)">
      <use xlink:href="#DejaVuSans-73"/>
      <use xlink:href="#DejaVuSans-61" transform="translate(52.099609 0)"/>
      <use xlink:href="#DejaVuSans-74" transform="translate(113.378906 0)"/>
      <use xlink:href="#DejaVuSans-75" transform="translate(152.587891 0)"/>
      <use xlink:href="#DejaVuSans-72" transform="translate(215.966797 0)"/>
      <use xlink:href="#DejaVuSans-61" transform="translate(257.080078 0)"/>
      <use xlink:href="#DejaVuSans-74" transform="translate(318.359375 0)"/>
      <use xlink:href="#DejaVuSans-69" transform="translate(357.568359 0)"/>
      <use xlink:href="#DejaVuSans-6f" transform="translate(385.351562 0)"/>
      <use xlink:href="#DejaVuSans-6e" transform="translate(446.533203 0)"/>
     </g>
    </g>
   </g>
  </g>
 </g>
 <defs>
  <clipPath id="p9ce8d6af9e">
   <rect x="45.08375" y="23.077969" width="390.6" height="243.936"/>
  </clipPath>
 </defs>
</svg>
