<?xml version="1.0" encoding="utf-8" standalone="no"?>
<!DOCTYPE svg PUBLIC "-//W3C//DTD SVG 1.1//EN"
  "http://www.w3.org/Graphics/SVG/1.1/DTD/svg11.dtd">
<svg xmlns:xlink="http://www.w3.org/1999/xlink" width="432pt" height="432pt" viewBox="0 0 432 432" xmlns="http://www.w3.org/2000/svg" version="1.1">
 <metadata>
  <rdf:RDF xmlns:dc="http://purl.org/dc/elements/1.1/" xmlns:cc="http://creativecommons.org/ns#" xmlns:rdf="http://www.w3.org/1999/02/22-rdf-syntax-ns#">
   <cc:Work>
    <dc:type rdf:resource="http://purl.org/dc/dcmitype/StillImage"/>
    <dc:date>2026-06-22T11:01:03.508502</dc:date>
    <dc:format>image/svg+xml</dc:format>
    <dc:creator>
     <cc:Agent>
      <dc:title>Matplotlib v3.10.0, https://matplotlib.org/</dc:title>
     </cc:Agent>
    </dc:creator>
   </cc:Work>
  </rdf:RDF>
 </metadata>
 <defs>
  <style type="text/css">*{stroke-linejoin: round; stroke-linecap: butt}</style>
 </defs>
 <g id="figure_1">
  <g id="patch_1">
   <path d="M 0 432 
L 432 432 
L 432 0 
L 0 0 
z
" style="fill: #ffffff"/>
  </g>
  <g id="axes_1">
   <g id="patch_2">
    <path d="M 65.605455 377.276364 
L 415.010455 377.276364 
L 415.010455 12.96 
L 65.605455 12.96 
z
" style="fill: #ffffff"/>
   </g>
   <g id="FillBetweenPolyCollection_1">
    <defs>
     <path id="m029a608599" d="M 81.4875 -402.480165 
L 81.4875 -397.796226 
L 82.549844 -395.689707 
L 83.612188 -393.591394 
L 84.674533 -391.509819 
L 85.736877 -389.442378 
L 86.799221 -387.388906 
L 87.861565 -385.349243 
L 88.923909 -383.32323 
L 89.986253 -381.294362 
L 91.048598 -379.282037 
L 92.110942 -377.292609 
L 93.173286 -375.316167 
L 94.23563 -373.352372 
L 95.297974 -371.401679 
L 96.360318 -369.483479 
L 97.422663 -367.550735 
L 98.485007 -365.628892 
L 99.547351 -363.720004 
L 100.609695 -361.829221 
L 101.672039 -359.950202 
L 102.734384 -358.082824 
L 103.796728 -356.226969 
L 104.859072 -354.38252 
L 105.921416 -352.54726 
L 106.98376 -350.719768 
L 108.046104 -348.903695 
L 109.108449 -347.098918 
L 110.170793 -345.305318 
L 111.233137 -343.522806 
L 112.295481 -341.751296 
L 113.357825 -339.993645 
L 114.42017 -338.249999 
L 115.482514 -336.516895 
L 116.544858 -334.794196 
L 117.607202 -333.081807 
L 118.669546 -331.379643 
L 119.73189 -329.6864 
L 120.794235 -327.997448 
L 121.856579 -326.324033 
L 122.918923 -324.663401 
L 123.981267 -323.008625 
L 125.043611 -321.353879 
L 126.105955 -319.708623 
L 127.1683 -318.083199 
L 128.230644 -316.467226 
L 129.292988 -314.849251 
L 130.355332 -313.250646 
L 131.417676 -311.661195 
L 132.480021 -310.080688 
L 133.542365 -308.492971 
L 134.604709 -306.917897 
L 135.667053 -305.360548 
L 136.729397 -303.812226 
L 137.791741 -302.272569 
L 138.854086 -300.740131 
L 139.91643 -299.191854 
L 140.978774 -297.669659 
L 142.041118 -296.148071 
L 143.103462 -294.630699 
L 144.165806 -293.122214 
L 145.228151 -291.62252 
L 146.290495 -290.131523 
L 147.352839 -288.649132 
L 148.415183 -287.175257 
L 149.477527 -285.709807 
L 150.539872 -284.252695 
L 151.602216 -282.804034 
L 152.66456 -281.360319 
L 153.726904 -279.924482 
L 154.789248 -278.496782 
L 155.851592 -277.077134 
L 156.913937 -275.671082 
L 157.976281 -274.273136 
L 159.038625 -272.878609 
L 160.100969 -271.502082 
L 161.163313 -270.123848 
L 162.225657 -268.753164 
L 163.288002 -267.389922 
L 164.350346 -266.034329 
L 165.41269 -264.692232 
L 166.475034 -263.353356 
L 167.537378 -262.023283 
L 168.599723 -260.700125 
L 169.662067 -259.383816 
L 170.724411 -258.074329 
L 171.786755 -256.771927 
L 172.849099 -255.47918 
L 173.911443 -254.186607 
L 174.973788 -252.903543 
L 176.036132 -251.626955 
L 177.098476 -250.356782 
L 178.16082 -249.092965 
L 179.223164 -247.835446 
L 180.285509 -246.584168 
L 181.347853 -245.339075 
L 182.410197 -244.099386 
L 183.472541 -242.861786 
L 184.534885 -241.630303 
L 185.597229 -240.400779 
L 186.659574 -239.173856 
L 187.721918 -237.952862 
L 188.784262 -236.73775 
L 189.846606 -235.528471 
L 190.90895 -234.324979 
L 191.971294 -233.134904 
L 193.033639 -231.95074 
L 194.095983 -230.772244 
L 195.158327 -229.599367 
L 196.220671 -228.433028 
L 197.283015 -227.272456 
L 198.34536 -226.116788 
L 199.407704 -224.962945 
L 200.470048 -223.818107 
L 201.532392 -222.678979 
L 202.594736 -221.54511 
L 203.65708 -220.416457 
L 204.719425 -219.292975 
L 205.781769 -218.174622 
L 206.844113 -217.058016 
L 207.906457 -215.950361 
L 208.968801 -214.84144 
L 210.031145 -213.744576 
L 211.09349 -212.652679 
L 212.155834 -211.558897 
L 213.218178 -210.471416 
L 214.280522 -209.389785 
L 215.342866 -208.305015 
L 216.405211 -207.224017 
L 217.467555 -206.147837 
L 218.529899 -205.078294 
L 219.592243 -204.015413 
L 220.654587 -202.957342 
L 221.716931 -201.900953 
L 222.779276 -200.841418 
L 223.84162 -199.789384 
L 224.903964 -198.742075 
L 225.966308 -197.69602 
L 227.028652 -196.654587 
L 228.090997 -195.617749 
L 229.153341 -194.585531 
L 230.215685 -193.573916 
L 231.278029 -192.555426 
L 232.340373 -191.538232 
L 233.402717 -190.535077 
L 234.465062 -189.534092 
L 235.527406 -188.530482 
L 236.58975 -187.527621 
L 237.652094 -186.525467 
L 238.714438 -185.527679 
L 239.776782 -184.534266 
L 240.839127 -183.550196 
L 241.901471 -182.570373 
L 242.963815 -181.595466 
L 244.026159 -180.628718 
L 245.088503 -179.666217 
L 246.150848 -178.70805 
L 247.213192 -177.75415 
L 248.275536 -176.804422 
L 249.33788 -175.857308 
L 250.400224 -174.910373 
L 251.462568 -173.970648 
L 252.524913 -173.036896 
L 253.587257 -172.106885 
L 254.649601 -171.18059 
L 255.711945 -170.251707 
L 256.774289 -169.325652 
L 257.836633 -168.403406 
L 258.898978 -167.485115 
L 259.961322 -166.572143 
L 261.023666 -165.659778 
L 262.08601 -164.751319 
L 263.148354 -163.847319 
L 264.210699 -162.946928 
L 265.273043 -162.050126 
L 266.335387 -161.156912 
L 267.397731 -160.267289 
L 268.460075 -159.381192 
L 269.522419 -158.498595 
L 270.584764 -157.620216 
L 271.647108 -156.747481 
L 272.709452 -155.880929 
L 273.771796 -155.017944 
L 274.83414 -154.158508 
L 275.896484 -153.3026 
L 276.958829 -152.446962 
L 278.021173 -151.590646 
L 279.083517 -150.737618 
L 280.145861 -149.887858 
L 281.208205 -149.041347 
L 282.27055 -148.198067 
L 283.332894 -147.357998 
L 284.395238 -146.521122 
L 285.457582 -145.68742 
L 286.519926 -144.856875 
L 287.58227 -144.028858 
L 288.644615 -143.202908 
L 289.706959 -142.383464 
L 290.769303 -141.565638 
L 291.831647 -140.75049 
L 292.893991 -139.938445 
L 293.956336 -139.129482 
L 295.01868 -138.323612 
L 296.081024 -137.521856 
L 297.143368 -136.728255 
L 298.205712 -135.937978 
L 299.268056 -135.14847 
L 300.330401 -134.366386 
L 301.392745 -133.585093 
L 302.455089 -132.806825 
L 303.517433 -132.031564 
L 304.579777 -131.254997 
L 305.642121 -130.477309 
L 306.704466 -129.702461 
L 307.76681 -128.930435 
L 308.829154 -128.161216 
L 309.891498 -127.394875 
L 310.953842 -126.631314 
L 312.016187 -125.872485 
L 313.078531 -125.120457 
L 314.140875 -124.371209 
L 315.203219 -123.620172 
L 316.265563 -122.870916 
L 317.327907 -122.124309 
L 318.390252 -121.380324 
L 319.452596 -120.638945 
L 320.51494 -119.90016 
L 321.577284 -119.163952 
L 322.639628 -118.430309 
L 323.701972 -117.699107 
L 324.764317 -116.970555 
L 325.826661 -116.244455 
L 326.889005 -115.520955 
L 327.951349 -114.8024 
L 329.013693 -114.087049 
L 330.076038 -113.374239 
L 331.138382 -112.663955 
L 332.200726 -111.956185 
L 333.26307 -111.247437 
L 334.325414 -110.540888 
L 335.387758 -109.836745 
L 336.450103 -109.134995 
L 337.512447 -108.435625 
L 338.574791 -107.738623 
L 339.637135 -107.043976 
L 340.699479 -106.351671 
L 341.761824 -105.661697 
L 342.824168 -104.974041 
L 343.886512 -104.288691 
L 344.948856 -103.605634 
L 346.0112 -102.924859 
L 347.073544 -102.246354 
L 348.135889 -101.570177 
L 349.198233 -100.896266 
L 350.260577 -100.224592 
L 351.322921 -99.555141 
L 352.385265 -98.890999 
L 353.447609 -98.229679 
L 354.509954 -97.570593 
L 355.572298 -96.912047 
L 356.634642 -96.25044 
L 357.696986 -95.590987 
L 358.75933 -94.933676 
L 359.821675 -94.278497 
L 360.884019 -93.627358 
L 361.946363 -92.979345 
L 363.008707 -92.333433 
L 364.071051 -91.689611 
L 365.133395 -91.047982 
L 366.19574 -90.408431 
L 367.258084 -89.770136 
L 368.320428 -89.131135 
L 369.382772 -88.499445 
L 370.445116 -87.869784 
L 371.50746 -87.241904 
L 372.569805 -86.616402 
L 373.632149 -85.989573 
L 374.694493 -85.368627 
L 375.756837 -84.749692 
L 376.819181 -84.131228 
L 377.881526 -83.507067 
L 378.94387 -82.890893 
L 380.006214 -82.274505 
L 381.068558 -81.658509 
L 382.130902 -81.042032 
L 383.193246 -80.429434 
L 384.255591 -79.809896 
L 385.317935 -79.198025 
L 386.380279 -78.575876 
L 387.442623 -77.959698 
L 388.504967 -77.348521 
L 389.567311 -76.736586 
L 390.629656 -76.134084 
L 391.692 -75.528746 
L 392.754344 -74.925817 
L 393.816688 -74.32111 
L 394.879032 -73.71649 
L 395.941377 -73.118271 
L 397.003721 -72.522786 
L 398.066065 -71.926335 
L 399.128409 -71.322374 
L 399.128409 -74.994259 
L 399.128409 -74.994259 
L 398.066065 -75.535112 
L 397.003721 -76.077932 
L 395.941377 -76.622728 
L 394.879032 -77.16951 
L 393.816688 -77.718287 
L 392.754344 -78.26907 
L 391.692 -78.821867 
L 390.629656 -79.376689 
L 389.567311 -79.933546 
L 388.504967 -80.49584 
L 387.442623 -81.062406 
L 386.380279 -81.630967 
L 385.317935 -82.201531 
L 384.255591 -82.771617 
L 383.193246 -83.338919 
L 382.130902 -83.908358 
L 381.068558 -84.479944 
L 380.006214 -85.053687 
L 378.94387 -85.629598 
L 377.881526 -86.207688 
L 376.819181 -86.787967 
L 375.756837 -87.370446 
L 374.694493 -87.955136 
L 373.632149 -88.542048 
L 372.569805 -89.131192 
L 371.50746 -89.723378 
L 370.445116 -90.318763 
L 369.382772 -90.916378 
L 368.320428 -91.516235 
L 367.258084 -92.118344 
L 366.19574 -92.722716 
L 365.133395 -93.329363 
L 364.071051 -93.938297 
L 363.008707 -94.549449 
L 361.946363 -95.162821 
L 360.884019 -95.778517 
L 359.821675 -96.396549 
L 358.75933 -97.016929 
L 357.696986 -97.639668 
L 356.634642 -98.264779 
L 355.572298 -98.892272 
L 354.509954 -99.522161 
L 353.447609 -100.154458 
L 352.385265 -100.789174 
L 351.322921 -101.426321 
L 350.260577 -102.065913 
L 349.198233 -102.707962 
L 348.135889 -103.35248 
L 347.073544 -103.999479 
L 346.0112 -104.651352 
L 344.948856 -105.309428 
L 343.886512 -105.969947 
L 342.824168 -106.63292 
L 341.761824 -107.29836 
L 340.699479 -107.958961 
L 339.637135 -108.614794 
L 338.574791 -109.273298 
L 337.512447 -109.937048 
L 336.450103 -110.617445 
L 335.387758 -111.30033 
L 334.325414 -111.985603 
L 333.26307 -112.673336 
L 332.200726 -113.3636 
L 331.138382 -114.05641 
L 330.076038 -114.751779 
L 329.013693 -115.448507 
L 327.951349 -116.141762 
L 326.889005 -116.837805 
L 325.826661 -117.536333 
L 324.764317 -118.237673 
L 323.701972 -118.941445 
L 322.639628 -119.642966 
L 321.577284 -120.347308 
L 320.51494 -121.054487 
L 319.452596 -121.764518 
L 318.390252 -122.50652 
L 317.327907 -123.242006 
L 316.265563 -123.997626 
L 315.203219 -124.755795 
L 314.140875 -125.501722 
L 313.078531 -126.241004 
L 312.016187 -126.996208 
L 310.953842 -127.746144 
L 309.891498 -128.5055 
L 308.829154 -129.272552 
L 307.76681 -130.035549 
L 306.704466 -130.813926 
L 305.642121 -131.594764 
L 304.579777 -132.372157 
L 303.517433 -133.158269 
L 302.455089 -133.94763 
L 301.392745 -134.719479 
L 300.330401 -135.510561 
L 299.268056 -136.298096 
L 298.205712 -137.097056 
L 297.143368 -137.894037 
L 296.081024 -138.693628 
L 295.01868 -139.49588 
L 293.956336 -140.300836 
L 292.893991 -141.108001 
L 291.831647 -141.917707 
L 290.769303 -142.731181 
L 289.706959 -143.549082 
L 288.644615 -144.371796 
L 287.58227 -145.197386 
L 286.519926 -146.02587 
L 285.457582 -146.857267 
L 284.395238 -147.691595 
L 283.332894 -148.528873 
L 282.27055 -149.366054 
L 281.208205 -150.205339 
L 280.145861 -151.052629 
L 279.083517 -151.902971 
L 278.021173 -152.756384 
L 276.958829 -153.612886 
L 275.896484 -154.472498 
L 274.83414 -155.335173 
L 273.771796 -156.199865 
L 272.709452 -157.067701 
L 271.647108 -157.938702 
L 270.584764 -158.812888 
L 269.522419 -159.691256 
L 268.460075 -160.57875 
L 267.397731 -161.464193 
L 266.335387 -162.352821 
L 265.273043 -163.244655 
L 264.210699 -164.139822 
L 263.148354 -165.038342 
L 262.08601 -165.940238 
L 261.023666 -166.845532 
L 259.961322 -167.754244 
L 258.898978 -168.666398 
L 257.836633 -169.582016 
L 256.774289 -170.50112 
L 255.711945 -171.423732 
L 254.649601 -172.349877 
L 253.587257 -173.279576 
L 252.524913 -174.213161 
L 251.462568 -175.151815 
L 250.400224 -176.094141 
L 249.33788 -177.041565 
L 248.275536 -177.993046 
L 247.213192 -178.948289 
L 246.150848 -179.907316 
L 245.088503 -180.870152 
L 244.026159 -181.835642 
L 242.963815 -182.803092 
L 241.901471 -183.774306 
L 240.839127 -184.74928 
L 239.776782 -185.727712 
L 238.714438 -186.711402 
L 237.652094 -187.704065 
L 236.58975 -188.701548 
L 235.527406 -189.703073 
L 234.465062 -190.708668 
L 233.402717 -191.718358 
L 232.340373 -192.730407 
L 231.278029 -193.738237 
L 230.215685 -194.75017 
L 229.153341 -195.766244 
L 228.090997 -196.786491 
L 227.028652 -197.813549 
L 225.966308 -198.847721 
L 224.903964 -199.886173 
L 223.84162 -200.928936 
L 222.779276 -201.976039 
L 221.716931 -203.027513 
L 220.654587 -204.083387 
L 219.592243 -205.141224 
L 218.529899 -206.200822 
L 217.467555 -207.267657 
L 216.405211 -208.341246 
L 215.342866 -209.418672 
L 214.280522 -210.49712 
L 213.218178 -211.58023 
L 212.155834 -212.668979 
L 211.09349 -213.773023 
L 210.031145 -214.880818 
L 208.968801 -215.987303 
L 207.906457 -217.093599 
L 206.844113 -218.203671 
L 205.781769 -219.318551 
L 204.719425 -220.444601 
L 203.65708 -221.576901 
L 202.594736 -222.714209 
L 201.532392 -223.858742 
L 200.470048 -225.009902 
L 199.407704 -226.166736 
L 198.34536 -227.325795 
L 197.283015 -228.492863 
L 196.220671 -229.661263 
L 195.158327 -230.83303 
L 194.095983 -232.010067 
L 193.033639 -233.192414 
L 191.971294 -234.380111 
L 190.90895 -235.580226 
L 189.846606 -236.790992 
L 188.784262 -238.007298 
L 187.721918 -239.229182 
L 186.659574 -240.456682 
L 185.597229 -241.686255 
L 184.534885 -242.919054 
L 183.472541 -244.157571 
L 182.410197 -245.40185 
L 181.347853 -246.651932 
L 180.285509 -247.911673 
L 179.223164 -249.179484 
L 178.16082 -250.453165 
L 177.098476 -251.732838 
L 176.036132 -253.013597 
L 174.973788 -254.29563 
L 173.911443 -255.583589 
L 172.849099 -256.87698 
L 171.786755 -258.171788 
L 170.724411 -259.479533 
L 169.662067 -260.796166 
L 168.599723 -262.117259 
L 167.537378 -263.445137 
L 166.475034 -264.783078 
L 165.41269 -266.12708 
L 164.350346 -267.476127 
L 163.288002 -268.83212 
L 162.225657 -270.200682 
L 161.163313 -271.572012 
L 160.100969 -272.950077 
L 159.038625 -274.334731 
L 157.976281 -275.7261 
L 156.913937 -277.127293 
L 155.851592 -278.535911 
L 154.789248 -279.951489 
L 153.726904 -281.376469 
L 152.66456 -282.815047 
L 151.602216 -284.260732 
L 150.539872 -285.698132 
L 149.477527 -287.14137 
L 148.415183 -288.594065 
L 147.352839 -290.059849 
L 146.290495 -291.545415 
L 145.228151 -293.026252 
L 144.165806 -294.552871 
L 143.103462 -296.048271 
L 142.041118 -297.55228 
L 140.978774 -299.063012 
L 139.91643 -300.616849 
L 138.854086 -302.143734 
L 137.791741 -303.675379 
L 136.729397 -305.232164 
L 135.667053 -306.785151 
L 134.604709 -308.342128 
L 133.542365 -309.907262 
L 132.480021 -311.480619 
L 131.417676 -313.090966 
L 130.355332 -314.701243 
L 129.292988 -316.300995 
L 128.230644 -317.928299 
L 127.1683 -319.565083 
L 126.105955 -321.21119 
L 125.043611 -322.862185 
L 123.981267 -324.510485 
L 122.918923 -326.184935 
L 121.856579 -327.843562 
L 120.794235 -329.506561 
L 119.73189 -331.220421 
L 118.669546 -332.964293 
L 117.607202 -334.719453 
L 116.544858 -336.428877 
L 115.482514 -338.192141 
L 114.42017 -339.96615 
L 113.357825 -341.771825 
L 112.295481 -343.595703 
L 111.233137 -345.431317 
L 110.170793 -347.264312 
L 109.108449 -349.093358 
L 108.046104 -350.934 
L 106.98376 -352.797901 
L 105.921416 -354.701059 
L 104.859072 -356.617881 
L 103.796728 -358.548549 
L 102.734384 -360.493247 
L 101.672039 -362.452029 
L 100.609695 -364.425099 
L 99.547351 -366.412769 
L 98.485007 -368.415236 
L 97.422663 -370.432706 
L 96.360318 -372.465384 
L 95.297974 -374.513482 
L 94.23563 -376.577217 
L 93.173286 -378.65586 
L 92.110942 -380.73824 
L 91.048598 -382.836605 
L 89.986253 -384.951182 
L 88.923909 -387.0822 
L 87.861565 -389.229896 
L 86.799221 -391.394511 
L 85.736877 -393.576291 
L 84.674533 -395.775487 
L 83.612188 -397.992356 
L 82.549844 -400.227159 
L 81.4875 -402.480165 
z
" style="stroke: #f4b400; stroke-opacity: 0.25"/>
    </defs>
    <g clip-path="url(#pa695f877ae)">
     <use xlink:href="#m029a608599" x="0" y="432" style="fill: #f4b400; fill-opacity: 0.25; stroke: #f4b400; stroke-opacity: 0.25"/>
    </g>
   </g>
   <g id="matplotlib.axis_1">
    <g id="xtick_1">
     <g id="line2d_1">
      <defs>
       <path id="m88c93d8d95" d="M 0 0 
L 0 3.5 
" style="stroke: #000000; stroke-width: 0.8"/>
      </defs>
      <g>
       <use xlink:href="#m88c93d8d95" x="111.266335" y="377.276364" style="stroke: #000000; stroke-width: 0.8"/>
      </g>
     </g>
     <g id="text_1">
      <!-- 0.1 -->
      <g transform="translate(101.536335 394.297301) scale(0.14 -0.14)">
       <defs>
        <path id="ArialMT-30" d="M 266 2259 
Q 266 3072 433 3567 
Q 600 4063 929 4331 
Q 1259 4600 1759 4600 
Q 2128 4600 2406 4451 
Q 2684 4303 2865 4023 
Q 3047 3744 3150 3342 
Q 3253 2941 3253 2259 
Q 3253 1453 3087 958 
Q 2922 463 2592 192 
Q 2263 -78 1759 -78 
Q 1097 -78 719 397 
Q 266 969 266 2259 
z
M 844 2259 
Q 844 1131 1108 757 
Q 1372 384 1759 384 
Q 2147 384 2411 759 
Q 2675 1134 2675 2259 
Q 2675 3391 2411 3762 
Q 2147 4134 1753 4134 
Q 1366 4134 1134 3806 
Q 844 3388 844 2259 
z
" transform="scale(0.015625)"/>
        <path id="ArialMT-2e" d="M 581 0 
L 581 641 
L 1222 641 
L 1222 0 
L 581 0 
z
" transform="scale(0.015625)"/>
        <path id="ArialMT-31" d="M 2384 0 
L 1822 0 
L 1822 3584 
Q 1619 3391 1289 3197 
Q 959 3003 697 2906 
L 697 3450 
Q 1169 3672 1522 3987 
Q 1875 4303 2022 4600 
L 2384 4600 
L 2384 0 
z
" transform="scale(0.015625)"/>
       </defs>
       <use xlink:href="#ArialMT-30"/>
       <use xlink:href="#ArialMT-2e" transform="translate(55.615234 0)"/>
       <use xlink:href="#ArialMT-31" transform="translate(83.398438 0)"/>
      </g>
     </g>
    </g>
    <g id="xtick_2">
     <g id="line2d_2">
      <g>
       <use xlink:href="#m88c93d8d95" x="160.897727" y="377.276364" style="stroke: #000000; stroke-width: 0.8"/>
      </g>
     </g>
     <g id="text_2">
      <!-- 0.1 -->
      <g transform="translate(151.167727 394.297301) scale(0.14 -0.14)">
       <use xlink:href="#ArialMT-30"/>
       <use xlink:href="#ArialMT-2e" transform="translate(55.615234 0)"/>
       <use xlink:href="#ArialMT-31" transform="translate(83.398438 0)"/>
      </g>
     </g>
    </g>
    <g id="xtick_3">
     <g id="line2d_3">
      <g>
       <use xlink:href="#m88c93d8d95" x="210.529119" y="377.276364" style="stroke: #000000; stroke-width: 0.8"/>
      </g>
     </g>
     <g id="text_3">
      <!-- 0.2 -->
      <g transform="translate(200.799119 394.297301) scale(0.14 -0.14)">
       <defs>
        <path id="ArialMT-32" d="M 3222 541 
L 3222 0 
L 194 0 
Q 188 203 259 391 
Q 375 700 629 1000 
Q 884 1300 1366 1694 
Q 2113 2306 2375 2664 
Q 2638 3022 2638 3341 
Q 2638 3675 2398 3904 
Q 2159 4134 1775 4134 
Q 1369 4134 1125 3890 
Q 881 3647 878 3216 
L 300 3275 
Q 359 3922 746 4261 
Q 1134 4600 1788 4600 
Q 2447 4600 2831 4234 
Q 3216 3869 3216 3328 
Q 3216 3053 3103 2787 
Q 2991 2522 2730 2228 
Q 2469 1934 1863 1422 
Q 1356 997 1212 845 
Q 1069 694 975 541 
L 3222 541 
z
" transform="scale(0.015625)"/>
       </defs>
       <use xlink:href="#ArialMT-30"/>
       <use xlink:href="#ArialMT-2e" transform="translate(55.615234 0)"/>
       <use xlink:href="#ArialMT-32" transform="translate(83.398438 0)"/>
      </g>
     </g>
    </g>
    <g id="xtick_4">
     <g id="line2d_4">
      <g>
       <use xlink:href="#m88c93d8d95" x="260.160511" y="377.276364" style="stroke: #000000; stroke-width: 0.8"/>
      </g>
     </g>
     <g id="text_4">
      <!-- 0.2 -->
      <g transform="translate(250.430511 394.297301) scale(0.14 -0.14)">
       <use xlink:href="#ArialMT-30"/>
       <use xlink:href="#ArialMT-2e" transform="translate(55.615234 0)"/>
       <use xlink:href="#ArialMT-32" transform="translate(83.398438 0)"/>
      </g>
     </g>
    </g>
    <g id="xtick_5">
     <g id="line2d_5">
      <g>
       <use xlink:href="#m88c93d8d95" x="309.791903" y="377.276364" style="stroke: #000000; stroke-width: 0.8"/>
      </g>
     </g>
     <g id="text_5">
      <!-- 0.2 -->
      <g transform="translate(300.061903 394.297301) scale(0.14 -0.14)">
       <use xlink:href="#ArialMT-30"/>
       <use xlink:href="#ArialMT-2e" transform="translate(55.615234 0)"/>
       <use xlink:href="#ArialMT-32" transform="translate(83.398438 0)"/>
      </g>
     </g>
    </g>
    <g id="xtick_6">
     <g id="line2d_6">
      <g>
       <use xlink:href="#m88c93d8d95" x="359.423295" y="377.276364" style="stroke: #000000; stroke-width: 0.8"/>
      </g>
     </g>
     <g id="text_6">
      <!-- 0.3 -->
      <g transform="translate(349.693295 394.297301) scale(0.14 -0.14)">
       <defs>
        <path id="ArialMT-33" d="M 269 1209 
L 831 1284 
Q 928 806 1161 595 
Q 1394 384 1728 384 
Q 2125 384 2398 659 
Q 2672 934 2672 1341 
Q 2672 1728 2419 1979 
Q 2166 2231 1775 2231 
Q 1616 2231 1378 2169 
L 1441 2663 
Q 1497 2656 1531 2656 
Q 1891 2656 2178 2843 
Q 2466 3031 2466 3422 
Q 2466 3731 2256 3934 
Q 2047 4138 1716 4138 
Q 1388 4138 1169 3931 
Q 950 3725 888 3313 
L 325 3413 
Q 428 3978 793 4289 
Q 1159 4600 1703 4600 
Q 2078 4600 2393 4439 
Q 2709 4278 2876 4000 
Q 3044 3722 3044 3409 
Q 3044 3113 2884 2869 
Q 2725 2625 2413 2481 
Q 2819 2388 3044 2092 
Q 3269 1797 3269 1353 
Q 3269 753 2831 336 
Q 2394 -81 1725 -81 
Q 1122 -81 723 278 
Q 325 638 269 1209 
z
" transform="scale(0.015625)"/>
       </defs>
       <use xlink:href="#ArialMT-30"/>
       <use xlink:href="#ArialMT-2e" transform="translate(55.615234 0)"/>
       <use xlink:href="#ArialMT-33" transform="translate(83.398438 0)"/>
      </g>
     </g>
    </g>
    <g id="xtick_7">
     <g id="line2d_7">
      <g>
       <use xlink:href="#m88c93d8d95" x="409.054688" y="377.276364" style="stroke: #000000; stroke-width: 0.8"/>
      </g>
     </g>
     <g id="text_7">
      <!-- 0.4 -->
      <g transform="translate(399.324687 394.297301) scale(0.14 -0.14)">
       <defs>
        <path id="ArialMT-34" d="M 2069 0 
L 2069 1097 
L 81 1097 
L 81 1613 
L 2172 4581 
L 2631 4581 
L 2631 1613 
L 3250 1613 
L 3250 1097 
L 2631 1097 
L 2631 0 
L 2069 0 
z
M 2069 1613 
L 2069 3678 
L 634 1613 
L 2069 1613 
z
" transform="scale(0.015625)"/>
       </defs>
       <use xlink:href="#ArialMT-30"/>
       <use xlink:href="#ArialMT-2e" transform="translate(55.615234 0)"/>
       <use xlink:href="#ArialMT-34" transform="translate(83.398438 0)"/>
      </g>
     </g>
    </g>
    <g id="text_8">
     <!-- h (mm) -->
     <g transform="translate(208.650142 415.639176) scale(0.2 -0.2)">
      <defs>
       <path id="ArialMT-68" d="M 422 0 
L 422 4581 
L 984 4581 
L 984 2938 
Q 1378 3394 1978 3394 
Q 2347 3394 2619 3248 
Q 2891 3103 3008 2847 
Q 3125 2591 3125 2103 
L 3125 0 
L 2563 0 
L 2563 2103 
Q 2563 2525 2380 2717 
Q 2197 2909 1863 2909 
Q 1613 2909 1392 2779 
Q 1172 2650 1078 2428 
Q 984 2206 984 1816 
L 984 0 
L 422 0 
z
" transform="scale(0.015625)"/>
       <path id="ArialMT-20" transform="scale(0.015625)"/>
       <path id="ArialMT-28" d="M 1497 -1347 
Q 1031 -759 709 28 
Q 388 816 388 1659 
Q 388 2403 628 3084 
Q 909 3875 1497 4659 
L 1900 4659 
Q 1522 4009 1400 3731 
Q 1209 3300 1100 2831 
Q 966 2247 966 1656 
Q 966 153 1900 -1347 
L 1497 -1347 
z
" transform="scale(0.015625)"/>
       <path id="ArialMT-6d" d="M 422 0 
L 422 3319 
L 925 3319 
L 925 2853 
Q 1081 3097 1340 3245 
Q 1600 3394 1931 3394 
Q 2300 3394 2536 3241 
Q 2772 3088 2869 2813 
Q 3263 3394 3894 3394 
Q 4388 3394 4653 3120 
Q 4919 2847 4919 2278 
L 4919 0 
L 4359 0 
L 4359 2091 
Q 4359 2428 4304 2576 
Q 4250 2725 4106 2815 
Q 3963 2906 3769 2906 
Q 3419 2906 3187 2673 
Q 2956 2441 2956 1928 
L 2956 0 
L 2394 0 
L 2394 2156 
Q 2394 2531 2256 2718 
Q 2119 2906 1806 2906 
Q 1569 2906 1367 2781 
Q 1166 2656 1075 2415 
Q 984 2175 984 1722 
L 984 0 
L 422 0 
z
" transform="scale(0.015625)"/>
       <path id="ArialMT-29" d="M 791 -1347 
L 388 -1347 
Q 1322 153 1322 1656 
Q 1322 2244 1188 2822 
Q 1081 3291 891 3722 
Q 769 4003 388 4659 
L 791 4659 
Q 1378 3875 1659 3084 
Q 1900 2403 1900 1659 
Q 1900 816 1576 28 
Q 1253 -759 791 -1347 
z
" transform="scale(0.015625)"/>
      </defs>
      <use xlink:href="#ArialMT-68"/>
      <use xlink:href="#ArialMT-20" transform="translate(55.615234 0)"/>
      <use xlink:href="#ArialMT-28" transform="translate(83.398438 0)"/>
      <use xlink:href="#ArialMT-6d" transform="translate(116.699219 0)"/>
      <use xlink:href="#ArialMT-6d" transform="translate(200 0)"/>
      <use xlink:href="#ArialMT-29" transform="translate(283.300781 0)"/>
     </g>
    </g>
   </g>
   <g id="matplotlib.axis_2">
    <g id="ytick_1">
     <g id="line2d_8">
      <defs>
       <path id="mad7a3820ed" d="M 0 0 
L -3.5 0 
" style="stroke: #000000; stroke-width: 0.8"/>
      </defs>
      <g>
       <use xlink:href="#mad7a3820ed" x="65.605455" y="333.393122" style="stroke: #000000; stroke-width: 0.8"/>
      </g>
     </g>
     <g id="text_9">
      <!-- 80 -->
      <g transform="translate(43.03483 338.403591) scale(0.14 -0.14)">
       <defs>
        <path id="ArialMT-38" d="M 1131 2484 
Q 781 2613 612 2850 
Q 444 3088 444 3419 
Q 444 3919 803 4259 
Q 1163 4600 1759 4600 
Q 2359 4600 2725 4251 
Q 3091 3903 3091 3403 
Q 3091 3084 2923 2848 
Q 2756 2613 2416 2484 
Q 2838 2347 3058 2040 
Q 3278 1734 3278 1309 
Q 3278 722 2862 322 
Q 2447 -78 1769 -78 
Q 1091 -78 675 323 
Q 259 725 259 1325 
Q 259 1772 486 2073 
Q 713 2375 1131 2484 
z
M 1019 3438 
Q 1019 3113 1228 2906 
Q 1438 2700 1772 2700 
Q 2097 2700 2305 2904 
Q 2513 3109 2513 3406 
Q 2513 3716 2298 3927 
Q 2084 4138 1766 4138 
Q 1444 4138 1231 3931 
Q 1019 3725 1019 3438 
z
M 838 1322 
Q 838 1081 952 856 
Q 1066 631 1291 507 
Q 1516 384 1775 384 
Q 2178 384 2440 643 
Q 2703 903 2703 1303 
Q 2703 1709 2433 1975 
Q 2163 2241 1756 2241 
Q 1359 2241 1098 1978 
Q 838 1716 838 1322 
z
" transform="scale(0.015625)"/>
       </defs>
       <use xlink:href="#ArialMT-38"/>
       <use xlink:href="#ArialMT-30" transform="translate(55.615234 0)"/>
      </g>
     </g>
    </g>
    <g id="ytick_2">
     <g id="line2d_9">
      <g>
       <use xlink:href="#mad7a3820ed" x="65.605455" y="273.38564" style="stroke: #000000; stroke-width: 0.8"/>
      </g>
     </g>
     <g id="text_10">
      <!-- 90 -->
      <g transform="translate(43.03483 278.396109) scale(0.14 -0.14)">
       <defs>
        <path id="ArialMT-39" d="M 350 1059 
L 891 1109 
Q 959 728 1153 556 
Q 1347 384 1650 384 
Q 1909 384 2104 503 
Q 2300 622 2425 820 
Q 2550 1019 2634 1356 
Q 2719 1694 2719 2044 
Q 2719 2081 2716 2156 
Q 2547 1888 2255 1720 
Q 1963 1553 1622 1553 
Q 1053 1553 659 1965 
Q 266 2378 266 3053 
Q 266 3750 677 4175 
Q 1088 4600 1706 4600 
Q 2153 4600 2523 4359 
Q 2894 4119 3086 3673 
Q 3278 3228 3278 2384 
Q 3278 1506 3087 986 
Q 2897 466 2520 194 
Q 2144 -78 1638 -78 
Q 1100 -78 759 220 
Q 419 519 350 1059 
z
M 2653 3081 
Q 2653 3566 2395 3850 
Q 2138 4134 1775 4134 
Q 1400 4134 1122 3828 
Q 844 3522 844 3034 
Q 844 2597 1108 2323 
Q 1372 2050 1759 2050 
Q 2150 2050 2401 2323 
Q 2653 2597 2653 3081 
z
" transform="scale(0.015625)"/>
       </defs>
       <use xlink:href="#ArialMT-39"/>
       <use xlink:href="#ArialMT-30" transform="translate(55.615234 0)"/>
      </g>
     </g>
    </g>
    <g id="ytick_3">
     <g id="line2d_10">
      <g>
       <use xlink:href="#mad7a3820ed" x="65.605455" y="213.378159" style="stroke: #000000; stroke-width: 0.8"/>
      </g>
     </g>
     <g id="text_11">
      <!-- 100 -->
      <g transform="translate(35.249517 218.388627) scale(0.14 -0.14)">
       <use xlink:href="#ArialMT-31"/>
       <use xlink:href="#ArialMT-30" transform="translate(55.615234 0)"/>
       <use xlink:href="#ArialMT-30" transform="translate(111.230469 0)"/>
      </g>
     </g>
    </g>
    <g id="ytick_4">
     <g id="line2d_11">
      <g>
       <use xlink:href="#mad7a3820ed" x="65.605455" y="153.370677" style="stroke: #000000; stroke-width: 0.8"/>
      </g>
     </g>
     <g id="text_12">
      <!-- 110 -->
      <g transform="translate(36.282017 158.381146) scale(0.14 -0.14)">
       <use xlink:href="#ArialMT-31"/>
       <use xlink:href="#ArialMT-31" transform="translate(48.240234 0)"/>
       <use xlink:href="#ArialMT-30" transform="translate(103.855469 0)"/>
      </g>
     </g>
    </g>
    <g id="ytick_5">
     <g id="line2d_12">
      <g>
       <use xlink:href="#mad7a3820ed" x="65.605455" y="93.363195" style="stroke: #000000; stroke-width: 0.8"/>
      </g>
     </g>
     <g id="text_13">
      <!-- 120 -->
      <g transform="translate(35.249517 98.373664) scale(0.14 -0.14)">
       <use xlink:href="#ArialMT-31"/>
       <use xlink:href="#ArialMT-32" transform="translate(55.615234 0)"/>
       <use xlink:href="#ArialMT-30" transform="translate(111.230469 0)"/>
      </g>
     </g>
    </g>
    <g id="ytick_6">
     <g id="line2d_13">
      <g>
       <use xlink:href="#mad7a3820ed" x="65.605455" y="33.355713" style="stroke: #000000; stroke-width: 0.8"/>
      </g>
     </g>
     <g id="text_14">
      <!-- 130 -->
      <g transform="translate(35.249517 38.366182) scale(0.14 -0.14)">
       <use xlink:href="#ArialMT-31"/>
       <use xlink:href="#ArialMT-33" transform="translate(55.615234 0)"/>
       <use xlink:href="#ArialMT-30" transform="translate(111.230469 0)"/>
      </g>
     </g>
    </g>
    <g id="text_15">
     <!-- T/Ω -->
     <g transform="translate(27.274517 211.479119) rotate(-90) scale(0.2 -0.2)">
      <defs>
       <path id="ArialMT-54" d="M 1659 0 
L 1659 4041 
L 150 4041 
L 150 4581 
L 3781 4581 
L 3781 4041 
L 2266 4041 
L 2266 0 
L 1659 0 
z
" transform="scale(0.015625)"/>
       <path id="ArialMT-2f" d="M 0 -78 
L 1328 4659 
L 1778 4659 
L 453 -78 
L 0 -78 
z
" transform="scale(0.015625)"/>
       <path id="ArialMT-3a9" d="M 303 541 
L 1303 541 
Q 353 1334 353 2478 
Q 353 3100 603 3594 
Q 853 4088 1309 4373 
Q 1766 4659 2406 4659 
Q 3041 4659 3464 4396 
Q 3888 4134 4161 3643 
Q 4434 3153 4434 2478 
Q 4434 1334 3484 541 
L 4484 541 
L 4484 0 
L 2703 0 
L 2703 506 
Q 3816 1025 3816 2384 
Q 3816 3150 3423 3645 
Q 3031 4141 2403 4141 
Q 1756 4141 1368 3642 
Q 981 3144 981 2416 
Q 981 1038 2088 506 
L 2088 0 
L 303 0 
L 303 541 
z
" transform="scale(0.015625)"/>
      </defs>
      <use xlink:href="#ArialMT-54"/>
      <use xlink:href="#ArialMT-2f" transform="translate(61.083984 0)"/>
      <use xlink:href="#ArialMT-3a9" transform="translate(88.867188 0)"/>
     </g>
    </g>
   </g>
   <g id="line2d_14">
    <path d="M 81.4875 33.624243 
L 87.861565 46.024464 
L 94.23563 57.916089 
L 100.609695 69.371546 
L 106.98376 80.425758 
L 114.42017 92.863325 
L 121.856579 104.877108 
L 129.292988 116.406143 
L 136.729397 127.479265 
L 143.103462 136.650916 
L 150.539872 146.963788 
L 157.976281 156.915374 
L 166.475034 167.854718 
L 174.973788 178.368604 
L 183.472541 188.482415 
L 191.971294 198.216291 
L 200.470048 207.589766 
L 208.968801 216.631014 
L 216.405211 224.284141 
L 224.903964 232.743237 
L 233.402717 240.923688 
L 242.963815 249.803823 
L 251.462568 257.443438 
L 261.023666 265.727934 
L 269.522419 272.854134 
L 280.145861 281.454622 
L 291.831647 290.562786 
L 303.517433 299.318738 
L 314.140875 306.993338 
L 325.826661 315.148014 
L 336.450103 322.31409 
L 349.198233 330.608371 
L 361.946363 338.598046 
L 374.694493 346.28906 
L 387.442623 353.705961 
L 399.128409 360.2791 
L 399.128409 360.2791 
" clip-path="url(#pa695f877ae)" style="fill: none; stroke: #4285f4; stroke-width: 1.6; stroke-linecap: square"/>
   </g>
   <g id="line2d_15">
    <defs>
     <path id="m915ff82b19" d="M 0 2 
C 0.530406 2 1.03916 1.789267 1.414214 1.414214 
C 1.789267 1.03916 2 0.530406 2 0 
C 2 -0.530406 1.789267 -1.03916 1.414214 -1.414214 
C 1.03916 -1.789267 0.530406 -2 0 -2 
C -0.530406 -2 -1.03916 -1.789267 -1.414214 -1.414214 
C -1.789267 -1.03916 -2 -0.530406 -2 0 
C -2 0.530406 -1.789267 1.03916 -1.414214 1.414214 
C -1.03916 1.789267 -0.530406 2 0 2 
z
" style="stroke: #db4437"/>
    </defs>
    <g clip-path="url(#pa695f877ae)">
     <use xlink:href="#m915ff82b19" x="81.4875" y="34.235823" style="fill: #db4437; stroke: #db4437"/>
     <use xlink:href="#m915ff82b19" x="101.340057" y="69.880267" style="fill: #db4437; stroke: #db4437"/>
     <use xlink:href="#m915ff82b19" x="121.192614" y="104.004522" style="fill: #db4437; stroke: #db4437"/>
     <use xlink:href="#m915ff82b19" x="141.04517" y="132.728103" style="fill: #db4437; stroke: #db4437"/>
     <use xlink:href="#m915ff82b19" x="160.897727" y="161.131644" style="fill: #db4437; stroke: #db4437"/>
     <use xlink:href="#m915ff82b19" x="180.750284" y="184.894607" style="fill: #db4437; stroke: #db4437"/>
     <use xlink:href="#m915ff82b19" x="200.602841" y="208.857595" style="fill: #db4437; stroke: #db4437"/>
     <use xlink:href="#m915ff82b19" x="220.455398" y="228.500044" style="fill: #db4437; stroke: #db4437"/>
     <use xlink:href="#m915ff82b19" x="240.307955" y="248.222503" style="fill: #db4437; stroke: #db4437"/>
     <use xlink:href="#m915ff82b19" x="260.160511" y="264.824573" style="fill: #db4437; stroke: #db4437"/>
     <use xlink:href="#m915ff82b19" x="280.013068" y="281.386638" style="fill: #db4437; stroke: #db4437"/>
     <use xlink:href="#m915ff82b19" x="299.865625" y="295.588409" style="fill: #db4437; stroke: #db4437"/>
     <use xlink:href="#m915ff82b19" x="319.718182" y="310.630284" style="fill: #db4437; stroke: #db4437"/>
     <use xlink:href="#m915ff82b19" x="339.570739" y="323.551895" style="fill: #db4437; stroke: #db4437"/>
     <use xlink:href="#m915ff82b19" x="359.423295" y="337.393621" style="fill: #db4437; stroke: #db4437"/>
     <use xlink:href="#m915ff82b19" x="379.275852" y="349.235097" style="fill: #db4437; stroke: #db4437"/>
     <use xlink:href="#m915ff82b19" x="399.128409" y="360.716529" style="fill: #db4437; stroke: #db4437"/>
    </g>
   </g>
   <g id="patch_3">
    <path d="M 65.605455 377.276364 
L 65.605455 12.96 
" style="fill: none; stroke: #000000; stroke-width: 1.5; stroke-linejoin: miter; stroke-linecap: square"/>
   </g>
   <g id="patch_4">
    <path d="M 415.010455 377.276364 
L 415.010455 12.96 
" style="fill: none; stroke: #000000; stroke-width: 1.5; stroke-linejoin: miter; stroke-linecap: square"/>
   </g>
   <g id="patch_5">
    <path d="M 65.605455 377.276364 
L 415.010455 377.276364 
" style="fill: none; stroke: #000000; stroke-width: 1.5; stroke-linejoin: miter; stroke-linecap: square"/>
   </g>
   <g id="patch_6">
    <path d="M 65.605455 12.96 
L 415.010455 12.96 
" style="fill: none; stroke: #000000; stroke-width: 1.5; stroke-linejoin: miter; stroke-linecap: square"/>
   </g>
   <g id="legend_1">
    <g id="patch_7">
     <path d="M 300.160142 35.580938 
L 328.160142 35.580938 
L 328.160142 25.780938 
L 300.160142 25.780938 
z
" style="fill: #4285f4; fill-opacity: 0.25; stroke: #4285f4; stroke-opacity: 0.25; stroke-linejoin: miter"/>
    </g>
    <g id="text_16">
     <!-- 95% band -->
     <g transform="translate(339.360142 35.580938) scale(0.14 -0.14)">
      <defs>
       <path id="ArialMT-35" d="M 266 1200 
L 856 1250 
Q 922 819 1161 601 
Q 1400 384 1738 384 
Q 2144 384 2425 690 
Q 2706 997 2706 1503 
Q 2706 1984 2436 2262 
Q 2166 2541 1728 2541 
Q 1456 2541 1237 2417 
Q 1019 2294 894 2097 
L 366 2166 
L 809 4519 
L 3088 4519 
L 3088 3981 
L 1259 3981 
L 1013 2750 
Q 1425 3038 1878 3038 
Q 2478 3038 2890 2622 
Q 3303 2206 3303 1553 
Q 3303 931 2941 478 
Q 2500 -78 1738 -78 
Q 1113 -78 717 272 
Q 322 622 266 1200 
z
" transform="scale(0.015625)"/>
       <path id="ArialMT-25" d="M 372 3481 
Q 372 3972 619 4315 
Q 866 4659 1334 4659 
Q 1766 4659 2048 4351 
Q 2331 4044 2331 3447 
Q 2331 2866 2045 2552 
Q 1759 2238 1341 2238 
Q 925 2238 648 2547 
Q 372 2856 372 3481 
z
M 1350 4272 
Q 1141 4272 1002 4090 
Q 863 3909 863 3425 
Q 863 2984 1003 2804 
Q 1144 2625 1350 2625 
Q 1563 2625 1702 2806 
Q 1841 2988 1841 3469 
Q 1841 3913 1700 4092 
Q 1559 4272 1350 4272 
z
M 1353 -169 
L 3859 4659 
L 4316 4659 
L 1819 -169 
L 1353 -169 
z
M 3334 1075 
Q 3334 1569 3581 1911 
Q 3828 2253 4300 2253 
Q 4731 2253 5014 1945 
Q 5297 1638 5297 1041 
Q 5297 459 5011 145 
Q 4725 -169 4303 -169 
Q 3888 -169 3611 142 
Q 3334 453 3334 1075 
z
M 4316 1866 
Q 4103 1866 3964 1684 
Q 3825 1503 3825 1019 
Q 3825 581 3965 400 
Q 4106 219 4313 219 
Q 4528 219 4667 400 
Q 4806 581 4806 1063 
Q 4806 1506 4665 1686 
Q 4525 1866 4316 1866 
z
" transform="scale(0.015625)"/>
       <path id="ArialMT-62" d="M 941 0 
L 419 0 
L 419 4581 
L 981 4581 
L 981 2947 
Q 1338 3394 1891 3394 
Q 2197 3394 2470 3270 
Q 2744 3147 2920 2923 
Q 3097 2700 3197 2384 
Q 3297 2069 3297 1709 
Q 3297 856 2875 390 
Q 2453 -75 1863 -75 
Q 1275 -75 941 416 
L 941 0 
z
M 934 1684 
Q 934 1088 1097 822 
Q 1363 388 1816 388 
Q 2184 388 2453 708 
Q 2722 1028 2722 1663 
Q 2722 2313 2464 2622 
Q 2206 2931 1841 2931 
Q 1472 2931 1203 2611 
Q 934 2291 934 1684 
z
" transform="scale(0.015625)"/>
       <path id="ArialMT-61" d="M 2588 409 
Q 2275 144 1986 34 
Q 1697 -75 1366 -75 
Q 819 -75 525 192 
Q 231 459 231 875 
Q 231 1119 342 1320 
Q 453 1522 633 1644 
Q 813 1766 1038 1828 
Q 1203 1872 1538 1913 
Q 2219 1994 2541 2106 
Q 2544 2222 2544 2253 
Q 2544 2597 2384 2738 
Q 2169 2928 1744 2928 
Q 1347 2928 1158 2789 
Q 969 2650 878 2297 
L 328 2372 
Q 403 2725 575 2942 
Q 747 3159 1072 3276 
Q 1397 3394 1825 3394 
Q 2250 3394 2515 3294 
Q 2781 3194 2906 3042 
Q 3031 2891 3081 2659 
Q 3109 2516 3109 2141 
L 3109 1391 
Q 3109 606 3145 398 
Q 3181 191 3288 0 
L 2700 0 
Q 2613 175 2588 409 
z
M 2541 1666 
Q 2234 1541 1622 1453 
Q 1275 1403 1131 1340 
Q 988 1278 909 1158 
Q 831 1038 831 891 
Q 831 666 1001 516 
Q 1172 366 1500 366 
Q 1825 366 2078 508 
Q 2331 650 2450 897 
Q 2541 1088 2541 1459 
L 2541 1666 
z
" transform="scale(0.015625)"/>
       <path id="ArialMT-6e" d="M 422 0 
L 422 3319 
L 928 3319 
L 928 2847 
Q 1294 3394 1984 3394 
Q 2284 3394 2536 3286 
Q 2788 3178 2913 3003 
Q 3038 2828 3088 2588 
Q 3119 2431 3119 2041 
L 3119 0 
L 2556 0 
L 2556 2019 
Q 2556 2363 2490 2533 
Q 2425 2703 2258 2804 
Q 2091 2906 1866 2906 
Q 1506 2906 1245 2678 
Q 984 2450 984 1813 
L 984 0 
L 422 0 
z
" transform="scale(0.015625)"/>
       <path id="ArialMT-64" d="M 2575 0 
L 2575 419 
Q 2259 -75 1647 -75 
Q 1250 -75 917 144 
Q 584 363 401 755 
Q 219 1147 219 1656 
Q 219 2153 384 2558 
Q 550 2963 881 3178 
Q 1213 3394 1622 3394 
Q 1922 3394 2156 3267 
Q 2391 3141 2538 2938 
L 2538 4581 
L 3097 4581 
L 3097 0 
L 2575 0 
z
M 797 1656 
Q 797 1019 1065 703 
Q 1334 388 1700 388 
Q 2069 388 2326 689 
Q 2584 991 2584 1609 
Q 2584 2291 2321 2609 
Q 2059 2928 1675 2928 
Q 1300 2928 1048 2622 
Q 797 2316 797 1656 
z
" transform="scale(0.015625)"/>
      </defs>
      <use xlink:href="#ArialMT-39"/>
      <use xlink:href="#ArialMT-35" transform="translate(55.615234 0)"/>
      <use xlink:href="#ArialMT-25" transform="translate(111.230469 0)"/>
      <use xlink:href="#ArialMT-20" transform="translate(200.146484 0)"/>
      <use xlink:href="#ArialMT-62" transform="translate(227.929688 0)"/>
      <use xlink:href="#ArialMT-61" transform="translate(283.544922 0)"/>
      <use xlink:href="#ArialMT-6e" transform="translate(339.160156 0)"/>
      <use xlink:href="#ArialMT-64" transform="translate(394.775391 0)"/>
     </g>
    </g>
    <g id="line2d_16">
     <path d="M 300.160142 50.484375 
L 314.160142 50.484375 
L 328.160142 50.484375 
" style="fill: none; stroke: #4285f4; stroke-width: 1.6; stroke-linecap: square"/>
    </g>
    <g id="text_17">
     <!-- median fit -->
     <g transform="translate(339.360142 55.384375) scale(0.14 -0.14)">
      <defs>
       <path id="ArialMT-65" d="M 2694 1069 
L 3275 997 
Q 3138 488 2766 206 
Q 2394 -75 1816 -75 
Q 1088 -75 661 373 
Q 234 822 234 1631 
Q 234 2469 665 2931 
Q 1097 3394 1784 3394 
Q 2450 3394 2872 2941 
Q 3294 2488 3294 1666 
Q 3294 1616 3291 1516 
L 816 1516 
Q 847 969 1125 678 
Q 1403 388 1819 388 
Q 2128 388 2347 550 
Q 2566 713 2694 1069 
z
M 847 1978 
L 2700 1978 
Q 2663 2397 2488 2606 
Q 2219 2931 1791 2931 
Q 1403 2931 1139 2672 
Q 875 2413 847 1978 
z
" transform="scale(0.015625)"/>
       <path id="ArialMT-69" d="M 425 3934 
L 425 4581 
L 988 4581 
L 988 3934 
L 425 3934 
z
M 425 0 
L 425 3319 
L 988 3319 
L 988 0 
L 425 0 
z
" transform="scale(0.015625)"/>
       <path id="ArialMT-66" d="M 556 0 
L 556 2881 
L 59 2881 
L 59 3319 
L 556 3319 
L 556 3672 
Q 556 4006 616 4169 
Q 697 4388 901 4523 
Q 1106 4659 1475 4659 
Q 1713 4659 2000 4603 
L 1916 4113 
Q 1741 4144 1584 4144 
Q 1328 4144 1222 4034 
Q 1116 3925 1116 3625 
L 1116 3319 
L 1763 3319 
L 1763 2881 
L 1116 2881 
L 1116 0 
L 556 0 
z
" transform="scale(0.015625)"/>
       <path id="ArialMT-74" d="M 1650 503 
L 1731 6 
Q 1494 -44 1306 -44 
Q 1000 -44 831 53 
Q 663 150 594 308 
Q 525 466 525 972 
L 525 2881 
L 113 2881 
L 113 3319 
L 525 3319 
L 525 4141 
L 1084 4478 
L 1084 3319 
L 1650 3319 
L 1650 2881 
L 1084 2881 
L 1084 941 
Q 1084 700 1114 631 
Q 1144 563 1211 522 
Q 1278 481 1403 481 
Q 1497 481 1650 503 
z
" transform="scale(0.015625)"/>
      </defs>
      <use xlink:href="#ArialMT-6d"/>
      <use xlink:href="#ArialMT-65" transform="translate(83.300781 0)"/>
      <use xlink:href="#ArialMT-64" transform="translate(138.916016 0)"/>
      <use xlink:href="#ArialMT-69" transform="translate(194.53125 0)"/>
      <use xlink:href="#ArialMT-61" transform="translate(216.748047 0)"/>
      <use xlink:href="#ArialMT-6e" transform="translate(272.363281 0)"/>
      <use xlink:href="#ArialMT-20" transform="translate(327.978516 0)"/>
      <use xlink:href="#ArialMT-66" transform="translate(355.761719 0)"/>
      <use xlink:href="#ArialMT-69" transform="translate(383.544922 0)"/>
      <use xlink:href="#ArialMT-74" transform="translate(405.761719 0)"/>
     </g>
    </g>
    <g id="line2d_17">
     <defs>
      <path id="m26ed19b83a" d="M 0 2 
C 0.530406 2 1.03916 1.789267 1.414214 1.414214 
C 1.789267 1.03916 2 0.530406 2 0 
C 2 -0.530406 1.789267 -1.03916 1.414214 -1.414214 
C 1.03916 -1.789267 0.530406 -2 0 -2 
C -0.530406 -2 -1.03916 -1.789267 -1.414214 -1.414214 
C -1.789267 -1.03916 -2 -0.530406 -2 0 
C -2 0.530406 -1.789267 1.03916 -1.414214 1.414214 
C -1.03916 1.789267 -0.530406 2 0 2 
z
" style="stroke: #000000"/>
     </defs>
     <g>
      <use xlink:href="#m26ed19b83a" x="314.160142" y="70.287813" style="stroke: #000000"/>
     </g>
    </g>
    <g id="text_18">
     <!-- data -->
     <g transform="translate(339.360142 75.187813) scale(0.14 -0.14)">
      <use xlink:href="#ArialMT-64"/>
      <use xlink:href="#ArialMT-61" transform="translate(55.615234 0)"/>
      <use xlink:href="#ArialMT-74" transform="translate(111.230469 0)"/>
      <use xlink:href="#ArialMT-61" transform="translate(139.013672 0)"/>
     </g>
    </g>
   </g>
  </g>
 </g>
 <defs>
  <clipPath id="pa695f877ae">
   <rect x="65.605455" y="12.96" width="349.405" height="364.316364"/>
  </clipPath>
 </defs>
</svg>
