<?xml version="1.0" encoding="utf-8" standalone="no"?>
<!DOCTYPE svg PUBLIC "-//W3C//DTD SVG 1.1//EN"
  "http://www.w3.org/Graphics/SVG/1.1/DTD/svg11.dtd">
<svg xmlns:xlink="http://www.w3.org/1999/xlink" width="432pt" height="432pt" viewBox="0 0 432 432" xmlns="http://www.w3.org/2000/svg" version="1.1">
 <metadata>
  <rdf:RDF xmlns:dc="http://purl.org/dc/elements/1.1/" xmlns:cc="http://creativecommons.org/ns#" xmlns:rdf="http://www.w3.org/1999/02/22-rdf-syntax-ns#">
   <cc:Work>
    <dc:type rdf:resource="http://purl.org/dc/dcmitype/StillImage"/>
    <dc:date>2026-06-17T13:33:53.578718</dc:date>
    <dc:format>image/svg+xml</dc:format>
    <dc:creator>
     <cc:Agent>
      <dc:title>Matplotlib v3.10.0, https://matplotlib.org/</dc:title>
     </cc:Agent>
    </dc:creator>
   </cc:Work>
  </rdf:RDF>
 </metadata>
 <defs>
  <style type="text/css">*{stroke-linejoin: round; stroke-linecap: butt}</style>
 </defs>
 <g id="figure_1">
  <g id="patch_1">
   <path d="M 0 432 
L 432 432 
L 432 0 
L 0 0 
z
" style="fill: #ffffff"/>
  </g>
  <g id="axes_1">
   <g id="patch_2">
    <path d="M 58.569091 384.476364 
L 411.410455 384.476364 
L 411.410455 28.778182 
L 58.569091 28.778182 
z
" style="fill: #ffffff"/>
   </g>
   <g id="FillBetweenPolyCollection_1">
    <defs>
     <path id="m8fade81c58" d="M 74.607335 -387.053719 
L 74.607335 -382.480582 
L 75.680127 -380.423894 
L 76.752919 -378.375219 
L 77.825711 -376.342885 
L 78.898504 -374.32435 
L 79.971296 -372.319455 
L 81.044088 -370.328042 
L 82.11688 -368.349955 
L 83.189673 -366.369082 
L 84.262465 -364.40436 
L 85.335257 -362.461993 
L 86.408049 -360.532306 
L 87.480841 -358.614966 
L 88.553634 -356.710418 
L 89.626426 -354.837594 
L 90.699218 -352.950571 
L 91.77201 -351.074191 
L 92.844803 -349.210459 
L 93.917595 -347.364404 
L 94.990387 -345.529834 
L 96.063179 -343.70663 
L 97.135971 -341.894677 
L 98.208764 -340.09386 
L 99.281556 -338.302015 
L 100.354348 -336.517754 
L 101.42714 -334.744641 
L 102.499933 -332.982557 
L 103.572725 -331.231387 
L 104.645517 -329.491041 
L 105.718309 -327.761438 
L 106.791102 -326.045365 
L 107.863894 -324.342966 
L 108.936686 -322.650861 
L 110.009478 -320.968913 
L 111.08227 -319.297032 
L 112.155063 -317.635134 
L 113.227855 -315.981946 
L 114.300647 -314.332948 
L 115.373439 -312.699118 
L 116.446232 -311.07777 
L 117.519024 -309.462138 
L 118.591816 -307.846537 
L 119.664608 -306.240201 
L 120.7374 -304.653227 
L 121.810193 -303.075482 
L 122.882985 -301.495781 
L 123.955777 -299.934992 
L 125.028569 -298.383141 
L 126.101362 -296.840022 
L 127.174154 -295.289863 
L 128.246946 -293.752049 
L 129.319738 -292.231541 
L 130.392531 -290.719845 
L 131.465323 -289.21661 
L 132.538115 -287.720423 
L 133.610907 -286.208772 
L 134.683699 -284.722586 
L 135.756492 -283.236991 
L 136.829284 -281.755514 
L 137.902076 -280.282713 
L 138.974868 -278.818496 
L 140.047661 -277.36277 
L 141.120453 -275.915446 
L 142.193245 -274.476436 
L 143.266037 -273.045652 
L 144.33883 -271.62301 
L 145.411622 -270.208618 
L 146.484414 -268.799056 
L 147.557206 -267.397184 
L 148.629998 -266.003257 
L 149.702791 -264.617193 
L 150.775583 -263.244402 
L 151.848375 -261.879525 
L 152.921167 -260.517986 
L 153.99396 -259.174022 
L 155.066752 -257.828391 
L 156.139544 -256.490132 
L 157.212336 -255.159139 
L 158.285128 -253.835613 
L 159.357921 -252.525264 
L 160.430713 -251.21806 
L 161.503505 -249.919451 
L 162.576297 -248.627594 
L 163.64909 -247.342424 
L 164.721882 -246.063913 
L 165.794674 -244.792321 
L 166.867466 -243.530154 
L 167.940259 -242.268158 
L 169.013051 -241.015446 
L 170.085843 -239.769057 
L 171.158635 -238.52893 
L 172.231427 -237.29501 
L 173.30422 -236.067238 
L 174.377012 -234.845561 
L 175.449804 -233.629921 
L 176.522596 -232.419558 
L 177.595389 -231.211235 
L 178.668181 -230.008883 
L 179.740973 -228.808445 
L 180.813765 -227.610545 
L 181.886557 -226.418435 
L 182.95935 -225.232067 
L 184.032142 -224.051395 
L 185.104934 -222.876372 
L 186.177726 -221.714449 
L 187.250519 -220.558297 
L 188.323311 -219.40768 
L 189.396103 -218.262548 
L 190.468895 -217.1238 
L 191.541688 -215.990682 
L 192.61448 -214.862352 
L 193.687272 -213.735805 
L 194.760064 -212.618048 
L 195.832856 -211.505867 
L 196.905649 -210.398821 
L 197.978441 -209.296867 
L 199.051233 -208.199962 
L 200.124025 -207.108064 
L 201.196818 -206.017873 
L 202.26961 -204.93642 
L 203.342402 -203.853731 
L 204.415194 -202.782814 
L 205.487986 -201.716747 
L 206.560779 -200.648839 
L 207.633571 -199.587083 
L 208.706363 -198.531039 
L 209.779155 -197.47193 
L 210.851948 -196.416504 
L 211.92474 -195.365782 
L 212.997532 -194.32154 
L 214.070324 -193.283802 
L 215.143117 -192.250761 
L 216.215909 -191.219361 
L 217.288701 -190.18489 
L 218.361493 -189.157743 
L 219.434285 -188.135209 
L 220.507078 -187.113899 
L 221.57987 -186.097102 
L 222.652662 -185.084791 
L 223.725454 -184.076991 
L 224.798247 -183.089307 
L 225.871039 -182.09491 
L 226.943831 -181.101778 
L 228.016623 -180.122354 
L 229.089415 -179.145048 
L 230.162208 -178.165179 
L 231.235 -177.186041 
L 232.307792 -176.207594 
L 233.380584 -175.23341 
L 234.453377 -174.263496 
L 235.526169 -173.302705 
L 236.598961 -172.346061 
L 237.671753 -171.394216 
L 238.744546 -170.450337 
L 239.817338 -169.510605 
L 240.89013 -168.575104 
L 241.962922 -167.643769 
L 243.035714 -166.716508 
L 244.108507 -165.791799 
L 245.181299 -164.867264 
L 246.254091 -163.949769 
L 247.326883 -163.038105 
L 248.399676 -162.130095 
L 249.472468 -161.225712 
L 250.54526 -160.318802 
L 251.618052 -159.414654 
L 252.690844 -158.514224 
L 253.763637 -157.617656 
L 254.836429 -156.726282 
L 255.909221 -155.835499 
L 256.982013 -154.94853 
L 258.054806 -154.065914 
L 259.127598 -153.186824 
L 260.20039 -152.311236 
L 261.273182 -151.439152 
L 262.345975 -150.570573 
L 263.418767 -149.705437 
L 264.491559 -148.843719 
L 265.564351 -147.986119 
L 266.637143 -147.134029 
L 267.709936 -146.287976 
L 268.782728 -145.445406 
L 269.85552 -144.6063 
L 270.928312 -143.770639 
L 272.001105 -142.935242 
L 273.073897 -142.099183 
L 274.146689 -141.266334 
L 275.219481 -140.436676 
L 276.292273 -139.61019 
L 277.365066 -138.786858 
L 278.437858 -137.966661 
L 279.51065 -137.149582 
L 280.583442 -136.335603 
L 281.656235 -135.524704 
L 282.729027 -134.716275 
L 283.801819 -133.909864 
L 284.874611 -133.109804 
L 285.947404 -132.311324 
L 287.020196 -131.515459 
L 288.092988 -130.722624 
L 289.16578 -129.932797 
L 290.238572 -129.145991 
L 291.311365 -128.363201 
L 292.384157 -127.588374 
L 293.456949 -126.81679 
L 294.529741 -126.045959 
L 295.602534 -125.282376 
L 296.675326 -124.519565 
L 297.748118 -123.759707 
L 298.82091 -123.002785 
L 299.893702 -122.244589 
L 300.966495 -121.485298 
L 302.039287 -120.728779 
L 303.112079 -119.975016 
L 304.184871 -119.223994 
L 305.257664 -118.475781 
L 306.330456 -117.730283 
L 307.403248 -116.989405 
L 308.47604 -116.255167 
L 309.548833 -115.523643 
L 310.621625 -114.790372 
L 311.694417 -114.058841 
L 312.767209 -113.329895 
L 313.840001 -112.603509 
L 314.912794 -111.879668 
L 315.985586 -111.158359 
L 317.058378 -110.439567 
L 318.13117 -109.723279 
L 319.203963 -109.009374 
L 320.276755 -108.298056 
L 321.349547 -107.589133 
L 322.422339 -106.882748 
L 323.495131 -106.181191 
L 324.567924 -105.482762 
L 325.640716 -104.786814 
L 326.713508 -104.093333 
L 327.7863 -103.402306 
L 328.859093 -102.710323 
L 329.931885 -102.020488 
L 331.004677 -101.333002 
L 332.077469 -100.647853 
L 333.150262 -99.965027 
L 334.223054 -99.284513 
L 335.295846 -98.606298 
L 336.368638 -97.930371 
L 337.44143 -97.256719 
L 338.514223 -96.585329 
L 339.587015 -95.916192 
L 340.659807 -95.249293 
L 341.732599 -94.584623 
L 342.805392 -93.922168 
L 343.878184 -93.261986 
L 344.950976 -92.604017 
L 346.023768 -91.948232 
L 347.096561 -91.294618 
L 348.169353 -90.646187 
L 349.242145 -90.00051 
L 350.314937 -89.357016 
L 351.387729 -88.714048 
L 352.460522 -88.068092 
L 353.533314 -87.424239 
L 354.606106 -86.782477 
L 355.678898 -86.142797 
L 356.751691 -85.507061 
L 357.824483 -84.874377 
L 358.897275 -84.243745 
L 359.970067 -83.615153 
L 361.042859 -82.988702 
L 362.115652 -82.36428 
L 363.188444 -81.741085 
L 364.261236 -81.117199 
L 365.334028 -80.500452 
L 366.406821 -79.885686 
L 367.479613 -79.272659 
L 368.552405 -78.661954 
L 369.625197 -78.049954 
L 370.69799 -77.443696 
L 371.770782 -76.839403 
L 372.843574 -76.235569 
L 373.916366 -75.626173 
L 374.989158 -75.024575 
L 376.061951 -74.422768 
L 377.134743 -73.821344 
L 378.207535 -73.21945 
L 379.280327 -72.621344 
L 380.35312 -72.016462 
L 381.425912 -71.419064 
L 382.498704 -70.811633 
L 383.571496 -70.210031 
L 384.644288 -69.613312 
L 385.717081 -69.015853 
L 386.789873 -68.427603 
L 387.862665 -67.836586 
L 388.935457 -67.247919 
L 390.00825 -66.657517 
L 391.081042 -66.0672 
L 392.153834 -65.483132 
L 393.226626 -64.901734 
L 394.299419 -64.319392 
L 395.372211 -63.729719 
L 395.372211 -67.314742 
L 395.372211 -67.314742 
L 394.299419 -67.842801 
L 393.226626 -68.372779 
L 392.153834 -68.904688 
L 391.081042 -69.438535 
L 390.00825 -69.974331 
L 388.935457 -70.512084 
L 387.862665 -71.051805 
L 386.789873 -71.593502 
L 385.717081 -72.137186 
L 384.644288 -72.686179 
L 383.571496 -73.239343 
L 382.498704 -73.794453 
L 381.425912 -74.35152 
L 380.35312 -74.908121 
L 379.280327 -75.462003 
L 378.207535 -76.017971 
L 377.134743 -76.576035 
L 376.061951 -77.136206 
L 374.989158 -77.698494 
L 373.916366 -78.262909 
L 372.843574 -78.829461 
L 371.770782 -79.398161 
L 370.69799 -79.96902 
L 369.625197 -80.542047 
L 368.552405 -81.117255 
L 367.479613 -81.695432 
L 366.406821 -82.276733 
L 365.334028 -82.860211 
L 364.261236 -83.445878 
L 363.188444 -84.033743 
L 362.115652 -84.623819 
L 361.042859 -85.216115 
L 359.970067 -85.810644 
L 358.897275 -86.407339 
L 357.824483 -87.006201 
L 356.751691 -87.607333 
L 355.678898 -88.210745 
L 354.606106 -88.816449 
L 353.533314 -89.424457 
L 352.460522 -90.03478 
L 351.387729 -90.64743 
L 350.314937 -91.262418 
L 349.242145 -91.879757 
L 348.169353 -92.499458 
L 347.096561 -93.121534 
L 346.023768 -93.745996 
L 344.950976 -94.372856 
L 343.878184 -95.002127 
L 342.805392 -95.633821 
L 341.732599 -96.270274 
L 340.659807 -96.912783 
L 339.587015 -97.557676 
L 338.514223 -98.204966 
L 337.44143 -98.854664 
L 336.368638 -99.499639 
L 335.295846 -100.139958 
L 334.223054 -100.782884 
L 333.150262 -101.430932 
L 332.077469 -102.095234 
L 331.004677 -102.761965 
L 329.931885 -103.431027 
L 328.859093 -104.102491 
L 327.7863 -104.776427 
L 326.713508 -105.452848 
L 325.640716 -106.131767 
L 324.567924 -106.812014 
L 323.495131 -107.48887 
L 322.422339 -108.168447 
L 321.349547 -108.850451 
L 320.276755 -109.5352 
L 319.203963 -110.222324 
L 318.13117 -110.90725 
L 317.058378 -111.59493 
L 315.985586 -112.28538 
L 314.912794 -112.978615 
L 313.840001 -113.703064 
L 312.767209 -114.421151 
L 311.694417 -115.158897 
L 310.621625 -115.899131 
L 309.548833 -116.627412 
L 308.47604 -117.349206 
L 307.403248 -118.086546 
L 306.330456 -118.818741 
L 305.257664 -119.560134 
L 304.184871 -120.30904 
L 303.112079 -121.053988 
L 302.039287 -121.813952 
L 300.966495 -122.576318 
L 299.893702 -123.335322 
L 298.82091 -124.102838 
L 297.748118 -124.873525 
L 296.675326 -125.627116 
L 295.602534 -126.399485 
L 294.529741 -127.16839 
L 293.456949 -127.94845 
L 292.384157 -128.726578 
L 291.311365 -129.507254 
L 290.238572 -130.290528 
L 289.16578 -131.076442 
L 288.092988 -131.864513 
L 287.020196 -132.655065 
L 285.947404 -133.449295 
L 284.874611 -134.247849 
L 283.801819 -135.0511 
L 282.729027 -135.85716 
L 281.656235 -136.666046 
L 280.583442 -137.477775 
L 279.51065 -138.292367 
L 278.437858 -139.109838 
L 277.365066 -139.927216 
L 276.292273 -140.746646 
L 275.219481 -141.573893 
L 274.146689 -142.404119 
L 273.073897 -143.237344 
L 272.001105 -144.073586 
L 270.928312 -144.912863 
L 269.85552 -145.75513 
L 268.782728 -146.599367 
L 267.709936 -147.446674 
L 266.637143 -148.297071 
L 265.564351 -149.150577 
L 264.491559 -150.008167 
L 263.418767 -150.874666 
L 262.345975 -151.739164 
L 261.273182 -152.606771 
L 260.20039 -153.477508 
L 259.127598 -154.351498 
L 258.054806 -155.228764 
L 256.982013 -156.109325 
L 255.909221 -156.993203 
L 254.836429 -157.880419 
L 253.763637 -158.770995 
L 252.690844 -159.664953 
L 251.618052 -160.562315 
L 250.54526 -161.463102 
L 249.472468 -162.367338 
L 248.399676 -163.275044 
L 247.326883 -164.186545 
L 246.254091 -165.102994 
L 245.181299 -166.023029 
L 244.108507 -166.948041 
L 243.035714 -167.877014 
L 241.962922 -168.80966 
L 240.89013 -169.746 
L 239.817338 -170.68606 
L 238.744546 -171.62871 
L 237.671753 -172.573275 
L 236.598961 -173.521514 
L 235.526169 -174.473424 
L 234.453377 -175.42871 
L 233.380584 -176.38913 
L 232.307792 -177.358311 
L 231.235 -178.332198 
L 230.162208 -179.310031 
L 229.089415 -180.291838 
L 228.016623 -181.277644 
L 226.943831 -182.265752 
L 225.871039 -183.249741 
L 224.798247 -184.237736 
L 223.725454 -185.229774 
L 222.652662 -186.225885 
L 221.57987 -187.228648 
L 220.507078 -188.238355 
L 219.434285 -189.252243 
L 218.361493 -190.270338 
L 217.288701 -191.292671 
L 216.215909 -192.319271 
L 215.143117 -193.350168 
L 214.070324 -194.382981 
L 212.997532 -195.417513 
L 211.92474 -196.459112 
L 210.851948 -197.507304 
L 209.779155 -198.559243 
L 208.706363 -199.612179 
L 207.633571 -200.669668 
L 206.560779 -201.732661 
L 205.487986 -202.810589 
L 204.415194 -203.892177 
L 203.342402 -204.972488 
L 202.26961 -206.052613 
L 201.196818 -207.136425 
L 200.124025 -208.224933 
L 199.051233 -209.324345 
L 197.978441 -210.429859 
L 196.905649 -211.540264 
L 195.832856 -212.657722 
L 194.760064 -213.78165 
L 193.687272 -214.911119 
L 192.61448 -216.042759 
L 191.541688 -217.182219 
L 190.468895 -218.32298 
L 189.396103 -219.467028 
L 188.323311 -220.616221 
L 187.250519 -221.770599 
L 186.177726 -222.9302 
L 185.104934 -224.101925 
L 184.032142 -225.28405 
L 182.95935 -226.471583 
L 181.886557 -227.664563 
L 180.813765 -228.863025 
L 179.740973 -230.063511 
L 178.668181 -231.267147 
L 177.595389 -232.476367 
L 176.522596 -233.691211 
L 175.449804 -234.911722 
L 174.377012 -236.141663 
L 173.30422 -237.379482 
L 172.231427 -238.623034 
L 171.158635 -239.872434 
L 170.085843 -241.122896 
L 169.013051 -242.374602 
L 167.940259 -243.632094 
L 166.867466 -244.894889 
L 165.794674 -246.159066 
L 164.721882 -247.435876 
L 163.64909 -248.721363 
L 162.576297 -250.011205 
L 161.503505 -251.30767 
L 160.430713 -252.613962 
L 159.357921 -253.92617 
L 158.285128 -255.243304 
L 157.212336 -256.56722 
L 156.139544 -257.903408 
L 155.066752 -259.242298 
L 153.99396 -260.587764 
L 152.921167 -261.939662 
L 151.848375 -263.298117 
L 150.775583 -264.666165 
L 149.702791 -266.041461 
L 148.629998 -267.423552 
L 147.557206 -268.814823 
L 146.484414 -270.21937 
L 145.411622 -271.630857 
L 144.33883 -273.034254 
L 143.266037 -274.443351 
L 142.193245 -275.861682 
L 141.120453 -277.292791 
L 140.047661 -278.743215 
L 138.974868 -280.189022 
L 137.902076 -281.679527 
L 136.829284 -283.139552 
L 135.756492 -284.607983 
L 134.683699 -286.082977 
L 133.610907 -287.600058 
L 132.538115 -289.090823 
L 131.465323 -290.586236 
L 130.392531 -292.106194 
L 129.319738 -293.622444 
L 128.246946 -295.142589 
L 127.174154 -296.670699 
L 126.101362 -298.206836 
L 125.028569 -299.779089 
L 123.955777 -301.351274 
L 122.882985 -302.913183 
L 121.810193 -304.501992 
L 120.7374 -306.100057 
L 119.664608 -307.707224 
L 118.591816 -309.319163 
L 117.519024 -310.928471 
L 116.446232 -312.563311 
L 115.373439 -314.182702 
L 114.300647 -315.806361 
L 113.227855 -317.479679 
L 112.155063 -319.182298 
L 111.08227 -320.895939 
L 110.009478 -322.564925 
L 108.936686 -324.286477 
L 107.863894 -326.01852 
L 106.791102 -327.781481 
L 105.718309 -329.562214 
L 104.645517 -331.354405 
L 103.572725 -333.144039 
L 102.499933 -334.929817 
L 101.42714 -336.726917 
L 100.354348 -338.546727 
L 99.281556 -340.404864 
L 98.208764 -342.276342 
L 97.135971 -344.161338 
L 96.063179 -346.060033 
L 94.990387 -347.972479 
L 93.917595 -349.898875 
L 92.844803 -351.839524 
L 91.77201 -353.794622 
L 90.699218 -355.764366 
L 89.626426 -357.74896 
L 88.553634 -359.748609 
L 87.480841 -361.763525 
L 86.408049 -363.792995 
L 85.335257 -365.826116 
L 84.262465 -367.874842 
L 83.189673 -369.939397 
L 82.11688 -372.020004 
L 81.044088 -374.116895 
L 79.971296 -376.230305 
L 78.898504 -378.360473 
L 77.825711 -380.507645 
L 76.752919 -382.672072 
L 75.680127 -384.85401 
L 74.607335 -387.053719 
z
" style="stroke: #f4b400; stroke-opacity: 0.25"/>
    </defs>
    <g clip-path="url(#pf5038e4a0f)">
     <use xlink:href="#m8fade81c58" x="0" y="432" style="fill: #f4b400; fill-opacity: 0.25; stroke: #f4b400; stroke-opacity: 0.25"/>
    </g>
   </g>
   <g id="matplotlib.axis_1">
    <g id="xtick_1">
     <g id="line2d_1">
      <path d="M 104.679042 384.476364 
L 104.679042 28.778182 
" clip-path="url(#pf5038e4a0f)" style="fill: none; stroke: #b0b0b0; stroke-opacity: 0.3; stroke-width: 0.8; stroke-linecap: square"/>
     </g>
     <g id="line2d_2">
      <defs>
       <path id="m2822f46dac" d="M 0 0 
L 0 3.5 
" style="stroke: #000000; stroke-width: 0.8"/>
      </defs>
      <g>
       <use xlink:href="#m2822f46dac" x="104.679042" y="384.476364" style="stroke: #000000; stroke-width: 0.8"/>
      </g>
     </g>
     <g id="text_1">
      <!-- 0.05 -->
      <g transform="translate(91.319667 400.594489) scale(0.12 -0.12)">
       <defs>
        <path id="DejaVuSans-30" d="M 2034 4250 
Q 1547 4250 1301 3770 
Q 1056 3291 1056 2328 
Q 1056 1369 1301 889 
Q 1547 409 2034 409 
Q 2525 409 2770 889 
Q 3016 1369 3016 2328 
Q 3016 3291 2770 3770 
Q 2525 4250 2034 4250 
z
M 2034 4750 
Q 2819 4750 3233 4129 
Q 3647 3509 3647 2328 
Q 3647 1150 3233 529 
Q 2819 -91 2034 -91 
Q 1250 -91 836 529 
Q 422 1150 422 2328 
Q 422 3509 836 4129 
Q 1250 4750 2034 4750 
z
" transform="scale(0.015625)"/>
        <path id="DejaVuSans-2e" d="M 684 794 
L 1344 794 
L 1344 0 
L 684 0 
L 684 794 
z
" transform="scale(0.015625)"/>
        <path id="DejaVuSans-35" d="M 691 4666 
L 3169 4666 
L 3169 4134 
L 1269 4134 
L 1269 2991 
Q 1406 3038 1543 3061 
Q 1681 3084 1819 3084 
Q 2600 3084 3056 2656 
Q 3513 2228 3513 1497 
Q 3513 744 3044 326 
Q 2575 -91 1722 -91 
Q 1428 -91 1123 -41 
Q 819 9 494 109 
L 494 744 
Q 775 591 1075 516 
Q 1375 441 1709 441 
Q 2250 441 2565 725 
Q 2881 1009 2881 1497 
Q 2881 1984 2565 2268 
Q 2250 2553 1709 2553 
Q 1456 2553 1204 2497 
Q 953 2441 691 2322 
L 691 4666 
z
" transform="scale(0.015625)"/>
       </defs>
       <use xlink:href="#DejaVuSans-30"/>
       <use xlink:href="#DejaVuSans-2e" transform="translate(63.623047 0)"/>
       <use xlink:href="#DejaVuSans-30" transform="translate(95.410156 0)"/>
       <use xlink:href="#DejaVuSans-35" transform="translate(159.033203 0)"/>
      </g>
     </g>
    </g>
    <g id="xtick_2">
     <g id="line2d_3">
      <path d="M 154.798554 384.476364 
L 154.798554 28.778182 
" clip-path="url(#pf5038e4a0f)" style="fill: none; stroke: #b0b0b0; stroke-opacity: 0.3; stroke-width: 0.8; stroke-linecap: square"/>
     </g>
     <g id="line2d_4">
      <g>
       <use xlink:href="#m2822f46dac" x="154.798554" y="384.476364" style="stroke: #000000; stroke-width: 0.8"/>
      </g>
     </g>
     <g id="text_2">
      <!-- 0.10 -->
      <g transform="translate(141.439179 400.594489) scale(0.12 -0.12)">
       <defs>
        <path id="DejaVuSans-31" d="M 794 531 
L 1825 531 
L 1825 4091 
L 703 3866 
L 703 4441 
L 1819 4666 
L 2450 4666 
L 2450 531 
L 3481 531 
L 3481 0 
L 794 0 
L 794 531 
z
" transform="scale(0.015625)"/>
       </defs>
       <use xlink:href="#DejaVuSans-30"/>
       <use xlink:href="#DejaVuSans-2e" transform="translate(63.623047 0)"/>
       <use xlink:href="#DejaVuSans-31" transform="translate(95.410156 0)"/>
       <use xlink:href="#DejaVuSans-30" transform="translate(159.033203 0)"/>
      </g>
     </g>
    </g>
    <g id="xtick_3">
     <g id="line2d_5">
      <path d="M 204.918066 384.476364 
L 204.918066 28.778182 
" clip-path="url(#pf5038e4a0f)" style="fill: none; stroke: #b0b0b0; stroke-opacity: 0.3; stroke-width: 0.8; stroke-linecap: square"/>
     </g>
     <g id="line2d_6">
      <g>
       <use xlink:href="#m2822f46dac" x="204.918066" y="384.476364" style="stroke: #000000; stroke-width: 0.8"/>
      </g>
     </g>
     <g id="text_3">
      <!-- 0.15 -->
      <g transform="translate(191.558691 400.594489) scale(0.12 -0.12)">
       <use xlink:href="#DejaVuSans-30"/>
       <use xlink:href="#DejaVuSans-2e" transform="translate(63.623047 0)"/>
       <use xlink:href="#DejaVuSans-31" transform="translate(95.410156 0)"/>
       <use xlink:href="#DejaVuSans-35" transform="translate(159.033203 0)"/>
      </g>
     </g>
    </g>
    <g id="xtick_4">
     <g id="line2d_7">
      <path d="M 255.037577 384.476364 
L 255.037577 28.778182 
" clip-path="url(#pf5038e4a0f)" style="fill: none; stroke: #b0b0b0; stroke-opacity: 0.3; stroke-width: 0.8; stroke-linecap: square"/>
     </g>
     <g id="line2d_8">
      <g>
       <use xlink:href="#m2822f46dac" x="255.037577" y="384.476364" style="stroke: #000000; stroke-width: 0.8"/>
      </g>
     </g>
     <g id="text_4">
      <!-- 0.20 -->
      <g transform="translate(241.678202 400.594489) scale(0.12 -0.12)">
       <defs>
        <path id="DejaVuSans-32" d="M 1228 531 
L 3431 531 
L 3431 0 
L 469 0 
L 469 531 
Q 828 903 1448 1529 
Q 2069 2156 2228 2338 
Q 2531 2678 2651 2914 
Q 2772 3150 2772 3378 
Q 2772 3750 2511 3984 
Q 2250 4219 1831 4219 
Q 1534 4219 1204 4116 
Q 875 4013 500 3803 
L 500 4441 
Q 881 4594 1212 4672 
Q 1544 4750 1819 4750 
Q 2544 4750 2975 4387 
Q 3406 4025 3406 3419 
Q 3406 3131 3298 2873 
Q 3191 2616 2906 2266 
Q 2828 2175 2409 1742 
Q 1991 1309 1228 531 
z
" transform="scale(0.015625)"/>
       </defs>
       <use xlink:href="#DejaVuSans-30"/>
       <use xlink:href="#DejaVuSans-2e" transform="translate(63.623047 0)"/>
       <use xlink:href="#DejaVuSans-32" transform="translate(95.410156 0)"/>
       <use xlink:href="#DejaVuSans-30" transform="translate(159.033203 0)"/>
      </g>
     </g>
    </g>
    <g id="xtick_5">
     <g id="line2d_9">
      <path d="M 305.157089 384.476364 
L 305.157089 28.778182 
" clip-path="url(#pf5038e4a0f)" style="fill: none; stroke: #b0b0b0; stroke-opacity: 0.3; stroke-width: 0.8; stroke-linecap: square"/>
     </g>
     <g id="line2d_10">
      <g>
       <use xlink:href="#m2822f46dac" x="305.157089" y="384.476364" style="stroke: #000000; stroke-width: 0.8"/>
      </g>
     </g>
     <g id="text_5">
      <!-- 0.25 -->
      <g transform="translate(291.797714 400.594489) scale(0.12 -0.12)">
       <use xlink:href="#DejaVuSans-30"/>
       <use xlink:href="#DejaVuSans-2e" transform="translate(63.623047 0)"/>
       <use xlink:href="#DejaVuSans-32" transform="translate(95.410156 0)"/>
       <use xlink:href="#DejaVuSans-35" transform="translate(159.033203 0)"/>
      </g>
     </g>
    </g>
    <g id="xtick_6">
     <g id="line2d_11">
      <path d="M 355.276601 384.476364 
L 355.276601 28.778182 
" clip-path="url(#pf5038e4a0f)" style="fill: none; stroke: #b0b0b0; stroke-opacity: 0.3; stroke-width: 0.8; stroke-linecap: square"/>
     </g>
     <g id="line2d_12">
      <g>
       <use xlink:href="#m2822f46dac" x="355.276601" y="384.476364" style="stroke: #000000; stroke-width: 0.8"/>
      </g>
     </g>
     <g id="text_6">
      <!-- 0.30 -->
      <g transform="translate(341.917226 400.594489) scale(0.12 -0.12)">
       <defs>
        <path id="DejaVuSans-33" d="M 2597 2516 
Q 3050 2419 3304 2112 
Q 3559 1806 3559 1356 
Q 3559 666 3084 287 
Q 2609 -91 1734 -91 
Q 1441 -91 1130 -33 
Q 819 25 488 141 
L 488 750 
Q 750 597 1062 519 
Q 1375 441 1716 441 
Q 2309 441 2620 675 
Q 2931 909 2931 1356 
Q 2931 1769 2642 2001 
Q 2353 2234 1838 2234 
L 1294 2234 
L 1294 2753 
L 1863 2753 
Q 2328 2753 2575 2939 
Q 2822 3125 2822 3475 
Q 2822 3834 2567 4026 
Q 2313 4219 1838 4219 
Q 1578 4219 1281 4162 
Q 984 4106 628 3988 
L 628 4550 
Q 988 4650 1302 4700 
Q 1616 4750 1894 4750 
Q 2613 4750 3031 4423 
Q 3450 4097 3450 3541 
Q 3450 3153 3228 2886 
Q 3006 2619 2597 2516 
z
" transform="scale(0.015625)"/>
       </defs>
       <use xlink:href="#DejaVuSans-30"/>
       <use xlink:href="#DejaVuSans-2e" transform="translate(63.623047 0)"/>
       <use xlink:href="#DejaVuSans-33" transform="translate(95.410156 0)"/>
       <use xlink:href="#DejaVuSans-30" transform="translate(159.033203 0)"/>
      </g>
     </g>
    </g>
    <g id="xtick_7">
     <g id="line2d_13">
      <path d="M 405.396113 384.476364 
L 405.396113 28.778182 
" clip-path="url(#pf5038e4a0f)" style="fill: none; stroke: #b0b0b0; stroke-opacity: 0.3; stroke-width: 0.8; stroke-linecap: square"/>
     </g>
     <g id="line2d_14">
      <g>
       <use xlink:href="#m2822f46dac" x="405.396113" y="384.476364" style="stroke: #000000; stroke-width: 0.8"/>
      </g>
     </g>
     <g id="text_7">
      <!-- 0.35 -->
      <g transform="translate(392.036738 400.594489) scale(0.12 -0.12)">
       <use xlink:href="#DejaVuSans-30"/>
       <use xlink:href="#DejaVuSans-2e" transform="translate(63.623047 0)"/>
       <use xlink:href="#DejaVuSans-33" transform="translate(95.410156 0)"/>
       <use xlink:href="#DejaVuSans-35" transform="translate(159.033203 0)"/>
      </g>
     </g>
    </g>
    <g id="text_8">
     <!-- h (mm) -->
     <g transform="translate(212.909773 416.208239) scale(0.12 -0.12)">
      <defs>
       <path id="DejaVuSans-68" d="M 3513 2113 
L 3513 0 
L 2938 0 
L 2938 2094 
Q 2938 2591 2744 2837 
Q 2550 3084 2163 3084 
Q 1697 3084 1428 2787 
Q 1159 2491 1159 1978 
L 1159 0 
L 581 0 
L 581 4863 
L 1159 4863 
L 1159 2956 
Q 1366 3272 1645 3428 
Q 1925 3584 2291 3584 
Q 2894 3584 3203 3211 
Q 3513 2838 3513 2113 
z
" transform="scale(0.015625)"/>
       <path id="DejaVuSans-20" transform="scale(0.015625)"/>
       <path id="DejaVuSans-28" d="M 1984 4856 
Q 1566 4138 1362 3434 
Q 1159 2731 1159 2009 
Q 1159 1288 1364 580 
Q 1569 -128 1984 -844 
L 1484 -844 
Q 1016 -109 783 600 
Q 550 1309 550 2009 
Q 550 2706 781 3412 
Q 1013 4119 1484 4856 
L 1984 4856 
z
" transform="scale(0.015625)"/>
       <path id="DejaVuSans-6d" d="M 3328 2828 
Q 3544 3216 3844 3400 
Q 4144 3584 4550 3584 
Q 5097 3584 5394 3201 
Q 5691 2819 5691 2113 
L 5691 0 
L 5113 0 
L 5113 2094 
Q 5113 2597 4934 2840 
Q 4756 3084 4391 3084 
Q 3944 3084 3684 2787 
Q 3425 2491 3425 1978 
L 3425 0 
L 2847 0 
L 2847 2094 
Q 2847 2600 2669 2842 
Q 2491 3084 2119 3084 
Q 1678 3084 1418 2786 
Q 1159 2488 1159 1978 
L 1159 0 
L 581 0 
L 581 3500 
L 1159 3500 
L 1159 2956 
Q 1356 3278 1631 3431 
Q 1906 3584 2284 3584 
Q 2666 3584 2933 3390 
Q 3200 3197 3328 2828 
z
" transform="scale(0.015625)"/>
       <path id="DejaVuSans-29" d="M 513 4856 
L 1013 4856 
Q 1481 4119 1714 3412 
Q 1947 2706 1947 2009 
Q 1947 1309 1714 600 
Q 1481 -109 1013 -844 
L 513 -844 
Q 928 -128 1133 580 
Q 1338 1288 1338 2009 
Q 1338 2731 1133 3434 
Q 928 4138 513 4856 
z
" transform="scale(0.015625)"/>
      </defs>
      <use xlink:href="#DejaVuSans-68"/>
      <use xlink:href="#DejaVuSans-20" transform="translate(63.378906 0)"/>
      <use xlink:href="#DejaVuSans-28" transform="translate(95.166016 0)"/>
      <use xlink:href="#DejaVuSans-6d" transform="translate(134.179688 0)"/>
      <use xlink:href="#DejaVuSans-6d" transform="translate(231.591797 0)"/>
      <use xlink:href="#DejaVuSans-29" transform="translate(329.003906 0)"/>
     </g>
    </g>
   </g>
   <g id="matplotlib.axis_2">
    <g id="ytick_1">
     <g id="line2d_15">
      <path d="M 58.569091 341.631214 
L 411.410455 341.631214 
" clip-path="url(#pf5038e4a0f)" style="fill: none; stroke: #b0b0b0; stroke-opacity: 0.3; stroke-width: 0.8; stroke-linecap: square"/>
     </g>
     <g id="line2d_16">
      <defs>
       <path id="m4b0a0c0f88" d="M 0 0 
L -3.5 0 
" style="stroke: #000000; stroke-width: 0.8"/>
      </defs>
      <g>
       <use xlink:href="#m4b0a0c0f88" x="58.569091" y="341.631214" style="stroke: #000000; stroke-width: 0.8"/>
      </g>
     </g>
     <g id="text_9">
      <!-- 80 -->
      <g transform="translate(36.299091 346.190276) scale(0.12 -0.12)">
       <defs>
        <path id="DejaVuSans-38" d="M 2034 2216 
Q 1584 2216 1326 1975 
Q 1069 1734 1069 1313 
Q 1069 891 1326 650 
Q 1584 409 2034 409 
Q 2484 409 2743 651 
Q 3003 894 3003 1313 
Q 3003 1734 2745 1975 
Q 2488 2216 2034 2216 
z
M 1403 2484 
Q 997 2584 770 2862 
Q 544 3141 544 3541 
Q 544 4100 942 4425 
Q 1341 4750 2034 4750 
Q 2731 4750 3128 4425 
Q 3525 4100 3525 3541 
Q 3525 3141 3298 2862 
Q 3072 2584 2669 2484 
Q 3125 2378 3379 2068 
Q 3634 1759 3634 1313 
Q 3634 634 3220 271 
Q 2806 -91 2034 -91 
Q 1263 -91 848 271 
Q 434 634 434 1313 
Q 434 1759 690 2068 
Q 947 2378 1403 2484 
z
M 1172 3481 
Q 1172 3119 1398 2916 
Q 1625 2713 2034 2713 
Q 2441 2713 2670 2916 
Q 2900 3119 2900 3481 
Q 2900 3844 2670 4047 
Q 2441 4250 2034 4250 
Q 1625 4250 1398 4047 
Q 1172 3844 1172 3481 
z
" transform="scale(0.015625)"/>
       </defs>
       <use xlink:href="#DejaVuSans-38"/>
       <use xlink:href="#DejaVuSans-30" transform="translate(63.623047 0)"/>
      </g>
     </g>
    </g>
    <g id="ytick_2">
     <g id="line2d_17">
      <path d="M 58.569091 283.043255 
L 411.410455 283.043255 
" clip-path="url(#pf5038e4a0f)" style="fill: none; stroke: #b0b0b0; stroke-opacity: 0.3; stroke-width: 0.8; stroke-linecap: square"/>
     </g>
     <g id="line2d_18">
      <g>
       <use xlink:href="#m4b0a0c0f88" x="58.569091" y="283.043255" style="stroke: #000000; stroke-width: 0.8"/>
      </g>
     </g>
     <g id="text_10">
      <!-- 90 -->
      <g transform="translate(36.299091 287.602317) scale(0.12 -0.12)">
       <defs>
        <path id="DejaVuSans-39" d="M 703 97 
L 703 672 
Q 941 559 1184 500 
Q 1428 441 1663 441 
Q 2288 441 2617 861 
Q 2947 1281 2994 2138 
Q 2813 1869 2534 1725 
Q 2256 1581 1919 1581 
Q 1219 1581 811 2004 
Q 403 2428 403 3163 
Q 403 3881 828 4315 
Q 1253 4750 1959 4750 
Q 2769 4750 3195 4129 
Q 3622 3509 3622 2328 
Q 3622 1225 3098 567 
Q 2575 -91 1691 -91 
Q 1453 -91 1209 -44 
Q 966 3 703 97 
z
M 1959 2075 
Q 2384 2075 2632 2365 
Q 2881 2656 2881 3163 
Q 2881 3666 2632 3958 
Q 2384 4250 1959 4250 
Q 1534 4250 1286 3958 
Q 1038 3666 1038 3163 
Q 1038 2656 1286 2365 
Q 1534 2075 1959 2075 
z
" transform="scale(0.015625)"/>
       </defs>
       <use xlink:href="#DejaVuSans-39"/>
       <use xlink:href="#DejaVuSans-30" transform="translate(63.623047 0)"/>
      </g>
     </g>
    </g>
    <g id="ytick_3">
     <g id="line2d_19">
      <path d="M 58.569091 224.455296 
L 411.410455 224.455296 
" clip-path="url(#pf5038e4a0f)" style="fill: none; stroke: #b0b0b0; stroke-opacity: 0.3; stroke-width: 0.8; stroke-linecap: square"/>
     </g>
     <g id="line2d_20">
      <g>
       <use xlink:href="#m4b0a0c0f88" x="58.569091" y="224.455296" style="stroke: #000000; stroke-width: 0.8"/>
      </g>
     </g>
     <g id="text_11">
      <!-- 100 -->
      <g transform="translate(28.664091 229.014358) scale(0.12 -0.12)">
       <use xlink:href="#DejaVuSans-31"/>
       <use xlink:href="#DejaVuSans-30" transform="translate(63.623047 0)"/>
       <use xlink:href="#DejaVuSans-30" transform="translate(127.246094 0)"/>
      </g>
     </g>
    </g>
    <g id="ytick_4">
     <g id="line2d_21">
      <path d="M 58.569091 165.867337 
L 411.410455 165.867337 
" clip-path="url(#pf5038e4a0f)" style="fill: none; stroke: #b0b0b0; stroke-opacity: 0.3; stroke-width: 0.8; stroke-linecap: square"/>
     </g>
     <g id="line2d_22">
      <g>
       <use xlink:href="#m4b0a0c0f88" x="58.569091" y="165.867337" style="stroke: #000000; stroke-width: 0.8"/>
      </g>
     </g>
     <g id="text_12">
      <!-- 110 -->
      <g transform="translate(28.664091 170.426399) scale(0.12 -0.12)">
       <use xlink:href="#DejaVuSans-31"/>
       <use xlink:href="#DejaVuSans-31" transform="translate(63.623047 0)"/>
       <use xlink:href="#DejaVuSans-30" transform="translate(127.246094 0)"/>
      </g>
     </g>
    </g>
    <g id="ytick_5">
     <g id="line2d_23">
      <path d="M 58.569091 107.279378 
L 411.410455 107.279378 
" clip-path="url(#pf5038e4a0f)" style="fill: none; stroke: #b0b0b0; stroke-opacity: 0.3; stroke-width: 0.8; stroke-linecap: square"/>
     </g>
     <g id="line2d_24">
      <g>
       <use xlink:href="#m4b0a0c0f88" x="58.569091" y="107.279378" style="stroke: #000000; stroke-width: 0.8"/>
      </g>
     </g>
     <g id="text_13">
      <!-- 120 -->
      <g transform="translate(28.664091 111.83844) scale(0.12 -0.12)">
       <use xlink:href="#DejaVuSans-31"/>
       <use xlink:href="#DejaVuSans-32" transform="translate(63.623047 0)"/>
       <use xlink:href="#DejaVuSans-30" transform="translate(127.246094 0)"/>
      </g>
     </g>
    </g>
    <g id="ytick_6">
     <g id="line2d_25">
      <path d="M 58.569091 48.691419 
L 411.410455 48.691419 
" clip-path="url(#pf5038e4a0f)" style="fill: none; stroke: #b0b0b0; stroke-opacity: 0.3; stroke-width: 0.8; stroke-linecap: square"/>
     </g>
     <g id="line2d_26">
      <g>
       <use xlink:href="#m4b0a0c0f88" x="58.569091" y="48.691419" style="stroke: #000000; stroke-width: 0.8"/>
      </g>
     </g>
     <g id="text_14">
      <!-- 130 -->
      <g transform="translate(28.664091 53.250481) scale(0.12 -0.12)">
       <use xlink:href="#DejaVuSans-31"/>
       <use xlink:href="#DejaVuSans-33" transform="translate(63.623047 0)"/>
       <use xlink:href="#DejaVuSans-30" transform="translate(127.246094 0)"/>
      </g>
     </g>
    </g>
    <g id="text_15">
     <!-- T/Ω -->
     <g transform="translate(22.168466 216.898523) rotate(-90) scale(0.12 -0.12)">
      <defs>
       <path id="DejaVuSans-54" d="M -19 4666 
L 3928 4666 
L 3928 4134 
L 2272 4134 
L 2272 0 
L 1638 0 
L 1638 4134 
L -19 4134 
L -19 4666 
z
" transform="scale(0.015625)"/>
       <path id="DejaVuSans-2f" d="M 1625 4666 
L 2156 4666 
L 531 -594 
L 0 -594 
L 1625 4666 
z
" transform="scale(0.015625)"/>
       <path id="DejaVuSans-3a9" d="M 4647 556 
L 4647 0 
L 2772 0 
L 2772 556 
Q 3325 859 3634 1378 
Q 3944 1897 3944 2528 
Q 3944 3278 3531 3731 
Q 3119 4184 2444 4184 
Q 1769 4184 1355 3729 
Q 941 3275 941 2528 
Q 941 1897 1250 1378 
Q 1563 859 2119 556 
L 2119 0 
L 244 0 
L 244 556 
L 1241 556 
Q 747 991 519 1456 
Q 294 1922 294 2497 
Q 294 3491 894 4106 
Q 1491 4722 2444 4722 
Q 3391 4722 3994 4106 
Q 4594 3494 4594 2528 
Q 4594 1922 4372 1459 
Q 4150 997 3647 556 
L 4647 556 
z
" transform="scale(0.015625)"/>
      </defs>
      <use xlink:href="#DejaVuSans-54"/>
      <use xlink:href="#DejaVuSans-2f" transform="translate(61.083984 0)"/>
      <use xlink:href="#DejaVuSans-3a9" transform="translate(94.775391 0)"/>
     </g>
    </g>
   </g>
   <g id="line2d_27">
    <path d="M 74.607335 48.953596 
L 81.044088 61.06048 
L 87.480841 72.6708 
L 93.917595 83.85527 
L 100.354348 94.647986 
L 107.863894 106.791333 
L 115.373439 118.52092 
L 122.882985 129.777228 
L 130.392531 140.588406 
L 136.829284 149.543095 
L 144.33883 159.612008 
L 151.848375 169.328181 
L 160.430713 180.008747 
L 169.013051 190.273919 
L 177.595389 200.14848 
L 186.177726 209.652094 
L 194.760064 218.803832 
L 203.342402 227.631203 
L 211.92474 236.152075 
L 220.507078 244.375487 
L 230.162208 253.30563 
L 239.817338 261.911139 
L 249.472468 270.210479 
L 259.127598 278.201247 
L 269.85552 286.760483 
L 279.51065 294.191857 
L 289.16578 301.391203 
L 300.966495 309.883501 
L 311.694417 317.32375 
L 323.495131 325.237924 
L 335.295846 332.86412 
L 346.023768 339.572433 
L 357.824483 346.713011 
L 370.69799 354.222088 
L 383.571496 361.463537 
L 395.372211 367.881183 
L 395.372211 367.881183 
" clip-path="url(#pf5038e4a0f)" style="fill: none; stroke: #4285f4; stroke-width: 1.6; stroke-linecap: square"/>
   </g>
   <g id="line2d_28">
    <defs>
     <path id="m1f415f5994" d="M 0 2 
C 0.530406 2 1.03916 1.789267 1.414214 1.414214 
C 1.789267 1.03916 2 0.530406 2 0 
C 2 -0.530406 1.789267 -1.03916 1.414214 -1.414214 
C 1.03916 -1.789267 0.530406 -2 0 -2 
C -0.530406 -2 -1.03916 -1.789267 -1.414214 -1.414214 
C -1.789267 -1.03916 -2 -0.530406 -2 0 
C -2 0.530406 -1.789267 1.03916 -1.414214 1.414214 
C -1.03916 1.789267 -0.530406 2 0 2 
z
" style="stroke: #db4437"/>
    </defs>
    <g clip-path="url(#pf5038e4a0f)">
     <use xlink:href="#m1f415f5994" x="74.607335" y="49.550709" style="fill: #db4437; stroke: #db4437"/>
     <use xlink:href="#m1f415f5994" x="94.655139" y="84.351957" style="fill: #db4437; stroke: #db4437"/>
     <use xlink:href="#m1f415f5994" x="114.702944" y="117.668976" style="fill: #db4437; stroke: #db4437"/>
     <use xlink:href="#m1f415f5994" x="134.750749" y="145.713079" style="fill: #db4437; stroke: #db4437"/>
     <use xlink:href="#m1f415f5994" x="154.798554" y="173.444713" style="fill: #db4437; stroke: #db4437"/>
     <use xlink:href="#m1f415f5994" x="174.846358" y="196.645544" style="fill: #db4437; stroke: #db4437"/>
     <use xlink:href="#m1f415f5994" x="194.894163" y="220.04167" style="fill: #db4437; stroke: #db4437"/>
     <use xlink:href="#m1f415f5994" x="214.941968" y="239.219461" style="fill: #db4437; stroke: #db4437"/>
     <use xlink:href="#m1f415f5994" x="234.989773" y="258.475371" style="fill: #db4437; stroke: #db4437"/>
     <use xlink:href="#m1f415f5994" x="255.037577" y="274.684706" style="fill: #db4437; stroke: #db4437"/>
     <use xlink:href="#m1f415f5994" x="275.085382" y="290.854983" style="fill: #db4437; stroke: #db4437"/>
     <use xlink:href="#m1f415f5994" x="295.133187" y="304.7208" style="fill: #db4437; stroke: #db4437"/>
     <use xlink:href="#m1f415f5994" x="315.180992" y="319.406848" style="fill: #db4437; stroke: #db4437"/>
     <use xlink:href="#m1f415f5994" x="335.228796" y="332.022789" style="fill: #db4437; stroke: #db4437"/>
     <use xlink:href="#m1f415f5994" x="355.276601" y="345.537078" style="fill: #db4437; stroke: #db4437"/>
     <use xlink:href="#m1f415f5994" x="375.324406" y="357.098435" style="fill: #db4437; stroke: #db4437"/>
     <use xlink:href="#m1f415f5994" x="395.372211" y="368.308264" style="fill: #db4437; stroke: #db4437"/>
    </g>
   </g>
   <g id="patch_3">
    <path d="M 58.569091 384.476364 
L 58.569091 28.778182 
" style="fill: none; stroke: #000000; stroke-width: 0.8; stroke-linejoin: miter; stroke-linecap: square"/>
   </g>
   <g id="patch_4">
    <path d="M 411.410455 384.476364 
L 411.410455 28.778182 
" style="fill: none; stroke: #000000; stroke-width: 0.8; stroke-linejoin: miter; stroke-linecap: square"/>
   </g>
   <g id="patch_5">
    <path d="M 58.569091 384.476364 
L 411.410455 384.476364 
" style="fill: none; stroke: #000000; stroke-width: 0.8; stroke-linejoin: miter; stroke-linecap: square"/>
   </g>
   <g id="patch_6">
    <path d="M 58.569091 28.778182 
L 411.410455 28.778182 
" style="fill: none; stroke: #000000; stroke-width: 0.8; stroke-linejoin: miter; stroke-linecap: square"/>
   </g>
   <g id="text_16">
    <!-- Bootstrap prediction band — gen_power -->
    <g transform="translate(103.997507 22.778182) scale(0.13 -0.13)">
     <defs>
      <path id="DejaVuSans-42" d="M 1259 2228 
L 1259 519 
L 2272 519 
Q 2781 519 3026 730 
Q 3272 941 3272 1375 
Q 3272 1813 3026 2020 
Q 2781 2228 2272 2228 
L 1259 2228 
z
M 1259 4147 
L 1259 2741 
L 2194 2741 
Q 2656 2741 2882 2914 
Q 3109 3088 3109 3444 
Q 3109 3797 2882 3972 
Q 2656 4147 2194 4147 
L 1259 4147 
z
M 628 4666 
L 2241 4666 
Q 2963 4666 3353 4366 
Q 3744 4066 3744 3513 
Q 3744 3084 3544 2831 
Q 3344 2578 2956 2516 
Q 3422 2416 3680 2098 
Q 3938 1781 3938 1306 
Q 3938 681 3513 340 
Q 3088 0 2303 0 
L 628 0 
L 628 4666 
z
" transform="scale(0.015625)"/>
      <path id="DejaVuSans-6f" d="M 1959 3097 
Q 1497 3097 1228 2736 
Q 959 2375 959 1747 
Q 959 1119 1226 758 
Q 1494 397 1959 397 
Q 2419 397 2687 759 
Q 2956 1122 2956 1747 
Q 2956 2369 2687 2733 
Q 2419 3097 1959 3097 
z
M 1959 3584 
Q 2709 3584 3137 3096 
Q 3566 2609 3566 1747 
Q 3566 888 3137 398 
Q 2709 -91 1959 -91 
Q 1206 -91 779 398 
Q 353 888 353 1747 
Q 353 2609 779 3096 
Q 1206 3584 1959 3584 
z
" transform="scale(0.015625)"/>
      <path id="DejaVuSans-74" d="M 1172 4494 
L 1172 3500 
L 2356 3500 
L 2356 3053 
L 1172 3053 
L 1172 1153 
Q 1172 725 1289 603 
Q 1406 481 1766 481 
L 2356 481 
L 2356 0 
L 1766 0 
Q 1100 0 847 248 
Q 594 497 594 1153 
L 594 3053 
L 172 3053 
L 172 3500 
L 594 3500 
L 594 4494 
L 1172 4494 
z
" transform="scale(0.015625)"/>
      <path id="DejaVuSans-73" d="M 2834 3397 
L 2834 2853 
Q 2591 2978 2328 3040 
Q 2066 3103 1784 3103 
Q 1356 3103 1142 2972 
Q 928 2841 928 2578 
Q 928 2378 1081 2264 
Q 1234 2150 1697 2047 
L 1894 2003 
Q 2506 1872 2764 1633 
Q 3022 1394 3022 966 
Q 3022 478 2636 193 
Q 2250 -91 1575 -91 
Q 1294 -91 989 -36 
Q 684 19 347 128 
L 347 722 
Q 666 556 975 473 
Q 1284 391 1588 391 
Q 1994 391 2212 530 
Q 2431 669 2431 922 
Q 2431 1156 2273 1281 
Q 2116 1406 1581 1522 
L 1381 1569 
Q 847 1681 609 1914 
Q 372 2147 372 2553 
Q 372 3047 722 3315 
Q 1072 3584 1716 3584 
Q 2034 3584 2315 3537 
Q 2597 3491 2834 3397 
z
" transform="scale(0.015625)"/>
      <path id="DejaVuSans-72" d="M 2631 2963 
Q 2534 3019 2420 3045 
Q 2306 3072 2169 3072 
Q 1681 3072 1420 2755 
Q 1159 2438 1159 1844 
L 1159 0 
L 581 0 
L 581 3500 
L 1159 3500 
L 1159 2956 
Q 1341 3275 1631 3429 
Q 1922 3584 2338 3584 
Q 2397 3584 2469 3576 
Q 2541 3569 2628 3553 
L 2631 2963 
z
" transform="scale(0.015625)"/>
      <path id="DejaVuSans-61" d="M 2194 1759 
Q 1497 1759 1228 1600 
Q 959 1441 959 1056 
Q 959 750 1161 570 
Q 1363 391 1709 391 
Q 2188 391 2477 730 
Q 2766 1069 2766 1631 
L 2766 1759 
L 2194 1759 
z
M 3341 1997 
L 3341 0 
L 2766 0 
L 2766 531 
Q 2569 213 2275 61 
Q 1981 -91 1556 -91 
Q 1019 -91 701 211 
Q 384 513 384 1019 
Q 384 1609 779 1909 
Q 1175 2209 1959 2209 
L 2766 2209 
L 2766 2266 
Q 2766 2663 2505 2880 
Q 2244 3097 1772 3097 
Q 1472 3097 1187 3025 
Q 903 2953 641 2809 
L 641 3341 
Q 956 3463 1253 3523 
Q 1550 3584 1831 3584 
Q 2591 3584 2966 3190 
Q 3341 2797 3341 1997 
z
" transform="scale(0.015625)"/>
      <path id="DejaVuSans-70" d="M 1159 525 
L 1159 -1331 
L 581 -1331 
L 581 3500 
L 1159 3500 
L 1159 2969 
Q 1341 3281 1617 3432 
Q 1894 3584 2278 3584 
Q 2916 3584 3314 3078 
Q 3713 2572 3713 1747 
Q 3713 922 3314 415 
Q 2916 -91 2278 -91 
Q 1894 -91 1617 61 
Q 1341 213 1159 525 
z
M 3116 1747 
Q 3116 2381 2855 2742 
Q 2594 3103 2138 3103 
Q 1681 3103 1420 2742 
Q 1159 2381 1159 1747 
Q 1159 1113 1420 752 
Q 1681 391 2138 391 
Q 2594 391 2855 752 
Q 3116 1113 3116 1747 
z
" transform="scale(0.015625)"/>
      <path id="DejaVuSans-65" d="M 3597 1894 
L 3597 1613 
L 953 1613 
Q 991 1019 1311 708 
Q 1631 397 2203 397 
Q 2534 397 2845 478 
Q 3156 559 3463 722 
L 3463 178 
Q 3153 47 2828 -22 
Q 2503 -91 2169 -91 
Q 1331 -91 842 396 
Q 353 884 353 1716 
Q 353 2575 817 3079 
Q 1281 3584 2069 3584 
Q 2775 3584 3186 3129 
Q 3597 2675 3597 1894 
z
M 3022 2063 
Q 3016 2534 2758 2815 
Q 2500 3097 2075 3097 
Q 1594 3097 1305 2825 
Q 1016 2553 972 2059 
L 3022 2063 
z
" transform="scale(0.015625)"/>
      <path id="DejaVuSans-64" d="M 2906 2969 
L 2906 4863 
L 3481 4863 
L 3481 0 
L 2906 0 
L 2906 525 
Q 2725 213 2448 61 
Q 2172 -91 1784 -91 
Q 1150 -91 751 415 
Q 353 922 353 1747 
Q 353 2572 751 3078 
Q 1150 3584 1784 3584 
Q 2172 3584 2448 3432 
Q 2725 3281 2906 2969 
z
M 947 1747 
Q 947 1113 1208 752 
Q 1469 391 1925 391 
Q 2381 391 2643 752 
Q 2906 1113 2906 1747 
Q 2906 2381 2643 2742 
Q 2381 3103 1925 3103 
Q 1469 3103 1208 2742 
Q 947 2381 947 1747 
z
" transform="scale(0.015625)"/>
      <path id="DejaVuSans-69" d="M 603 3500 
L 1178 3500 
L 1178 0 
L 603 0 
L 603 3500 
z
M 603 4863 
L 1178 4863 
L 1178 4134 
L 603 4134 
L 603 4863 
z
" transform="scale(0.015625)"/>
      <path id="DejaVuSans-63" d="M 3122 3366 
L 3122 2828 
Q 2878 2963 2633 3030 
Q 2388 3097 2138 3097 
Q 1578 3097 1268 2742 
Q 959 2388 959 1747 
Q 959 1106 1268 751 
Q 1578 397 2138 397 
Q 2388 397 2633 464 
Q 2878 531 3122 666 
L 3122 134 
Q 2881 22 2623 -34 
Q 2366 -91 2075 -91 
Q 1284 -91 818 406 
Q 353 903 353 1747 
Q 353 2603 823 3093 
Q 1294 3584 2113 3584 
Q 2378 3584 2631 3529 
Q 2884 3475 3122 3366 
z
" transform="scale(0.015625)"/>
      <path id="DejaVuSans-6e" d="M 3513 2113 
L 3513 0 
L 2938 0 
L 2938 2094 
Q 2938 2591 2744 2837 
Q 2550 3084 2163 3084 
Q 1697 3084 1428 2787 
Q 1159 2491 1159 1978 
L 1159 0 
L 581 0 
L 581 3500 
L 1159 3500 
L 1159 2956 
Q 1366 3272 1645 3428 
Q 1925 3584 2291 3584 
Q 2894 3584 3203 3211 
Q 3513 2838 3513 2113 
z
" transform="scale(0.015625)"/>
      <path id="DejaVuSans-62" d="M 3116 1747 
Q 3116 2381 2855 2742 
Q 2594 3103 2138 3103 
Q 1681 3103 1420 2742 
Q 1159 2381 1159 1747 
Q 1159 1113 1420 752 
Q 1681 391 2138 391 
Q 2594 391 2855 752 
Q 3116 1113 3116 1747 
z
M 1159 2969 
Q 1341 3281 1617 3432 
Q 1894 3584 2278 3584 
Q 2916 3584 3314 3078 
Q 3713 2572 3713 1747 
Q 3713 922 3314 415 
Q 2916 -91 2278 -91 
Q 1894 -91 1617 61 
Q 1341 213 1159 525 
L 1159 0 
L 581 0 
L 581 4863 
L 1159 4863 
L 1159 2969 
z
" transform="scale(0.015625)"/>
      <path id="DejaVuSans-2014" d="M 313 1978 
L 6088 1978 
L 6088 1528 
L 313 1528 
L 313 1978 
z
" transform="scale(0.015625)"/>
      <path id="DejaVuSans-67" d="M 2906 1791 
Q 2906 2416 2648 2759 
Q 2391 3103 1925 3103 
Q 1463 3103 1205 2759 
Q 947 2416 947 1791 
Q 947 1169 1205 825 
Q 1463 481 1925 481 
Q 2391 481 2648 825 
Q 2906 1169 2906 1791 
z
M 3481 434 
Q 3481 -459 3084 -895 
Q 2688 -1331 1869 -1331 
Q 1566 -1331 1297 -1286 
Q 1028 -1241 775 -1147 
L 775 -588 
Q 1028 -725 1275 -790 
Q 1522 -856 1778 -856 
Q 2344 -856 2625 -561 
Q 2906 -266 2906 331 
L 2906 616 
Q 2728 306 2450 153 
Q 2172 0 1784 0 
Q 1141 0 747 490 
Q 353 981 353 1791 
Q 353 2603 747 3093 
Q 1141 3584 1784 3584 
Q 2172 3584 2450 3431 
Q 2728 3278 2906 2969 
L 2906 3500 
L 3481 3500 
L 3481 434 
z
" transform="scale(0.015625)"/>
      <path id="DejaVuSans-5f" d="M 3263 -1063 
L 3263 -1509 
L -63 -1509 
L -63 -1063 
L 3263 -1063 
z
" transform="scale(0.015625)"/>
      <path id="DejaVuSans-77" d="M 269 3500 
L 844 3500 
L 1563 769 
L 2278 3500 
L 2956 3500 
L 3675 769 
L 4391 3500 
L 4966 3500 
L 4050 0 
L 3372 0 
L 2619 2869 
L 1863 0 
L 1184 0 
L 269 3500 
z
" transform="scale(0.015625)"/>
     </defs>
     <use xlink:href="#DejaVuSans-42"/>
     <use xlink:href="#DejaVuSans-6f" transform="translate(68.603516 0)"/>
     <use xlink:href="#DejaVuSans-6f" transform="translate(129.785156 0)"/>
     <use xlink:href="#DejaVuSans-74" transform="translate(190.966797 0)"/>
     <use xlink:href="#DejaVuSans-73" transform="translate(230.175781 0)"/>
     <use xlink:href="#DejaVuSans-74" transform="translate(282.275391 0)"/>
     <use xlink:href="#DejaVuSans-72" transform="translate(321.484375 0)"/>
     <use xlink:href="#DejaVuSans-61" transform="translate(362.597656 0)"/>
     <use xlink:href="#DejaVuSans-70" transform="translate(423.876953 0)"/>
     <use xlink:href="#DejaVuSans-20" transform="translate(487.353516 0)"/>
     <use xlink:href="#DejaVuSans-70" transform="translate(519.140625 0)"/>
     <use xlink:href="#DejaVuSans-72" transform="translate(582.617188 0)"/>
     <use xlink:href="#DejaVuSans-65" transform="translate(621.480469 0)"/>
     <use xlink:href="#DejaVuSans-64" transform="translate(683.003906 0)"/>
     <use xlink:href="#DejaVuSans-69" transform="translate(746.480469 0)"/>
     <use xlink:href="#DejaVuSans-63" transform="translate(774.263672 0)"/>
     <use xlink:href="#DejaVuSans-74" transform="translate(829.244141 0)"/>
     <use xlink:href="#DejaVuSans-69" transform="translate(868.453125 0)"/>
     <use xlink:href="#DejaVuSans-6f" transform="translate(896.236328 0)"/>
     <use xlink:href="#DejaVuSans-6e" transform="translate(957.417969 0)"/>
     <use xlink:href="#DejaVuSans-20" transform="translate(1020.796875 0)"/>
     <use xlink:href="#DejaVuSans-62" transform="translate(1052.583984 0)"/>
     <use xlink:href="#DejaVuSans-61" transform="translate(1116.060547 0)"/>
     <use xlink:href="#DejaVuSans-6e" transform="translate(1177.339844 0)"/>
     <use xlink:href="#DejaVuSans-64" transform="translate(1240.71875 0)"/>
     <use xlink:href="#DejaVuSans-20" transform="translate(1304.195312 0)"/>
     <use xlink:href="#DejaVuSans-2014" transform="translate(1335.982422 0)"/>
     <use xlink:href="#DejaVuSans-20" transform="translate(1435.982422 0)"/>
     <use xlink:href="#DejaVuSans-67" transform="translate(1467.769531 0)"/>
     <use xlink:href="#DejaVuSans-65" transform="translate(1531.246094 0)"/>
     <use xlink:href="#DejaVuSans-6e" transform="translate(1592.769531 0)"/>
     <use xlink:href="#DejaVuSans-5f" transform="translate(1656.148438 0)"/>
     <use xlink:href="#DejaVuSans-70" transform="translate(1706.148438 0)"/>
     <use xlink:href="#DejaVuSans-6f" transform="translate(1769.625 0)"/>
     <use xlink:href="#DejaVuSans-77" transform="translate(1830.806641 0)"/>
     <use xlink:href="#DejaVuSans-65" transform="translate(1912.59375 0)"/>
     <use xlink:href="#DejaVuSans-72" transform="translate(1974.117188 0)"/>
    </g>
   </g>
   <g id="legend_1">
    <g id="patch_7">
     <path d="M 321.527642 80.812557 
L 404.410455 80.812557 
Q 406.410455 80.812557 406.410455 78.812557 
L 406.410455 35.778182 
Q 406.410455 33.778182 404.410455 33.778182 
L 321.527642 33.778182 
Q 319.527642 33.778182 319.527642 35.778182 
L 319.527642 78.812557 
Q 319.527642 80.812557 321.527642 80.812557 
z
" style="fill: #ffffff; opacity: 0.8; stroke: #cccccc; stroke-linejoin: miter"/>
    </g>
    <g id="patch_8">
     <path d="M 323.527642 45.376619 
L 343.527642 45.376619 
L 343.527642 38.376619 
L 323.527642 38.376619 
z
" style="fill: #4285f4; fill-opacity: 0.25; stroke: #4285f4; stroke-opacity: 0.25; stroke-linejoin: miter"/>
    </g>
    <g id="text_17">
     <!-- 95% band -->
     <g transform="translate(351.527642 45.376619) scale(0.1 -0.1)">
      <defs>
       <path id="DejaVuSans-25" d="M 4653 2053 
Q 4381 2053 4226 1822 
Q 4072 1591 4072 1178 
Q 4072 772 4226 539 
Q 4381 306 4653 306 
Q 4919 306 5073 539 
Q 5228 772 5228 1178 
Q 5228 1588 5073 1820 
Q 4919 2053 4653 2053 
z
M 4653 2450 
Q 5147 2450 5437 2106 
Q 5728 1763 5728 1178 
Q 5728 594 5436 251 
Q 5144 -91 4653 -91 
Q 4153 -91 3862 251 
Q 3572 594 3572 1178 
Q 3572 1766 3864 2108 
Q 4156 2450 4653 2450 
z
M 1428 4353 
Q 1159 4353 1004 4120 
Q 850 3888 850 3481 
Q 850 3069 1003 2837 
Q 1156 2606 1428 2606 
Q 1700 2606 1854 2837 
Q 2009 3069 2009 3481 
Q 2009 3884 1853 4118 
Q 1697 4353 1428 4353 
z
M 4250 4750 
L 4750 4750 
L 1831 -91 
L 1331 -91 
L 4250 4750 
z
M 1428 4750 
Q 1922 4750 2215 4408 
Q 2509 4066 2509 3481 
Q 2509 2891 2217 2550 
Q 1925 2209 1428 2209 
Q 931 2209 642 2551 
Q 353 2894 353 3481 
Q 353 4063 643 4406 
Q 934 4750 1428 4750 
z
" transform="scale(0.015625)"/>
      </defs>
      <use xlink:href="#DejaVuSans-39"/>
      <use xlink:href="#DejaVuSans-35" transform="translate(63.623047 0)"/>
      <use xlink:href="#DejaVuSans-25" transform="translate(127.246094 0)"/>
      <use xlink:href="#DejaVuSans-20" transform="translate(222.265625 0)"/>
      <use xlink:href="#DejaVuSans-62" transform="translate(254.052734 0)"/>
      <use xlink:href="#DejaVuSans-61" transform="translate(317.529297 0)"/>
      <use xlink:href="#DejaVuSans-6e" transform="translate(378.808594 0)"/>
      <use xlink:href="#DejaVuSans-64" transform="translate(442.1875 0)"/>
     </g>
    </g>
    <g id="line2d_29">
     <path d="M 323.527642 56.554744 
L 333.527642 56.554744 
L 343.527642 56.554744 
" style="fill: none; stroke: #4285f4; stroke-width: 1.6; stroke-linecap: square"/>
    </g>
    <g id="text_18">
     <!-- median fit -->
     <g transform="translate(351.527642 60.054744) scale(0.1 -0.1)">
      <defs>
       <path id="DejaVuSans-66" d="M 2375 4863 
L 2375 4384 
L 1825 4384 
Q 1516 4384 1395 4259 
Q 1275 4134 1275 3809 
L 1275 3500 
L 2222 3500 
L 2222 3053 
L 1275 3053 
L 1275 0 
L 697 0 
L 697 3053 
L 147 3053 
L 147 3500 
L 697 3500 
L 697 3744 
Q 697 4328 969 4595 
Q 1241 4863 1831 4863 
L 2375 4863 
z
" transform="scale(0.015625)"/>
      </defs>
      <use xlink:href="#DejaVuSans-6d"/>
      <use xlink:href="#DejaVuSans-65" transform="translate(97.412109 0)"/>
      <use xlink:href="#DejaVuSans-64" transform="translate(158.935547 0)"/>
      <use xlink:href="#DejaVuSans-69" transform="translate(222.412109 0)"/>
      <use xlink:href="#DejaVuSans-61" transform="translate(250.195312 0)"/>
      <use xlink:href="#DejaVuSans-6e" transform="translate(311.474609 0)"/>
      <use xlink:href="#DejaVuSans-20" transform="translate(374.853516 0)"/>
      <use xlink:href="#DejaVuSans-66" transform="translate(406.640625 0)"/>
      <use xlink:href="#DejaVuSans-69" transform="translate(441.845703 0)"/>
      <use xlink:href="#DejaVuSans-74" transform="translate(469.628906 0)"/>
     </g>
    </g>
    <g id="line2d_30">
     <defs>
      <path id="mf2ce9de53a" d="M 0 2 
C 0.530406 2 1.03916 1.789267 1.414214 1.414214 
C 1.789267 1.03916 2 0.530406 2 0 
C 2 -0.530406 1.789267 -1.03916 1.414214 -1.414214 
C 1.03916 -1.789267 0.530406 -2 0 -2 
C -0.530406 -2 -1.03916 -1.789267 -1.414214 -1.414214 
C -1.789267 -1.03916 -2 -0.530406 -2 0 
C -2 0.530406 -1.789267 1.03916 -1.414214 1.414214 
C -1.03916 1.789267 -0.530406 2 0 2 
z
" style="stroke: #000000"/>
     </defs>
     <g>
      <use xlink:href="#mf2ce9de53a" x="333.527642" y="71.232869" style="stroke: #000000"/>
     </g>
    </g>
    <g id="text_19">
     <!-- data -->
     <g transform="translate(351.527642 74.732869) scale(0.1 -0.1)">
      <use xlink:href="#DejaVuSans-64"/>
      <use xlink:href="#DejaVuSans-61" transform="translate(63.476562 0)"/>
      <use xlink:href="#DejaVuSans-74" transform="translate(124.755859 0)"/>
      <use xlink:href="#DejaVuSans-61" transform="translate(163.964844 0)"/>
     </g>
    </g>
   </g>
  </g>
 </g>
 <defs>
  <clipPath id="pf5038e4a0f">
   <rect x="58.569091" y="28.778182" width="352.841364" height="355.698182"/>
  </clipPath>
 </defs>
</svg>
