<?xml version="1.0" encoding="utf-8" standalone="no"?>
<!DOCTYPE svg PUBLIC "-//W3C//DTD SVG 1.1//EN"
  "http://www.w3.org/Graphics/SVG/1.1/DTD/svg11.dtd">
<svg xmlns:xlink="http://www.w3.org/1999/xlink" width="432pt" height="432pt" viewBox="0 0 432 432" xmlns="http://www.w3.org/2000/svg" version="1.1">
 <metadata>
  <rdf:RDF xmlns:dc="http://purl.org/dc/elements/1.1/" xmlns:cc="http://creativecommons.org/ns#" xmlns:rdf="http://www.w3.org/1999/02/22-rdf-syntax-ns#">
   <cc:Work>
    <dc:type rdf:resource="http://purl.org/dc/dcmitype/StillImage"/>
    <dc:date>2026-07-04T09:55:35.108342</dc:date>
    <dc:format>image/svg+xml</dc:format>
    <dc:creator>
     <cc:Agent>
      <dc:title>Matplotlib v3.10.0, https://matplotlib.org/</dc:title>
     </cc:Agent>
    </dc:creator>
   </cc:Work>
  </rdf:RDF>
 </metadata>
 <defs>
  <style type="text/css">*{stroke-linejoin: round; stroke-linecap: butt}</style>
 </defs>
 <g id="figure_1">
  <g id="patch_1">
   <path d="M 0 432 
L 432 432 
L 432 0 
L 0 0 
z
" style="fill: #ffffff"/>
  </g>
  <g id="axes_1">
   <g id="patch_2">
    <path d="M 57.832727 377.276364 
L 411.508179 377.276364 
L 411.508179 12.96 
L 57.832727 12.96 
z
" style="fill: #ffffff"/>
   </g>
   <g id="patch_3">
    <path d="M 73.908884 377.276364 
L 84.626322 377.276364 
L 84.626322 288.517117 
L 73.908884 288.517117 
z
" clip-path="url(#p551b67c30f)" style="fill: #db4437; opacity: 0.8; stroke: #3c4043; stroke-linejoin: miter"/>
   </g>
   <g id="patch_4">
    <path d="M 84.626322 377.276364 
L 95.34376 377.276364 
L 95.34376 215.895915 
L 84.626322 215.895915 
z
" clip-path="url(#p551b67c30f)" style="fill: #f4b400; opacity: 0.8; stroke: #3c4043; stroke-linejoin: miter"/>
   </g>
   <g id="patch_5">
    <path d="M 95.34376 377.276364 
L 106.061198 377.276364 
L 106.061198 62.584488 
L 95.34376 62.584488 
z
" clip-path="url(#p551b67c30f)" style="fill: #0f9d58; opacity: 0.8; stroke: #3c4043; stroke-linejoin: miter"/>
   </g>
   <g id="patch_6">
    <path d="M 106.061198 377.276364 
L 116.778636 377.276364 
L 116.778636 102.9296 
L 106.061198 102.9296 
z
" clip-path="url(#p551b67c30f)" style="fill: #4285f4; opacity: 0.8; stroke: #3c4043; stroke-linejoin: miter"/>
   </g>
   <g id="patch_7">
    <path d="M 116.778636 377.276364 
L 127.496074 377.276364 
L 127.496074 143.274713 
L 116.778636 143.274713 
z
" clip-path="url(#p551b67c30f)" style="fill: #db4437; opacity: 0.8; stroke: #3c4043; stroke-linejoin: miter"/>
   </g>
   <g id="patch_8">
    <path d="M 127.496074 377.276364 
L 138.213512 377.276364 
L 138.213512 30.308398 
L 127.496074 30.308398 
z
" clip-path="url(#p551b67c30f)" style="fill: #f4b400; opacity: 0.8; stroke: #3c4043; stroke-linejoin: miter"/>
   </g>
   <g id="patch_9">
    <path d="M 138.213512 377.276364 
L 148.93095 377.276364 
L 148.93095 110.998623 
L 138.213512 110.998623 
z
" clip-path="url(#p551b67c30f)" style="fill: #0f9d58; opacity: 0.8; stroke: #3c4043; stroke-linejoin: miter"/>
   </g>
   <g id="patch_10">
    <path d="M 148.93095 377.276364 
L 159.648388 377.276364 
L 159.648388 207.826892 
L 148.93095 207.826892 
z
" clip-path="url(#p551b67c30f)" style="fill: #4285f4; opacity: 0.8; stroke: #3c4043; stroke-linejoin: miter"/>
   </g>
   <g id="patch_11">
    <path d="M 159.648388 377.276364 
L 170.365825 377.276364 
L 170.365825 167.48178 
L 159.648388 167.48178 
z
" clip-path="url(#p551b67c30f)" style="fill: #db4437; opacity: 0.8; stroke: #3c4043; stroke-linejoin: miter"/>
   </g>
   <g id="patch_12">
    <path d="M 170.365825 377.276364 
L 181.083263 377.276364 
L 181.083263 280.448094 
L 170.365825 280.448094 
z
" clip-path="url(#p551b67c30f)" style="fill: #f4b400; opacity: 0.8; stroke: #3c4043; stroke-linejoin: miter"/>
   </g>
   <g id="patch_13">
    <path d="M 181.083263 377.276364 
L 191.800701 377.276364 
L 191.800701 304.655162 
L 181.083263 304.655162 
z
" clip-path="url(#p551b67c30f)" style="fill: #0f9d58; opacity: 0.8; stroke: #3c4043; stroke-linejoin: miter"/>
   </g>
   <g id="patch_14">
    <path d="M 191.800701 377.276364 
L 202.518139 377.276364 
L 202.518139 272.379072 
L 191.800701 272.379072 
z
" clip-path="url(#p551b67c30f)" style="fill: #4285f4; opacity: 0.8; stroke: #3c4043; stroke-linejoin: miter"/>
   </g>
   <g id="patch_15">
    <path d="M 202.518139 377.276364 
L 213.235577 377.276364 
L 213.235577 320.793206 
L 202.518139 320.793206 
z
" clip-path="url(#p551b67c30f)" style="fill: #db4437; opacity: 0.8; stroke: #3c4043; stroke-linejoin: miter"/>
   </g>
   <g id="patch_16">
    <path d="M 213.235577 377.276364 
L 223.953015 377.276364 
L 223.953015 320.793206 
L 213.235577 320.793206 
z
" clip-path="url(#p551b67c30f)" style="fill: #f4b400; opacity: 0.8; stroke: #3c4043; stroke-linejoin: miter"/>
   </g>
   <g id="patch_17">
    <path d="M 223.953015 377.276364 
L 234.670453 377.276364 
L 234.670453 328.862229 
L 223.953015 328.862229 
z
" clip-path="url(#p551b67c30f)" style="fill: #0f9d58; opacity: 0.8; stroke: #3c4043; stroke-linejoin: miter"/>
   </g>
   <g id="patch_18">
    <path d="M 234.670453 377.276364 
L 245.387891 377.276364 
L 245.387891 328.862229 
L 234.670453 328.862229 
z
" clip-path="url(#p551b67c30f)" style="fill: #4285f4; opacity: 0.8; stroke: #3c4043; stroke-linejoin: miter"/>
   </g>
   <g id="patch_19">
    <path d="M 245.387891 377.276364 
L 256.105329 377.276364 
L 256.105329 336.931251 
L 245.387891 336.931251 
z
" clip-path="url(#p551b67c30f)" style="fill: #db4437; opacity: 0.8; stroke: #3c4043; stroke-linejoin: miter"/>
   </g>
   <g id="patch_20">
    <path d="M 256.105329 377.276364 
L 266.822767 377.276364 
L 266.822767 377.276364 
L 256.105329 377.276364 
z
" clip-path="url(#p551b67c30f)" style="fill: #f4b400; opacity: 0.8; stroke: #3c4043; stroke-linejoin: miter"/>
   </g>
   <g id="patch_21">
    <path d="M 266.822767 377.276364 
L 277.540205 377.276364 
L 277.540205 345.000274 
L 266.822767 345.000274 
z
" clip-path="url(#p551b67c30f)" style="fill: #0f9d58; opacity: 0.8; stroke: #3c4043; stroke-linejoin: miter"/>
   </g>
   <g id="patch_22">
    <path d="M 277.540205 377.276364 
L 288.257643 377.276364 
L 288.257643 328.862229 
L 277.540205 328.862229 
z
" clip-path="url(#p551b67c30f)" style="fill: #4285f4; opacity: 0.8; stroke: #3c4043; stroke-linejoin: miter"/>
   </g>
   <g id="patch_23">
    <path d="M 288.257643 377.276364 
L 298.975081 377.276364 
L 298.975081 336.931251 
L 288.257643 336.931251 
z
" clip-path="url(#p551b67c30f)" style="fill: #db4437; opacity: 0.8; stroke: #3c4043; stroke-linejoin: miter"/>
   </g>
   <g id="patch_24">
    <path d="M 298.975081 377.276364 
L 309.692518 377.276364 
L 309.692518 353.069296 
L 298.975081 353.069296 
z
" clip-path="url(#p551b67c30f)" style="fill: #f4b400; opacity: 0.8; stroke: #3c4043; stroke-linejoin: miter"/>
   </g>
   <g id="patch_25">
    <path d="M 309.692518 377.276364 
L 320.409956 377.276364 
L 320.409956 336.931251 
L 309.692518 336.931251 
z
" clip-path="url(#p551b67c30f)" style="fill: #0f9d58; opacity: 0.8; stroke: #3c4043; stroke-linejoin: miter"/>
   </g>
   <g id="patch_26">
    <path d="M 320.409956 377.276364 
L 331.127394 377.276364 
L 331.127394 353.069296 
L 320.409956 353.069296 
z
" clip-path="url(#p551b67c30f)" style="fill: #4285f4; opacity: 0.8; stroke: #3c4043; stroke-linejoin: miter"/>
   </g>
   <g id="patch_27">
    <path d="M 331.127394 377.276364 
L 341.844832 377.276364 
L 341.844832 361.138319 
L 331.127394 361.138319 
z
" clip-path="url(#p551b67c30f)" style="fill: #db4437; opacity: 0.8; stroke: #3c4043; stroke-linejoin: miter"/>
   </g>
   <g id="patch_28">
    <path d="M 341.844832 377.276364 
L 352.56227 377.276364 
L 352.56227 361.138319 
L 341.844832 361.138319 
z
" clip-path="url(#p551b67c30f)" style="fill: #f4b400; opacity: 0.8; stroke: #3c4043; stroke-linejoin: miter"/>
   </g>
   <g id="patch_29">
    <path d="M 352.56227 377.276364 
L 363.279708 377.276364 
L 363.279708 345.000274 
L 352.56227 345.000274 
z
" clip-path="url(#p551b67c30f)" style="fill: #0f9d58; opacity: 0.8; stroke: #3c4043; stroke-linejoin: miter"/>
   </g>
   <g id="patch_30">
    <path d="M 363.279708 377.276364 
L 373.997146 377.276364 
L 373.997146 361.138319 
L 363.279708 361.138319 
z
" clip-path="url(#p551b67c30f)" style="fill: #4285f4; opacity: 0.8; stroke: #3c4043; stroke-linejoin: miter"/>
   </g>
   <g id="patch_31">
    <path d="M 373.997146 377.276364 
L 384.714584 377.276364 
L 384.714584 207.826892 
L 373.997146 207.826892 
z
" clip-path="url(#p551b67c30f)" style="fill: #db4437; opacity: 0.8; stroke: #3c4043; stroke-linejoin: miter"/>
   </g>
   <g id="patch_32">
    <path d="M 384.714584 377.276364 
L 395.432022 377.276364 
L 395.432022 199.75787 
L 384.714584 199.75787 
z
" clip-path="url(#p551b67c30f)" style="fill: #f4b400; opacity: 0.8; stroke: #3c4043; stroke-linejoin: miter"/>
   </g>
   <g id="matplotlib.axis_1">
    <g id="xtick_1">
     <g id="line2d_1">
      <defs>
       <path id="m4838dc06cf" d="M 0 0 
L 0 3.5 
" style="stroke: #000000; stroke-width: 0.8"/>
      </defs>
      <g>
       <use xlink:href="#m4838dc06cf" x="66.530128" y="377.276364" style="stroke: #000000; stroke-width: 0.8"/>
      </g>
     </g>
     <g id="text_1">
      <!-- 25.0 -->
      <g transform="translate(52.907472 394.297301) scale(0.14 -0.14)">
       <defs>
        <path id="ArialMT-32" d="M 3222 541 
L 3222 0 
L 194 0 
Q 188 203 259 391 
Q 375 700 629 1000 
Q 884 1300 1366 1694 
Q 2113 2306 2375 2664 
Q 2638 3022 2638 3341 
Q 2638 3675 2398 3904 
Q 2159 4134 1775 4134 
Q 1369 4134 1125 3890 
Q 881 3647 878 3216 
L 300 3275 
Q 359 3922 746 4261 
Q 1134 4600 1788 4600 
Q 2447 4600 2831 4234 
Q 3216 3869 3216 3328 
Q 3216 3053 3103 2787 
Q 2991 2522 2730 2228 
Q 2469 1934 1863 1422 
Q 1356 997 1212 845 
Q 1069 694 975 541 
L 3222 541 
z
" transform="scale(0.015625)"/>
        <path id="ArialMT-35" d="M 266 1200 
L 856 1250 
Q 922 819 1161 601 
Q 1400 384 1738 384 
Q 2144 384 2425 690 
Q 2706 997 2706 1503 
Q 2706 1984 2436 2262 
Q 2166 2541 1728 2541 
Q 1456 2541 1237 2417 
Q 1019 2294 894 2097 
L 366 2166 
L 809 4519 
L 3088 4519 
L 3088 3981 
L 1259 3981 
L 1013 2750 
Q 1425 3038 1878 3038 
Q 2478 3038 2890 2622 
Q 3303 2206 3303 1553 
Q 3303 931 2941 478 
Q 2500 -78 1738 -78 
Q 1113 -78 717 272 
Q 322 622 266 1200 
z
" transform="scale(0.015625)"/>
        <path id="ArialMT-2e" d="M 581 0 
L 581 641 
L 1222 641 
L 1222 0 
L 581 0 
z
" transform="scale(0.015625)"/>
        <path id="ArialMT-30" d="M 266 2259 
Q 266 3072 433 3567 
Q 600 4063 929 4331 
Q 1259 4600 1759 4600 
Q 2128 4600 2406 4451 
Q 2684 4303 2865 4023 
Q 3047 3744 3150 3342 
Q 3253 2941 3253 2259 
Q 3253 1453 3087 958 
Q 2922 463 2592 192 
Q 2263 -78 1759 -78 
Q 1097 -78 719 397 
Q 266 969 266 2259 
z
M 844 2259 
Q 844 1131 1108 757 
Q 1372 384 1759 384 
Q 2147 384 2411 759 
Q 2675 1134 2675 2259 
Q 2675 3391 2411 3762 
Q 2147 4134 1753 4134 
Q 1366 4134 1134 3806 
Q 844 3388 844 2259 
z
" transform="scale(0.015625)"/>
       </defs>
       <use xlink:href="#ArialMT-32"/>
       <use xlink:href="#ArialMT-35" transform="translate(55.615234 0)"/>
       <use xlink:href="#ArialMT-2e" transform="translate(111.230469 0)"/>
       <use xlink:href="#ArialMT-30" transform="translate(139.013672 0)"/>
      </g>
     </g>
    </g>
    <g id="xtick_2">
     <g id="line2d_2">
      <g>
       <use xlink:href="#m4838dc06cf" x="114.307025" y="377.276364" style="stroke: #000000; stroke-width: 0.8"/>
      </g>
     </g>
     <g id="text_2">
      <!-- 50.0 -->
      <g transform="translate(100.684369 394.297301) scale(0.14 -0.14)">
       <use xlink:href="#ArialMT-35"/>
       <use xlink:href="#ArialMT-30" transform="translate(55.615234 0)"/>
       <use xlink:href="#ArialMT-2e" transform="translate(111.230469 0)"/>
       <use xlink:href="#ArialMT-30" transform="translate(139.013672 0)"/>
      </g>
     </g>
    </g>
    <g id="xtick_3">
     <g id="line2d_3">
      <g>
       <use xlink:href="#m4838dc06cf" x="162.083922" y="377.276364" style="stroke: #000000; stroke-width: 0.8"/>
      </g>
     </g>
     <g id="text_3">
      <!-- 75.0 -->
      <g transform="translate(148.461266 394.297301) scale(0.14 -0.14)">
       <defs>
        <path id="ArialMT-37" d="M 303 3981 
L 303 4522 
L 3269 4522 
L 3269 4084 
Q 2831 3619 2401 2847 
Q 1972 2075 1738 1259 
Q 1569 684 1522 0 
L 944 0 
Q 953 541 1156 1306 
Q 1359 2072 1739 2783 
Q 2119 3494 2547 3981 
L 303 3981 
z
" transform="scale(0.015625)"/>
       </defs>
       <use xlink:href="#ArialMT-37"/>
       <use xlink:href="#ArialMT-35" transform="translate(55.615234 0)"/>
       <use xlink:href="#ArialMT-2e" transform="translate(111.230469 0)"/>
       <use xlink:href="#ArialMT-30" transform="translate(139.013672 0)"/>
      </g>
     </g>
    </g>
    <g id="xtick_4">
     <g id="line2d_4">
      <g>
       <use xlink:href="#m4838dc06cf" x="209.860819" y="377.276364" style="stroke: #000000; stroke-width: 0.8"/>
      </g>
     </g>
     <g id="text_4">
      <!-- 100.0 -->
      <g transform="translate(192.345507 394.297301) scale(0.14 -0.14)">
       <defs>
        <path id="ArialMT-31" d="M 2384 0 
L 1822 0 
L 1822 3584 
Q 1619 3391 1289 3197 
Q 959 3003 697 2906 
L 697 3450 
Q 1169 3672 1522 3987 
Q 1875 4303 2022 4600 
L 2384 4600 
L 2384 0 
z
" transform="scale(0.015625)"/>
       </defs>
       <use xlink:href="#ArialMT-31"/>
       <use xlink:href="#ArialMT-30" transform="translate(55.615234 0)"/>
       <use xlink:href="#ArialMT-30" transform="translate(111.230469 0)"/>
       <use xlink:href="#ArialMT-2e" transform="translate(166.845703 0)"/>
       <use xlink:href="#ArialMT-30" transform="translate(194.628906 0)"/>
      </g>
     </g>
    </g>
    <g id="xtick_5">
     <g id="line2d_5">
      <g>
       <use xlink:href="#m4838dc06cf" x="257.637717" y="377.276364" style="stroke: #000000; stroke-width: 0.8"/>
      </g>
     </g>
     <g id="text_5">
      <!-- 125.0 -->
      <g transform="translate(240.122404 394.297301) scale(0.14 -0.14)">
       <use xlink:href="#ArialMT-31"/>
       <use xlink:href="#ArialMT-32" transform="translate(55.615234 0)"/>
       <use xlink:href="#ArialMT-35" transform="translate(111.230469 0)"/>
       <use xlink:href="#ArialMT-2e" transform="translate(166.845703 0)"/>
       <use xlink:href="#ArialMT-30" transform="translate(194.628906 0)"/>
      </g>
     </g>
    </g>
    <g id="xtick_6">
     <g id="line2d_6">
      <g>
       <use xlink:href="#m4838dc06cf" x="305.414614" y="377.276364" style="stroke: #000000; stroke-width: 0.8"/>
      </g>
     </g>
     <g id="text_6">
      <!-- 150.0 -->
      <g transform="translate(287.899301 394.297301) scale(0.14 -0.14)">
       <use xlink:href="#ArialMT-31"/>
       <use xlink:href="#ArialMT-35" transform="translate(55.615234 0)"/>
       <use xlink:href="#ArialMT-30" transform="translate(111.230469 0)"/>
       <use xlink:href="#ArialMT-2e" transform="translate(166.845703 0)"/>
       <use xlink:href="#ArialMT-30" transform="translate(194.628906 0)"/>
      </g>
     </g>
    </g>
    <g id="xtick_7">
     <g id="line2d_7">
      <g>
       <use xlink:href="#m4838dc06cf" x="353.191511" y="377.276364" style="stroke: #000000; stroke-width: 0.8"/>
      </g>
     </g>
     <g id="text_7">
      <!-- 175.0 -->
      <g transform="translate(335.676198 394.297301) scale(0.14 -0.14)">
       <use xlink:href="#ArialMT-31"/>
       <use xlink:href="#ArialMT-37" transform="translate(55.615234 0)"/>
       <use xlink:href="#ArialMT-35" transform="translate(111.230469 0)"/>
       <use xlink:href="#ArialMT-2e" transform="translate(166.845703 0)"/>
       <use xlink:href="#ArialMT-30" transform="translate(194.628906 0)"/>
      </g>
     </g>
    </g>
    <g id="xtick_8">
     <g id="line2d_8">
      <g>
       <use xlink:href="#m4838dc06cf" x="400.968408" y="377.276364" style="stroke: #000000; stroke-width: 0.8"/>
      </g>
     </g>
     <g id="text_8">
      <!-- 200.0 -->
      <g transform="translate(383.453095 394.297301) scale(0.14 -0.14)">
       <use xlink:href="#ArialMT-32"/>
       <use xlink:href="#ArialMT-30" transform="translate(55.615234 0)"/>
       <use xlink:href="#ArialMT-30" transform="translate(111.230469 0)"/>
       <use xlink:href="#ArialMT-2e" transform="translate(166.845703 0)"/>
       <use xlink:href="#ArialMT-30" transform="translate(194.628906 0)"/>
      </g>
     </g>
    </g>
    <g id="text_9">
     <!-- A -->
     <g transform="translate(228.000141 415.395426) scale(0.2 -0.2)">
      <defs>
       <path id="ArialMT-41" d="M -9 0 
L 1750 4581 
L 2403 4581 
L 4278 0 
L 3588 0 
L 3053 1388 
L 1138 1388 
L 634 0 
L -9 0 
z
M 1313 1881 
L 2866 1881 
L 2388 3150 
Q 2169 3728 2063 4100 
Q 1975 3659 1816 3225 
L 1313 1881 
z
" transform="scale(0.015625)"/>
      </defs>
      <use xlink:href="#ArialMT-41"/>
     </g>
    </g>
   </g>
   <g id="matplotlib.axis_2">
    <g id="ytick_1">
     <g id="line2d_9">
      <defs>
       <path id="meaa50d7b3d" d="M 0 0 
L -3.5 0 
" style="stroke: #000000; stroke-width: 0.8"/>
      </defs>
      <g>
       <use xlink:href="#meaa50d7b3d" x="57.832727" y="377.276364" style="stroke: #000000; stroke-width: 0.8"/>
      </g>
     </g>
     <g id="text_10">
      <!-- 0 -->
      <g transform="translate(43.047415 382.286832) scale(0.14 -0.14)">
       <use xlink:href="#ArialMT-30"/>
      </g>
     </g>
    </g>
    <g id="ytick_2">
     <g id="line2d_10">
      <g>
       <use xlink:href="#meaa50d7b3d" x="57.832727" y="296.586139" style="stroke: #000000; stroke-width: 0.8"/>
      </g>
     </g>
     <g id="text_11">
      <!-- 10 -->
      <g transform="translate(35.262102 301.596608) scale(0.14 -0.14)">
       <use xlink:href="#ArialMT-31"/>
       <use xlink:href="#ArialMT-30" transform="translate(55.615234 0)"/>
      </g>
     </g>
    </g>
    <g id="ytick_3">
     <g id="line2d_11">
      <g>
       <use xlink:href="#meaa50d7b3d" x="57.832727" y="215.895915" style="stroke: #000000; stroke-width: 0.8"/>
      </g>
     </g>
     <g id="text_12">
      <!-- 20 -->
      <g transform="translate(35.262102 220.906383) scale(0.14 -0.14)">
       <use xlink:href="#ArialMT-32"/>
       <use xlink:href="#ArialMT-30" transform="translate(55.615234 0)"/>
      </g>
     </g>
    </g>
    <g id="ytick_4">
     <g id="line2d_12">
      <g>
       <use xlink:href="#meaa50d7b3d" x="57.832727" y="135.20569" style="stroke: #000000; stroke-width: 0.8"/>
      </g>
     </g>
     <g id="text_13">
      <!-- 30 -->
      <g transform="translate(35.262102 140.216159) scale(0.14 -0.14)">
       <defs>
        <path id="ArialMT-33" d="M 269 1209 
L 831 1284 
Q 928 806 1161 595 
Q 1394 384 1728 384 
Q 2125 384 2398 659 
Q 2672 934 2672 1341 
Q 2672 1728 2419 1979 
Q 2166 2231 1775 2231 
Q 1616 2231 1378 2169 
L 1441 2663 
Q 1497 2656 1531 2656 
Q 1891 2656 2178 2843 
Q 2466 3031 2466 3422 
Q 2466 3731 2256 3934 
Q 2047 4138 1716 4138 
Q 1388 4138 1169 3931 
Q 950 3725 888 3313 
L 325 3413 
Q 428 3978 793 4289 
Q 1159 4600 1703 4600 
Q 2078 4600 2393 4439 
Q 2709 4278 2876 4000 
Q 3044 3722 3044 3409 
Q 3044 3113 2884 2869 
Q 2725 2625 2413 2481 
Q 2819 2388 3044 2092 
Q 3269 1797 3269 1353 
Q 3269 753 2831 336 
Q 2394 -81 1725 -81 
Q 1122 -81 723 278 
Q 325 638 269 1209 
z
" transform="scale(0.015625)"/>
       </defs>
       <use xlink:href="#ArialMT-33"/>
       <use xlink:href="#ArialMT-30" transform="translate(55.615234 0)"/>
      </g>
     </g>
    </g>
    <g id="ytick_5">
     <g id="line2d_13">
      <g>
       <use xlink:href="#meaa50d7b3d" x="57.832727" y="54.515466" style="stroke: #000000; stroke-width: 0.8"/>
      </g>
     </g>
     <g id="text_14">
      <!-- 40 -->
      <g transform="translate(35.262102 59.525934) scale(0.14 -0.14)">
       <defs>
        <path id="ArialMT-34" d="M 2069 0 
L 2069 1097 
L 81 1097 
L 81 1613 
L 2172 4581 
L 2631 4581 
L 2631 1613 
L 3250 1613 
L 3250 1097 
L 2631 1097 
L 2631 0 
L 2069 0 
z
M 2069 1613 
L 2069 3678 
L 634 1613 
L 2069 1613 
z
" transform="scale(0.015625)"/>
       </defs>
       <use xlink:href="#ArialMT-34"/>
       <use xlink:href="#ArialMT-30" transform="translate(55.615234 0)"/>
      </g>
     </g>
    </g>
    <g id="text_15">
     <!-- count -->
     <g transform="translate(27.287102 219.579119) rotate(-90) scale(0.2 -0.2)">
      <defs>
       <path id="ArialMT-63" d="M 2588 1216 
L 3141 1144 
Q 3050 572 2676 248 
Q 2303 -75 1759 -75 
Q 1078 -75 664 370 
Q 250 816 250 1647 
Q 250 2184 428 2587 
Q 606 2991 970 3192 
Q 1334 3394 1763 3394 
Q 2303 3394 2647 3120 
Q 2991 2847 3088 2344 
L 2541 2259 
Q 2463 2594 2264 2762 
Q 2066 2931 1784 2931 
Q 1359 2931 1093 2626 
Q 828 2322 828 1663 
Q 828 994 1084 691 
Q 1341 388 1753 388 
Q 2084 388 2306 591 
Q 2528 794 2588 1216 
z
" transform="scale(0.015625)"/>
       <path id="ArialMT-6f" d="M 213 1659 
Q 213 2581 725 3025 
Q 1153 3394 1769 3394 
Q 2453 3394 2887 2945 
Q 3322 2497 3322 1706 
Q 3322 1066 3130 698 
Q 2938 331 2570 128 
Q 2203 -75 1769 -75 
Q 1072 -75 642 372 
Q 213 819 213 1659 
z
M 791 1659 
Q 791 1022 1069 705 
Q 1347 388 1769 388 
Q 2188 388 2466 706 
Q 2744 1025 2744 1678 
Q 2744 2294 2464 2611 
Q 2184 2928 1769 2928 
Q 1347 2928 1069 2612 
Q 791 2297 791 1659 
z
" transform="scale(0.015625)"/>
       <path id="ArialMT-75" d="M 2597 0 
L 2597 488 
Q 2209 -75 1544 -75 
Q 1250 -75 995 37 
Q 741 150 617 320 
Q 494 491 444 738 
Q 409 903 409 1263 
L 409 3319 
L 972 3319 
L 972 1478 
Q 972 1038 1006 884 
Q 1059 663 1231 536 
Q 1403 409 1656 409 
Q 1909 409 2131 539 
Q 2353 669 2445 892 
Q 2538 1116 2538 1541 
L 2538 3319 
L 3100 3319 
L 3100 0 
L 2597 0 
z
" transform="scale(0.015625)"/>
       <path id="ArialMT-6e" d="M 422 0 
L 422 3319 
L 928 3319 
L 928 2847 
Q 1294 3394 1984 3394 
Q 2284 3394 2536 3286 
Q 2788 3178 2913 3003 
Q 3038 2828 3088 2588 
Q 3119 2431 3119 2041 
L 3119 0 
L 2556 0 
L 2556 2019 
Q 2556 2363 2490 2533 
Q 2425 2703 2258 2804 
Q 2091 2906 1866 2906 
Q 1506 2906 1245 2678 
Q 984 2450 984 1813 
L 984 0 
L 422 0 
z
" transform="scale(0.015625)"/>
       <path id="ArialMT-74" d="M 1650 503 
L 1731 6 
Q 1494 -44 1306 -44 
Q 1000 -44 831 53 
Q 663 150 594 308 
Q 525 466 525 972 
L 525 2881 
L 113 2881 
L 113 3319 
L 525 3319 
L 525 4141 
L 1084 4478 
L 1084 3319 
L 1650 3319 
L 1650 2881 
L 1084 2881 
L 1084 941 
Q 1084 700 1114 631 
Q 1144 563 1211 522 
Q 1278 481 1403 481 
Q 1497 481 1650 503 
z
" transform="scale(0.015625)"/>
      </defs>
      <use xlink:href="#ArialMT-63"/>
      <use xlink:href="#ArialMT-6f" transform="translate(50 0)"/>
      <use xlink:href="#ArialMT-75" transform="translate(105.615234 0)"/>
      <use xlink:href="#ArialMT-6e" transform="translate(161.230469 0)"/>
      <use xlink:href="#ArialMT-74" transform="translate(216.845703 0)"/>
     </g>
    </g>
   </g>
   <g id="line2d_14">
    <path d="M 146.188558 377.276364 
L 146.188558 12.96 
" clip-path="url(#p551b67c30f)" style="fill: none; stroke: #4285f4; stroke-width: 1.6; stroke-linecap: square"/>
   </g>
   <g id="patch_33">
    <path d="M 57.832727 377.276364 
L 57.832727 12.96 
" style="fill: none; stroke: #000000; stroke-width: 1.5; stroke-linejoin: miter; stroke-linecap: square"/>
   </g>
   <g id="patch_34">
    <path d="M 411.508179 377.276364 
L 411.508179 12.96 
" style="fill: none; stroke: #000000; stroke-width: 1.5; stroke-linejoin: miter; stroke-linecap: square"/>
   </g>
   <g id="patch_35">
    <path d="M 57.832727 377.276364 
L 411.508179 377.276364 
" style="fill: none; stroke: #000000; stroke-width: 1.5; stroke-linejoin: miter; stroke-linecap: square"/>
   </g>
   <g id="patch_36">
    <path d="M 57.832727 12.96 
L 411.508179 12.96 
" style="fill: none; stroke: #000000; stroke-width: 1.5; stroke-linejoin: miter; stroke-linecap: square"/>
   </g>
   <g id="legend_1">
    <g id="line2d_15">
     <path d="M 313.794741 30.680938 
L 327.794741 30.680938 
L 341.794741 30.680938 
" style="fill: none; stroke: #000000; stroke-width: 1.6; stroke-linecap: square"/>
    </g>
    <g id="text_16">
     <!-- median -->
     <g transform="translate(352.994741 35.580938) scale(0.14 -0.14)">
      <defs>
       <path id="ArialMT-6d" d="M 422 0 
L 422 3319 
L 925 3319 
L 925 2853 
Q 1081 3097 1340 3245 
Q 1600 3394 1931 3394 
Q 2300 3394 2536 3241 
Q 2772 3088 2869 2813 
Q 3263 3394 3894 3394 
Q 4388 3394 4653 3120 
Q 4919 2847 4919 2278 
L 4919 0 
L 4359 0 
L 4359 2091 
Q 4359 2428 4304 2576 
Q 4250 2725 4106 2815 
Q 3963 2906 3769 2906 
Q 3419 2906 3187 2673 
Q 2956 2441 2956 1928 
L 2956 0 
L 2394 0 
L 2394 2156 
Q 2394 2531 2256 2718 
Q 2119 2906 1806 2906 
Q 1569 2906 1367 2781 
Q 1166 2656 1075 2415 
Q 984 2175 984 1722 
L 984 0 
L 422 0 
z
" transform="scale(0.015625)"/>
       <path id="ArialMT-65" d="M 2694 1069 
L 3275 997 
Q 3138 488 2766 206 
Q 2394 -75 1816 -75 
Q 1088 -75 661 373 
Q 234 822 234 1631 
Q 234 2469 665 2931 
Q 1097 3394 1784 3394 
Q 2450 3394 2872 2941 
Q 3294 2488 3294 1666 
Q 3294 1616 3291 1516 
L 816 1516 
Q 847 969 1125 678 
Q 1403 388 1819 388 
Q 2128 388 2347 550 
Q 2566 713 2694 1069 
z
M 847 1978 
L 2700 1978 
Q 2663 2397 2488 2606 
Q 2219 2931 1791 2931 
Q 1403 2931 1139 2672 
Q 875 2413 847 1978 
z
" transform="scale(0.015625)"/>
       <path id="ArialMT-64" d="M 2575 0 
L 2575 419 
Q 2259 -75 1647 -75 
Q 1250 -75 917 144 
Q 584 363 401 755 
Q 219 1147 219 1656 
Q 219 2153 384 2558 
Q 550 2963 881 3178 
Q 1213 3394 1622 3394 
Q 1922 3394 2156 3267 
Q 2391 3141 2538 2938 
L 2538 4581 
L 3097 4581 
L 3097 0 
L 2575 0 
z
M 797 1656 
Q 797 1019 1065 703 
Q 1334 388 1700 388 
Q 2069 388 2326 689 
Q 2584 991 2584 1609 
Q 2584 2291 2321 2609 
Q 2059 2928 1675 2928 
Q 1300 2928 1048 2622 
Q 797 2316 797 1656 
z
" transform="scale(0.015625)"/>
       <path id="ArialMT-69" d="M 425 3934 
L 425 4581 
L 988 4581 
L 988 3934 
L 425 3934 
z
M 425 0 
L 425 3319 
L 988 3319 
L 988 0 
L 425 0 
z
" transform="scale(0.015625)"/>
       <path id="ArialMT-61" d="M 2588 409 
Q 2275 144 1986 34 
Q 1697 -75 1366 -75 
Q 819 -75 525 192 
Q 231 459 231 875 
Q 231 1119 342 1320 
Q 453 1522 633 1644 
Q 813 1766 1038 1828 
Q 1203 1872 1538 1913 
Q 2219 1994 2541 2106 
Q 2544 2222 2544 2253 
Q 2544 2597 2384 2738 
Q 2169 2928 1744 2928 
Q 1347 2928 1158 2789 
Q 969 2650 878 2297 
L 328 2372 
Q 403 2725 575 2942 
Q 747 3159 1072 3276 
Q 1397 3394 1825 3394 
Q 2250 3394 2515 3294 
Q 2781 3194 2906 3042 
Q 3031 2891 3081 2659 
Q 3109 2516 3109 2141 
L 3109 1391 
Q 3109 606 3145 398 
Q 3181 191 3288 0 
L 2700 0 
Q 2613 175 2588 409 
z
M 2541 1666 
Q 2234 1541 1622 1453 
Q 1275 1403 1131 1340 
Q 988 1278 909 1158 
Q 831 1038 831 891 
Q 831 666 1001 516 
Q 1172 366 1500 366 
Q 1825 366 2078 508 
Q 2331 650 2450 897 
Q 2541 1088 2541 1459 
L 2541 1666 
z
" transform="scale(0.015625)"/>
      </defs>
      <use xlink:href="#ArialMT-6d"/>
      <use xlink:href="#ArialMT-65" transform="translate(83.300781 0)"/>
      <use xlink:href="#ArialMT-64" transform="translate(138.916016 0)"/>
      <use xlink:href="#ArialMT-69" transform="translate(194.53125 0)"/>
      <use xlink:href="#ArialMT-61" transform="translate(216.748047 0)"/>
      <use xlink:href="#ArialMT-6e" transform="translate(272.363281 0)"/>
     </g>
    </g>
   </g>
  </g>
 </g>
 <defs>
  <clipPath id="p551b67c30f">
   <rect x="57.832727" y="12.96" width="353.675451" height="364.316364"/>
  </clipPath>
 </defs>
</svg>
