<?xml version="1.0" encoding="utf-8" standalone="no"?>
<!DOCTYPE svg PUBLIC "-//W3C//DTD SVG 1.1//EN"
  "http://www.w3.org/Graphics/SVG/1.1/DTD/svg11.dtd">
<svg xmlns:xlink="http://www.w3.org/1999/xlink" width="450.51875pt" height="308.441469pt" viewBox="0 0 450.51875 308.441469" xmlns="http://www.w3.org/2000/svg" version="1.1">
 <metadata>
  <rdf:RDF xmlns:dc="http://purl.org/dc/elements/1.1/" xmlns:cc="http://creativecommons.org/ns#" xmlns:rdf="http://www.w3.org/1999/02/22-rdf-syntax-ns#">
   <cc:Work>
    <dc:type rdf:resource="http://purl.org/dc/dcmitype/StillImage"/>
    <dc:date>2026-05-30T13:28:11.271286</dc:date>
    <dc:format>image/svg+xml</dc:format>
    <dc:creator>
     <cc:Agent>
      <dc:title>Matplotlib v3.10.0, https://matplotlib.org/</dc:title>
     </cc:Agent>
    </dc:creator>
   </cc:Work>
  </rdf:RDF>
 </metadata>
 <defs>
  <style type="text/css">*{stroke-linejoin: round; stroke-linecap: butt}</style>
 </defs>
 <g id="figure_1">
  <g id="patch_1">
   <path d="M 0 308.441469 
L 450.51875 308.441469 
L 450.51875 0 
L 0 0 
z
" style="fill: #ffffff"/>
  </g>
  <g id="axes_1">
   <g id="patch_2">
    <path d="M 52.71875 267.013969 
L 443.31875 267.013969 
L 443.31875 23.077969 
L 52.71875 23.077969 
z
" style="fill: #ffffff"/>
   </g>
   <g id="FillBetweenPolyCollection_1">
    <defs>
     <path id="maede80f942" d="M 70.473295 -274.2755 
L 70.473295 -270.216272 
L 71.66089 -268.750641 
L 72.848485 -267.295255 
L 74.03608 -265.849716 
L 75.223676 -264.413925 
L 76.411271 -262.987785 
L 77.598866 -261.571663 
L 78.786461 -260.165002 
L 79.974056 -258.767695 
L 81.161651 -257.379649 
L 82.349246 -256.000772 
L 83.536841 -254.630975 
L 84.724436 -253.270166 
L 85.912031 -251.918259 
L 87.099626 -250.574256 
L 88.287221 -249.238619 
L 89.474816 -247.90264 
L 90.662411 -246.574137 
L 91.850006 -245.259593 
L 93.037601 -243.962437 
L 94.225196 -242.662771 
L 95.412791 -241.370343 
L 96.600386 -240.086624 
L 97.787981 -238.817941 
L 98.975576 -237.569978 
L 100.163171 -236.290531 
L 101.350766 -235.036756 
L 102.538361 -233.789431 
L 103.725956 -232.56787 
L 104.913551 -231.318889 
L 106.101146 -230.077864 
L 107.288741 -228.881656 
L 108.476336 -227.689085 
L 109.663931 -226.481397 
L 110.851526 -225.287012 
L 112.039121 -224.109116 
L 113.226716 -222.927008 
L 114.414311 -221.737357 
L 115.601906 -220.56403 
L 116.789501 -219.397157 
L 117.977096 -218.241358 
L 119.164691 -217.092688 
L 120.352286 -215.951052 
L 121.539881 -214.793809 
L 122.727476 -213.657875 
L 123.915071 -212.528991 
L 125.102666 -211.40748 
L 126.290261 -210.288968 
L 127.477856 -209.169019 
L 128.665451 -208.057908 
L 129.853046 -206.952824 
L 131.040641 -205.857207 
L 132.228236 -204.782784 
L 133.415831 -203.701313 
L 134.603426 -202.624712 
L 135.791021 -201.557315 
L 136.978616 -200.49653 
L 138.166211 -199.441283 
L 139.353806 -198.392584 
L 140.541401 -197.350511 
L 141.728996 -196.321747 
L 142.916591 -195.301034 
L 144.104186 -194.286434 
L 145.291781 -193.27789 
L 146.479376 -192.273654 
L 147.666971 -191.272611 
L 148.854566 -190.277467 
L 150.042161 -189.288172 
L 151.229756 -188.304774 
L 152.417351 -187.327039 
L 153.604946 -186.347775 
L 154.792541 -185.374353 
L 155.980136 -184.406722 
L 157.167731 -183.44483 
L 158.355326 -182.491219 
L 159.542921 -181.55006 
L 160.730516 -180.614287 
L 161.918112 -179.683853 
L 163.105707 -178.758713 
L 164.293302 -177.838973 
L 165.480897 -176.924517 
L 166.668492 -176.010148 
L 167.856087 -175.098535 
L 169.043682 -174.192172 
L 170.231277 -173.291015 
L 171.418872 -172.395018 
L 172.606467 -171.504305 
L 173.794062 -170.625323 
L 174.981657 -169.751223 
L 176.169252 -168.881964 
L 177.356847 -168.011714 
L 178.544442 -167.144421 
L 179.732037 -166.281983 
L 180.919632 -165.424359 
L 182.107227 -164.571509 
L 183.294822 -163.723393 
L 184.482417 -162.879972 
L 185.670012 -162.041207 
L 186.857607 -161.20706 
L 188.045202 -160.377491 
L 189.232797 -159.552465 
L 190.420392 -158.731943 
L 191.607987 -157.91589 
L 192.795582 -157.104267 
L 193.983177 -156.29704 
L 195.170772 -155.494173 
L 196.358367 -154.695631 
L 197.545962 -153.901378 
L 198.733557 -153.112643 
L 199.921152 -152.329678 
L 201.108747 -151.55277 
L 202.296342 -150.779943 
L 203.483937 -150.011165 
L 204.671532 -149.246405 
L 205.859127 -148.485631 
L 207.046722 -147.728811 
L 208.234317 -146.975916 
L 209.421912 -146.226914 
L 210.609507 -145.481776 
L 211.797102 -144.740472 
L 212.984697 -144.002971 
L 214.172292 -143.269246 
L 215.359887 -142.539267 
L 216.547482 -141.813006 
L 217.735077 -141.090433 
L 218.922672 -140.371522 
L 220.110267 -139.656244 
L 221.297862 -138.944572 
L 222.485457 -138.236479 
L 223.673052 -137.531937 
L 224.860647 -136.830921 
L 226.048242 -136.133403 
L 227.235837 -135.4385 
L 228.423432 -134.743483 
L 229.611027 -134.051967 
L 230.798622 -133.354234 
L 231.986217 -132.654623 
L 233.173812 -131.958821 
L 234.361407 -131.27723 
L 235.549002 -130.606936 
L 236.736597 -129.940832 
L 237.924192 -129.278034 
L 239.111787 -128.618516 
L 240.299382 -127.962254 
L 241.486977 -127.309223 
L 242.674572 -126.659401 
L 243.862167 -126.011008 
L 245.049762 -125.358432 
L 246.237357 -124.708979 
L 247.424952 -124.06561 
L 248.612548 -123.428881 
L 249.800143 -122.795394 
L 250.987738 -122.164952 
L 252.175333 -121.537533 
L 253.362928 -120.913116 
L 254.550523 -120.29168 
L 255.738118 -119.673264 
L 256.925713 -119.057542 
L 258.113308 -118.444895 
L 259.300903 -117.835825 
L 260.488498 -117.231159 
L 261.676093 -116.62935 
L 262.863688 -116.030378 
L 264.051283 -115.431826 
L 265.238878 -114.833152 
L 266.426473 -114.23721 
L 267.614068 -113.646169 
L 268.801663 -113.058937 
L 269.989258 -112.476431 
L 271.176853 -111.896617 
L 272.364448 -111.317516 
L 273.552043 -110.738411 
L 274.739638 -110.162724 
L 275.927233 -109.589076 
L 277.114828 -109.016709 
L 278.302423 -108.447961 
L 279.490018 -107.881782 
L 280.677613 -107.318153 
L 281.865208 -106.757058 
L 283.052803 -106.19848 
L 284.240398 -105.642401 
L 285.427993 -105.087282 
L 286.615588 -104.533767 
L 287.803183 -103.982689 
L 288.990778 -103.434033 
L 290.178373 -102.887782 
L 291.365968 -102.343227 
L 292.553563 -101.802382 
L 293.741158 -101.263204 
L 294.928753 -100.726425 
L 296.116348 -100.191864 
L 297.303943 -99.658683 
L 298.491538 -99.127472 
L 299.679133 -98.598669 
L 300.866728 -98.076879 
L 302.054323 -97.548242 
L 303.241918 -97.026535 
L 304.429513 -96.507195 
L 305.617108 -95.990183 
L 306.804703 -95.475491 
L 307.992298 -94.963125 
L 309.179893 -94.457659 
L 310.367488 -93.954152 
L 311.555083 -93.448638 
L 312.742678 -92.94531 
L 313.930273 -92.445763 
L 315.117868 -91.94475 
L 316.305463 -91.446701 
L 317.493058 -90.950392 
L 318.680653 -90.458225 
L 319.868248 -89.968098 
L 321.055843 -89.479724 
L 322.243438 -88.992872 
L 323.431033 -88.508034 
L 324.618628 -88.025198 
L 325.806223 -87.54435 
L 326.993818 -87.065479 
L 328.181413 -86.588519 
L 329.369008 -86.111232 
L 330.556603 -85.636195 
L 331.744198 -85.164571 
L 332.931793 -84.691218 
L 334.119388 -84.211982 
L 335.306984 -83.742185 
L 336.494579 -83.277837 
L 337.682174 -82.815361 
L 338.869769 -82.354749 
L 340.057364 -81.891795 
L 341.244959 -81.41987 
L 342.432554 -80.94972 
L 343.620149 -80.481336 
L 344.807744 -80.015385 
L 345.995339 -79.575902 
L 347.182934 -79.138314 
L 348.370529 -78.695476 
L 349.558124 -78.242101 
L 350.745719 -77.790465 
L 351.933314 -77.340558 
L 353.120909 -76.892369 
L 354.308504 -76.445889 
L 355.496099 -76.001108 
L 356.683694 -75.558016 
L 357.871289 -75.116604 
L 359.058884 -74.676863 
L 360.246479 -74.238782 
L 361.434074 -73.802352 
L 362.621669 -73.367565 
L 363.809264 -72.934411 
L 364.996859 -72.50288 
L 366.184454 -72.072964 
L 367.372049 -71.644653 
L 368.559644 -71.217939 
L 369.747239 -70.792812 
L 370.934834 -70.369264 
L 372.122429 -69.947287 
L 373.310024 -69.52687 
L 374.497619 -69.108039 
L 375.685214 -68.690892 
L 376.872809 -68.275281 
L 378.060404 -67.864848 
L 379.247999 -67.460717 
L 380.435594 -67.058107 
L 381.623189 -66.657009 
L 382.810784 -66.252747 
L 383.998379 -65.844952 
L 385.185974 -65.438619 
L 386.373569 -65.03374 
L 387.561164 -64.630307 
L 388.748759 -64.228312 
L 389.936354 -63.827787 
L 391.123949 -63.428697 
L 392.311544 -63.031022 
L 393.499139 -62.634755 
L 394.686734 -62.239888 
L 395.874329 -61.846415 
L 397.061924 -61.454328 
L 398.249519 -61.063619 
L 399.437114 -60.674281 
L 400.624709 -60.288628 
L 401.812304 -59.906521 
L 402.999899 -59.526862 
L 404.187494 -59.148564 
L 405.375089 -58.77162 
L 406.562684 -58.396021 
L 407.750279 -58.021761 
L 408.937874 -57.648833 
L 410.125469 -57.277229 
L 411.313064 -56.906943 
L 412.500659 -56.537968 
L 413.688254 -56.170296 
L 414.875849 -55.803921 
L 416.063444 -55.433154 
L 417.251039 -55.061999 
L 418.438634 -54.692106 
L 419.626229 -54.323471 
L 420.813824 -53.956087 
L 422.00142 -53.591592 
L 423.189015 -53.231652 
L 424.37661 -52.872957 
L 425.564205 -52.5155 
L 425.564205 -54.118602 
L 425.564205 -54.118602 
L 424.37661 -54.466796 
L 423.189015 -54.812795 
L 422.00142 -55.160024 
L 420.813824 -55.508489 
L 419.626229 -55.859996 
L 418.438634 -56.213927 
L 417.251039 -56.569121 
L 416.063444 -56.922425 
L 414.875849 -57.277198 
L 413.688254 -57.636405 
L 412.500659 -57.996894 
L 411.313064 -58.358671 
L 410.125469 -58.719632 
L 408.937874 -59.074159 
L 407.750279 -59.430037 
L 406.562684 -59.787964 
L 405.375089 -60.156399 
L 404.187494 -60.528078 
L 402.999899 -60.901096 
L 401.812304 -61.275458 
L 400.624709 -61.651173 
L 399.437114 -62.028249 
L 398.249519 -62.406637 
L 397.061924 -62.786301 
L 395.874329 -63.167347 
L 394.686734 -63.54233 
L 393.499139 -63.918381 
L 392.311544 -64.295842 
L 391.123949 -64.674597 
L 389.936354 -65.061878 
L 388.748759 -65.454813 
L 387.561164 -65.849176 
L 386.373569 -66.239375 
L 385.185974 -66.627704 
L 383.998379 -67.017497 
L 382.810784 -67.408761 
L 381.623189 -67.801338 
L 380.435594 -68.195395 
L 379.247999 -68.592786 
L 378.060404 -68.993571 
L 376.872809 -69.395866 
L 375.685214 -69.79968 
L 374.497619 -70.20502 
L 373.310024 -70.611868 
L 372.122429 -71.020256 
L 370.934834 -71.430198 
L 369.747239 -71.841702 
L 368.559644 -72.254777 
L 367.372049 -72.669432 
L 366.184454 -73.086948 
L 364.996859 -73.508576 
L 363.809264 -73.930982 
L 362.621669 -74.352687 
L 361.434074 -74.779844 
L 360.246479 -75.207148 
L 359.058884 -75.634928 
L 357.871289 -76.065718 
L 356.683694 -76.498163 
L 355.496099 -76.932271 
L 354.308504 -77.368054 
L 353.120909 -77.805506 
L 351.933314 -78.244648 
L 350.745719 -78.685413 
L 349.558124 -79.127845 
L 348.370529 -79.57298 
L 347.182934 -80.018013 
L 345.995339 -80.464867 
L 344.807744 -80.911572 
L 343.620149 -81.364887 
L 342.432554 -81.819563 
L 341.244959 -82.27452 
L 340.057364 -82.731089 
L 338.869769 -83.190044 
L 337.682174 -83.654428 
L 336.494579 -84.114759 
L 335.306984 -84.576818 
L 334.119388 -85.046623 
L 332.931793 -85.518326 
L 331.744198 -85.993975 
L 330.556603 -86.47376 
L 329.369008 -86.950716 
L 328.181413 -87.427553 
L 326.993818 -87.906439 
L 325.806223 -88.387173 
L 324.618628 -88.867511 
L 323.431033 -89.3514 
L 322.243438 -89.840317 
L 321.055843 -90.329808 
L 319.868248 -90.820503 
L 318.680653 -91.313206 
L 317.493058 -91.807799 
L 316.305463 -92.304408 
L 315.117868 -92.803062 
L 313.930273 -93.303773 
L 312.742678 -93.806591 
L 311.555083 -94.311659 
L 310.367488 -94.818661 
L 309.179893 -95.328049 
L 307.992298 -95.83908 
L 306.804703 -96.352627 
L 305.617108 -96.868322 
L 304.429513 -97.38618 
L 303.241918 -97.906171 
L 302.054323 -98.429667 
L 300.866728 -98.958749 
L 299.679133 -99.490022 
L 298.491538 -100.0235 
L 297.303943 -100.559196 
L 296.116348 -101.097125 
L 294.928753 -101.6373 
L 293.741158 -102.179736 
L 292.553563 -102.723232 
L 291.365968 -103.266834 
L 290.178373 -103.813799 
L 288.990778 -104.366547 
L 287.803183 -104.923033 
L 286.615588 -105.483097 
L 285.427993 -106.041945 
L 284.240398 -106.603169 
L 283.052803 -107.166784 
L 281.865208 -107.732732 
L 280.677613 -108.302007 
L 279.490018 -108.873729 
L 278.302423 -109.447898 
L 277.114828 -110.02453 
L 275.927233 -110.603641 
L 274.739638 -111.183491 
L 273.552043 -111.765305 
L 272.364448 -112.349699 
L 271.176853 -112.936768 
L 269.989258 -113.527647 
L 268.801663 -114.121111 
L 267.614068 -114.717175 
L 266.426473 -115.315858 
L 265.238878 -115.917175 
L 264.051283 -116.52113 
L 262.863688 -117.127637 
L 261.676093 -117.736832 
L 260.488498 -118.348735 
L 259.300903 -118.959751 
L 258.113308 -119.575487 
L 256.925713 -120.196746 
L 255.738118 -120.821998 
L 254.550523 -121.450036 
L 253.362928 -122.078752 
L 252.175333 -122.710239 
L 250.987738 -123.345337 
L 249.800143 -123.983587 
L 248.612548 -124.624514 
L 247.424952 -125.266855 
L 246.237357 -125.912156 
L 245.049762 -126.560437 
L 243.862167 -127.211719 
L 242.674572 -127.866527 
L 241.486977 -128.524436 
L 240.299382 -129.185382 
L 239.111787 -129.850431 
L 237.924192 -130.519644 
L 236.736597 -131.191906 
L 235.549002 -131.867239 
L 234.361407 -132.545662 
L 233.173812 -133.227198 
L 231.986217 -133.911867 
L 230.798622 -134.599692 
L 229.611027 -135.290694 
L 228.423432 -135.984895 
L 227.235837 -136.682318 
L 226.048242 -137.382986 
L 224.860647 -138.08692 
L 223.673052 -138.794143 
L 222.485457 -139.50468 
L 221.297862 -140.218552 
L 220.110267 -140.935784 
L 218.922672 -141.6564 
L 217.735077 -142.380423 
L 216.547482 -143.109005 
L 215.359887 -143.841625 
L 214.172292 -144.577687 
L 212.984697 -145.316124 
L 211.797102 -146.058117 
L 210.609507 -146.802798 
L 209.421912 -147.550075 
L 208.234317 -148.302767 
L 207.046722 -149.05835 
L 205.859127 -149.818453 
L 204.671532 -150.58418 
L 203.483937 -151.353539 
L 202.296342 -152.126643 
L 201.108747 -152.903376 
L 199.921152 -153.683059 
L 198.733557 -154.466661 
L 197.545962 -155.254209 
L 196.358367 -156.045734 
L 195.170772 -156.841266 
L 193.983177 -157.640836 
L 192.795582 -158.444474 
L 191.607987 -159.256061 
L 190.420392 -160.068518 
L 189.232797 -160.884552 
L 188.045202 -161.704402 
L 186.857607 -162.530205 
L 185.670012 -163.361699 
L 184.482417 -164.198307 
L 183.294822 -165.04193 
L 182.107227 -165.890085 
L 180.919632 -166.736128 
L 179.732037 -167.5876 
L 178.544442 -168.457957 
L 177.356847 -169.31941 
L 176.169252 -170.184969 
L 174.981657 -171.054672 
L 173.794062 -171.929377 
L 172.606467 -172.808834 
L 171.418872 -173.696853 
L 170.231277 -174.594313 
L 169.043682 -175.497324 
L 167.856087 -176.40454 
L 166.668492 -177.307071 
L 165.480897 -178.225138 
L 164.293302 -179.148315 
L 163.105707 -180.076646 
L 161.918112 -181.01792 
L 160.730516 -181.963 
L 159.542921 -182.895015 
L 158.355326 -183.84238 
L 157.167731 -184.797138 
L 155.980136 -185.757317 
L 154.792541 -186.722963 
L 153.604946 -187.694123 
L 152.417351 -188.670844 
L 151.229756 -189.653174 
L 150.042161 -190.641161 
L 148.854566 -191.634855 
L 147.666971 -192.641038 
L 146.479376 -193.656844 
L 145.291781 -194.670111 
L 144.104186 -195.690757 
L 142.916591 -196.714502 
L 141.728996 -197.747613 
L 140.541401 -198.787301 
L 139.353806 -199.829263 
L 138.166211 -200.877297 
L 136.978616 -201.936306 
L 135.791021 -203.003164 
L 134.603426 -204.077449 
L 133.415831 -205.157902 
L 132.228236 -206.244688 
L 131.040641 -207.338181 
L 129.853046 -208.438451 
L 128.665451 -209.545561 
L 127.477856 -210.659575 
L 126.290261 -211.780558 
L 125.102666 -212.903387 
L 123.915071 -214.029888 
L 122.727476 -215.167235 
L 121.539881 -216.329343 
L 120.352286 -217.493546 
L 119.164691 -218.654638 
L 117.977096 -219.815062 
L 116.789501 -220.982804 
L 115.601906 -222.157933 
L 114.414311 -223.340519 
L 113.226716 -224.536029 
L 112.039121 -225.745105 
L 110.851526 -226.96205 
L 109.663931 -228.18694 
L 108.476336 -229.419854 
L 107.288741 -230.66087 
L 106.101146 -231.91007 
L 104.913551 -233.167632 
L 103.725956 -234.456009 
L 102.538361 -235.753331 
L 101.350766 -237.05969 
L 100.163171 -238.354043 
L 98.975576 -239.656181 
L 97.787981 -240.967139 
L 96.600386 -242.290878 
L 95.412791 -243.63712 
L 94.225196 -244.992898 
L 93.037601 -246.358313 
L 91.850006 -247.733468 
L 90.662411 -249.118468 
L 89.474816 -250.513419 
L 88.287221 -251.918428 
L 87.099626 -253.333605 
L 85.912031 -254.75906 
L 84.724436 -256.194906 
L 83.536841 -257.641258 
L 82.349246 -259.098229 
L 81.161651 -260.565939 
L 79.974056 -262.044506 
L 78.786461 -263.534051 
L 77.598866 -265.034451 
L 76.411271 -266.54588 
L 75.223676 -268.068653 
L 74.03608 -269.602896 
L 72.848485 -271.14874 
L 71.66089 -272.706248 
L 70.473295 -274.2755 
z
" style="stroke: #1f77b4; stroke-opacity: 0.25"/>
    </defs>
    <g clip-path="url(#pa675076a76)">
     <use xlink:href="#maede80f942" x="0" y="308.441469" style="fill: #1f77b4; fill-opacity: 0.25; stroke: #1f77b4; stroke-opacity: 0.25"/>
    </g>
   </g>
   <g id="matplotlib.axis_1">
    <g id="xtick_1">
     <g id="line2d_1">
      <path d="M 101.804846 267.013969 
L 101.804846 23.077969 
" clip-path="url(#pa675076a76)" style="fill: none; stroke: #b0b0b0; stroke-opacity: 0.3; stroke-width: 0.8; stroke-linecap: square"/>
     </g>
     <g id="line2d_2">
      <defs>
       <path id="m94df4dd734" d="M 0 0 
L 0 3.5 
" style="stroke: #000000; stroke-width: 0.8"/>
      </defs>
      <g>
       <use xlink:href="#m94df4dd734" x="101.804846" y="267.013969" style="stroke: #000000; stroke-width: 0.8"/>
      </g>
     </g>
     <g id="text_1">
      <!-- 0.05 -->
      <g transform="translate(88.445471 283.132094) scale(0.12 -0.12)">
       <defs>
        <path id="DejaVuSans-30" d="M 2034 4250 
Q 1547 4250 1301 3770 
Q 1056 3291 1056 2328 
Q 1056 1369 1301 889 
Q 1547 409 2034 409 
Q 2525 409 2770 889 
Q 3016 1369 3016 2328 
Q 3016 3291 2770 3770 
Q 2525 4250 2034 4250 
z
M 2034 4750 
Q 2819 4750 3233 4129 
Q 3647 3509 3647 2328 
Q 3647 1150 3233 529 
Q 2819 -91 2034 -91 
Q 1250 -91 836 529 
Q 422 1150 422 2328 
Q 422 3509 836 4129 
Q 1250 4750 2034 4750 
z
" transform="scale(0.015625)"/>
        <path id="DejaVuSans-2e" d="M 684 794 
L 1344 794 
L 1344 0 
L 684 0 
L 684 794 
z
" transform="scale(0.015625)"/>
        <path id="DejaVuSans-35" d="M 691 4666 
L 3169 4666 
L 3169 4134 
L 1269 4134 
L 1269 2991 
Q 1406 3038 1543 3061 
Q 1681 3084 1819 3084 
Q 2600 3084 3056 2656 
Q 3513 2228 3513 1497 
Q 3513 744 3044 326 
Q 2575 -91 1722 -91 
Q 1428 -91 1123 -41 
Q 819 9 494 109 
L 494 744 
Q 775 591 1075 516 
Q 1375 441 1709 441 
Q 2250 441 2565 725 
Q 2881 1009 2881 1497 
Q 2881 1984 2565 2268 
Q 2250 2553 1709 2553 
Q 1456 2553 1204 2497 
Q 953 2441 691 2322 
L 691 4666 
z
" transform="scale(0.015625)"/>
       </defs>
       <use xlink:href="#DejaVuSans-30"/>
       <use xlink:href="#DejaVuSans-2e" transform="translate(63.623047 0)"/>
       <use xlink:href="#DejaVuSans-30" transform="translate(95.410156 0)"/>
       <use xlink:href="#DejaVuSans-35" transform="translate(159.033203 0)"/>
      </g>
     </g>
    </g>
    <g id="xtick_2">
     <g id="line2d_3">
      <path d="M 154.024098 267.013969 
L 154.024098 23.077969 
" clip-path="url(#pa675076a76)" style="fill: none; stroke: #b0b0b0; stroke-opacity: 0.3; stroke-width: 0.8; stroke-linecap: square"/>
     </g>
     <g id="line2d_4">
      <g>
       <use xlink:href="#m94df4dd734" x="154.024098" y="267.013969" style="stroke: #000000; stroke-width: 0.8"/>
      </g>
     </g>
     <g id="text_2">
      <!-- 0.10 -->
      <g transform="translate(140.664723 283.132094) scale(0.12 -0.12)">
       <defs>
        <path id="DejaVuSans-31" d="M 794 531 
L 1825 531 
L 1825 4091 
L 703 3866 
L 703 4441 
L 1819 4666 
L 2450 4666 
L 2450 531 
L 3481 531 
L 3481 0 
L 794 0 
L 794 531 
z
" transform="scale(0.015625)"/>
       </defs>
       <use xlink:href="#DejaVuSans-30"/>
       <use xlink:href="#DejaVuSans-2e" transform="translate(63.623047 0)"/>
       <use xlink:href="#DejaVuSans-31" transform="translate(95.410156 0)"/>
       <use xlink:href="#DejaVuSans-30" transform="translate(159.033203 0)"/>
      </g>
     </g>
    </g>
    <g id="xtick_3">
     <g id="line2d_5">
      <path d="M 206.243349 267.013969 
L 206.243349 23.077969 
" clip-path="url(#pa675076a76)" style="fill: none; stroke: #b0b0b0; stroke-opacity: 0.3; stroke-width: 0.8; stroke-linecap: square"/>
     </g>
     <g id="line2d_6">
      <g>
       <use xlink:href="#m94df4dd734" x="206.243349" y="267.013969" style="stroke: #000000; stroke-width: 0.8"/>
      </g>
     </g>
     <g id="text_3">
      <!-- 0.15 -->
      <g transform="translate(192.883974 283.132094) scale(0.12 -0.12)">
       <use xlink:href="#DejaVuSans-30"/>
       <use xlink:href="#DejaVuSans-2e" transform="translate(63.623047 0)"/>
       <use xlink:href="#DejaVuSans-31" transform="translate(95.410156 0)"/>
       <use xlink:href="#DejaVuSans-35" transform="translate(159.033203 0)"/>
      </g>
     </g>
    </g>
    <g id="xtick_4">
     <g id="line2d_7">
      <path d="M 258.4626 267.013969 
L 258.4626 23.077969 
" clip-path="url(#pa675076a76)" style="fill: none; stroke: #b0b0b0; stroke-opacity: 0.3; stroke-width: 0.8; stroke-linecap: square"/>
     </g>
     <g id="line2d_8">
      <g>
       <use xlink:href="#m94df4dd734" x="258.4626" y="267.013969" style="stroke: #000000; stroke-width: 0.8"/>
      </g>
     </g>
     <g id="text_4">
      <!-- 0.20 -->
      <g transform="translate(245.103225 283.132094) scale(0.12 -0.12)">
       <defs>
        <path id="DejaVuSans-32" d="M 1228 531 
L 3431 531 
L 3431 0 
L 469 0 
L 469 531 
Q 828 903 1448 1529 
Q 2069 2156 2228 2338 
Q 2531 2678 2651 2914 
Q 2772 3150 2772 3378 
Q 2772 3750 2511 3984 
Q 2250 4219 1831 4219 
Q 1534 4219 1204 4116 
Q 875 4013 500 3803 
L 500 4441 
Q 881 4594 1212 4672 
Q 1544 4750 1819 4750 
Q 2544 4750 2975 4387 
Q 3406 4025 3406 3419 
Q 3406 3131 3298 2873 
Q 3191 2616 2906 2266 
Q 2828 2175 2409 1742 
Q 1991 1309 1228 531 
z
" transform="scale(0.015625)"/>
       </defs>
       <use xlink:href="#DejaVuSans-30"/>
       <use xlink:href="#DejaVuSans-2e" transform="translate(63.623047 0)"/>
       <use xlink:href="#DejaVuSans-32" transform="translate(95.410156 0)"/>
       <use xlink:href="#DejaVuSans-30" transform="translate(159.033203 0)"/>
      </g>
     </g>
    </g>
    <g id="xtick_5">
     <g id="line2d_9">
      <path d="M 310.681852 267.013969 
L 310.681852 23.077969 
" clip-path="url(#pa675076a76)" style="fill: none; stroke: #b0b0b0; stroke-opacity: 0.3; stroke-width: 0.8; stroke-linecap: square"/>
     </g>
     <g id="line2d_10">
      <g>
       <use xlink:href="#m94df4dd734" x="310.681852" y="267.013969" style="stroke: #000000; stroke-width: 0.8"/>
      </g>
     </g>
     <g id="text_5">
      <!-- 0.25 -->
      <g transform="translate(297.322477 283.132094) scale(0.12 -0.12)">
       <use xlink:href="#DejaVuSans-30"/>
       <use xlink:href="#DejaVuSans-2e" transform="translate(63.623047 0)"/>
       <use xlink:href="#DejaVuSans-32" transform="translate(95.410156 0)"/>
       <use xlink:href="#DejaVuSans-35" transform="translate(159.033203 0)"/>
      </g>
     </g>
    </g>
    <g id="xtick_6">
     <g id="line2d_11">
      <path d="M 362.901103 267.013969 
L 362.901103 23.077969 
" clip-path="url(#pa675076a76)" style="fill: none; stroke: #b0b0b0; stroke-opacity: 0.3; stroke-width: 0.8; stroke-linecap: square"/>
     </g>
     <g id="line2d_12">
      <g>
       <use xlink:href="#m94df4dd734" x="362.901103" y="267.013969" style="stroke: #000000; stroke-width: 0.8"/>
      </g>
     </g>
     <g id="text_6">
      <!-- 0.30 -->
      <g transform="translate(349.541728 283.132094) scale(0.12 -0.12)">
       <defs>
        <path id="DejaVuSans-33" d="M 2597 2516 
Q 3050 2419 3304 2112 
Q 3559 1806 3559 1356 
Q 3559 666 3084 287 
Q 2609 -91 1734 -91 
Q 1441 -91 1130 -33 
Q 819 25 488 141 
L 488 750 
Q 750 597 1062 519 
Q 1375 441 1716 441 
Q 2309 441 2620 675 
Q 2931 909 2931 1356 
Q 2931 1769 2642 2001 
Q 2353 2234 1838 2234 
L 1294 2234 
L 1294 2753 
L 1863 2753 
Q 2328 2753 2575 2939 
Q 2822 3125 2822 3475 
Q 2822 3834 2567 4026 
Q 2313 4219 1838 4219 
Q 1578 4219 1281 4162 
Q 984 4106 628 3988 
L 628 4550 
Q 988 4650 1302 4700 
Q 1616 4750 1894 4750 
Q 2613 4750 3031 4423 
Q 3450 4097 3450 3541 
Q 3450 3153 3228 2886 
Q 3006 2619 2597 2516 
z
" transform="scale(0.015625)"/>
       </defs>
       <use xlink:href="#DejaVuSans-30"/>
       <use xlink:href="#DejaVuSans-2e" transform="translate(63.623047 0)"/>
       <use xlink:href="#DejaVuSans-33" transform="translate(95.410156 0)"/>
       <use xlink:href="#DejaVuSans-30" transform="translate(159.033203 0)"/>
      </g>
     </g>
    </g>
    <g id="xtick_7">
     <g id="line2d_13">
      <path d="M 415.120354 267.013969 
L 415.120354 23.077969 
" clip-path="url(#pa675076a76)" style="fill: none; stroke: #b0b0b0; stroke-opacity: 0.3; stroke-width: 0.8; stroke-linecap: square"/>
     </g>
     <g id="line2d_14">
      <g>
       <use xlink:href="#m94df4dd734" x="415.120354" y="267.013969" style="stroke: #000000; stroke-width: 0.8"/>
      </g>
     </g>
     <g id="text_7">
      <!-- 0.35 -->
      <g transform="translate(401.760979 283.132094) scale(0.12 -0.12)">
       <use xlink:href="#DejaVuSans-30"/>
       <use xlink:href="#DejaVuSans-2e" transform="translate(63.623047 0)"/>
       <use xlink:href="#DejaVuSans-33" transform="translate(95.410156 0)"/>
       <use xlink:href="#DejaVuSans-35" transform="translate(159.033203 0)"/>
      </g>
     </g>
    </g>
    <g id="text_8">
     <!-- h (mm) -->
     <g transform="translate(225.93875 298.745844) scale(0.12 -0.12)">
      <defs>
       <path id="DejaVuSans-68" d="M 3513 2113 
L 3513 0 
L 2938 0 
L 2938 2094 
Q 2938 2591 2744 2837 
Q 2550 3084 2163 3084 
Q 1697 3084 1428 2787 
Q 1159 2491 1159 1978 
L 1159 0 
L 581 0 
L 581 4863 
L 1159 4863 
L 1159 2956 
Q 1366 3272 1645 3428 
Q 1925 3584 2291 3584 
Q 2894 3584 3203 3211 
Q 3513 2838 3513 2113 
z
" transform="scale(0.015625)"/>
       <path id="DejaVuSans-20" transform="scale(0.015625)"/>
       <path id="DejaVuSans-28" d="M 1984 4856 
Q 1566 4138 1362 3434 
Q 1159 2731 1159 2009 
Q 1159 1288 1364 580 
Q 1569 -128 1984 -844 
L 1484 -844 
Q 1016 -109 783 600 
Q 550 1309 550 2009 
Q 550 2706 781 3412 
Q 1013 4119 1484 4856 
L 1984 4856 
z
" transform="scale(0.015625)"/>
       <path id="DejaVuSans-6d" d="M 3328 2828 
Q 3544 3216 3844 3400 
Q 4144 3584 4550 3584 
Q 5097 3584 5394 3201 
Q 5691 2819 5691 2113 
L 5691 0 
L 5113 0 
L 5113 2094 
Q 5113 2597 4934 2840 
Q 4756 3084 4391 3084 
Q 3944 3084 3684 2787 
Q 3425 2491 3425 1978 
L 3425 0 
L 2847 0 
L 2847 2094 
Q 2847 2600 2669 2842 
Q 2491 3084 2119 3084 
Q 1678 3084 1418 2786 
Q 1159 2488 1159 1978 
L 1159 0 
L 581 0 
L 581 3500 
L 1159 3500 
L 1159 2956 
Q 1356 3278 1631 3431 
Q 1906 3584 2284 3584 
Q 2666 3584 2933 3390 
Q 3200 3197 3328 2828 
z
" transform="scale(0.015625)"/>
       <path id="DejaVuSans-29" d="M 513 4856 
L 1013 4856 
Q 1481 4119 1714 3412 
Q 1947 2706 1947 2009 
Q 1947 1309 1714 600 
Q 1481 -109 1013 -844 
L 513 -844 
Q 928 -128 1133 580 
Q 1338 1288 1338 2009 
Q 1338 2731 1133 3434 
Q 928 4138 513 4856 
z
" transform="scale(0.015625)"/>
      </defs>
      <use xlink:href="#DejaVuSans-68"/>
      <use xlink:href="#DejaVuSans-20" transform="translate(63.378906 0)"/>
      <use xlink:href="#DejaVuSans-28" transform="translate(95.166016 0)"/>
      <use xlink:href="#DejaVuSans-6d" transform="translate(134.179688 0)"/>
      <use xlink:href="#DejaVuSans-6d" transform="translate(231.591797 0)"/>
      <use xlink:href="#DejaVuSans-29" transform="translate(329.003906 0)"/>
     </g>
    </g>
   </g>
   <g id="matplotlib.axis_2">
    <g id="ytick_1">
     <g id="line2d_15">
      <path d="M 52.71875 243.067807 
L 443.31875 243.067807 
" clip-path="url(#pa675076a76)" style="fill: none; stroke: #b0b0b0; stroke-opacity: 0.3; stroke-width: 0.8; stroke-linecap: square"/>
     </g>
     <g id="line2d_16">
      <defs>
       <path id="m6ee0be6109" d="M 0 0 
L -3.5 0 
" style="stroke: #000000; stroke-width: 0.8"/>
      </defs>
      <g>
       <use xlink:href="#m6ee0be6109" x="52.71875" y="243.067807" style="stroke: #000000; stroke-width: 0.8"/>
      </g>
     </g>
     <g id="text_9">
      <!-- 70 -->
      <g transform="translate(30.44875 247.626869) scale(0.12 -0.12)">
       <defs>
        <path id="DejaVuSans-37" d="M 525 4666 
L 3525 4666 
L 3525 4397 
L 1831 0 
L 1172 0 
L 2766 4134 
L 525 4134 
L 525 4666 
z
" transform="scale(0.015625)"/>
       </defs>
       <use xlink:href="#DejaVuSans-37"/>
       <use xlink:href="#DejaVuSans-30" transform="translate(63.623047 0)"/>
      </g>
     </g>
    </g>
    <g id="ytick_2">
     <g id="line2d_17">
      <path d="M 52.71875 200.070131 
L 443.31875 200.070131 
" clip-path="url(#pa675076a76)" style="fill: none; stroke: #b0b0b0; stroke-opacity: 0.3; stroke-width: 0.8; stroke-linecap: square"/>
     </g>
     <g id="line2d_18">
      <g>
       <use xlink:href="#m6ee0be6109" x="52.71875" y="200.070131" style="stroke: #000000; stroke-width: 0.8"/>
      </g>
     </g>
     <g id="text_10">
      <!-- 80 -->
      <g transform="translate(30.44875 204.629193) scale(0.12 -0.12)">
       <defs>
        <path id="DejaVuSans-38" d="M 2034 2216 
Q 1584 2216 1326 1975 
Q 1069 1734 1069 1313 
Q 1069 891 1326 650 
Q 1584 409 2034 409 
Q 2484 409 2743 651 
Q 3003 894 3003 1313 
Q 3003 1734 2745 1975 
Q 2488 2216 2034 2216 
z
M 1403 2484 
Q 997 2584 770 2862 
Q 544 3141 544 3541 
Q 544 4100 942 4425 
Q 1341 4750 2034 4750 
Q 2731 4750 3128 4425 
Q 3525 4100 3525 3541 
Q 3525 3141 3298 2862 
Q 3072 2584 2669 2484 
Q 3125 2378 3379 2068 
Q 3634 1759 3634 1313 
Q 3634 634 3220 271 
Q 2806 -91 2034 -91 
Q 1263 -91 848 271 
Q 434 634 434 1313 
Q 434 1759 690 2068 
Q 947 2378 1403 2484 
z
M 1172 3481 
Q 1172 3119 1398 2916 
Q 1625 2713 2034 2713 
Q 2441 2713 2670 2916 
Q 2900 3119 2900 3481 
Q 2900 3844 2670 4047 
Q 2441 4250 2034 4250 
Q 1625 4250 1398 4047 
Q 1172 3844 1172 3481 
z
" transform="scale(0.015625)"/>
       </defs>
       <use xlink:href="#DejaVuSans-38"/>
       <use xlink:href="#DejaVuSans-30" transform="translate(63.623047 0)"/>
      </g>
     </g>
    </g>
    <g id="ytick_3">
     <g id="line2d_19">
      <path d="M 52.71875 157.072455 
L 443.31875 157.072455 
" clip-path="url(#pa675076a76)" style="fill: none; stroke: #b0b0b0; stroke-opacity: 0.3; stroke-width: 0.8; stroke-linecap: square"/>
     </g>
     <g id="line2d_20">
      <g>
       <use xlink:href="#m6ee0be6109" x="52.71875" y="157.072455" style="stroke: #000000; stroke-width: 0.8"/>
      </g>
     </g>
     <g id="text_11">
      <!-- 90 -->
      <g transform="translate(30.44875 161.631517) scale(0.12 -0.12)">
       <defs>
        <path id="DejaVuSans-39" d="M 703 97 
L 703 672 
Q 941 559 1184 500 
Q 1428 441 1663 441 
Q 2288 441 2617 861 
Q 2947 1281 2994 2138 
Q 2813 1869 2534 1725 
Q 2256 1581 1919 1581 
Q 1219 1581 811 2004 
Q 403 2428 403 3163 
Q 403 3881 828 4315 
Q 1253 4750 1959 4750 
Q 2769 4750 3195 4129 
Q 3622 3509 3622 2328 
Q 3622 1225 3098 567 
Q 2575 -91 1691 -91 
Q 1453 -91 1209 -44 
Q 966 3 703 97 
z
M 1959 2075 
Q 2384 2075 2632 2365 
Q 2881 2656 2881 3163 
Q 2881 3666 2632 3958 
Q 2384 4250 1959 4250 
Q 1534 4250 1286 3958 
Q 1038 3666 1038 3163 
Q 1038 2656 1286 2365 
Q 1534 2075 1959 2075 
z
" transform="scale(0.015625)"/>
       </defs>
       <use xlink:href="#DejaVuSans-39"/>
       <use xlink:href="#DejaVuSans-30" transform="translate(63.623047 0)"/>
      </g>
     </g>
    </g>
    <g id="ytick_4">
     <g id="line2d_21">
      <path d="M 52.71875 114.074779 
L 443.31875 114.074779 
" clip-path="url(#pa675076a76)" style="fill: none; stroke: #b0b0b0; stroke-opacity: 0.3; stroke-width: 0.8; stroke-linecap: square"/>
     </g>
     <g id="line2d_22">
      <g>
       <use xlink:href="#m6ee0be6109" x="52.71875" y="114.074779" style="stroke: #000000; stroke-width: 0.8"/>
      </g>
     </g>
     <g id="text_12">
      <!-- 100 -->
      <g transform="translate(22.81375 118.633841) scale(0.12 -0.12)">
       <use xlink:href="#DejaVuSans-31"/>
       <use xlink:href="#DejaVuSans-30" transform="translate(63.623047 0)"/>
       <use xlink:href="#DejaVuSans-30" transform="translate(127.246094 0)"/>
      </g>
     </g>
    </g>
    <g id="ytick_5">
     <g id="line2d_23">
      <path d="M 52.71875 71.077102 
L 443.31875 71.077102 
" clip-path="url(#pa675076a76)" style="fill: none; stroke: #b0b0b0; stroke-opacity: 0.3; stroke-width: 0.8; stroke-linecap: square"/>
     </g>
     <g id="line2d_24">
      <g>
       <use xlink:href="#m6ee0be6109" x="52.71875" y="71.077102" style="stroke: #000000; stroke-width: 0.8"/>
      </g>
     </g>
     <g id="text_13">
      <!-- 110 -->
      <g transform="translate(22.81375 75.636165) scale(0.12 -0.12)">
       <use xlink:href="#DejaVuSans-31"/>
       <use xlink:href="#DejaVuSans-31" transform="translate(63.623047 0)"/>
       <use xlink:href="#DejaVuSans-30" transform="translate(127.246094 0)"/>
      </g>
     </g>
    </g>
    <g id="ytick_6">
     <g id="line2d_25">
      <path d="M 52.71875 28.079426 
L 443.31875 28.079426 
" clip-path="url(#pa675076a76)" style="fill: none; stroke: #b0b0b0; stroke-opacity: 0.3; stroke-width: 0.8; stroke-linecap: square"/>
     </g>
     <g id="line2d_26">
      <g>
       <use xlink:href="#m6ee0be6109" x="52.71875" y="28.079426" style="stroke: #000000; stroke-width: 0.8"/>
      </g>
     </g>
     <g id="text_14">
      <!-- 120 -->
      <g transform="translate(22.81375 32.638489) scale(0.12 -0.12)">
       <use xlink:href="#DejaVuSans-31"/>
       <use xlink:href="#DejaVuSans-32" transform="translate(63.623047 0)"/>
       <use xlink:href="#DejaVuSans-30" transform="translate(127.246094 0)"/>
      </g>
     </g>
    </g>
    <g id="text_15">
     <!-- T/Ω -->
     <g transform="translate(16.318125 155.317219) rotate(-90) scale(0.12 -0.12)">
      <defs>
       <path id="DejaVuSans-54" d="M -19 4666 
L 3928 4666 
L 3928 4134 
L 2272 4134 
L 2272 0 
L 1638 0 
L 1638 4134 
L -19 4134 
L -19 4666 
z
" transform="scale(0.015625)"/>
       <path id="DejaVuSans-2f" d="M 1625 4666 
L 2156 4666 
L 531 -594 
L 0 -594 
L 1625 4666 
z
" transform="scale(0.015625)"/>
       <path id="DejaVuSans-3a9" d="M 4647 556 
L 4647 0 
L 2772 0 
L 2772 556 
Q 3325 859 3634 1378 
Q 3944 1897 3944 2528 
Q 3944 3278 3531 3731 
Q 3119 4184 2444 4184 
Q 1769 4184 1355 3729 
Q 941 3275 941 2528 
Q 941 1897 1250 1378 
Q 1563 859 2119 556 
L 2119 0 
L 244 0 
L 244 556 
L 1241 556 
Q 747 991 519 1456 
Q 294 1922 294 2497 
Q 294 3491 894 4106 
Q 1491 4722 2444 4722 
Q 3391 4722 3994 4106 
Q 4594 3494 4594 2528 
Q 4594 1922 4372 1459 
Q 4150 997 3647 556 
L 4647 556 
z
" transform="scale(0.015625)"/>
      </defs>
      <use xlink:href="#DejaVuSans-54"/>
      <use xlink:href="#DejaVuSans-2f" transform="translate(61.083984 0)"/>
      <use xlink:href="#DejaVuSans-3a9" transform="translate(94.775391 0)"/>
     </g>
    </g>
   </g>
   <g id="line2d_27">
    <path d="M 70.473295 36.065094 
L 77.598866 45.090302 
L 84.724436 53.688928 
L 91.850006 61.929804 
L 98.975576 69.85282 
L 106.101146 77.456863 
L 113.226716 84.757567 
L 120.352286 91.790208 
L 129.853046 100.754021 
L 138.166211 108.235031 
L 146.479376 115.41703 
L 154.792541 122.28857 
L 164.293302 129.827915 
L 173.794062 137.042673 
L 183.294822 143.940833 
L 192.795582 150.552175 
L 202.296342 156.891976 
L 211.797102 162.975759 
L 221.297862 168.823183 
L 230.798622 174.435883 
L 240.299382 179.829678 
L 250.987738 185.654944 
L 261.676093 191.246251 
L 273.552043 197.199398 
L 285.427993 202.886825 
L 297.303943 208.331751 
L 309.179893 213.539154 
L 321.055843 218.528584 
L 334.119388 223.797204 
L 347.182934 228.837855 
L 360.246479 233.645044 
L 375.685214 239.086726 
L 391.123949 244.27128 
L 407.750279 249.567639 
L 423.189015 254.265551 
L 425.564205 254.973994 
L 425.564205 254.973994 
" clip-path="url(#pa675076a76)" style="fill: none; stroke: #1f77b4; stroke-width: 1.6; stroke-linecap: square"/>
   </g>
   <g id="line2d_28">
    <defs>
     <path id="mb08c98ef0a" d="M 0 2 
C 0.530406 2 1.03916 1.789267 1.414214 1.414214 
C 1.789267 1.03916 2 0.530406 2 0 
C 2 -0.530406 1.789267 -1.03916 1.414214 -1.414214 
C 1.03916 -1.789267 0.530406 -2 0 -2 
C -0.530406 -2 -1.03916 -1.789267 -1.414214 -1.414214 
C -1.789267 -1.03916 -2 -0.530406 -2 0 
C -2 0.530406 -1.789267 1.03916 -1.414214 1.414214 
C -1.03916 1.789267 -0.530406 2 0 2 
z
" style="stroke: #000000"/>
    </defs>
    <g clip-path="url(#pa675076a76)">
     <use xlink:href="#mb08c98ef0a" x="70.473295" y="35.331701" style="stroke: #000000"/>
     <use xlink:href="#mb08c98ef0a" x="91.360996" y="63.079535" style="stroke: #000000"/>
     <use xlink:href="#mb08c98ef0a" x="112.248697" y="83.775749" style="stroke: #000000"/>
     <use xlink:href="#mb08c98ef0a" x="133.136397" y="104.156648" style="stroke: #000000"/>
     <use xlink:href="#mb08c98ef0a" x="154.024098" y="120.409769" style="stroke: #000000"/>
     <use xlink:href="#mb08c98ef0a" x="174.911798" y="137.494179" style="stroke: #000000"/>
     <use xlink:href="#mb08c98ef0a" x="195.799499" y="151.482757" style="stroke: #000000"/>
     <use xlink:href="#mb08c98ef0a" x="216.687199" y="166.044636" style="stroke: #000000"/>
     <use xlink:href="#mb08c98ef0a" x="237.5749" y="178.169981" style="stroke: #000000"/>
     <use xlink:href="#mb08c98ef0a" x="258.4626" y="191.212609" style="stroke: #000000"/>
     <use xlink:href="#mb08c98ef0a" x="279.350301" y="200.156126" style="stroke: #000000"/>
     <use xlink:href="#mb08c98ef0a" x="300.238001" y="210.246247" style="stroke: #000000"/>
     <use xlink:href="#mb08c98ef0a" x="321.125702" y="218.27248" style="stroke: #000000"/>
     <use xlink:href="#mb08c98ef0a" x="342.013402" y="227.187332" style="stroke: #000000"/>
     <use xlink:href="#mb08c98ef0a" x="362.901103" y="234.668927" style="stroke: #000000"/>
     <use xlink:href="#mb08c98ef0a" x="383.788803" y="242.293849" style="stroke: #000000"/>
     <use xlink:href="#mb08c98ef0a" x="404.676504" y="248.600174" style="stroke: #000000"/>
     <use xlink:href="#mb08c98ef0a" x="425.564205" y="253.845891" style="stroke: #000000"/>
    </g>
   </g>
   <g id="patch_3">
    <path d="M 52.71875 267.013969 
L 52.71875 23.077969 
" style="fill: none; stroke: #000000; stroke-width: 0.8; stroke-linejoin: miter; stroke-linecap: square"/>
   </g>
   <g id="patch_4">
    <path d="M 443.31875 267.013969 
L 443.31875 23.077969 
" style="fill: none; stroke: #000000; stroke-width: 0.8; stroke-linejoin: miter; stroke-linecap: square"/>
   </g>
   <g id="patch_5">
    <path d="M 52.71875 267.013969 
L 443.31875 267.013969 
" style="fill: none; stroke: #000000; stroke-width: 0.8; stroke-linejoin: miter; stroke-linecap: square"/>
   </g>
   <g id="patch_6">
    <path d="M 52.71875 23.077969 
L 443.31875 23.077969 
" style="fill: none; stroke: #000000; stroke-width: 0.8; stroke-linejoin: miter; stroke-linecap: square"/>
   </g>
   <g id="text_16">
    <!-- Bootstrap prediction band — regularized -->
    <g transform="translate(116.037266 17.077969) scale(0.13 -0.13)">
     <defs>
      <path id="DejaVuSans-42" d="M 1259 2228 
L 1259 519 
L 2272 519 
Q 2781 519 3026 730 
Q 3272 941 3272 1375 
Q 3272 1813 3026 2020 
Q 2781 2228 2272 2228 
L 1259 2228 
z
M 1259 4147 
L 1259 2741 
L 2194 2741 
Q 2656 2741 2882 2914 
Q 3109 3088 3109 3444 
Q 3109 3797 2882 3972 
Q 2656 4147 2194 4147 
L 1259 4147 
z
M 628 4666 
L 2241 4666 
Q 2963 4666 3353 4366 
Q 3744 4066 3744 3513 
Q 3744 3084 3544 2831 
Q 3344 2578 2956 2516 
Q 3422 2416 3680 2098 
Q 3938 1781 3938 1306 
Q 3938 681 3513 340 
Q 3088 0 2303 0 
L 628 0 
L 628 4666 
z
" transform="scale(0.015625)"/>
      <path id="DejaVuSans-6f" d="M 1959 3097 
Q 1497 3097 1228 2736 
Q 959 2375 959 1747 
Q 959 1119 1226 758 
Q 1494 397 1959 397 
Q 2419 397 2687 759 
Q 2956 1122 2956 1747 
Q 2956 2369 2687 2733 
Q 2419 3097 1959 3097 
z
M 1959 3584 
Q 2709 3584 3137 3096 
Q 3566 2609 3566 1747 
Q 3566 888 3137 398 
Q 2709 -91 1959 -91 
Q 1206 -91 779 398 
Q 353 888 353 1747 
Q 353 2609 779 3096 
Q 1206 3584 1959 3584 
z
" transform="scale(0.015625)"/>
      <path id="DejaVuSans-74" d="M 1172 4494 
L 1172 3500 
L 2356 3500 
L 2356 3053 
L 1172 3053 
L 1172 1153 
Q 1172 725 1289 603 
Q 1406 481 1766 481 
L 2356 481 
L 2356 0 
L 1766 0 
Q 1100 0 847 248 
Q 594 497 594 1153 
L 594 3053 
L 172 3053 
L 172 3500 
L 594 3500 
L 594 4494 
L 1172 4494 
z
" transform="scale(0.015625)"/>
      <path id="DejaVuSans-73" d="M 2834 3397 
L 2834 2853 
Q 2591 2978 2328 3040 
Q 2066 3103 1784 3103 
Q 1356 3103 1142 2972 
Q 928 2841 928 2578 
Q 928 2378 1081 2264 
Q 1234 2150 1697 2047 
L 1894 2003 
Q 2506 1872 2764 1633 
Q 3022 1394 3022 966 
Q 3022 478 2636 193 
Q 2250 -91 1575 -91 
Q 1294 -91 989 -36 
Q 684 19 347 128 
L 347 722 
Q 666 556 975 473 
Q 1284 391 1588 391 
Q 1994 391 2212 530 
Q 2431 669 2431 922 
Q 2431 1156 2273 1281 
Q 2116 1406 1581 1522 
L 1381 1569 
Q 847 1681 609 1914 
Q 372 2147 372 2553 
Q 372 3047 722 3315 
Q 1072 3584 1716 3584 
Q 2034 3584 2315 3537 
Q 2597 3491 2834 3397 
z
" transform="scale(0.015625)"/>
      <path id="DejaVuSans-72" d="M 2631 2963 
Q 2534 3019 2420 3045 
Q 2306 3072 2169 3072 
Q 1681 3072 1420 2755 
Q 1159 2438 1159 1844 
L 1159 0 
L 581 0 
L 581 3500 
L 1159 3500 
L 1159 2956 
Q 1341 3275 1631 3429 
Q 1922 3584 2338 3584 
Q 2397 3584 2469 3576 
Q 2541 3569 2628 3553 
L 2631 2963 
z
" transform="scale(0.015625)"/>
      <path id="DejaVuSans-61" d="M 2194 1759 
Q 1497 1759 1228 1600 
Q 959 1441 959 1056 
Q 959 750 1161 570 
Q 1363 391 1709 391 
Q 2188 391 2477 730 
Q 2766 1069 2766 1631 
L 2766 1759 
L 2194 1759 
z
M 3341 1997 
L 3341 0 
L 2766 0 
L 2766 531 
Q 2569 213 2275 61 
Q 1981 -91 1556 -91 
Q 1019 -91 701 211 
Q 384 513 384 1019 
Q 384 1609 779 1909 
Q 1175 2209 1959 2209 
L 2766 2209 
L 2766 2266 
Q 2766 2663 2505 2880 
Q 2244 3097 1772 3097 
Q 1472 3097 1187 3025 
Q 903 2953 641 2809 
L 641 3341 
Q 956 3463 1253 3523 
Q 1550 3584 1831 3584 
Q 2591 3584 2966 3190 
Q 3341 2797 3341 1997 
z
" transform="scale(0.015625)"/>
      <path id="DejaVuSans-70" d="M 1159 525 
L 1159 -1331 
L 581 -1331 
L 581 3500 
L 1159 3500 
L 1159 2969 
Q 1341 3281 1617 3432 
Q 1894 3584 2278 3584 
Q 2916 3584 3314 3078 
Q 3713 2572 3713 1747 
Q 3713 922 3314 415 
Q 2916 -91 2278 -91 
Q 1894 -91 1617 61 
Q 1341 213 1159 525 
z
M 3116 1747 
Q 3116 2381 2855 2742 
Q 2594 3103 2138 3103 
Q 1681 3103 1420 2742 
Q 1159 2381 1159 1747 
Q 1159 1113 1420 752 
Q 1681 391 2138 391 
Q 2594 391 2855 752 
Q 3116 1113 3116 1747 
z
" transform="scale(0.015625)"/>
      <path id="DejaVuSans-65" d="M 3597 1894 
L 3597 1613 
L 953 1613 
Q 991 1019 1311 708 
Q 1631 397 2203 397 
Q 2534 397 2845 478 
Q 3156 559 3463 722 
L 3463 178 
Q 3153 47 2828 -22 
Q 2503 -91 2169 -91 
Q 1331 -91 842 396 
Q 353 884 353 1716 
Q 353 2575 817 3079 
Q 1281 3584 2069 3584 
Q 2775 3584 3186 3129 
Q 3597 2675 3597 1894 
z
M 3022 2063 
Q 3016 2534 2758 2815 
Q 2500 3097 2075 3097 
Q 1594 3097 1305 2825 
Q 1016 2553 972 2059 
L 3022 2063 
z
" transform="scale(0.015625)"/>
      <path id="DejaVuSans-64" d="M 2906 2969 
L 2906 4863 
L 3481 4863 
L 3481 0 
L 2906 0 
L 2906 525 
Q 2725 213 2448 61 
Q 2172 -91 1784 -91 
Q 1150 -91 751 415 
Q 353 922 353 1747 
Q 353 2572 751 3078 
Q 1150 3584 1784 3584 
Q 2172 3584 2448 3432 
Q 2725 3281 2906 2969 
z
M 947 1747 
Q 947 1113 1208 752 
Q 1469 391 1925 391 
Q 2381 391 2643 752 
Q 2906 1113 2906 1747 
Q 2906 2381 2643 2742 
Q 2381 3103 1925 3103 
Q 1469 3103 1208 2742 
Q 947 2381 947 1747 
z
" transform="scale(0.015625)"/>
      <path id="DejaVuSans-69" d="M 603 3500 
L 1178 3500 
L 1178 0 
L 603 0 
L 603 3500 
z
M 603 4863 
L 1178 4863 
L 1178 4134 
L 603 4134 
L 603 4863 
z
" transform="scale(0.015625)"/>
      <path id="DejaVuSans-63" d="M 3122 3366 
L 3122 2828 
Q 2878 2963 2633 3030 
Q 2388 3097 2138 3097 
Q 1578 3097 1268 2742 
Q 959 2388 959 1747 
Q 959 1106 1268 751 
Q 1578 397 2138 397 
Q 2388 397 2633 464 
Q 2878 531 3122 666 
L 3122 134 
Q 2881 22 2623 -34 
Q 2366 -91 2075 -91 
Q 1284 -91 818 406 
Q 353 903 353 1747 
Q 353 2603 823 3093 
Q 1294 3584 2113 3584 
Q 2378 3584 2631 3529 
Q 2884 3475 3122 3366 
z
" transform="scale(0.015625)"/>
      <path id="DejaVuSans-6e" d="M 3513 2113 
L 3513 0 
L 2938 0 
L 2938 2094 
Q 2938 2591 2744 2837 
Q 2550 3084 2163 3084 
Q 1697 3084 1428 2787 
Q 1159 2491 1159 1978 
L 1159 0 
L 581 0 
L 581 3500 
L 1159 3500 
L 1159 2956 
Q 1366 3272 1645 3428 
Q 1925 3584 2291 3584 
Q 2894 3584 3203 3211 
Q 3513 2838 3513 2113 
z
" transform="scale(0.015625)"/>
      <path id="DejaVuSans-62" d="M 3116 1747 
Q 3116 2381 2855 2742 
Q 2594 3103 2138 3103 
Q 1681 3103 1420 2742 
Q 1159 2381 1159 1747 
Q 1159 1113 1420 752 
Q 1681 391 2138 391 
Q 2594 391 2855 752 
Q 3116 1113 3116 1747 
z
M 1159 2969 
Q 1341 3281 1617 3432 
Q 1894 3584 2278 3584 
Q 2916 3584 3314 3078 
Q 3713 2572 3713 1747 
Q 3713 922 3314 415 
Q 2916 -91 2278 -91 
Q 1894 -91 1617 61 
Q 1341 213 1159 525 
L 1159 0 
L 581 0 
L 581 4863 
L 1159 4863 
L 1159 2969 
z
" transform="scale(0.015625)"/>
      <path id="DejaVuSans-2014" d="M 313 1978 
L 6088 1978 
L 6088 1528 
L 313 1528 
L 313 1978 
z
" transform="scale(0.015625)"/>
      <path id="DejaVuSans-67" d="M 2906 1791 
Q 2906 2416 2648 2759 
Q 2391 3103 1925 3103 
Q 1463 3103 1205 2759 
Q 947 2416 947 1791 
Q 947 1169 1205 825 
Q 1463 481 1925 481 
Q 2391 481 2648 825 
Q 2906 1169 2906 1791 
z
M 3481 434 
Q 3481 -459 3084 -895 
Q 2688 -1331 1869 -1331 
Q 1566 -1331 1297 -1286 
Q 1028 -1241 775 -1147 
L 775 -588 
Q 1028 -725 1275 -790 
Q 1522 -856 1778 -856 
Q 2344 -856 2625 -561 
Q 2906 -266 2906 331 
L 2906 616 
Q 2728 306 2450 153 
Q 2172 0 1784 0 
Q 1141 0 747 490 
Q 353 981 353 1791 
Q 353 2603 747 3093 
Q 1141 3584 1784 3584 
Q 2172 3584 2450 3431 
Q 2728 3278 2906 2969 
L 2906 3500 
L 3481 3500 
L 3481 434 
z
" transform="scale(0.015625)"/>
      <path id="DejaVuSans-75" d="M 544 1381 
L 544 3500 
L 1119 3500 
L 1119 1403 
Q 1119 906 1312 657 
Q 1506 409 1894 409 
Q 2359 409 2629 706 
Q 2900 1003 2900 1516 
L 2900 3500 
L 3475 3500 
L 3475 0 
L 2900 0 
L 2900 538 
Q 2691 219 2414 64 
Q 2138 -91 1772 -91 
Q 1169 -91 856 284 
Q 544 659 544 1381 
z
M 1991 3584 
L 1991 3584 
z
" transform="scale(0.015625)"/>
      <path id="DejaVuSans-6c" d="M 603 4863 
L 1178 4863 
L 1178 0 
L 603 0 
L 603 4863 
z
" transform="scale(0.015625)"/>
      <path id="DejaVuSans-7a" d="M 353 3500 
L 3084 3500 
L 3084 2975 
L 922 459 
L 3084 459 
L 3084 0 
L 275 0 
L 275 525 
L 2438 3041 
L 353 3041 
L 353 3500 
z
" transform="scale(0.015625)"/>
     </defs>
     <use xlink:href="#DejaVuSans-42"/>
     <use xlink:href="#DejaVuSans-6f" transform="translate(68.603516 0)"/>
     <use xlink:href="#DejaVuSans-6f" transform="translate(129.785156 0)"/>
     <use xlink:href="#DejaVuSans-74" transform="translate(190.966797 0)"/>
     <use xlink:href="#DejaVuSans-73" transform="translate(230.175781 0)"/>
     <use xlink:href="#DejaVuSans-74" transform="translate(282.275391 0)"/>
     <use xlink:href="#DejaVuSans-72" transform="translate(321.484375 0)"/>
     <use xlink:href="#DejaVuSans-61" transform="translate(362.597656 0)"/>
     <use xlink:href="#DejaVuSans-70" transform="translate(423.876953 0)"/>
     <use xlink:href="#DejaVuSans-20" transform="translate(487.353516 0)"/>
     <use xlink:href="#DejaVuSans-70" transform="translate(519.140625 0)"/>
     <use xlink:href="#DejaVuSans-72" transform="translate(582.617188 0)"/>
     <use xlink:href="#DejaVuSans-65" transform="translate(621.480469 0)"/>
     <use xlink:href="#DejaVuSans-64" transform="translate(683.003906 0)"/>
     <use xlink:href="#DejaVuSans-69" transform="translate(746.480469 0)"/>
     <use xlink:href="#DejaVuSans-63" transform="translate(774.263672 0)"/>
     <use xlink:href="#DejaVuSans-74" transform="translate(829.244141 0)"/>
     <use xlink:href="#DejaVuSans-69" transform="translate(868.453125 0)"/>
     <use xlink:href="#DejaVuSans-6f" transform="translate(896.236328 0)"/>
     <use xlink:href="#DejaVuSans-6e" transform="translate(957.417969 0)"/>
     <use xlink:href="#DejaVuSans-20" transform="translate(1020.796875 0)"/>
     <use xlink:href="#DejaVuSans-62" transform="translate(1052.583984 0)"/>
     <use xlink:href="#DejaVuSans-61" transform="translate(1116.060547 0)"/>
     <use xlink:href="#DejaVuSans-6e" transform="translate(1177.339844 0)"/>
     <use xlink:href="#DejaVuSans-64" transform="translate(1240.71875 0)"/>
     <use xlink:href="#DejaVuSans-20" transform="translate(1304.195312 0)"/>
     <use xlink:href="#DejaVuSans-2014" transform="translate(1335.982422 0)"/>
     <use xlink:href="#DejaVuSans-20" transform="translate(1435.982422 0)"/>
     <use xlink:href="#DejaVuSans-72" transform="translate(1467.769531 0)"/>
     <use xlink:href="#DejaVuSans-65" transform="translate(1506.632812 0)"/>
     <use xlink:href="#DejaVuSans-67" transform="translate(1568.15625 0)"/>
     <use xlink:href="#DejaVuSans-75" transform="translate(1631.632812 0)"/>
     <use xlink:href="#DejaVuSans-6c" transform="translate(1695.011719 0)"/>
     <use xlink:href="#DejaVuSans-61" transform="translate(1722.794922 0)"/>
     <use xlink:href="#DejaVuSans-72" transform="translate(1784.074219 0)"/>
     <use xlink:href="#DejaVuSans-69" transform="translate(1825.1875 0)"/>
     <use xlink:href="#DejaVuSans-7a" transform="translate(1852.970703 0)"/>
     <use xlink:href="#DejaVuSans-65" transform="translate(1905.460938 0)"/>
     <use xlink:href="#DejaVuSans-64" transform="translate(1966.984375 0)"/>
    </g>
   </g>
   <g id="legend_1">
    <g id="patch_7">
     <path d="M 353.435938 75.112344 
L 436.31875 75.112344 
Q 438.31875 75.112344 438.31875 73.112344 
L 438.31875 30.077969 
Q 438.31875 28.077969 436.31875 28.077969 
L 353.435938 28.077969 
Q 351.435938 28.077969 351.435938 30.077969 
L 351.435938 73.112344 
Q 351.435938 75.112344 353.435938 75.112344 
z
" style="fill: #ffffff; opacity: 0.8; stroke: #cccccc; stroke-linejoin: miter"/>
    </g>
    <g id="patch_8">
     <path d="M 355.435938 39.676406 
L 375.435938 39.676406 
L 375.435938 32.676406 
L 355.435938 32.676406 
z
" style="fill: #1f77b4; fill-opacity: 0.25; stroke: #1f77b4; stroke-opacity: 0.25; stroke-linejoin: miter"/>
    </g>
    <g id="text_17">
     <!-- 95% band -->
     <g transform="translate(383.435938 39.676406) scale(0.1 -0.1)">
      <defs>
       <path id="DejaVuSans-25" d="M 4653 2053 
Q 4381 2053 4226 1822 
Q 4072 1591 4072 1178 
Q 4072 772 4226 539 
Q 4381 306 4653 306 
Q 4919 306 5073 539 
Q 5228 772 5228 1178 
Q 5228 1588 5073 1820 
Q 4919 2053 4653 2053 
z
M 4653 2450 
Q 5147 2450 5437 2106 
Q 5728 1763 5728 1178 
Q 5728 594 5436 251 
Q 5144 -91 4653 -91 
Q 4153 -91 3862 251 
Q 3572 594 3572 1178 
Q 3572 1766 3864 2108 
Q 4156 2450 4653 2450 
z
M 1428 4353 
Q 1159 4353 1004 4120 
Q 850 3888 850 3481 
Q 850 3069 1003 2837 
Q 1156 2606 1428 2606 
Q 1700 2606 1854 2837 
Q 2009 3069 2009 3481 
Q 2009 3884 1853 4118 
Q 1697 4353 1428 4353 
z
M 4250 4750 
L 4750 4750 
L 1831 -91 
L 1331 -91 
L 4250 4750 
z
M 1428 4750 
Q 1922 4750 2215 4408 
Q 2509 4066 2509 3481 
Q 2509 2891 2217 2550 
Q 1925 2209 1428 2209 
Q 931 2209 642 2551 
Q 353 2894 353 3481 
Q 353 4063 643 4406 
Q 934 4750 1428 4750 
z
" transform="scale(0.015625)"/>
      </defs>
      <use xlink:href="#DejaVuSans-39"/>
      <use xlink:href="#DejaVuSans-35" transform="translate(63.623047 0)"/>
      <use xlink:href="#DejaVuSans-25" transform="translate(127.246094 0)"/>
      <use xlink:href="#DejaVuSans-20" transform="translate(222.265625 0)"/>
      <use xlink:href="#DejaVuSans-62" transform="translate(254.052734 0)"/>
      <use xlink:href="#DejaVuSans-61" transform="translate(317.529297 0)"/>
      <use xlink:href="#DejaVuSans-6e" transform="translate(378.808594 0)"/>
      <use xlink:href="#DejaVuSans-64" transform="translate(442.1875 0)"/>
     </g>
    </g>
    <g id="line2d_29">
     <path d="M 355.435938 50.854531 
L 365.435938 50.854531 
L 375.435938 50.854531 
" style="fill: none; stroke: #1f77b4; stroke-width: 1.6; stroke-linecap: square"/>
    </g>
    <g id="text_18">
     <!-- median fit -->
     <g transform="translate(383.435938 54.354531) scale(0.1 -0.1)">
      <defs>
       <path id="DejaVuSans-66" d="M 2375 4863 
L 2375 4384 
L 1825 4384 
Q 1516 4384 1395 4259 
Q 1275 4134 1275 3809 
L 1275 3500 
L 2222 3500 
L 2222 3053 
L 1275 3053 
L 1275 0 
L 697 0 
L 697 3053 
L 147 3053 
L 147 3500 
L 697 3500 
L 697 3744 
Q 697 4328 969 4595 
Q 1241 4863 1831 4863 
L 2375 4863 
z
" transform="scale(0.015625)"/>
      </defs>
      <use xlink:href="#DejaVuSans-6d"/>
      <use xlink:href="#DejaVuSans-65" transform="translate(97.412109 0)"/>
      <use xlink:href="#DejaVuSans-64" transform="translate(158.935547 0)"/>
      <use xlink:href="#DejaVuSans-69" transform="translate(222.412109 0)"/>
      <use xlink:href="#DejaVuSans-61" transform="translate(250.195312 0)"/>
      <use xlink:href="#DejaVuSans-6e" transform="translate(311.474609 0)"/>
      <use xlink:href="#DejaVuSans-20" transform="translate(374.853516 0)"/>
      <use xlink:href="#DejaVuSans-66" transform="translate(406.640625 0)"/>
      <use xlink:href="#DejaVuSans-69" transform="translate(441.845703 0)"/>
      <use xlink:href="#DejaVuSans-74" transform="translate(469.628906 0)"/>
     </g>
    </g>
    <g id="line2d_30">
     <g>
      <use xlink:href="#mb08c98ef0a" x="365.435938" y="65.532656" style="stroke: #000000"/>
     </g>
    </g>
    <g id="text_19">
     <!-- data -->
     <g transform="translate(383.435938 69.032656) scale(0.1 -0.1)">
      <use xlink:href="#DejaVuSans-64"/>
      <use xlink:href="#DejaVuSans-61" transform="translate(63.476562 0)"/>
      <use xlink:href="#DejaVuSans-74" transform="translate(124.755859 0)"/>
      <use xlink:href="#DejaVuSans-61" transform="translate(163.964844 0)"/>
     </g>
    </g>
   </g>
  </g>
 </g>
 <defs>
  <clipPath id="pa675076a76">
   <rect x="52.71875" y="23.077969" width="390.6" height="243.936"/>
  </clipPath>
 </defs>
</svg>
