<?xml version="1.0" encoding="utf-8" standalone="no"?>
<!DOCTYPE svg PUBLIC "-//W3C//DTD SVG 1.1//EN"
  "http://www.w3.org/Graphics/SVG/1.1/DTD/svg11.dtd">
<svg xmlns:xlink="http://www.w3.org/1999/xlink" width="432pt" height="432pt" viewBox="0 0 432 432" xmlns="http://www.w3.org/2000/svg" version="1.1">
 <metadata>
  <rdf:RDF xmlns:dc="http://purl.org/dc/elements/1.1/" xmlns:cc="http://creativecommons.org/ns#" xmlns:rdf="http://www.w3.org/1999/02/22-rdf-syntax-ns#">
   <cc:Work>
    <dc:type rdf:resource="http://purl.org/dc/dcmitype/StillImage"/>
    <dc:date>2026-06-19T11:56:52.706453</dc:date>
    <dc:format>image/svg+xml</dc:format>
    <dc:creator>
     <cc:Agent>
      <dc:title>Matplotlib v3.10.0, https://matplotlib.org/</dc:title>
     </cc:Agent>
    </dc:creator>
   </cc:Work>
  </rdf:RDF>
 </metadata>
 <defs>
  <style type="text/css">*{stroke-linejoin: round; stroke-linecap: butt}</style>
 </defs>
 <g id="figure_1">
  <g id="patch_1">
   <path d="M 0 432 
L 432 432 
L 432 0 
L 0 0 
z
" style="fill: #ffffff"/>
  </g>
  <g id="axes_1">
   <g id="patch_2">
    <path d="M 69.696364 375.967273 
L 413.619545 375.967273 
L 413.619545 12.96 
L 69.696364 12.96 
z
" style="fill: #ffffff"/>
   </g>
   <g id="FillBetweenPolyCollection_1">
    <defs>
     <path id="mfe67ab4a92" d="M 85.329236 -402.539669 
L 85.329236 -397.87256 
L 86.374913 -395.773611 
L 87.42059 -393.682838 
L 88.466267 -391.608743 
L 89.511944 -389.54873 
L 90.557621 -387.502637 
L 91.603298 -385.470303 
L 92.648975 -383.45157 
L 93.694652 -381.429992 
L 94.740329 -379.424898 
L 95.786006 -377.442619 
L 96.831683 -375.473279 
L 97.87736 -373.51654 
L 98.923037 -371.572857 
L 99.968714 -369.661549 
L 101.014391 -367.73575 
L 102.060068 -365.820814 
L 103.105745 -363.918784 
L 104.151422 -362.034796 
L 105.197099 -360.162528 
L 106.242777 -358.30186 
L 107.288454 -356.452674 
L 108.334131 -354.614852 
L 109.379808 -352.786188 
L 110.425485 -350.965262 
L 111.471162 -349.155714 
L 112.516839 -347.357422 
L 113.562516 -345.570268 
L 114.608193 -343.794161 
L 115.65387 -342.029016 
L 116.699547 -340.277681 
L 117.745224 -338.5403 
L 118.790901 -336.813424 
L 119.836578 -335.096915 
L 120.882255 -333.390679 
L 121.927932 -331.694632 
L 122.973609 -330.007473 
L 124.019286 -328.32459 
L 125.064963 -326.657188 
L 126.11064 -325.002523 
L 127.156318 -323.353692 
L 128.201995 -321.704893 
L 129.247672 -320.065548 
L 130.293349 -318.445965 
L 131.339026 -316.835799 
L 132.384703 -315.223637 
L 133.43038 -313.630776 
L 134.476057 -312.047037 
L 135.521734 -310.472209 
L 136.567411 -308.890197 
L 137.613088 -307.320783 
L 138.658765 -305.76903 
L 139.704442 -304.226272 
L 140.750119 -302.692147 
L 141.795796 -301.165215 
L 142.841473 -299.622502 
L 143.88715 -298.105777 
L 144.932827 -296.589656 
L 145.978504 -295.077737 
L 147.024182 -293.574672 
L 148.069859 -292.080366 
L 149.115536 -290.594727 
L 150.161213 -289.117663 
L 151.20689 -287.649084 
L 152.252567 -286.1889 
L 153.298244 -284.737024 
L 154.343921 -283.293568 
L 155.389598 -281.855041 
L 156.435275 -280.424364 
L 157.480952 -279.001793 
L 158.526629 -277.587247 
L 159.572306 -276.186247 
L 160.617983 -274.793324 
L 161.66366 -273.403807 
L 162.709337 -272.032227 
L 163.755014 -270.658945 
L 164.800691 -269.293187 
L 165.846368 -267.934844 
L 166.892045 -266.584121 
L 167.937723 -265.246847 
L 168.9834 -263.912781 
L 170.029077 -262.587488 
L 171.074754 -261.269085 
L 172.120431 -259.957506 
L 173.166108 -258.652724 
L 174.211785 -257.355002 
L 175.257462 -256.0669 
L 176.303139 -254.778971 
L 177.348816 -253.500518 
L 178.394493 -252.228517 
L 179.44017 -250.962908 
L 180.485847 -249.703632 
L 181.531524 -248.450632 
L 182.577201 -247.20385 
L 183.622878 -245.963231 
L 184.668555 -244.727997 
L 185.714232 -243.494844 
L 186.759909 -242.267785 
L 187.805586 -241.04268 
L 188.851264 -239.820165 
L 189.896941 -238.603559 
L 190.942618 -237.392813 
L 191.988295 -236.187879 
L 193.033972 -234.988712 
L 194.079649 -233.802913 
L 195.125326 -232.623004 
L 196.171003 -231.448743 
L 197.21668 -230.28008 
L 198.262357 -229.117932 
L 199.308034 -227.961531 
L 200.353711 -226.810015 
L 201.399388 -225.660319 
L 202.445065 -224.519594 
L 203.490742 -223.384559 
L 204.536419 -222.254765 
L 205.582096 -221.130167 
L 206.627773 -220.010722 
L 207.67345 -218.896387 
L 208.719127 -217.783794 
L 209.764805 -216.680119 
L 210.810482 -215.575183 
L 211.856159 -214.48226 
L 212.901836 -213.394287 
L 213.947513 -212.304435 
L 214.99319 -211.220862 
L 216.038867 -210.143117 
L 217.084544 -209.062245 
L 218.130221 -207.985131 
L 219.175898 -206.912818 
L 220.221575 -205.847118 
L 221.267252 -204.788057 
L 222.312929 -203.733788 
L 223.358606 -202.681195 
L 224.404283 -201.625466 
L 225.44996 -200.577213 
L 226.495637 -199.533667 
L 227.541314 -198.491371 
L 228.586991 -197.45368 
L 229.632668 -196.420568 
L 230.678346 -195.392059 
L 231.724023 -194.384079 
L 232.7697 -193.369249 
L 233.815377 -192.35571 
L 234.861054 -191.35616 
L 235.906731 -190.358771 
L 236.952408 -189.358768 
L 237.998085 -188.35951 
L 239.043762 -187.360957 
L 240.089439 -186.366754 
L 241.135116 -185.376911 
L 242.180793 -184.396377 
L 243.22647 -183.420075 
L 244.272147 -182.448671 
L 245.317824 -181.485396 
L 246.363501 -180.526354 
L 247.409178 -179.57163 
L 248.454855 -178.621157 
L 249.500532 -177.674842 
L 250.546209 -176.731132 
L 251.591887 -175.787599 
L 252.637564 -174.851251 
L 253.683241 -173.920854 
L 254.728918 -172.994185 
L 255.774595 -172.071219 
L 256.820272 -171.145673 
L 257.865949 -170.222946 
L 258.911626 -169.304014 
L 259.957303 -168.389022 
L 261.00298 -167.479331 
L 262.048657 -166.570245 
L 263.094334 -165.66505 
L 264.140011 -164.764297 
L 265.185688 -163.867142 
L 266.231365 -162.973563 
L 267.277042 -162.083559 
L 268.322719 -161.197132 
L 269.368396 -160.314219 
L 270.414073 -159.434793 
L 271.45975 -158.55957 
L 272.505428 -157.689972 
L 273.551105 -156.826533 
L 274.596782 -155.966649 
L 275.642459 -155.110301 
L 276.688136 -154.257469 
L 277.733813 -153.404906 
L 278.77949 -152.551667 
L 279.825167 -151.701704 
L 280.870844 -150.854997 
L 281.916521 -150.011528 
L 282.962198 -149.171278 
L 284.007875 -148.334228 
L 285.053552 -147.500359 
L 286.099229 -146.669653 
L 287.144906 -145.842092 
L 288.190583 -145.01705 
L 289.23626 -144.194068 
L 290.281937 -143.377569 
L 291.327614 -142.562681 
L 292.373291 -141.750462 
L 293.418969 -140.941335 
L 294.464646 -140.135279 
L 295.510323 -139.332305 
L 296.556 -138.53343 
L 297.601677 -137.742681 
L 298.647354 -136.955243 
L 299.693031 -136.168571 
L 300.738708 -135.389298 
L 301.784385 -134.610813 
L 302.830062 -133.835341 
L 303.875739 -133.062865 
L 304.921416 -132.289089 
L 305.967093 -131.514196 
L 307.01277 -130.742132 
L 308.058447 -129.97288 
L 309.104124 -129.206426 
L 310.149801 -128.442837 
L 311.195478 -127.68202 
L 312.241155 -126.925918 
L 313.286832 -126.176593 
L 314.33251 -125.430037 
L 315.378187 -124.681699 
L 316.423864 -123.935135 
L 317.469541 -123.191211 
L 318.515218 -122.449899 
L 319.560895 -121.711184 
L 320.606572 -120.975053 
L 321.652249 -120.241491 
L 322.697926 -119.510484 
L 323.743603 -118.78191 
L 324.78928 -118.055975 
L 325.834957 -117.332485 
L 326.880634 -116.611584 
L 327.926311 -115.895611 
L 328.971988 -115.18283 
L 330.017665 -114.472581 
L 331.063342 -113.76485 
L 332.109019 -113.059624 
L 333.154696 -112.353422 
L 334.200373 -111.649412 
L 335.246051 -110.947799 
L 336.291728 -110.24857 
L 337.337405 -109.551714 
L 338.383082 -108.857216 
L 339.428759 -108.165065 
L 340.474436 -107.475248 
L 341.520113 -106.787753 
L 342.56579 -106.102568 
L 343.611467 -105.419681 
L 344.657144 -104.739078 
L 345.702821 -104.06075 
L 346.748498 -103.384683 
L 347.794175 -102.710935 
L 348.839852 -102.039446 
L 349.885529 -101.370185 
L 350.931206 -100.70314 
L 351.976883 -100.041385 
L 353.02256 -99.38244 
L 354.068237 -98.725723 
L 355.113914 -98.069543 
L 356.159592 -97.410314 
L 357.205269 -96.75323 
L 358.250946 -96.098281 
L 359.296623 -95.445457 
L 360.3423 -94.796657 
L 361.387977 -94.150973 
L 362.433654 -93.507382 
L 363.479331 -92.865873 
L 364.525008 -92.22655 
L 365.570685 -91.589297 
L 366.616362 -90.953295 
L 367.662039 -90.31659 
L 368.707716 -89.68717 
L 369.753393 -89.059771 
L 370.79907 -88.434147 
L 371.844747 -87.810893 
L 372.890424 -87.186317 
L 373.936101 -86.567601 
L 374.981778 -85.950891 
L 376.027455 -85.334649 
L 377.073133 -84.712731 
L 378.11881 -84.098771 
L 379.164487 -83.484598 
L 380.210164 -82.870816 
L 381.255841 -82.256553 
L 382.301518 -81.646157 
L 383.347195 -81.028845 
L 384.392872 -80.419172 
L 385.438549 -79.799259 
L 386.484226 -79.185295 
L 387.529903 -78.576314 
L 388.57558 -77.966578 
L 389.621257 -77.366241 
L 390.666934 -76.763079 
L 391.712611 -76.162316 
L 392.758288 -75.559782 
L 393.803965 -74.957334 
L 394.849642 -74.361265 
L 395.895319 -73.76792 
L 396.940997 -73.173612 
L 397.986674 -72.571821 
L 397.986674 -76.230512 
L 397.986674 -76.230512 
L 396.940997 -76.769421 
L 395.895319 -77.310291 
L 394.849642 -77.853129 
L 393.803965 -78.397946 
L 392.758288 -78.944752 
L 391.712611 -79.493555 
L 390.666934 -80.044366 
L 389.621257 -80.597195 
L 388.57558 -81.15205 
L 387.529903 -81.712324 
L 386.484226 -82.276855 
L 385.438549 -82.843372 
L 384.392872 -83.411886 
L 383.347195 -83.979924 
L 382.301518 -84.545187 
L 381.255841 -85.11258 
L 380.210164 -85.682112 
L 379.164487 -86.253793 
L 378.11881 -86.827635 
L 377.073133 -87.403648 
L 376.027455 -87.981842 
L 374.981778 -88.562228 
L 373.936101 -89.144817 
L 372.890424 -89.729619 
L 371.844747 -90.316647 
L 370.79907 -90.906705 
L 369.753393 -91.499951 
L 368.707716 -92.095419 
L 367.662039 -92.69312 
L 366.616362 -93.293065 
L 365.570685 -93.895265 
L 364.525008 -94.499733 
L 363.479331 -95.106478 
L 362.433654 -95.715435 
L 361.387977 -96.326603 
L 360.3423 -96.940087 
L 359.296623 -97.555898 
L 358.250946 -98.174048 
L 357.205269 -98.79455 
L 356.159592 -99.417414 
L 355.113914 -100.042653 
L 354.068237 -100.670279 
L 353.02256 -101.300303 
L 351.976883 -101.932738 
L 350.931206 -102.567596 
L 349.885529 -103.20489 
L 348.839852 -103.844632 
L 347.794175 -104.486833 
L 346.748498 -105.131508 
L 345.702821 -105.781039 
L 344.657144 -106.43675 
L 343.611467 -107.094895 
L 342.56579 -107.755486 
L 341.520113 -108.418535 
L 340.474436 -109.076762 
L 339.428759 -109.730239 
L 338.383082 -110.386376 
L 337.337405 -111.047741 
L 336.291728 -111.725694 
L 335.246051 -112.406125 
L 334.200373 -113.088935 
L 333.154696 -113.774197 
L 332.109019 -114.461981 
L 331.063342 -115.152301 
L 330.017665 -115.845171 
L 328.971988 -116.539396 
L 327.926311 -117.230161 
L 326.880634 -117.923702 
L 325.834957 -118.61972 
L 324.78928 -119.31854 
L 323.743603 -120.019784 
L 322.697926 -120.718784 
L 321.652249 -121.420595 
L 320.606572 -122.125233 
L 319.560895 -122.832712 
L 318.515218 -123.572048 
L 317.469541 -124.304891 
L 316.423864 -125.057796 
L 315.378187 -125.81324 
L 314.33251 -126.556487 
L 313.286832 -127.293113 
L 312.241155 -128.045604 
L 311.195478 -128.792845 
L 310.149801 -129.549472 
L 309.104124 -130.313767 
L 308.058447 -131.074023 
L 307.01277 -131.849603 
L 305.967093 -132.627635 
L 304.921416 -133.402235 
L 303.875739 -134.185523 
L 302.830062 -134.972046 
L 301.784385 -135.741122 
L 300.738708 -136.529362 
L 299.693031 -137.314067 
L 298.647354 -138.110156 
L 297.601677 -138.904273 
L 296.556 -139.700992 
L 295.510323 -140.500361 
L 294.464646 -141.302424 
L 293.418969 -142.106689 
L 292.373291 -142.913485 
L 291.327614 -143.724036 
L 290.281937 -144.538999 
L 289.23626 -145.358756 
L 288.190583 -146.181379 
L 287.144906 -147.006886 
L 286.099229 -147.835296 
L 285.053552 -148.666626 
L 284.007875 -149.500895 
L 282.962198 -150.335069 
L 281.916521 -151.171337 
L 280.870844 -152.015583 
L 279.825167 -152.862869 
L 278.77949 -153.713215 
L 277.733813 -154.56664 
L 276.688136 -155.423163 
L 275.642459 -156.282738 
L 274.596782 -157.144323 
L 273.551105 -158.009041 
L 272.505428 -158.876912 
L 271.45975 -159.747957 
L 270.414073 -160.623169 
L 269.368396 -161.507473 
L 268.322719 -162.389735 
L 267.277042 -163.27517 
L 266.231365 -164.1638 
L 265.185688 -165.055749 
L 264.140011 -165.951041 
L 263.094334 -166.849697 
L 262.048657 -167.751737 
L 261.00298 -168.657185 
L 259.957303 -169.566061 
L 258.911626 -170.478389 
L 257.865949 -171.39419 
L 256.820272 -172.313487 
L 255.774595 -173.236303 
L 254.728918 -174.162662 
L 253.683241 -175.092892 
L 252.637564 -176.028174 
L 251.591887 -176.967114 
L 250.546209 -177.911133 
L 249.500532 -178.859196 
L 248.454855 -179.811006 
L 247.409178 -180.766587 
L 246.363501 -181.725963 
L 245.317824 -182.687984 
L 244.272147 -183.651958 
L 243.22647 -184.619682 
L 242.180793 -185.591152 
L 241.135116 -186.566068 
L 240.089439 -187.546224 
L 239.043762 -188.53532 
L 237.998085 -189.529218 
L 236.952408 -190.527145 
L 235.906731 -191.529126 
L 234.861054 -192.535189 
L 233.815377 -193.543601 
L 232.7697 -194.54781 
L 231.724023 -195.556106 
L 230.678346 -196.56853 
L 229.632668 -197.58511 
L 228.586991 -198.608478 
L 227.541314 -199.638933 
L 226.495637 -200.673654 
L 225.44996 -201.71267 
L 224.404283 -202.756011 
L 223.358606 -203.803706 
L 222.312929 -204.855787 
L 221.267252 -205.909823 
L 220.221575 -206.965612 
L 219.175898 -208.028615 
L 218.130221 -209.098345 
L 217.084544 -210.1719 
L 216.038867 -211.246473 
L 214.99319 -212.325691 
L 213.947513 -213.410528 
L 212.901836 -214.510605 
L 211.856159 -215.614419 
L 210.810482 -216.716929 
L 209.764805 -217.819249 
L 208.719127 -218.925332 
L 207.67345 -220.036206 
L 206.627773 -221.15821 
L 205.582096 -222.286441 
L 204.536419 -223.419663 
L 203.490742 -224.560083 
L 202.445065 -225.707107 
L 201.399388 -226.859784 
L 200.353711 -228.014678 
L 199.308034 -229.177552 
L 198.262357 -230.341754 
L 197.21668 -231.50931 
L 196.171003 -232.682118 
L 195.125326 -233.860217 
L 194.079649 -235.043646 
L 193.033972 -236.239448 
L 191.988295 -237.445864 
L 190.942618 -238.657799 
L 189.896941 -239.875293 
L 188.851264 -241.098382 
L 187.805586 -242.323537 
L 186.759909 -243.551906 
L 185.714232 -244.785973 
L 184.668555 -246.02578 
L 183.622878 -247.271371 
L 182.577201 -248.526585 
L 181.531524 -249.78984 
L 180.485847 -251.058945 
L 179.44017 -252.334019 
L 178.394493 -253.610176 
L 177.348816 -254.887603 
L 176.303139 -256.170934 
L 175.257462 -257.459677 
L 174.211785 -258.749832 
L 173.166108 -260.052879 
L 172.120431 -261.364781 
L 171.074754 -262.681127 
L 170.029077 -264.004233 
L 168.9834 -265.337366 
L 167.937723 -266.676539 
L 166.892045 -268.020738 
L 165.846368 -269.371859 
L 164.800691 -270.735504 
L 163.755014 -272.101906 
L 162.709337 -273.475019 
L 161.66366 -274.854697 
L 160.617983 -276.241067 
L 159.572306 -277.637226 
L 158.526629 -279.040782 
L 157.480952 -280.451273 
L 156.435275 -281.871133 
L 155.389598 -283.304541 
L 154.343921 -284.745032 
L 153.298244 -286.177267 
L 152.252567 -287.615318 
L 151.20689 -289.062794 
L 150.161213 -290.523311 
L 149.115536 -292.003538 
L 148.069859 -293.479055 
L 147.024182 -295.000188 
L 145.978504 -296.490215 
L 144.932827 -297.988819 
L 143.88715 -299.494123 
L 142.841473 -301.042377 
L 141.795796 -302.563775 
L 140.750119 -304.089917 
L 139.704442 -305.641108 
L 138.658765 -307.188515 
L 137.613088 -308.739897 
L 136.567411 -310.299407 
L 135.521734 -311.86711 
L 134.476057 -313.47167 
L 133.43038 -315.076162 
L 132.384703 -316.670165 
L 131.339026 -318.291622 
L 130.293349 -319.922525 
L 129.247672 -321.562717 
L 128.201995 -323.207779 
L 127.156318 -324.850156 
L 126.11064 -326.51859 
L 125.064963 -328.171257 
L 124.019286 -329.82828 
L 122.973609 -331.535982 
L 121.927932 -333.273587 
L 120.882255 -335.022441 
L 119.836578 -336.725722 
L 118.790901 -338.48265 
L 117.745224 -340.250285 
L 116.699547 -342.049471 
L 115.65387 -343.866795 
L 114.608193 -345.695814 
L 113.562516 -347.522222 
L 112.516839 -349.344696 
L 111.471162 -351.178724 
L 110.425485 -353.035928 
L 109.379808 -354.932247 
L 108.334131 -356.842181 
L 107.288454 -358.765911 
L 106.242777 -360.703622 
L 105.197099 -362.655365 
L 104.151422 -364.621346 
L 103.105745 -366.601873 
L 102.060068 -368.597145 
L 101.014391 -370.607365 
L 99.968714 -372.632739 
L 98.923037 -374.673478 
L 97.87736 -376.729798 
L 96.831683 -378.800971 
L 95.786006 -380.875869 
L 94.740329 -382.966694 
L 93.694652 -385.073672 
L 92.648975 -387.197033 
L 91.603298 -389.337012 
L 90.557621 -391.493849 
L 89.511944 -393.667789 
L 88.466267 -395.859083 
L 87.42059 -398.067986 
L 86.374913 -400.294759 
L 85.329236 -402.539669 
z
" style="stroke: #f4b400; stroke-opacity: 0.25"/>
    </defs>
    <g clip-path="url(#pe27d0bb477)">
     <use xlink:href="#mfe67ab4a92" x="0" y="432" style="fill: #f4b400; fill-opacity: 0.25; stroke: #f4b400; stroke-opacity: 0.25"/>
    </g>
   </g>
   <g id="matplotlib.axis_1">
    <g id="xtick_1">
     <g id="line2d_1">
      <defs>
       <path id="mbeb02b6032" d="M 0 0 
L 0 3.5 
" style="stroke: #000000; stroke-width: 0.8"/>
      </defs>
      <g>
       <use xlink:href="#mbeb02b6032" x="114.64087" y="375.967273" style="stroke: #000000; stroke-width: 0.8"/>
      </g>
     </g>
     <g id="text_1">
      <!-- 0.1 -->
      <g transform="translate(103.508683 393.605085) scale(0.14 -0.14)">
       <defs>
        <path id="DejaVuSans-30" d="M 2034 4250 
Q 1547 4250 1301 3770 
Q 1056 3291 1056 2328 
Q 1056 1369 1301 889 
Q 1547 409 2034 409 
Q 2525 409 2770 889 
Q 3016 1369 3016 2328 
Q 3016 3291 2770 3770 
Q 2525 4250 2034 4250 
z
M 2034 4750 
Q 2819 4750 3233 4129 
Q 3647 3509 3647 2328 
Q 3647 1150 3233 529 
Q 2819 -91 2034 -91 
Q 1250 -91 836 529 
Q 422 1150 422 2328 
Q 422 3509 836 4129 
Q 1250 4750 2034 4750 
z
" transform="scale(0.015625)"/>
        <path id="DejaVuSans-2e" d="M 684 794 
L 1344 794 
L 1344 0 
L 684 0 
L 684 794 
z
" transform="scale(0.015625)"/>
        <path id="DejaVuSans-31" d="M 794 531 
L 1825 531 
L 1825 4091 
L 703 3866 
L 703 4441 
L 1819 4666 
L 2450 4666 
L 2450 531 
L 3481 531 
L 3481 0 
L 794 0 
L 794 531 
z
" transform="scale(0.015625)"/>
       </defs>
       <use xlink:href="#DejaVuSans-30"/>
       <use xlink:href="#DejaVuSans-2e" transform="translate(63.623047 0)"/>
       <use xlink:href="#DejaVuSans-31" transform="translate(95.410156 0)"/>
      </g>
     </g>
    </g>
    <g id="xtick_2">
     <g id="line2d_2">
      <g>
       <use xlink:href="#mbeb02b6032" x="163.493595" y="375.967273" style="stroke: #000000; stroke-width: 0.8"/>
      </g>
     </g>
     <g id="text_2">
      <!-- 0.1 -->
      <g transform="translate(152.361408 393.605085) scale(0.14 -0.14)">
       <use xlink:href="#DejaVuSans-30"/>
       <use xlink:href="#DejaVuSans-2e" transform="translate(63.623047 0)"/>
       <use xlink:href="#DejaVuSans-31" transform="translate(95.410156 0)"/>
      </g>
     </g>
    </g>
    <g id="xtick_3">
     <g id="line2d_3">
      <g>
       <use xlink:href="#mbeb02b6032" x="212.34632" y="375.967273" style="stroke: #000000; stroke-width: 0.8"/>
      </g>
     </g>
     <g id="text_3">
      <!-- 0.2 -->
      <g transform="translate(201.214132 393.605085) scale(0.14 -0.14)">
       <defs>
        <path id="DejaVuSans-32" d="M 1228 531 
L 3431 531 
L 3431 0 
L 469 0 
L 469 531 
Q 828 903 1448 1529 
Q 2069 2156 2228 2338 
Q 2531 2678 2651 2914 
Q 2772 3150 2772 3378 
Q 2772 3750 2511 3984 
Q 2250 4219 1831 4219 
Q 1534 4219 1204 4116 
Q 875 4013 500 3803 
L 500 4441 
Q 881 4594 1212 4672 
Q 1544 4750 1819 4750 
Q 2544 4750 2975 4387 
Q 3406 4025 3406 3419 
Q 3406 3131 3298 2873 
Q 3191 2616 2906 2266 
Q 2828 2175 2409 1742 
Q 1991 1309 1228 531 
z
" transform="scale(0.015625)"/>
       </defs>
       <use xlink:href="#DejaVuSans-30"/>
       <use xlink:href="#DejaVuSans-2e" transform="translate(63.623047 0)"/>
       <use xlink:href="#DejaVuSans-32" transform="translate(95.410156 0)"/>
      </g>
     </g>
    </g>
    <g id="xtick_4">
     <g id="line2d_4">
      <g>
       <use xlink:href="#mbeb02b6032" x="261.199044" y="375.967273" style="stroke: #000000; stroke-width: 0.8"/>
      </g>
     </g>
     <g id="text_4">
      <!-- 0.2 -->
      <g transform="translate(250.066857 393.605085) scale(0.14 -0.14)">
       <use xlink:href="#DejaVuSans-30"/>
       <use xlink:href="#DejaVuSans-2e" transform="translate(63.623047 0)"/>
       <use xlink:href="#DejaVuSans-32" transform="translate(95.410156 0)"/>
      </g>
     </g>
    </g>
    <g id="xtick_5">
     <g id="line2d_5">
      <g>
       <use xlink:href="#mbeb02b6032" x="310.051769" y="375.967273" style="stroke: #000000; stroke-width: 0.8"/>
      </g>
     </g>
     <g id="text_5">
      <!-- 0.2 -->
      <g transform="translate(298.919582 393.605085) scale(0.14 -0.14)">
       <use xlink:href="#DejaVuSans-30"/>
       <use xlink:href="#DejaVuSans-2e" transform="translate(63.623047 0)"/>
       <use xlink:href="#DejaVuSans-32" transform="translate(95.410156 0)"/>
      </g>
     </g>
    </g>
    <g id="xtick_6">
     <g id="line2d_6">
      <g>
       <use xlink:href="#mbeb02b6032" x="358.904494" y="375.967273" style="stroke: #000000; stroke-width: 0.8"/>
      </g>
     </g>
     <g id="text_6">
      <!-- 0.3 -->
      <g transform="translate(347.772306 393.605085) scale(0.14 -0.14)">
       <defs>
        <path id="DejaVuSans-33" d="M 2597 2516 
Q 3050 2419 3304 2112 
Q 3559 1806 3559 1356 
Q 3559 666 3084 287 
Q 2609 -91 1734 -91 
Q 1441 -91 1130 -33 
Q 819 25 488 141 
L 488 750 
Q 750 597 1062 519 
Q 1375 441 1716 441 
Q 2309 441 2620 675 
Q 2931 909 2931 1356 
Q 2931 1769 2642 2001 
Q 2353 2234 1838 2234 
L 1294 2234 
L 1294 2753 
L 1863 2753 
Q 2328 2753 2575 2939 
Q 2822 3125 2822 3475 
Q 2822 3834 2567 4026 
Q 2313 4219 1838 4219 
Q 1578 4219 1281 4162 
Q 984 4106 628 3988 
L 628 4550 
Q 988 4650 1302 4700 
Q 1616 4750 1894 4750 
Q 2613 4750 3031 4423 
Q 3450 4097 3450 3541 
Q 3450 3153 3228 2886 
Q 3006 2619 2597 2516 
z
" transform="scale(0.015625)"/>
       </defs>
       <use xlink:href="#DejaVuSans-30"/>
       <use xlink:href="#DejaVuSans-2e" transform="translate(63.623047 0)"/>
       <use xlink:href="#DejaVuSans-33" transform="translate(95.410156 0)"/>
      </g>
     </g>
    </g>
    <g id="xtick_7">
     <g id="line2d_7">
      <g>
       <use xlink:href="#mbeb02b6032" x="407.757218" y="375.967273" style="stroke: #000000; stroke-width: 0.8"/>
      </g>
     </g>
     <g id="text_7">
      <!-- 0.4 -->
      <g transform="translate(396.625031 393.605085) scale(0.14 -0.14)">
       <defs>
        <path id="DejaVuSans-34" d="M 2419 4116 
L 825 1625 
L 2419 1625 
L 2419 4116 
z
M 2253 4666 
L 3047 4666 
L 3047 1625 
L 3713 1625 
L 3713 1100 
L 3047 1100 
L 3047 0 
L 2419 0 
L 2419 1100 
L 313 1100 
L 313 1709 
L 2253 4666 
z
" transform="scale(0.015625)"/>
       </defs>
       <use xlink:href="#DejaVuSans-30"/>
       <use xlink:href="#DejaVuSans-2e" transform="translate(63.623047 0)"/>
       <use xlink:href="#DejaVuSans-34" transform="translate(95.410156 0)"/>
      </g>
     </g>
    </g>
    <g id="text_8">
     <!-- h (mm) -->
     <g transform="translate(204.857955 415.713523) scale(0.2 -0.2)">
      <defs>
       <path id="DejaVuSans-68" d="M 3513 2113 
L 3513 0 
L 2938 0 
L 2938 2094 
Q 2938 2591 2744 2837 
Q 2550 3084 2163 3084 
Q 1697 3084 1428 2787 
Q 1159 2491 1159 1978 
L 1159 0 
L 581 0 
L 581 4863 
L 1159 4863 
L 1159 2956 
Q 1366 3272 1645 3428 
Q 1925 3584 2291 3584 
Q 2894 3584 3203 3211 
Q 3513 2838 3513 2113 
z
" transform="scale(0.015625)"/>
       <path id="DejaVuSans-20" transform="scale(0.015625)"/>
       <path id="DejaVuSans-28" d="M 1984 4856 
Q 1566 4138 1362 3434 
Q 1159 2731 1159 2009 
Q 1159 1288 1364 580 
Q 1569 -128 1984 -844 
L 1484 -844 
Q 1016 -109 783 600 
Q 550 1309 550 2009 
Q 550 2706 781 3412 
Q 1013 4119 1484 4856 
L 1984 4856 
z
" transform="scale(0.015625)"/>
       <path id="DejaVuSans-6d" d="M 3328 2828 
Q 3544 3216 3844 3400 
Q 4144 3584 4550 3584 
Q 5097 3584 5394 3201 
Q 5691 2819 5691 2113 
L 5691 0 
L 5113 0 
L 5113 2094 
Q 5113 2597 4934 2840 
Q 4756 3084 4391 3084 
Q 3944 3084 3684 2787 
Q 3425 2491 3425 1978 
L 3425 0 
L 2847 0 
L 2847 2094 
Q 2847 2600 2669 2842 
Q 2491 3084 2119 3084 
Q 1678 3084 1418 2786 
Q 1159 2488 1159 1978 
L 1159 0 
L 581 0 
L 581 3500 
L 1159 3500 
L 1159 2956 
Q 1356 3278 1631 3431 
Q 1906 3584 2284 3584 
Q 2666 3584 2933 3390 
Q 3200 3197 3328 2828 
z
" transform="scale(0.015625)"/>
       <path id="DejaVuSans-29" d="M 513 4856 
L 1013 4856 
Q 1481 4119 1714 3412 
Q 1947 2706 1947 2009 
Q 1947 1309 1714 600 
Q 1481 -109 1013 -844 
L 513 -844 
Q 928 -128 1133 580 
Q 1338 1288 1338 2009 
Q 1338 2731 1133 3434 
Q 928 4138 513 4856 
z
" transform="scale(0.015625)"/>
      </defs>
      <use xlink:href="#DejaVuSans-68"/>
      <use xlink:href="#DejaVuSans-20" transform="translate(63.378906 0)"/>
      <use xlink:href="#DejaVuSans-28" transform="translate(95.166016 0)"/>
      <use xlink:href="#DejaVuSans-6d" transform="translate(134.179688 0)"/>
      <use xlink:href="#DejaVuSans-6d" transform="translate(231.591797 0)"/>
      <use xlink:href="#DejaVuSans-29" transform="translate(329.003906 0)"/>
     </g>
    </g>
   </g>
   <g id="matplotlib.axis_2">
    <g id="ytick_1">
     <g id="line2d_8">
      <defs>
       <path id="mb8f0529d8d" d="M 0 0 
L -3.5 0 
" style="stroke: #000000; stroke-width: 0.8"/>
      </defs>
      <g>
       <use xlink:href="#mb8f0529d8d" x="69.696364" y="332.241716" style="stroke: #000000; stroke-width: 0.8"/>
      </g>
     </g>
     <g id="text_9">
      <!-- 80 -->
      <g transform="translate(44.881364 337.560622) scale(0.14 -0.14)">
       <defs>
        <path id="DejaVuSans-38" d="M 2034 2216 
Q 1584 2216 1326 1975 
Q 1069 1734 1069 1313 
Q 1069 891 1326 650 
Q 1584 409 2034 409 
Q 2484 409 2743 651 
Q 3003 894 3003 1313 
Q 3003 1734 2745 1975 
Q 2488 2216 2034 2216 
z
M 1403 2484 
Q 997 2584 770 2862 
Q 544 3141 544 3541 
Q 544 4100 942 4425 
Q 1341 4750 2034 4750 
Q 2731 4750 3128 4425 
Q 3525 4100 3525 3541 
Q 3525 3141 3298 2862 
Q 3072 2584 2669 2484 
Q 3125 2378 3379 2068 
Q 3634 1759 3634 1313 
Q 3634 634 3220 271 
Q 2806 -91 2034 -91 
Q 1263 -91 848 271 
Q 434 634 434 1313 
Q 434 1759 690 2068 
Q 947 2378 1403 2484 
z
M 1172 3481 
Q 1172 3119 1398 2916 
Q 1625 2713 2034 2713 
Q 2441 2713 2670 2916 
Q 2900 3119 2900 3481 
Q 2900 3844 2670 4047 
Q 2441 4250 2034 4250 
Q 1625 4250 1398 4047 
Q 1172 3844 1172 3481 
z
" transform="scale(0.015625)"/>
       </defs>
       <use xlink:href="#DejaVuSans-38"/>
       <use xlink:href="#DejaVuSans-30" transform="translate(63.623047 0)"/>
      </g>
     </g>
    </g>
    <g id="ytick_2">
     <g id="line2d_9">
      <g>
       <use xlink:href="#mb8f0529d8d" x="69.696364" y="272.449858" style="stroke: #000000; stroke-width: 0.8"/>
      </g>
     </g>
     <g id="text_10">
      <!-- 90 -->
      <g transform="translate(44.881364 277.768764) scale(0.14 -0.14)">
       <defs>
        <path id="DejaVuSans-39" d="M 703 97 
L 703 672 
Q 941 559 1184 500 
Q 1428 441 1663 441 
Q 2288 441 2617 861 
Q 2947 1281 2994 2138 
Q 2813 1869 2534 1725 
Q 2256 1581 1919 1581 
Q 1219 1581 811 2004 
Q 403 2428 403 3163 
Q 403 3881 828 4315 
Q 1253 4750 1959 4750 
Q 2769 4750 3195 4129 
Q 3622 3509 3622 2328 
Q 3622 1225 3098 567 
Q 2575 -91 1691 -91 
Q 1453 -91 1209 -44 
Q 966 3 703 97 
z
M 1959 2075 
Q 2384 2075 2632 2365 
Q 2881 2656 2881 3163 
Q 2881 3666 2632 3958 
Q 2384 4250 1959 4250 
Q 1534 4250 1286 3958 
Q 1038 3666 1038 3163 
Q 1038 2656 1286 2365 
Q 1534 2075 1959 2075 
z
" transform="scale(0.015625)"/>
       </defs>
       <use xlink:href="#DejaVuSans-39"/>
       <use xlink:href="#DejaVuSans-30" transform="translate(63.623047 0)"/>
      </g>
     </g>
    </g>
    <g id="ytick_3">
     <g id="line2d_10">
      <g>
       <use xlink:href="#mb8f0529d8d" x="69.696364" y="212.658" style="stroke: #000000; stroke-width: 0.8"/>
      </g>
     </g>
     <g id="text_11">
      <!-- 100 -->
      <g transform="translate(35.973864 217.976906) scale(0.14 -0.14)">
       <use xlink:href="#DejaVuSans-31"/>
       <use xlink:href="#DejaVuSans-30" transform="translate(63.623047 0)"/>
       <use xlink:href="#DejaVuSans-30" transform="translate(127.246094 0)"/>
      </g>
     </g>
    </g>
    <g id="ytick_4">
     <g id="line2d_11">
      <g>
       <use xlink:href="#mb8f0529d8d" x="69.696364" y="152.866142" style="stroke: #000000; stroke-width: 0.8"/>
      </g>
     </g>
     <g id="text_12">
      <!-- 110 -->
      <g transform="translate(35.973864 158.185048) scale(0.14 -0.14)">
       <use xlink:href="#DejaVuSans-31"/>
       <use xlink:href="#DejaVuSans-31" transform="translate(63.623047 0)"/>
       <use xlink:href="#DejaVuSans-30" transform="translate(127.246094 0)"/>
      </g>
     </g>
    </g>
    <g id="ytick_5">
     <g id="line2d_12">
      <g>
       <use xlink:href="#mb8f0529d8d" x="69.696364" y="93.074284" style="stroke: #000000; stroke-width: 0.8"/>
      </g>
     </g>
     <g id="text_13">
      <!-- 120 -->
      <g transform="translate(35.973864 98.39319) scale(0.14 -0.14)">
       <use xlink:href="#DejaVuSans-31"/>
       <use xlink:href="#DejaVuSans-32" transform="translate(63.623047 0)"/>
       <use xlink:href="#DejaVuSans-30" transform="translate(127.246094 0)"/>
      </g>
     </g>
    </g>
    <g id="ytick_6">
     <g id="line2d_13">
      <g>
       <use xlink:href="#mb8f0529d8d" x="69.696364" y="33.282426" style="stroke: #000000; stroke-width: 0.8"/>
      </g>
     </g>
     <g id="text_14">
      <!-- 130 -->
      <g transform="translate(35.973864 38.601332) scale(0.14 -0.14)">
       <use xlink:href="#DejaVuSans-31"/>
       <use xlink:href="#DejaVuSans-33" transform="translate(63.623047 0)"/>
       <use xlink:href="#DejaVuSans-30" transform="translate(127.246094 0)"/>
      </g>
     </g>
    </g>
    <g id="text_15">
     <!-- T/Ω -->
     <g transform="translate(27.814489 211.582386) rotate(-90) scale(0.2 -0.2)">
      <defs>
       <path id="DejaVuSans-54" d="M -19 4666 
L 3928 4666 
L 3928 4134 
L 2272 4134 
L 2272 0 
L 1638 0 
L 1638 4134 
L -19 4134 
L -19 4666 
z
" transform="scale(0.015625)"/>
       <path id="DejaVuSans-2f" d="M 1625 4666 
L 2156 4666 
L 531 -594 
L 0 -594 
L 1625 4666 
z
" transform="scale(0.015625)"/>
       <path id="DejaVuSans-3a9" d="M 4647 556 
L 4647 0 
L 2772 0 
L 2772 556 
Q 3325 859 3634 1378 
Q 3944 1897 3944 2528 
Q 3944 3278 3531 3731 
Q 3119 4184 2444 4184 
Q 1769 4184 1355 3729 
Q 941 3275 941 2528 
Q 941 1897 1250 1378 
Q 1563 859 2119 556 
L 2119 0 
L 244 0 
L 244 556 
L 1241 556 
Q 747 991 519 1456 
Q 294 1922 294 2497 
Q 294 3491 894 4106 
Q 1491 4722 2444 4722 
Q 3391 4722 3994 4106 
Q 4594 3494 4594 2528 
Q 4594 1922 4372 1459 
Q 4150 997 3647 556 
L 4647 556 
z
" transform="scale(0.015625)"/>
      </defs>
      <use xlink:href="#DejaVuSans-54"/>
      <use xlink:href="#DejaVuSans-2f" transform="translate(61.083984 0)"/>
      <use xlink:href="#DejaVuSans-3a9" transform="translate(94.775391 0)"/>
     </g>
    </g>
   </g>
   <g id="line2d_14">
    <path d="M 85.329236 33.549991 
L 91.603298 45.905654 
L 97.87736 57.754549 
L 104.151422 69.168844 
L 110.425485 80.183334 
L 117.745224 92.57621 
L 125.064963 104.546824 
L 132.384703 116.034432 
L 139.704442 127.067765 
L 145.978504 136.20646 
L 153.298244 146.482275 
L 160.617983 156.398102 
L 168.9834 167.298138 
L 177.348816 177.774244 
L 185.714232 187.851714 
L 194.079649 197.550613 
L 202.445065 206.890407 
L 210.810482 215.899167 
L 219.175898 224.595132 
L 227.541314 232.987523 
L 236.952408 242.101168 
L 246.363501 250.883507 
L 255.774595 259.353387 
L 265.185688 267.508354 
L 275.642459 276.24347 
L 285.053552 283.827548 
L 294.464646 291.17483 
L 305.967093 299.841633 
L 316.423864 307.434769 
L 327.926311 315.511567 
L 338.383082 322.602438 
L 351.976883 331.480201 
L 364.525008 339.368712 
L 377.073133 346.965349 
L 390.666934 354.88623 
L 397.986674 359.031085 
L 397.986674 359.031085 
" clip-path="url(#pe27d0bb477)" style="fill: none; stroke: #4285f4; stroke-width: 1.6; stroke-linecap: square"/>
   </g>
   <g id="line2d_15">
    <defs>
     <path id="m3218ba6b0f" d="M 0 2 
C 0.530406 2 1.03916 1.789267 1.414214 1.414214 
C 1.789267 1.03916 2 0.530406 2 0 
C 2 -0.530406 1.789267 -1.03916 1.414214 -1.414214 
C 1.03916 -1.789267 0.530406 -2 0 -2 
C -0.530406 -2 -1.03916 -1.789267 -1.414214 -1.414214 
C -1.789267 -1.03916 -2 -0.530406 -2 0 
C -2 0.530406 -1.789267 1.03916 -1.414214 1.414214 
C -1.03916 1.789267 -0.530406 2 0 2 
z
" style="stroke: #db4437"/>
    </defs>
    <g clip-path="url(#pe27d0bb477)">
     <use xlink:href="#m3218ba6b0f" x="85.329236" y="34.159373" style="fill: #db4437; stroke: #db4437"/>
     <use xlink:href="#m3218ba6b0f" x="104.870325" y="69.675737" style="fill: #db4437; stroke: #db4437"/>
     <use xlink:href="#m3218ba6b0f" x="124.411415" y="103.677373" style="fill: #db4437; stroke: #db4437"/>
     <use xlink:href="#m3218ba6b0f" x="143.952505" y="132.297743" style="fill: #db4437; stroke: #db4437"/>
     <use xlink:href="#m3218ba6b0f" x="163.493595" y="160.599222" style="fill: #db4437; stroke: #db4437"/>
     <use xlink:href="#m3218ba6b0f" x="183.034685" y="184.276798" style="fill: #db4437; stroke: #db4437"/>
     <use xlink:href="#m3218ba6b0f" x="202.575775" y="208.15368" style="fill: #db4437; stroke: #db4437"/>
     <use xlink:href="#m3218ba6b0f" x="222.116865" y="227.725548" style="fill: #db4437; stroke: #db4437"/>
     <use xlink:href="#m3218ba6b0f" x="241.657955" y="247.377139" style="fill: #db4437; stroke: #db4437"/>
     <use xlink:href="#m3218ba6b0f" x="261.199044" y="263.919553" style="fill: #db4437; stroke: #db4437"/>
     <use xlink:href="#m3218ba6b0f" x="280.740134" y="280.422106" style="fill: #db4437; stroke: #db4437"/>
     <use xlink:href="#m3218ba6b0f" x="300.281224" y="294.572846" style="fill: #db4437; stroke: #db4437"/>
     <use xlink:href="#m3218ba6b0f" x="319.822314" y="309.560671" style="fill: #db4437; stroke: #db4437"/>
     <use xlink:href="#m3218ba6b0f" x="339.363404" y="322.435851" style="fill: #db4437; stroke: #db4437"/>
     <use xlink:href="#m3218ba6b0f" x="358.904494" y="336.22784" style="fill: #db4437; stroke: #db4437"/>
     <use xlink:href="#m3218ba6b0f" x="378.445584" y="348.026767" style="fill: #db4437; stroke: #db4437"/>
     <use xlink:href="#m3218ba6b0f" x="397.986674" y="359.466942" style="fill: #db4437; stroke: #db4437"/>
    </g>
   </g>
   <g id="patch_3">
    <path d="M 69.696364 375.967273 
L 69.696364 12.96 
" style="fill: none; stroke: #000000; stroke-width: 1.5; stroke-linejoin: miter; stroke-linecap: square"/>
   </g>
   <g id="patch_4">
    <path d="M 413.619545 375.967273 
L 413.619545 12.96 
" style="fill: none; stroke: #000000; stroke-width: 1.5; stroke-linejoin: miter; stroke-linecap: square"/>
   </g>
   <g id="patch_5">
    <path d="M 69.696364 375.967273 
L 413.619545 375.967273 
" style="fill: none; stroke: #000000; stroke-width: 1.5; stroke-linejoin: miter; stroke-linecap: square"/>
   </g>
   <g id="patch_6">
    <path d="M 69.696364 12.96 
L 413.619545 12.96 
" style="fill: none; stroke: #000000; stroke-width: 1.5; stroke-linejoin: miter; stroke-linecap: square"/>
   </g>
   <g id="legend_1">
    <g id="patch_7">
     <path d="M 290.583608 36.197812 
L 318.583608 36.197812 
L 318.583608 26.397813 
L 290.583608 26.397813 
z
" style="fill: #4285f4; fill-opacity: 0.25; stroke: #4285f4; stroke-opacity: 0.25; stroke-linejoin: miter"/>
    </g>
    <g id="text_16">
     <!-- 95% band -->
     <g transform="translate(329.783608 36.197812) scale(0.14 -0.14)">
      <defs>
       <path id="DejaVuSans-35" d="M 691 4666 
L 3169 4666 
L 3169 4134 
L 1269 4134 
L 1269 2991 
Q 1406 3038 1543 3061 
Q 1681 3084 1819 3084 
Q 2600 3084 3056 2656 
Q 3513 2228 3513 1497 
Q 3513 744 3044 326 
Q 2575 -91 1722 -91 
Q 1428 -91 1123 -41 
Q 819 9 494 109 
L 494 744 
Q 775 591 1075 516 
Q 1375 441 1709 441 
Q 2250 441 2565 725 
Q 2881 1009 2881 1497 
Q 2881 1984 2565 2268 
Q 2250 2553 1709 2553 
Q 1456 2553 1204 2497 
Q 953 2441 691 2322 
L 691 4666 
z
" transform="scale(0.015625)"/>
       <path id="DejaVuSans-25" d="M 4653 2053 
Q 4381 2053 4226 1822 
Q 4072 1591 4072 1178 
Q 4072 772 4226 539 
Q 4381 306 4653 306 
Q 4919 306 5073 539 
Q 5228 772 5228 1178 
Q 5228 1588 5073 1820 
Q 4919 2053 4653 2053 
z
M 4653 2450 
Q 5147 2450 5437 2106 
Q 5728 1763 5728 1178 
Q 5728 594 5436 251 
Q 5144 -91 4653 -91 
Q 4153 -91 3862 251 
Q 3572 594 3572 1178 
Q 3572 1766 3864 2108 
Q 4156 2450 4653 2450 
z
M 1428 4353 
Q 1159 4353 1004 4120 
Q 850 3888 850 3481 
Q 850 3069 1003 2837 
Q 1156 2606 1428 2606 
Q 1700 2606 1854 2837 
Q 2009 3069 2009 3481 
Q 2009 3884 1853 4118 
Q 1697 4353 1428 4353 
z
M 4250 4750 
L 4750 4750 
L 1831 -91 
L 1331 -91 
L 4250 4750 
z
M 1428 4750 
Q 1922 4750 2215 4408 
Q 2509 4066 2509 3481 
Q 2509 2891 2217 2550 
Q 1925 2209 1428 2209 
Q 931 2209 642 2551 
Q 353 2894 353 3481 
Q 353 4063 643 4406 
Q 934 4750 1428 4750 
z
" transform="scale(0.015625)"/>
       <path id="DejaVuSans-62" d="M 3116 1747 
Q 3116 2381 2855 2742 
Q 2594 3103 2138 3103 
Q 1681 3103 1420 2742 
Q 1159 2381 1159 1747 
Q 1159 1113 1420 752 
Q 1681 391 2138 391 
Q 2594 391 2855 752 
Q 3116 1113 3116 1747 
z
M 1159 2969 
Q 1341 3281 1617 3432 
Q 1894 3584 2278 3584 
Q 2916 3584 3314 3078 
Q 3713 2572 3713 1747 
Q 3713 922 3314 415 
Q 2916 -91 2278 -91 
Q 1894 -91 1617 61 
Q 1341 213 1159 525 
L 1159 0 
L 581 0 
L 581 4863 
L 1159 4863 
L 1159 2969 
z
" transform="scale(0.015625)"/>
       <path id="DejaVuSans-61" d="M 2194 1759 
Q 1497 1759 1228 1600 
Q 959 1441 959 1056 
Q 959 750 1161 570 
Q 1363 391 1709 391 
Q 2188 391 2477 730 
Q 2766 1069 2766 1631 
L 2766 1759 
L 2194 1759 
z
M 3341 1997 
L 3341 0 
L 2766 0 
L 2766 531 
Q 2569 213 2275 61 
Q 1981 -91 1556 -91 
Q 1019 -91 701 211 
Q 384 513 384 1019 
Q 384 1609 779 1909 
Q 1175 2209 1959 2209 
L 2766 2209 
L 2766 2266 
Q 2766 2663 2505 2880 
Q 2244 3097 1772 3097 
Q 1472 3097 1187 3025 
Q 903 2953 641 2809 
L 641 3341 
Q 956 3463 1253 3523 
Q 1550 3584 1831 3584 
Q 2591 3584 2966 3190 
Q 3341 2797 3341 1997 
z
" transform="scale(0.015625)"/>
       <path id="DejaVuSans-6e" d="M 3513 2113 
L 3513 0 
L 2938 0 
L 2938 2094 
Q 2938 2591 2744 2837 
Q 2550 3084 2163 3084 
Q 1697 3084 1428 2787 
Q 1159 2491 1159 1978 
L 1159 0 
L 581 0 
L 581 3500 
L 1159 3500 
L 1159 2956 
Q 1366 3272 1645 3428 
Q 1925 3584 2291 3584 
Q 2894 3584 3203 3211 
Q 3513 2838 3513 2113 
z
" transform="scale(0.015625)"/>
       <path id="DejaVuSans-64" d="M 2906 2969 
L 2906 4863 
L 3481 4863 
L 3481 0 
L 2906 0 
L 2906 525 
Q 2725 213 2448 61 
Q 2172 -91 1784 -91 
Q 1150 -91 751 415 
Q 353 922 353 1747 
Q 353 2572 751 3078 
Q 1150 3584 1784 3584 
Q 2172 3584 2448 3432 
Q 2725 3281 2906 2969 
z
M 947 1747 
Q 947 1113 1208 752 
Q 1469 391 1925 391 
Q 2381 391 2643 752 
Q 2906 1113 2906 1747 
Q 2906 2381 2643 2742 
Q 2381 3103 1925 3103 
Q 1469 3103 1208 2742 
Q 947 2381 947 1747 
z
" transform="scale(0.015625)"/>
      </defs>
      <use xlink:href="#DejaVuSans-39"/>
      <use xlink:href="#DejaVuSans-35" transform="translate(63.623047 0)"/>
      <use xlink:href="#DejaVuSans-25" transform="translate(127.246094 0)"/>
      <use xlink:href="#DejaVuSans-20" transform="translate(222.265625 0)"/>
      <use xlink:href="#DejaVuSans-62" transform="translate(254.052734 0)"/>
      <use xlink:href="#DejaVuSans-61" transform="translate(317.529297 0)"/>
      <use xlink:href="#DejaVuSans-6e" transform="translate(378.808594 0)"/>
      <use xlink:href="#DejaVuSans-64" transform="translate(442.1875 0)"/>
     </g>
    </g>
    <g id="line2d_16">
     <path d="M 290.583608 51.847187 
L 304.583608 51.847187 
L 318.583608 51.847187 
" style="fill: none; stroke: #4285f4; stroke-width: 1.6; stroke-linecap: square"/>
    </g>
    <g id="text_17">
     <!-- median fit -->
     <g transform="translate(329.783608 56.747187) scale(0.14 -0.14)">
      <defs>
       <path id="DejaVuSans-65" d="M 3597 1894 
L 3597 1613 
L 953 1613 
Q 991 1019 1311 708 
Q 1631 397 2203 397 
Q 2534 397 2845 478 
Q 3156 559 3463 722 
L 3463 178 
Q 3153 47 2828 -22 
Q 2503 -91 2169 -91 
Q 1331 -91 842 396 
Q 353 884 353 1716 
Q 353 2575 817 3079 
Q 1281 3584 2069 3584 
Q 2775 3584 3186 3129 
Q 3597 2675 3597 1894 
z
M 3022 2063 
Q 3016 2534 2758 2815 
Q 2500 3097 2075 3097 
Q 1594 3097 1305 2825 
Q 1016 2553 972 2059 
L 3022 2063 
z
" transform="scale(0.015625)"/>
       <path id="DejaVuSans-69" d="M 603 3500 
L 1178 3500 
L 1178 0 
L 603 0 
L 603 3500 
z
M 603 4863 
L 1178 4863 
L 1178 4134 
L 603 4134 
L 603 4863 
z
" transform="scale(0.015625)"/>
       <path id="DejaVuSans-66" d="M 2375 4863 
L 2375 4384 
L 1825 4384 
Q 1516 4384 1395 4259 
Q 1275 4134 1275 3809 
L 1275 3500 
L 2222 3500 
L 2222 3053 
L 1275 3053 
L 1275 0 
L 697 0 
L 697 3053 
L 147 3053 
L 147 3500 
L 697 3500 
L 697 3744 
Q 697 4328 969 4595 
Q 1241 4863 1831 4863 
L 2375 4863 
z
" transform="scale(0.015625)"/>
       <path id="DejaVuSans-74" d="M 1172 4494 
L 1172 3500 
L 2356 3500 
L 2356 3053 
L 1172 3053 
L 1172 1153 
Q 1172 725 1289 603 
Q 1406 481 1766 481 
L 2356 481 
L 2356 0 
L 1766 0 
Q 1100 0 847 248 
Q 594 497 594 1153 
L 594 3053 
L 172 3053 
L 172 3500 
L 594 3500 
L 594 4494 
L 1172 4494 
z
" transform="scale(0.015625)"/>
      </defs>
      <use xlink:href="#DejaVuSans-6d"/>
      <use xlink:href="#DejaVuSans-65" transform="translate(97.412109 0)"/>
      <use xlink:href="#DejaVuSans-64" transform="translate(158.935547 0)"/>
      <use xlink:href="#DejaVuSans-69" transform="translate(222.412109 0)"/>
      <use xlink:href="#DejaVuSans-61" transform="translate(250.195312 0)"/>
      <use xlink:href="#DejaVuSans-6e" transform="translate(311.474609 0)"/>
      <use xlink:href="#DejaVuSans-20" transform="translate(374.853516 0)"/>
      <use xlink:href="#DejaVuSans-66" transform="translate(406.640625 0)"/>
      <use xlink:href="#DejaVuSans-69" transform="translate(441.845703 0)"/>
      <use xlink:href="#DejaVuSans-74" transform="translate(469.628906 0)"/>
     </g>
    </g>
    <g id="line2d_17">
     <defs>
      <path id="m2d6d65f559" d="M 0 2 
C 0.530406 2 1.03916 1.789267 1.414214 1.414214 
C 1.789267 1.03916 2 0.530406 2 0 
C 2 -0.530406 1.789267 -1.03916 1.414214 -1.414214 
C 1.03916 -1.789267 0.530406 -2 0 -2 
C -0.530406 -2 -1.03916 -1.789267 -1.414214 -1.414214 
C -1.789267 -1.03916 -2 -0.530406 -2 0 
C -2 0.530406 -1.789267 1.03916 -1.414214 1.414214 
C -1.03916 1.789267 -0.530406 2 0 2 
z
" style="stroke: #000000"/>
     </defs>
     <g>
      <use xlink:href="#m2d6d65f559" x="304.583608" y="72.396562" style="stroke: #000000"/>
     </g>
    </g>
    <g id="text_18">
     <!-- data -->
     <g transform="translate(329.783608 77.296562) scale(0.14 -0.14)">
      <use xlink:href="#DejaVuSans-64"/>
      <use xlink:href="#DejaVuSans-61" transform="translate(63.476562 0)"/>
      <use xlink:href="#DejaVuSans-74" transform="translate(124.755859 0)"/>
      <use xlink:href="#DejaVuSans-61" transform="translate(163.964844 0)"/>
     </g>
    </g>
   </g>
  </g>
 </g>
 <defs>
  <clipPath id="pe27d0bb477">
   <rect x="69.696364" y="12.96" width="343.923182" height="363.007273"/>
  </clipPath>
 </defs>
</svg>
