<?xml version="1.0" encoding="utf-8" standalone="no"?>
<!DOCTYPE svg PUBLIC "-//W3C//DTD SVG 1.1//EN"
  "http://www.w3.org/Graphics/SVG/1.1/DTD/svg11.dtd">
<svg xmlns:xlink="http://www.w3.org/1999/xlink" width="457.22017pt" height="308.441469pt" viewBox="0 0 457.22017 308.441469" xmlns="http://www.w3.org/2000/svg" version="1.1">
 <metadata>
  <rdf:RDF xmlns:dc="http://purl.org/dc/elements/1.1/" xmlns:cc="http://creativecommons.org/ns#" xmlns:rdf="http://www.w3.org/1999/02/22-rdf-syntax-ns#">
   <cc:Work>
    <dc:type rdf:resource="http://purl.org/dc/dcmitype/StillImage"/>
    <dc:date>2026-06-03T16:18:52.770183</dc:date>
    <dc:format>image/svg+xml</dc:format>
    <dc:creator>
     <cc:Agent>
      <dc:title>Matplotlib v3.10.0, https://matplotlib.org/</dc:title>
     </cc:Agent>
    </dc:creator>
   </cc:Work>
  </rdf:RDF>
 </metadata>
 <defs>
  <style type="text/css">*{stroke-linejoin: round; stroke-linecap: butt}</style>
 </defs>
 <g id="figure_1">
  <g id="patch_1">
   <path d="M 0 308.441469 
L 457.22017 308.441469 
L 457.22017 0 
L 0 0 
z
" style="fill: #ffffff"/>
  </g>
  <g id="axes_1">
   <g id="patch_2">
    <path d="M 52.71875 267.013969 
L 443.31875 267.013969 
L 443.31875 23.077969 
L 52.71875 23.077969 
z
" style="fill: #ffffff"/>
   </g>
   <g id="FillBetweenPolyCollection_1">
    <defs>
     <path id="m8bed10b683" d="M 70.473295 -274.2755 
L 70.473295 -271.139266 
L 71.66089 -269.7288 
L 72.848485 -268.323829 
L 74.03608 -266.930064 
L 75.223676 -265.545764 
L 76.411271 -264.170817 
L 77.598866 -262.805116 
L 78.786461 -261.448554 
L 79.974056 -260.090081 
L 81.161651 -258.742685 
L 82.349246 -257.41062 
L 83.536841 -256.08725 
L 84.724436 -254.772348 
L 85.912031 -253.466219 
L 87.099626 -252.181846 
L 88.287221 -250.887735 
L 89.474816 -249.600923 
L 90.662411 -248.322785 
L 91.850006 -247.05677 
L 93.037601 -245.798631 
L 94.225196 -244.548288 
L 95.412791 -243.305659 
L 96.600386 -242.070668 
L 97.787981 -240.84183 
L 98.975576 -239.618193 
L 100.163171 -238.402201 
L 101.350766 -237.193773 
L 102.538361 -235.992829 
L 103.725956 -234.799309 
L 104.913551 -233.613156 
L 106.101146 -232.436282 
L 107.288741 -231.268785 
L 108.476336 -230.108348 
L 109.663931 -228.954877 
L 110.851526 -227.808309 
L 112.039121 -226.668588 
L 113.226716 -225.53484 
L 114.414311 -224.403966 
L 115.601906 -223.283494 
L 116.789501 -222.171581 
L 117.977096 -221.063589 
L 119.164691 -219.955618 
L 120.352286 -218.854001 
L 121.539881 -217.765663 
L 122.727476 -216.683653 
L 123.915071 -215.600302 
L 125.102666 -214.529921 
L 126.290261 -213.465669 
L 127.477856 -212.407406 
L 128.665451 -211.344316 
L 129.853046 -210.289691 
L 131.040641 -209.246933 
L 132.228236 -208.21022 
L 133.415831 -207.179309 
L 134.603426 -206.153232 
L 135.791021 -205.116549 
L 136.978616 -204.09733 
L 138.166211 -203.078517 
L 139.353806 -202.062528 
L 140.541401 -201.052489 
L 141.728996 -200.048335 
L 142.916591 -199.050006 
L 144.104186 -198.057439 
L 145.291781 -197.070573 
L 146.479376 -196.089349 
L 147.666971 -195.113708 
L 148.854566 -194.143725 
L 150.042161 -193.177055 
L 151.229756 -192.215659 
L 152.417351 -191.25971 
L 153.604946 -190.309154 
L 154.792541 -189.367701 
L 155.980136 -188.431676 
L 157.167731 -187.497939 
L 158.355326 -186.576256 
L 159.542921 -185.653429 
L 160.730516 -184.735658 
L 161.918112 -183.822869 
L 163.105707 -182.915202 
L 164.293302 -182.016572 
L 165.480897 -181.120098 
L 166.668492 -180.229518 
L 167.856087 -179.343569 
L 169.043682 -178.462206 
L 170.231277 -177.58541 
L 171.418872 -176.713358 
L 172.606467 -175.847771 
L 173.794062 -174.9823 
L 174.981657 -174.123197 
L 176.169252 -173.268429 
L 177.356847 -172.417957 
L 178.544442 -171.57174 
L 179.732037 -170.729741 
L 180.919632 -169.891921 
L 182.107227 -169.058241 
L 183.294822 -168.228181 
L 184.482417 -167.399519 
L 185.670012 -166.574952 
L 186.857607 -165.751697 
L 188.045202 -164.930184 
L 189.232797 -164.112641 
L 190.420392 -163.299036 
L 191.607987 -162.489337 
L 192.795582 -161.683512 
L 193.983177 -160.886671 
L 195.170772 -160.093789 
L 196.358367 -159.304701 
L 197.545962 -158.519375 
L 198.733557 -157.738428 
L 199.921152 -156.961341 
L 201.108747 -156.187538 
L 202.296342 -155.414958 
L 203.483937 -154.648406 
L 204.671532 -153.885678 
L 205.859127 -153.126471 
L 207.046722 -152.370757 
L 208.234317 -151.618505 
L 209.421912 -150.869687 
L 210.609507 -150.122039 
L 211.797102 -149.380384 
L 212.984697 -148.637882 
L 214.172292 -147.903452 
L 215.359887 -147.172349 
L 216.547482 -146.439984 
L 217.735077 -145.711837 
L 218.922672 -144.987607 
L 220.110267 -144.261276 
L 221.297862 -143.537469 
L 222.485457 -142.81689 
L 223.673052 -142.100754 
L 224.860647 -141.389079 
L 226.048242 -140.680624 
L 227.235837 -139.973296 
L 228.423432 -139.26386 
L 229.611027 -138.559449 
L 230.798622 -137.8582 
L 231.986217 -137.15779 
L 233.173812 -136.460476 
L 234.361407 -135.766239 
L 235.549002 -135.075094 
L 236.736597 -134.397746 
L 237.924192 -133.715794 
L 239.111787 -133.034709 
L 240.299382 -132.363025 
L 241.486977 -131.692793 
L 242.674572 -131.020804 
L 243.862167 -130.349316 
L 245.049762 -129.678302 
L 246.237357 -129.010212 
L 247.424952 -128.34505 
L 248.612548 -127.686144 
L 249.800143 -127.030082 
L 250.987738 -126.377312 
L 252.175333 -125.730005 
L 253.362928 -125.085541 
L 254.550523 -124.443979 
L 255.738118 -123.805275 
L 256.925713 -123.169364 
L 258.113308 -122.535203 
L 259.300903 -121.901161 
L 260.488498 -121.271948 
L 261.676093 -120.646734 
L 262.863688 -120.024025 
L 264.051283 -119.403804 
L 265.238878 -118.78185 
L 266.426473 -118.161789 
L 267.614068 -117.54428 
L 268.801663 -116.929417 
L 269.989258 -116.318117 
L 271.176853 -115.707223 
L 272.364448 -115.098945 
L 273.552043 -114.493651 
L 274.739638 -113.890775 
L 275.927233 -113.290302 
L 277.114828 -112.692231 
L 278.302423 -112.096564 
L 279.490018 -111.503258 
L 280.677613 -110.912296 
L 281.865208 -110.324158 
L 283.052803 -109.7398 
L 284.240398 -109.15958 
L 285.427993 -108.58175 
L 286.615588 -108.006296 
L 287.803183 -107.433204 
L 288.990778 -106.860293 
L 290.178373 -106.286928 
L 291.365968 -105.715764 
L 292.553563 -105.146789 
L 293.741158 -104.579989 
L 294.928753 -104.015352 
L 296.116348 -103.452866 
L 297.303943 -102.892517 
L 298.491538 -102.334294 
L 299.679133 -101.778184 
L 300.866728 -101.223767 
L 302.054323 -100.670734 
L 303.241918 -100.122058 
L 304.429513 -99.574464 
L 305.617108 -99.028664 
L 306.804703 -98.484942 
L 307.992298 -97.943282 
L 309.179893 -97.403695 
L 310.367488 -96.866862 
L 311.555083 -96.335489 
L 312.742678 -95.806341 
L 313.930273 -95.277708 
L 315.117868 -94.754047 
L 316.305463 -94.230916 
L 317.493058 -93.709809 
L 318.680653 -93.190716 
L 319.868248 -92.670749 
L 321.055843 -92.150031 
L 322.243438 -91.631214 
L 323.431033 -91.114287 
L 324.618628 -90.59924 
L 325.806223 -90.086119 
L 326.993818 -89.57486 
L 328.181413 -89.06677 
L 329.369008 -88.563233 
L 330.556603 -88.061558 
L 331.744198 -87.558685 
L 332.931793 -87.057004 
L 334.119388 -86.557097 
L 335.306984 -86.058945 
L 336.494579 -85.562539 
L 337.682174 -85.067869 
L 338.869769 -84.574925 
L 340.057364 -84.083698 
L 341.244959 -83.594106 
L 342.432554 -83.106287 
L 343.620149 -82.620112 
L 344.807744 -82.135676 
L 345.995339 -81.654552 
L 347.182934 -81.175573 
L 348.370529 -80.698295 
L 349.558124 -80.222709 
L 350.745719 -79.748807 
L 351.933314 -79.274248 
L 353.120909 -78.801163 
L 354.308504 -78.329689 
L 355.496099 -77.859817 
L 356.683694 -77.391538 
L 357.871289 -76.924845 
L 359.058884 -76.459729 
L 360.246479 -75.996182 
L 361.434074 -75.534194 
L 362.621669 -75.073759 
L 363.809264 -74.614868 
L 364.996859 -74.157512 
L 366.184454 -73.701684 
L 367.372049 -73.247376 
L 368.559644 -72.794627 
L 369.747239 -72.343396 
L 370.934834 -71.893661 
L 372.122429 -71.445416 
L 373.310024 -71.000725 
L 374.497619 -70.557924 
L 375.685214 -70.116618 
L 376.872809 -69.675674 
L 378.060404 -69.232681 
L 379.247999 -68.79113 
L 380.435594 -68.351013 
L 381.623189 -67.912323 
L 382.810784 -67.476339 
L 383.998379 -67.042448 
L 385.185974 -66.609963 
L 386.373569 -66.178878 
L 387.561164 -65.749261 
L 388.748759 -65.321036 
L 389.936354 -64.893652 
L 391.123949 -64.465794 
L 392.311544 -64.042832 
L 393.499139 -63.621229 
L 394.686734 -63.200818 
L 395.874329 -62.781999 
L 397.061924 -62.362293 
L 398.249519 -61.946524 
L 399.437114 -61.532103 
L 400.624709 -61.117997 
L 401.812304 -60.700076 
L 402.999899 -60.287503 
L 404.187494 -59.874787 
L 405.375089 -59.462334 
L 406.562684 -59.049558 
L 407.750279 -58.63938 
L 408.937874 -58.224555 
L 410.125469 -57.814863 
L 411.313064 -57.398289 
L 412.500659 -56.985714 
L 413.688254 -56.576487 
L 414.875849 -56.166753 
L 416.063444 -55.763334 
L 417.251039 -55.358017 
L 418.438634 -54.954313 
L 419.626229 -54.549418 
L 420.813824 -54.144581 
L 422.00142 -53.744031 
L 423.189015 -53.345311 
L 424.37661 -52.945944 
L 425.564205 -52.541549 
L 425.564205 -55.000139 
L 425.564205 -55.000139 
L 424.37661 -55.362279 
L 423.189015 -55.725736 
L 422.00142 -56.090516 
L 420.813824 -56.456626 
L 419.626229 -56.824072 
L 418.438634 -57.192861 
L 417.251039 -57.562998 
L 416.063444 -57.934491 
L 414.875849 -58.307347 
L 413.688254 -58.683843 
L 412.500659 -59.0632 
L 411.313064 -59.443892 
L 410.125469 -59.825926 
L 408.937874 -60.20764 
L 407.750279 -60.587489 
L 406.562684 -60.968769 
L 405.375089 -61.351487 
L 404.187494 -61.735649 
L 402.999899 -62.121263 
L 401.812304 -62.508336 
L 400.624709 -62.896875 
L 399.437114 -63.286886 
L 398.249519 -63.678378 
L 397.061924 -64.071358 
L 395.874329 -64.465832 
L 394.686734 -64.862343 
L 393.499139 -65.260997 
L 392.311544 -65.661143 
L 391.123949 -66.06279 
L 389.936354 -66.465945 
L 388.748759 -66.870616 
L 387.561164 -67.27681 
L 386.373569 -67.684535 
L 385.185974 -68.093745 
L 383.998379 -68.504442 
L 382.810784 -68.916695 
L 381.623189 -69.330512 
L 380.435594 -69.7459 
L 379.247999 -70.162869 
L 378.060404 -70.581425 
L 376.872809 -71.001578 
L 375.685214 -71.423334 
L 374.497619 -71.846701 
L 373.310024 -72.271689 
L 372.122429 -72.698306 
L 370.934834 -73.126558 
L 369.747239 -73.556456 
L 368.559644 -73.988007 
L 367.372049 -74.42122 
L 366.184454 -74.857695 
L 364.996859 -75.298325 
L 363.809264 -75.740589 
L 362.621669 -76.184497 
L 361.434074 -76.630057 
L 360.246479 -77.072377 
L 359.058884 -77.511505 
L 357.871289 -77.952421 
L 356.683694 -78.396849 
L 355.496099 -78.852424 
L 354.308504 -79.309664 
L 353.120909 -79.768504 
L 351.933314 -80.22899 
L 350.745719 -80.691172 
L 349.558124 -81.155058 
L 348.370529 -81.620657 
L 347.182934 -82.087167 
L 345.995339 -82.551351 
L 344.807744 -83.017402 
L 343.620149 -83.485117 
L 342.432554 -83.954714 
L 341.244959 -84.42594 
L 340.057364 -84.895659 
L 338.869769 -85.367267 
L 337.682174 -85.840774 
L 336.494579 -86.316191 
L 335.306984 -86.813014 
L 334.119388 -87.305475 
L 332.931793 -87.811417 
L 331.744198 -88.319065 
L 330.556603 -88.818517 
L 329.369008 -89.31352 
L 328.181413 -89.819183 
L 326.993818 -90.321319 
L 325.806223 -90.829763 
L 324.618628 -91.343359 
L 323.431033 -91.854241 
L 322.243438 -92.37542 
L 321.055843 -92.898247 
L 319.868248 -93.418768 
L 318.680653 -93.945126 
L 317.493058 -94.47366 
L 316.305463 -94.990468 
L 315.117868 -95.520155 
L 313.930273 -96.047466 
L 312.742678 -96.582427 
L 311.555083 -97.116063 
L 310.367488 -97.651447 
L 309.179893 -98.188612 
L 307.992298 -98.727588 
L 306.804703 -99.268043 
L 305.617108 -99.8102 
L 304.429513 -100.354879 
L 303.241918 -100.902523 
L 302.054323 -101.453388 
L 300.866728 -102.00618 
L 299.679133 -102.56091 
L 298.491538 -103.11759 
L 297.303943 -103.676233 
L 296.116348 -104.23685 
L 294.928753 -104.797404 
L 293.741158 -105.359365 
L 292.553563 -105.926686 
L 291.365968 -106.496052 
L 290.178373 -107.067473 
L 288.990778 -107.640963 
L 287.803183 -108.216535 
L 286.615588 -108.794158 
L 285.427993 -109.373131 
L 284.240398 -109.95421 
L 283.052803 -110.537407 
L 281.865208 -111.122738 
L 280.677613 -111.710869 
L 279.490018 -112.305109 
L 278.302423 -112.897978 
L 277.114828 -113.492978 
L 275.927233 -114.090125 
L 274.739638 -114.689503 
L 273.552043 -115.291127 
L 272.364448 -115.895012 
L 271.176853 -116.501171 
L 269.989258 -117.109619 
L 268.801663 -117.720372 
L 267.614068 -118.333444 
L 266.426473 -118.94885 
L 265.238878 -119.566605 
L 264.051283 -120.186725 
L 262.863688 -120.809226 
L 261.676093 -121.434328 
L 260.488498 -122.062824 
L 259.300903 -122.69378 
L 258.113308 -123.328148 
L 256.925713 -123.965233 
L 255.738118 -124.604837 
L 254.550523 -125.246974 
L 253.362928 -125.891662 
L 252.175333 -126.538127 
L 250.987738 -127.185905 
L 249.800143 -127.836202 
L 248.612548 -128.489017 
L 247.424952 -129.144148 
L 246.237357 -129.802799 
L 245.049762 -130.467458 
L 243.862167 -131.135345 
L 242.674572 -131.805938 
L 241.486977 -132.479256 
L 240.299382 -133.155316 
L 239.111787 -133.832956 
L 237.924192 -134.507771 
L 236.736597 -135.185332 
L 235.549002 -135.865667 
L 234.361407 -136.548795 
L 233.173812 -137.236485 
L 231.986217 -137.928937 
L 230.798622 -138.624256 
L 229.611027 -139.32246 
L 228.423432 -140.023571 
L 227.235837 -140.727609 
L 226.048242 -141.434592 
L 224.860647 -142.14289 
L 223.673052 -142.852367 
L 222.485457 -143.56669 
L 221.297862 -144.285535 
L 220.110267 -145.006949 
L 218.922672 -145.729048 
L 217.735077 -146.454268 
L 216.547482 -147.183263 
L 215.359887 -147.9225 
L 214.172292 -148.664248 
L 212.984697 -149.40512 
L 211.797102 -150.145864 
L 210.609507 -150.889137 
L 209.421912 -151.63563 
L 208.234317 -152.389601 
L 207.046722 -153.147757 
L 205.859127 -153.909267 
L 204.671532 -154.675614 
L 203.483937 -155.446399 
L 202.296342 -156.220982 
L 201.108747 -156.997056 
L 199.921152 -157.778491 
L 198.733557 -158.560819 
L 197.545962 -159.345401 
L 196.358367 -160.133512 
L 195.170772 -160.925179 
L 193.983177 -161.720427 
L 192.795582 -162.52399 
L 191.607987 -163.334685 
L 190.420392 -164.14909 
L 189.232797 -164.967229 
L 188.045202 -165.789128 
L 186.857607 -166.612416 
L 185.670012 -167.437863 
L 184.482417 -168.26714 
L 183.294822 -169.100274 
L 182.107227 -169.937294 
L 180.919632 -170.780781 
L 179.732037 -171.629671 
L 178.544442 -172.482493 
L 177.356847 -173.339325 
L 176.169252 -174.196886 
L 174.981657 -175.055299 
L 173.794062 -175.91768 
L 172.606467 -176.783699 
L 171.418872 -177.650665 
L 170.231277 -178.526295 
L 169.043682 -179.407876 
L 167.856087 -180.292442 
L 166.668492 -181.181552 
L 165.480897 -182.0774 
L 164.293302 -182.977306 
L 163.105707 -183.880589 
L 161.918112 -184.788524 
L 160.730516 -185.704875 
L 159.542921 -186.623079 
L 158.355326 -187.545792 
L 157.167731 -188.472918 
L 155.980136 -189.404539 
L 154.792541 -190.342739 
L 153.604946 -191.28591 
L 152.417351 -192.233741 
L 151.229756 -193.187868 
L 150.042161 -194.151099 
L 148.854566 -195.119089 
L 147.666971 -196.081532 
L 146.479376 -197.047883 
L 145.291781 -198.020568 
L 144.104186 -199.002015 
L 142.916591 -199.996708 
L 141.728996 -200.988235 
L 140.541401 -202.010416 
L 139.353806 -203.011694 
L 138.166211 -204.018736 
L 136.978616 -205.03028 
L 135.791021 -206.070686 
L 134.603426 -207.093045 
L 133.415831 -208.118592 
L 132.228236 -209.160971 
L 131.040641 -210.200808 
L 129.853046 -211.243316 
L 128.665451 -212.291285 
L 127.477856 -213.344761 
L 126.290261 -214.423004 
L 125.102666 -215.5012 
L 123.915071 -216.572349 
L 122.727476 -217.661946 
L 121.539881 -218.757891 
L 120.352286 -219.860078 
L 119.164691 -220.965537 
L 117.977096 -222.069193 
L 116.789501 -223.190358 
L 115.601906 -224.300928 
L 114.414311 -225.414425 
L 113.226716 -226.561978 
L 112.039121 -227.729625 
L 110.851526 -228.904831 
L 109.663931 -230.049414 
L 108.476336 -231.230045 
L 107.288741 -232.417872 
L 106.101146 -233.626901 
L 104.913551 -234.848119 
L 103.725956 -236.077195 
L 102.538361 -237.304516 
L 101.350766 -238.529194 
L 100.163171 -239.761636 
L 98.975576 -241.009652 
L 97.787981 -242.283953 
L 96.600386 -243.567403 
L 95.412791 -244.860124 
L 94.225196 -246.162239 
L 93.037601 -247.473785 
L 91.850006 -248.794897 
L 90.662411 -250.125785 
L 89.474816 -251.466581 
L 88.287221 -252.817422 
L 87.099626 -254.178446 
L 85.912031 -255.549795 
L 84.724436 -256.931614 
L 83.536841 -258.323414 
L 82.349246 -259.717718 
L 81.161651 -261.122724 
L 79.974056 -262.538585 
L 78.786461 -263.965455 
L 77.598866 -265.403492 
L 76.411271 -266.852858 
L 75.223676 -268.313716 
L 74.03608 -269.786236 
L 72.848485 -271.270589 
L 71.66089 -272.766951 
L 70.473295 -274.2755 
z
" style="stroke: #1f77b4; stroke-opacity: 0.25"/>
    </defs>
    <g clip-path="url(#pcc10fe4f8a)">
     <use xlink:href="#m8bed10b683" x="0" y="308.441469" style="fill: #1f77b4; fill-opacity: 0.25; stroke: #1f77b4; stroke-opacity: 0.25"/>
    </g>
   </g>
   <g id="matplotlib.axis_1">
    <g id="xtick_1">
     <g id="line2d_1">
      <path d="M 103.763068 267.013969 
L 103.763068 23.077969 
" clip-path="url(#pcc10fe4f8a)" style="fill: none; stroke: #b0b0b0; stroke-opacity: 0.3; stroke-width: 0.8; stroke-linecap: square"/>
     </g>
     <g id="line2d_2">
      <defs>
       <path id="m8a4805e97e" d="M 0 0 
L 0 3.5 
" style="stroke: #000000; stroke-width: 0.8"/>
      </defs>
      <g>
       <use xlink:href="#m8a4805e97e" x="103.763068" y="267.013969" style="stroke: #000000; stroke-width: 0.8"/>
      </g>
     </g>
     <g id="text_1">
      <!-- 0.05 -->
      <g transform="translate(90.403693 283.132094) scale(0.12 -0.12)">
       <defs>
        <path id="DejaVuSans-30" d="M 2034 4250 
Q 1547 4250 1301 3770 
Q 1056 3291 1056 2328 
Q 1056 1369 1301 889 
Q 1547 409 2034 409 
Q 2525 409 2770 889 
Q 3016 1369 3016 2328 
Q 3016 3291 2770 3770 
Q 2525 4250 2034 4250 
z
M 2034 4750 
Q 2819 4750 3233 4129 
Q 3647 3509 3647 2328 
Q 3647 1150 3233 529 
Q 2819 -91 2034 -91 
Q 1250 -91 836 529 
Q 422 1150 422 2328 
Q 422 3509 836 4129 
Q 1250 4750 2034 4750 
z
" transform="scale(0.015625)"/>
        <path id="DejaVuSans-2e" d="M 684 794 
L 1344 794 
L 1344 0 
L 684 0 
L 684 794 
z
" transform="scale(0.015625)"/>
        <path id="DejaVuSans-35" d="M 691 4666 
L 3169 4666 
L 3169 4134 
L 1269 4134 
L 1269 2991 
Q 1406 3038 1543 3061 
Q 1681 3084 1819 3084 
Q 2600 3084 3056 2656 
Q 3513 2228 3513 1497 
Q 3513 744 3044 326 
Q 2575 -91 1722 -91 
Q 1428 -91 1123 -41 
Q 819 9 494 109 
L 494 744 
Q 775 591 1075 516 
Q 1375 441 1709 441 
Q 2250 441 2565 725 
Q 2881 1009 2881 1497 
Q 2881 1984 2565 2268 
Q 2250 2553 1709 2553 
Q 1456 2553 1204 2497 
Q 953 2441 691 2322 
L 691 4666 
z
" transform="scale(0.015625)"/>
       </defs>
       <use xlink:href="#DejaVuSans-30"/>
       <use xlink:href="#DejaVuSans-2e" transform="translate(63.623047 0)"/>
       <use xlink:href="#DejaVuSans-30" transform="translate(95.410156 0)"/>
       <use xlink:href="#DejaVuSans-35" transform="translate(159.033203 0)"/>
      </g>
     </g>
    </g>
    <g id="xtick_2">
     <g id="line2d_3">
      <path d="M 159.246023 267.013969 
L 159.246023 23.077969 
" clip-path="url(#pcc10fe4f8a)" style="fill: none; stroke: #b0b0b0; stroke-opacity: 0.3; stroke-width: 0.8; stroke-linecap: square"/>
     </g>
     <g id="line2d_4">
      <g>
       <use xlink:href="#m8a4805e97e" x="159.246023" y="267.013969" style="stroke: #000000; stroke-width: 0.8"/>
      </g>
     </g>
     <g id="text_2">
      <!-- 0.10 -->
      <g transform="translate(145.886648 283.132094) scale(0.12 -0.12)">
       <defs>
        <path id="DejaVuSans-31" d="M 794 531 
L 1825 531 
L 1825 4091 
L 703 3866 
L 703 4441 
L 1819 4666 
L 2450 4666 
L 2450 531 
L 3481 531 
L 3481 0 
L 794 0 
L 794 531 
z
" transform="scale(0.015625)"/>
       </defs>
       <use xlink:href="#DejaVuSans-30"/>
       <use xlink:href="#DejaVuSans-2e" transform="translate(63.623047 0)"/>
       <use xlink:href="#DejaVuSans-31" transform="translate(95.410156 0)"/>
       <use xlink:href="#DejaVuSans-30" transform="translate(159.033203 0)"/>
      </g>
     </g>
    </g>
    <g id="xtick_3">
     <g id="line2d_5">
      <path d="M 214.728977 267.013969 
L 214.728977 23.077969 
" clip-path="url(#pcc10fe4f8a)" style="fill: none; stroke: #b0b0b0; stroke-opacity: 0.3; stroke-width: 0.8; stroke-linecap: square"/>
     </g>
     <g id="line2d_6">
      <g>
       <use xlink:href="#m8a4805e97e" x="214.728977" y="267.013969" style="stroke: #000000; stroke-width: 0.8"/>
      </g>
     </g>
     <g id="text_3">
      <!-- 0.15 -->
      <g transform="translate(201.369602 283.132094) scale(0.12 -0.12)">
       <use xlink:href="#DejaVuSans-30"/>
       <use xlink:href="#DejaVuSans-2e" transform="translate(63.623047 0)"/>
       <use xlink:href="#DejaVuSans-31" transform="translate(95.410156 0)"/>
       <use xlink:href="#DejaVuSans-35" transform="translate(159.033203 0)"/>
      </g>
     </g>
    </g>
    <g id="xtick_4">
     <g id="line2d_7">
      <path d="M 270.211932 267.013969 
L 270.211932 23.077969 
" clip-path="url(#pcc10fe4f8a)" style="fill: none; stroke: #b0b0b0; stroke-opacity: 0.3; stroke-width: 0.8; stroke-linecap: square"/>
     </g>
     <g id="line2d_8">
      <g>
       <use xlink:href="#m8a4805e97e" x="270.211932" y="267.013969" style="stroke: #000000; stroke-width: 0.8"/>
      </g>
     </g>
     <g id="text_4">
      <!-- 0.20 -->
      <g transform="translate(256.852557 283.132094) scale(0.12 -0.12)">
       <defs>
        <path id="DejaVuSans-32" d="M 1228 531 
L 3431 531 
L 3431 0 
L 469 0 
L 469 531 
Q 828 903 1448 1529 
Q 2069 2156 2228 2338 
Q 2531 2678 2651 2914 
Q 2772 3150 2772 3378 
Q 2772 3750 2511 3984 
Q 2250 4219 1831 4219 
Q 1534 4219 1204 4116 
Q 875 4013 500 3803 
L 500 4441 
Q 881 4594 1212 4672 
Q 1544 4750 1819 4750 
Q 2544 4750 2975 4387 
Q 3406 4025 3406 3419 
Q 3406 3131 3298 2873 
Q 3191 2616 2906 2266 
Q 2828 2175 2409 1742 
Q 1991 1309 1228 531 
z
" transform="scale(0.015625)"/>
       </defs>
       <use xlink:href="#DejaVuSans-30"/>
       <use xlink:href="#DejaVuSans-2e" transform="translate(63.623047 0)"/>
       <use xlink:href="#DejaVuSans-32" transform="translate(95.410156 0)"/>
       <use xlink:href="#DejaVuSans-30" transform="translate(159.033203 0)"/>
      </g>
     </g>
    </g>
    <g id="xtick_5">
     <g id="line2d_9">
      <path d="M 325.694886 267.013969 
L 325.694886 23.077969 
" clip-path="url(#pcc10fe4f8a)" style="fill: none; stroke: #b0b0b0; stroke-opacity: 0.3; stroke-width: 0.8; stroke-linecap: square"/>
     </g>
     <g id="line2d_10">
      <g>
       <use xlink:href="#m8a4805e97e" x="325.694886" y="267.013969" style="stroke: #000000; stroke-width: 0.8"/>
      </g>
     </g>
     <g id="text_5">
      <!-- 0.25 -->
      <g transform="translate(312.335511 283.132094) scale(0.12 -0.12)">
       <use xlink:href="#DejaVuSans-30"/>
       <use xlink:href="#DejaVuSans-2e" transform="translate(63.623047 0)"/>
       <use xlink:href="#DejaVuSans-32" transform="translate(95.410156 0)"/>
       <use xlink:href="#DejaVuSans-35" transform="translate(159.033203 0)"/>
      </g>
     </g>
    </g>
    <g id="xtick_6">
     <g id="line2d_11">
      <path d="M 381.177841 267.013969 
L 381.177841 23.077969 
" clip-path="url(#pcc10fe4f8a)" style="fill: none; stroke: #b0b0b0; stroke-opacity: 0.3; stroke-width: 0.8; stroke-linecap: square"/>
     </g>
     <g id="line2d_12">
      <g>
       <use xlink:href="#m8a4805e97e" x="381.177841" y="267.013969" style="stroke: #000000; stroke-width: 0.8"/>
      </g>
     </g>
     <g id="text_6">
      <!-- 0.30 -->
      <g transform="translate(367.818466 283.132094) scale(0.12 -0.12)">
       <defs>
        <path id="DejaVuSans-33" d="M 2597 2516 
Q 3050 2419 3304 2112 
Q 3559 1806 3559 1356 
Q 3559 666 3084 287 
Q 2609 -91 1734 -91 
Q 1441 -91 1130 -33 
Q 819 25 488 141 
L 488 750 
Q 750 597 1062 519 
Q 1375 441 1716 441 
Q 2309 441 2620 675 
Q 2931 909 2931 1356 
Q 2931 1769 2642 2001 
Q 2353 2234 1838 2234 
L 1294 2234 
L 1294 2753 
L 1863 2753 
Q 2328 2753 2575 2939 
Q 2822 3125 2822 3475 
Q 2822 3834 2567 4026 
Q 2313 4219 1838 4219 
Q 1578 4219 1281 4162 
Q 984 4106 628 3988 
L 628 4550 
Q 988 4650 1302 4700 
Q 1616 4750 1894 4750 
Q 2613 4750 3031 4423 
Q 3450 4097 3450 3541 
Q 3450 3153 3228 2886 
Q 3006 2619 2597 2516 
z
" transform="scale(0.015625)"/>
       </defs>
       <use xlink:href="#DejaVuSans-30"/>
       <use xlink:href="#DejaVuSans-2e" transform="translate(63.623047 0)"/>
       <use xlink:href="#DejaVuSans-33" transform="translate(95.410156 0)"/>
       <use xlink:href="#DejaVuSans-30" transform="translate(159.033203 0)"/>
      </g>
     </g>
    </g>
    <g id="xtick_7">
     <g id="line2d_13">
      <path d="M 436.660795 267.013969 
L 436.660795 23.077969 
" clip-path="url(#pcc10fe4f8a)" style="fill: none; stroke: #b0b0b0; stroke-opacity: 0.3; stroke-width: 0.8; stroke-linecap: square"/>
     </g>
     <g id="line2d_14">
      <g>
       <use xlink:href="#m8a4805e97e" x="436.660795" y="267.013969" style="stroke: #000000; stroke-width: 0.8"/>
      </g>
     </g>
     <g id="text_7">
      <!-- 0.35 -->
      <g transform="translate(423.30142 283.132094) scale(0.12 -0.12)">
       <use xlink:href="#DejaVuSans-30"/>
       <use xlink:href="#DejaVuSans-2e" transform="translate(63.623047 0)"/>
       <use xlink:href="#DejaVuSans-33" transform="translate(95.410156 0)"/>
       <use xlink:href="#DejaVuSans-35" transform="translate(159.033203 0)"/>
      </g>
     </g>
    </g>
    <g id="text_8">
     <!-- h (mm) -->
     <g transform="translate(225.93875 298.745844) scale(0.12 -0.12)">
      <defs>
       <path id="DejaVuSans-68" d="M 3513 2113 
L 3513 0 
L 2938 0 
L 2938 2094 
Q 2938 2591 2744 2837 
Q 2550 3084 2163 3084 
Q 1697 3084 1428 2787 
Q 1159 2491 1159 1978 
L 1159 0 
L 581 0 
L 581 4863 
L 1159 4863 
L 1159 2956 
Q 1366 3272 1645 3428 
Q 1925 3584 2291 3584 
Q 2894 3584 3203 3211 
Q 3513 2838 3513 2113 
z
" transform="scale(0.015625)"/>
       <path id="DejaVuSans-20" transform="scale(0.015625)"/>
       <path id="DejaVuSans-28" d="M 1984 4856 
Q 1566 4138 1362 3434 
Q 1159 2731 1159 2009 
Q 1159 1288 1364 580 
Q 1569 -128 1984 -844 
L 1484 -844 
Q 1016 -109 783 600 
Q 550 1309 550 2009 
Q 550 2706 781 3412 
Q 1013 4119 1484 4856 
L 1984 4856 
z
" transform="scale(0.015625)"/>
       <path id="DejaVuSans-6d" d="M 3328 2828 
Q 3544 3216 3844 3400 
Q 4144 3584 4550 3584 
Q 5097 3584 5394 3201 
Q 5691 2819 5691 2113 
L 5691 0 
L 5113 0 
L 5113 2094 
Q 5113 2597 4934 2840 
Q 4756 3084 4391 3084 
Q 3944 3084 3684 2787 
Q 3425 2491 3425 1978 
L 3425 0 
L 2847 0 
L 2847 2094 
Q 2847 2600 2669 2842 
Q 2491 3084 2119 3084 
Q 1678 3084 1418 2786 
Q 1159 2488 1159 1978 
L 1159 0 
L 581 0 
L 581 3500 
L 1159 3500 
L 1159 2956 
Q 1356 3278 1631 3431 
Q 1906 3584 2284 3584 
Q 2666 3584 2933 3390 
Q 3200 3197 3328 2828 
z
" transform="scale(0.015625)"/>
       <path id="DejaVuSans-29" d="M 513 4856 
L 1013 4856 
Q 1481 4119 1714 3412 
Q 1947 2706 1947 2009 
Q 1947 1309 1714 600 
Q 1481 -109 1013 -844 
L 513 -844 
Q 928 -128 1133 580 
Q 1338 1288 1338 2009 
Q 1338 2731 1133 3434 
Q 928 4138 513 4856 
z
" transform="scale(0.015625)"/>
      </defs>
      <use xlink:href="#DejaVuSans-68"/>
      <use xlink:href="#DejaVuSans-20" transform="translate(63.378906 0)"/>
      <use xlink:href="#DejaVuSans-28" transform="translate(95.166016 0)"/>
      <use xlink:href="#DejaVuSans-6d" transform="translate(134.179688 0)"/>
      <use xlink:href="#DejaVuSans-6d" transform="translate(231.591797 0)"/>
      <use xlink:href="#DejaVuSans-29" transform="translate(329.003906 0)"/>
     </g>
    </g>
   </g>
   <g id="matplotlib.axis_2">
    <g id="ytick_1">
     <g id="line2d_15">
      <path d="M 52.71875 237.630983 
L 443.31875 237.630983 
" clip-path="url(#pcc10fe4f8a)" style="fill: none; stroke: #b0b0b0; stroke-opacity: 0.3; stroke-width: 0.8; stroke-linecap: square"/>
     </g>
     <g id="line2d_16">
      <defs>
       <path id="m00d2b08280" d="M 0 0 
L -3.5 0 
" style="stroke: #000000; stroke-width: 0.8"/>
      </defs>
      <g>
       <use xlink:href="#m00d2b08280" x="52.71875" y="237.630983" style="stroke: #000000; stroke-width: 0.8"/>
      </g>
     </g>
     <g id="text_9">
      <!-- 80 -->
      <g transform="translate(30.44875 242.190046) scale(0.12 -0.12)">
       <defs>
        <path id="DejaVuSans-38" d="M 2034 2216 
Q 1584 2216 1326 1975 
Q 1069 1734 1069 1313 
Q 1069 891 1326 650 
Q 1584 409 2034 409 
Q 2484 409 2743 651 
Q 3003 894 3003 1313 
Q 3003 1734 2745 1975 
Q 2488 2216 2034 2216 
z
M 1403 2484 
Q 997 2584 770 2862 
Q 544 3141 544 3541 
Q 544 4100 942 4425 
Q 1341 4750 2034 4750 
Q 2731 4750 3128 4425 
Q 3525 4100 3525 3541 
Q 3525 3141 3298 2862 
Q 3072 2584 2669 2484 
Q 3125 2378 3379 2068 
Q 3634 1759 3634 1313 
Q 3634 634 3220 271 
Q 2806 -91 2034 -91 
Q 1263 -91 848 271 
Q 434 634 434 1313 
Q 434 1759 690 2068 
Q 947 2378 1403 2484 
z
M 1172 3481 
Q 1172 3119 1398 2916 
Q 1625 2713 2034 2713 
Q 2441 2713 2670 2916 
Q 2900 3119 2900 3481 
Q 2900 3844 2670 4047 
Q 2441 4250 2034 4250 
Q 1625 4250 1398 4047 
Q 1172 3844 1172 3481 
z
" transform="scale(0.015625)"/>
       </defs>
       <use xlink:href="#DejaVuSans-38"/>
       <use xlink:href="#DejaVuSans-30" transform="translate(63.623047 0)"/>
      </g>
     </g>
    </g>
    <g id="ytick_2">
     <g id="line2d_17">
      <path d="M 52.71875 197.45166 
L 443.31875 197.45166 
" clip-path="url(#pcc10fe4f8a)" style="fill: none; stroke: #b0b0b0; stroke-opacity: 0.3; stroke-width: 0.8; stroke-linecap: square"/>
     </g>
     <g id="line2d_18">
      <g>
       <use xlink:href="#m00d2b08280" x="52.71875" y="197.45166" style="stroke: #000000; stroke-width: 0.8"/>
      </g>
     </g>
     <g id="text_10">
      <!-- 90 -->
      <g transform="translate(30.44875 202.010722) scale(0.12 -0.12)">
       <defs>
        <path id="DejaVuSans-39" d="M 703 97 
L 703 672 
Q 941 559 1184 500 
Q 1428 441 1663 441 
Q 2288 441 2617 861 
Q 2947 1281 2994 2138 
Q 2813 1869 2534 1725 
Q 2256 1581 1919 1581 
Q 1219 1581 811 2004 
Q 403 2428 403 3163 
Q 403 3881 828 4315 
Q 1253 4750 1959 4750 
Q 2769 4750 3195 4129 
Q 3622 3509 3622 2328 
Q 3622 1225 3098 567 
Q 2575 -91 1691 -91 
Q 1453 -91 1209 -44 
Q 966 3 703 97 
z
M 1959 2075 
Q 2384 2075 2632 2365 
Q 2881 2656 2881 3163 
Q 2881 3666 2632 3958 
Q 2384 4250 1959 4250 
Q 1534 4250 1286 3958 
Q 1038 3666 1038 3163 
Q 1038 2656 1286 2365 
Q 1534 2075 1959 2075 
z
" transform="scale(0.015625)"/>
       </defs>
       <use xlink:href="#DejaVuSans-39"/>
       <use xlink:href="#DejaVuSans-30" transform="translate(63.623047 0)"/>
      </g>
     </g>
    </g>
    <g id="ytick_3">
     <g id="line2d_19">
      <path d="M 52.71875 157.272336 
L 443.31875 157.272336 
" clip-path="url(#pcc10fe4f8a)" style="fill: none; stroke: #b0b0b0; stroke-opacity: 0.3; stroke-width: 0.8; stroke-linecap: square"/>
     </g>
     <g id="line2d_20">
      <g>
       <use xlink:href="#m00d2b08280" x="52.71875" y="157.272336" style="stroke: #000000; stroke-width: 0.8"/>
      </g>
     </g>
     <g id="text_11">
      <!-- 100 -->
      <g transform="translate(22.81375 161.831399) scale(0.12 -0.12)">
       <use xlink:href="#DejaVuSans-31"/>
       <use xlink:href="#DejaVuSans-30" transform="translate(63.623047 0)"/>
       <use xlink:href="#DejaVuSans-30" transform="translate(127.246094 0)"/>
      </g>
     </g>
    </g>
    <g id="ytick_4">
     <g id="line2d_21">
      <path d="M 52.71875 117.093012 
L 443.31875 117.093012 
" clip-path="url(#pcc10fe4f8a)" style="fill: none; stroke: #b0b0b0; stroke-opacity: 0.3; stroke-width: 0.8; stroke-linecap: square"/>
     </g>
     <g id="line2d_22">
      <g>
       <use xlink:href="#m00d2b08280" x="52.71875" y="117.093012" style="stroke: #000000; stroke-width: 0.8"/>
      </g>
     </g>
     <g id="text_12">
      <!-- 110 -->
      <g transform="translate(22.81375 121.652075) scale(0.12 -0.12)">
       <use xlink:href="#DejaVuSans-31"/>
       <use xlink:href="#DejaVuSans-31" transform="translate(63.623047 0)"/>
       <use xlink:href="#DejaVuSans-30" transform="translate(127.246094 0)"/>
      </g>
     </g>
    </g>
    <g id="ytick_5">
     <g id="line2d_23">
      <path d="M 52.71875 76.913689 
L 443.31875 76.913689 
" clip-path="url(#pcc10fe4f8a)" style="fill: none; stroke: #b0b0b0; stroke-opacity: 0.3; stroke-width: 0.8; stroke-linecap: square"/>
     </g>
     <g id="line2d_24">
      <g>
       <use xlink:href="#m00d2b08280" x="52.71875" y="76.913689" style="stroke: #000000; stroke-width: 0.8"/>
      </g>
     </g>
     <g id="text_13">
      <!-- 120 -->
      <g transform="translate(22.81375 81.472751) scale(0.12 -0.12)">
       <use xlink:href="#DejaVuSans-31"/>
       <use xlink:href="#DejaVuSans-32" transform="translate(63.623047 0)"/>
       <use xlink:href="#DejaVuSans-30" transform="translate(127.246094 0)"/>
      </g>
     </g>
    </g>
    <g id="ytick_6">
     <g id="line2d_25">
      <path d="M 52.71875 36.734365 
L 443.31875 36.734365 
" clip-path="url(#pcc10fe4f8a)" style="fill: none; stroke: #b0b0b0; stroke-opacity: 0.3; stroke-width: 0.8; stroke-linecap: square"/>
     </g>
     <g id="line2d_26">
      <g>
       <use xlink:href="#m00d2b08280" x="52.71875" y="36.734365" style="stroke: #000000; stroke-width: 0.8"/>
      </g>
     </g>
     <g id="text_14">
      <!-- 130 -->
      <g transform="translate(22.81375 41.293428) scale(0.12 -0.12)">
       <use xlink:href="#DejaVuSans-31"/>
       <use xlink:href="#DejaVuSans-33" transform="translate(63.623047 0)"/>
       <use xlink:href="#DejaVuSans-30" transform="translate(127.246094 0)"/>
      </g>
     </g>
    </g>
    <g id="text_15">
     <!-- T/Ω -->
     <g transform="translate(16.318125 155.317219) rotate(-90) scale(0.12 -0.12)">
      <defs>
       <path id="DejaVuSans-54" d="M -19 4666 
L 3928 4666 
L 3928 4134 
L 2272 4134 
L 2272 0 
L 1638 0 
L 1638 4134 
L -19 4134 
L -19 4666 
z
" transform="scale(0.015625)"/>
       <path id="DejaVuSans-2f" d="M 1625 4666 
L 2156 4666 
L 531 -594 
L 0 -594 
L 1625 4666 
z
" transform="scale(0.015625)"/>
       <path id="DejaVuSans-3a9" d="M 4647 556 
L 4647 0 
L 2772 0 
L 2772 556 
Q 3325 859 3634 1378 
Q 3944 1897 3944 2528 
Q 3944 3278 3531 3731 
Q 3119 4184 2444 4184 
Q 1769 4184 1355 3729 
Q 941 3275 941 2528 
Q 941 1897 1250 1378 
Q 1563 859 2119 556 
L 2119 0 
L 244 0 
L 244 556 
L 1241 556 
Q 747 991 519 1456 
Q 294 1922 294 2497 
Q 294 3491 894 4106 
Q 1491 4722 2444 4722 
Q 3391 4722 3994 4106 
Q 4594 3494 4594 2528 
Q 4594 1922 4372 1459 
Q 4150 997 3647 556 
L 4647 556 
z
" transform="scale(0.015625)"/>
      </defs>
      <use xlink:href="#DejaVuSans-54"/>
      <use xlink:href="#DejaVuSans-2f" transform="translate(61.083984 0)"/>
      <use xlink:href="#DejaVuSans-3a9" transform="translate(94.775391 0)"/>
     </g>
    </g>
   </g>
   <g id="line2d_27">
    <path d="M 70.473295 36.914165 
L 78.786461 46.565018 
L 85.912031 54.480082 
L 94.225196 63.347894 
L 101.350766 70.658743 
L 112.039121 81.222942 
L 120.352286 89.069952 
L 128.665451 96.60959 
L 138.166211 104.89136 
L 147.666971 112.80314 
L 155.980136 119.466442 
L 165.480897 126.791119 
L 174.981657 133.830922 
L 184.482417 140.602846 
L 195.170772 147.918678 
L 204.671532 154.164503 
L 215.359887 160.932011 
L 224.860647 166.723008 
L 236.736597 173.683025 
L 248.612548 180.3617 
L 260.488498 186.777209 
L 272.364448 192.93065 
L 284.240398 198.8462 
L 297.303943 205.097314 
L 310.367488 211.109723 
L 323.431033 216.893945 
L 337.682174 222.958226 
L 353.120909 229.263911 
L 367.372049 234.856034 
L 382.810784 240.678017 
L 398.249519 246.265741 
L 414.875849 252.044654 
L 425.564205 255.633078 
L 425.564205 255.633078 
" clip-path="url(#pcc10fe4f8a)" style="fill: none; stroke: #1f77b4; stroke-width: 1.6; stroke-linecap: square"/>
   </g>
   <g id="line2d_28">
    <defs>
     <path id="meef88524e5" d="M 0 2 
C 0.530406 2 1.03916 1.789267 1.414214 1.414214 
C 1.789267 1.03916 2 0.530406 2 0 
C 2 -0.530406 1.789267 -1.03916 1.414214 -1.414214 
C 1.03916 -1.789267 0.530406 -2 0 -2 
C -0.530406 -2 -1.03916 -1.789267 -1.414214 -1.414214 
C -1.789267 -1.03916 -2 -0.530406 -2 0 
C -2 0.530406 -1.789267 1.03916 -1.414214 1.414214 
C -1.03916 1.789267 -0.530406 2 0 2 
z
" style="stroke: #000000"/>
    </defs>
    <g clip-path="url(#pcc10fe4f8a)">
     <use xlink:href="#meef88524e5" x="70.473295" y="37.323662" style="stroke: #000000"/>
     <use xlink:href="#meef88524e5" x="92.666477" y="61.19018" style="stroke: #000000"/>
     <use xlink:href="#meef88524e5" x="114.859659" y="84.038822" style="stroke: #000000"/>
     <use xlink:href="#meef88524e5" x="137.052841" y="103.271325" style="stroke: #000000"/>
     <use xlink:href="#meef88524e5" x="159.246023" y="122.289538" style="stroke: #000000"/>
     <use xlink:href="#meef88524e5" x="181.439205" y="138.20055" style="stroke: #000000"/>
     <use xlink:href="#meef88524e5" x="203.632386" y="154.245494" style="stroke: #000000"/>
     <use xlink:href="#meef88524e5" x="225.825568" y="167.397526" style="stroke: #000000"/>
     <use xlink:href="#meef88524e5" x="248.01875" y="180.60313" style="stroke: #000000"/>
     <use xlink:href="#meef88524e5" x="270.211932" y="191.71941" style="stroke: #000000"/>
     <use xlink:href="#meef88524e5" x="292.405114" y="202.808903" style="stroke: #000000"/>
     <use xlink:href="#meef88524e5" x="314.598295" y="212.318009" style="stroke: #000000"/>
     <use xlink:href="#meef88524e5" x="336.791477" y="222.389627" style="stroke: #000000"/>
     <use xlink:href="#meef88524e5" x="358.984659" y="231.041574" style="stroke: #000000"/>
     <use xlink:href="#meef88524e5" x="381.177841" y="240.309605" style="stroke: #000000"/>
     <use xlink:href="#meef88524e5" x="403.371023" y="248.238325" style="stroke: #000000"/>
     <use xlink:href="#meef88524e5" x="425.564205" y="255.925969" style="stroke: #000000"/>
    </g>
   </g>
   <g id="patch_3">
    <path d="M 52.71875 267.013969 
L 52.71875 23.077969 
" style="fill: none; stroke: #000000; stroke-width: 0.8; stroke-linejoin: miter; stroke-linecap: square"/>
   </g>
   <g id="patch_4">
    <path d="M 443.31875 267.013969 
L 443.31875 23.077969 
" style="fill: none; stroke: #000000; stroke-width: 0.8; stroke-linejoin: miter; stroke-linecap: square"/>
   </g>
   <g id="patch_5">
    <path d="M 52.71875 267.013969 
L 443.31875 267.013969 
" style="fill: none; stroke: #000000; stroke-width: 0.8; stroke-linejoin: miter; stroke-linecap: square"/>
   </g>
   <g id="patch_6">
    <path d="M 52.71875 23.077969 
L 443.31875 23.077969 
" style="fill: none; stroke: #000000; stroke-width: 0.8; stroke-linejoin: miter; stroke-linecap: square"/>
   </g>
   <g id="text_16">
    <!-- Bootstrap prediction band — gen_power -->
    <g transform="translate(117.026484 17.077969) scale(0.13 -0.13)">
     <defs>
      <path id="DejaVuSans-42" d="M 1259 2228 
L 1259 519 
L 2272 519 
Q 2781 519 3026 730 
Q 3272 941 3272 1375 
Q 3272 1813 3026 2020 
Q 2781 2228 2272 2228 
L 1259 2228 
z
M 1259 4147 
L 1259 2741 
L 2194 2741 
Q 2656 2741 2882 2914 
Q 3109 3088 3109 3444 
Q 3109 3797 2882 3972 
Q 2656 4147 2194 4147 
L 1259 4147 
z
M 628 4666 
L 2241 4666 
Q 2963 4666 3353 4366 
Q 3744 4066 3744 3513 
Q 3744 3084 3544 2831 
Q 3344 2578 2956 2516 
Q 3422 2416 3680 2098 
Q 3938 1781 3938 1306 
Q 3938 681 3513 340 
Q 3088 0 2303 0 
L 628 0 
L 628 4666 
z
" transform="scale(0.015625)"/>
      <path id="DejaVuSans-6f" d="M 1959 3097 
Q 1497 3097 1228 2736 
Q 959 2375 959 1747 
Q 959 1119 1226 758 
Q 1494 397 1959 397 
Q 2419 397 2687 759 
Q 2956 1122 2956 1747 
Q 2956 2369 2687 2733 
Q 2419 3097 1959 3097 
z
M 1959 3584 
Q 2709 3584 3137 3096 
Q 3566 2609 3566 1747 
Q 3566 888 3137 398 
Q 2709 -91 1959 -91 
Q 1206 -91 779 398 
Q 353 888 353 1747 
Q 353 2609 779 3096 
Q 1206 3584 1959 3584 
z
" transform="scale(0.015625)"/>
      <path id="DejaVuSans-74" d="M 1172 4494 
L 1172 3500 
L 2356 3500 
L 2356 3053 
L 1172 3053 
L 1172 1153 
Q 1172 725 1289 603 
Q 1406 481 1766 481 
L 2356 481 
L 2356 0 
L 1766 0 
Q 1100 0 847 248 
Q 594 497 594 1153 
L 594 3053 
L 172 3053 
L 172 3500 
L 594 3500 
L 594 4494 
L 1172 4494 
z
" transform="scale(0.015625)"/>
      <path id="DejaVuSans-73" d="M 2834 3397 
L 2834 2853 
Q 2591 2978 2328 3040 
Q 2066 3103 1784 3103 
Q 1356 3103 1142 2972 
Q 928 2841 928 2578 
Q 928 2378 1081 2264 
Q 1234 2150 1697 2047 
L 1894 2003 
Q 2506 1872 2764 1633 
Q 3022 1394 3022 966 
Q 3022 478 2636 193 
Q 2250 -91 1575 -91 
Q 1294 -91 989 -36 
Q 684 19 347 128 
L 347 722 
Q 666 556 975 473 
Q 1284 391 1588 391 
Q 1994 391 2212 530 
Q 2431 669 2431 922 
Q 2431 1156 2273 1281 
Q 2116 1406 1581 1522 
L 1381 1569 
Q 847 1681 609 1914 
Q 372 2147 372 2553 
Q 372 3047 722 3315 
Q 1072 3584 1716 3584 
Q 2034 3584 2315 3537 
Q 2597 3491 2834 3397 
z
" transform="scale(0.015625)"/>
      <path id="DejaVuSans-72" d="M 2631 2963 
Q 2534 3019 2420 3045 
Q 2306 3072 2169 3072 
Q 1681 3072 1420 2755 
Q 1159 2438 1159 1844 
L 1159 0 
L 581 0 
L 581 3500 
L 1159 3500 
L 1159 2956 
Q 1341 3275 1631 3429 
Q 1922 3584 2338 3584 
Q 2397 3584 2469 3576 
Q 2541 3569 2628 3553 
L 2631 2963 
z
" transform="scale(0.015625)"/>
      <path id="DejaVuSans-61" d="M 2194 1759 
Q 1497 1759 1228 1600 
Q 959 1441 959 1056 
Q 959 750 1161 570 
Q 1363 391 1709 391 
Q 2188 391 2477 730 
Q 2766 1069 2766 1631 
L 2766 1759 
L 2194 1759 
z
M 3341 1997 
L 3341 0 
L 2766 0 
L 2766 531 
Q 2569 213 2275 61 
Q 1981 -91 1556 -91 
Q 1019 -91 701 211 
Q 384 513 384 1019 
Q 384 1609 779 1909 
Q 1175 2209 1959 2209 
L 2766 2209 
L 2766 2266 
Q 2766 2663 2505 2880 
Q 2244 3097 1772 3097 
Q 1472 3097 1187 3025 
Q 903 2953 641 2809 
L 641 3341 
Q 956 3463 1253 3523 
Q 1550 3584 1831 3584 
Q 2591 3584 2966 3190 
Q 3341 2797 3341 1997 
z
" transform="scale(0.015625)"/>
      <path id="DejaVuSans-70" d="M 1159 525 
L 1159 -1331 
L 581 -1331 
L 581 3500 
L 1159 3500 
L 1159 2969 
Q 1341 3281 1617 3432 
Q 1894 3584 2278 3584 
Q 2916 3584 3314 3078 
Q 3713 2572 3713 1747 
Q 3713 922 3314 415 
Q 2916 -91 2278 -91 
Q 1894 -91 1617 61 
Q 1341 213 1159 525 
z
M 3116 1747 
Q 3116 2381 2855 2742 
Q 2594 3103 2138 3103 
Q 1681 3103 1420 2742 
Q 1159 2381 1159 1747 
Q 1159 1113 1420 752 
Q 1681 391 2138 391 
Q 2594 391 2855 752 
Q 3116 1113 3116 1747 
z
" transform="scale(0.015625)"/>
      <path id="DejaVuSans-65" d="M 3597 1894 
L 3597 1613 
L 953 1613 
Q 991 1019 1311 708 
Q 1631 397 2203 397 
Q 2534 397 2845 478 
Q 3156 559 3463 722 
L 3463 178 
Q 3153 47 2828 -22 
Q 2503 -91 2169 -91 
Q 1331 -91 842 396 
Q 353 884 353 1716 
Q 353 2575 817 3079 
Q 1281 3584 2069 3584 
Q 2775 3584 3186 3129 
Q 3597 2675 3597 1894 
z
M 3022 2063 
Q 3016 2534 2758 2815 
Q 2500 3097 2075 3097 
Q 1594 3097 1305 2825 
Q 1016 2553 972 2059 
L 3022 2063 
z
" transform="scale(0.015625)"/>
      <path id="DejaVuSans-64" d="M 2906 2969 
L 2906 4863 
L 3481 4863 
L 3481 0 
L 2906 0 
L 2906 525 
Q 2725 213 2448 61 
Q 2172 -91 1784 -91 
Q 1150 -91 751 415 
Q 353 922 353 1747 
Q 353 2572 751 3078 
Q 1150 3584 1784 3584 
Q 2172 3584 2448 3432 
Q 2725 3281 2906 2969 
z
M 947 1747 
Q 947 1113 1208 752 
Q 1469 391 1925 391 
Q 2381 391 2643 752 
Q 2906 1113 2906 1747 
Q 2906 2381 2643 2742 
Q 2381 3103 1925 3103 
Q 1469 3103 1208 2742 
Q 947 2381 947 1747 
z
" transform="scale(0.015625)"/>
      <path id="DejaVuSans-69" d="M 603 3500 
L 1178 3500 
L 1178 0 
L 603 0 
L 603 3500 
z
M 603 4863 
L 1178 4863 
L 1178 4134 
L 603 4134 
L 603 4863 
z
" transform="scale(0.015625)"/>
      <path id="DejaVuSans-63" d="M 3122 3366 
L 3122 2828 
Q 2878 2963 2633 3030 
Q 2388 3097 2138 3097 
Q 1578 3097 1268 2742 
Q 959 2388 959 1747 
Q 959 1106 1268 751 
Q 1578 397 2138 397 
Q 2388 397 2633 464 
Q 2878 531 3122 666 
L 3122 134 
Q 2881 22 2623 -34 
Q 2366 -91 2075 -91 
Q 1284 -91 818 406 
Q 353 903 353 1747 
Q 353 2603 823 3093 
Q 1294 3584 2113 3584 
Q 2378 3584 2631 3529 
Q 2884 3475 3122 3366 
z
" transform="scale(0.015625)"/>
      <path id="DejaVuSans-6e" d="M 3513 2113 
L 3513 0 
L 2938 0 
L 2938 2094 
Q 2938 2591 2744 2837 
Q 2550 3084 2163 3084 
Q 1697 3084 1428 2787 
Q 1159 2491 1159 1978 
L 1159 0 
L 581 0 
L 581 3500 
L 1159 3500 
L 1159 2956 
Q 1366 3272 1645 3428 
Q 1925 3584 2291 3584 
Q 2894 3584 3203 3211 
Q 3513 2838 3513 2113 
z
" transform="scale(0.015625)"/>
      <path id="DejaVuSans-62" d="M 3116 1747 
Q 3116 2381 2855 2742 
Q 2594 3103 2138 3103 
Q 1681 3103 1420 2742 
Q 1159 2381 1159 1747 
Q 1159 1113 1420 752 
Q 1681 391 2138 391 
Q 2594 391 2855 752 
Q 3116 1113 3116 1747 
z
M 1159 2969 
Q 1341 3281 1617 3432 
Q 1894 3584 2278 3584 
Q 2916 3584 3314 3078 
Q 3713 2572 3713 1747 
Q 3713 922 3314 415 
Q 2916 -91 2278 -91 
Q 1894 -91 1617 61 
Q 1341 213 1159 525 
L 1159 0 
L 581 0 
L 581 4863 
L 1159 4863 
L 1159 2969 
z
" transform="scale(0.015625)"/>
      <path id="DejaVuSans-2014" d="M 313 1978 
L 6088 1978 
L 6088 1528 
L 313 1528 
L 313 1978 
z
" transform="scale(0.015625)"/>
      <path id="DejaVuSans-67" d="M 2906 1791 
Q 2906 2416 2648 2759 
Q 2391 3103 1925 3103 
Q 1463 3103 1205 2759 
Q 947 2416 947 1791 
Q 947 1169 1205 825 
Q 1463 481 1925 481 
Q 2391 481 2648 825 
Q 2906 1169 2906 1791 
z
M 3481 434 
Q 3481 -459 3084 -895 
Q 2688 -1331 1869 -1331 
Q 1566 -1331 1297 -1286 
Q 1028 -1241 775 -1147 
L 775 -588 
Q 1028 -725 1275 -790 
Q 1522 -856 1778 -856 
Q 2344 -856 2625 -561 
Q 2906 -266 2906 331 
L 2906 616 
Q 2728 306 2450 153 
Q 2172 0 1784 0 
Q 1141 0 747 490 
Q 353 981 353 1791 
Q 353 2603 747 3093 
Q 1141 3584 1784 3584 
Q 2172 3584 2450 3431 
Q 2728 3278 2906 2969 
L 2906 3500 
L 3481 3500 
L 3481 434 
z
" transform="scale(0.015625)"/>
      <path id="DejaVuSans-5f" d="M 3263 -1063 
L 3263 -1509 
L -63 -1509 
L -63 -1063 
L 3263 -1063 
z
" transform="scale(0.015625)"/>
      <path id="DejaVuSans-77" d="M 269 3500 
L 844 3500 
L 1563 769 
L 2278 3500 
L 2956 3500 
L 3675 769 
L 4391 3500 
L 4966 3500 
L 4050 0 
L 3372 0 
L 2619 2869 
L 1863 0 
L 1184 0 
L 269 3500 
z
" transform="scale(0.015625)"/>
     </defs>
     <use xlink:href="#DejaVuSans-42"/>
     <use xlink:href="#DejaVuSans-6f" transform="translate(68.603516 0)"/>
     <use xlink:href="#DejaVuSans-6f" transform="translate(129.785156 0)"/>
     <use xlink:href="#DejaVuSans-74" transform="translate(190.966797 0)"/>
     <use xlink:href="#DejaVuSans-73" transform="translate(230.175781 0)"/>
     <use xlink:href="#DejaVuSans-74" transform="translate(282.275391 0)"/>
     <use xlink:href="#DejaVuSans-72" transform="translate(321.484375 0)"/>
     <use xlink:href="#DejaVuSans-61" transform="translate(362.597656 0)"/>
     <use xlink:href="#DejaVuSans-70" transform="translate(423.876953 0)"/>
     <use xlink:href="#DejaVuSans-20" transform="translate(487.353516 0)"/>
     <use xlink:href="#DejaVuSans-70" transform="translate(519.140625 0)"/>
     <use xlink:href="#DejaVuSans-72" transform="translate(582.617188 0)"/>
     <use xlink:href="#DejaVuSans-65" transform="translate(621.480469 0)"/>
     <use xlink:href="#DejaVuSans-64" transform="translate(683.003906 0)"/>
     <use xlink:href="#DejaVuSans-69" transform="translate(746.480469 0)"/>
     <use xlink:href="#DejaVuSans-63" transform="translate(774.263672 0)"/>
     <use xlink:href="#DejaVuSans-74" transform="translate(829.244141 0)"/>
     <use xlink:href="#DejaVuSans-69" transform="translate(868.453125 0)"/>
     <use xlink:href="#DejaVuSans-6f" transform="translate(896.236328 0)"/>
     <use xlink:href="#DejaVuSans-6e" transform="translate(957.417969 0)"/>
     <use xlink:href="#DejaVuSans-20" transform="translate(1020.796875 0)"/>
     <use xlink:href="#DejaVuSans-62" transform="translate(1052.583984 0)"/>
     <use xlink:href="#DejaVuSans-61" transform="translate(1116.060547 0)"/>
     <use xlink:href="#DejaVuSans-6e" transform="translate(1177.339844 0)"/>
     <use xlink:href="#DejaVuSans-64" transform="translate(1240.71875 0)"/>
     <use xlink:href="#DejaVuSans-20" transform="translate(1304.195312 0)"/>
     <use xlink:href="#DejaVuSans-2014" transform="translate(1335.982422 0)"/>
     <use xlink:href="#DejaVuSans-20" transform="translate(1435.982422 0)"/>
     <use xlink:href="#DejaVuSans-67" transform="translate(1467.769531 0)"/>
     <use xlink:href="#DejaVuSans-65" transform="translate(1531.246094 0)"/>
     <use xlink:href="#DejaVuSans-6e" transform="translate(1592.769531 0)"/>
     <use xlink:href="#DejaVuSans-5f" transform="translate(1656.148438 0)"/>
     <use xlink:href="#DejaVuSans-70" transform="translate(1706.148438 0)"/>
     <use xlink:href="#DejaVuSans-6f" transform="translate(1769.625 0)"/>
     <use xlink:href="#DejaVuSans-77" transform="translate(1830.806641 0)"/>
     <use xlink:href="#DejaVuSans-65" transform="translate(1912.59375 0)"/>
     <use xlink:href="#DejaVuSans-72" transform="translate(1974.117188 0)"/>
    </g>
   </g>
   <g id="legend_1">
    <g id="patch_7">
     <path d="M 353.435938 75.112344 
L 436.31875 75.112344 
Q 438.31875 75.112344 438.31875 73.112344 
L 438.31875 30.077969 
Q 438.31875 28.077969 436.31875 28.077969 
L 353.435938 28.077969 
Q 351.435938 28.077969 351.435938 30.077969 
L 351.435938 73.112344 
Q 351.435938 75.112344 353.435938 75.112344 
z
" style="fill: #ffffff; opacity: 0.8; stroke: #cccccc; stroke-linejoin: miter"/>
    </g>
    <g id="patch_8">
     <path d="M 355.435938 39.676406 
L 375.435938 39.676406 
L 375.435938 32.676406 
L 355.435938 32.676406 
z
" style="fill: #1f77b4; fill-opacity: 0.25; stroke: #1f77b4; stroke-opacity: 0.25; stroke-linejoin: miter"/>
    </g>
    <g id="text_17">
     <!-- 95% band -->
     <g transform="translate(383.435938 39.676406) scale(0.1 -0.1)">
      <defs>
       <path id="DejaVuSans-25" d="M 4653 2053 
Q 4381 2053 4226 1822 
Q 4072 1591 4072 1178 
Q 4072 772 4226 539 
Q 4381 306 4653 306 
Q 4919 306 5073 539 
Q 5228 772 5228 1178 
Q 5228 1588 5073 1820 
Q 4919 2053 4653 2053 
z
M 4653 2450 
Q 5147 2450 5437 2106 
Q 5728 1763 5728 1178 
Q 5728 594 5436 251 
Q 5144 -91 4653 -91 
Q 4153 -91 3862 251 
Q 3572 594 3572 1178 
Q 3572 1766 3864 2108 
Q 4156 2450 4653 2450 
z
M 1428 4353 
Q 1159 4353 1004 4120 
Q 850 3888 850 3481 
Q 850 3069 1003 2837 
Q 1156 2606 1428 2606 
Q 1700 2606 1854 2837 
Q 2009 3069 2009 3481 
Q 2009 3884 1853 4118 
Q 1697 4353 1428 4353 
z
M 4250 4750 
L 4750 4750 
L 1831 -91 
L 1331 -91 
L 4250 4750 
z
M 1428 4750 
Q 1922 4750 2215 4408 
Q 2509 4066 2509 3481 
Q 2509 2891 2217 2550 
Q 1925 2209 1428 2209 
Q 931 2209 642 2551 
Q 353 2894 353 3481 
Q 353 4063 643 4406 
Q 934 4750 1428 4750 
z
" transform="scale(0.015625)"/>
      </defs>
      <use xlink:href="#DejaVuSans-39"/>
      <use xlink:href="#DejaVuSans-35" transform="translate(63.623047 0)"/>
      <use xlink:href="#DejaVuSans-25" transform="translate(127.246094 0)"/>
      <use xlink:href="#DejaVuSans-20" transform="translate(222.265625 0)"/>
      <use xlink:href="#DejaVuSans-62" transform="translate(254.052734 0)"/>
      <use xlink:href="#DejaVuSans-61" transform="translate(317.529297 0)"/>
      <use xlink:href="#DejaVuSans-6e" transform="translate(378.808594 0)"/>
      <use xlink:href="#DejaVuSans-64" transform="translate(442.1875 0)"/>
     </g>
    </g>
    <g id="line2d_29">
     <path d="M 355.435938 50.854531 
L 365.435938 50.854531 
L 375.435938 50.854531 
" style="fill: none; stroke: #1f77b4; stroke-width: 1.6; stroke-linecap: square"/>
    </g>
    <g id="text_18">
     <!-- median fit -->
     <g transform="translate(383.435938 54.354531) scale(0.1 -0.1)">
      <defs>
       <path id="DejaVuSans-66" d="M 2375 4863 
L 2375 4384 
L 1825 4384 
Q 1516 4384 1395 4259 
Q 1275 4134 1275 3809 
L 1275 3500 
L 2222 3500 
L 2222 3053 
L 1275 3053 
L 1275 0 
L 697 0 
L 697 3053 
L 147 3053 
L 147 3500 
L 697 3500 
L 697 3744 
Q 697 4328 969 4595 
Q 1241 4863 1831 4863 
L 2375 4863 
z
" transform="scale(0.015625)"/>
      </defs>
      <use xlink:href="#DejaVuSans-6d"/>
      <use xlink:href="#DejaVuSans-65" transform="translate(97.412109 0)"/>
      <use xlink:href="#DejaVuSans-64" transform="translate(158.935547 0)"/>
      <use xlink:href="#DejaVuSans-69" transform="translate(222.412109 0)"/>
      <use xlink:href="#DejaVuSans-61" transform="translate(250.195312 0)"/>
      <use xlink:href="#DejaVuSans-6e" transform="translate(311.474609 0)"/>
      <use xlink:href="#DejaVuSans-20" transform="translate(374.853516 0)"/>
      <use xlink:href="#DejaVuSans-66" transform="translate(406.640625 0)"/>
      <use xlink:href="#DejaVuSans-69" transform="translate(441.845703 0)"/>
      <use xlink:href="#DejaVuSans-74" transform="translate(469.628906 0)"/>
     </g>
    </g>
    <g id="line2d_30">
     <g>
      <use xlink:href="#meef88524e5" x="365.435938" y="65.532656" style="stroke: #000000"/>
     </g>
    </g>
    <g id="text_19">
     <!-- data -->
     <g transform="translate(383.435938 69.032656) scale(0.1 -0.1)">
      <use xlink:href="#DejaVuSans-64"/>
      <use xlink:href="#DejaVuSans-61" transform="translate(63.476562 0)"/>
      <use xlink:href="#DejaVuSans-74" transform="translate(124.755859 0)"/>
      <use xlink:href="#DejaVuSans-61" transform="translate(163.964844 0)"/>
     </g>
    </g>
   </g>
  </g>
 </g>
 <defs>
  <clipPath id="pcc10fe4f8a">
   <rect x="52.71875" y="23.077969" width="390.6" height="243.936"/>
  </clipPath>
 </defs>
</svg>
