<?xml version="1.0" encoding="utf-8" standalone="no"?>
<!DOCTYPE svg PUBLIC "-//W3C//DTD SVG 1.1//EN"
  "http://www.w3.org/Graphics/SVG/1.1/DTD/svg11.dtd">
<svg xmlns:xlink="http://www.w3.org/1999/xlink" width="432pt" height="432pt" viewBox="0 0 432 432" xmlns="http://www.w3.org/2000/svg" version="1.1">
 <metadata>
  <rdf:RDF xmlns:dc="http://purl.org/dc/elements/1.1/" xmlns:cc="http://creativecommons.org/ns#" xmlns:rdf="http://www.w3.org/1999/02/22-rdf-syntax-ns#">
   <cc:Work>
    <dc:type rdf:resource="http://purl.org/dc/dcmitype/StillImage"/>
    <dc:date>2026-06-18T17:07:00.391859</dc:date>
    <dc:format>image/svg+xml</dc:format>
    <dc:creator>
     <cc:Agent>
      <dc:title>Matplotlib v3.10.0, https://matplotlib.org/</dc:title>
     </cc:Agent>
    </dc:creator>
   </cc:Work>
  </rdf:RDF>
 </metadata>
 <defs>
  <style type="text/css">*{stroke-linejoin: round; stroke-linecap: butt}</style>
 </defs>
 <g id="figure_1">
  <g id="patch_1">
   <path d="M 0 432 
L 432 432 
L 432 0 
L 0 0 
z
" style="fill: #ffffff"/>
  </g>
  <g id="axes_1">
   <g id="patch_2">
    <path d="M 60.778182 375.967273 
L 413.248741 375.967273 
L 413.248741 12.96 
L 60.778182 12.96 
z
" style="fill: #ffffff"/>
   </g>
   <g id="patch_3">
    <path d="M 76.799571 375.967273 
L 87.480497 375.967273 
L 87.480497 156.729431 
L 76.799571 156.729431 
z
" clip-path="url(#pe249d07b8b)" style="fill: #db4437; opacity: 0.8; stroke: #3c4043; stroke-linejoin: miter"/>
   </g>
   <g id="patch_4">
    <path d="M 87.480497 375.967273 
L 98.161423 375.967273 
L 98.161423 224.187228 
L 87.480497 224.187228 
z
" clip-path="url(#pe249d07b8b)" style="fill: #f4b400; opacity: 0.8; stroke: #3c4043; stroke-linejoin: miter"/>
   </g>
   <g id="patch_5">
    <path d="M 98.161423 375.967273 
L 108.842349 375.967273 
L 108.842349 342.238374 
L 98.161423 342.238374 
z
" clip-path="url(#pe249d07b8b)" style="fill: #0f9d58; opacity: 0.8; stroke: #3c4043; stroke-linejoin: miter"/>
   </g>
   <g id="patch_6">
    <path d="M 108.842349 375.967273 
L 119.523275 375.967273 
L 119.523275 350.670599 
L 108.842349 350.670599 
z
" clip-path="url(#pe249d07b8b)" style="fill: #4285f4; opacity: 0.8; stroke: #3c4043; stroke-linejoin: miter"/>
   </g>
   <g id="patch_7">
    <path d="M 119.523275 375.967273 
L 130.204201 375.967273 
L 130.204201 359.102823 
L 119.523275 359.102823 
z
" clip-path="url(#pe249d07b8b)" style="fill: #db4437; opacity: 0.8; stroke: #3c4043; stroke-linejoin: miter"/>
   </g>
   <g id="patch_8">
    <path d="M 130.204201 375.967273 
L 140.885127 375.967273 
L 140.885127 350.670599 
L 130.204201 350.670599 
z
" clip-path="url(#pe249d07b8b)" style="fill: #f4b400; opacity: 0.8; stroke: #3c4043; stroke-linejoin: miter"/>
   </g>
   <g id="patch_9">
    <path d="M 140.885127 375.967273 
L 151.566053 375.967273 
L 151.566053 333.806149 
L 140.885127 333.806149 
z
" clip-path="url(#pe249d07b8b)" style="fill: #0f9d58; opacity: 0.8; stroke: #3c4043; stroke-linejoin: miter"/>
   </g>
   <g id="patch_10">
    <path d="M 151.566053 375.967273 
L 162.246979 375.967273 
L 162.246979 342.238374 
L 151.566053 342.238374 
z
" clip-path="url(#pe249d07b8b)" style="fill: #4285f4; opacity: 0.8; stroke: #3c4043; stroke-linejoin: miter"/>
   </g>
   <g id="patch_11">
    <path d="M 162.246979 375.967273 
L 172.927905 375.967273 
L 172.927905 333.806149 
L 162.246979 333.806149 
z
" clip-path="url(#pe249d07b8b)" style="fill: #db4437; opacity: 0.8; stroke: #3c4043; stroke-linejoin: miter"/>
   </g>
   <g id="patch_12">
    <path d="M 172.927905 375.967273 
L 183.608831 375.967273 
L 183.608831 316.9417 
L 172.927905 316.9417 
z
" clip-path="url(#pe249d07b8b)" style="fill: #f4b400; opacity: 0.8; stroke: #3c4043; stroke-linejoin: miter"/>
   </g>
   <g id="patch_13">
    <path d="M 183.608831 375.967273 
L 194.289757 375.967273 
L 194.289757 359.102823 
L 183.608831 359.102823 
z
" clip-path="url(#pe249d07b8b)" style="fill: #0f9d58; opacity: 0.8; stroke: #3c4043; stroke-linejoin: miter"/>
   </g>
   <g id="patch_14">
    <path d="M 194.289757 375.967273 
L 204.970683 375.967273 
L 204.970683 342.238374 
L 194.289757 342.238374 
z
" clip-path="url(#pe249d07b8b)" style="fill: #4285f4; opacity: 0.8; stroke: #3c4043; stroke-linejoin: miter"/>
   </g>
   <g id="patch_15">
    <path d="M 204.970683 375.967273 
L 215.651609 375.967273 
L 215.651609 316.9417 
L 204.970683 316.9417 
z
" clip-path="url(#pe249d07b8b)" style="fill: #db4437; opacity: 0.8; stroke: #3c4043; stroke-linejoin: miter"/>
   </g>
   <g id="patch_16">
    <path d="M 215.651609 375.967273 
L 226.332536 375.967273 
L 226.332536 325.373925 
L 215.651609 325.373925 
z
" clip-path="url(#pe249d07b8b)" style="fill: #f4b400; opacity: 0.8; stroke: #3c4043; stroke-linejoin: miter"/>
   </g>
   <g id="patch_17">
    <path d="M 226.332536 375.967273 
L 237.013462 375.967273 
L 237.013462 300.077251 
L 226.332536 300.077251 
z
" clip-path="url(#pe249d07b8b)" style="fill: #0f9d58; opacity: 0.8; stroke: #3c4043; stroke-linejoin: miter"/>
   </g>
   <g id="patch_18">
    <path d="M 237.013462 375.967273 
L 247.694388 375.967273 
L 247.694388 308.509475 
L 237.013462 308.509475 
z
" clip-path="url(#pe249d07b8b)" style="fill: #4285f4; opacity: 0.8; stroke: #3c4043; stroke-linejoin: miter"/>
   </g>
   <g id="patch_19">
    <path d="M 247.694388 375.967273 
L 258.375314 375.967273 
L 258.375314 249.483902 
L 247.694388 249.483902 
z
" clip-path="url(#pe249d07b8b)" style="fill: #db4437; opacity: 0.8; stroke: #3c4043; stroke-linejoin: miter"/>
   </g>
   <g id="patch_20">
    <path d="M 258.375314 375.967273 
L 269.05624 375.967273 
L 269.05624 274.780576 
L 258.375314 274.780576 
z
" clip-path="url(#pe249d07b8b)" style="fill: #f4b400; opacity: 0.8; stroke: #3c4043; stroke-linejoin: miter"/>
   </g>
   <g id="patch_21">
    <path d="M 269.05624 375.967273 
L 279.737166 375.967273 
L 279.737166 198.890554 
L 269.05624 198.890554 
z
" clip-path="url(#pe249d07b8b)" style="fill: #0f9d58; opacity: 0.8; stroke: #3c4043; stroke-linejoin: miter"/>
   </g>
   <g id="patch_22">
    <path d="M 279.737166 375.967273 
L 290.418092 375.967273 
L 290.418092 173.59388 
L 279.737166 173.59388 
z
" clip-path="url(#pe249d07b8b)" style="fill: #4285f4; opacity: 0.8; stroke: #3c4043; stroke-linejoin: miter"/>
   </g>
   <g id="patch_23">
    <path d="M 290.418092 375.967273 
L 301.099018 375.967273 
L 301.099018 114.568307 
L 290.418092 114.568307 
z
" clip-path="url(#pe249d07b8b)" style="fill: #db4437; opacity: 0.8; stroke: #3c4043; stroke-linejoin: miter"/>
   </g>
   <g id="patch_24">
    <path d="M 301.099018 375.967273 
L 311.779944 375.967273 
L 311.779944 106.136083 
L 301.099018 106.136083 
z
" clip-path="url(#pe249d07b8b)" style="fill: #f4b400; opacity: 0.8; stroke: #3c4043; stroke-linejoin: miter"/>
   </g>
   <g id="patch_25">
    <path d="M 311.779944 375.967273 
L 322.46087 375.967273 
L 322.46087 30.246061 
L 311.779944 30.246061 
z
" clip-path="url(#pe249d07b8b)" style="fill: #0f9d58; opacity: 0.8; stroke: #3c4043; stroke-linejoin: miter"/>
   </g>
   <g id="patch_26">
    <path d="M 322.46087 375.967273 
L 333.141796 375.967273 
L 333.141796 123.000532 
L 322.46087 123.000532 
z
" clip-path="url(#pe249d07b8b)" style="fill: #4285f4; opacity: 0.8; stroke: #3c4043; stroke-linejoin: miter"/>
   </g>
   <g id="patch_27">
    <path d="M 333.141796 375.967273 
L 343.822722 375.967273 
L 343.822722 30.246061 
L 333.141796 30.246061 
z
" clip-path="url(#pe249d07b8b)" style="fill: #db4437; opacity: 0.8; stroke: #3c4043; stroke-linejoin: miter"/>
   </g>
   <g id="patch_28">
    <path d="M 343.822722 375.967273 
L 354.503648 375.967273 
L 354.503648 215.755004 
L 343.822722 215.755004 
z
" clip-path="url(#pe249d07b8b)" style="fill: #f4b400; opacity: 0.8; stroke: #3c4043; stroke-linejoin: miter"/>
   </g>
   <g id="patch_29">
    <path d="M 354.503648 375.967273 
L 365.184574 375.967273 
L 365.184574 333.806149 
L 354.503648 333.806149 
z
" clip-path="url(#pe249d07b8b)" style="fill: #0f9d58; opacity: 0.8; stroke: #3c4043; stroke-linejoin: miter"/>
   </g>
   <g id="patch_30">
    <path d="M 365.184574 375.967273 
L 375.8655 375.967273 
L 375.8655 342.238374 
L 365.184574 342.238374 
z
" clip-path="url(#pe249d07b8b)" style="fill: #4285f4; opacity: 0.8; stroke: #3c4043; stroke-linejoin: miter"/>
   </g>
   <g id="patch_31">
    <path d="M 375.8655 375.967273 
L 386.546426 375.967273 
L 386.546426 342.238374 
L 375.8655 342.238374 
z
" clip-path="url(#pe249d07b8b)" style="fill: #db4437; opacity: 0.8; stroke: #3c4043; stroke-linejoin: miter"/>
   </g>
   <g id="patch_32">
    <path d="M 386.546426 375.967273 
L 397.227352 375.967273 
L 397.227352 308.509475 
L 386.546426 308.509475 
z
" clip-path="url(#pe249d07b8b)" style="fill: #f4b400; opacity: 0.8; stroke: #3c4043; stroke-linejoin: miter"/>
   </g>
   <g id="matplotlib.axis_1">
    <g id="xtick_1">
     <g id="line2d_1">
      <defs>
       <path id="m16442b8a70" d="M 0 0 
L 0 3.5 
" style="stroke: #000000; stroke-width: 0.8"/>
      </defs>
      <g>
       <use xlink:href="#m16442b8a70" x="80.229597" y="375.967273" style="stroke: #000000; stroke-width: 0.8"/>
      </g>
     </g>
     <g id="text_1">
      <!-- -150.0 -->
      <g transform="translate(57.664441 393.605085) scale(0.14 -0.14)">
       <defs>
        <path id="DejaVuSans-2d" d="M 313 2009 
L 1997 2009 
L 1997 1497 
L 313 1497 
L 313 2009 
z
" transform="scale(0.015625)"/>
        <path id="DejaVuSans-31" d="M 794 531 
L 1825 531 
L 1825 4091 
L 703 3866 
L 703 4441 
L 1819 4666 
L 2450 4666 
L 2450 531 
L 3481 531 
L 3481 0 
L 794 0 
L 794 531 
z
" transform="scale(0.015625)"/>
        <path id="DejaVuSans-35" d="M 691 4666 
L 3169 4666 
L 3169 4134 
L 1269 4134 
L 1269 2991 
Q 1406 3038 1543 3061 
Q 1681 3084 1819 3084 
Q 2600 3084 3056 2656 
Q 3513 2228 3513 1497 
Q 3513 744 3044 326 
Q 2575 -91 1722 -91 
Q 1428 -91 1123 -41 
Q 819 9 494 109 
L 494 744 
Q 775 591 1075 516 
Q 1375 441 1709 441 
Q 2250 441 2565 725 
Q 2881 1009 2881 1497 
Q 2881 1984 2565 2268 
Q 2250 2553 1709 2553 
Q 1456 2553 1204 2497 
Q 953 2441 691 2322 
L 691 4666 
z
" transform="scale(0.015625)"/>
        <path id="DejaVuSans-30" d="M 2034 4250 
Q 1547 4250 1301 3770 
Q 1056 3291 1056 2328 
Q 1056 1369 1301 889 
Q 1547 409 2034 409 
Q 2525 409 2770 889 
Q 3016 1369 3016 2328 
Q 3016 3291 2770 3770 
Q 2525 4250 2034 4250 
z
M 2034 4750 
Q 2819 4750 3233 4129 
Q 3647 3509 3647 2328 
Q 3647 1150 3233 529 
Q 2819 -91 2034 -91 
Q 1250 -91 836 529 
Q 422 1150 422 2328 
Q 422 3509 836 4129 
Q 1250 4750 2034 4750 
z
" transform="scale(0.015625)"/>
        <path id="DejaVuSans-2e" d="M 684 794 
L 1344 794 
L 1344 0 
L 684 0 
L 684 794 
z
" transform="scale(0.015625)"/>
       </defs>
       <use xlink:href="#DejaVuSans-2d"/>
       <use xlink:href="#DejaVuSans-31" transform="translate(36.083984 0)"/>
       <use xlink:href="#DejaVuSans-35" transform="translate(99.707031 0)"/>
       <use xlink:href="#DejaVuSans-30" transform="translate(163.330078 0)"/>
       <use xlink:href="#DejaVuSans-2e" transform="translate(226.953125 0)"/>
       <use xlink:href="#DejaVuSans-30" transform="translate(258.740234 0)"/>
      </g>
     </g>
    </g>
    <g id="xtick_2">
     <g id="line2d_2">
      <g>
       <use xlink:href="#m16442b8a70" x="120.56798" y="375.967273" style="stroke: #000000; stroke-width: 0.8"/>
      </g>
     </g>
     <g id="text_2">
      <!-- -125.0 -->
      <g transform="translate(98.002823 393.605085) scale(0.14 -0.14)">
       <defs>
        <path id="DejaVuSans-32" d="M 1228 531 
L 3431 531 
L 3431 0 
L 469 0 
L 469 531 
Q 828 903 1448 1529 
Q 2069 2156 2228 2338 
Q 2531 2678 2651 2914 
Q 2772 3150 2772 3378 
Q 2772 3750 2511 3984 
Q 2250 4219 1831 4219 
Q 1534 4219 1204 4116 
Q 875 4013 500 3803 
L 500 4441 
Q 881 4594 1212 4672 
Q 1544 4750 1819 4750 
Q 2544 4750 2975 4387 
Q 3406 4025 3406 3419 
Q 3406 3131 3298 2873 
Q 3191 2616 2906 2266 
Q 2828 2175 2409 1742 
Q 1991 1309 1228 531 
z
" transform="scale(0.015625)"/>
       </defs>
       <use xlink:href="#DejaVuSans-2d"/>
       <use xlink:href="#DejaVuSans-31" transform="translate(36.083984 0)"/>
       <use xlink:href="#DejaVuSans-32" transform="translate(99.707031 0)"/>
       <use xlink:href="#DejaVuSans-35" transform="translate(163.330078 0)"/>
       <use xlink:href="#DejaVuSans-2e" transform="translate(226.953125 0)"/>
       <use xlink:href="#DejaVuSans-30" transform="translate(258.740234 0)"/>
      </g>
     </g>
    </g>
    <g id="xtick_3">
     <g id="line2d_3">
      <g>
       <use xlink:href="#m16442b8a70" x="160.906362" y="375.967273" style="stroke: #000000; stroke-width: 0.8"/>
      </g>
     </g>
     <g id="text_3">
      <!-- -100.0 -->
      <g transform="translate(138.341206 393.605085) scale(0.14 -0.14)">
       <use xlink:href="#DejaVuSans-2d"/>
       <use xlink:href="#DejaVuSans-31" transform="translate(36.083984 0)"/>
       <use xlink:href="#DejaVuSans-30" transform="translate(99.707031 0)"/>
       <use xlink:href="#DejaVuSans-30" transform="translate(163.330078 0)"/>
       <use xlink:href="#DejaVuSans-2e" transform="translate(226.953125 0)"/>
       <use xlink:href="#DejaVuSans-30" transform="translate(258.740234 0)"/>
      </g>
     </g>
    </g>
    <g id="xtick_4">
     <g id="line2d_4">
      <g>
       <use xlink:href="#m16442b8a70" x="201.244744" y="375.967273" style="stroke: #000000; stroke-width: 0.8"/>
      </g>
     </g>
     <g id="text_4">
      <!-- -75.0 -->
      <g transform="translate(183.133338 393.605085) scale(0.14 -0.14)">
       <defs>
        <path id="DejaVuSans-37" d="M 525 4666 
L 3525 4666 
L 3525 4397 
L 1831 0 
L 1172 0 
L 2766 4134 
L 525 4134 
L 525 4666 
z
" transform="scale(0.015625)"/>
       </defs>
       <use xlink:href="#DejaVuSans-2d"/>
       <use xlink:href="#DejaVuSans-37" transform="translate(36.083984 0)"/>
       <use xlink:href="#DejaVuSans-35" transform="translate(99.707031 0)"/>
       <use xlink:href="#DejaVuSans-2e" transform="translate(163.330078 0)"/>
       <use xlink:href="#DejaVuSans-30" transform="translate(195.117188 0)"/>
      </g>
     </g>
    </g>
    <g id="xtick_5">
     <g id="line2d_5">
      <g>
       <use xlink:href="#m16442b8a70" x="241.583127" y="375.967273" style="stroke: #000000; stroke-width: 0.8"/>
      </g>
     </g>
     <g id="text_5">
      <!-- -50.0 -->
      <g transform="translate(223.471721 393.605085) scale(0.14 -0.14)">
       <use xlink:href="#DejaVuSans-2d"/>
       <use xlink:href="#DejaVuSans-35" transform="translate(36.083984 0)"/>
       <use xlink:href="#DejaVuSans-30" transform="translate(99.707031 0)"/>
       <use xlink:href="#DejaVuSans-2e" transform="translate(163.330078 0)"/>
       <use xlink:href="#DejaVuSans-30" transform="translate(195.117188 0)"/>
      </g>
     </g>
    </g>
    <g id="xtick_6">
     <g id="line2d_6">
      <g>
       <use xlink:href="#m16442b8a70" x="281.921509" y="375.967273" style="stroke: #000000; stroke-width: 0.8"/>
      </g>
     </g>
     <g id="text_6">
      <!-- -25.0 -->
      <g transform="translate(263.810103 393.605085) scale(0.14 -0.14)">
       <use xlink:href="#DejaVuSans-2d"/>
       <use xlink:href="#DejaVuSans-32" transform="translate(36.083984 0)"/>
       <use xlink:href="#DejaVuSans-35" transform="translate(99.707031 0)"/>
       <use xlink:href="#DejaVuSans-2e" transform="translate(163.330078 0)"/>
       <use xlink:href="#DejaVuSans-30" transform="translate(195.117188 0)"/>
      </g>
     </g>
    </g>
    <g id="xtick_7">
     <g id="line2d_7">
      <g>
       <use xlink:href="#m16442b8a70" x="322.259891" y="375.967273" style="stroke: #000000; stroke-width: 0.8"/>
      </g>
     </g>
     <g id="text_7">
      <!-- 0.0 -->
      <g transform="translate(311.127704 393.605085) scale(0.14 -0.14)">
       <use xlink:href="#DejaVuSans-30"/>
       <use xlink:href="#DejaVuSans-2e" transform="translate(63.623047 0)"/>
       <use xlink:href="#DejaVuSans-30" transform="translate(95.410156 0)"/>
      </g>
     </g>
    </g>
    <g id="xtick_8">
     <g id="line2d_8">
      <g>
       <use xlink:href="#m16442b8a70" x="362.598274" y="375.967273" style="stroke: #000000; stroke-width: 0.8"/>
      </g>
     </g>
     <g id="text_8">
      <!-- 25.0 -->
      <g transform="translate(347.012336 393.605085) scale(0.14 -0.14)">
       <use xlink:href="#DejaVuSans-32"/>
       <use xlink:href="#DejaVuSans-35" transform="translate(63.623047 0)"/>
       <use xlink:href="#DejaVuSans-2e" transform="translate(127.246094 0)"/>
       <use xlink:href="#DejaVuSans-30" transform="translate(159.033203 0)"/>
      </g>
     </g>
    </g>
    <g id="xtick_9">
     <g id="line2d_9">
      <g>
       <use xlink:href="#m16442b8a70" x="402.936656" y="375.967273" style="stroke: #000000; stroke-width: 0.8"/>
      </g>
     </g>
     <g id="text_9">
      <!-- 50.0 -->
      <g transform="translate(387.350719 393.605085) scale(0.14 -0.14)">
       <use xlink:href="#DejaVuSans-35"/>
       <use xlink:href="#DejaVuSans-30" transform="translate(63.623047 0)"/>
       <use xlink:href="#DejaVuSans-2e" transform="translate(127.246094 0)"/>
       <use xlink:href="#DejaVuSans-30" transform="translate(159.033203 0)"/>
      </g>
     </g>
    </g>
    <g id="text_10">
     <!-- B -->
     <g transform="translate(230.152524 415.713523) scale(0.2 -0.2)">
      <defs>
       <path id="DejaVuSans-42" d="M 1259 2228 
L 1259 519 
L 2272 519 
Q 2781 519 3026 730 
Q 3272 941 3272 1375 
Q 3272 1813 3026 2020 
Q 2781 2228 2272 2228 
L 1259 2228 
z
M 1259 4147 
L 1259 2741 
L 2194 2741 
Q 2656 2741 2882 2914 
Q 3109 3088 3109 3444 
Q 3109 3797 2882 3972 
Q 2656 4147 2194 4147 
L 1259 4147 
z
M 628 4666 
L 2241 4666 
Q 2963 4666 3353 4366 
Q 3744 4066 3744 3513 
Q 3744 3084 3544 2831 
Q 3344 2578 2956 2516 
Q 3422 2416 3680 2098 
Q 3938 1781 3938 1306 
Q 3938 681 3513 340 
Q 3088 0 2303 0 
L 628 0 
L 628 4666 
z
" transform="scale(0.015625)"/>
      </defs>
      <use xlink:href="#DejaVuSans-42"/>
     </g>
    </g>
   </g>
   <g id="matplotlib.axis_2">
    <g id="ytick_1">
     <g id="line2d_10">
      <defs>
       <path id="m442b588b84" d="M 0 0 
L -3.5 0 
" style="stroke: #000000; stroke-width: 0.8"/>
      </defs>
      <g>
       <use xlink:href="#m442b588b84" x="60.778182" y="375.967273" style="stroke: #000000; stroke-width: 0.8"/>
      </g>
     </g>
     <g id="text_11">
      <!-- 0 -->
      <g transform="translate(44.870682 381.286179) scale(0.14 -0.14)">
       <use xlink:href="#DejaVuSans-30"/>
      </g>
     </g>
    </g>
    <g id="ytick_2">
     <g id="line2d_11">
      <g>
       <use xlink:href="#m442b588b84" x="60.778182" y="333.806149" style="stroke: #000000; stroke-width: 0.8"/>
      </g>
     </g>
     <g id="text_12">
      <!-- 5 -->
      <g transform="translate(44.870682 339.125056) scale(0.14 -0.14)">
       <use xlink:href="#DejaVuSans-35"/>
      </g>
     </g>
    </g>
    <g id="ytick_3">
     <g id="line2d_12">
      <g>
       <use xlink:href="#m442b588b84" x="60.778182" y="291.645026" style="stroke: #000000; stroke-width: 0.8"/>
      </g>
     </g>
     <g id="text_13">
      <!-- 10 -->
      <g transform="translate(35.963182 296.963932) scale(0.14 -0.14)">
       <use xlink:href="#DejaVuSans-31"/>
       <use xlink:href="#DejaVuSans-30" transform="translate(63.623047 0)"/>
      </g>
     </g>
    </g>
    <g id="ytick_4">
     <g id="line2d_13">
      <g>
       <use xlink:href="#m442b588b84" x="60.778182" y="249.483902" style="stroke: #000000; stroke-width: 0.8"/>
      </g>
     </g>
     <g id="text_14">
      <!-- 15 -->
      <g transform="translate(35.963182 254.802809) scale(0.14 -0.14)">
       <use xlink:href="#DejaVuSans-31"/>
       <use xlink:href="#DejaVuSans-35" transform="translate(63.623047 0)"/>
      </g>
     </g>
    </g>
    <g id="ytick_5">
     <g id="line2d_14">
      <g>
       <use xlink:href="#m442b588b84" x="60.778182" y="207.322779" style="stroke: #000000; stroke-width: 0.8"/>
      </g>
     </g>
     <g id="text_15">
      <!-- 20 -->
      <g transform="translate(35.963182 212.641685) scale(0.14 -0.14)">
       <use xlink:href="#DejaVuSans-32"/>
       <use xlink:href="#DejaVuSans-30" transform="translate(63.623047 0)"/>
      </g>
     </g>
    </g>
    <g id="ytick_6">
     <g id="line2d_15">
      <g>
       <use xlink:href="#m442b588b84" x="60.778182" y="165.161656" style="stroke: #000000; stroke-width: 0.8"/>
      </g>
     </g>
     <g id="text_16">
      <!-- 25 -->
      <g transform="translate(35.963182 170.480562) scale(0.14 -0.14)">
       <use xlink:href="#DejaVuSans-32"/>
       <use xlink:href="#DejaVuSans-35" transform="translate(63.623047 0)"/>
      </g>
     </g>
    </g>
    <g id="ytick_7">
     <g id="line2d_16">
      <g>
       <use xlink:href="#m442b588b84" x="60.778182" y="123.000532" style="stroke: #000000; stroke-width: 0.8"/>
      </g>
     </g>
     <g id="text_17">
      <!-- 30 -->
      <g transform="translate(35.963182 128.319438) scale(0.14 -0.14)">
       <defs>
        <path id="DejaVuSans-33" d="M 2597 2516 
Q 3050 2419 3304 2112 
Q 3559 1806 3559 1356 
Q 3559 666 3084 287 
Q 2609 -91 1734 -91 
Q 1441 -91 1130 -33 
Q 819 25 488 141 
L 488 750 
Q 750 597 1062 519 
Q 1375 441 1716 441 
Q 2309 441 2620 675 
Q 2931 909 2931 1356 
Q 2931 1769 2642 2001 
Q 2353 2234 1838 2234 
L 1294 2234 
L 1294 2753 
L 1863 2753 
Q 2328 2753 2575 2939 
Q 2822 3125 2822 3475 
Q 2822 3834 2567 4026 
Q 2313 4219 1838 4219 
Q 1578 4219 1281 4162 
Q 984 4106 628 3988 
L 628 4550 
Q 988 4650 1302 4700 
Q 1616 4750 1894 4750 
Q 2613 4750 3031 4423 
Q 3450 4097 3450 3541 
Q 3450 3153 3228 2886 
Q 3006 2619 2597 2516 
z
" transform="scale(0.015625)"/>
       </defs>
       <use xlink:href="#DejaVuSans-33"/>
       <use xlink:href="#DejaVuSans-30" transform="translate(63.623047 0)"/>
      </g>
     </g>
    </g>
    <g id="ytick_8">
     <g id="line2d_17">
      <g>
       <use xlink:href="#m442b588b84" x="60.778182" y="80.839409" style="stroke: #000000; stroke-width: 0.8"/>
      </g>
     </g>
     <g id="text_18">
      <!-- 35 -->
      <g transform="translate(35.963182 86.158315) scale(0.14 -0.14)">
       <use xlink:href="#DejaVuSans-33"/>
       <use xlink:href="#DejaVuSans-35" transform="translate(63.623047 0)"/>
      </g>
     </g>
    </g>
    <g id="ytick_9">
     <g id="line2d_18">
      <g>
       <use xlink:href="#m442b588b84" x="60.778182" y="38.678285" style="stroke: #000000; stroke-width: 0.8"/>
      </g>
     </g>
     <g id="text_19">
      <!-- 40 -->
      <g transform="translate(35.963182 43.997192) scale(0.14 -0.14)">
       <defs>
        <path id="DejaVuSans-34" d="M 2419 4116 
L 825 1625 
L 2419 1625 
L 2419 4116 
z
M 2253 4666 
L 3047 4666 
L 3047 1625 
L 3713 1625 
L 3713 1100 
L 3047 1100 
L 3047 0 
L 2419 0 
L 2419 1100 
L 313 1100 
L 313 1709 
L 2253 4666 
z
" transform="scale(0.015625)"/>
       </defs>
       <use xlink:href="#DejaVuSans-34"/>
       <use xlink:href="#DejaVuSans-30" transform="translate(63.623047 0)"/>
      </g>
     </g>
    </g>
    <g id="text_20">
     <!-- count -->
     <g transform="translate(27.803807 222.676136) rotate(-90) scale(0.2 -0.2)">
      <defs>
       <path id="DejaVuSans-63" d="M 3122 3366 
L 3122 2828 
Q 2878 2963 2633 3030 
Q 2388 3097 2138 3097 
Q 1578 3097 1268 2742 
Q 959 2388 959 1747 
Q 959 1106 1268 751 
Q 1578 397 2138 397 
Q 2388 397 2633 464 
Q 2878 531 3122 666 
L 3122 134 
Q 2881 22 2623 -34 
Q 2366 -91 2075 -91 
Q 1284 -91 818 406 
Q 353 903 353 1747 
Q 353 2603 823 3093 
Q 1294 3584 2113 3584 
Q 2378 3584 2631 3529 
Q 2884 3475 3122 3366 
z
" transform="scale(0.015625)"/>
       <path id="DejaVuSans-6f" d="M 1959 3097 
Q 1497 3097 1228 2736 
Q 959 2375 959 1747 
Q 959 1119 1226 758 
Q 1494 397 1959 397 
Q 2419 397 2687 759 
Q 2956 1122 2956 1747 
Q 2956 2369 2687 2733 
Q 2419 3097 1959 3097 
z
M 1959 3584 
Q 2709 3584 3137 3096 
Q 3566 2609 3566 1747 
Q 3566 888 3137 398 
Q 2709 -91 1959 -91 
Q 1206 -91 779 398 
Q 353 888 353 1747 
Q 353 2609 779 3096 
Q 1206 3584 1959 3584 
z
" transform="scale(0.015625)"/>
       <path id="DejaVuSans-75" d="M 544 1381 
L 544 3500 
L 1119 3500 
L 1119 1403 
Q 1119 906 1312 657 
Q 1506 409 1894 409 
Q 2359 409 2629 706 
Q 2900 1003 2900 1516 
L 2900 3500 
L 3475 3500 
L 3475 0 
L 2900 0 
L 2900 538 
Q 2691 219 2414 64 
Q 2138 -91 1772 -91 
Q 1169 -91 856 284 
Q 544 659 544 1381 
z
M 1991 3584 
L 1991 3584 
z
" transform="scale(0.015625)"/>
       <path id="DejaVuSans-6e" d="M 3513 2113 
L 3513 0 
L 2938 0 
L 2938 2094 
Q 2938 2591 2744 2837 
Q 2550 3084 2163 3084 
Q 1697 3084 1428 2787 
Q 1159 2491 1159 1978 
L 1159 0 
L 581 0 
L 581 3500 
L 1159 3500 
L 1159 2956 
Q 1366 3272 1645 3428 
Q 1925 3584 2291 3584 
Q 2894 3584 3203 3211 
Q 3513 2838 3513 2113 
z
" transform="scale(0.015625)"/>
       <path id="DejaVuSans-74" d="M 1172 4494 
L 1172 3500 
L 2356 3500 
L 2356 3053 
L 1172 3053 
L 1172 1153 
Q 1172 725 1289 603 
Q 1406 481 1766 481 
L 2356 481 
L 2356 0 
L 1766 0 
Q 1100 0 847 248 
Q 594 497 594 1153 
L 594 3053 
L 172 3053 
L 172 3500 
L 594 3500 
L 594 4494 
L 1172 4494 
z
" transform="scale(0.015625)"/>
      </defs>
      <use xlink:href="#DejaVuSans-63"/>
      <use xlink:href="#DejaVuSans-6f" transform="translate(54.980469 0)"/>
      <use xlink:href="#DejaVuSans-75" transform="translate(116.162109 0)"/>
      <use xlink:href="#DejaVuSans-6e" transform="translate(179.541016 0)"/>
      <use xlink:href="#DejaVuSans-74" transform="translate(242.919922 0)"/>
     </g>
    </g>
   </g>
   <g id="line2d_19">
    <path d="M 296.279004 375.967273 
L 296.279004 12.96 
" clip-path="url(#pe249d07b8b)" style="fill: none; stroke: #4285f4; stroke-width: 1.6; stroke-linecap: square"/>
   </g>
   <g id="patch_33">
    <path d="M 60.778182 375.967273 
L 60.778182 12.96 
" style="fill: none; stroke: #000000; stroke-width: 1.5; stroke-linejoin: miter; stroke-linecap: square"/>
   </g>
   <g id="patch_34">
    <path d="M 413.248741 375.967273 
L 413.248741 12.96 
" style="fill: none; stroke: #000000; stroke-width: 1.5; stroke-linejoin: miter; stroke-linecap: square"/>
   </g>
   <g id="patch_35">
    <path d="M 60.778182 375.967273 
L 413.248741 375.967273 
" style="fill: none; stroke: #000000; stroke-width: 1.5; stroke-linejoin: miter; stroke-linecap: square"/>
   </g>
   <g id="patch_36">
    <path d="M 60.778182 12.96 
L 413.248741 12.96 
" style="fill: none; stroke: #000000; stroke-width: 1.5; stroke-linejoin: miter; stroke-linecap: square"/>
   </g>
   <g id="legend_1">
    <g id="line2d_20">
     <path d="M 308.968429 31.297812 
L 322.968429 31.297812 
L 336.968429 31.297812 
" style="fill: none; stroke: #000000; stroke-width: 1.6; stroke-linecap: square"/>
    </g>
    <g id="text_21">
     <!-- median -->
     <g transform="translate(348.168429 36.197812) scale(0.14 -0.14)">
      <defs>
       <path id="DejaVuSans-6d" d="M 3328 2828 
Q 3544 3216 3844 3400 
Q 4144 3584 4550 3584 
Q 5097 3584 5394 3201 
Q 5691 2819 5691 2113 
L 5691 0 
L 5113 0 
L 5113 2094 
Q 5113 2597 4934 2840 
Q 4756 3084 4391 3084 
Q 3944 3084 3684 2787 
Q 3425 2491 3425 1978 
L 3425 0 
L 2847 0 
L 2847 2094 
Q 2847 2600 2669 2842 
Q 2491 3084 2119 3084 
Q 1678 3084 1418 2786 
Q 1159 2488 1159 1978 
L 1159 0 
L 581 0 
L 581 3500 
L 1159 3500 
L 1159 2956 
Q 1356 3278 1631 3431 
Q 1906 3584 2284 3584 
Q 2666 3584 2933 3390 
Q 3200 3197 3328 2828 
z
" transform="scale(0.015625)"/>
       <path id="DejaVuSans-65" d="M 3597 1894 
L 3597 1613 
L 953 1613 
Q 991 1019 1311 708 
Q 1631 397 2203 397 
Q 2534 397 2845 478 
Q 3156 559 3463 722 
L 3463 178 
Q 3153 47 2828 -22 
Q 2503 -91 2169 -91 
Q 1331 -91 842 396 
Q 353 884 353 1716 
Q 353 2575 817 3079 
Q 1281 3584 2069 3584 
Q 2775 3584 3186 3129 
Q 3597 2675 3597 1894 
z
M 3022 2063 
Q 3016 2534 2758 2815 
Q 2500 3097 2075 3097 
Q 1594 3097 1305 2825 
Q 1016 2553 972 2059 
L 3022 2063 
z
" transform="scale(0.015625)"/>
       <path id="DejaVuSans-64" d="M 2906 2969 
L 2906 4863 
L 3481 4863 
L 3481 0 
L 2906 0 
L 2906 525 
Q 2725 213 2448 61 
Q 2172 -91 1784 -91 
Q 1150 -91 751 415 
Q 353 922 353 1747 
Q 353 2572 751 3078 
Q 1150 3584 1784 3584 
Q 2172 3584 2448 3432 
Q 2725 3281 2906 2969 
z
M 947 1747 
Q 947 1113 1208 752 
Q 1469 391 1925 391 
Q 2381 391 2643 752 
Q 2906 1113 2906 1747 
Q 2906 2381 2643 2742 
Q 2381 3103 1925 3103 
Q 1469 3103 1208 2742 
Q 947 2381 947 1747 
z
" transform="scale(0.015625)"/>
       <path id="DejaVuSans-69" d="M 603 3500 
L 1178 3500 
L 1178 0 
L 603 0 
L 603 3500 
z
M 603 4863 
L 1178 4863 
L 1178 4134 
L 603 4134 
L 603 4863 
z
" transform="scale(0.015625)"/>
       <path id="DejaVuSans-61" d="M 2194 1759 
Q 1497 1759 1228 1600 
Q 959 1441 959 1056 
Q 959 750 1161 570 
Q 1363 391 1709 391 
Q 2188 391 2477 730 
Q 2766 1069 2766 1631 
L 2766 1759 
L 2194 1759 
z
M 3341 1997 
L 3341 0 
L 2766 0 
L 2766 531 
Q 2569 213 2275 61 
Q 1981 -91 1556 -91 
Q 1019 -91 701 211 
Q 384 513 384 1019 
Q 384 1609 779 1909 
Q 1175 2209 1959 2209 
L 2766 2209 
L 2766 2266 
Q 2766 2663 2505 2880 
Q 2244 3097 1772 3097 
Q 1472 3097 1187 3025 
Q 903 2953 641 2809 
L 641 3341 
Q 956 3463 1253 3523 
Q 1550 3584 1831 3584 
Q 2591 3584 2966 3190 
Q 3341 2797 3341 1997 
z
" transform="scale(0.015625)"/>
      </defs>
      <use xlink:href="#DejaVuSans-6d"/>
      <use xlink:href="#DejaVuSans-65" transform="translate(97.412109 0)"/>
      <use xlink:href="#DejaVuSans-64" transform="translate(158.935547 0)"/>
      <use xlink:href="#DejaVuSans-69" transform="translate(222.412109 0)"/>
      <use xlink:href="#DejaVuSans-61" transform="translate(250.195312 0)"/>
      <use xlink:href="#DejaVuSans-6e" transform="translate(311.474609 0)"/>
     </g>
    </g>
   </g>
  </g>
 </g>
 <defs>
  <clipPath id="pe249d07b8b">
   <rect x="60.778182" y="12.96" width="352.470559" height="363.007273"/>
  </clipPath>
 </defs>
</svg>
