<?xml version="1.0" encoding="utf-8" standalone="no"?>
<!DOCTYPE svg PUBLIC "-//W3C//DTD SVG 1.1//EN"
  "http://www.w3.org/Graphics/SVG/1.1/DTD/svg11.dtd">
<svg xmlns:xlink="http://www.w3.org/1999/xlink" width="720pt" height="432pt" viewBox="0 0 720 432" xmlns="http://www.w3.org/2000/svg" version="1.1">
 <metadata>
  <rdf:RDF xmlns:dc="http://purl.org/dc/elements/1.1/" xmlns:cc="http://creativecommons.org/ns#" xmlns:rdf="http://www.w3.org/1999/02/22-rdf-syntax-ns#">
   <cc:Work>
    <dc:type rdf:resource="http://purl.org/dc/dcmitype/StillImage"/>
    <dc:date>2026-06-16T16:16:29.316684</dc:date>
    <dc:format>image/svg+xml</dc:format>
    <dc:creator>
     <cc:Agent>
      <dc:title>Matplotlib v3.10.0, https://matplotlib.org/</dc:title>
     </cc:Agent>
    </dc:creator>
   </cc:Work>
  </rdf:RDF>
 </metadata>
 <defs>
  <style type="text/css">*{stroke-linejoin: round; stroke-linecap: butt}</style>
 </defs>
 <g id="figure_1">
  <g id="patch_1">
   <path d="M 0 432 
L 720 432 
L 720 0 
L 0 0 
z
" style="fill: #ffffff"/>
  </g>
  <g id="axes_1">
   <g id="patch_2">
    <path d="M 90 384.48 
L 648 384.48 
L 648 51.84 
L 90 51.84 
z
" style="fill: #ffffff"/>
   </g>
   <g id="FillBetweenPolyCollection_1">
    <defs>
     <path id="m9732b41c5e" d="M 115.363636 -365.04 
L 115.363636 -360.763317 
L 117.060201 -358.839954 
L 118.756765 -356.924085 
L 120.453329 -355.023497 
L 122.149894 -353.135814 
L 123.846458 -351.260887 
L 125.543022 -349.398567 
L 127.239587 -347.54871 
L 128.936151 -345.696247 
L 130.632715 -343.858889 
L 132.329279 -342.042436 
L 134.025844 -340.237841 
L 135.722408 -338.444793 
L 137.418972 -336.663708 
L 139.115537 -334.91229 
L 140.812101 -333.147593 
L 142.508665 -331.39285 
L 144.20523 -329.649934 
L 145.901794 -327.92355 
L 147.598358 -326.207906 
L 149.294922 -324.502892 
L 150.991487 -322.808399 
L 152.688051 -321.12432 
L 154.384615 -319.448632 
L 156.08118 -317.780036 
L 157.777744 -316.121865 
L 159.474308 -314.474009 
L 161.170873 -312.836358 
L 162.867437 -311.20883 
L 164.564001 -309.591349 
L 166.260566 -307.986521 
L 167.95713 -306.39448 
L 169.653694 -304.812065 
L 171.350258 -303.23915 
L 173.046823 -301.675649 
L 174.743387 -300.121484 
L 176.439951 -298.575464 
L 178.136516 -297.033362 
L 179.83308 -295.505446 
L 181.529644 -293.989202 
L 183.226209 -292.478304 
L 184.922773 -290.967434 
L 186.619337 -289.465229 
L 188.315901 -287.981131 
L 190.012466 -286.505663 
L 191.70903 -285.028366 
L 193.405594 -283.568756 
L 195.102159 -282.117504 
L 196.798723 -280.674418 
L 198.495287 -279.224748 
L 200.191852 -277.786624 
L 201.888416 -276.364682 
L 203.58498 -274.950982 
L 205.281545 -273.545195 
L 206.978109 -272.145998 
L 208.674673 -270.73234 
L 210.371237 -269.342496 
L 212.067802 -267.953206 
L 213.764366 -266.567766 
L 215.46093 -265.190439 
L 217.157495 -263.821139 
L 218.854059 -262.459781 
L 220.550623 -261.10628 
L 222.247188 -259.760554 
L 223.943752 -258.422522 
L 225.640316 -257.092102 
L 227.336881 -255.769398 
L 229.033445 -254.451211 
L 230.730009 -253.140216 
L 232.426573 -251.836651 
L 234.123138 -250.540438 
L 235.819702 -249.256638 
L 237.516266 -247.98024 
L 239.212831 -246.706963 
L 240.909395 -245.450122 
L 242.605959 -244.191721 
L 244.302524 -242.940215 
L 245.999088 -241.695504 
L 247.695652 -240.457776 
L 249.392216 -239.23237 
L 251.088781 -238.009906 
L 252.785345 -236.795479 
L 254.481909 -235.587367 
L 256.178474 -234.385508 
L 257.875038 -233.189877 
L 259.571602 -232.000716 
L 261.268167 -230.820369 
L 262.964731 -229.640182 
L 264.661295 -228.468678 
L 266.35786 -227.303085 
L 268.054424 -226.14335 
L 269.750988 -224.989419 
L 271.447552 -223.841238 
L 273.144117 -222.698756 
L 274.840681 -221.56192 
L 276.537245 -220.430019 
L 278.23381 -219.300026 
L 279.930374 -218.175616 
L 281.626938 -217.052997 
L 283.323503 -215.932751 
L 285.020067 -214.817919 
L 286.716631 -213.708458 
L 288.413196 -212.604323 
L 290.10976 -211.505471 
L 291.806324 -210.41887 
L 293.502888 -209.337666 
L 295.199453 -208.261638 
L 296.896017 -207.190739 
L 298.592581 -206.12581 
L 300.289146 -205.066147 
L 301.98571 -204.010962 
L 303.682274 -202.957442 
L 305.378839 -201.912145 
L 307.075403 -200.872061 
L 308.771967 -199.836779 
L 310.468531 -198.806259 
L 312.165096 -197.780461 
L 313.86166 -196.759346 
L 315.558224 -195.739826 
L 317.254789 -194.728479 
L 318.951353 -193.715976 
L 320.647917 -192.714481 
L 322.344482 -191.717522 
L 324.041046 -190.718841 
L 325.73761 -189.725914 
L 327.434175 -188.738328 
L 329.130739 -187.747876 
L 330.827303 -186.760867 
L 332.523867 -185.778259 
L 334.220432 -184.80171 
L 335.916996 -183.831244 
L 337.61356 -182.865169 
L 339.310125 -181.900631 
L 341.006689 -180.933219 
L 342.703253 -179.972657 
L 344.399818 -179.016409 
L 346.096382 -178.061305 
L 347.792946 -177.110422 
L 349.48951 -176.163734 
L 351.186075 -175.221265 
L 352.882639 -174.297608 
L 354.579203 -173.367673 
L 356.275768 -172.438921 
L 357.972332 -171.522988 
L 359.668896 -170.609036 
L 361.365461 -169.692688 
L 363.062025 -168.777022 
L 364.758589 -167.862003 
L 366.455154 -166.95097 
L 368.151718 -166.043932 
L 369.848282 -165.145424 
L 371.544846 -164.250794 
L 373.241411 -163.360653 
L 374.937975 -162.477961 
L 376.634539 -161.599147 
L 378.331104 -160.72429 
L 380.027668 -159.853329 
L 381.724232 -158.986178 
L 383.420797 -158.121413 
L 385.117361 -157.256811 
L 386.813925 -156.398793 
L 388.51049 -155.546228 
L 390.207054 -154.697079 
L 391.903618 -153.851324 
L 393.600182 -153.003204 
L 395.296747 -152.157667 
L 396.993311 -151.315608 
L 398.689875 -150.47716 
L 400.38644 -149.643569 
L 402.083004 -148.810532 
L 403.779568 -147.981061 
L 405.476133 -147.155661 
L 407.172697 -146.333557 
L 408.869261 -145.51473 
L 410.565825 -144.699178 
L 412.26239 -143.886906 
L 413.958954 -143.077852 
L 415.655518 -142.271995 
L 417.352083 -141.469989 
L 419.048647 -140.673136 
L 420.745211 -139.881928 
L 422.441776 -139.093978 
L 424.13834 -138.309267 
L 425.834904 -137.527778 
L 427.531469 -136.746536 
L 429.228033 -135.964674 
L 430.924597 -135.185815 
L 432.621161 -134.409939 
L 434.317726 -133.63703 
L 436.01429 -132.867071 
L 437.710854 -132.100044 
L 439.407419 -131.335932 
L 441.103983 -130.574719 
L 442.800547 -129.816387 
L 444.497112 -129.060364 
L 446.193676 -128.306229 
L 447.89024 -127.558033 
L 449.586804 -126.811314 
L 451.283369 -126.067042 
L 452.979933 -125.325602 
L 454.676497 -124.586976 
L 456.373062 -123.851175 
L 458.069626 -123.119129 
L 459.76619 -122.39453 
L 461.462755 -121.672965 
L 463.159319 -120.952102 
L 464.855883 -120.238019 
L 466.552448 -119.524658 
L 468.249012 -118.814058 
L 469.945576 -118.106203 
L 471.64214 -117.397157 
L 473.338705 -116.687088 
L 475.035269 -115.97961 
L 476.731833 -115.27471 
L 478.428398 -114.572373 
L 480.124962 -113.872662 
L 481.821526 -113.175491 
L 483.518091 -112.482641 
L 485.214655 -111.796 
L 486.911219 -111.111897 
L 488.607784 -110.426161 
L 490.304348 -109.742051 
L 492.000912 -109.060359 
L 493.697476 -108.381061 
L 495.394041 -107.704144 
L 497.090605 -107.029593 
L 498.787169 -106.357397 
L 500.483734 -105.687543 
L 502.180298 -105.019917 
L 503.876862 -104.35471 
L 505.573427 -103.691743 
L 507.269991 -103.031149 
L 508.966555 -102.375071 
L 510.663119 -101.721918 
L 512.359684 -101.071084 
L 514.056248 -100.422558 
L 515.752812 -99.776327 
L 517.449377 -99.129202 
L 519.145941 -98.484086 
L 520.842505 -97.841167 
L 522.53907 -97.200432 
L 524.235634 -96.561871 
L 525.932198 -95.925471 
L 527.628763 -95.291222 
L 529.325327 -94.659111 
L 531.021891 -94.029129 
L 532.718455 -93.401262 
L 534.41502 -92.775501 
L 536.111584 -92.151835 
L 537.808148 -91.530252 
L 539.504713 -90.910741 
L 541.201277 -90.293355 
L 542.897841 -89.678039 
L 544.594406 -89.064765 
L 546.29097 -88.453522 
L 547.987534 -87.847125 
L 549.684099 -87.243305 
L 551.380663 -86.641525 
L 553.077227 -86.040238 
L 554.773791 -85.436156 
L 556.470356 -84.83404 
L 558.16692 -84.233881 
L 559.863484 -83.635668 
L 561.560049 -83.041144 
L 563.256613 -82.449474 
L 564.953177 -81.859723 
L 566.649742 -81.271879 
L 568.346306 -80.686038 
L 570.04287 -80.102095 
L 571.739434 -79.519298 
L 573.435999 -78.935855 
L 575.132563 -78.35909 
L 576.829127 -77.784176 
L 578.525692 -77.210888 
L 580.222256 -76.639772 
L 581.91882 -76.067445 
L 583.615385 -75.500488 
L 585.311949 -74.935368 
L 587.008513 -74.370678 
L 588.705078 -73.800786 
L 590.401642 -73.238186 
L 592.098206 -72.675392 
L 593.79477 -72.112956 
L 595.491335 -71.550079 
L 597.187899 -70.990745 
L 598.884463 -70.425075 
L 600.581028 -69.866404 
L 602.277592 -69.298349 
L 603.974156 -68.735746 
L 605.670721 -68.177709 
L 607.367285 -67.618981 
L 609.063849 -67.068864 
L 610.760413 -66.51616 
L 612.456978 -65.965654 
L 614.153542 -65.413524 
L 615.850106 -64.861474 
L 617.546671 -64.315269 
L 619.243235 -63.77156 
L 620.939799 -63.226969 
L 622.636364 -62.675521 
L 622.636364 -66.028145 
L 622.636364 -66.028145 
L 620.939799 -66.521972 
L 619.243235 -67.017595 
L 617.546671 -67.515022 
L 615.850106 -68.014263 
L 614.153542 -68.515325 
L 612.456978 -69.018219 
L 610.760413 -69.522952 
L 609.063849 -70.029534 
L 607.367285 -70.537973 
L 605.670721 -71.051377 
L 603.974156 -71.568682 
L 602.277592 -72.087808 
L 600.581028 -72.608763 
L 598.884463 -73.129282 
L 597.187899 -73.647258 
L 595.491335 -74.167186 
L 593.79477 -74.689073 
L 592.098206 -75.212931 
L 590.401642 -75.738768 
L 588.705078 -76.266595 
L 587.008513 -76.79642 
L 585.311949 -77.328254 
L 583.615385 -77.862107 
L 581.91882 -78.397988 
L 580.222256 -78.935908 
L 578.525692 -79.476605 
L 576.829127 -80.020223 
L 575.132563 -80.565877 
L 573.435999 -81.113577 
L 571.739434 -81.663334 
L 570.04287 -82.215158 
L 568.346306 -82.769059 
L 566.649742 -83.325047 
L 564.953177 -83.883062 
L 563.256613 -84.443103 
L 561.560049 -85.005266 
L 559.863484 -85.569561 
L 558.16692 -86.136001 
L 556.470356 -86.704594 
L 554.773791 -87.275353 
L 553.077227 -87.848288 
L 551.380663 -88.423409 
L 549.684099 -89.000729 
L 547.987534 -89.580258 
L 546.29097 -90.162008 
L 544.594406 -90.745989 
L 542.897841 -91.332213 
L 541.201277 -91.920691 
L 539.504713 -92.511436 
L 537.808148 -93.10663 
L 536.111584 -93.707489 
L 534.41502 -94.310577 
L 532.718455 -94.915906 
L 531.021891 -95.523487 
L 529.325327 -96.126651 
L 527.628763 -96.725462 
L 525.932198 -97.32671 
L 524.235634 -97.932748 
L 522.53907 -98.553987 
L 520.842505 -99.177496 
L 519.145941 -99.803187 
L 517.449377 -100.431123 
L 515.752812 -101.061371 
L 514.056248 -101.693943 
L 512.359684 -102.328851 
L 510.663119 -102.965 
L 508.966555 -103.597979 
L 507.269991 -104.233503 
L 505.573427 -104.871296 
L 503.876862 -105.511656 
L 502.180298 -106.154237 
L 500.483734 -106.794762 
L 498.787169 -107.437864 
L 497.090605 -108.083555 
L 495.394041 -108.731851 
L 493.697476 -109.409338 
L 492.000912 -110.080875 
L 490.304348 -110.770796 
L 488.607784 -111.463044 
L 486.911219 -112.144114 
L 485.214655 -112.819118 
L 483.518091 -113.508659 
L 481.821526 -114.19339 
L 480.124962 -114.886722 
L 478.428398 -115.58708 
L 476.731833 -116.283737 
L 475.035269 -116.994436 
L 473.338705 -117.707382 
L 471.64214 -118.417183 
L 469.945576 -119.134945 
L 468.249012 -119.855672 
L 466.552448 -120.560411 
L 464.855883 -121.282711 
L 463.159319 -122.001772 
L 461.462755 -122.731264 
L 459.76619 -123.45895 
L 458.069626 -124.189019 
L 456.373062 -124.921517 
L 454.676497 -125.656484 
L 452.979933 -126.393468 
L 451.283369 -127.132772 
L 449.586804 -127.875517 
L 447.89024 -128.622304 
L 446.193676 -129.373484 
L 444.497112 -130.127291 
L 442.800547 -130.883741 
L 441.103983 -131.64285 
L 439.407419 -132.404635 
L 437.710854 -133.169114 
L 436.01429 -133.933505 
L 434.317726 -134.699816 
L 432.621161 -135.473436 
L 430.924597 -136.249843 
L 429.228033 -137.029054 
L 427.531469 -137.811086 
L 425.834904 -138.595957 
L 424.13834 -139.383624 
L 422.441776 -140.173133 
L 420.745211 -140.965513 
L 419.048647 -141.760783 
L 417.352083 -142.558961 
L 415.655518 -143.360957 
L 413.958954 -144.171285 
L 412.26239 -144.979742 
L 410.565825 -145.791106 
L 408.869261 -146.605397 
L 407.172697 -147.422732 
L 405.476133 -148.243128 
L 403.779568 -149.066607 
L 402.083004 -149.893187 
L 400.38644 -150.72289 
L 398.689875 -151.555734 
L 396.993311 -152.391741 
L 395.296747 -153.230931 
L 393.600182 -154.073325 
L 391.903618 -154.918943 
L 390.207054 -155.767808 
L 388.51049 -156.62022 
L 386.813925 -157.47726 
L 385.117361 -158.337654 
L 383.420797 -159.202701 
L 381.724232 -160.071454 
L 380.027668 -160.943641 
L 378.331104 -161.819283 
L 376.634539 -162.698403 
L 374.937975 -163.579946 
L 373.241411 -164.463279 
L 371.544846 -165.350049 
L 369.848282 -166.240251 
L 368.151718 -167.13361 
L 366.455154 -168.031771 
L 364.758589 -168.938125 
L 363.062025 -169.848879 
L 361.365461 -170.763324 
L 359.668896 -171.681485 
L 357.972332 -172.603386 
L 356.275768 -173.52744 
L 354.579203 -174.447642 
L 352.882639 -175.37159 
L 351.186075 -176.299319 
L 349.48951 -177.230857 
L 347.792946 -178.168616 
L 346.096382 -179.112869 
L 344.399818 -180.06103 
L 342.703253 -181.013128 
L 341.006689 -181.969188 
L 339.310125 -182.929239 
L 337.61356 -183.893308 
L 335.916996 -184.859168 
L 334.220432 -185.826637 
L 332.523867 -186.800714 
L 330.827303 -187.780956 
L 329.130739 -188.764703 
L 327.434175 -189.749383 
L 325.73761 -190.738319 
L 324.041046 -191.732404 
L 322.344482 -192.740455 
L 320.647917 -193.75193 
L 318.951353 -194.762209 
L 317.254789 -195.772315 
L 315.558224 -196.785869 
L 313.86166 -197.803813 
L 312.165096 -198.831956 
L 310.468531 -199.865805 
L 308.771967 -200.904228 
L 307.075403 -201.949247 
L 305.378839 -203.000316 
L 303.682274 -204.056567 
L 301.98571 -205.114849 
L 300.289146 -206.180442 
L 298.592581 -207.247253 
L 296.896017 -208.317138 
L 295.199453 -209.391835 
L 293.502888 -210.47138 
L 291.806324 -211.55581 
L 290.10976 -212.651578 
L 288.413196 -213.757071 
L 286.716631 -214.867622 
L 285.020067 -215.983267 
L 283.323503 -217.104039 
L 281.626938 -218.226703 
L 279.930374 -219.352313 
L 278.23381 -220.483145 
L 276.537245 -221.619237 
L 274.840681 -222.760628 
L 273.144117 -223.910838 
L 271.447552 -225.068415 
L 269.750988 -226.231353 
L 268.054424 -227.399762 
L 266.35786 -228.569162 
L 264.661295 -229.739726 
L 262.964731 -230.915701 
L 261.268167 -232.096635 
L 259.571602 -233.278862 
L 257.875038 -234.472902 
L 256.178474 -235.675058 
L 254.481909 -236.881285 
L 252.785345 -238.093707 
L 251.088781 -239.315318 
L 249.392216 -240.542462 
L 247.695652 -241.774213 
L 245.999088 -243.012306 
L 244.302524 -244.261875 
L 242.605959 -245.513972 
L 240.909395 -246.772217 
L 239.212831 -248.036479 
L 237.516266 -249.306872 
L 235.819702 -250.586235 
L 234.123138 -251.872377 
L 232.426573 -253.164874 
L 230.730009 -254.465956 
L 229.033445 -255.779454 
L 227.336881 -257.09944 
L 225.640316 -258.411862 
L 223.943752 -259.729614 
L 222.247188 -261.056001 
L 220.550623 -262.394339 
L 218.854059 -263.750738 
L 217.157495 -265.102821 
L 215.46093 -266.496704 
L 213.764366 -267.862083 
L 212.067802 -269.235322 
L 210.371237 -270.6147 
L 208.674673 -272.033435 
L 206.978109 -273.427561 
L 205.281545 -274.826034 
L 203.58498 -276.24746 
L 201.888416 -277.66542 
L 200.191852 -279.087021 
L 198.495287 -280.516071 
L 196.798723 -281.952628 
L 195.102159 -283.42296 
L 193.405594 -284.893228 
L 191.70903 -286.353885 
L 190.012466 -287.8397 
L 188.315901 -289.33417 
L 186.619337 -290.837152 
L 184.922773 -292.344597 
L 183.226209 -293.849581 
L 181.529644 -295.378443 
L 179.83308 -296.892856 
L 178.136516 -298.411261 
L 176.439951 -299.976106 
L 174.743387 -301.568353 
L 173.046823 -303.170906 
L 171.350258 -304.7317 
L 169.653694 -306.341653 
L 167.95713 -307.961416 
L 166.260566 -309.610092 
L 164.564001 -311.275389 
L 162.867437 -312.951402 
L 161.170873 -314.625022 
L 159.474308 -316.295037 
L 157.777744 -317.97564 
L 156.08118 -319.67748 
L 154.384615 -321.415163 
L 152.688051 -323.165322 
L 150.991487 -324.928124 
L 149.294922 -326.703735 
L 147.598358 -328.492206 
L 145.901794 -330.293723 
L 144.20523 -332.10857 
L 142.508665 -333.936928 
L 140.812101 -335.778984 
L 139.115537 -337.634926 
L 137.418972 -339.504947 
L 135.722408 -341.389246 
L 134.025844 -343.287156 
L 132.329279 -345.188479 
L 130.632715 -347.104397 
L 128.936151 -349.035116 
L 127.239587 -350.980848 
L 125.543022 -352.941807 
L 123.846458 -354.918215 
L 122.149894 -356.910295 
L 120.453329 -358.918276 
L 118.756765 -360.942394 
L 117.060201 -362.982887 
L 115.363636 -365.04 
z
" style="stroke: #f4b400; stroke-opacity: 0.25"/>
    </defs>
    <g clip-path="url(#p5397680662)">
     <use xlink:href="#m9732b41c5e" x="0" y="432" style="fill: #f4b400; fill-opacity: 0.25; stroke: #f4b400; stroke-opacity: 0.25"/>
    </g>
   </g>
   <g id="matplotlib.axis_1">
    <g id="xtick_1">
     <g id="line2d_1">
      <path d="M 162.920455 384.48 
L 162.920455 51.84 
" clip-path="url(#p5397680662)" style="fill: none; stroke: #b0b0b0; stroke-opacity: 0.3; stroke-width: 0.8; stroke-linecap: square"/>
     </g>
     <g id="line2d_2">
      <defs>
       <path id="m05763c49a8" d="M 0 0 
L 0 3.5 
" style="stroke: #000000; stroke-width: 0.8"/>
      </defs>
      <g>
       <use xlink:href="#m05763c49a8" x="162.920455" y="384.48" style="stroke: #000000; stroke-width: 0.8"/>
      </g>
     </g>
     <g id="text_1">
      <!-- 0.05 -->
      <g transform="translate(149.56108 400.598125) scale(0.12 -0.12)">
       <defs>
        <path id="DejaVuSans-30" d="M 2034 4250 
Q 1547 4250 1301 3770 
Q 1056 3291 1056 2328 
Q 1056 1369 1301 889 
Q 1547 409 2034 409 
Q 2525 409 2770 889 
Q 3016 1369 3016 2328 
Q 3016 3291 2770 3770 
Q 2525 4250 2034 4250 
z
M 2034 4750 
Q 2819 4750 3233 4129 
Q 3647 3509 3647 2328 
Q 3647 1150 3233 529 
Q 2819 -91 2034 -91 
Q 1250 -91 836 529 
Q 422 1150 422 2328 
Q 422 3509 836 4129 
Q 1250 4750 2034 4750 
z
" transform="scale(0.015625)"/>
        <path id="DejaVuSans-2e" d="M 684 794 
L 1344 794 
L 1344 0 
L 684 0 
L 684 794 
z
" transform="scale(0.015625)"/>
        <path id="DejaVuSans-35" d="M 691 4666 
L 3169 4666 
L 3169 4134 
L 1269 4134 
L 1269 2991 
Q 1406 3038 1543 3061 
Q 1681 3084 1819 3084 
Q 2600 3084 3056 2656 
Q 3513 2228 3513 1497 
Q 3513 744 3044 326 
Q 2575 -91 1722 -91 
Q 1428 -91 1123 -41 
Q 819 9 494 109 
L 494 744 
Q 775 591 1075 516 
Q 1375 441 1709 441 
Q 2250 441 2565 725 
Q 2881 1009 2881 1497 
Q 2881 1984 2565 2268 
Q 2250 2553 1709 2553 
Q 1456 2553 1204 2497 
Q 953 2441 691 2322 
L 691 4666 
z
" transform="scale(0.015625)"/>
       </defs>
       <use xlink:href="#DejaVuSans-30"/>
       <use xlink:href="#DejaVuSans-2e" transform="translate(63.623047 0)"/>
       <use xlink:href="#DejaVuSans-30" transform="translate(95.410156 0)"/>
       <use xlink:href="#DejaVuSans-35" transform="translate(159.033203 0)"/>
      </g>
     </g>
    </g>
    <g id="xtick_2">
     <g id="line2d_3">
      <path d="M 242.181818 384.48 
L 242.181818 51.84 
" clip-path="url(#p5397680662)" style="fill: none; stroke: #b0b0b0; stroke-opacity: 0.3; stroke-width: 0.8; stroke-linecap: square"/>
     </g>
     <g id="line2d_4">
      <g>
       <use xlink:href="#m05763c49a8" x="242.181818" y="384.48" style="stroke: #000000; stroke-width: 0.8"/>
      </g>
     </g>
     <g id="text_2">
      <!-- 0.10 -->
      <g transform="translate(228.822443 400.598125) scale(0.12 -0.12)">
       <defs>
        <path id="DejaVuSans-31" d="M 794 531 
L 1825 531 
L 1825 4091 
L 703 3866 
L 703 4441 
L 1819 4666 
L 2450 4666 
L 2450 531 
L 3481 531 
L 3481 0 
L 794 0 
L 794 531 
z
" transform="scale(0.015625)"/>
       </defs>
       <use xlink:href="#DejaVuSans-30"/>
       <use xlink:href="#DejaVuSans-2e" transform="translate(63.623047 0)"/>
       <use xlink:href="#DejaVuSans-31" transform="translate(95.410156 0)"/>
       <use xlink:href="#DejaVuSans-30" transform="translate(159.033203 0)"/>
      </g>
     </g>
    </g>
    <g id="xtick_3">
     <g id="line2d_5">
      <path d="M 321.443182 384.48 
L 321.443182 51.84 
" clip-path="url(#p5397680662)" style="fill: none; stroke: #b0b0b0; stroke-opacity: 0.3; stroke-width: 0.8; stroke-linecap: square"/>
     </g>
     <g id="line2d_6">
      <g>
       <use xlink:href="#m05763c49a8" x="321.443182" y="384.48" style="stroke: #000000; stroke-width: 0.8"/>
      </g>
     </g>
     <g id="text_3">
      <!-- 0.15 -->
      <g transform="translate(308.083807 400.598125) scale(0.12 -0.12)">
       <use xlink:href="#DejaVuSans-30"/>
       <use xlink:href="#DejaVuSans-2e" transform="translate(63.623047 0)"/>
       <use xlink:href="#DejaVuSans-31" transform="translate(95.410156 0)"/>
       <use xlink:href="#DejaVuSans-35" transform="translate(159.033203 0)"/>
      </g>
     </g>
    </g>
    <g id="xtick_4">
     <g id="line2d_7">
      <path d="M 400.704545 384.48 
L 400.704545 51.84 
" clip-path="url(#p5397680662)" style="fill: none; stroke: #b0b0b0; stroke-opacity: 0.3; stroke-width: 0.8; stroke-linecap: square"/>
     </g>
     <g id="line2d_8">
      <g>
       <use xlink:href="#m05763c49a8" x="400.704545" y="384.48" style="stroke: #000000; stroke-width: 0.8"/>
      </g>
     </g>
     <g id="text_4">
      <!-- 0.20 -->
      <g transform="translate(387.34517 400.598125) scale(0.12 -0.12)">
       <defs>
        <path id="DejaVuSans-32" d="M 1228 531 
L 3431 531 
L 3431 0 
L 469 0 
L 469 531 
Q 828 903 1448 1529 
Q 2069 2156 2228 2338 
Q 2531 2678 2651 2914 
Q 2772 3150 2772 3378 
Q 2772 3750 2511 3984 
Q 2250 4219 1831 4219 
Q 1534 4219 1204 4116 
Q 875 4013 500 3803 
L 500 4441 
Q 881 4594 1212 4672 
Q 1544 4750 1819 4750 
Q 2544 4750 2975 4387 
Q 3406 4025 3406 3419 
Q 3406 3131 3298 2873 
Q 3191 2616 2906 2266 
Q 2828 2175 2409 1742 
Q 1991 1309 1228 531 
z
" transform="scale(0.015625)"/>
       </defs>
       <use xlink:href="#DejaVuSans-30"/>
       <use xlink:href="#DejaVuSans-2e" transform="translate(63.623047 0)"/>
       <use xlink:href="#DejaVuSans-32" transform="translate(95.410156 0)"/>
       <use xlink:href="#DejaVuSans-30" transform="translate(159.033203 0)"/>
      </g>
     </g>
    </g>
    <g id="xtick_5">
     <g id="line2d_9">
      <path d="M 479.965909 384.48 
L 479.965909 51.84 
" clip-path="url(#p5397680662)" style="fill: none; stroke: #b0b0b0; stroke-opacity: 0.3; stroke-width: 0.8; stroke-linecap: square"/>
     </g>
     <g id="line2d_10">
      <g>
       <use xlink:href="#m05763c49a8" x="479.965909" y="384.48" style="stroke: #000000; stroke-width: 0.8"/>
      </g>
     </g>
     <g id="text_5">
      <!-- 0.25 -->
      <g transform="translate(466.606534 400.598125) scale(0.12 -0.12)">
       <use xlink:href="#DejaVuSans-30"/>
       <use xlink:href="#DejaVuSans-2e" transform="translate(63.623047 0)"/>
       <use xlink:href="#DejaVuSans-32" transform="translate(95.410156 0)"/>
       <use xlink:href="#DejaVuSans-35" transform="translate(159.033203 0)"/>
      </g>
     </g>
    </g>
    <g id="xtick_6">
     <g id="line2d_11">
      <path d="M 559.227273 384.48 
L 559.227273 51.84 
" clip-path="url(#p5397680662)" style="fill: none; stroke: #b0b0b0; stroke-opacity: 0.3; stroke-width: 0.8; stroke-linecap: square"/>
     </g>
     <g id="line2d_12">
      <g>
       <use xlink:href="#m05763c49a8" x="559.227273" y="384.48" style="stroke: #000000; stroke-width: 0.8"/>
      </g>
     </g>
     <g id="text_6">
      <!-- 0.30 -->
      <g transform="translate(545.867898 400.598125) scale(0.12 -0.12)">
       <defs>
        <path id="DejaVuSans-33" d="M 2597 2516 
Q 3050 2419 3304 2112 
Q 3559 1806 3559 1356 
Q 3559 666 3084 287 
Q 2609 -91 1734 -91 
Q 1441 -91 1130 -33 
Q 819 25 488 141 
L 488 750 
Q 750 597 1062 519 
Q 1375 441 1716 441 
Q 2309 441 2620 675 
Q 2931 909 2931 1356 
Q 2931 1769 2642 2001 
Q 2353 2234 1838 2234 
L 1294 2234 
L 1294 2753 
L 1863 2753 
Q 2328 2753 2575 2939 
Q 2822 3125 2822 3475 
Q 2822 3834 2567 4026 
Q 2313 4219 1838 4219 
Q 1578 4219 1281 4162 
Q 984 4106 628 3988 
L 628 4550 
Q 988 4650 1302 4700 
Q 1616 4750 1894 4750 
Q 2613 4750 3031 4423 
Q 3450 4097 3450 3541 
Q 3450 3153 3228 2886 
Q 3006 2619 2597 2516 
z
" transform="scale(0.015625)"/>
       </defs>
       <use xlink:href="#DejaVuSans-30"/>
       <use xlink:href="#DejaVuSans-2e" transform="translate(63.623047 0)"/>
       <use xlink:href="#DejaVuSans-33" transform="translate(95.410156 0)"/>
       <use xlink:href="#DejaVuSans-30" transform="translate(159.033203 0)"/>
      </g>
     </g>
    </g>
    <g id="xtick_7">
     <g id="line2d_13">
      <path d="M 638.488636 384.48 
L 638.488636 51.84 
" clip-path="url(#p5397680662)" style="fill: none; stroke: #b0b0b0; stroke-opacity: 0.3; stroke-width: 0.8; stroke-linecap: square"/>
     </g>
     <g id="line2d_14">
      <g>
       <use xlink:href="#m05763c49a8" x="638.488636" y="384.48" style="stroke: #000000; stroke-width: 0.8"/>
      </g>
     </g>
     <g id="text_7">
      <!-- 0.35 -->
      <g transform="translate(625.129261 400.598125) scale(0.12 -0.12)">
       <use xlink:href="#DejaVuSans-30"/>
       <use xlink:href="#DejaVuSans-2e" transform="translate(63.623047 0)"/>
       <use xlink:href="#DejaVuSans-33" transform="translate(95.410156 0)"/>
       <use xlink:href="#DejaVuSans-35" transform="translate(159.033203 0)"/>
      </g>
     </g>
    </g>
    <g id="text_8">
     <!-- h (mm) -->
     <g transform="translate(346.92 416.211875) scale(0.12 -0.12)">
      <defs>
       <path id="DejaVuSans-68" d="M 3513 2113 
L 3513 0 
L 2938 0 
L 2938 2094 
Q 2938 2591 2744 2837 
Q 2550 3084 2163 3084 
Q 1697 3084 1428 2787 
Q 1159 2491 1159 1978 
L 1159 0 
L 581 0 
L 581 4863 
L 1159 4863 
L 1159 2956 
Q 1366 3272 1645 3428 
Q 1925 3584 2291 3584 
Q 2894 3584 3203 3211 
Q 3513 2838 3513 2113 
z
" transform="scale(0.015625)"/>
       <path id="DejaVuSans-20" transform="scale(0.015625)"/>
       <path id="DejaVuSans-28" d="M 1984 4856 
Q 1566 4138 1362 3434 
Q 1159 2731 1159 2009 
Q 1159 1288 1364 580 
Q 1569 -128 1984 -844 
L 1484 -844 
Q 1016 -109 783 600 
Q 550 1309 550 2009 
Q 550 2706 781 3412 
Q 1013 4119 1484 4856 
L 1984 4856 
z
" transform="scale(0.015625)"/>
       <path id="DejaVuSans-6d" d="M 3328 2828 
Q 3544 3216 3844 3400 
Q 4144 3584 4550 3584 
Q 5097 3584 5394 3201 
Q 5691 2819 5691 2113 
L 5691 0 
L 5113 0 
L 5113 2094 
Q 5113 2597 4934 2840 
Q 4756 3084 4391 3084 
Q 3944 3084 3684 2787 
Q 3425 2491 3425 1978 
L 3425 0 
L 2847 0 
L 2847 2094 
Q 2847 2600 2669 2842 
Q 2491 3084 2119 3084 
Q 1678 3084 1418 2786 
Q 1159 2488 1159 1978 
L 1159 0 
L 581 0 
L 581 3500 
L 1159 3500 
L 1159 2956 
Q 1356 3278 1631 3431 
Q 1906 3584 2284 3584 
Q 2666 3584 2933 3390 
Q 3200 3197 3328 2828 
z
" transform="scale(0.015625)"/>
       <path id="DejaVuSans-29" d="M 513 4856 
L 1013 4856 
Q 1481 4119 1714 3412 
Q 1947 2706 1947 2009 
Q 1947 1309 1714 600 
Q 1481 -109 1013 -844 
L 513 -844 
Q 928 -128 1133 580 
Q 1338 1288 1338 2009 
Q 1338 2731 1133 3434 
Q 928 4138 513 4856 
z
" transform="scale(0.015625)"/>
      </defs>
      <use xlink:href="#DejaVuSans-68"/>
      <use xlink:href="#DejaVuSans-20" transform="translate(63.378906 0)"/>
      <use xlink:href="#DejaVuSans-28" transform="translate(95.166016 0)"/>
      <use xlink:href="#DejaVuSans-6d" transform="translate(134.179688 0)"/>
      <use xlink:href="#DejaVuSans-6d" transform="translate(231.591797 0)"/>
      <use xlink:href="#DejaVuSans-29" transform="translate(329.003906 0)"/>
     </g>
    </g>
   </g>
   <g id="matplotlib.axis_2">
    <g id="ytick_1">
     <g id="line2d_15">
      <path d="M 90 344.412293 
L 648 344.412293 
" clip-path="url(#p5397680662)" style="fill: none; stroke: #b0b0b0; stroke-opacity: 0.3; stroke-width: 0.8; stroke-linecap: square"/>
     </g>
     <g id="line2d_16">
      <defs>
       <path id="mcd6da849a9" d="M 0 0 
L -3.5 0 
" style="stroke: #000000; stroke-width: 0.8"/>
      </defs>
      <g>
       <use xlink:href="#mcd6da849a9" x="90" y="344.412293" style="stroke: #000000; stroke-width: 0.8"/>
      </g>
     </g>
     <g id="text_9">
      <!-- 80 -->
      <g transform="translate(67.73 348.971355) scale(0.12 -0.12)">
       <defs>
        <path id="DejaVuSans-38" d="M 2034 2216 
Q 1584 2216 1326 1975 
Q 1069 1734 1069 1313 
Q 1069 891 1326 650 
Q 1584 409 2034 409 
Q 2484 409 2743 651 
Q 3003 894 3003 1313 
Q 3003 1734 2745 1975 
Q 2488 2216 2034 2216 
z
M 1403 2484 
Q 997 2584 770 2862 
Q 544 3141 544 3541 
Q 544 4100 942 4425 
Q 1341 4750 2034 4750 
Q 2731 4750 3128 4425 
Q 3525 4100 3525 3541 
Q 3525 3141 3298 2862 
Q 3072 2584 2669 2484 
Q 3125 2378 3379 2068 
Q 3634 1759 3634 1313 
Q 3634 634 3220 271 
Q 2806 -91 2034 -91 
Q 1263 -91 848 271 
Q 434 634 434 1313 
Q 434 1759 690 2068 
Q 947 2378 1403 2484 
z
M 1172 3481 
Q 1172 3119 1398 2916 
Q 1625 2713 2034 2713 
Q 2441 2713 2670 2916 
Q 2900 3119 2900 3481 
Q 2900 3844 2670 4047 
Q 2441 4250 2034 4250 
Q 1625 4250 1398 4047 
Q 1172 3844 1172 3481 
z
" transform="scale(0.015625)"/>
       </defs>
       <use xlink:href="#DejaVuSans-38"/>
       <use xlink:href="#DejaVuSans-30" transform="translate(63.623047 0)"/>
      </g>
     </g>
    </g>
    <g id="ytick_2">
     <g id="line2d_17">
      <path d="M 90 289.622306 
L 648 289.622306 
" clip-path="url(#p5397680662)" style="fill: none; stroke: #b0b0b0; stroke-opacity: 0.3; stroke-width: 0.8; stroke-linecap: square"/>
     </g>
     <g id="line2d_18">
      <g>
       <use xlink:href="#mcd6da849a9" x="90" y="289.622306" style="stroke: #000000; stroke-width: 0.8"/>
      </g>
     </g>
     <g id="text_10">
      <!-- 90 -->
      <g transform="translate(67.73 294.181368) scale(0.12 -0.12)">
       <defs>
        <path id="DejaVuSans-39" d="M 703 97 
L 703 672 
Q 941 559 1184 500 
Q 1428 441 1663 441 
Q 2288 441 2617 861 
Q 2947 1281 2994 2138 
Q 2813 1869 2534 1725 
Q 2256 1581 1919 1581 
Q 1219 1581 811 2004 
Q 403 2428 403 3163 
Q 403 3881 828 4315 
Q 1253 4750 1959 4750 
Q 2769 4750 3195 4129 
Q 3622 3509 3622 2328 
Q 3622 1225 3098 567 
Q 2575 -91 1691 -91 
Q 1453 -91 1209 -44 
Q 966 3 703 97 
z
M 1959 2075 
Q 2384 2075 2632 2365 
Q 2881 2656 2881 3163 
Q 2881 3666 2632 3958 
Q 2384 4250 1959 4250 
Q 1534 4250 1286 3958 
Q 1038 3666 1038 3163 
Q 1038 2656 1286 2365 
Q 1534 2075 1959 2075 
z
" transform="scale(0.015625)"/>
       </defs>
       <use xlink:href="#DejaVuSans-39"/>
       <use xlink:href="#DejaVuSans-30" transform="translate(63.623047 0)"/>
      </g>
     </g>
    </g>
    <g id="ytick_3">
     <g id="line2d_19">
      <path d="M 90 234.832319 
L 648 234.832319 
" clip-path="url(#p5397680662)" style="fill: none; stroke: #b0b0b0; stroke-opacity: 0.3; stroke-width: 0.8; stroke-linecap: square"/>
     </g>
     <g id="line2d_20">
      <g>
       <use xlink:href="#mcd6da849a9" x="90" y="234.832319" style="stroke: #000000; stroke-width: 0.8"/>
      </g>
     </g>
     <g id="text_11">
      <!-- 100 -->
      <g transform="translate(60.095 239.391382) scale(0.12 -0.12)">
       <use xlink:href="#DejaVuSans-31"/>
       <use xlink:href="#DejaVuSans-30" transform="translate(63.623047 0)"/>
       <use xlink:href="#DejaVuSans-30" transform="translate(127.246094 0)"/>
      </g>
     </g>
    </g>
    <g id="ytick_4">
     <g id="line2d_21">
      <path d="M 90 180.042332 
L 648 180.042332 
" clip-path="url(#p5397680662)" style="fill: none; stroke: #b0b0b0; stroke-opacity: 0.3; stroke-width: 0.8; stroke-linecap: square"/>
     </g>
     <g id="line2d_22">
      <g>
       <use xlink:href="#mcd6da849a9" x="90" y="180.042332" style="stroke: #000000; stroke-width: 0.8"/>
      </g>
     </g>
     <g id="text_12">
      <!-- 110 -->
      <g transform="translate(60.095 184.601395) scale(0.12 -0.12)">
       <use xlink:href="#DejaVuSans-31"/>
       <use xlink:href="#DejaVuSans-31" transform="translate(63.623047 0)"/>
       <use xlink:href="#DejaVuSans-30" transform="translate(127.246094 0)"/>
      </g>
     </g>
    </g>
    <g id="ytick_5">
     <g id="line2d_23">
      <path d="M 90 125.252346 
L 648 125.252346 
" clip-path="url(#p5397680662)" style="fill: none; stroke: #b0b0b0; stroke-opacity: 0.3; stroke-width: 0.8; stroke-linecap: square"/>
     </g>
     <g id="line2d_24">
      <g>
       <use xlink:href="#mcd6da849a9" x="90" y="125.252346" style="stroke: #000000; stroke-width: 0.8"/>
      </g>
     </g>
     <g id="text_13">
      <!-- 120 -->
      <g transform="translate(60.095 129.811408) scale(0.12 -0.12)">
       <use xlink:href="#DejaVuSans-31"/>
       <use xlink:href="#DejaVuSans-32" transform="translate(63.623047 0)"/>
       <use xlink:href="#DejaVuSans-30" transform="translate(127.246094 0)"/>
      </g>
     </g>
    </g>
    <g id="ytick_6">
     <g id="line2d_25">
      <path d="M 90 70.462359 
L 648 70.462359 
" clip-path="url(#p5397680662)" style="fill: none; stroke: #b0b0b0; stroke-opacity: 0.3; stroke-width: 0.8; stroke-linecap: square"/>
     </g>
     <g id="line2d_26">
      <g>
       <use xlink:href="#mcd6da849a9" x="90" y="70.462359" style="stroke: #000000; stroke-width: 0.8"/>
      </g>
     </g>
     <g id="text_14">
      <!-- 130 -->
      <g transform="translate(60.095 75.021421) scale(0.12 -0.12)">
       <use xlink:href="#DejaVuSans-31"/>
       <use xlink:href="#DejaVuSans-33" transform="translate(63.623047 0)"/>
       <use xlink:href="#DejaVuSans-30" transform="translate(127.246094 0)"/>
      </g>
     </g>
    </g>
    <g id="text_15">
     <!-- T/Ω -->
     <g transform="translate(53.599375 228.43125) rotate(-90) scale(0.12 -0.12)">
      <defs>
       <path id="DejaVuSans-54" d="M -19 4666 
L 3928 4666 
L 3928 4134 
L 2272 4134 
L 2272 0 
L 1638 0 
L 1638 4134 
L -19 4134 
L -19 4666 
z
" transform="scale(0.015625)"/>
       <path id="DejaVuSans-2f" d="M 1625 4666 
L 2156 4666 
L 531 -594 
L 0 -594 
L 1625 4666 
z
" transform="scale(0.015625)"/>
       <path id="DejaVuSans-3a9" d="M 4647 556 
L 4647 0 
L 2772 0 
L 2772 556 
Q 3325 859 3634 1378 
Q 3944 1897 3944 2528 
Q 3944 3278 3531 3731 
Q 3119 4184 2444 4184 
Q 1769 4184 1355 3729 
Q 941 3275 941 2528 
Q 941 1897 1250 1378 
Q 1563 859 2119 556 
L 2119 0 
L 244 0 
L 244 556 
L 1241 556 
Q 747 991 519 1456 
Q 294 1922 294 2497 
Q 294 3491 894 4106 
Q 1491 4722 2444 4722 
Q 3391 4722 3994 4106 
Q 4594 3494 4594 2528 
Q 4594 1922 4372 1459 
Q 4150 997 3647 556 
L 4647 556 
z
" transform="scale(0.015625)"/>
      </defs>
      <use xlink:href="#DejaVuSans-54"/>
      <use xlink:href="#DejaVuSans-2f" transform="translate(61.083984 0)"/>
      <use xlink:href="#DejaVuSans-3a9" transform="translate(94.775391 0)"/>
     </g>
    </g>
   </g>
   <g id="line2d_27">
    <path d="M 115.363636 70.707541 
L 125.543022 82.029594 
L 134.025844 91.104557 
L 142.508665 99.89604 
L 152.688051 110.124134 
L 162.867437 119.964572 
L 174.743387 131.1286 
L 184.922773 140.326637 
L 195.102159 149.217538 
L 206.978109 159.232834 
L 217.157495 167.500601 
L 227.336881 175.512239 
L 239.212831 184.547608 
L 251.088781 193.267023 
L 262.964731 201.691628 
L 276.537245 210.967463 
L 288.413196 218.797721 
L 300.289146 226.379776 
L 313.86166 234.743272 
L 327.434175 242.819173 
L 341.006689 250.606268 
L 354.579203 258.138189 
L 368.151718 265.423251 
L 381.724232 272.479584 
L 396.993311 280.142011 
L 412.26239 287.527311 
L 427.531469 294.664088 
L 442.800547 301.565181 
L 459.76619 308.977134 
L 476.731833 316.134513 
L 493.697476 323.044471 
L 508.966555 329.0817 
L 525.932198 335.579386 
L 547.987534 343.714482 
L 568.346306 350.943082 
L 588.705078 357.904224 
L 609.063849 364.614528 
L 622.636364 368.960604 
L 622.636364 368.960604 
" clip-path="url(#p5397680662)" style="fill: none; stroke: #4285f4; stroke-width: 1.6; stroke-linecap: square"/>
   </g>
   <g id="line2d_28">
    <defs>
     <path id="m8b42fc3990" d="M 0 2 
C 0.530406 2 1.03916 1.789267 1.414214 1.414214 
C 1.789267 1.03916 2 0.530406 2 0 
C 2 -0.530406 1.789267 -1.03916 1.414214 -1.414214 
C 1.03916 -1.789267 0.530406 -2 0 -2 
C -0.530406 -2 -1.03916 -1.789267 -1.414214 -1.414214 
C -1.789267 -1.03916 -2 -0.530406 -2 0 
C -2 0.530406 -1.789267 1.03916 -1.414214 1.414214 
C -1.03916 1.789267 -0.530406 2 0 2 
z
" style="stroke: #db4437"/>
    </defs>
    <g clip-path="url(#p5397680662)">
     <use xlink:href="#m8b42fc3990" x="115.363636" y="71.265945" style="fill: #db4437; stroke: #db4437"/>
     <use xlink:href="#m8b42fc3990" x="147.068182" y="103.811198" style="fill: #db4437; stroke: #db4437"/>
     <use xlink:href="#m8b42fc3990" x="178.772727" y="134.968436" style="fill: #db4437; stroke: #db4437"/>
     <use xlink:href="#m8b42fc3990" x="210.477273" y="161.194577" style="fill: #db4437; stroke: #db4437"/>
     <use xlink:href="#m8b42fc3990" x="242.181818" y="187.128504" style="fill: #db4437; stroke: #db4437"/>
     <use xlink:href="#m8b42fc3990" x="273.886364" y="208.825339" style="fill: #db4437; stroke: #db4437"/>
     <use xlink:href="#m8b42fc3990" x="305.590909" y="230.704807" style="fill: #db4437; stroke: #db4437"/>
     <use xlink:href="#m8b42fc3990" x="337.295455" y="248.639396" style="fill: #db4437; stroke: #db4437"/>
     <use xlink:href="#m8b42fc3990" x="369" y="266.647038" style="fill: #db4437; stroke: #db4437"/>
     <use xlink:href="#m8b42fc3990" x="400.704545" y="281.805601" style="fill: #db4437; stroke: #db4437"/>
     <use xlink:href="#m8b42fc3990" x="432.409091" y="296.927637" style="fill: #db4437; stroke: #db4437"/>
     <use xlink:href="#m8b42fc3990" x="464.113636" y="309.894601" style="fill: #db4437; stroke: #db4437"/>
     <use xlink:href="#m8b42fc3990" x="495.818182" y="323.628624" style="fill: #db4437; stroke: #db4437"/>
     <use xlink:href="#m8b42fc3990" x="527.522727" y="335.426735" style="fill: #db4437; stroke: #db4437"/>
     <use xlink:href="#m8b42fc3990" x="559.227273" y="348.064959" style="fill: #db4437; stroke: #db4437"/>
     <use xlink:href="#m8b42fc3990" x="590.931818" y="358.876849" style="fill: #db4437; stroke: #db4437"/>
     <use xlink:href="#m8b42fc3990" x="622.636364" y="369.36" style="fill: #db4437; stroke: #db4437"/>
    </g>
   </g>
   <g id="patch_3">
    <path d="M 90 384.48 
L 90 51.84 
" style="fill: none; stroke: #000000; stroke-width: 0.8; stroke-linejoin: miter; stroke-linecap: square"/>
   </g>
   <g id="patch_4">
    <path d="M 648 384.48 
L 648 51.84 
" style="fill: none; stroke: #000000; stroke-width: 0.8; stroke-linejoin: miter; stroke-linecap: square"/>
   </g>
   <g id="patch_5">
    <path d="M 90 384.48 
L 648 384.48 
" style="fill: none; stroke: #000000; stroke-width: 0.8; stroke-linejoin: miter; stroke-linecap: square"/>
   </g>
   <g id="patch_6">
    <path d="M 90 51.84 
L 648 51.84 
" style="fill: none; stroke: #000000; stroke-width: 0.8; stroke-linejoin: miter; stroke-linecap: square"/>
   </g>
   <g id="text_16">
    <!-- Bootstrap prediction band — gen_power -->
    <g transform="translate(238.007734 45.84) scale(0.13 -0.13)">
     <defs>
      <path id="DejaVuSans-42" d="M 1259 2228 
L 1259 519 
L 2272 519 
Q 2781 519 3026 730 
Q 3272 941 3272 1375 
Q 3272 1813 3026 2020 
Q 2781 2228 2272 2228 
L 1259 2228 
z
M 1259 4147 
L 1259 2741 
L 2194 2741 
Q 2656 2741 2882 2914 
Q 3109 3088 3109 3444 
Q 3109 3797 2882 3972 
Q 2656 4147 2194 4147 
L 1259 4147 
z
M 628 4666 
L 2241 4666 
Q 2963 4666 3353 4366 
Q 3744 4066 3744 3513 
Q 3744 3084 3544 2831 
Q 3344 2578 2956 2516 
Q 3422 2416 3680 2098 
Q 3938 1781 3938 1306 
Q 3938 681 3513 340 
Q 3088 0 2303 0 
L 628 0 
L 628 4666 
z
" transform="scale(0.015625)"/>
      <path id="DejaVuSans-6f" d="M 1959 3097 
Q 1497 3097 1228 2736 
Q 959 2375 959 1747 
Q 959 1119 1226 758 
Q 1494 397 1959 397 
Q 2419 397 2687 759 
Q 2956 1122 2956 1747 
Q 2956 2369 2687 2733 
Q 2419 3097 1959 3097 
z
M 1959 3584 
Q 2709 3584 3137 3096 
Q 3566 2609 3566 1747 
Q 3566 888 3137 398 
Q 2709 -91 1959 -91 
Q 1206 -91 779 398 
Q 353 888 353 1747 
Q 353 2609 779 3096 
Q 1206 3584 1959 3584 
z
" transform="scale(0.015625)"/>
      <path id="DejaVuSans-74" d="M 1172 4494 
L 1172 3500 
L 2356 3500 
L 2356 3053 
L 1172 3053 
L 1172 1153 
Q 1172 725 1289 603 
Q 1406 481 1766 481 
L 2356 481 
L 2356 0 
L 1766 0 
Q 1100 0 847 248 
Q 594 497 594 1153 
L 594 3053 
L 172 3053 
L 172 3500 
L 594 3500 
L 594 4494 
L 1172 4494 
z
" transform="scale(0.015625)"/>
      <path id="DejaVuSans-73" d="M 2834 3397 
L 2834 2853 
Q 2591 2978 2328 3040 
Q 2066 3103 1784 3103 
Q 1356 3103 1142 2972 
Q 928 2841 928 2578 
Q 928 2378 1081 2264 
Q 1234 2150 1697 2047 
L 1894 2003 
Q 2506 1872 2764 1633 
Q 3022 1394 3022 966 
Q 3022 478 2636 193 
Q 2250 -91 1575 -91 
Q 1294 -91 989 -36 
Q 684 19 347 128 
L 347 722 
Q 666 556 975 473 
Q 1284 391 1588 391 
Q 1994 391 2212 530 
Q 2431 669 2431 922 
Q 2431 1156 2273 1281 
Q 2116 1406 1581 1522 
L 1381 1569 
Q 847 1681 609 1914 
Q 372 2147 372 2553 
Q 372 3047 722 3315 
Q 1072 3584 1716 3584 
Q 2034 3584 2315 3537 
Q 2597 3491 2834 3397 
z
" transform="scale(0.015625)"/>
      <path id="DejaVuSans-72" d="M 2631 2963 
Q 2534 3019 2420 3045 
Q 2306 3072 2169 3072 
Q 1681 3072 1420 2755 
Q 1159 2438 1159 1844 
L 1159 0 
L 581 0 
L 581 3500 
L 1159 3500 
L 1159 2956 
Q 1341 3275 1631 3429 
Q 1922 3584 2338 3584 
Q 2397 3584 2469 3576 
Q 2541 3569 2628 3553 
L 2631 2963 
z
" transform="scale(0.015625)"/>
      <path id="DejaVuSans-61" d="M 2194 1759 
Q 1497 1759 1228 1600 
Q 959 1441 959 1056 
Q 959 750 1161 570 
Q 1363 391 1709 391 
Q 2188 391 2477 730 
Q 2766 1069 2766 1631 
L 2766 1759 
L 2194 1759 
z
M 3341 1997 
L 3341 0 
L 2766 0 
L 2766 531 
Q 2569 213 2275 61 
Q 1981 -91 1556 -91 
Q 1019 -91 701 211 
Q 384 513 384 1019 
Q 384 1609 779 1909 
Q 1175 2209 1959 2209 
L 2766 2209 
L 2766 2266 
Q 2766 2663 2505 2880 
Q 2244 3097 1772 3097 
Q 1472 3097 1187 3025 
Q 903 2953 641 2809 
L 641 3341 
Q 956 3463 1253 3523 
Q 1550 3584 1831 3584 
Q 2591 3584 2966 3190 
Q 3341 2797 3341 1997 
z
" transform="scale(0.015625)"/>
      <path id="DejaVuSans-70" d="M 1159 525 
L 1159 -1331 
L 581 -1331 
L 581 3500 
L 1159 3500 
L 1159 2969 
Q 1341 3281 1617 3432 
Q 1894 3584 2278 3584 
Q 2916 3584 3314 3078 
Q 3713 2572 3713 1747 
Q 3713 922 3314 415 
Q 2916 -91 2278 -91 
Q 1894 -91 1617 61 
Q 1341 213 1159 525 
z
M 3116 1747 
Q 3116 2381 2855 2742 
Q 2594 3103 2138 3103 
Q 1681 3103 1420 2742 
Q 1159 2381 1159 1747 
Q 1159 1113 1420 752 
Q 1681 391 2138 391 
Q 2594 391 2855 752 
Q 3116 1113 3116 1747 
z
" transform="scale(0.015625)"/>
      <path id="DejaVuSans-65" d="M 3597 1894 
L 3597 1613 
L 953 1613 
Q 991 1019 1311 708 
Q 1631 397 2203 397 
Q 2534 397 2845 478 
Q 3156 559 3463 722 
L 3463 178 
Q 3153 47 2828 -22 
Q 2503 -91 2169 -91 
Q 1331 -91 842 396 
Q 353 884 353 1716 
Q 353 2575 817 3079 
Q 1281 3584 2069 3584 
Q 2775 3584 3186 3129 
Q 3597 2675 3597 1894 
z
M 3022 2063 
Q 3016 2534 2758 2815 
Q 2500 3097 2075 3097 
Q 1594 3097 1305 2825 
Q 1016 2553 972 2059 
L 3022 2063 
z
" transform="scale(0.015625)"/>
      <path id="DejaVuSans-64" d="M 2906 2969 
L 2906 4863 
L 3481 4863 
L 3481 0 
L 2906 0 
L 2906 525 
Q 2725 213 2448 61 
Q 2172 -91 1784 -91 
Q 1150 -91 751 415 
Q 353 922 353 1747 
Q 353 2572 751 3078 
Q 1150 3584 1784 3584 
Q 2172 3584 2448 3432 
Q 2725 3281 2906 2969 
z
M 947 1747 
Q 947 1113 1208 752 
Q 1469 391 1925 391 
Q 2381 391 2643 752 
Q 2906 1113 2906 1747 
Q 2906 2381 2643 2742 
Q 2381 3103 1925 3103 
Q 1469 3103 1208 2742 
Q 947 2381 947 1747 
z
" transform="scale(0.015625)"/>
      <path id="DejaVuSans-69" d="M 603 3500 
L 1178 3500 
L 1178 0 
L 603 0 
L 603 3500 
z
M 603 4863 
L 1178 4863 
L 1178 4134 
L 603 4134 
L 603 4863 
z
" transform="scale(0.015625)"/>
      <path id="DejaVuSans-63" d="M 3122 3366 
L 3122 2828 
Q 2878 2963 2633 3030 
Q 2388 3097 2138 3097 
Q 1578 3097 1268 2742 
Q 959 2388 959 1747 
Q 959 1106 1268 751 
Q 1578 397 2138 397 
Q 2388 397 2633 464 
Q 2878 531 3122 666 
L 3122 134 
Q 2881 22 2623 -34 
Q 2366 -91 2075 -91 
Q 1284 -91 818 406 
Q 353 903 353 1747 
Q 353 2603 823 3093 
Q 1294 3584 2113 3584 
Q 2378 3584 2631 3529 
Q 2884 3475 3122 3366 
z
" transform="scale(0.015625)"/>
      <path id="DejaVuSans-6e" d="M 3513 2113 
L 3513 0 
L 2938 0 
L 2938 2094 
Q 2938 2591 2744 2837 
Q 2550 3084 2163 3084 
Q 1697 3084 1428 2787 
Q 1159 2491 1159 1978 
L 1159 0 
L 581 0 
L 581 3500 
L 1159 3500 
L 1159 2956 
Q 1366 3272 1645 3428 
Q 1925 3584 2291 3584 
Q 2894 3584 3203 3211 
Q 3513 2838 3513 2113 
z
" transform="scale(0.015625)"/>
      <path id="DejaVuSans-62" d="M 3116 1747 
Q 3116 2381 2855 2742 
Q 2594 3103 2138 3103 
Q 1681 3103 1420 2742 
Q 1159 2381 1159 1747 
Q 1159 1113 1420 752 
Q 1681 391 2138 391 
Q 2594 391 2855 752 
Q 3116 1113 3116 1747 
z
M 1159 2969 
Q 1341 3281 1617 3432 
Q 1894 3584 2278 3584 
Q 2916 3584 3314 3078 
Q 3713 2572 3713 1747 
Q 3713 922 3314 415 
Q 2916 -91 2278 -91 
Q 1894 -91 1617 61 
Q 1341 213 1159 525 
L 1159 0 
L 581 0 
L 581 4863 
L 1159 4863 
L 1159 2969 
z
" transform="scale(0.015625)"/>
      <path id="DejaVuSans-2014" d="M 313 1978 
L 6088 1978 
L 6088 1528 
L 313 1528 
L 313 1978 
z
" transform="scale(0.015625)"/>
      <path id="DejaVuSans-67" d="M 2906 1791 
Q 2906 2416 2648 2759 
Q 2391 3103 1925 3103 
Q 1463 3103 1205 2759 
Q 947 2416 947 1791 
Q 947 1169 1205 825 
Q 1463 481 1925 481 
Q 2391 481 2648 825 
Q 2906 1169 2906 1791 
z
M 3481 434 
Q 3481 -459 3084 -895 
Q 2688 -1331 1869 -1331 
Q 1566 -1331 1297 -1286 
Q 1028 -1241 775 -1147 
L 775 -588 
Q 1028 -725 1275 -790 
Q 1522 -856 1778 -856 
Q 2344 -856 2625 -561 
Q 2906 -266 2906 331 
L 2906 616 
Q 2728 306 2450 153 
Q 2172 0 1784 0 
Q 1141 0 747 490 
Q 353 981 353 1791 
Q 353 2603 747 3093 
Q 1141 3584 1784 3584 
Q 2172 3584 2450 3431 
Q 2728 3278 2906 2969 
L 2906 3500 
L 3481 3500 
L 3481 434 
z
" transform="scale(0.015625)"/>
      <path id="DejaVuSans-5f" d="M 3263 -1063 
L 3263 -1509 
L -63 -1509 
L -63 -1063 
L 3263 -1063 
z
" transform="scale(0.015625)"/>
      <path id="DejaVuSans-77" d="M 269 3500 
L 844 3500 
L 1563 769 
L 2278 3500 
L 2956 3500 
L 3675 769 
L 4391 3500 
L 4966 3500 
L 4050 0 
L 3372 0 
L 2619 2869 
L 1863 0 
L 1184 0 
L 269 3500 
z
" transform="scale(0.015625)"/>
     </defs>
     <use xlink:href="#DejaVuSans-42"/>
     <use xlink:href="#DejaVuSans-6f" transform="translate(68.603516 0)"/>
     <use xlink:href="#DejaVuSans-6f" transform="translate(129.785156 0)"/>
     <use xlink:href="#DejaVuSans-74" transform="translate(190.966797 0)"/>
     <use xlink:href="#DejaVuSans-73" transform="translate(230.175781 0)"/>
     <use xlink:href="#DejaVuSans-74" transform="translate(282.275391 0)"/>
     <use xlink:href="#DejaVuSans-72" transform="translate(321.484375 0)"/>
     <use xlink:href="#DejaVuSans-61" transform="translate(362.597656 0)"/>
     <use xlink:href="#DejaVuSans-70" transform="translate(423.876953 0)"/>
     <use xlink:href="#DejaVuSans-20" transform="translate(487.353516 0)"/>
     <use xlink:href="#DejaVuSans-70" transform="translate(519.140625 0)"/>
     <use xlink:href="#DejaVuSans-72" transform="translate(582.617188 0)"/>
     <use xlink:href="#DejaVuSans-65" transform="translate(621.480469 0)"/>
     <use xlink:href="#DejaVuSans-64" transform="translate(683.003906 0)"/>
     <use xlink:href="#DejaVuSans-69" transform="translate(746.480469 0)"/>
     <use xlink:href="#DejaVuSans-63" transform="translate(774.263672 0)"/>
     <use xlink:href="#DejaVuSans-74" transform="translate(829.244141 0)"/>
     <use xlink:href="#DejaVuSans-69" transform="translate(868.453125 0)"/>
     <use xlink:href="#DejaVuSans-6f" transform="translate(896.236328 0)"/>
     <use xlink:href="#DejaVuSans-6e" transform="translate(957.417969 0)"/>
     <use xlink:href="#DejaVuSans-20" transform="translate(1020.796875 0)"/>
     <use xlink:href="#DejaVuSans-62" transform="translate(1052.583984 0)"/>
     <use xlink:href="#DejaVuSans-61" transform="translate(1116.060547 0)"/>
     <use xlink:href="#DejaVuSans-6e" transform="translate(1177.339844 0)"/>
     <use xlink:href="#DejaVuSans-64" transform="translate(1240.71875 0)"/>
     <use xlink:href="#DejaVuSans-20" transform="translate(1304.195312 0)"/>
     <use xlink:href="#DejaVuSans-2014" transform="translate(1335.982422 0)"/>
     <use xlink:href="#DejaVuSans-20" transform="translate(1435.982422 0)"/>
     <use xlink:href="#DejaVuSans-67" transform="translate(1467.769531 0)"/>
     <use xlink:href="#DejaVuSans-65" transform="translate(1531.246094 0)"/>
     <use xlink:href="#DejaVuSans-6e" transform="translate(1592.769531 0)"/>
     <use xlink:href="#DejaVuSans-5f" transform="translate(1656.148438 0)"/>
     <use xlink:href="#DejaVuSans-70" transform="translate(1706.148438 0)"/>
     <use xlink:href="#DejaVuSans-6f" transform="translate(1769.625 0)"/>
     <use xlink:href="#DejaVuSans-77" transform="translate(1830.806641 0)"/>
     <use xlink:href="#DejaVuSans-65" transform="translate(1912.59375 0)"/>
     <use xlink:href="#DejaVuSans-72" transform="translate(1974.117188 0)"/>
    </g>
   </g>
   <g id="legend_1">
    <g id="patch_7">
     <path d="M 558.117188 103.874375 
L 641 103.874375 
Q 643 103.874375 643 101.874375 
L 643 58.84 
Q 643 56.84 641 56.84 
L 558.117188 56.84 
Q 556.117188 56.84 556.117188 58.84 
L 556.117188 101.874375 
Q 556.117188 103.874375 558.117188 103.874375 
z
" style="fill: #ffffff; opacity: 0.8; stroke: #cccccc; stroke-linejoin: miter"/>
    </g>
    <g id="patch_8">
     <path d="M 560.117188 68.438437 
L 580.117188 68.438437 
L 580.117188 61.438437 
L 560.117188 61.438437 
z
" style="fill: #4285f4; fill-opacity: 0.25; stroke: #4285f4; stroke-opacity: 0.25; stroke-linejoin: miter"/>
    </g>
    <g id="text_17">
     <!-- 95% band -->
     <g transform="translate(588.117188 68.438437) scale(0.1 -0.1)">
      <defs>
       <path id="DejaVuSans-25" d="M 4653 2053 
Q 4381 2053 4226 1822 
Q 4072 1591 4072 1178 
Q 4072 772 4226 539 
Q 4381 306 4653 306 
Q 4919 306 5073 539 
Q 5228 772 5228 1178 
Q 5228 1588 5073 1820 
Q 4919 2053 4653 2053 
z
M 4653 2450 
Q 5147 2450 5437 2106 
Q 5728 1763 5728 1178 
Q 5728 594 5436 251 
Q 5144 -91 4653 -91 
Q 4153 -91 3862 251 
Q 3572 594 3572 1178 
Q 3572 1766 3864 2108 
Q 4156 2450 4653 2450 
z
M 1428 4353 
Q 1159 4353 1004 4120 
Q 850 3888 850 3481 
Q 850 3069 1003 2837 
Q 1156 2606 1428 2606 
Q 1700 2606 1854 2837 
Q 2009 3069 2009 3481 
Q 2009 3884 1853 4118 
Q 1697 4353 1428 4353 
z
M 4250 4750 
L 4750 4750 
L 1831 -91 
L 1331 -91 
L 4250 4750 
z
M 1428 4750 
Q 1922 4750 2215 4408 
Q 2509 4066 2509 3481 
Q 2509 2891 2217 2550 
Q 1925 2209 1428 2209 
Q 931 2209 642 2551 
Q 353 2894 353 3481 
Q 353 4063 643 4406 
Q 934 4750 1428 4750 
z
" transform="scale(0.015625)"/>
      </defs>
      <use xlink:href="#DejaVuSans-39"/>
      <use xlink:href="#DejaVuSans-35" transform="translate(63.623047 0)"/>
      <use xlink:href="#DejaVuSans-25" transform="translate(127.246094 0)"/>
      <use xlink:href="#DejaVuSans-20" transform="translate(222.265625 0)"/>
      <use xlink:href="#DejaVuSans-62" transform="translate(254.052734 0)"/>
      <use xlink:href="#DejaVuSans-61" transform="translate(317.529297 0)"/>
      <use xlink:href="#DejaVuSans-6e" transform="translate(378.808594 0)"/>
      <use xlink:href="#DejaVuSans-64" transform="translate(442.1875 0)"/>
     </g>
    </g>
    <g id="line2d_29">
     <path d="M 560.117188 79.616562 
L 570.117188 79.616562 
L 580.117188 79.616562 
" style="fill: none; stroke: #4285f4; stroke-width: 1.6; stroke-linecap: square"/>
    </g>
    <g id="text_18">
     <!-- median fit -->
     <g transform="translate(588.117188 83.116562) scale(0.1 -0.1)">
      <defs>
       <path id="DejaVuSans-66" d="M 2375 4863 
L 2375 4384 
L 1825 4384 
Q 1516 4384 1395 4259 
Q 1275 4134 1275 3809 
L 1275 3500 
L 2222 3500 
L 2222 3053 
L 1275 3053 
L 1275 0 
L 697 0 
L 697 3053 
L 147 3053 
L 147 3500 
L 697 3500 
L 697 3744 
Q 697 4328 969 4595 
Q 1241 4863 1831 4863 
L 2375 4863 
z
" transform="scale(0.015625)"/>
      </defs>
      <use xlink:href="#DejaVuSans-6d"/>
      <use xlink:href="#DejaVuSans-65" transform="translate(97.412109 0)"/>
      <use xlink:href="#DejaVuSans-64" transform="translate(158.935547 0)"/>
      <use xlink:href="#DejaVuSans-69" transform="translate(222.412109 0)"/>
      <use xlink:href="#DejaVuSans-61" transform="translate(250.195312 0)"/>
      <use xlink:href="#DejaVuSans-6e" transform="translate(311.474609 0)"/>
      <use xlink:href="#DejaVuSans-20" transform="translate(374.853516 0)"/>
      <use xlink:href="#DejaVuSans-66" transform="translate(406.640625 0)"/>
      <use xlink:href="#DejaVuSans-69" transform="translate(441.845703 0)"/>
      <use xlink:href="#DejaVuSans-74" transform="translate(469.628906 0)"/>
     </g>
    </g>
    <g id="line2d_30">
     <defs>
      <path id="mbd0616ed06" d="M 0 2 
C 0.530406 2 1.03916 1.789267 1.414214 1.414214 
C 1.789267 1.03916 2 0.530406 2 0 
C 2 -0.530406 1.789267 -1.03916 1.414214 -1.414214 
C 1.03916 -1.789267 0.530406 -2 0 -2 
C -0.530406 -2 -1.03916 -1.789267 -1.414214 -1.414214 
C -1.789267 -1.03916 -2 -0.530406 -2 0 
C -2 0.530406 -1.789267 1.03916 -1.414214 1.414214 
C -1.03916 1.789267 -0.530406 2 0 2 
z
" style="stroke: #000000"/>
     </defs>
     <g>
      <use xlink:href="#mbd0616ed06" x="570.117188" y="94.294687" style="stroke: #000000"/>
     </g>
    </g>
    <g id="text_19">
     <!-- data -->
     <g transform="translate(588.117188 97.794687) scale(0.1 -0.1)">
      <use xlink:href="#DejaVuSans-64"/>
      <use xlink:href="#DejaVuSans-61" transform="translate(63.476562 0)"/>
      <use xlink:href="#DejaVuSans-74" transform="translate(124.755859 0)"/>
      <use xlink:href="#DejaVuSans-61" transform="translate(163.964844 0)"/>
     </g>
    </g>
   </g>
  </g>
 </g>
 <defs>
  <clipPath id="p5397680662">
   <rect x="90" y="51.84" width="558" height="332.64"/>
  </clipPath>
 </defs>
</svg>
