<?xml version="1.0" encoding="utf-8" standalone="no"?>
<!DOCTYPE svg PUBLIC "-//W3C//DTD SVG 1.1//EN"
  "http://www.w3.org/Graphics/SVG/1.1/DTD/svg11.dtd">
<svg xmlns:xlink="http://www.w3.org/1999/xlink" width="442.88375pt" height="308.441469pt" viewBox="0 0 442.88375 308.441469" xmlns="http://www.w3.org/2000/svg" version="1.1">
 <metadata>
  <rdf:RDF xmlns:dc="http://purl.org/dc/elements/1.1/" xmlns:cc="http://creativecommons.org/ns#" xmlns:rdf="http://www.w3.org/1999/02/22-rdf-syntax-ns#">
   <cc:Work>
    <dc:type rdf:resource="http://purl.org/dc/dcmitype/StillImage"/>
    <dc:date>2026-05-29T17:12:46.278635</dc:date>
    <dc:format>image/svg+xml</dc:format>
    <dc:creator>
     <cc:Agent>
      <dc:title>Matplotlib v3.10.0, https://matplotlib.org/</dc:title>
     </cc:Agent>
    </dc:creator>
   </cc:Work>
  </rdf:RDF>
 </metadata>
 <defs>
  <style type="text/css">*{stroke-linejoin: round; stroke-linecap: butt}</style>
 </defs>
 <g id="figure_1">
  <g id="patch_1">
   <path d="M 0 308.441469 
L 442.88375 308.441469 
L 442.88375 0 
L 0 0 
z
" style="fill: #ffffff"/>
  </g>
  <g id="axes_1">
   <g id="patch_2">
    <path d="M 45.08375 267.013969 
L 435.68375 267.013969 
L 435.68375 23.077969 
L 45.08375 23.077969 
z
" style="fill: #ffffff"/>
   </g>
   <g id="FillBetweenPolyCollection_1">
    <defs>
     <path id="mf42439740e" d="M 62.838295 -274.2755 
L 62.838295 -270.38408 
L 64.02589 -268.85569 
L 65.213485 -267.338517 
L 66.40108 -265.832438 
L 67.588676 -264.337333 
L 68.776271 -262.85308 
L 69.963866 -261.37971 
L 71.151461 -259.917315 
L 72.339056 -258.467543 
L 73.526651 -257.028665 
L 74.714246 -255.591748 
L 75.901841 -254.170109 
L 77.089436 -252.758535 
L 78.277031 -251.356922 
L 79.464626 -249.965164 
L 80.652221 -248.583158 
L 81.839816 -247.2108 
L 83.027411 -245.844496 
L 84.215006 -244.484489 
L 85.402601 -243.134038 
L 86.590196 -241.793044 
L 87.777791 -240.461406 
L 88.965386 -239.138002 
L 90.152981 -237.818392 
L 91.340576 -236.517155 
L 92.528171 -235.227051 
L 93.715766 -233.938143 
L 94.903361 -232.654991 
L 96.090956 -231.374324 
L 97.278551 -230.11132 
L 98.466146 -228.857665 
L 99.653741 -227.595584 
L 100.841336 -226.350835 
L 102.028931 -225.113981 
L 103.216526 -223.891232 
L 104.404121 -222.666395 
L 105.591716 -221.439642 
L 106.779311 -220.234931 
L 107.966906 -219.037181 
L 109.154501 -217.859126 
L 110.342096 -216.682447 
L 111.529691 -215.513609 
L 112.717286 -214.352534 
L 113.904881 -213.199145 
L 115.092476 -212.032156 
L 116.280071 -210.879186 
L 117.467666 -209.744246 
L 118.655261 -208.602498 
L 119.842856 -207.475121 
L 121.030451 -206.361516 
L 122.218046 -205.242213 
L 123.405641 -204.115996 
L 124.593236 -203.003754 
L 125.780831 -201.895663 
L 126.968426 -200.792416 
L 128.156021 -199.691339 
L 129.343616 -198.606146 
L 130.531211 -197.536478 
L 131.718806 -196.468747 
L 132.906401 -195.406749 
L 134.093996 -194.354161 
L 135.281591 -193.308654 
L 136.469186 -192.269667 
L 137.656781 -191.237557 
L 138.844376 -190.212188 
L 140.031971 -189.193458 
L 141.219566 -188.181304 
L 142.407161 -187.175662 
L 143.594756 -186.17647 
L 144.782351 -185.183665 
L 145.969946 -184.197187 
L 147.157541 -183.216975 
L 148.345136 -182.243105 
L 149.532731 -181.275305 
L 150.720326 -180.309507 
L 151.907921 -179.349815 
L 153.095516 -178.403466 
L 154.283112 -177.464697 
L 155.470707 -176.524755 
L 156.658302 -175.588792 
L 157.845897 -174.660385 
L 159.033492 -173.732912 
L 160.221087 -172.81365 
L 161.408682 -171.900053 
L 162.596277 -170.992066 
L 163.783872 -170.08964 
L 164.971467 -169.19273 
L 166.159062 -168.301429 
L 167.346657 -167.415537 
L 168.534252 -166.535004 
L 169.721847 -165.662562 
L 170.909442 -164.796565 
L 172.097037 -163.935828 
L 173.284632 -163.080303 
L 174.472227 -162.229942 
L 175.659822 -161.3847 
L 176.847417 -160.544529 
L 178.035012 -159.709385 
L 179.222607 -158.879222 
L 180.410202 -158.053997 
L 181.597797 -157.233664 
L 182.785392 -156.418181 
L 183.972987 -155.607505 
L 185.160582 -154.801594 
L 186.348177 -154.000405 
L 187.535772 -153.203897 
L 188.723367 -152.410941 
L 189.910962 -151.620294 
L 191.098557 -150.834216 
L 192.286152 -150.052665 
L 193.473747 -149.275605 
L 194.661342 -148.502996 
L 195.848937 -147.734799 
L 197.036532 -146.970978 
L 198.224127 -146.211495 
L 199.411722 -145.455554 
L 200.599317 -144.703402 
L 201.786912 -143.955511 
L 202.974507 -143.211886 
L 204.162102 -142.472477 
L 205.349697 -141.737221 
L 206.537292 -141.006082 
L 207.724887 -140.279028 
L 208.912482 -139.556023 
L 210.100077 -138.836547 
L 211.287672 -138.120836 
L 212.475267 -137.40903 
L 213.662862 -136.701097 
L 214.850457 -135.997005 
L 216.038052 -135.296724 
L 217.225647 -134.600222 
L 218.413242 -133.907469 
L 219.600837 -133.218435 
L 220.788432 -132.533089 
L 221.976027 -131.851403 
L 223.163622 -131.173347 
L 224.351217 -130.498893 
L 225.538812 -129.82801 
L 226.726407 -129.160672 
L 227.914002 -128.496851 
L 229.101597 -127.836518 
L 230.289192 -127.179237 
L 231.476787 -126.523627 
L 232.664382 -125.87141 
L 233.851977 -125.222599 
L 235.039572 -124.582003 
L 236.227167 -123.944723 
L 237.414762 -123.309207 
L 238.602357 -122.675689 
L 239.789952 -122.045422 
L 240.977548 -121.418383 
L 242.165143 -120.794545 
L 243.352738 -120.173885 
L 244.540333 -119.556378 
L 245.727928 -118.942 
L 246.915523 -118.330728 
L 248.103118 -117.722673 
L 249.290713 -117.117728 
L 250.478308 -116.513559 
L 251.665903 -115.911579 
L 252.853498 -115.312583 
L 254.041093 -114.723356 
L 255.228688 -114.127772 
L 256.416283 -113.535105 
L 257.603878 -112.949368 
L 258.791473 -112.370004 
L 259.979068 -111.78643 
L 261.166663 -111.216136 
L 262.354258 -110.646762 
L 263.541853 -110.069199 
L 264.729448 -109.49437 
L 265.917043 -108.922249 
L 267.104638 -108.352816 
L 268.292233 -107.786053 
L 269.479828 -107.22503 
L 270.667423 -106.667938 
L 271.855018 -106.113499 
L 273.042613 -105.561869 
L 274.230208 -105.009512 
L 275.417803 -104.462942 
L 276.605398 -103.916459 
L 277.792993 -103.368402 
L 278.980588 -102.828466 
L 280.168183 -102.296776 
L 281.355778 -101.767638 
L 282.543373 -101.240847 
L 283.730968 -100.712078 
L 284.918563 -100.185765 
L 286.106158 -99.661891 
L 287.293753 -99.140438 
L 288.481348 -98.621392 
L 289.668943 -98.104739 
L 290.856538 -97.590503 
L 292.044133 -97.078622 
L 293.231728 -96.565023 
L 294.419323 -96.057616 
L 295.606918 -95.55084 
L 296.794513 -95.04325 
L 297.982108 -94.539008 
L 299.169703 -94.027756 
L 300.357298 -93.524283 
L 301.544893 -93.023025 
L 302.732488 -92.524173 
L 303.920083 -92.027847 
L 305.107678 -91.533695 
L 306.295273 -91.049767 
L 307.482868 -90.570923 
L 308.670463 -90.079791 
L 309.858058 -89.587251 
L 311.045653 -89.096774 
L 312.233248 -88.611897 
L 313.420843 -88.136219 
L 314.608438 -87.666815 
L 315.796033 -87.196361 
L 316.983628 -86.721708 
L 318.171223 -86.237033 
L 319.358818 -85.766024 
L 320.546413 -85.302776 
L 321.734008 -84.841521 
L 322.921603 -84.382247 
L 324.109198 -83.924941 
L 325.296793 -83.46959 
L 326.484388 -83.012714 
L 327.671984 -82.554462 
L 328.859579 -82.098122 
L 330.047174 -81.643681 
L 331.234769 -81.191128 
L 332.422364 -80.740452 
L 333.609959 -80.291639 
L 334.797554 -79.84468 
L 335.985149 -79.399562 
L 337.172744 -78.956361 
L 338.360339 -78.517365 
L 339.547934 -78.080195 
L 340.735529 -77.644918 
L 341.923124 -77.210888 
L 343.110719 -76.779382 
L 344.298314 -76.349268 
L 345.485909 -75.920948 
L 346.673504 -75.494369 
L 347.861099 -75.069521 
L 349.048694 -74.644913 
L 350.236289 -74.220385 
L 351.423884 -73.797534 
L 352.611479 -73.376449 
L 353.799074 -72.95702 
L 354.986669 -72.539237 
L 356.174264 -72.123092 
L 357.361859 -71.708574 
L 358.549454 -71.300015 
L 359.737049 -70.884137 
L 360.924644 -70.474171 
L 362.112239 -70.065794 
L 363.299834 -69.659086 
L 364.487429 -69.254039 
L 365.675024 -68.850537 
L 366.862619 -68.447672 
L 368.050214 -68.046371 
L 369.237809 -67.646626 
L 370.425404 -67.248427 
L 371.612999 -66.851765 
L 372.800594 -66.45391 
L 373.988189 -66.061942 
L 375.175784 -65.670772 
L 376.363379 -65.280369 
L 377.550974 -64.895728 
L 378.738569 -64.509892 
L 379.926164 -64.125533 
L 381.113759 -63.742643 
L 382.301354 -63.360607 
L 383.488949 -62.979469 
L 384.676544 -62.599757 
L 385.864139 -62.221463 
L 387.051734 -61.844579 
L 388.239329 -61.469098 
L 389.426924 -61.09507 
L 390.614519 -60.722482 
L 391.802114 -60.351273 
L 392.989709 -59.981435 
L 394.177304 -59.615216 
L 395.364899 -59.251838 
L 396.552494 -58.889823 
L 397.740089 -58.529163 
L 398.927684 -58.164834 
L 400.115279 -57.798313 
L 401.302874 -57.433109 
L 402.490469 -57.070419 
L 403.678064 -56.712369 
L 404.865659 -56.355617 
L 406.053254 -56.000155 
L 407.240849 -55.645977 
L 408.428444 -55.293126 
L 409.616039 -54.941606 
L 410.803634 -54.591349 
L 411.991229 -54.242348 
L 413.178824 -53.894597 
L 414.36642 -53.548089 
L 415.554015 -53.202817 
L 416.74161 -52.858776 
L 417.929205 -52.5155 
L 417.929205 -54.703192 
L 417.929205 -54.703192 
L 416.74161 -55.030616 
L 415.554015 -55.359253 
L 414.36642 -55.68907 
L 413.178824 -56.020078 
L 411.991229 -56.35232 
L 410.803634 -56.685804 
L 409.616039 -57.020536 
L 408.428444 -57.356522 
L 407.240849 -57.693772 
L 406.053254 -58.03229 
L 404.865659 -58.37905 
L 403.678064 -58.727181 
L 402.490469 -59.072564 
L 401.302874 -59.415664 
L 400.115279 -59.759113 
L 398.927684 -60.1001 
L 397.740089 -60.446137 
L 396.552494 -60.798122 
L 395.364899 -61.150847 
L 394.177304 -61.501992 
L 392.989709 -61.854489 
L 391.802114 -62.208345 
L 390.614519 -62.563568 
L 389.426924 -62.920166 
L 388.239329 -63.278147 
L 387.051734 -63.637513 
L 385.864139 -63.998588 
L 384.676544 -64.365403 
L 383.488949 -64.733628 
L 382.301354 -65.103272 
L 381.113759 -65.474343 
L 379.926164 -65.846849 
L 378.738569 -66.2208 
L 377.550974 -66.595606 
L 376.363379 -66.968763 
L 375.175784 -67.343396 
L 373.988189 -67.719514 
L 372.800594 -68.097127 
L 371.612999 -68.476243 
L 370.425404 -68.8567 
L 369.237809 -69.239285 
L 368.050214 -69.628697 
L 366.862619 -70.013378 
L 365.675024 -70.404178 
L 364.487429 -70.797073 
L 363.299834 -71.191528 
L 362.112239 -71.588017 
L 360.924644 -71.986979 
L 359.737049 -72.387524 
L 358.549454 -72.789662 
L 357.361859 -73.193403 
L 356.174264 -73.598757 
L 354.986669 -74.005732 
L 353.799074 -74.414304 
L 352.611479 -74.824499 
L 351.423884 -75.236346 
L 350.236289 -75.649848 
L 349.048694 -76.065006 
L 347.861099 -76.479633 
L 346.673504 -76.895222 
L 345.485909 -77.312527 
L 344.298314 -77.731558 
L 343.110719 -78.152326 
L 341.923124 -78.574842 
L 340.735529 -78.999116 
L 339.547934 -79.425282 
L 338.360339 -79.854986 
L 337.172744 -80.286469 
L 335.985149 -80.719741 
L 334.797554 -81.154813 
L 333.609959 -81.59058 
L 332.422364 -82.026053 
L 331.234769 -82.4666 
L 330.047174 -82.911687 
L 328.859579 -83.353421 
L 327.671984 -83.798215 
L 326.484388 -84.24469 
L 325.296793 -84.695012 
L 324.109198 -85.146774 
L 322.921603 -85.599452 
L 321.734008 -86.054056 
L 320.546413 -86.510606 
L 319.358818 -86.969114 
L 318.171223 -87.429593 
L 316.983628 -87.892057 
L 315.796033 -88.356516 
L 314.608438 -88.822986 
L 313.420843 -89.291478 
L 312.233248 -89.762007 
L 311.045653 -90.234584 
L 309.858058 -90.709168 
L 308.670463 -91.185824 
L 307.482868 -91.664571 
L 306.295273 -92.145421 
L 305.107678 -92.62839 
L 303.920083 -93.11349 
L 302.732488 -93.600737 
L 301.544893 -94.089646 
L 300.357298 -94.579977 
L 299.169703 -95.072524 
L 297.982108 -95.5673 
L 296.794513 -96.06432 
L 295.606918 -96.563601 
L 294.419323 -97.065158 
L 293.231728 -97.569006 
L 292.044133 -98.075161 
L 290.856538 -98.58638 
L 289.668943 -99.101366 
L 288.481348 -99.618705 
L 287.293753 -100.137315 
L 286.106158 -100.656275 
L 284.918563 -101.177608 
L 283.730968 -101.701332 
L 282.543373 -102.227463 
L 281.355778 -102.756018 
L 280.168183 -103.287013 
L 278.980588 -103.820466 
L 277.792993 -104.356394 
L 276.605398 -104.894813 
L 275.417803 -105.435741 
L 274.230208 -105.979196 
L 273.042613 -106.525161 
L 271.855018 -107.073656 
L 270.667423 -107.624731 
L 269.479828 -108.178404 
L 268.292233 -108.737243 
L 267.104638 -109.306638 
L 265.917043 -109.878626 
L 264.729448 -110.453227 
L 263.541853 -111.030458 
L 262.354258 -111.605294 
L 261.166663 -112.178694 
L 259.979068 -112.75482 
L 258.791473 -113.333718 
L 257.603878 -113.91943 
L 256.416283 -114.505374 
L 255.228688 -115.09881 
L 254.041093 -115.697195 
L 252.853498 -116.299041 
L 251.665903 -116.903709 
L 250.478308 -117.51284 
L 249.290713 -118.121505 
L 248.103118 -118.728522 
L 246.915523 -119.33758 
L 245.727928 -119.949621 
L 244.540333 -120.567707 
L 243.352738 -121.189943 
L 242.165143 -121.815187 
L 240.977548 -122.44346 
L 239.789952 -123.074709 
L 238.602357 -123.704771 
L 237.414762 -124.338189 
L 236.227167 -124.985181 
L 235.039572 -125.624193 
L 233.851977 -126.276119 
L 232.664382 -126.928245 
L 231.476787 -127.581716 
L 230.289192 -128.238419 
L 229.101597 -128.898378 
L 227.914002 -129.566948 
L 226.726407 -130.239012 
L 225.538812 -130.914339 
L 224.351217 -131.592954 
L 223.163622 -132.274881 
L 221.976027 -132.960125 
L 220.788432 -133.648518 
L 219.600837 -134.33467 
L 218.413242 -135.020831 
L 217.225647 -135.710609 
L 216.038052 -136.409712 
L 214.850457 -137.114541 
L 213.662862 -137.822754 
L 212.475267 -138.534138 
L 211.287672 -139.248939 
L 210.100077 -139.968756 
L 208.912482 -140.689179 
L 207.724887 -141.414501 
L 206.537292 -142.138971 
L 205.349697 -142.86968 
L 204.162102 -143.607642 
L 202.974507 -144.349398 
L 201.786912 -145.094978 
L 200.599317 -145.844646 
L 199.411722 -146.59824 
L 198.224127 -147.355535 
L 197.036532 -148.116732 
L 195.848937 -148.882294 
L 194.661342 -149.66 
L 193.473747 -150.431783 
L 192.286152 -151.207514 
L 191.098557 -151.987259 
L 189.910962 -152.775536 
L 188.723367 -153.573236 
L 187.535772 -154.375439 
L 186.348177 -155.175391 
L 185.160582 -155.976684 
L 183.972987 -156.782286 
L 182.785392 -157.592046 
L 181.597797 -158.406212 
L 180.410202 -159.224818 
L 179.222607 -160.05514 
L 178.035012 -160.890832 
L 176.847417 -161.731269 
L 175.659822 -162.576562 
L 174.472227 -163.422305 
L 173.284632 -164.272571 
L 172.097037 -165.130053 
L 170.909442 -165.997186 
L 169.721847 -166.870284 
L 168.534252 -167.750032 
L 167.346657 -168.632288 
L 166.159062 -169.517704 
L 164.971467 -170.421102 
L 163.783872 -171.314045 
L 162.596277 -172.211483 
L 161.408682 -173.120094 
L 160.221087 -174.023103 
L 159.033492 -174.94002 
L 157.845897 -175.862622 
L 156.658302 -176.790737 
L 155.470707 -177.724414 
L 154.283112 -178.663705 
L 153.095516 -179.608659 
L 151.907921 -180.559329 
L 150.720326 -181.51639 
L 149.532731 -182.483764 
L 148.345136 -183.457046 
L 147.157541 -184.436292 
L 145.969946 -185.421555 
L 144.782351 -186.412893 
L 143.594756 -187.410111 
L 142.407161 -188.408838 
L 141.219566 -189.397759 
L 140.031971 -190.392424 
L 138.844376 -191.408691 
L 137.656781 -192.432214 
L 136.469186 -193.462178 
L 135.281591 -194.498644 
L 134.093996 -195.541675 
L 132.906401 -196.591333 
L 131.718806 -197.647681 
L 130.531211 -198.71491 
L 129.343616 -199.792397 
L 128.156021 -200.879519 
L 126.968426 -201.973836 
L 125.780831 -203.07542 
L 124.593236 -204.184343 
L 123.405641 -205.30068 
L 122.218046 -206.424505 
L 121.030451 -207.555893 
L 119.842856 -208.694921 
L 118.655261 -209.841667 
L 117.467666 -210.99621 
L 116.280071 -212.158628 
L 115.092476 -213.329004 
L 113.904881 -214.507418 
L 112.717286 -215.693955 
L 111.529691 -216.885614 
L 110.342096 -218.08095 
L 109.154501 -219.284326 
L 107.966906 -220.4958 
L 106.779311 -221.71556 
L 105.591716 -222.946991 
L 104.404121 -224.192988 
L 103.216526 -225.447568 
L 102.028931 -226.703129 
L 100.841336 -227.96754 
L 99.653741 -229.249185 
L 98.466146 -230.54079 
L 97.278551 -231.841743 
L 96.090956 -233.152144 
L 94.903361 -234.471962 
L 93.715766 -235.801188 
L 92.528171 -237.126952 
L 91.340576 -238.461268 
L 90.152981 -239.811111 
L 88.965386 -241.176313 
L 87.777791 -242.55159 
L 86.590196 -243.937056 
L 85.402601 -245.334427 
L 84.215006 -246.756849 
L 83.027411 -248.190308 
L 81.839816 -249.634933 
L 80.652221 -251.090856 
L 79.464626 -252.558446 
L 78.277031 -254.037766 
L 77.089436 -255.508162 
L 75.901841 -256.980927 
L 74.714246 -258.492111 
L 73.526651 -260.020154 
L 72.339056 -261.560602 
L 71.151461 -263.105601 
L 69.963866 -264.655868 
L 68.776271 -266.208366 
L 67.588676 -267.780824 
L 66.40108 -269.382278 
L 65.213485 -271.000966 
L 64.02589 -272.631698 
L 62.838295 -274.2755 
z
" style="stroke: #1f77b4; stroke-opacity: 0.25"/>
    </defs>
    <g clip-path="url(#pf93e1a9914)">
     <use xlink:href="#mf42439740e" x="0" y="308.441469" style="fill: #1f77b4; fill-opacity: 0.25; stroke: #1f77b4; stroke-opacity: 0.25"/>
    </g>
   </g>
   <g id="matplotlib.axis_1">
    <g id="xtick_1">
     <g id="line2d_1">
      <path d="M 94.169846 267.013969 
L 94.169846 23.077969 
" clip-path="url(#pf93e1a9914)" style="fill: none; stroke: #b0b0b0; stroke-opacity: 0.3; stroke-width: 0.8; stroke-linecap: square"/>
     </g>
     <g id="line2d_2">
      <defs>
       <path id="m4d26570170" d="M 0 0 
L 0 3.5 
" style="stroke: #000000; stroke-width: 0.8"/>
      </defs>
      <g>
       <use xlink:href="#m4d26570170" x="94.169846" y="267.013969" style="stroke: #000000; stroke-width: 0.8"/>
      </g>
     </g>
     <g id="text_1">
      <!-- 0.05 -->
      <g transform="translate(80.810471 283.132094) scale(0.12 -0.12)">
       <defs>
        <path id="DejaVuSans-30" d="M 2034 4250 
Q 1547 4250 1301 3770 
Q 1056 3291 1056 2328 
Q 1056 1369 1301 889 
Q 1547 409 2034 409 
Q 2525 409 2770 889 
Q 3016 1369 3016 2328 
Q 3016 3291 2770 3770 
Q 2525 4250 2034 4250 
z
M 2034 4750 
Q 2819 4750 3233 4129 
Q 3647 3509 3647 2328 
Q 3647 1150 3233 529 
Q 2819 -91 2034 -91 
Q 1250 -91 836 529 
Q 422 1150 422 2328 
Q 422 3509 836 4129 
Q 1250 4750 2034 4750 
z
" transform="scale(0.015625)"/>
        <path id="DejaVuSans-2e" d="M 684 794 
L 1344 794 
L 1344 0 
L 684 0 
L 684 794 
z
" transform="scale(0.015625)"/>
        <path id="DejaVuSans-35" d="M 691 4666 
L 3169 4666 
L 3169 4134 
L 1269 4134 
L 1269 2991 
Q 1406 3038 1543 3061 
Q 1681 3084 1819 3084 
Q 2600 3084 3056 2656 
Q 3513 2228 3513 1497 
Q 3513 744 3044 326 
Q 2575 -91 1722 -91 
Q 1428 -91 1123 -41 
Q 819 9 494 109 
L 494 744 
Q 775 591 1075 516 
Q 1375 441 1709 441 
Q 2250 441 2565 725 
Q 2881 1009 2881 1497 
Q 2881 1984 2565 2268 
Q 2250 2553 1709 2553 
Q 1456 2553 1204 2497 
Q 953 2441 691 2322 
L 691 4666 
z
" transform="scale(0.015625)"/>
       </defs>
       <use xlink:href="#DejaVuSans-30"/>
       <use xlink:href="#DejaVuSans-2e" transform="translate(63.623047 0)"/>
       <use xlink:href="#DejaVuSans-30" transform="translate(95.410156 0)"/>
       <use xlink:href="#DejaVuSans-35" transform="translate(159.033203 0)"/>
      </g>
     </g>
    </g>
    <g id="xtick_2">
     <g id="line2d_3">
      <path d="M 146.389098 267.013969 
L 146.389098 23.077969 
" clip-path="url(#pf93e1a9914)" style="fill: none; stroke: #b0b0b0; stroke-opacity: 0.3; stroke-width: 0.8; stroke-linecap: square"/>
     </g>
     <g id="line2d_4">
      <g>
       <use xlink:href="#m4d26570170" x="146.389098" y="267.013969" style="stroke: #000000; stroke-width: 0.8"/>
      </g>
     </g>
     <g id="text_2">
      <!-- 0.10 -->
      <g transform="translate(133.029723 283.132094) scale(0.12 -0.12)">
       <defs>
        <path id="DejaVuSans-31" d="M 794 531 
L 1825 531 
L 1825 4091 
L 703 3866 
L 703 4441 
L 1819 4666 
L 2450 4666 
L 2450 531 
L 3481 531 
L 3481 0 
L 794 0 
L 794 531 
z
" transform="scale(0.015625)"/>
       </defs>
       <use xlink:href="#DejaVuSans-30"/>
       <use xlink:href="#DejaVuSans-2e" transform="translate(63.623047 0)"/>
       <use xlink:href="#DejaVuSans-31" transform="translate(95.410156 0)"/>
       <use xlink:href="#DejaVuSans-30" transform="translate(159.033203 0)"/>
      </g>
     </g>
    </g>
    <g id="xtick_3">
     <g id="line2d_5">
      <path d="M 198.608349 267.013969 
L 198.608349 23.077969 
" clip-path="url(#pf93e1a9914)" style="fill: none; stroke: #b0b0b0; stroke-opacity: 0.3; stroke-width: 0.8; stroke-linecap: square"/>
     </g>
     <g id="line2d_6">
      <g>
       <use xlink:href="#m4d26570170" x="198.608349" y="267.013969" style="stroke: #000000; stroke-width: 0.8"/>
      </g>
     </g>
     <g id="text_3">
      <!-- 0.15 -->
      <g transform="translate(185.248974 283.132094) scale(0.12 -0.12)">
       <use xlink:href="#DejaVuSans-30"/>
       <use xlink:href="#DejaVuSans-2e" transform="translate(63.623047 0)"/>
       <use xlink:href="#DejaVuSans-31" transform="translate(95.410156 0)"/>
       <use xlink:href="#DejaVuSans-35" transform="translate(159.033203 0)"/>
      </g>
     </g>
    </g>
    <g id="xtick_4">
     <g id="line2d_7">
      <path d="M 250.8276 267.013969 
L 250.8276 23.077969 
" clip-path="url(#pf93e1a9914)" style="fill: none; stroke: #b0b0b0; stroke-opacity: 0.3; stroke-width: 0.8; stroke-linecap: square"/>
     </g>
     <g id="line2d_8">
      <g>
       <use xlink:href="#m4d26570170" x="250.8276" y="267.013969" style="stroke: #000000; stroke-width: 0.8"/>
      </g>
     </g>
     <g id="text_4">
      <!-- 0.20 -->
      <g transform="translate(237.468225 283.132094) scale(0.12 -0.12)">
       <defs>
        <path id="DejaVuSans-32" d="M 1228 531 
L 3431 531 
L 3431 0 
L 469 0 
L 469 531 
Q 828 903 1448 1529 
Q 2069 2156 2228 2338 
Q 2531 2678 2651 2914 
Q 2772 3150 2772 3378 
Q 2772 3750 2511 3984 
Q 2250 4219 1831 4219 
Q 1534 4219 1204 4116 
Q 875 4013 500 3803 
L 500 4441 
Q 881 4594 1212 4672 
Q 1544 4750 1819 4750 
Q 2544 4750 2975 4387 
Q 3406 4025 3406 3419 
Q 3406 3131 3298 2873 
Q 3191 2616 2906 2266 
Q 2828 2175 2409 1742 
Q 1991 1309 1228 531 
z
" transform="scale(0.015625)"/>
       </defs>
       <use xlink:href="#DejaVuSans-30"/>
       <use xlink:href="#DejaVuSans-2e" transform="translate(63.623047 0)"/>
       <use xlink:href="#DejaVuSans-32" transform="translate(95.410156 0)"/>
       <use xlink:href="#DejaVuSans-30" transform="translate(159.033203 0)"/>
      </g>
     </g>
    </g>
    <g id="xtick_5">
     <g id="line2d_9">
      <path d="M 303.046852 267.013969 
L 303.046852 23.077969 
" clip-path="url(#pf93e1a9914)" style="fill: none; stroke: #b0b0b0; stroke-opacity: 0.3; stroke-width: 0.8; stroke-linecap: square"/>
     </g>
     <g id="line2d_10">
      <g>
       <use xlink:href="#m4d26570170" x="303.046852" y="267.013969" style="stroke: #000000; stroke-width: 0.8"/>
      </g>
     </g>
     <g id="text_5">
      <!-- 0.25 -->
      <g transform="translate(289.687477 283.132094) scale(0.12 -0.12)">
       <use xlink:href="#DejaVuSans-30"/>
       <use xlink:href="#DejaVuSans-2e" transform="translate(63.623047 0)"/>
       <use xlink:href="#DejaVuSans-32" transform="translate(95.410156 0)"/>
       <use xlink:href="#DejaVuSans-35" transform="translate(159.033203 0)"/>
      </g>
     </g>
    </g>
    <g id="xtick_6">
     <g id="line2d_11">
      <path d="M 355.266103 267.013969 
L 355.266103 23.077969 
" clip-path="url(#pf93e1a9914)" style="fill: none; stroke: #b0b0b0; stroke-opacity: 0.3; stroke-width: 0.8; stroke-linecap: square"/>
     </g>
     <g id="line2d_12">
      <g>
       <use xlink:href="#m4d26570170" x="355.266103" y="267.013969" style="stroke: #000000; stroke-width: 0.8"/>
      </g>
     </g>
     <g id="text_6">
      <!-- 0.30 -->
      <g transform="translate(341.906728 283.132094) scale(0.12 -0.12)">
       <defs>
        <path id="DejaVuSans-33" d="M 2597 2516 
Q 3050 2419 3304 2112 
Q 3559 1806 3559 1356 
Q 3559 666 3084 287 
Q 2609 -91 1734 -91 
Q 1441 -91 1130 -33 
Q 819 25 488 141 
L 488 750 
Q 750 597 1062 519 
Q 1375 441 1716 441 
Q 2309 441 2620 675 
Q 2931 909 2931 1356 
Q 2931 1769 2642 2001 
Q 2353 2234 1838 2234 
L 1294 2234 
L 1294 2753 
L 1863 2753 
Q 2328 2753 2575 2939 
Q 2822 3125 2822 3475 
Q 2822 3834 2567 4026 
Q 2313 4219 1838 4219 
Q 1578 4219 1281 4162 
Q 984 4106 628 3988 
L 628 4550 
Q 988 4650 1302 4700 
Q 1616 4750 1894 4750 
Q 2613 4750 3031 4423 
Q 3450 4097 3450 3541 
Q 3450 3153 3228 2886 
Q 3006 2619 2597 2516 
z
" transform="scale(0.015625)"/>
       </defs>
       <use xlink:href="#DejaVuSans-30"/>
       <use xlink:href="#DejaVuSans-2e" transform="translate(63.623047 0)"/>
       <use xlink:href="#DejaVuSans-33" transform="translate(95.410156 0)"/>
       <use xlink:href="#DejaVuSans-30" transform="translate(159.033203 0)"/>
      </g>
     </g>
    </g>
    <g id="xtick_7">
     <g id="line2d_13">
      <path d="M 407.485354 267.013969 
L 407.485354 23.077969 
" clip-path="url(#pf93e1a9914)" style="fill: none; stroke: #b0b0b0; stroke-opacity: 0.3; stroke-width: 0.8; stroke-linecap: square"/>
     </g>
     <g id="line2d_14">
      <g>
       <use xlink:href="#m4d26570170" x="407.485354" y="267.013969" style="stroke: #000000; stroke-width: 0.8"/>
      </g>
     </g>
     <g id="text_7">
      <!-- 0.35 -->
      <g transform="translate(394.125979 283.132094) scale(0.12 -0.12)">
       <use xlink:href="#DejaVuSans-30"/>
       <use xlink:href="#DejaVuSans-2e" transform="translate(63.623047 0)"/>
       <use xlink:href="#DejaVuSans-33" transform="translate(95.410156 0)"/>
       <use xlink:href="#DejaVuSans-35" transform="translate(159.033203 0)"/>
      </g>
     </g>
    </g>
    <g id="text_8">
     <!-- h (mm) -->
     <g transform="translate(218.30375 298.745844) scale(0.12 -0.12)">
      <defs>
       <path id="DejaVuSans-68" d="M 3513 2113 
L 3513 0 
L 2938 0 
L 2938 2094 
Q 2938 2591 2744 2837 
Q 2550 3084 2163 3084 
Q 1697 3084 1428 2787 
Q 1159 2491 1159 1978 
L 1159 0 
L 581 0 
L 581 4863 
L 1159 4863 
L 1159 2956 
Q 1366 3272 1645 3428 
Q 1925 3584 2291 3584 
Q 2894 3584 3203 3211 
Q 3513 2838 3513 2113 
z
" transform="scale(0.015625)"/>
       <path id="DejaVuSans-20" transform="scale(0.015625)"/>
       <path id="DejaVuSans-28" d="M 1984 4856 
Q 1566 4138 1362 3434 
Q 1159 2731 1159 2009 
Q 1159 1288 1364 580 
Q 1569 -128 1984 -844 
L 1484 -844 
Q 1016 -109 783 600 
Q 550 1309 550 2009 
Q 550 2706 781 3412 
Q 1013 4119 1484 4856 
L 1984 4856 
z
" transform="scale(0.015625)"/>
       <path id="DejaVuSans-6d" d="M 3328 2828 
Q 3544 3216 3844 3400 
Q 4144 3584 4550 3584 
Q 5097 3584 5394 3201 
Q 5691 2819 5691 2113 
L 5691 0 
L 5113 0 
L 5113 2094 
Q 5113 2597 4934 2840 
Q 4756 3084 4391 3084 
Q 3944 3084 3684 2787 
Q 3425 2491 3425 1978 
L 3425 0 
L 2847 0 
L 2847 2094 
Q 2847 2600 2669 2842 
Q 2491 3084 2119 3084 
Q 1678 3084 1418 2786 
Q 1159 2488 1159 1978 
L 1159 0 
L 581 0 
L 581 3500 
L 1159 3500 
L 1159 2956 
Q 1356 3278 1631 3431 
Q 1906 3584 2284 3584 
Q 2666 3584 2933 3390 
Q 3200 3197 3328 2828 
z
" transform="scale(0.015625)"/>
       <path id="DejaVuSans-29" d="M 513 4856 
L 1013 4856 
Q 1481 4119 1714 3412 
Q 1947 2706 1947 2009 
Q 1947 1309 1714 600 
Q 1481 -109 1013 -844 
L 513 -844 
Q 928 -128 1133 580 
Q 1338 1288 1338 2009 
Q 1338 2731 1133 3434 
Q 928 4138 513 4856 
z
" transform="scale(0.015625)"/>
      </defs>
      <use xlink:href="#DejaVuSans-68"/>
      <use xlink:href="#DejaVuSans-20" transform="translate(63.378906 0)"/>
      <use xlink:href="#DejaVuSans-28" transform="translate(95.166016 0)"/>
      <use xlink:href="#DejaVuSans-6d" transform="translate(134.179688 0)"/>
      <use xlink:href="#DejaVuSans-6d" transform="translate(231.591797 0)"/>
      <use xlink:href="#DejaVuSans-29" transform="translate(329.003906 0)"/>
     </g>
    </g>
   </g>
   <g id="matplotlib.axis_2">
    <g id="ytick_1">
     <g id="line2d_15">
      <path d="M 45.08375 251.88032 
L 435.68375 251.88032 
" clip-path="url(#pf93e1a9914)" style="fill: none; stroke: #b0b0b0; stroke-opacity: 0.3; stroke-width: 0.8; stroke-linecap: square"/>
     </g>
     <g id="line2d_16">
      <defs>
       <path id="m9a7b8c65dc" d="M 0 0 
L -3.5 0 
" style="stroke: #000000; stroke-width: 0.8"/>
      </defs>
      <g>
       <use xlink:href="#m9a7b8c65dc" x="45.08375" y="251.88032" style="stroke: #000000; stroke-width: 0.8"/>
      </g>
     </g>
     <g id="text_9">
      <!-- 10 -->
      <g transform="translate(22.81375 256.439383) scale(0.12 -0.12)">
       <use xlink:href="#DejaVuSans-31"/>
       <use xlink:href="#DejaVuSans-30" transform="translate(63.623047 0)"/>
      </g>
     </g>
    </g>
    <g id="ytick_2">
     <g id="line2d_17">
      <path d="M 45.08375 224.140255 
L 435.68375 224.140255 
" clip-path="url(#pf93e1a9914)" style="fill: none; stroke: #b0b0b0; stroke-opacity: 0.3; stroke-width: 0.8; stroke-linecap: square"/>
     </g>
     <g id="line2d_18">
      <g>
       <use xlink:href="#m9a7b8c65dc" x="45.08375" y="224.140255" style="stroke: #000000; stroke-width: 0.8"/>
      </g>
     </g>
     <g id="text_10">
      <!-- 11 -->
      <g transform="translate(22.81375 228.699317) scale(0.12 -0.12)">
       <use xlink:href="#DejaVuSans-31"/>
       <use xlink:href="#DejaVuSans-31" transform="translate(63.623047 0)"/>
      </g>
     </g>
    </g>
    <g id="ytick_3">
     <g id="line2d_19">
      <path d="M 45.08375 196.400189 
L 435.68375 196.400189 
" clip-path="url(#pf93e1a9914)" style="fill: none; stroke: #b0b0b0; stroke-opacity: 0.3; stroke-width: 0.8; stroke-linecap: square"/>
     </g>
     <g id="line2d_20">
      <g>
       <use xlink:href="#m9a7b8c65dc" x="45.08375" y="196.400189" style="stroke: #000000; stroke-width: 0.8"/>
      </g>
     </g>
     <g id="text_11">
      <!-- 12 -->
      <g transform="translate(22.81375 200.959251) scale(0.12 -0.12)">
       <use xlink:href="#DejaVuSans-31"/>
       <use xlink:href="#DejaVuSans-32" transform="translate(63.623047 0)"/>
      </g>
     </g>
    </g>
    <g id="ytick_4">
     <g id="line2d_21">
      <path d="M 45.08375 168.660123 
L 435.68375 168.660123 
" clip-path="url(#pf93e1a9914)" style="fill: none; stroke: #b0b0b0; stroke-opacity: 0.3; stroke-width: 0.8; stroke-linecap: square"/>
     </g>
     <g id="line2d_22">
      <g>
       <use xlink:href="#m9a7b8c65dc" x="45.08375" y="168.660123" style="stroke: #000000; stroke-width: 0.8"/>
      </g>
     </g>
     <g id="text_12">
      <!-- 13 -->
      <g transform="translate(22.81375 173.219186) scale(0.12 -0.12)">
       <use xlink:href="#DejaVuSans-31"/>
       <use xlink:href="#DejaVuSans-33" transform="translate(63.623047 0)"/>
      </g>
     </g>
    </g>
    <g id="ytick_5">
     <g id="line2d_23">
      <path d="M 45.08375 140.920057 
L 435.68375 140.920057 
" clip-path="url(#pf93e1a9914)" style="fill: none; stroke: #b0b0b0; stroke-opacity: 0.3; stroke-width: 0.8; stroke-linecap: square"/>
     </g>
     <g id="line2d_24">
      <g>
       <use xlink:href="#m9a7b8c65dc" x="45.08375" y="140.920057" style="stroke: #000000; stroke-width: 0.8"/>
      </g>
     </g>
     <g id="text_13">
      <!-- 14 -->
      <g transform="translate(22.81375 145.47912) scale(0.12 -0.12)">
       <defs>
        <path id="DejaVuSans-34" d="M 2419 4116 
L 825 1625 
L 2419 1625 
L 2419 4116 
z
M 2253 4666 
L 3047 4666 
L 3047 1625 
L 3713 1625 
L 3713 1100 
L 3047 1100 
L 3047 0 
L 2419 0 
L 2419 1100 
L 313 1100 
L 313 1709 
L 2253 4666 
z
" transform="scale(0.015625)"/>
       </defs>
       <use xlink:href="#DejaVuSans-31"/>
       <use xlink:href="#DejaVuSans-34" transform="translate(63.623047 0)"/>
      </g>
     </g>
    </g>
    <g id="ytick_6">
     <g id="line2d_25">
      <path d="M 45.08375 113.179992 
L 435.68375 113.179992 
" clip-path="url(#pf93e1a9914)" style="fill: none; stroke: #b0b0b0; stroke-opacity: 0.3; stroke-width: 0.8; stroke-linecap: square"/>
     </g>
     <g id="line2d_26">
      <g>
       <use xlink:href="#m9a7b8c65dc" x="45.08375" y="113.179992" style="stroke: #000000; stroke-width: 0.8"/>
      </g>
     </g>
     <g id="text_14">
      <!-- 15 -->
      <g transform="translate(22.81375 117.739054) scale(0.12 -0.12)">
       <use xlink:href="#DejaVuSans-31"/>
       <use xlink:href="#DejaVuSans-35" transform="translate(63.623047 0)"/>
      </g>
     </g>
    </g>
    <g id="ytick_7">
     <g id="line2d_27">
      <path d="M 45.08375 85.439926 
L 435.68375 85.439926 
" clip-path="url(#pf93e1a9914)" style="fill: none; stroke: #b0b0b0; stroke-opacity: 0.3; stroke-width: 0.8; stroke-linecap: square"/>
     </g>
     <g id="line2d_28">
      <g>
       <use xlink:href="#m9a7b8c65dc" x="45.08375" y="85.439926" style="stroke: #000000; stroke-width: 0.8"/>
      </g>
     </g>
     <g id="text_15">
      <!-- 16 -->
      <g transform="translate(22.81375 89.998988) scale(0.12 -0.12)">
       <defs>
        <path id="DejaVuSans-36" d="M 2113 2584 
Q 1688 2584 1439 2293 
Q 1191 2003 1191 1497 
Q 1191 994 1439 701 
Q 1688 409 2113 409 
Q 2538 409 2786 701 
Q 3034 994 3034 1497 
Q 3034 2003 2786 2293 
Q 2538 2584 2113 2584 
z
M 3366 4563 
L 3366 3988 
Q 3128 4100 2886 4159 
Q 2644 4219 2406 4219 
Q 1781 4219 1451 3797 
Q 1122 3375 1075 2522 
Q 1259 2794 1537 2939 
Q 1816 3084 2150 3084 
Q 2853 3084 3261 2657 
Q 3669 2231 3669 1497 
Q 3669 778 3244 343 
Q 2819 -91 2113 -91 
Q 1303 -91 875 529 
Q 447 1150 447 2328 
Q 447 3434 972 4092 
Q 1497 4750 2381 4750 
Q 2619 4750 2861 4703 
Q 3103 4656 3366 4563 
z
" transform="scale(0.015625)"/>
       </defs>
       <use xlink:href="#DejaVuSans-31"/>
       <use xlink:href="#DejaVuSans-36" transform="translate(63.623047 0)"/>
      </g>
     </g>
    </g>
    <g id="ytick_8">
     <g id="line2d_29">
      <path d="M 45.08375 57.69986 
L 435.68375 57.69986 
" clip-path="url(#pf93e1a9914)" style="fill: none; stroke: #b0b0b0; stroke-opacity: 0.3; stroke-width: 0.8; stroke-linecap: square"/>
     </g>
     <g id="line2d_30">
      <g>
       <use xlink:href="#m9a7b8c65dc" x="45.08375" y="57.69986" style="stroke: #000000; stroke-width: 0.8"/>
      </g>
     </g>
     <g id="text_16">
      <!-- 17 -->
      <g transform="translate(22.81375 62.258923) scale(0.12 -0.12)">
       <defs>
        <path id="DejaVuSans-37" d="M 525 4666 
L 3525 4666 
L 3525 4397 
L 1831 0 
L 1172 0 
L 2766 4134 
L 525 4134 
L 525 4666 
z
" transform="scale(0.015625)"/>
       </defs>
       <use xlink:href="#DejaVuSans-31"/>
       <use xlink:href="#DejaVuSans-37" transform="translate(63.623047 0)"/>
      </g>
     </g>
    </g>
    <g id="ytick_9">
     <g id="line2d_31">
      <path d="M 45.08375 29.959795 
L 435.68375 29.959795 
" clip-path="url(#pf93e1a9914)" style="fill: none; stroke: #b0b0b0; stroke-opacity: 0.3; stroke-width: 0.8; stroke-linecap: square"/>
     </g>
     <g id="line2d_32">
      <g>
       <use xlink:href="#m9a7b8c65dc" x="45.08375" y="29.959795" style="stroke: #000000; stroke-width: 0.8"/>
      </g>
     </g>
     <g id="text_17">
      <!-- 18 -->
      <g transform="translate(22.81375 34.518857) scale(0.12 -0.12)">
       <defs>
        <path id="DejaVuSans-38" d="M 2034 2216 
Q 1584 2216 1326 1975 
Q 1069 1734 1069 1313 
Q 1069 891 1326 650 
Q 1584 409 2034 409 
Q 2484 409 2743 651 
Q 3003 894 3003 1313 
Q 3003 1734 2745 1975 
Q 2488 2216 2034 2216 
z
M 1403 2484 
Q 997 2584 770 2862 
Q 544 3141 544 3541 
Q 544 4100 942 4425 
Q 1341 4750 2034 4750 
Q 2731 4750 3128 4425 
Q 3525 4100 3525 3541 
Q 3525 3141 3298 2862 
Q 3072 2584 2669 2484 
Q 3125 2378 3379 2068 
Q 3634 1759 3634 1313 
Q 3634 634 3220 271 
Q 2806 -91 2034 -91 
Q 1263 -91 848 271 
Q 434 634 434 1313 
Q 434 1759 690 2068 
Q 947 2378 1403 2484 
z
M 1172 3481 
Q 1172 3119 1398 2916 
Q 1625 2713 2034 2713 
Q 2441 2713 2670 2916 
Q 2900 3119 2900 3481 
Q 2900 3844 2670 4047 
Q 2441 4250 2034 4250 
Q 1625 4250 1398 4047 
Q 1172 3844 1172 3481 
z
" transform="scale(0.015625)"/>
       </defs>
       <use xlink:href="#DejaVuSans-31"/>
       <use xlink:href="#DejaVuSans-38" transform="translate(63.623047 0)"/>
      </g>
     </g>
    </g>
    <g id="text_18">
     <!-- T/Ω -->
     <g transform="translate(16.318125 155.317219) rotate(-90) scale(0.12 -0.12)">
      <defs>
       <path id="DejaVuSans-54" d="M -19 4666 
L 3928 4666 
L 3928 4134 
L 2272 4134 
L 2272 0 
L 1638 0 
L 1638 4134 
L -19 4134 
L -19 4666 
z
" transform="scale(0.015625)"/>
       <path id="DejaVuSans-2f" d="M 1625 4666 
L 2156 4666 
L 531 -594 
L 0 -594 
L 1625 4666 
z
" transform="scale(0.015625)"/>
       <path id="DejaVuSans-3a9" d="M 4647 556 
L 4647 0 
L 2772 0 
L 2772 556 
Q 3325 859 3634 1378 
Q 3944 1897 3944 2528 
Q 3944 3278 3531 3731 
Q 3119 4184 2444 4184 
Q 1769 4184 1355 3729 
Q 941 3275 941 2528 
Q 941 1897 1250 1378 
Q 1563 859 2119 556 
L 2119 0 
L 244 0 
L 244 556 
L 1241 556 
Q 747 991 519 1456 
Q 294 1922 294 2497 
Q 294 3491 894 4106 
Q 1491 4722 2444 4722 
Q 3391 4722 3994 4106 
Q 4594 3494 4594 2528 
Q 4594 1922 4372 1459 
Q 4150 997 3647 556 
L 4647 556 
z
" transform="scale(0.015625)"/>
      </defs>
      <use xlink:href="#DejaVuSans-54"/>
      <use xlink:href="#DejaVuSans-2f" transform="translate(61.083984 0)"/>
      <use xlink:href="#DejaVuSans-3a9" transform="translate(94.775391 0)"/>
     </g>
    </g>
   </g>
   <g id="line2d_33">
    <path d="M 62.838295 35.296148 
L 68.776271 43.236747 
L 75.901841 52.375153 
L 83.027411 61.106835 
L 90.152981 69.423304 
L 97.278551 77.387322 
L 104.404121 85.003482 
L 110.342096 91.117651 
L 118.655261 99.320679 
L 126.968426 107.104595 
L 135.281591 114.540821 
L 143.594756 121.646049 
L 153.095516 129.39414 
L 161.408682 135.887493 
L 169.721847 142.107448 
L 178.035012 148.076034 
L 187.535772 154.599325 
L 197.036532 160.848919 
L 206.537292 166.834129 
L 216.038052 172.552272 
L 225.538812 178.041701 
L 235.039572 183.307696 
L 245.727928 188.984969 
L 255.228688 193.817539 
L 265.917043 199.026539 
L 276.605398 204.038103 
L 287.293753 208.821619 
L 299.169703 213.934583 
L 309.858058 218.332278 
L 321.734008 223.020559 
L 334.797554 227.952976 
L 351.423884 233.901186 
L 364.487429 238.34232 
L 377.550974 242.594832 
L 394.177304 247.744702 
L 411.991229 252.963826 
L 417.929205 254.645534 
L 417.929205 254.645534 
" clip-path="url(#pf93e1a9914)" style="fill: none; stroke: #1f77b4; stroke-width: 1.6; stroke-linecap: square"/>
   </g>
   <g id="line2d_34">
    <defs>
     <path id="m160188dbc5" d="M 0 2 
C 0.530406 2 1.03916 1.789267 1.414214 1.414214 
C 1.789267 1.03916 2 0.530406 2 0 
C 2 -0.530406 1.789267 -1.03916 1.414214 -1.414214 
C 1.03916 -1.789267 0.530406 -2 0 -2 
C -0.530406 -2 -1.03916 -1.789267 -1.414214 -1.414214 
C -1.789267 -1.03916 -2 -0.530406 -2 0 
C -2 0.530406 -1.789267 1.03916 -1.414214 1.414214 
C -1.03916 1.789267 -0.530406 2 0 2 
z
" style="stroke: #000000"/>
    </defs>
    <g clip-path="url(#pf93e1a9914)">
     <use xlink:href="#m160188dbc5" x="62.838295" y="34.26611" style="stroke: #000000"/>
     <use xlink:href="#m160188dbc5" x="83.725996" y="63.379969" style="stroke: #000000"/>
     <use xlink:href="#m160188dbc5" x="104.613697" y="85.439926" style="stroke: #000000"/>
     <use xlink:href="#m160188dbc5" x="125.501397" y="106.284604" style="stroke: #000000"/>
     <use xlink:href="#m160188dbc5" x="146.389098" y="123.721217" style="stroke: #000000"/>
     <use xlink:href="#m160188dbc5" x="167.276798" y="140.55019" style="stroke: #000000"/>
     <use xlink:href="#m160188dbc5" x="188.164499" y="154.235289" style="stroke: #000000"/>
     <use xlink:href="#m160188dbc5" x="209.052199" y="167.814712" style="stroke: #000000"/>
     <use xlink:href="#m160188dbc5" x="229.9399" y="179.042833" style="stroke: #000000"/>
     <use xlink:href="#m160188dbc5" x="250.8276" y="191.354139" style="stroke: #000000"/>
     <use xlink:href="#m160188dbc5" x="271.715301" y="201.684011" style="stroke: #000000"/>
     <use xlink:href="#m160188dbc5" x="292.603001" y="212.357332" style="stroke: #000000"/>
     <use xlink:href="#m160188dbc5" x="313.490702" y="220.573675" style="stroke: #000000"/>
     <use xlink:href="#m160188dbc5" x="334.378402" y="229.001371" style="stroke: #000000"/>
     <use xlink:href="#m160188dbc5" x="355.266103" y="235.949597" style="stroke: #000000"/>
     <use xlink:href="#m160188dbc5" x="376.153803" y="242.527955" style="stroke: #000000"/>
     <use xlink:href="#m160188dbc5" x="397.041504" y="248.155226" style="stroke: #000000"/>
     <use xlink:href="#m160188dbc5" x="417.929205" y="253.042761" style="stroke: #000000"/>
    </g>
   </g>
   <g id="patch_3">
    <path d="M 45.08375 267.013969 
L 45.08375 23.077969 
" style="fill: none; stroke: #000000; stroke-width: 0.8; stroke-linejoin: miter; stroke-linecap: square"/>
   </g>
   <g id="patch_4">
    <path d="M 435.68375 267.013969 
L 435.68375 23.077969 
" style="fill: none; stroke: #000000; stroke-width: 0.8; stroke-linejoin: miter; stroke-linecap: square"/>
   </g>
   <g id="patch_5">
    <path d="M 45.08375 267.013969 
L 435.68375 267.013969 
" style="fill: none; stroke: #000000; stroke-width: 0.8; stroke-linejoin: miter; stroke-linecap: square"/>
   </g>
   <g id="patch_6">
    <path d="M 45.08375 23.077969 
L 435.68375 23.077969 
" style="fill: none; stroke: #000000; stroke-width: 0.8; stroke-linejoin: miter; stroke-linecap: square"/>
   </g>
   <g id="text_19">
    <!-- Bootstrap prediction band — regularized -->
    <g transform="translate(108.402266 17.077969) scale(0.13 -0.13)">
     <defs>
      <path id="DejaVuSans-42" d="M 1259 2228 
L 1259 519 
L 2272 519 
Q 2781 519 3026 730 
Q 3272 941 3272 1375 
Q 3272 1813 3026 2020 
Q 2781 2228 2272 2228 
L 1259 2228 
z
M 1259 4147 
L 1259 2741 
L 2194 2741 
Q 2656 2741 2882 2914 
Q 3109 3088 3109 3444 
Q 3109 3797 2882 3972 
Q 2656 4147 2194 4147 
L 1259 4147 
z
M 628 4666 
L 2241 4666 
Q 2963 4666 3353 4366 
Q 3744 4066 3744 3513 
Q 3744 3084 3544 2831 
Q 3344 2578 2956 2516 
Q 3422 2416 3680 2098 
Q 3938 1781 3938 1306 
Q 3938 681 3513 340 
Q 3088 0 2303 0 
L 628 0 
L 628 4666 
z
" transform="scale(0.015625)"/>
      <path id="DejaVuSans-6f" d="M 1959 3097 
Q 1497 3097 1228 2736 
Q 959 2375 959 1747 
Q 959 1119 1226 758 
Q 1494 397 1959 397 
Q 2419 397 2687 759 
Q 2956 1122 2956 1747 
Q 2956 2369 2687 2733 
Q 2419 3097 1959 3097 
z
M 1959 3584 
Q 2709 3584 3137 3096 
Q 3566 2609 3566 1747 
Q 3566 888 3137 398 
Q 2709 -91 1959 -91 
Q 1206 -91 779 398 
Q 353 888 353 1747 
Q 353 2609 779 3096 
Q 1206 3584 1959 3584 
z
" transform="scale(0.015625)"/>
      <path id="DejaVuSans-74" d="M 1172 4494 
L 1172 3500 
L 2356 3500 
L 2356 3053 
L 1172 3053 
L 1172 1153 
Q 1172 725 1289 603 
Q 1406 481 1766 481 
L 2356 481 
L 2356 0 
L 1766 0 
Q 1100 0 847 248 
Q 594 497 594 1153 
L 594 3053 
L 172 3053 
L 172 3500 
L 594 3500 
L 594 4494 
L 1172 4494 
z
" transform="scale(0.015625)"/>
      <path id="DejaVuSans-73" d="M 2834 3397 
L 2834 2853 
Q 2591 2978 2328 3040 
Q 2066 3103 1784 3103 
Q 1356 3103 1142 2972 
Q 928 2841 928 2578 
Q 928 2378 1081 2264 
Q 1234 2150 1697 2047 
L 1894 2003 
Q 2506 1872 2764 1633 
Q 3022 1394 3022 966 
Q 3022 478 2636 193 
Q 2250 -91 1575 -91 
Q 1294 -91 989 -36 
Q 684 19 347 128 
L 347 722 
Q 666 556 975 473 
Q 1284 391 1588 391 
Q 1994 391 2212 530 
Q 2431 669 2431 922 
Q 2431 1156 2273 1281 
Q 2116 1406 1581 1522 
L 1381 1569 
Q 847 1681 609 1914 
Q 372 2147 372 2553 
Q 372 3047 722 3315 
Q 1072 3584 1716 3584 
Q 2034 3584 2315 3537 
Q 2597 3491 2834 3397 
z
" transform="scale(0.015625)"/>
      <path id="DejaVuSans-72" d="M 2631 2963 
Q 2534 3019 2420 3045 
Q 2306 3072 2169 3072 
Q 1681 3072 1420 2755 
Q 1159 2438 1159 1844 
L 1159 0 
L 581 0 
L 581 3500 
L 1159 3500 
L 1159 2956 
Q 1341 3275 1631 3429 
Q 1922 3584 2338 3584 
Q 2397 3584 2469 3576 
Q 2541 3569 2628 3553 
L 2631 2963 
z
" transform="scale(0.015625)"/>
      <path id="DejaVuSans-61" d="M 2194 1759 
Q 1497 1759 1228 1600 
Q 959 1441 959 1056 
Q 959 750 1161 570 
Q 1363 391 1709 391 
Q 2188 391 2477 730 
Q 2766 1069 2766 1631 
L 2766 1759 
L 2194 1759 
z
M 3341 1997 
L 3341 0 
L 2766 0 
L 2766 531 
Q 2569 213 2275 61 
Q 1981 -91 1556 -91 
Q 1019 -91 701 211 
Q 384 513 384 1019 
Q 384 1609 779 1909 
Q 1175 2209 1959 2209 
L 2766 2209 
L 2766 2266 
Q 2766 2663 2505 2880 
Q 2244 3097 1772 3097 
Q 1472 3097 1187 3025 
Q 903 2953 641 2809 
L 641 3341 
Q 956 3463 1253 3523 
Q 1550 3584 1831 3584 
Q 2591 3584 2966 3190 
Q 3341 2797 3341 1997 
z
" transform="scale(0.015625)"/>
      <path id="DejaVuSans-70" d="M 1159 525 
L 1159 -1331 
L 581 -1331 
L 581 3500 
L 1159 3500 
L 1159 2969 
Q 1341 3281 1617 3432 
Q 1894 3584 2278 3584 
Q 2916 3584 3314 3078 
Q 3713 2572 3713 1747 
Q 3713 922 3314 415 
Q 2916 -91 2278 -91 
Q 1894 -91 1617 61 
Q 1341 213 1159 525 
z
M 3116 1747 
Q 3116 2381 2855 2742 
Q 2594 3103 2138 3103 
Q 1681 3103 1420 2742 
Q 1159 2381 1159 1747 
Q 1159 1113 1420 752 
Q 1681 391 2138 391 
Q 2594 391 2855 752 
Q 3116 1113 3116 1747 
z
" transform="scale(0.015625)"/>
      <path id="DejaVuSans-65" d="M 3597 1894 
L 3597 1613 
L 953 1613 
Q 991 1019 1311 708 
Q 1631 397 2203 397 
Q 2534 397 2845 478 
Q 3156 559 3463 722 
L 3463 178 
Q 3153 47 2828 -22 
Q 2503 -91 2169 -91 
Q 1331 -91 842 396 
Q 353 884 353 1716 
Q 353 2575 817 3079 
Q 1281 3584 2069 3584 
Q 2775 3584 3186 3129 
Q 3597 2675 3597 1894 
z
M 3022 2063 
Q 3016 2534 2758 2815 
Q 2500 3097 2075 3097 
Q 1594 3097 1305 2825 
Q 1016 2553 972 2059 
L 3022 2063 
z
" transform="scale(0.015625)"/>
      <path id="DejaVuSans-64" d="M 2906 2969 
L 2906 4863 
L 3481 4863 
L 3481 0 
L 2906 0 
L 2906 525 
Q 2725 213 2448 61 
Q 2172 -91 1784 -91 
Q 1150 -91 751 415 
Q 353 922 353 1747 
Q 353 2572 751 3078 
Q 1150 3584 1784 3584 
Q 2172 3584 2448 3432 
Q 2725 3281 2906 2969 
z
M 947 1747 
Q 947 1113 1208 752 
Q 1469 391 1925 391 
Q 2381 391 2643 752 
Q 2906 1113 2906 1747 
Q 2906 2381 2643 2742 
Q 2381 3103 1925 3103 
Q 1469 3103 1208 2742 
Q 947 2381 947 1747 
z
" transform="scale(0.015625)"/>
      <path id="DejaVuSans-69" d="M 603 3500 
L 1178 3500 
L 1178 0 
L 603 0 
L 603 3500 
z
M 603 4863 
L 1178 4863 
L 1178 4134 
L 603 4134 
L 603 4863 
z
" transform="scale(0.015625)"/>
      <path id="DejaVuSans-63" d="M 3122 3366 
L 3122 2828 
Q 2878 2963 2633 3030 
Q 2388 3097 2138 3097 
Q 1578 3097 1268 2742 
Q 959 2388 959 1747 
Q 959 1106 1268 751 
Q 1578 397 2138 397 
Q 2388 397 2633 464 
Q 2878 531 3122 666 
L 3122 134 
Q 2881 22 2623 -34 
Q 2366 -91 2075 -91 
Q 1284 -91 818 406 
Q 353 903 353 1747 
Q 353 2603 823 3093 
Q 1294 3584 2113 3584 
Q 2378 3584 2631 3529 
Q 2884 3475 3122 3366 
z
" transform="scale(0.015625)"/>
      <path id="DejaVuSans-6e" d="M 3513 2113 
L 3513 0 
L 2938 0 
L 2938 2094 
Q 2938 2591 2744 2837 
Q 2550 3084 2163 3084 
Q 1697 3084 1428 2787 
Q 1159 2491 1159 1978 
L 1159 0 
L 581 0 
L 581 3500 
L 1159 3500 
L 1159 2956 
Q 1366 3272 1645 3428 
Q 1925 3584 2291 3584 
Q 2894 3584 3203 3211 
Q 3513 2838 3513 2113 
z
" transform="scale(0.015625)"/>
      <path id="DejaVuSans-62" d="M 3116 1747 
Q 3116 2381 2855 2742 
Q 2594 3103 2138 3103 
Q 1681 3103 1420 2742 
Q 1159 2381 1159 1747 
Q 1159 1113 1420 752 
Q 1681 391 2138 391 
Q 2594 391 2855 752 
Q 3116 1113 3116 1747 
z
M 1159 2969 
Q 1341 3281 1617 3432 
Q 1894 3584 2278 3584 
Q 2916 3584 3314 3078 
Q 3713 2572 3713 1747 
Q 3713 922 3314 415 
Q 2916 -91 2278 -91 
Q 1894 -91 1617 61 
Q 1341 213 1159 525 
L 1159 0 
L 581 0 
L 581 4863 
L 1159 4863 
L 1159 2969 
z
" transform="scale(0.015625)"/>
      <path id="DejaVuSans-2014" d="M 313 1978 
L 6088 1978 
L 6088 1528 
L 313 1528 
L 313 1978 
z
" transform="scale(0.015625)"/>
      <path id="DejaVuSans-67" d="M 2906 1791 
Q 2906 2416 2648 2759 
Q 2391 3103 1925 3103 
Q 1463 3103 1205 2759 
Q 947 2416 947 1791 
Q 947 1169 1205 825 
Q 1463 481 1925 481 
Q 2391 481 2648 825 
Q 2906 1169 2906 1791 
z
M 3481 434 
Q 3481 -459 3084 -895 
Q 2688 -1331 1869 -1331 
Q 1566 -1331 1297 -1286 
Q 1028 -1241 775 -1147 
L 775 -588 
Q 1028 -725 1275 -790 
Q 1522 -856 1778 -856 
Q 2344 -856 2625 -561 
Q 2906 -266 2906 331 
L 2906 616 
Q 2728 306 2450 153 
Q 2172 0 1784 0 
Q 1141 0 747 490 
Q 353 981 353 1791 
Q 353 2603 747 3093 
Q 1141 3584 1784 3584 
Q 2172 3584 2450 3431 
Q 2728 3278 2906 2969 
L 2906 3500 
L 3481 3500 
L 3481 434 
z
" transform="scale(0.015625)"/>
      <path id="DejaVuSans-75" d="M 544 1381 
L 544 3500 
L 1119 3500 
L 1119 1403 
Q 1119 906 1312 657 
Q 1506 409 1894 409 
Q 2359 409 2629 706 
Q 2900 1003 2900 1516 
L 2900 3500 
L 3475 3500 
L 3475 0 
L 2900 0 
L 2900 538 
Q 2691 219 2414 64 
Q 2138 -91 1772 -91 
Q 1169 -91 856 284 
Q 544 659 544 1381 
z
M 1991 3584 
L 1991 3584 
z
" transform="scale(0.015625)"/>
      <path id="DejaVuSans-6c" d="M 603 4863 
L 1178 4863 
L 1178 0 
L 603 0 
L 603 4863 
z
" transform="scale(0.015625)"/>
      <path id="DejaVuSans-7a" d="M 353 3500 
L 3084 3500 
L 3084 2975 
L 922 459 
L 3084 459 
L 3084 0 
L 275 0 
L 275 525 
L 2438 3041 
L 353 3041 
L 353 3500 
z
" transform="scale(0.015625)"/>
     </defs>
     <use xlink:href="#DejaVuSans-42"/>
     <use xlink:href="#DejaVuSans-6f" transform="translate(68.603516 0)"/>
     <use xlink:href="#DejaVuSans-6f" transform="translate(129.785156 0)"/>
     <use xlink:href="#DejaVuSans-74" transform="translate(190.966797 0)"/>
     <use xlink:href="#DejaVuSans-73" transform="translate(230.175781 0)"/>
     <use xlink:href="#DejaVuSans-74" transform="translate(282.275391 0)"/>
     <use xlink:href="#DejaVuSans-72" transform="translate(321.484375 0)"/>
     <use xlink:href="#DejaVuSans-61" transform="translate(362.597656 0)"/>
     <use xlink:href="#DejaVuSans-70" transform="translate(423.876953 0)"/>
     <use xlink:href="#DejaVuSans-20" transform="translate(487.353516 0)"/>
     <use xlink:href="#DejaVuSans-70" transform="translate(519.140625 0)"/>
     <use xlink:href="#DejaVuSans-72" transform="translate(582.617188 0)"/>
     <use xlink:href="#DejaVuSans-65" transform="translate(621.480469 0)"/>
     <use xlink:href="#DejaVuSans-64" transform="translate(683.003906 0)"/>
     <use xlink:href="#DejaVuSans-69" transform="translate(746.480469 0)"/>
     <use xlink:href="#DejaVuSans-63" transform="translate(774.263672 0)"/>
     <use xlink:href="#DejaVuSans-74" transform="translate(829.244141 0)"/>
     <use xlink:href="#DejaVuSans-69" transform="translate(868.453125 0)"/>
     <use xlink:href="#DejaVuSans-6f" transform="translate(896.236328 0)"/>
     <use xlink:href="#DejaVuSans-6e" transform="translate(957.417969 0)"/>
     <use xlink:href="#DejaVuSans-20" transform="translate(1020.796875 0)"/>
     <use xlink:href="#DejaVuSans-62" transform="translate(1052.583984 0)"/>
     <use xlink:href="#DejaVuSans-61" transform="translate(1116.060547 0)"/>
     <use xlink:href="#DejaVuSans-6e" transform="translate(1177.339844 0)"/>
     <use xlink:href="#DejaVuSans-64" transform="translate(1240.71875 0)"/>
     <use xlink:href="#DejaVuSans-20" transform="translate(1304.195312 0)"/>
     <use xlink:href="#DejaVuSans-2014" transform="translate(1335.982422 0)"/>
     <use xlink:href="#DejaVuSans-20" transform="translate(1435.982422 0)"/>
     <use xlink:href="#DejaVuSans-72" transform="translate(1467.769531 0)"/>
     <use xlink:href="#DejaVuSans-65" transform="translate(1506.632812 0)"/>
     <use xlink:href="#DejaVuSans-67" transform="translate(1568.15625 0)"/>
     <use xlink:href="#DejaVuSans-75" transform="translate(1631.632812 0)"/>
     <use xlink:href="#DejaVuSans-6c" transform="translate(1695.011719 0)"/>
     <use xlink:href="#DejaVuSans-61" transform="translate(1722.794922 0)"/>
     <use xlink:href="#DejaVuSans-72" transform="translate(1784.074219 0)"/>
     <use xlink:href="#DejaVuSans-69" transform="translate(1825.1875 0)"/>
     <use xlink:href="#DejaVuSans-7a" transform="translate(1852.970703 0)"/>
     <use xlink:href="#DejaVuSans-65" transform="translate(1905.460938 0)"/>
     <use xlink:href="#DejaVuSans-64" transform="translate(1966.984375 0)"/>
    </g>
   </g>
   <g id="legend_1">
    <g id="patch_7">
     <path d="M 345.800938 75.112344 
L 428.68375 75.112344 
Q 430.68375 75.112344 430.68375 73.112344 
L 430.68375 30.077969 
Q 430.68375 28.077969 428.68375 28.077969 
L 345.800938 28.077969 
Q 343.800938 28.077969 343.800938 30.077969 
L 343.800938 73.112344 
Q 343.800938 75.112344 345.800938 75.112344 
z
" style="fill: #ffffff; opacity: 0.8; stroke: #cccccc; stroke-linejoin: miter"/>
    </g>
    <g id="patch_8">
     <path d="M 347.800938 39.676406 
L 367.800938 39.676406 
L 367.800938 32.676406 
L 347.800938 32.676406 
z
" style="fill: #1f77b4; fill-opacity: 0.25; stroke: #1f77b4; stroke-opacity: 0.25; stroke-linejoin: miter"/>
    </g>
    <g id="text_20">
     <!-- 95% band -->
     <g transform="translate(375.800938 39.676406) scale(0.1 -0.1)">
      <defs>
       <path id="DejaVuSans-39" d="M 703 97 
L 703 672 
Q 941 559 1184 500 
Q 1428 441 1663 441 
Q 2288 441 2617 861 
Q 2947 1281 2994 2138 
Q 2813 1869 2534 1725 
Q 2256 1581 1919 1581 
Q 1219 1581 811 2004 
Q 403 2428 403 3163 
Q 403 3881 828 4315 
Q 1253 4750 1959 4750 
Q 2769 4750 3195 4129 
Q 3622 3509 3622 2328 
Q 3622 1225 3098 567 
Q 2575 -91 1691 -91 
Q 1453 -91 1209 -44 
Q 966 3 703 97 
z
M 1959 2075 
Q 2384 2075 2632 2365 
Q 2881 2656 2881 3163 
Q 2881 3666 2632 3958 
Q 2384 4250 1959 4250 
Q 1534 4250 1286 3958 
Q 1038 3666 1038 3163 
Q 1038 2656 1286 2365 
Q 1534 2075 1959 2075 
z
" transform="scale(0.015625)"/>
       <path id="DejaVuSans-25" d="M 4653 2053 
Q 4381 2053 4226 1822 
Q 4072 1591 4072 1178 
Q 4072 772 4226 539 
Q 4381 306 4653 306 
Q 4919 306 5073 539 
Q 5228 772 5228 1178 
Q 5228 1588 5073 1820 
Q 4919 2053 4653 2053 
z
M 4653 2450 
Q 5147 2450 5437 2106 
Q 5728 1763 5728 1178 
Q 5728 594 5436 251 
Q 5144 -91 4653 -91 
Q 4153 -91 3862 251 
Q 3572 594 3572 1178 
Q 3572 1766 3864 2108 
Q 4156 2450 4653 2450 
z
M 1428 4353 
Q 1159 4353 1004 4120 
Q 850 3888 850 3481 
Q 850 3069 1003 2837 
Q 1156 2606 1428 2606 
Q 1700 2606 1854 2837 
Q 2009 3069 2009 3481 
Q 2009 3884 1853 4118 
Q 1697 4353 1428 4353 
z
M 4250 4750 
L 4750 4750 
L 1831 -91 
L 1331 -91 
L 4250 4750 
z
M 1428 4750 
Q 1922 4750 2215 4408 
Q 2509 4066 2509 3481 
Q 2509 2891 2217 2550 
Q 1925 2209 1428 2209 
Q 931 2209 642 2551 
Q 353 2894 353 3481 
Q 353 4063 643 4406 
Q 934 4750 1428 4750 
z
" transform="scale(0.015625)"/>
      </defs>
      <use xlink:href="#DejaVuSans-39"/>
      <use xlink:href="#DejaVuSans-35" transform="translate(63.623047 0)"/>
      <use xlink:href="#DejaVuSans-25" transform="translate(127.246094 0)"/>
      <use xlink:href="#DejaVuSans-20" transform="translate(222.265625 0)"/>
      <use xlink:href="#DejaVuSans-62" transform="translate(254.052734 0)"/>
      <use xlink:href="#DejaVuSans-61" transform="translate(317.529297 0)"/>
      <use xlink:href="#DejaVuSans-6e" transform="translate(378.808594 0)"/>
      <use xlink:href="#DejaVuSans-64" transform="translate(442.1875 0)"/>
     </g>
    </g>
    <g id="line2d_35">
     <path d="M 347.800938 50.854531 
L 357.800938 50.854531 
L 367.800938 50.854531 
" style="fill: none; stroke: #1f77b4; stroke-width: 1.6; stroke-linecap: square"/>
    </g>
    <g id="text_21">
     <!-- median fit -->
     <g transform="translate(375.800938 54.354531) scale(0.1 -0.1)">
      <defs>
       <path id="DejaVuSans-66" d="M 2375 4863 
L 2375 4384 
L 1825 4384 
Q 1516 4384 1395 4259 
Q 1275 4134 1275 3809 
L 1275 3500 
L 2222 3500 
L 2222 3053 
L 1275 3053 
L 1275 0 
L 697 0 
L 697 3053 
L 147 3053 
L 147 3500 
L 697 3500 
L 697 3744 
Q 697 4328 969 4595 
Q 1241 4863 1831 4863 
L 2375 4863 
z
" transform="scale(0.015625)"/>
      </defs>
      <use xlink:href="#DejaVuSans-6d"/>
      <use xlink:href="#DejaVuSans-65" transform="translate(97.412109 0)"/>
      <use xlink:href="#DejaVuSans-64" transform="translate(158.935547 0)"/>
      <use xlink:href="#DejaVuSans-69" transform="translate(222.412109 0)"/>
      <use xlink:href="#DejaVuSans-61" transform="translate(250.195312 0)"/>
      <use xlink:href="#DejaVuSans-6e" transform="translate(311.474609 0)"/>
      <use xlink:href="#DejaVuSans-20" transform="translate(374.853516 0)"/>
      <use xlink:href="#DejaVuSans-66" transform="translate(406.640625 0)"/>
      <use xlink:href="#DejaVuSans-69" transform="translate(441.845703 0)"/>
      <use xlink:href="#DejaVuSans-74" transform="translate(469.628906 0)"/>
     </g>
    </g>
    <g id="line2d_36">
     <g>
      <use xlink:href="#m160188dbc5" x="357.800938" y="65.532656" style="stroke: #000000"/>
     </g>
    </g>
    <g id="text_22">
     <!-- data -->
     <g transform="translate(375.800938 69.032656) scale(0.1 -0.1)">
      <use xlink:href="#DejaVuSans-64"/>
      <use xlink:href="#DejaVuSans-61" transform="translate(63.476562 0)"/>
      <use xlink:href="#DejaVuSans-74" transform="translate(124.755859 0)"/>
      <use xlink:href="#DejaVuSans-61" transform="translate(163.964844 0)"/>
     </g>
    </g>
   </g>
  </g>
 </g>
 <defs>
  <clipPath id="pf93e1a9914">
   <rect x="45.08375" y="23.077969" width="390.6" height="243.936"/>
  </clipPath>
 </defs>
</svg>
