<?xml version="1.0" encoding="utf-8" standalone="no"?>
<!DOCTYPE svg PUBLIC "-//W3C//DTD SVG 1.1//EN"
  "http://www.w3.org/Graphics/SVG/1.1/DTD/svg11.dtd">
<svg xmlns:xlink="http://www.w3.org/1999/xlink" width="779.054659pt" height="309.611719pt" viewBox="0 0 779.054659 309.611719" xmlns="http://www.w3.org/2000/svg" version="1.1">
 <metadata>
  <rdf:RDF xmlns:dc="http://purl.org/dc/elements/1.1/" xmlns:cc="http://creativecommons.org/ns#" xmlns:rdf="http://www.w3.org/1999/02/22-rdf-syntax-ns#">
   <cc:Work>
    <dc:type rdf:resource="http://purl.org/dc/dcmitype/StillImage"/>
    <dc:date>2026-05-29T17:12:46.862758</dc:date>
    <dc:format>image/svg+xml</dc:format>
    <dc:creator>
     <cc:Agent>
      <dc:title>Matplotlib v3.10.0, https://matplotlib.org/</dc:title>
     </cc:Agent>
    </dc:creator>
   </cc:Work>
  </rdf:RDF>
 </metadata>
 <defs>
  <style type="text/css">*{stroke-linejoin: round; stroke-linecap: butt}</style>
 </defs>
 <g id="figure_1">
  <g id="patch_1">
   <path d="M 0 309.611719 
L 779.054659 309.611719 
L 779.054659 0 
L 0 0 
z
" style="fill: #ffffff"/>
  </g>
  <g id="axes_1">
   <g id="patch_2">
    <path d="M 45.08375 268.157969 
L 372.230114 268.157969 
L 372.230114 23.077969 
L 45.08375 23.077969 
z
" style="fill: #ffffff"/>
   </g>
   <g id="FillBetweenPolyCollection_1">
    <defs>
     <path id="m682b140a41" d="M 59.954039 -275.39375 
L 59.954039 -271.48408 
L 60.948707 -269.948522 
L 61.943376 -268.424234 
L 62.938044 -266.911092 
L 63.932712 -265.408975 
L 64.92738 -263.917762 
L 65.922048 -262.437482 
L 66.916716 -260.968229 
L 67.911385 -259.511657 
L 68.906053 -258.066031 
L 69.900721 -256.622376 
L 70.895389 -255.194069 
L 71.890057 -253.775876 
L 72.884726 -252.36769 
L 73.879394 -250.969405 
L 74.874062 -249.580917 
L 75.86873 -248.202123 
L 76.863398 -246.829412 
L 77.858066 -245.463026 
L 78.852735 -244.106242 
L 79.847403 -242.758959 
L 80.842071 -241.421077 
L 81.836739 -240.091465 
L 82.831407 -238.765667 
L 83.826076 -237.458328 
L 84.820744 -236.162174 
L 85.815412 -234.867221 
L 86.81008 -233.578051 
L 87.804748 -232.291378 
L 88.799416 -231.022451 
L 89.794085 -229.762917 
L 90.788753 -228.494917 
L 91.783421 -227.24433 
L 92.778089 -226.001676 
L 93.772757 -224.773192 
L 94.767425 -223.542611 
L 95.762094 -222.310105 
L 96.756762 -221.099744 
L 97.75143 -219.896377 
L 98.746098 -218.712797 
L 99.740766 -217.5306 
L 100.735435 -216.35628 
L 101.730103 -215.18976 
L 102.724771 -214.030962 
L 103.719439 -212.8585 
L 104.714107 -211.700123 
L 105.708775 -210.55986 
L 106.703444 -209.412758 
L 107.698112 -208.280094 
L 108.69278 -207.161266 
L 109.687448 -206.036714 
L 110.682116 -204.905215 
L 111.676784 -203.787757 
L 112.671453 -202.674469 
L 113.666121 -201.566049 
L 114.660789 -200.459807 
L 115.655457 -199.369525 
L 116.650125 -198.294841 
L 117.644794 -197.222103 
L 118.639462 -196.155124 
L 119.63413 -195.097599 
L 120.628798 -194.047189 
L 121.623466 -193.00333 
L 122.618134 -191.96638 
L 123.612803 -190.936202 
L 124.607471 -189.912694 
L 125.602139 -188.895794 
L 126.596807 -187.885435 
L 127.591475 -186.881557 
L 128.586144 -185.884096 
L 129.580812 -184.892992 
L 130.57548 -183.908183 
L 131.570148 -182.929746 
L 132.564816 -181.957407 
L 133.559484 -180.987079 
L 134.554153 -180.022887 
L 135.548821 -179.0721 
L 136.543489 -178.128928 
L 137.538157 -177.184578 
L 138.532825 -176.244226 
L 139.527493 -175.311464 
L 140.522162 -174.379642 
L 141.51683 -173.456069 
L 142.511498 -172.538187 
L 143.506166 -171.625942 
L 144.500834 -170.719284 
L 145.495503 -169.818167 
L 146.490171 -168.922687 
L 147.484839 -168.03264 
L 148.479507 -167.147978 
L 149.474175 -166.271444 
L 150.468843 -165.401386 
L 151.463512 -164.536612 
L 152.45818 -163.677075 
L 153.452848 -162.822726 
L 154.447516 -161.97352 
L 155.442184 -161.129409 
L 156.436852 -160.290348 
L 157.431521 -159.456292 
L 158.426189 -158.627196 
L 159.420857 -157.803017 
L 160.415525 -156.983709 
L 161.410193 -156.169232 
L 162.404862 -155.35954 
L 163.39953 -154.554594 
L 164.394198 -153.754351 
L 165.388866 -152.957676 
L 166.383534 -152.163321 
L 167.378202 -151.373556 
L 168.372871 -150.588341 
L 169.367539 -149.807636 
L 170.362207 -149.031403 
L 171.356875 -148.259604 
L 172.351543 -147.492201 
L 173.346212 -146.729156 
L 174.34088 -145.96967 
L 175.335548 -145.213991 
L 176.330216 -144.462592 
L 177.324884 -143.71548 
L 178.319552 -142.972603 
L 179.314221 -142.233899 
L 180.308889 -141.499332 
L 181.303557 -140.768868 
L 182.298225 -140.042472 
L 183.292893 -139.319622 
L 184.287561 -138.600554 
L 185.28223 -137.88541 
L 186.276898 -137.174157 
L 187.271566 -136.466763 
L 188.266234 -135.763198 
L 189.260902 -135.063429 
L 190.255571 -134.367427 
L 191.250239 -133.675162 
L 192.244907 -132.986602 
L 193.239575 -132.301719 
L 194.234243 -131.620483 
L 195.228911 -130.942866 
L 196.22358 -130.268837 
L 197.218248 -129.598369 
L 198.212916 -128.931435 
L 199.207584 -128.268005 
L 200.202252 -127.607641 
L 201.19692 -126.948957 
L 202.191589 -126.293681 
L 203.186257 -125.641827 
L 204.180925 -124.998227 
L 205.175593 -124.357959 
L 206.170261 -123.719462 
L 207.16493 -123.082973 
L 208.159598 -122.449751 
L 209.154266 -121.81977 
L 210.148934 -121.193007 
L 211.143602 -120.569436 
L 212.13827 -119.949033 
L 213.132939 -119.331774 
L 214.127607 -118.717636 
L 215.122275 -118.106729 
L 216.116943 -117.498947 
L 217.111611 -116.891944 
L 218.10628 -116.287141 
L 219.100948 -115.685336 
L 220.095616 -115.093346 
L 221.090284 -114.494968 
L 222.084952 -113.899522 
L 223.07962 -113.311038 
L 224.074289 -112.728957 
L 225.068957 -112.142646 
L 226.063625 -111.569677 
L 227.058293 -110.997634 
L 228.052961 -110.417362 
L 229.047629 -109.839837 
L 230.042298 -109.265033 
L 231.036966 -108.692929 
L 232.031634 -108.123508 
L 233.026302 -107.559854 
L 234.02097 -107.000149 
L 235.015639 -106.44311 
L 236.010307 -105.888894 
L 237.004975 -105.333946 
L 237.999643 -104.784813 
L 238.994311 -104.235767 
L 239.988979 -103.68514 
L 240.983648 -103.142671 
L 241.978316 -102.608488 
L 242.972984 -102.076869 
L 243.967652 -101.547607 
L 244.96232 -101.016358 
L 245.956988 -100.487577 
L 246.951657 -99.961246 
L 247.946325 -99.437348 
L 248.940993 -98.915867 
L 249.935661 -98.396791 
L 250.930329 -97.880143 
L 251.924998 -97.365862 
L 252.919666 -96.849855 
L 253.914334 -96.340068 
L 254.909002 -95.830915 
L 255.90367 -95.320945 
L 256.898338 -94.814338 
L 257.893007 -94.300689 
L 258.887675 -93.794854 
L 259.882343 -93.291245 
L 260.877011 -92.790054 
L 261.871679 -92.2914 
L 262.866348 -91.794931 
L 263.861016 -91.308734 
L 264.855684 -90.827643 
L 265.850352 -90.334208 
L 266.84502 -89.839359 
L 267.839688 -89.346581 
L 268.834357 -88.85943 
L 269.829025 -88.381522 
L 270.823693 -87.909916 
L 271.818361 -87.437256 
L 272.813029 -86.960376 
L 273.807697 -86.473429 
L 274.802366 -86.000211 
L 275.797034 -85.53479 
L 276.791702 -85.071372 
L 277.78637 -84.609944 
L 278.781038 -84.150493 
L 279.775707 -83.693007 
L 280.770375 -83.233988 
L 281.765043 -82.773587 
L 282.759711 -82.315107 
L 283.754379 -81.858535 
L 284.749047 -81.40386 
L 285.743716 -80.95107 
L 286.738384 -80.500152 
L 287.733052 -80.051097 
L 288.72772 -79.603891 
L 289.722388 -79.158612 
L 290.717056 -78.717558 
L 291.711725 -78.278337 
L 292.706393 -77.841018 
L 293.701061 -77.404953 
L 294.695729 -76.971424 
L 295.690397 -76.539293 
L 296.685066 -76.108964 
L 297.679734 -75.680385 
L 298.674402 -75.253544 
L 299.66907 -74.826944 
L 300.663738 -74.400425 
L 301.658406 -73.975592 
L 302.653075 -73.552531 
L 303.647743 -73.131135 
L 304.642411 -72.711394 
L 305.637079 -72.293297 
L 306.631747 -71.876835 
L 307.626415 -71.46636 
L 308.621084 -71.048532 
L 309.615752 -70.636643 
L 310.61042 -70.22635 
L 311.605088 -69.817735 
L 312.599756 -69.410789 
L 313.594425 -69.005394 
L 314.589093 -68.60064 
L 315.583761 -68.197457 
L 316.578429 -67.795837 
L 317.573097 -67.395771 
L 318.567765 -66.997248 
L 319.562434 -66.597527 
L 320.557102 -66.203722 
L 321.55177 -65.810717 
L 322.546438 -65.418483 
L 323.541106 -65.032038 
L 324.535775 -64.644393 
L 325.530443 -64.258232 
L 326.525111 -63.873545 
L 327.519779 -63.489718 
L 328.514447 -63.106792 
L 329.509115 -62.725299 
L 330.503784 -62.345232 
L 331.498452 -61.966581 
L 332.49312 -61.589338 
L 333.487788 -61.213556 
L 334.482456 -60.839221 
L 335.477124 -60.466271 
L 336.471793 -60.094699 
L 337.466461 -59.726762 
L 338.461129 -59.36168 
L 339.455797 -58.997967 
L 340.450465 -58.635615 
L 341.445134 -58.269578 
L 342.439802 -57.901338 
L 343.43447 -57.534421 
L 344.429138 -57.170031 
L 345.423806 -56.810302 
L 346.418474 -56.451876 
L 347.413143 -56.094748 
L 348.407811 -55.738908 
L 349.402479 -55.384403 
L 350.397147 -55.031234 
L 351.391815 -54.679334 
L 352.386483 -54.328696 
L 353.381152 -53.979314 
L 354.37582 -53.631181 
L 355.370488 -53.284291 
L 356.365156 -52.938635 
L 357.359824 -52.59375 
L 357.359824 -54.791702 
L 357.359824 -54.791702 
L 356.365156 -55.120661 
L 355.370488 -55.450839 
L 354.37582 -55.782203 
L 353.381152 -56.114764 
L 352.386483 -56.448564 
L 351.391815 -56.783612 
L 350.397147 -57.119913 
L 349.402479 -57.457476 
L 348.407811 -57.796307 
L 347.413143 -58.136413 
L 346.418474 -58.484798 
L 345.423806 -58.834562 
L 344.429138 -59.181565 
L 343.43447 -59.526274 
L 342.439802 -59.871334 
L 341.445134 -60.21392 
L 340.450465 -60.561579 
L 339.455797 -60.915215 
L 338.461129 -61.269594 
L 337.466461 -61.622387 
L 336.471793 -61.976537 
L 335.477124 -62.332052 
L 334.482456 -62.688941 
L 333.487788 -63.047211 
L 332.49312 -63.406871 
L 331.498452 -63.767922 
L 330.503784 -64.130691 
L 329.509115 -64.499226 
L 328.514447 -64.869178 
L 327.519779 -65.240555 
L 326.525111 -65.613367 
L 325.530443 -65.98762 
L 324.535775 -66.363324 
L 323.541106 -66.739888 
L 322.546438 -67.114795 
L 321.55177 -67.491185 
L 320.557102 -67.869068 
L 319.562434 -68.248451 
L 318.567765 -68.629345 
L 317.573097 -69.011586 
L 316.578429 -69.395965 
L 315.583761 -69.787203 
L 314.589093 -70.173689 
L 313.594425 -70.566321 
L 312.599756 -70.961059 
L 311.605088 -71.357364 
L 310.61042 -71.755713 
L 309.615752 -72.156545 
L 308.621084 -72.558969 
L 307.626415 -72.962993 
L 306.631747 -73.368628 
L 305.637079 -73.775882 
L 304.642411 -74.184766 
L 303.647743 -74.595254 
L 302.653075 -75.007373 
L 301.658406 -75.421151 
L 300.663738 -75.836592 
L 299.66907 -76.253697 
L 298.674402 -76.670268 
L 297.679734 -77.087807 
L 296.685066 -77.507069 
L 295.690397 -77.928065 
L 294.695729 -78.350807 
L 293.701061 -78.775303 
L 292.706393 -79.201567 
L 291.711725 -79.629733 
L 290.717056 -80.061452 
L 289.722388 -80.494958 
L 288.72772 -80.930261 
L 287.733052 -81.367375 
L 286.738384 -81.805185 
L 285.743716 -82.2427 
L 284.749047 -82.685313 
L 283.754379 -83.132488 
L 282.759711 -83.576293 
L 281.765043 -84.023173 
L 280.770375 -84.471742 
L 279.775707 -84.924176 
L 278.781038 -85.378057 
L 277.78637 -85.832858 
L 276.791702 -86.289593 
L 275.797034 -86.748284 
L 274.802366 -87.208943 
L 273.807697 -87.671582 
L 272.813029 -88.136214 
L 271.818361 -88.602852 
L 270.823693 -89.071509 
L 269.829025 -89.542199 
L 268.834357 -90.014934 
L 267.839688 -90.489727 
L 266.84502 -90.966537 
L 265.850352 -91.445429 
L 264.855684 -91.92642 
L 263.861016 -92.409526 
L 262.866348 -92.894759 
L 261.871679 -93.382135 
L 260.877011 -93.871667 
L 259.882343 -94.362868 
L 258.887675 -94.855499 
L 257.893007 -95.350356 
L 256.898338 -95.847452 
L 255.90367 -96.346804 
L 254.909002 -96.848426 
L 253.914334 -97.352335 
L 252.919666 -97.858546 
L 251.924998 -98.367074 
L 250.930329 -98.880691 
L 249.935661 -99.398093 
L 248.940993 -99.917858 
L 247.946325 -100.4389 
L 246.951657 -100.960293 
L 245.956988 -101.484071 
L 244.96232 -102.010252 
L 243.967652 -102.53885 
L 242.972984 -103.069884 
L 241.978316 -103.603369 
L 240.983648 -104.139324 
L 239.988979 -104.677765 
L 238.994311 -105.218709 
L 237.999643 -105.762174 
L 237.004975 -106.308178 
L 236.010307 -106.856703 
L 235.015639 -107.40777 
L 234.02097 -107.96143 
L 233.026302 -108.5177 
L 232.031634 -109.079159 
L 231.036966 -109.651224 
L 230.042298 -110.225895 
L 229.047629 -110.803191 
L 228.052961 -111.383128 
L 227.058293 -111.960661 
L 226.063625 -112.53675 
L 225.068957 -113.115578 
L 224.074289 -113.697191 
L 223.07962 -114.28565 
L 222.084952 -114.874341 
L 221.090284 -115.47056 
L 220.095616 -116.071752 
L 219.100948 -116.67642 
L 218.10628 -117.283924 
L 217.111611 -117.895912 
L 216.116943 -118.507431 
L 215.122275 -119.117295 
L 214.127607 -119.729209 
L 213.132939 -120.34412 
L 212.13827 -120.965105 
L 211.143602 -121.590259 
L 210.148934 -122.218436 
L 209.154266 -122.849655 
L 208.159598 -123.483864 
L 207.16493 -124.116881 
L 206.170261 -124.75327 
L 205.175593 -125.403296 
L 204.180925 -126.045305 
L 203.186257 -126.700288 
L 202.191589 -127.355472 
L 201.19692 -128.012008 
L 200.202252 -128.671791 
L 199.207584 -129.334845 
L 198.212916 -130.00655 
L 197.218248 -130.681766 
L 196.22358 -131.36026 
L 195.228911 -132.042058 
L 194.234243 -132.727183 
L 193.239575 -133.415641 
L 192.244907 -134.107262 
L 191.250239 -134.796632 
L 190.255571 -135.486011 
L 189.260902 -136.179024 
L 188.266234 -136.881405 
L 187.271566 -137.58954 
L 186.276898 -138.301074 
L 185.28223 -139.015795 
L 184.287561 -139.733947 
L 183.292893 -140.45714 
L 182.298225 -141.180942 
L 181.303557 -141.909666 
L 180.308889 -142.637533 
L 179.314221 -143.371669 
L 178.319552 -144.113092 
L 177.324884 -144.858327 
L 176.330216 -145.607403 
L 175.335548 -146.360586 
L 174.34088 -147.117715 
L 173.346212 -147.878561 
L 172.351543 -148.643329 
L 171.356875 -149.41248 
L 170.362207 -150.193834 
L 169.367539 -150.969236 
L 168.372871 -151.748605 
L 167.378202 -152.532008 
L 166.383534 -153.323981 
L 165.388866 -154.125422 
L 164.394198 -154.931387 
L 163.39953 -155.735091 
L 162.404862 -156.540142 
L 161.410193 -157.349522 
L 160.415525 -158.16308 
L 159.420857 -158.981063 
L 158.426189 -159.803509 
L 157.431521 -160.637725 
L 156.436852 -161.477336 
L 155.442184 -162.321714 
L 154.447516 -163.170971 
L 153.452848 -164.020681 
L 152.45818 -164.874934 
L 151.463512 -165.736437 
L 150.468843 -166.607637 
L 149.474175 -167.48483 
L 148.479507 -168.368703 
L 147.484839 -169.255097 
L 146.490171 -170.144665 
L 145.495503 -171.052301 
L 144.500834 -171.949431 
L 143.506166 -172.851078 
L 142.511498 -173.76395 
L 141.51683 -174.671194 
L 140.522162 -175.592411 
L 139.527493 -176.519339 
L 138.532825 -177.451807 
L 137.538157 -178.389864 
L 136.543489 -179.333559 
L 135.548821 -180.282945 
L 134.554153 -181.238073 
L 133.559484 -182.199623 
L 132.564816 -183.171533 
L 131.570148 -184.14938 
L 130.57548 -185.133218 
L 129.580812 -186.123102 
L 128.586144 -187.119089 
L 127.591475 -188.120983 
L 126.596807 -189.124394 
L 125.602139 -190.117953 
L 124.607471 -191.117283 
L 123.612803 -192.138316 
L 122.618134 -193.166639 
L 121.623466 -194.201433 
L 120.628798 -195.24276 
L 119.63413 -196.290683 
L 118.639462 -197.345263 
L 117.644794 -198.406565 
L 116.650125 -199.478799 
L 115.655457 -200.56134 
L 114.660789 -201.65356 
L 113.666121 -202.753009 
L 112.671453 -203.859759 
L 111.676784 -204.973883 
L 110.682116 -206.095455 
L 109.687448 -207.224551 
L 108.69278 -208.361245 
L 107.698112 -209.505615 
L 106.703444 -210.657738 
L 105.708775 -211.817695 
L 104.714107 -212.985565 
L 103.719439 -214.161429 
L 102.724771 -215.345371 
L 101.730103 -216.537472 
L 100.735435 -217.734719 
L 99.740766 -218.935662 
L 98.746098 -220.144681 
L 97.75143 -221.361837 
L 96.756762 -222.587317 
L 95.762094 -223.824523 
L 94.767425 -225.076364 
L 93.772757 -226.336827 
L 92.778089 -227.598276 
L 91.783421 -228.868617 
L 90.788753 -230.156273 
L 89.794085 -231.453935 
L 88.799416 -232.760989 
L 87.804748 -234.077535 
L 86.81008 -235.403543 
L 85.815412 -236.739003 
L 84.820744 -238.070985 
L 83.826076 -239.411558 
L 82.831407 -240.767732 
L 81.836739 -242.139335 
L 80.842071 -243.521063 
L 79.847403 -244.913026 
L 78.852735 -246.31695 
L 77.858066 -247.746043 
L 76.863398 -249.186225 
L 75.86873 -250.637625 
L 74.874062 -252.100376 
L 73.879394 -253.574849 
L 72.884726 -255.061106 
L 71.890057 -256.538398 
L 70.895389 -258.01807 
L 69.900721 -259.536341 
L 68.906053 -261.07155 
L 67.911385 -262.619222 
L 66.916716 -264.171467 
L 65.922048 -265.729004 
L 64.92738 -267.288783 
L 63.932712 -268.868616 
L 62.938044 -270.47758 
L 61.943376 -272.103859 
L 60.948707 -273.742239 
L 59.954039 -275.39375 
z
" style="stroke: #1f77b4; stroke-opacity: 0.2"/>
    </defs>
    <g clip-path="url(#pa3d8dade5b)">
     <use xlink:href="#m682b140a41" x="0" y="309.611719" style="fill: #1f77b4; fill-opacity: 0.2; stroke: #1f77b4; stroke-opacity: 0.2"/>
    </g>
   </g>
   <g id="matplotlib.axis_1">
    <g id="xtick_1">
     <g id="line2d_1">
      <path d="M 86.195726 268.157969 
L 86.195726 23.077969 
" clip-path="url(#pa3d8dade5b)" style="fill: none; stroke: #b0b0b0; stroke-opacity: 0.3; stroke-width: 0.8; stroke-linecap: square"/>
     </g>
     <g id="line2d_2">
      <defs>
       <path id="me34601792e" d="M 0 0 
L 0 3.5 
" style="stroke: #000000; stroke-width: 0.8"/>
      </defs>
      <g>
       <use xlink:href="#me34601792e" x="86.195726" y="268.157969" style="stroke: #000000; stroke-width: 0.8"/>
      </g>
     </g>
     <g id="text_1">
      <!-- 0.05 -->
      <g transform="translate(72.836351 284.276094) scale(0.12 -0.12)">
       <defs>
        <path id="DejaVuSans-30" d="M 2034 4250 
Q 1547 4250 1301 3770 
Q 1056 3291 1056 2328 
Q 1056 1369 1301 889 
Q 1547 409 2034 409 
Q 2525 409 2770 889 
Q 3016 1369 3016 2328 
Q 3016 3291 2770 3770 
Q 2525 4250 2034 4250 
z
M 2034 4750 
Q 2819 4750 3233 4129 
Q 3647 3509 3647 2328 
Q 3647 1150 3233 529 
Q 2819 -91 2034 -91 
Q 1250 -91 836 529 
Q 422 1150 422 2328 
Q 422 3509 836 4129 
Q 1250 4750 2034 4750 
z
" transform="scale(0.015625)"/>
        <path id="DejaVuSans-2e" d="M 684 794 
L 1344 794 
L 1344 0 
L 684 0 
L 684 794 
z
" transform="scale(0.015625)"/>
        <path id="DejaVuSans-35" d="M 691 4666 
L 3169 4666 
L 3169 4134 
L 1269 4134 
L 1269 2991 
Q 1406 3038 1543 3061 
Q 1681 3084 1819 3084 
Q 2600 3084 3056 2656 
Q 3513 2228 3513 1497 
Q 3513 744 3044 326 
Q 2575 -91 1722 -91 
Q 1428 -91 1123 -41 
Q 819 9 494 109 
L 494 744 
Q 775 591 1075 516 
Q 1375 441 1709 441 
Q 2250 441 2565 725 
Q 2881 1009 2881 1497 
Q 2881 1984 2565 2268 
Q 2250 2553 1709 2553 
Q 1456 2553 1204 2497 
Q 953 2441 691 2322 
L 691 4666 
z
" transform="scale(0.015625)"/>
       </defs>
       <use xlink:href="#DejaVuSans-30"/>
       <use xlink:href="#DejaVuSans-2e" transform="translate(63.623047 0)"/>
       <use xlink:href="#DejaVuSans-30" transform="translate(95.410156 0)"/>
       <use xlink:href="#DejaVuSans-35" transform="translate(159.033203 0)"/>
      </g>
     </g>
    </g>
    <g id="xtick_2">
     <g id="line2d_3">
      <path d="M 129.931871 268.157969 
L 129.931871 23.077969 
" clip-path="url(#pa3d8dade5b)" style="fill: none; stroke: #b0b0b0; stroke-opacity: 0.3; stroke-width: 0.8; stroke-linecap: square"/>
     </g>
     <g id="line2d_4">
      <g>
       <use xlink:href="#me34601792e" x="129.931871" y="268.157969" style="stroke: #000000; stroke-width: 0.8"/>
      </g>
     </g>
     <g id="text_2">
      <!-- 0.10 -->
      <g transform="translate(116.572496 284.276094) scale(0.12 -0.12)">
       <defs>
        <path id="DejaVuSans-31" d="M 794 531 
L 1825 531 
L 1825 4091 
L 703 3866 
L 703 4441 
L 1819 4666 
L 2450 4666 
L 2450 531 
L 3481 531 
L 3481 0 
L 794 0 
L 794 531 
z
" transform="scale(0.015625)"/>
       </defs>
       <use xlink:href="#DejaVuSans-30"/>
       <use xlink:href="#DejaVuSans-2e" transform="translate(63.623047 0)"/>
       <use xlink:href="#DejaVuSans-31" transform="translate(95.410156 0)"/>
       <use xlink:href="#DejaVuSans-30" transform="translate(159.033203 0)"/>
      </g>
     </g>
    </g>
    <g id="xtick_3">
     <g id="line2d_5">
      <path d="M 173.668016 268.157969 
L 173.668016 23.077969 
" clip-path="url(#pa3d8dade5b)" style="fill: none; stroke: #b0b0b0; stroke-opacity: 0.3; stroke-width: 0.8; stroke-linecap: square"/>
     </g>
     <g id="line2d_6">
      <g>
       <use xlink:href="#me34601792e" x="173.668016" y="268.157969" style="stroke: #000000; stroke-width: 0.8"/>
      </g>
     </g>
     <g id="text_3">
      <!-- 0.15 -->
      <g transform="translate(160.308641 284.276094) scale(0.12 -0.12)">
       <use xlink:href="#DejaVuSans-30"/>
       <use xlink:href="#DejaVuSans-2e" transform="translate(63.623047 0)"/>
       <use xlink:href="#DejaVuSans-31" transform="translate(95.410156 0)"/>
       <use xlink:href="#DejaVuSans-35" transform="translate(159.033203 0)"/>
      </g>
     </g>
    </g>
    <g id="xtick_4">
     <g id="line2d_7">
      <path d="M 217.404161 268.157969 
L 217.404161 23.077969 
" clip-path="url(#pa3d8dade5b)" style="fill: none; stroke: #b0b0b0; stroke-opacity: 0.3; stroke-width: 0.8; stroke-linecap: square"/>
     </g>
     <g id="line2d_8">
      <g>
       <use xlink:href="#me34601792e" x="217.404161" y="268.157969" style="stroke: #000000; stroke-width: 0.8"/>
      </g>
     </g>
     <g id="text_4">
      <!-- 0.20 -->
      <g transform="translate(204.044786 284.276094) scale(0.12 -0.12)">
       <defs>
        <path id="DejaVuSans-32" d="M 1228 531 
L 3431 531 
L 3431 0 
L 469 0 
L 469 531 
Q 828 903 1448 1529 
Q 2069 2156 2228 2338 
Q 2531 2678 2651 2914 
Q 2772 3150 2772 3378 
Q 2772 3750 2511 3984 
Q 2250 4219 1831 4219 
Q 1534 4219 1204 4116 
Q 875 4013 500 3803 
L 500 4441 
Q 881 4594 1212 4672 
Q 1544 4750 1819 4750 
Q 2544 4750 2975 4387 
Q 3406 4025 3406 3419 
Q 3406 3131 3298 2873 
Q 3191 2616 2906 2266 
Q 2828 2175 2409 1742 
Q 1991 1309 1228 531 
z
" transform="scale(0.015625)"/>
       </defs>
       <use xlink:href="#DejaVuSans-30"/>
       <use xlink:href="#DejaVuSans-2e" transform="translate(63.623047 0)"/>
       <use xlink:href="#DejaVuSans-32" transform="translate(95.410156 0)"/>
       <use xlink:href="#DejaVuSans-30" transform="translate(159.033203 0)"/>
      </g>
     </g>
    </g>
    <g id="xtick_5">
     <g id="line2d_9">
      <path d="M 261.140306 268.157969 
L 261.140306 23.077969 
" clip-path="url(#pa3d8dade5b)" style="fill: none; stroke: #b0b0b0; stroke-opacity: 0.3; stroke-width: 0.8; stroke-linecap: square"/>
     </g>
     <g id="line2d_10">
      <g>
       <use xlink:href="#me34601792e" x="261.140306" y="268.157969" style="stroke: #000000; stroke-width: 0.8"/>
      </g>
     </g>
     <g id="text_5">
      <!-- 0.25 -->
      <g transform="translate(247.780931 284.276094) scale(0.12 -0.12)">
       <use xlink:href="#DejaVuSans-30"/>
       <use xlink:href="#DejaVuSans-2e" transform="translate(63.623047 0)"/>
       <use xlink:href="#DejaVuSans-32" transform="translate(95.410156 0)"/>
       <use xlink:href="#DejaVuSans-35" transform="translate(159.033203 0)"/>
      </g>
     </g>
    </g>
    <g id="xtick_6">
     <g id="line2d_11">
      <path d="M 304.876451 268.157969 
L 304.876451 23.077969 
" clip-path="url(#pa3d8dade5b)" style="fill: none; stroke: #b0b0b0; stroke-opacity: 0.3; stroke-width: 0.8; stroke-linecap: square"/>
     </g>
     <g id="line2d_12">
      <g>
       <use xlink:href="#me34601792e" x="304.876451" y="268.157969" style="stroke: #000000; stroke-width: 0.8"/>
      </g>
     </g>
     <g id="text_6">
      <!-- 0.30 -->
      <g transform="translate(291.517076 284.276094) scale(0.12 -0.12)">
       <defs>
        <path id="DejaVuSans-33" d="M 2597 2516 
Q 3050 2419 3304 2112 
Q 3559 1806 3559 1356 
Q 3559 666 3084 287 
Q 2609 -91 1734 -91 
Q 1441 -91 1130 -33 
Q 819 25 488 141 
L 488 750 
Q 750 597 1062 519 
Q 1375 441 1716 441 
Q 2309 441 2620 675 
Q 2931 909 2931 1356 
Q 2931 1769 2642 2001 
Q 2353 2234 1838 2234 
L 1294 2234 
L 1294 2753 
L 1863 2753 
Q 2328 2753 2575 2939 
Q 2822 3125 2822 3475 
Q 2822 3834 2567 4026 
Q 2313 4219 1838 4219 
Q 1578 4219 1281 4162 
Q 984 4106 628 3988 
L 628 4550 
Q 988 4650 1302 4700 
Q 1616 4750 1894 4750 
Q 2613 4750 3031 4423 
Q 3450 4097 3450 3541 
Q 3450 3153 3228 2886 
Q 3006 2619 2597 2516 
z
" transform="scale(0.015625)"/>
       </defs>
       <use xlink:href="#DejaVuSans-30"/>
       <use xlink:href="#DejaVuSans-2e" transform="translate(63.623047 0)"/>
       <use xlink:href="#DejaVuSans-33" transform="translate(95.410156 0)"/>
       <use xlink:href="#DejaVuSans-30" transform="translate(159.033203 0)"/>
      </g>
     </g>
    </g>
    <g id="xtick_7">
     <g id="line2d_13">
      <path d="M 348.612595 268.157969 
L 348.612595 23.077969 
" clip-path="url(#pa3d8dade5b)" style="fill: none; stroke: #b0b0b0; stroke-opacity: 0.3; stroke-width: 0.8; stroke-linecap: square"/>
     </g>
     <g id="line2d_14">
      <g>
       <use xlink:href="#me34601792e" x="348.612595" y="268.157969" style="stroke: #000000; stroke-width: 0.8"/>
      </g>
     </g>
     <g id="text_7">
      <!-- 0.35 -->
      <g transform="translate(335.25322 284.276094) scale(0.12 -0.12)">
       <use xlink:href="#DejaVuSans-30"/>
       <use xlink:href="#DejaVuSans-2e" transform="translate(63.623047 0)"/>
       <use xlink:href="#DejaVuSans-33" transform="translate(95.410156 0)"/>
       <use xlink:href="#DejaVuSans-35" transform="translate(159.033203 0)"/>
      </g>
     </g>
    </g>
    <g id="text_8">
     <!-- Gap height $h$ (mm) -->
     <g transform="translate(151.476932 299.891719) scale(0.12 -0.12)">
      <defs>
       <path id="DejaVuSans-47" d="M 3809 666 
L 3809 1919 
L 2778 1919 
L 2778 2438 
L 4434 2438 
L 4434 434 
Q 4069 175 3628 42 
Q 3188 -91 2688 -91 
Q 1594 -91 976 548 
Q 359 1188 359 2328 
Q 359 3472 976 4111 
Q 1594 4750 2688 4750 
Q 3144 4750 3555 4637 
Q 3966 4525 4313 4306 
L 4313 3634 
Q 3963 3931 3569 4081 
Q 3175 4231 2741 4231 
Q 1884 4231 1454 3753 
Q 1025 3275 1025 2328 
Q 1025 1384 1454 906 
Q 1884 428 2741 428 
Q 3075 428 3337 486 
Q 3600 544 3809 666 
z
" transform="scale(0.015625)"/>
       <path id="DejaVuSans-61" d="M 2194 1759 
Q 1497 1759 1228 1600 
Q 959 1441 959 1056 
Q 959 750 1161 570 
Q 1363 391 1709 391 
Q 2188 391 2477 730 
Q 2766 1069 2766 1631 
L 2766 1759 
L 2194 1759 
z
M 3341 1997 
L 3341 0 
L 2766 0 
L 2766 531 
Q 2569 213 2275 61 
Q 1981 -91 1556 -91 
Q 1019 -91 701 211 
Q 384 513 384 1019 
Q 384 1609 779 1909 
Q 1175 2209 1959 2209 
L 2766 2209 
L 2766 2266 
Q 2766 2663 2505 2880 
Q 2244 3097 1772 3097 
Q 1472 3097 1187 3025 
Q 903 2953 641 2809 
L 641 3341 
Q 956 3463 1253 3523 
Q 1550 3584 1831 3584 
Q 2591 3584 2966 3190 
Q 3341 2797 3341 1997 
z
" transform="scale(0.015625)"/>
       <path id="DejaVuSans-70" d="M 1159 525 
L 1159 -1331 
L 581 -1331 
L 581 3500 
L 1159 3500 
L 1159 2969 
Q 1341 3281 1617 3432 
Q 1894 3584 2278 3584 
Q 2916 3584 3314 3078 
Q 3713 2572 3713 1747 
Q 3713 922 3314 415 
Q 2916 -91 2278 -91 
Q 1894 -91 1617 61 
Q 1341 213 1159 525 
z
M 3116 1747 
Q 3116 2381 2855 2742 
Q 2594 3103 2138 3103 
Q 1681 3103 1420 2742 
Q 1159 2381 1159 1747 
Q 1159 1113 1420 752 
Q 1681 391 2138 391 
Q 2594 391 2855 752 
Q 3116 1113 3116 1747 
z
" transform="scale(0.015625)"/>
       <path id="DejaVuSans-20" transform="scale(0.015625)"/>
       <path id="DejaVuSans-68" d="M 3513 2113 
L 3513 0 
L 2938 0 
L 2938 2094 
Q 2938 2591 2744 2837 
Q 2550 3084 2163 3084 
Q 1697 3084 1428 2787 
Q 1159 2491 1159 1978 
L 1159 0 
L 581 0 
L 581 4863 
L 1159 4863 
L 1159 2956 
Q 1366 3272 1645 3428 
Q 1925 3584 2291 3584 
Q 2894 3584 3203 3211 
Q 3513 2838 3513 2113 
z
" transform="scale(0.015625)"/>
       <path id="DejaVuSans-65" d="M 3597 1894 
L 3597 1613 
L 953 1613 
Q 991 1019 1311 708 
Q 1631 397 2203 397 
Q 2534 397 2845 478 
Q 3156 559 3463 722 
L 3463 178 
Q 3153 47 2828 -22 
Q 2503 -91 2169 -91 
Q 1331 -91 842 396 
Q 353 884 353 1716 
Q 353 2575 817 3079 
Q 1281 3584 2069 3584 
Q 2775 3584 3186 3129 
Q 3597 2675 3597 1894 
z
M 3022 2063 
Q 3016 2534 2758 2815 
Q 2500 3097 2075 3097 
Q 1594 3097 1305 2825 
Q 1016 2553 972 2059 
L 3022 2063 
z
" transform="scale(0.015625)"/>
       <path id="DejaVuSans-69" d="M 603 3500 
L 1178 3500 
L 1178 0 
L 603 0 
L 603 3500 
z
M 603 4863 
L 1178 4863 
L 1178 4134 
L 603 4134 
L 603 4863 
z
" transform="scale(0.015625)"/>
       <path id="DejaVuSans-67" d="M 2906 1791 
Q 2906 2416 2648 2759 
Q 2391 3103 1925 3103 
Q 1463 3103 1205 2759 
Q 947 2416 947 1791 
Q 947 1169 1205 825 
Q 1463 481 1925 481 
Q 2391 481 2648 825 
Q 2906 1169 2906 1791 
z
M 3481 434 
Q 3481 -459 3084 -895 
Q 2688 -1331 1869 -1331 
Q 1566 -1331 1297 -1286 
Q 1028 -1241 775 -1147 
L 775 -588 
Q 1028 -725 1275 -790 
Q 1522 -856 1778 -856 
Q 2344 -856 2625 -561 
Q 2906 -266 2906 331 
L 2906 616 
Q 2728 306 2450 153 
Q 2172 0 1784 0 
Q 1141 0 747 490 
Q 353 981 353 1791 
Q 353 2603 747 3093 
Q 1141 3584 1784 3584 
Q 2172 3584 2450 3431 
Q 2728 3278 2906 2969 
L 2906 3500 
L 3481 3500 
L 3481 434 
z
" transform="scale(0.015625)"/>
       <path id="DejaVuSans-74" d="M 1172 4494 
L 1172 3500 
L 2356 3500 
L 2356 3053 
L 1172 3053 
L 1172 1153 
Q 1172 725 1289 603 
Q 1406 481 1766 481 
L 2356 481 
L 2356 0 
L 1766 0 
Q 1100 0 847 248 
Q 594 497 594 1153 
L 594 3053 
L 172 3053 
L 172 3500 
L 594 3500 
L 594 4494 
L 1172 4494 
z
" transform="scale(0.015625)"/>
       <path id="DejaVuSans-Oblique-68" d="M 3566 2113 
L 3156 0 
L 2578 0 
L 2988 2091 
Q 3016 2238 3031 2350 
Q 3047 2463 3047 2528 
Q 3047 2791 2881 2937 
Q 2716 3084 2419 3084 
Q 1956 3084 1617 2771 
Q 1278 2459 1178 1941 
L 800 0 
L 225 0 
L 1172 4863 
L 1747 4863 
L 1375 2950 
Q 1594 3244 1934 3414 
Q 2275 3584 2650 3584 
Q 3113 3584 3367 3334 
Q 3622 3084 3622 2631 
Q 3622 2519 3608 2391 
Q 3594 2263 3566 2113 
z
" transform="scale(0.015625)"/>
       <path id="DejaVuSans-28" d="M 1984 4856 
Q 1566 4138 1362 3434 
Q 1159 2731 1159 2009 
Q 1159 1288 1364 580 
Q 1569 -128 1984 -844 
L 1484 -844 
Q 1016 -109 783 600 
Q 550 1309 550 2009 
Q 550 2706 781 3412 
Q 1013 4119 1484 4856 
L 1984 4856 
z
" transform="scale(0.015625)"/>
       <path id="DejaVuSans-6d" d="M 3328 2828 
Q 3544 3216 3844 3400 
Q 4144 3584 4550 3584 
Q 5097 3584 5394 3201 
Q 5691 2819 5691 2113 
L 5691 0 
L 5113 0 
L 5113 2094 
Q 5113 2597 4934 2840 
Q 4756 3084 4391 3084 
Q 3944 3084 3684 2787 
Q 3425 2491 3425 1978 
L 3425 0 
L 2847 0 
L 2847 2094 
Q 2847 2600 2669 2842 
Q 2491 3084 2119 3084 
Q 1678 3084 1418 2786 
Q 1159 2488 1159 1978 
L 1159 0 
L 581 0 
L 581 3500 
L 1159 3500 
L 1159 2956 
Q 1356 3278 1631 3431 
Q 1906 3584 2284 3584 
Q 2666 3584 2933 3390 
Q 3200 3197 3328 2828 
z
" transform="scale(0.015625)"/>
       <path id="DejaVuSans-29" d="M 513 4856 
L 1013 4856 
Q 1481 4119 1714 3412 
Q 1947 2706 1947 2009 
Q 1947 1309 1714 600 
Q 1481 -109 1013 -844 
L 513 -844 
Q 928 -128 1133 580 
Q 1338 1288 1338 2009 
Q 1338 2731 1133 3434 
Q 928 4138 513 4856 
z
" transform="scale(0.015625)"/>
      </defs>
      <use xlink:href="#DejaVuSans-47" transform="translate(0 0.015625)"/>
      <use xlink:href="#DejaVuSans-61" transform="translate(77.490234 0.015625)"/>
      <use xlink:href="#DejaVuSans-70" transform="translate(138.769531 0.015625)"/>
      <use xlink:href="#DejaVuSans-20" transform="translate(202.246094 0.015625)"/>
      <use xlink:href="#DejaVuSans-68" transform="translate(234.033203 0.015625)"/>
      <use xlink:href="#DejaVuSans-65" transform="translate(297.412109 0.015625)"/>
      <use xlink:href="#DejaVuSans-69" transform="translate(358.935547 0.015625)"/>
      <use xlink:href="#DejaVuSans-67" transform="translate(386.71875 0.015625)"/>
      <use xlink:href="#DejaVuSans-68" transform="translate(450.195312 0.015625)"/>
      <use xlink:href="#DejaVuSans-74" transform="translate(513.574219 0.015625)"/>
      <use xlink:href="#DejaVuSans-20" transform="translate(552.783203 0.015625)"/>
      <use xlink:href="#DejaVuSans-Oblique-68" transform="translate(584.570312 0.015625)"/>
      <use xlink:href="#DejaVuSans-20" transform="translate(647.949219 0.015625)"/>
      <use xlink:href="#DejaVuSans-28" transform="translate(679.736328 0.015625)"/>
      <use xlink:href="#DejaVuSans-6d" transform="translate(718.75 0.015625)"/>
      <use xlink:href="#DejaVuSans-6d" transform="translate(816.162109 0.015625)"/>
      <use xlink:href="#DejaVuSans-29" transform="translate(913.574219 0.015625)"/>
     </g>
    </g>
   </g>
   <g id="matplotlib.axis_2">
    <g id="ytick_1">
     <g id="line2d_15">
      <path d="M 45.08375 252.953347 
L 372.230114 252.953347 
" clip-path="url(#pa3d8dade5b)" style="fill: none; stroke: #b0b0b0; stroke-opacity: 0.3; stroke-width: 0.8; stroke-linecap: square"/>
     </g>
     <g id="line2d_16">
      <defs>
       <path id="m2348155463" d="M 0 0 
L -3.5 0 
" style="stroke: #000000; stroke-width: 0.8"/>
      </defs>
      <g>
       <use xlink:href="#m2348155463" x="45.08375" y="252.953347" style="stroke: #000000; stroke-width: 0.8"/>
      </g>
     </g>
     <g id="text_9">
      <!-- 10 -->
      <g transform="translate(22.81375 257.51241) scale(0.12 -0.12)">
       <use xlink:href="#DejaVuSans-31"/>
       <use xlink:href="#DejaVuSans-30" transform="translate(63.623047 0)"/>
      </g>
     </g>
    </g>
    <g id="ytick_2">
     <g id="line2d_17">
      <path d="M 45.08375 225.083187 
L 372.230114 225.083187 
" clip-path="url(#pa3d8dade5b)" style="fill: none; stroke: #b0b0b0; stroke-opacity: 0.3; stroke-width: 0.8; stroke-linecap: square"/>
     </g>
     <g id="line2d_18">
      <g>
       <use xlink:href="#m2348155463" x="45.08375" y="225.083187" style="stroke: #000000; stroke-width: 0.8"/>
      </g>
     </g>
     <g id="text_10">
      <!-- 11 -->
      <g transform="translate(22.81375 229.64225) scale(0.12 -0.12)">
       <use xlink:href="#DejaVuSans-31"/>
       <use xlink:href="#DejaVuSans-31" transform="translate(63.623047 0)"/>
      </g>
     </g>
    </g>
    <g id="ytick_3">
     <g id="line2d_19">
      <path d="M 45.08375 197.213028 
L 372.230114 197.213028 
" clip-path="url(#pa3d8dade5b)" style="fill: none; stroke: #b0b0b0; stroke-opacity: 0.3; stroke-width: 0.8; stroke-linecap: square"/>
     </g>
     <g id="line2d_20">
      <g>
       <use xlink:href="#m2348155463" x="45.08375" y="197.213028" style="stroke: #000000; stroke-width: 0.8"/>
      </g>
     </g>
     <g id="text_11">
      <!-- 12 -->
      <g transform="translate(22.81375 201.77209) scale(0.12 -0.12)">
       <use xlink:href="#DejaVuSans-31"/>
       <use xlink:href="#DejaVuSans-32" transform="translate(63.623047 0)"/>
      </g>
     </g>
    </g>
    <g id="ytick_4">
     <g id="line2d_21">
      <path d="M 45.08375 169.342868 
L 372.230114 169.342868 
" clip-path="url(#pa3d8dade5b)" style="fill: none; stroke: #b0b0b0; stroke-opacity: 0.3; stroke-width: 0.8; stroke-linecap: square"/>
     </g>
     <g id="line2d_22">
      <g>
       <use xlink:href="#m2348155463" x="45.08375" y="169.342868" style="stroke: #000000; stroke-width: 0.8"/>
      </g>
     </g>
     <g id="text_12">
      <!-- 13 -->
      <g transform="translate(22.81375 173.90193) scale(0.12 -0.12)">
       <use xlink:href="#DejaVuSans-31"/>
       <use xlink:href="#DejaVuSans-33" transform="translate(63.623047 0)"/>
      </g>
     </g>
    </g>
    <g id="ytick_5">
     <g id="line2d_23">
      <path d="M 45.08375 141.472708 
L 372.230114 141.472708 
" clip-path="url(#pa3d8dade5b)" style="fill: none; stroke: #b0b0b0; stroke-opacity: 0.3; stroke-width: 0.8; stroke-linecap: square"/>
     </g>
     <g id="line2d_24">
      <g>
       <use xlink:href="#m2348155463" x="45.08375" y="141.472708" style="stroke: #000000; stroke-width: 0.8"/>
      </g>
     </g>
     <g id="text_13">
      <!-- 14 -->
      <g transform="translate(22.81375 146.03177) scale(0.12 -0.12)">
       <defs>
        <path id="DejaVuSans-34" d="M 2419 4116 
L 825 1625 
L 2419 1625 
L 2419 4116 
z
M 2253 4666 
L 3047 4666 
L 3047 1625 
L 3713 1625 
L 3713 1100 
L 3047 1100 
L 3047 0 
L 2419 0 
L 2419 1100 
L 313 1100 
L 313 1709 
L 2253 4666 
z
" transform="scale(0.015625)"/>
       </defs>
       <use xlink:href="#DejaVuSans-31"/>
       <use xlink:href="#DejaVuSans-34" transform="translate(63.623047 0)"/>
      </g>
     </g>
    </g>
    <g id="ytick_6">
     <g id="line2d_25">
      <path d="M 45.08375 113.602548 
L 372.230114 113.602548 
" clip-path="url(#pa3d8dade5b)" style="fill: none; stroke: #b0b0b0; stroke-opacity: 0.3; stroke-width: 0.8; stroke-linecap: square"/>
     </g>
     <g id="line2d_26">
      <g>
       <use xlink:href="#m2348155463" x="45.08375" y="113.602548" style="stroke: #000000; stroke-width: 0.8"/>
      </g>
     </g>
     <g id="text_14">
      <!-- 15 -->
      <g transform="translate(22.81375 118.161611) scale(0.12 -0.12)">
       <use xlink:href="#DejaVuSans-31"/>
       <use xlink:href="#DejaVuSans-35" transform="translate(63.623047 0)"/>
      </g>
     </g>
    </g>
    <g id="ytick_7">
     <g id="line2d_27">
      <path d="M 45.08375 85.732388 
L 372.230114 85.732388 
" clip-path="url(#pa3d8dade5b)" style="fill: none; stroke: #b0b0b0; stroke-opacity: 0.3; stroke-width: 0.8; stroke-linecap: square"/>
     </g>
     <g id="line2d_28">
      <g>
       <use xlink:href="#m2348155463" x="45.08375" y="85.732388" style="stroke: #000000; stroke-width: 0.8"/>
      </g>
     </g>
     <g id="text_15">
      <!-- 16 -->
      <g transform="translate(22.81375 90.291451) scale(0.12 -0.12)">
       <defs>
        <path id="DejaVuSans-36" d="M 2113 2584 
Q 1688 2584 1439 2293 
Q 1191 2003 1191 1497 
Q 1191 994 1439 701 
Q 1688 409 2113 409 
Q 2538 409 2786 701 
Q 3034 994 3034 1497 
Q 3034 2003 2786 2293 
Q 2538 2584 2113 2584 
z
M 3366 4563 
L 3366 3988 
Q 3128 4100 2886 4159 
Q 2644 4219 2406 4219 
Q 1781 4219 1451 3797 
Q 1122 3375 1075 2522 
Q 1259 2794 1537 2939 
Q 1816 3084 2150 3084 
Q 2853 3084 3261 2657 
Q 3669 2231 3669 1497 
Q 3669 778 3244 343 
Q 2819 -91 2113 -91 
Q 1303 -91 875 529 
Q 447 1150 447 2328 
Q 447 3434 972 4092 
Q 1497 4750 2381 4750 
Q 2619 4750 2861 4703 
Q 3103 4656 3366 4563 
z
" transform="scale(0.015625)"/>
       </defs>
       <use xlink:href="#DejaVuSans-31"/>
       <use xlink:href="#DejaVuSans-36" transform="translate(63.623047 0)"/>
      </g>
     </g>
    </g>
    <g id="ytick_8">
     <g id="line2d_29">
      <path d="M 45.08375 57.862228 
L 372.230114 57.862228 
" clip-path="url(#pa3d8dade5b)" style="fill: none; stroke: #b0b0b0; stroke-opacity: 0.3; stroke-width: 0.8; stroke-linecap: square"/>
     </g>
     <g id="line2d_30">
      <g>
       <use xlink:href="#m2348155463" x="45.08375" y="57.862228" style="stroke: #000000; stroke-width: 0.8"/>
      </g>
     </g>
     <g id="text_16">
      <!-- 17 -->
      <g transform="translate(22.81375 62.421291) scale(0.12 -0.12)">
       <defs>
        <path id="DejaVuSans-37" d="M 525 4666 
L 3525 4666 
L 3525 4397 
L 1831 0 
L 1172 0 
L 2766 4134 
L 525 4134 
L 525 4666 
z
" transform="scale(0.015625)"/>
       </defs>
       <use xlink:href="#DejaVuSans-31"/>
       <use xlink:href="#DejaVuSans-37" transform="translate(63.623047 0)"/>
      </g>
     </g>
    </g>
    <g id="ytick_9">
     <g id="line2d_31">
      <path d="M 45.08375 29.992069 
L 372.230114 29.992069 
" clip-path="url(#pa3d8dade5b)" style="fill: none; stroke: #b0b0b0; stroke-opacity: 0.3; stroke-width: 0.8; stroke-linecap: square"/>
     </g>
     <g id="line2d_32">
      <g>
       <use xlink:href="#m2348155463" x="45.08375" y="29.992069" style="stroke: #000000; stroke-width: 0.8"/>
      </g>
     </g>
     <g id="text_17">
      <!-- 18 -->
      <g transform="translate(22.81375 34.551131) scale(0.12 -0.12)">
       <defs>
        <path id="DejaVuSans-38" d="M 2034 2216 
Q 1584 2216 1326 1975 
Q 1069 1734 1069 1313 
Q 1069 891 1326 650 
Q 1584 409 2034 409 
Q 2484 409 2743 651 
Q 3003 894 3003 1313 
Q 3003 1734 2745 1975 
Q 2488 2216 2034 2216 
z
M 1403 2484 
Q 997 2584 770 2862 
Q 544 3141 544 3541 
Q 544 4100 942 4425 
Q 1341 4750 2034 4750 
Q 2731 4750 3128 4425 
Q 3525 4100 3525 3541 
Q 3525 3141 3298 2862 
Q 3072 2584 2669 2484 
Q 3125 2378 3379 2068 
Q 3634 1759 3634 1313 
Q 3634 634 3220 271 
Q 2806 -91 2034 -91 
Q 1263 -91 848 271 
Q 434 634 434 1313 
Q 434 1759 690 2068 
Q 947 2378 1403 2484 
z
M 1172 3481 
Q 1172 3119 1398 2916 
Q 1625 2713 2034 2713 
Q 2441 2713 2670 2916 
Q 2900 3119 2900 3481 
Q 2900 3844 2670 4047 
Q 2441 4250 2034 4250 
Q 1625 4250 1398 4047 
Q 1172 3844 1172 3481 
z
" transform="scale(0.015625)"/>
       </defs>
       <use xlink:href="#DejaVuSans-31"/>
       <use xlink:href="#DejaVuSans-38" transform="translate(63.623047 0)"/>
      </g>
     </g>
    </g>
    <g id="text_18">
     <!-- $T/\Omega$  (% / RPM) -->
     <g transform="translate(16.318125 188.937969) rotate(-90) scale(0.12 -0.12)">
      <defs>
       <path id="DejaVuSans-Oblique-54" d="M 378 4666 
L 4325 4666 
L 4225 4134 
L 2559 4134 
L 1759 0 
L 1125 0 
L 1925 4134 
L 275 4134 
L 378 4666 
z
" transform="scale(0.015625)"/>
       <path id="DejaVuSans-2f" d="M 1625 4666 
L 2156 4666 
L 531 -594 
L 0 -594 
L 1625 4666 
z
" transform="scale(0.015625)"/>
       <path id="DejaVuSans-3a9" d="M 4647 556 
L 4647 0 
L 2772 0 
L 2772 556 
Q 3325 859 3634 1378 
Q 3944 1897 3944 2528 
Q 3944 3278 3531 3731 
Q 3119 4184 2444 4184 
Q 1769 4184 1355 3729 
Q 941 3275 941 2528 
Q 941 1897 1250 1378 
Q 1563 859 2119 556 
L 2119 0 
L 244 0 
L 244 556 
L 1241 556 
Q 747 991 519 1456 
Q 294 1922 294 2497 
Q 294 3491 894 4106 
Q 1491 4722 2444 4722 
Q 3391 4722 3994 4106 
Q 4594 3494 4594 2528 
Q 4594 1922 4372 1459 
Q 4150 997 3647 556 
L 4647 556 
z
" transform="scale(0.015625)"/>
       <path id="DejaVuSans-25" d="M 4653 2053 
Q 4381 2053 4226 1822 
Q 4072 1591 4072 1178 
Q 4072 772 4226 539 
Q 4381 306 4653 306 
Q 4919 306 5073 539 
Q 5228 772 5228 1178 
Q 5228 1588 5073 1820 
Q 4919 2053 4653 2053 
z
M 4653 2450 
Q 5147 2450 5437 2106 
Q 5728 1763 5728 1178 
Q 5728 594 5436 251 
Q 5144 -91 4653 -91 
Q 4153 -91 3862 251 
Q 3572 594 3572 1178 
Q 3572 1766 3864 2108 
Q 4156 2450 4653 2450 
z
M 1428 4353 
Q 1159 4353 1004 4120 
Q 850 3888 850 3481 
Q 850 3069 1003 2837 
Q 1156 2606 1428 2606 
Q 1700 2606 1854 2837 
Q 2009 3069 2009 3481 
Q 2009 3884 1853 4118 
Q 1697 4353 1428 4353 
z
M 4250 4750 
L 4750 4750 
L 1831 -91 
L 1331 -91 
L 4250 4750 
z
M 1428 4750 
Q 1922 4750 2215 4408 
Q 2509 4066 2509 3481 
Q 2509 2891 2217 2550 
Q 1925 2209 1428 2209 
Q 931 2209 642 2551 
Q 353 2894 353 3481 
Q 353 4063 643 4406 
Q 934 4750 1428 4750 
z
" transform="scale(0.015625)"/>
       <path id="DejaVuSans-52" d="M 2841 2188 
Q 3044 2119 3236 1894 
Q 3428 1669 3622 1275 
L 4263 0 
L 3584 0 
L 2988 1197 
Q 2756 1666 2539 1819 
Q 2322 1972 1947 1972 
L 1259 1972 
L 1259 0 
L 628 0 
L 628 4666 
L 2053 4666 
Q 2853 4666 3247 4331 
Q 3641 3997 3641 3322 
Q 3641 2881 3436 2590 
Q 3231 2300 2841 2188 
z
M 1259 4147 
L 1259 2491 
L 2053 2491 
Q 2509 2491 2742 2702 
Q 2975 2913 2975 3322 
Q 2975 3731 2742 3939 
Q 2509 4147 2053 4147 
L 1259 4147 
z
" transform="scale(0.015625)"/>
       <path id="DejaVuSans-50" d="M 1259 4147 
L 1259 2394 
L 2053 2394 
Q 2494 2394 2734 2622 
Q 2975 2850 2975 3272 
Q 2975 3691 2734 3919 
Q 2494 4147 2053 4147 
L 1259 4147 
z
M 628 4666 
L 2053 4666 
Q 2838 4666 3239 4311 
Q 3641 3956 3641 3272 
Q 3641 2581 3239 2228 
Q 2838 1875 2053 1875 
L 1259 1875 
L 1259 0 
L 628 0 
L 628 4666 
z
" transform="scale(0.015625)"/>
       <path id="DejaVuSans-4d" d="M 628 4666 
L 1569 4666 
L 2759 1491 
L 3956 4666 
L 4897 4666 
L 4897 0 
L 4281 0 
L 4281 4097 
L 3078 897 
L 2444 897 
L 1241 4097 
L 1241 0 
L 628 0 
L 628 4666 
z
" transform="scale(0.015625)"/>
      </defs>
      <use xlink:href="#DejaVuSans-Oblique-54" transform="translate(0 0.125)"/>
      <use xlink:href="#DejaVuSans-2f" transform="translate(61.083984 0.125)"/>
      <use xlink:href="#DejaVuSans-3a9" transform="translate(94.775391 0.125)"/>
      <use xlink:href="#DejaVuSans-20" transform="translate(171.191406 0.125)"/>
      <use xlink:href="#DejaVuSans-20" transform="translate(202.978516 0.125)"/>
      <use xlink:href="#DejaVuSans-28" transform="translate(234.765625 0.125)"/>
      <use xlink:href="#DejaVuSans-25" transform="translate(273.779297 0.125)"/>
      <use xlink:href="#DejaVuSans-20" transform="translate(368.798828 0.125)"/>
      <use xlink:href="#DejaVuSans-2f" transform="translate(400.585938 0.125)"/>
      <use xlink:href="#DejaVuSans-20" transform="translate(434.277344 0.125)"/>
      <use xlink:href="#DejaVuSans-52" transform="translate(466.064453 0.125)"/>
      <use xlink:href="#DejaVuSans-50" transform="translate(535.546875 0.125)"/>
      <use xlink:href="#DejaVuSans-4d" transform="translate(595.849609 0.125)"/>
      <use xlink:href="#DejaVuSans-29" transform="translate(682.128906 0.125)"/>
     </g>
    </g>
   </g>
   <g id="line2d_33">
    <path d="M 59.954039 35.353448 
L 65.922048 44.887056 
L 71.890057 54.002629 
L 77.858066 62.705687 
L 83.826076 70.99636 
L 89.794085 78.940818 
L 95.762094 86.545259 
L 101.730103 93.81991 
L 108.69278 101.95019 
L 115.655457 109.662305 
L 122.618134 117.033374 
L 128.586144 123.096604 
L 136.543489 130.843296 
L 143.506166 137.324474 
L 150.468843 143.537797 
L 157.431521 149.497556 
L 165.388866 156.01623 
L 173.346212 162.262129 
L 182.298225 168.96571 
L 191.250239 175.350095 
L 201.19692 182.100609 
L 210.148934 187.889104 
L 219.100948 193.42468 
L 229.047629 199.279788 
L 238.994311 204.886761 
L 247.946325 209.692712 
L 257.893007 214.829653 
L 266.84502 219.247972 
L 276.791702 223.958241 
L 287.733052 228.913789 
L 301.658406 234.889895 
L 312.599756 239.351857 
L 324.535775 244.001725 
L 338.461129 249.155551 
L 352.386483 254.041934 
L 357.359824 255.731529 
L 357.359824 255.731529 
" clip-path="url(#pa3d8dade5b)" style="fill: none; stroke: #1f77b4; stroke-width: 2; stroke-linecap: square"/>
   </g>
   <g id="line2d_34">
    <defs>
     <path id="m1322549763" d="M 0 2.5 
C 0.663008 2.5 1.29895 2.236584 1.767767 1.767767 
C 2.236584 1.29895 2.5 0.663008 2.5 0 
C 2.5 -0.663008 2.236584 -1.29895 1.767767 -1.767767 
C 1.29895 -2.236584 0.663008 -2.5 0 -2.5 
C -0.663008 -2.5 -1.29895 -2.236584 -1.767767 -1.767767 
C -2.236584 -1.29895 -2.5 -0.663008 -2.5 0 
C -2.5 0.663008 -2.236584 1.29895 -1.767767 1.767767 
C -1.29895 2.236584 -0.663008 2.5 0 2.5 
z
" style="stroke: #000000"/>
    </defs>
    <g clip-path="url(#pa3d8dade5b)">
     <use xlink:href="#m1322549763" x="59.954039" y="34.318579" style="fill: #ffffff; stroke: #000000"/>
     <use xlink:href="#m1322549763" x="77.448497" y="63.568975" style="fill: #ffffff; stroke: #000000"/>
     <use xlink:href="#m1322549763" x="94.942955" y="85.732388" style="fill: #ffffff; stroke: #000000"/>
     <use xlink:href="#m1322549763" x="112.437413" y="106.674823" style="fill: #ffffff; stroke: #000000"/>
     <use xlink:href="#m1322549763" x="129.931871" y="124.193209" style="fill: #ffffff; stroke: #000000"/>
     <use xlink:href="#m1322549763" x="147.426329" y="141.101106" style="fill: #ffffff; stroke: #000000"/>
     <use xlink:href="#m1322549763" x="164.920787" y="154.850385" style="fill: #ffffff; stroke: #000000"/>
     <use xlink:href="#m1322549763" x="182.415245" y="168.493491" style="fill: #ffffff; stroke: #000000"/>
     <use xlink:href="#m1322549763" x="199.909703" y="179.77427" style="fill: #ffffff; stroke: #000000"/>
     <use xlink:href="#m1322549763" x="217.404161" y="192.143313" style="fill: #ffffff; stroke: #000000"/>
     <use xlink:href="#m1322549763" x="234.898619" y="202.521629" style="fill: #ffffff; stroke: #000000"/>
     <use xlink:href="#m1322549763" x="252.393077" y="213.245005" style="fill: #ffffff; stroke: #000000"/>
     <use xlink:href="#m1322549763" x="269.887535" y="221.499881" style="fill: #ffffff; stroke: #000000"/>
     <use xlink:href="#m1322549763" x="287.381993" y="229.967101" style="fill: #ffffff; stroke: #000000"/>
     <use xlink:href="#m1322549763" x="304.876451" y="236.947913" style="fill: #ffffff; stroke: #000000"/>
     <use xlink:href="#m1322549763" x="322.370908" y="243.557122" style="fill: #ffffff; stroke: #000000"/>
     <use xlink:href="#m1322549763" x="339.865366" y="249.210783" style="fill: #ffffff; stroke: #000000"/>
     <use xlink:href="#m1322549763" x="357.359824" y="254.12124" style="fill: #ffffff; stroke: #000000"/>
    </g>
   </g>
   <g id="patch_3">
    <path d="M 45.08375 268.157969 
L 45.08375 23.077969 
" style="fill: none; stroke: #000000; stroke-width: 0.8; stroke-linejoin: miter; stroke-linecap: square"/>
   </g>
   <g id="patch_4">
    <path d="M 372.230114 268.157969 
L 372.230114 23.077969 
" style="fill: none; stroke: #000000; stroke-width: 0.8; stroke-linejoin: miter; stroke-linecap: square"/>
   </g>
   <g id="patch_5">
    <path d="M 45.08375 268.157969 
L 372.230114 268.157969 
" style="fill: none; stroke: #000000; stroke-width: 0.8; stroke-linejoin: miter; stroke-linecap: square"/>
   </g>
   <g id="patch_6">
    <path d="M 45.08375 23.077969 
L 372.230114 23.077969 
" style="fill: none; stroke: #000000; stroke-width: 0.8; stroke-linejoin: miter; stroke-linecap: square"/>
   </g>
   <g id="text_19">
    <!-- Rotational drag vs gap height — 12.5kcp -->
    <g transform="translate(75.756307 17.077969) scale(0.13 -0.13)">
     <defs>
      <path id="DejaVuSans-6f" d="M 1959 3097 
Q 1497 3097 1228 2736 
Q 959 2375 959 1747 
Q 959 1119 1226 758 
Q 1494 397 1959 397 
Q 2419 397 2687 759 
Q 2956 1122 2956 1747 
Q 2956 2369 2687 2733 
Q 2419 3097 1959 3097 
z
M 1959 3584 
Q 2709 3584 3137 3096 
Q 3566 2609 3566 1747 
Q 3566 888 3137 398 
Q 2709 -91 1959 -91 
Q 1206 -91 779 398 
Q 353 888 353 1747 
Q 353 2609 779 3096 
Q 1206 3584 1959 3584 
z
" transform="scale(0.015625)"/>
      <path id="DejaVuSans-6e" d="M 3513 2113 
L 3513 0 
L 2938 0 
L 2938 2094 
Q 2938 2591 2744 2837 
Q 2550 3084 2163 3084 
Q 1697 3084 1428 2787 
Q 1159 2491 1159 1978 
L 1159 0 
L 581 0 
L 581 3500 
L 1159 3500 
L 1159 2956 
Q 1366 3272 1645 3428 
Q 1925 3584 2291 3584 
Q 2894 3584 3203 3211 
Q 3513 2838 3513 2113 
z
" transform="scale(0.015625)"/>
      <path id="DejaVuSans-6c" d="M 603 4863 
L 1178 4863 
L 1178 0 
L 603 0 
L 603 4863 
z
" transform="scale(0.015625)"/>
      <path id="DejaVuSans-64" d="M 2906 2969 
L 2906 4863 
L 3481 4863 
L 3481 0 
L 2906 0 
L 2906 525 
Q 2725 213 2448 61 
Q 2172 -91 1784 -91 
Q 1150 -91 751 415 
Q 353 922 353 1747 
Q 353 2572 751 3078 
Q 1150 3584 1784 3584 
Q 2172 3584 2448 3432 
Q 2725 3281 2906 2969 
z
M 947 1747 
Q 947 1113 1208 752 
Q 1469 391 1925 391 
Q 2381 391 2643 752 
Q 2906 1113 2906 1747 
Q 2906 2381 2643 2742 
Q 2381 3103 1925 3103 
Q 1469 3103 1208 2742 
Q 947 2381 947 1747 
z
" transform="scale(0.015625)"/>
      <path id="DejaVuSans-72" d="M 2631 2963 
Q 2534 3019 2420 3045 
Q 2306 3072 2169 3072 
Q 1681 3072 1420 2755 
Q 1159 2438 1159 1844 
L 1159 0 
L 581 0 
L 581 3500 
L 1159 3500 
L 1159 2956 
Q 1341 3275 1631 3429 
Q 1922 3584 2338 3584 
Q 2397 3584 2469 3576 
Q 2541 3569 2628 3553 
L 2631 2963 
z
" transform="scale(0.015625)"/>
      <path id="DejaVuSans-76" d="M 191 3500 
L 800 3500 
L 1894 563 
L 2988 3500 
L 3597 3500 
L 2284 0 
L 1503 0 
L 191 3500 
z
" transform="scale(0.015625)"/>
      <path id="DejaVuSans-73" d="M 2834 3397 
L 2834 2853 
Q 2591 2978 2328 3040 
Q 2066 3103 1784 3103 
Q 1356 3103 1142 2972 
Q 928 2841 928 2578 
Q 928 2378 1081 2264 
Q 1234 2150 1697 2047 
L 1894 2003 
Q 2506 1872 2764 1633 
Q 3022 1394 3022 966 
Q 3022 478 2636 193 
Q 2250 -91 1575 -91 
Q 1294 -91 989 -36 
Q 684 19 347 128 
L 347 722 
Q 666 556 975 473 
Q 1284 391 1588 391 
Q 1994 391 2212 530 
Q 2431 669 2431 922 
Q 2431 1156 2273 1281 
Q 2116 1406 1581 1522 
L 1381 1569 
Q 847 1681 609 1914 
Q 372 2147 372 2553 
Q 372 3047 722 3315 
Q 1072 3584 1716 3584 
Q 2034 3584 2315 3537 
Q 2597 3491 2834 3397 
z
" transform="scale(0.015625)"/>
      <path id="DejaVuSans-2014" d="M 313 1978 
L 6088 1978 
L 6088 1528 
L 313 1528 
L 313 1978 
z
" transform="scale(0.015625)"/>
      <path id="DejaVuSans-6b" d="M 581 4863 
L 1159 4863 
L 1159 1991 
L 2875 3500 
L 3609 3500 
L 1753 1863 
L 3688 0 
L 2938 0 
L 1159 1709 
L 1159 0 
L 581 0 
L 581 4863 
z
" transform="scale(0.015625)"/>
      <path id="DejaVuSans-63" d="M 3122 3366 
L 3122 2828 
Q 2878 2963 2633 3030 
Q 2388 3097 2138 3097 
Q 1578 3097 1268 2742 
Q 959 2388 959 1747 
Q 959 1106 1268 751 
Q 1578 397 2138 397 
Q 2388 397 2633 464 
Q 2878 531 3122 666 
L 3122 134 
Q 2881 22 2623 -34 
Q 2366 -91 2075 -91 
Q 1284 -91 818 406 
Q 353 903 353 1747 
Q 353 2603 823 3093 
Q 1294 3584 2113 3584 
Q 2378 3584 2631 3529 
Q 2884 3475 3122 3366 
z
" transform="scale(0.015625)"/>
     </defs>
     <use xlink:href="#DejaVuSans-52"/>
     <use xlink:href="#DejaVuSans-6f" transform="translate(64.982422 0)"/>
     <use xlink:href="#DejaVuSans-74" transform="translate(126.164062 0)"/>
     <use xlink:href="#DejaVuSans-61" transform="translate(165.373047 0)"/>
     <use xlink:href="#DejaVuSans-74" transform="translate(226.652344 0)"/>
     <use xlink:href="#DejaVuSans-69" transform="translate(265.861328 0)"/>
     <use xlink:href="#DejaVuSans-6f" transform="translate(293.644531 0)"/>
     <use xlink:href="#DejaVuSans-6e" transform="translate(354.826172 0)"/>
     <use xlink:href="#DejaVuSans-61" transform="translate(418.205078 0)"/>
     <use xlink:href="#DejaVuSans-6c" transform="translate(479.484375 0)"/>
     <use xlink:href="#DejaVuSans-20" transform="translate(507.267578 0)"/>
     <use xlink:href="#DejaVuSans-64" transform="translate(539.054688 0)"/>
     <use xlink:href="#DejaVuSans-72" transform="translate(602.53125 0)"/>
     <use xlink:href="#DejaVuSans-61" transform="translate(643.644531 0)"/>
     <use xlink:href="#DejaVuSans-67" transform="translate(704.923828 0)"/>
     <use xlink:href="#DejaVuSans-20" transform="translate(768.400391 0)"/>
     <use xlink:href="#DejaVuSans-76" transform="translate(800.1875 0)"/>
     <use xlink:href="#DejaVuSans-73" transform="translate(859.367188 0)"/>
     <use xlink:href="#DejaVuSans-20" transform="translate(911.466797 0)"/>
     <use xlink:href="#DejaVuSans-67" transform="translate(943.253906 0)"/>
     <use xlink:href="#DejaVuSans-61" transform="translate(1006.730469 0)"/>
     <use xlink:href="#DejaVuSans-70" transform="translate(1068.009766 0)"/>
     <use xlink:href="#DejaVuSans-20" transform="translate(1131.486328 0)"/>
     <use xlink:href="#DejaVuSans-68" transform="translate(1163.273438 0)"/>
     <use xlink:href="#DejaVuSans-65" transform="translate(1226.652344 0)"/>
     <use xlink:href="#DejaVuSans-69" transform="translate(1288.175781 0)"/>
     <use xlink:href="#DejaVuSans-67" transform="translate(1315.958984 0)"/>
     <use xlink:href="#DejaVuSans-68" transform="translate(1379.435547 0)"/>
     <use xlink:href="#DejaVuSans-74" transform="translate(1442.814453 0)"/>
     <use xlink:href="#DejaVuSans-20" transform="translate(1482.023438 0)"/>
     <use xlink:href="#DejaVuSans-2014" transform="translate(1513.810547 0)"/>
     <use xlink:href="#DejaVuSans-20" transform="translate(1613.810547 0)"/>
     <use xlink:href="#DejaVuSans-31" transform="translate(1645.597656 0)"/>
     <use xlink:href="#DejaVuSans-32" transform="translate(1709.220703 0)"/>
     <use xlink:href="#DejaVuSans-2e" transform="translate(1772.84375 0)"/>
     <use xlink:href="#DejaVuSans-35" transform="translate(1804.630859 0)"/>
     <use xlink:href="#DejaVuSans-6b" transform="translate(1868.253906 0)"/>
     <use xlink:href="#DejaVuSans-63" transform="translate(1926.164062 0)"/>
     <use xlink:href="#DejaVuSans-70" transform="translate(1981.144531 0)"/>
    </g>
   </g>
   <g id="legend_1">
    <g id="patch_7">
     <path d="M 232.950426 39.676406 
L 252.950426 39.676406 
L 252.950426 32.676406 
L 232.950426 32.676406 
z
" style="fill: #1f77b4; fill-opacity: 0.2; stroke: #1f77b4; stroke-opacity: 0.2; stroke-linejoin: miter"/>
    </g>
    <g id="text_20">
     <!-- 95 % CI -->
     <g transform="translate(260.950426 39.676406) scale(0.1 -0.1)">
      <defs>
       <path id="DejaVuSans-39" d="M 703 97 
L 703 672 
Q 941 559 1184 500 
Q 1428 441 1663 441 
Q 2288 441 2617 861 
Q 2947 1281 2994 2138 
Q 2813 1869 2534 1725 
Q 2256 1581 1919 1581 
Q 1219 1581 811 2004 
Q 403 2428 403 3163 
Q 403 3881 828 4315 
Q 1253 4750 1959 4750 
Q 2769 4750 3195 4129 
Q 3622 3509 3622 2328 
Q 3622 1225 3098 567 
Q 2575 -91 1691 -91 
Q 1453 -91 1209 -44 
Q 966 3 703 97 
z
M 1959 2075 
Q 2384 2075 2632 2365 
Q 2881 2656 2881 3163 
Q 2881 3666 2632 3958 
Q 2384 4250 1959 4250 
Q 1534 4250 1286 3958 
Q 1038 3666 1038 3163 
Q 1038 2656 1286 2365 
Q 1534 2075 1959 2075 
z
" transform="scale(0.015625)"/>
       <path id="DejaVuSans-43" d="M 4122 4306 
L 4122 3641 
Q 3803 3938 3442 4084 
Q 3081 4231 2675 4231 
Q 1875 4231 1450 3742 
Q 1025 3253 1025 2328 
Q 1025 1406 1450 917 
Q 1875 428 2675 428 
Q 3081 428 3442 575 
Q 3803 722 4122 1019 
L 4122 359 
Q 3791 134 3420 21 
Q 3050 -91 2638 -91 
Q 1578 -91 968 557 
Q 359 1206 359 2328 
Q 359 3453 968 4101 
Q 1578 4750 2638 4750 
Q 3056 4750 3426 4639 
Q 3797 4528 4122 4306 
z
" transform="scale(0.015625)"/>
       <path id="DejaVuSans-49" d="M 628 4666 
L 1259 4666 
L 1259 0 
L 628 0 
L 628 4666 
z
" transform="scale(0.015625)"/>
      </defs>
      <use xlink:href="#DejaVuSans-39"/>
      <use xlink:href="#DejaVuSans-35" transform="translate(63.623047 0)"/>
      <use xlink:href="#DejaVuSans-20" transform="translate(127.246094 0)"/>
      <use xlink:href="#DejaVuSans-25" transform="translate(159.033203 0)"/>
      <use xlink:href="#DejaVuSans-20" transform="translate(254.052734 0)"/>
      <use xlink:href="#DejaVuSans-43" transform="translate(285.839844 0)"/>
      <use xlink:href="#DejaVuSans-49" transform="translate(355.664062 0)"/>
     </g>
    </g>
    <g id="line2d_35">
     <path d="M 232.950426 50.854531 
L 242.950426 50.854531 
L 252.950426 50.854531 
" style="fill: none; stroke: #1f77b4; stroke-width: 2; stroke-linecap: square"/>
    </g>
    <g id="text_21">
     <!-- best fit (regularized) -->
     <g transform="translate(260.950426 54.354531) scale(0.1 -0.1)">
      <defs>
       <path id="DejaVuSans-62" d="M 3116 1747 
Q 3116 2381 2855 2742 
Q 2594 3103 2138 3103 
Q 1681 3103 1420 2742 
Q 1159 2381 1159 1747 
Q 1159 1113 1420 752 
Q 1681 391 2138 391 
Q 2594 391 2855 752 
Q 3116 1113 3116 1747 
z
M 1159 2969 
Q 1341 3281 1617 3432 
Q 1894 3584 2278 3584 
Q 2916 3584 3314 3078 
Q 3713 2572 3713 1747 
Q 3713 922 3314 415 
Q 2916 -91 2278 -91 
Q 1894 -91 1617 61 
Q 1341 213 1159 525 
L 1159 0 
L 581 0 
L 581 4863 
L 1159 4863 
L 1159 2969 
z
" transform="scale(0.015625)"/>
       <path id="DejaVuSans-66" d="M 2375 4863 
L 2375 4384 
L 1825 4384 
Q 1516 4384 1395 4259 
Q 1275 4134 1275 3809 
L 1275 3500 
L 2222 3500 
L 2222 3053 
L 1275 3053 
L 1275 0 
L 697 0 
L 697 3053 
L 147 3053 
L 147 3500 
L 697 3500 
L 697 3744 
Q 697 4328 969 4595 
Q 1241 4863 1831 4863 
L 2375 4863 
z
" transform="scale(0.015625)"/>
       <path id="DejaVuSans-75" d="M 544 1381 
L 544 3500 
L 1119 3500 
L 1119 1403 
Q 1119 906 1312 657 
Q 1506 409 1894 409 
Q 2359 409 2629 706 
Q 2900 1003 2900 1516 
L 2900 3500 
L 3475 3500 
L 3475 0 
L 2900 0 
L 2900 538 
Q 2691 219 2414 64 
Q 2138 -91 1772 -91 
Q 1169 -91 856 284 
Q 544 659 544 1381 
z
M 1991 3584 
L 1991 3584 
z
" transform="scale(0.015625)"/>
       <path id="DejaVuSans-7a" d="M 353 3500 
L 3084 3500 
L 3084 2975 
L 922 459 
L 3084 459 
L 3084 0 
L 275 0 
L 275 525 
L 2438 3041 
L 353 3041 
L 353 3500 
z
" transform="scale(0.015625)"/>
      </defs>
      <use xlink:href="#DejaVuSans-62"/>
      <use xlink:href="#DejaVuSans-65" transform="translate(63.476562 0)"/>
      <use xlink:href="#DejaVuSans-73" transform="translate(125 0)"/>
      <use xlink:href="#DejaVuSans-74" transform="translate(177.099609 0)"/>
      <use xlink:href="#DejaVuSans-20" transform="translate(216.308594 0)"/>
      <use xlink:href="#DejaVuSans-66" transform="translate(248.095703 0)"/>
      <use xlink:href="#DejaVuSans-69" transform="translate(283.300781 0)"/>
      <use xlink:href="#DejaVuSans-74" transform="translate(311.083984 0)"/>
      <use xlink:href="#DejaVuSans-20" transform="translate(350.292969 0)"/>
      <use xlink:href="#DejaVuSans-28" transform="translate(382.080078 0)"/>
      <use xlink:href="#DejaVuSans-72" transform="translate(421.09375 0)"/>
      <use xlink:href="#DejaVuSans-65" transform="translate(459.957031 0)"/>
      <use xlink:href="#DejaVuSans-67" transform="translate(521.480469 0)"/>
      <use xlink:href="#DejaVuSans-75" transform="translate(584.957031 0)"/>
      <use xlink:href="#DejaVuSans-6c" transform="translate(648.335938 0)"/>
      <use xlink:href="#DejaVuSans-61" transform="translate(676.119141 0)"/>
      <use xlink:href="#DejaVuSans-72" transform="translate(737.398438 0)"/>
      <use xlink:href="#DejaVuSans-69" transform="translate(778.511719 0)"/>
      <use xlink:href="#DejaVuSans-7a" transform="translate(806.294922 0)"/>
      <use xlink:href="#DejaVuSans-65" transform="translate(858.785156 0)"/>
      <use xlink:href="#DejaVuSans-64" transform="translate(920.308594 0)"/>
      <use xlink:href="#DejaVuSans-29" transform="translate(983.785156 0)"/>
     </g>
    </g>
    <g id="line2d_36">
     <g>
      <use xlink:href="#m1322549763" x="242.950426" y="65.532656" style="fill: #ffffff; stroke: #000000"/>
     </g>
    </g>
    <g id="text_22">
     <!-- data -->
     <g transform="translate(260.950426 69.032656) scale(0.1 -0.1)">
      <use xlink:href="#DejaVuSans-64"/>
      <use xlink:href="#DejaVuSans-61" transform="translate(63.476562 0)"/>
      <use xlink:href="#DejaVuSans-74" transform="translate(124.755859 0)"/>
      <use xlink:href="#DejaVuSans-61" transform="translate(163.964844 0)"/>
     </g>
    </g>
   </g>
  </g>
  <g id="axes_2">
   <g id="patch_8">
    <path d="M 444.708295 268.157969 
L 771.854659 268.157969 
L 771.854659 23.077969 
L 444.708295 23.077969 
z
" style="fill: #ffffff"/>
   </g>
   <g id="PathCollection_1">
    <defs>
     <path id="m3f23d491ef" d="M 0 3 
C 0.795609 3 1.55874 2.683901 2.12132 2.12132 
C 2.683901 1.55874 3 0.795609 3 0 
C 3 -0.795609 2.683901 -1.55874 2.12132 -2.12132 
C 1.55874 -2.683901 0.795609 -3 0 -3 
C -0.795609 -3 -1.55874 -2.683901 -2.12132 -2.12132 
C -2.683901 -1.55874 -3 -0.795609 -3 0 
C -3 0.795609 -2.683901 1.55874 -2.12132 2.12132 
C -1.55874 2.683901 -0.795609 3 0 3 
z
" style="stroke: #000000"/>
    </defs>
    <g clip-path="url(#p9453844a03)">
     <use xlink:href="#m3f23d491ef" x="459.578585" y="70.149151" style="fill: #1f77b4; stroke: #000000"/>
     <use xlink:href="#m3f23d491ef" x="477.073043" y="257.017969" style="fill: #1f77b4; stroke: #000000"/>
     <use xlink:href="#m3f23d491ef" x="494.567501" y="167.902216" style="fill: #1f77b4; stroke: #000000"/>
     <use xlink:href="#m3f23d491ef" x="512.061959" y="189.767555" style="fill: #1f77b4; stroke: #000000"/>
     <use xlink:href="#m3f23d491ef" x="529.556417" y="128.02004" style="fill: #1f77b4; stroke: #000000"/>
     <use xlink:href="#m3f23d491ef" x="547.050874" y="162.458418" style="fill: #1f77b4; stroke: #000000"/>
     <use xlink:href="#m3f23d491ef" x="564.545332" y="85.411418" style="fill: #1f77b4; stroke: #000000"/>
     <use xlink:href="#m3f23d491ef" x="582.03979" y="103.396339" style="fill: #1f77b4; stroke: #000000"/>
     <use xlink:href="#m3f23d491ef" x="599.534248" y="37.204989" style="fill: #1f77b4; stroke: #000000"/>
     <use xlink:href="#m3f23d491ef" x="617.028706" y="128.022065" style="fill: #1f77b4; stroke: #000000"/>
     <use xlink:href="#m3f23d491ef" x="634.523164" y="140.709083" style="fill: #1f77b4; stroke: #000000"/>
     <use xlink:href="#m3f23d491ef" x="652.017622" y="238.251684" style="fill: #1f77b4; stroke: #000000"/>
     <use xlink:href="#m3f23d491ef" x="669.51208" y="207.727543" style="fill: #1f77b4; stroke: #000000"/>
     <use xlink:href="#m3f23d491ef" x="687.006538" y="239.647517" style="fill: #1f77b4; stroke: #000000"/>
     <use xlink:href="#m3f23d491ef" x="704.500996" y="204.583285" style="fill: #1f77b4; stroke: #000000"/>
     <use xlink:href="#m3f23d491ef" x="721.995454" y="179.866089" style="fill: #1f77b4; stroke: #000000"/>
     <use xlink:href="#m3f23d491ef" x="739.489912" y="118.981289" style="fill: #1f77b4; stroke: #000000"/>
     <use xlink:href="#m3f23d491ef" x="756.98437" y="34.217969" style="fill: #1f77b4; stroke: #000000"/>
    </g>
   </g>
   <g id="matplotlib.axis_3">
    <g id="xtick_8">
     <g id="line2d_37">
      <path d="M 485.820272 268.157969 
L 485.820272 23.077969 
" clip-path="url(#p9453844a03)" style="fill: none; stroke: #b0b0b0; stroke-opacity: 0.3; stroke-width: 0.8; stroke-linecap: square"/>
     </g>
     <g id="line2d_38">
      <g>
       <use xlink:href="#me34601792e" x="485.820272" y="268.157969" style="stroke: #000000; stroke-width: 0.8"/>
      </g>
     </g>
     <g id="text_23">
      <!-- 0.05 -->
      <g transform="translate(472.460897 284.276094) scale(0.12 -0.12)">
       <use xlink:href="#DejaVuSans-30"/>
       <use xlink:href="#DejaVuSans-2e" transform="translate(63.623047 0)"/>
       <use xlink:href="#DejaVuSans-30" transform="translate(95.410156 0)"/>
       <use xlink:href="#DejaVuSans-35" transform="translate(159.033203 0)"/>
      </g>
     </g>
    </g>
    <g id="xtick_9">
     <g id="line2d_39">
      <path d="M 529.556417 268.157969 
L 529.556417 23.077969 
" clip-path="url(#p9453844a03)" style="fill: none; stroke: #b0b0b0; stroke-opacity: 0.3; stroke-width: 0.8; stroke-linecap: square"/>
     </g>
     <g id="line2d_40">
      <g>
       <use xlink:href="#me34601792e" x="529.556417" y="268.157969" style="stroke: #000000; stroke-width: 0.8"/>
      </g>
     </g>
     <g id="text_24">
      <!-- 0.10 -->
      <g transform="translate(516.197042 284.276094) scale(0.12 -0.12)">
       <use xlink:href="#DejaVuSans-30"/>
       <use xlink:href="#DejaVuSans-2e" transform="translate(63.623047 0)"/>
       <use xlink:href="#DejaVuSans-31" transform="translate(95.410156 0)"/>
       <use xlink:href="#DejaVuSans-30" transform="translate(159.033203 0)"/>
      </g>
     </g>
    </g>
    <g id="xtick_10">
     <g id="line2d_41">
      <path d="M 573.292561 268.157969 
L 573.292561 23.077969 
" clip-path="url(#p9453844a03)" style="fill: none; stroke: #b0b0b0; stroke-opacity: 0.3; stroke-width: 0.8; stroke-linecap: square"/>
     </g>
     <g id="line2d_42">
      <g>
       <use xlink:href="#me34601792e" x="573.292561" y="268.157969" style="stroke: #000000; stroke-width: 0.8"/>
      </g>
     </g>
     <g id="text_25">
      <!-- 0.15 -->
      <g transform="translate(559.933186 284.276094) scale(0.12 -0.12)">
       <use xlink:href="#DejaVuSans-30"/>
       <use xlink:href="#DejaVuSans-2e" transform="translate(63.623047 0)"/>
       <use xlink:href="#DejaVuSans-31" transform="translate(95.410156 0)"/>
       <use xlink:href="#DejaVuSans-35" transform="translate(159.033203 0)"/>
      </g>
     </g>
    </g>
    <g id="xtick_11">
     <g id="line2d_43">
      <path d="M 617.028706 268.157969 
L 617.028706 23.077969 
" clip-path="url(#p9453844a03)" style="fill: none; stroke: #b0b0b0; stroke-opacity: 0.3; stroke-width: 0.8; stroke-linecap: square"/>
     </g>
     <g id="line2d_44">
      <g>
       <use xlink:href="#me34601792e" x="617.028706" y="268.157969" style="stroke: #000000; stroke-width: 0.8"/>
      </g>
     </g>
     <g id="text_26">
      <!-- 0.20 -->
      <g transform="translate(603.669331 284.276094) scale(0.12 -0.12)">
       <use xlink:href="#DejaVuSans-30"/>
       <use xlink:href="#DejaVuSans-2e" transform="translate(63.623047 0)"/>
       <use xlink:href="#DejaVuSans-32" transform="translate(95.410156 0)"/>
       <use xlink:href="#DejaVuSans-30" transform="translate(159.033203 0)"/>
      </g>
     </g>
    </g>
    <g id="xtick_12">
     <g id="line2d_45">
      <path d="M 660.764851 268.157969 
L 660.764851 23.077969 
" clip-path="url(#p9453844a03)" style="fill: none; stroke: #b0b0b0; stroke-opacity: 0.3; stroke-width: 0.8; stroke-linecap: square"/>
     </g>
     <g id="line2d_46">
      <g>
       <use xlink:href="#me34601792e" x="660.764851" y="268.157969" style="stroke: #000000; stroke-width: 0.8"/>
      </g>
     </g>
     <g id="text_27">
      <!-- 0.25 -->
      <g transform="translate(647.405476 284.276094) scale(0.12 -0.12)">
       <use xlink:href="#DejaVuSans-30"/>
       <use xlink:href="#DejaVuSans-2e" transform="translate(63.623047 0)"/>
       <use xlink:href="#DejaVuSans-32" transform="translate(95.410156 0)"/>
       <use xlink:href="#DejaVuSans-35" transform="translate(159.033203 0)"/>
      </g>
     </g>
    </g>
    <g id="xtick_13">
     <g id="line2d_47">
      <path d="M 704.500996 268.157969 
L 704.500996 23.077969 
" clip-path="url(#p9453844a03)" style="fill: none; stroke: #b0b0b0; stroke-opacity: 0.3; stroke-width: 0.8; stroke-linecap: square"/>
     </g>
     <g id="line2d_48">
      <g>
       <use xlink:href="#me34601792e" x="704.500996" y="268.157969" style="stroke: #000000; stroke-width: 0.8"/>
      </g>
     </g>
     <g id="text_28">
      <!-- 0.30 -->
      <g transform="translate(691.141621 284.276094) scale(0.12 -0.12)">
       <use xlink:href="#DejaVuSans-30"/>
       <use xlink:href="#DejaVuSans-2e" transform="translate(63.623047 0)"/>
       <use xlink:href="#DejaVuSans-33" transform="translate(95.410156 0)"/>
       <use xlink:href="#DejaVuSans-30" transform="translate(159.033203 0)"/>
      </g>
     </g>
    </g>
    <g id="xtick_14">
     <g id="line2d_49">
      <path d="M 748.237141 268.157969 
L 748.237141 23.077969 
" clip-path="url(#p9453844a03)" style="fill: none; stroke: #b0b0b0; stroke-opacity: 0.3; stroke-width: 0.8; stroke-linecap: square"/>
     </g>
     <g id="line2d_50">
      <g>
       <use xlink:href="#me34601792e" x="748.237141" y="268.157969" style="stroke: #000000; stroke-width: 0.8"/>
      </g>
     </g>
     <g id="text_29">
      <!-- 0.35 -->
      <g transform="translate(734.877766 284.276094) scale(0.12 -0.12)">
       <use xlink:href="#DejaVuSans-30"/>
       <use xlink:href="#DejaVuSans-2e" transform="translate(63.623047 0)"/>
       <use xlink:href="#DejaVuSans-33" transform="translate(95.410156 0)"/>
       <use xlink:href="#DejaVuSans-35" transform="translate(159.033203 0)"/>
      </g>
     </g>
    </g>
    <g id="text_30">
     <!-- Gap height $h$ (mm) -->
     <g transform="translate(551.101477 299.891719) scale(0.12 -0.12)">
      <use xlink:href="#DejaVuSans-47" transform="translate(0 0.015625)"/>
      <use xlink:href="#DejaVuSans-61" transform="translate(77.490234 0.015625)"/>
      <use xlink:href="#DejaVuSans-70" transform="translate(138.769531 0.015625)"/>
      <use xlink:href="#DejaVuSans-20" transform="translate(202.246094 0.015625)"/>
      <use xlink:href="#DejaVuSans-68" transform="translate(234.033203 0.015625)"/>
      <use xlink:href="#DejaVuSans-65" transform="translate(297.412109 0.015625)"/>
      <use xlink:href="#DejaVuSans-69" transform="translate(358.935547 0.015625)"/>
      <use xlink:href="#DejaVuSans-67" transform="translate(386.71875 0.015625)"/>
      <use xlink:href="#DejaVuSans-68" transform="translate(450.195312 0.015625)"/>
      <use xlink:href="#DejaVuSans-74" transform="translate(513.574219 0.015625)"/>
      <use xlink:href="#DejaVuSans-20" transform="translate(552.783203 0.015625)"/>
      <use xlink:href="#DejaVuSans-Oblique-68" transform="translate(584.570312 0.015625)"/>
      <use xlink:href="#DejaVuSans-20" transform="translate(647.949219 0.015625)"/>
      <use xlink:href="#DejaVuSans-28" transform="translate(679.736328 0.015625)"/>
      <use xlink:href="#DejaVuSans-6d" transform="translate(718.75 0.015625)"/>
      <use xlink:href="#DejaVuSans-6d" transform="translate(816.162109 0.015625)"/>
      <use xlink:href="#DejaVuSans-29" transform="translate(913.574219 0.015625)"/>
     </g>
    </g>
   </g>
   <g id="matplotlib.axis_4">
    <g id="ytick_10">
     <g id="line2d_51">
      <path d="M 444.708295 231.280423 
L 771.854659 231.280423 
" clip-path="url(#p9453844a03)" style="fill: none; stroke: #b0b0b0; stroke-opacity: 0.3; stroke-width: 0.8; stroke-linecap: square"/>
     </g>
     <g id="line2d_52">
      <g>
       <use xlink:href="#m2348155463" x="444.708295" y="231.280423" style="stroke: #000000; stroke-width: 0.8"/>
      </g>
     </g>
     <g id="text_31">
      <!-- −0.04 -->
      <g transform="translate(400.93392 235.839485) scale(0.12 -0.12)">
       <defs>
        <path id="DejaVuSans-2212" d="M 678 2272 
L 4684 2272 
L 4684 1741 
L 678 1741 
L 678 2272 
z
" transform="scale(0.015625)"/>
       </defs>
       <use xlink:href="#DejaVuSans-2212"/>
       <use xlink:href="#DejaVuSans-30" transform="translate(83.789062 0)"/>
       <use xlink:href="#DejaVuSans-2e" transform="translate(147.412109 0)"/>
       <use xlink:href="#DejaVuSans-30" transform="translate(179.199219 0)"/>
       <use xlink:href="#DejaVuSans-34" transform="translate(242.822266 0)"/>
      </g>
     </g>
    </g>
    <g id="ytick_11">
     <g id="line2d_53">
      <path d="M 444.708295 190.455062 
L 771.854659 190.455062 
" clip-path="url(#p9453844a03)" style="fill: none; stroke: #b0b0b0; stroke-opacity: 0.3; stroke-width: 0.8; stroke-linecap: square"/>
     </g>
     <g id="line2d_54">
      <g>
       <use xlink:href="#m2348155463" x="444.708295" y="190.455062" style="stroke: #000000; stroke-width: 0.8"/>
      </g>
     </g>
     <g id="text_32">
      <!-- −0.02 -->
      <g transform="translate(400.93392 195.014124) scale(0.12 -0.12)">
       <use xlink:href="#DejaVuSans-2212"/>
       <use xlink:href="#DejaVuSans-30" transform="translate(83.789062 0)"/>
       <use xlink:href="#DejaVuSans-2e" transform="translate(147.412109 0)"/>
       <use xlink:href="#DejaVuSans-30" transform="translate(179.199219 0)"/>
       <use xlink:href="#DejaVuSans-32" transform="translate(242.822266 0)"/>
      </g>
     </g>
    </g>
    <g id="ytick_12">
     <g id="line2d_55">
      <path d="M 444.708295 149.629701 
L 771.854659 149.629701 
" clip-path="url(#p9453844a03)" style="fill: none; stroke: #b0b0b0; stroke-opacity: 0.3; stroke-width: 0.8; stroke-linecap: square"/>
     </g>
     <g id="line2d_56">
      <g>
       <use xlink:href="#m2348155463" x="444.708295" y="149.629701" style="stroke: #000000; stroke-width: 0.8"/>
      </g>
     </g>
     <g id="text_33">
      <!-- 0.00 -->
      <g transform="translate(410.989545 154.188764) scale(0.12 -0.12)">
       <use xlink:href="#DejaVuSans-30"/>
       <use xlink:href="#DejaVuSans-2e" transform="translate(63.623047 0)"/>
       <use xlink:href="#DejaVuSans-30" transform="translate(95.410156 0)"/>
       <use xlink:href="#DejaVuSans-30" transform="translate(159.033203 0)"/>
      </g>
     </g>
    </g>
    <g id="ytick_13">
     <g id="line2d_57">
      <path d="M 444.708295 108.80434 
L 771.854659 108.80434 
" clip-path="url(#p9453844a03)" style="fill: none; stroke: #b0b0b0; stroke-opacity: 0.3; stroke-width: 0.8; stroke-linecap: square"/>
     </g>
     <g id="line2d_58">
      <g>
       <use xlink:href="#m2348155463" x="444.708295" y="108.80434" style="stroke: #000000; stroke-width: 0.8"/>
      </g>
     </g>
     <g id="text_34">
      <!-- 0.02 -->
      <g transform="translate(410.989545 113.363403) scale(0.12 -0.12)">
       <use xlink:href="#DejaVuSans-30"/>
       <use xlink:href="#DejaVuSans-2e" transform="translate(63.623047 0)"/>
       <use xlink:href="#DejaVuSans-30" transform="translate(95.410156 0)"/>
       <use xlink:href="#DejaVuSans-32" transform="translate(159.033203 0)"/>
      </g>
     </g>
    </g>
    <g id="ytick_14">
     <g id="line2d_59">
      <path d="M 444.708295 67.97898 
L 771.854659 67.97898 
" clip-path="url(#p9453844a03)" style="fill: none; stroke: #b0b0b0; stroke-opacity: 0.3; stroke-width: 0.8; stroke-linecap: square"/>
     </g>
     <g id="line2d_60">
      <g>
       <use xlink:href="#m2348155463" x="444.708295" y="67.97898" style="stroke: #000000; stroke-width: 0.8"/>
      </g>
     </g>
     <g id="text_35">
      <!-- 0.04 -->
      <g transform="translate(410.989545 72.538042) scale(0.12 -0.12)">
       <use xlink:href="#DejaVuSans-30"/>
       <use xlink:href="#DejaVuSans-2e" transform="translate(63.623047 0)"/>
       <use xlink:href="#DejaVuSans-30" transform="translate(95.410156 0)"/>
       <use xlink:href="#DejaVuSans-34" transform="translate(159.033203 0)"/>
      </g>
     </g>
    </g>
    <g id="ytick_15">
     <g id="line2d_61">
      <path d="M 444.708295 27.153619 
L 771.854659 27.153619 
" clip-path="url(#p9453844a03)" style="fill: none; stroke: #b0b0b0; stroke-opacity: 0.3; stroke-width: 0.8; stroke-linecap: square"/>
     </g>
     <g id="line2d_62">
      <g>
       <use xlink:href="#m2348155463" x="444.708295" y="27.153619" style="stroke: #000000; stroke-width: 0.8"/>
      </g>
     </g>
     <g id="text_36">
      <!-- 0.06 -->
      <g transform="translate(410.989545 31.712681) scale(0.12 -0.12)">
       <use xlink:href="#DejaVuSans-30"/>
       <use xlink:href="#DejaVuSans-2e" transform="translate(63.623047 0)"/>
       <use xlink:href="#DejaVuSans-30" transform="translate(95.410156 0)"/>
       <use xlink:href="#DejaVuSans-36" transform="translate(159.033203 0)"/>
      </g>
     </g>
    </g>
    <g id="text_37">
     <!-- Residual -->
     <g transform="translate(394.438295 170.956719) rotate(-90) scale(0.12 -0.12)">
      <use xlink:href="#DejaVuSans-52"/>
      <use xlink:href="#DejaVuSans-65" transform="translate(64.982422 0)"/>
      <use xlink:href="#DejaVuSans-73" transform="translate(126.505859 0)"/>
      <use xlink:href="#DejaVuSans-69" transform="translate(178.605469 0)"/>
      <use xlink:href="#DejaVuSans-64" transform="translate(206.388672 0)"/>
      <use xlink:href="#DejaVuSans-75" transform="translate(269.865234 0)"/>
      <use xlink:href="#DejaVuSans-61" transform="translate(333.244141 0)"/>
      <use xlink:href="#DejaVuSans-6c" transform="translate(394.523438 0)"/>
     </g>
    </g>
   </g>
   <g id="line2d_63">
    <path d="M 444.708295 149.629701 
L 771.854659 149.629701 
" clip-path="url(#p9453844a03)" style="fill: none; stroke: #000000; stroke-width: 0.8; stroke-linecap: square"/>
   </g>
   <g id="patch_9">
    <path d="M 444.708295 268.157969 
L 444.708295 23.077969 
" style="fill: none; stroke: #000000; stroke-width: 0.8; stroke-linejoin: miter; stroke-linecap: square"/>
   </g>
   <g id="patch_10">
    <path d="M 771.854659 268.157969 
L 771.854659 23.077969 
" style="fill: none; stroke: #000000; stroke-width: 0.8; stroke-linejoin: miter; stroke-linecap: square"/>
   </g>
   <g id="patch_11">
    <path d="M 444.708295 268.157969 
L 771.854659 268.157969 
" style="fill: none; stroke: #000000; stroke-width: 0.8; stroke-linejoin: miter; stroke-linecap: square"/>
   </g>
   <g id="patch_12">
    <path d="M 444.708295 23.077969 
L 771.854659 23.077969 
" style="fill: none; stroke: #000000; stroke-width: 0.8; stroke-linejoin: miter; stroke-linecap: square"/>
   </g>
   <g id="text_38">
    <!-- Residual diagnostics -->
    <g transform="translate(541.926634 17.077969) scale(0.13 -0.13)">
     <use xlink:href="#DejaVuSans-52"/>
     <use xlink:href="#DejaVuSans-65" transform="translate(64.982422 0)"/>
     <use xlink:href="#DejaVuSans-73" transform="translate(126.505859 0)"/>
     <use xlink:href="#DejaVuSans-69" transform="translate(178.605469 0)"/>
     <use xlink:href="#DejaVuSans-64" transform="translate(206.388672 0)"/>
     <use xlink:href="#DejaVuSans-75" transform="translate(269.865234 0)"/>
     <use xlink:href="#DejaVuSans-61" transform="translate(333.244141 0)"/>
     <use xlink:href="#DejaVuSans-6c" transform="translate(394.523438 0)"/>
     <use xlink:href="#DejaVuSans-20" transform="translate(422.306641 0)"/>
     <use xlink:href="#DejaVuSans-64" transform="translate(454.09375 0)"/>
     <use xlink:href="#DejaVuSans-69" transform="translate(517.570312 0)"/>
     <use xlink:href="#DejaVuSans-61" transform="translate(545.353516 0)"/>
     <use xlink:href="#DejaVuSans-67" transform="translate(606.632812 0)"/>
     <use xlink:href="#DejaVuSans-6e" transform="translate(670.109375 0)"/>
     <use xlink:href="#DejaVuSans-6f" transform="translate(733.488281 0)"/>
     <use xlink:href="#DejaVuSans-73" transform="translate(794.669922 0)"/>
     <use xlink:href="#DejaVuSans-74" transform="translate(846.769531 0)"/>
     <use xlink:href="#DejaVuSans-69" transform="translate(885.978516 0)"/>
     <use xlink:href="#DejaVuSans-63" transform="translate(913.761719 0)"/>
     <use xlink:href="#DejaVuSans-73" transform="translate(968.742188 0)"/>
    </g>
   </g>
  </g>
 </g>
 <defs>
  <clipPath id="pa3d8dade5b">
   <rect x="45.08375" y="23.077969" width="327.146364" height="245.08"/>
  </clipPath>
  <clipPath id="p9453844a03">
   <rect x="444.708295" y="23.077969" width="327.146364" height="245.08"/>
  </clipPath>
 </defs>
</svg>
