<?xml version="1.0" encoding="utf-8" standalone="no"?>
<!DOCTYPE svg PUBLIC "-//W3C//DTD SVG 1.1//EN"
  "http://www.w3.org/Graphics/SVG/1.1/DTD/svg11.dtd">
<svg xmlns:xlink="http://www.w3.org/1999/xlink" width="779.080568pt" height="309.611719pt" viewBox="0 0 779.080568 309.611719" xmlns="http://www.w3.org/2000/svg" version="1.1">
 <metadata>
  <rdf:RDF xmlns:dc="http://purl.org/dc/elements/1.1/" xmlns:cc="http://creativecommons.org/ns#" xmlns:rdf="http://www.w3.org/1999/02/22-rdf-syntax-ns#">
   <cc:Work>
    <dc:type rdf:resource="http://purl.org/dc/dcmitype/StillImage"/>
    <dc:date>2026-05-30T13:28:11.845384</dc:date>
    <dc:format>image/svg+xml</dc:format>
    <dc:creator>
     <cc:Agent>
      <dc:title>Matplotlib v3.10.0, https://matplotlib.org/</dc:title>
     </cc:Agent>
    </dc:creator>
   </cc:Work>
  </rdf:RDF>
 </metadata>
 <defs>
  <style type="text/css">*{stroke-linejoin: round; stroke-linecap: butt}</style>
 </defs>
 <g id="figure_1">
  <g id="patch_1">
   <path d="M 0 309.611719 
L 779.080568 309.611719 
L 779.080568 0 
L 0 0 
z
" style="fill: #ffffff"/>
  </g>
  <g id="axes_1">
   <g id="patch_2">
    <path d="M 52.71875 268.157969 
L 379.865114 268.157969 
L 379.865114 23.077969 
L 52.71875 23.077969 
z
" style="fill: #ffffff"/>
   </g>
   <g id="FillBetweenPolyCollection_1">
    <defs>
     <path id="m187fa8d326" d="M 67.589039 -275.39375 
L 67.589039 -271.315485 
L 68.583707 -269.842981 
L 69.578376 -268.380769 
L 70.573044 -266.928451 
L 71.567712 -265.485927 
L 72.56238 -264.053098 
L 73.557048 -262.630335 
L 74.551716 -261.217077 
L 75.546385 -259.813217 
L 76.541053 -258.418661 
L 77.535721 -257.033318 
L 78.530389 -255.657097 
L 79.525057 -254.289907 
L 80.519726 -252.931659 
L 81.514394 -251.581353 
L 82.509062 -250.239452 
L 83.50373 -248.897208 
L 84.498398 -247.562475 
L 85.493066 -246.241765 
L 86.487735 -244.938526 
L 87.482403 -243.632765 
L 88.477071 -242.334276 
L 89.471739 -241.044537 
L 90.466407 -239.769904 
L 91.461076 -238.516088 
L 92.455744 -237.230641 
L 93.450412 -235.970986 
L 94.44508 -234.717812 
L 95.439748 -233.490522 
L 96.434416 -232.235683 
L 97.429085 -230.988838 
L 98.423753 -229.78702 
L 99.418421 -228.588856 
L 100.413089 -227.375504 
L 101.407757 -226.175518 
L 102.402425 -224.992098 
L 103.397094 -223.804446 
L 104.391762 -222.609216 
L 105.38643 -221.430386 
L 106.381098 -220.258041 
L 107.375766 -219.096821 
L 108.370435 -217.942764 
L 109.365103 -216.795775 
L 110.359771 -215.633104 
L 111.354439 -214.491843 
L 112.349107 -213.357665 
L 113.343775 -212.230895 
L 114.338444 -211.107137 
L 115.333112 -209.981935 
L 116.32778 -208.865614 
L 117.322448 -207.755348 
L 118.317116 -206.654592 
L 119.311784 -205.575131 
L 120.306453 -204.488588 
L 121.301121 -203.406937 
L 122.295789 -202.334534 
L 123.290457 -201.268775 
L 124.285125 -200.208579 
L 125.279794 -199.154962 
L 126.274462 -198.108002 
L 127.26913 -197.074413 
L 128.263798 -196.048913 
L 129.258466 -195.029554 
L 130.253134 -194.016281 
L 131.247803 -193.007336 
L 132.242471 -192.001598 
L 133.237139 -191.001787 
L 134.231807 -190.007853 
L 135.226475 -189.019842 
L 136.221144 -188.037522 
L 137.215812 -187.053665 
L 138.21048 -186.075678 
L 139.205148 -185.10351 
L 140.199816 -184.137107 
L 141.194484 -183.179023 
L 142.189153 -182.23345 
L 143.183821 -181.293288 
L 144.178489 -180.358491 
L 145.173157 -179.429012 
L 146.167825 -178.50496 
L 147.162493 -177.586214 
L 148.157162 -176.667558 
L 149.15183 -175.751669 
L 150.146498 -174.841056 
L 151.141166 -173.935672 
L 152.135834 -173.035474 
L 153.130503 -172.140584 
L 154.125171 -171.257479 
L 155.119839 -170.37928 
L 156.114507 -169.505944 
L 157.109175 -168.631613 
L 158.103843 -167.760253 
L 159.098512 -166.89377 
L 160.09318 -166.032124 
L 161.087848 -165.175275 
L 162.082516 -164.323181 
L 163.077184 -163.475805 
L 164.071852 -162.633106 
L 165.066521 -161.795046 
L 166.061189 -160.961588 
L 167.055857 -160.132692 
L 168.050525 -159.308322 
L 169.045193 -158.488442 
L 170.039862 -157.673013 
L 171.03453 -156.862 
L 172.029198 -156.055368 
L 173.023866 -155.253081 
L 174.018534 -154.455103 
L 175.013202 -153.662669 
L 176.007871 -152.876032 
L 177.002539 -152.09548 
L 177.997207 -151.319029 
L 178.991875 -150.546646 
L 179.986543 -149.778299 
L 180.981212 -149.013957 
L 181.97588 -148.253588 
L 182.970548 -147.497162 
L 183.965216 -146.744648 
L 184.959884 -145.996015 
L 185.954552 -145.251234 
L 186.949221 -144.510275 
L 187.943889 -143.773109 
L 188.938557 -143.039707 
L 189.933225 -142.310039 
L 190.927893 -141.584078 
L 191.922561 -140.861795 
L 192.91723 -140.143163 
L 193.911898 -139.428153 
L 194.906566 -138.716739 
L 195.901234 -138.008894 
L 196.895902 -137.30459 
L 197.890571 -136.603801 
L 198.885239 -135.905638 
L 199.879907 -135.207363 
L 200.874575 -134.512603 
L 201.869243 -133.811598 
L 202.863911 -133.108706 
L 203.85858 -132.409641 
L 204.853248 -131.724853 
L 205.847916 -131.051415 
L 206.842584 -130.382188 
L 207.837252 -129.716281 
L 208.83192 -129.05367 
L 209.826589 -128.39433 
L 210.821257 -127.738238 
L 211.815925 -127.085368 
L 212.810593 -126.433934 
L 213.805261 -125.778297 
L 214.79993 -125.125799 
L 215.794598 -124.479412 
L 216.789266 -123.839698 
L 217.783934 -123.203239 
L 218.778602 -122.569841 
L 219.77327 -121.93948 
L 220.767939 -121.312134 
L 221.762607 -120.687784 
L 222.757275 -120.066468 
L 223.751943 -119.447858 
L 224.746611 -118.832338 
L 225.74128 -118.220411 
L 226.735948 -117.61291 
L 227.730616 -117.008279 
L 228.725284 -116.406497 
L 229.719952 -115.805138 
L 230.71462 -115.203656 
L 231.709289 -114.604919 
L 232.703957 -114.011107 
L 233.698625 -113.421121 
L 234.693293 -112.835883 
L 235.687961 -112.25335 
L 236.682629 -111.671533 
L 237.677298 -111.089712 
L 238.671966 -110.511325 
L 239.666634 -109.934987 
L 240.661302 -109.359936 
L 241.65597 -108.788521 
L 242.650639 -108.219686 
L 243.645307 -107.653414 
L 244.639975 -107.089688 
L 245.634643 -106.52849 
L 246.629311 -105.969803 
L 247.623979 -105.412081 
L 248.618648 -104.855969 
L 249.613316 -104.302307 
L 250.607984 -103.751078 
L 251.602652 -103.202266 
L 252.59732 -102.655157 
L 253.591988 -102.111776 
L 254.586657 -101.570069 
L 255.581325 -101.030773 
L 256.575993 -100.493704 
L 257.570661 -99.958023 
L 258.565329 -99.424321 
L 259.559998 -98.893037 
L 260.554666 -98.3688 
L 261.549334 -97.837684 
L 262.544002 -97.31353 
L 263.53867 -96.791756 
L 264.533338 -96.272318 
L 265.528007 -95.755213 
L 266.522675 -95.240444 
L 267.517343 -94.732607 
L 268.512011 -94.226739 
L 269.506679 -93.718855 
L 270.501348 -93.213166 
L 271.496016 -92.711277 
L 272.490684 -92.207913 
L 273.485352 -91.707529 
L 274.48002 -91.208892 
L 275.474688 -90.714417 
L 276.469357 -90.221991 
L 277.464025 -89.731327 
L 278.458693 -89.242192 
L 279.453361 -88.755081 
L 280.448029 -88.26998 
L 281.442697 -87.786877 
L 282.437366 -87.30576 
L 283.432034 -86.826563 
L 284.426702 -86.347038 
L 285.42137 -85.869773 
L 286.416038 -85.395937 
L 287.410707 -84.920364 
L 288.405375 -84.438881 
L 289.400043 -83.966881 
L 290.394711 -83.500354 
L 291.389379 -83.03571 
L 292.384047 -82.572937 
L 293.378716 -82.107812 
L 294.373384 -81.633674 
L 295.368052 -81.16132 
L 296.36272 -80.690739 
L 297.357388 -80.222603 
L 298.352056 -79.781059 
L 299.346725 -79.341418 
L 300.341393 -78.896504 
L 301.336061 -78.441003 
L 302.330729 -77.987249 
L 303.325397 -77.535231 
L 304.320066 -77.08494 
L 305.314734 -76.636366 
L 306.309402 -76.189499 
L 307.30407 -75.74433 
L 308.298738 -75.300848 
L 309.293406 -74.859044 
L 310.288075 -74.418909 
L 311.282743 -73.980433 
L 312.277411 -73.543606 
L 313.272079 -73.10842 
L 314.266747 -72.674866 
L 315.261415 -72.242933 
L 316.256084 -71.812614 
L 317.250752 -71.383899 
L 318.24542 -70.956778 
L 319.240088 -70.531244 
L 320.234756 -70.107287 
L 321.229425 -69.684899 
L 322.224093 -69.264104 
L 323.218761 -68.845001 
L 324.213429 -68.42744 
L 325.208097 -68.015082 
L 326.202765 -67.609056 
L 327.197434 -67.204558 
L 328.192102 -66.801579 
L 329.18677 -66.395421 
L 330.181438 -65.985714 
L 331.176106 -65.577475 
L 332.170775 -65.170697 
L 333.165443 -64.765372 
L 334.160111 -64.361492 
L 335.154779 -63.959089 
L 336.149447 -63.558127 
L 337.144115 -63.158587 
L 338.138784 -62.760461 
L 339.133452 -62.363743 
L 340.12812 -61.968425 
L 341.122788 -61.574499 
L 342.117456 -61.181958 
L 343.112124 -60.790794 
L 344.106793 -60.403332 
L 345.101461 -60.019433 
L 346.096129 -59.637994 
L 347.090797 -59.257922 
L 348.085465 -58.879209 
L 349.080134 -58.501849 
L 350.074802 -58.125834 
L 351.06947 -57.751157 
L 352.064138 -57.377811 
L 353.058806 -57.005788 
L 354.053474 -56.635082 
L 355.048143 -56.265686 
L 356.042811 -55.897593 
L 357.037479 -55.525088 
L 358.032147 -55.152191 
L 359.026815 -54.780564 
L 360.021483 -54.4102 
L 361.016152 -54.041093 
L 362.01082 -53.674888 
L 363.005488 -53.313261 
L 364.000156 -52.952884 
L 364.994824 -52.59375 
L 364.994824 -54.20437 
L 364.994824 -54.20437 
L 364.000156 -54.554197 
L 363.005488 -54.901819 
L 362.01082 -55.250676 
L 361.016152 -55.600775 
L 360.021483 -55.953931 
L 359.026815 -56.309522 
L 358.032147 -56.666382 
L 357.037479 -57.021343 
L 356.042811 -57.377779 
L 355.048143 -57.73867 
L 354.053474 -58.10085 
L 353.058806 -58.464324 
L 352.064138 -58.826978 
L 351.06947 -59.183168 
L 350.074802 -59.540715 
L 349.080134 -59.90032 
L 348.085465 -60.270483 
L 347.090797 -60.643905 
L 346.096129 -61.018672 
L 345.101461 -61.39479 
L 344.106793 -61.772268 
L 343.112124 -62.151111 
L 342.117456 -62.531274 
L 341.122788 -62.912719 
L 340.12812 -63.295552 
L 339.133452 -63.672293 
L 338.138784 -64.050108 
L 337.144115 -64.429339 
L 336.149447 -64.80987 
L 335.154779 -65.198968 
L 334.160111 -65.593745 
L 333.165443 -65.989958 
L 332.170775 -66.381986 
L 331.176106 -66.772137 
L 330.181438 -67.163758 
L 329.18677 -67.556857 
L 328.192102 -67.951275 
L 327.197434 -68.34718 
L 326.202765 -68.746435 
L 325.208097 -69.149099 
L 324.213429 -69.553281 
L 323.218761 -69.958988 
L 322.224093 -70.36623 
L 321.229425 -70.774986 
L 320.234756 -71.185289 
L 319.240088 -71.597153 
L 318.24542 -72.010587 
L 317.250752 -72.425599 
L 316.256084 -72.842199 
L 315.261415 -73.261673 
L 314.266747 -73.685278 
L 313.272079 -74.109666 
L 312.277411 -74.533348 
L 311.282743 -74.962508 
L 310.288075 -75.391817 
L 309.293406 -75.821603 
L 308.298738 -76.254413 
L 307.30407 -76.688886 
L 306.309402 -77.12503 
L 305.314734 -77.562856 
L 304.320066 -78.00236 
L 303.325397 -78.443561 
L 302.330729 -78.886394 
L 301.336061 -79.3309 
L 300.341393 -79.778123 
L 299.346725 -80.225243 
L 298.352056 -80.674193 
L 297.357388 -81.122993 
L 296.36272 -81.578433 
L 295.368052 -82.035242 
L 294.373384 -82.492332 
L 293.378716 -82.951043 
L 292.384047 -83.41215 
L 291.389379 -83.878712 
L 290.394711 -84.341201 
L 289.400043 -84.805428 
L 288.405375 -85.277436 
L 287.410707 -85.751351 
L 286.416038 -86.229231 
L 285.42137 -86.711266 
L 284.426702 -87.190459 
L 283.432034 -87.669532 
L 282.437366 -88.150663 
L 281.442697 -88.633653 
L 280.448029 -89.116243 
L 279.453361 -89.602401 
L 278.458693 -90.093612 
L 277.464025 -90.585398 
L 276.469357 -91.078394 
L 275.474688 -91.573408 
L 274.48002 -92.070321 
L 273.485352 -92.569258 
L 272.490684 -93.07025 
L 271.496016 -93.57331 
L 270.501348 -94.078486 
L 269.506679 -94.585922 
L 268.512011 -95.095302 
L 267.517343 -95.60708 
L 266.522675 -96.120507 
L 265.528007 -96.636462 
L 264.533338 -97.154576 
L 263.53867 -97.674863 
L 262.544002 -98.197292 
L 261.549334 -98.723244 
L 260.554666 -99.254807 
L 259.559998 -99.788571 
L 258.565329 -100.324551 
L 257.570661 -100.862759 
L 256.575993 -101.403211 
L 255.581325 -101.945919 
L 254.586657 -102.490899 
L 253.591988 -103.036944 
L 252.59732 -103.583096 
L 251.602652 -104.132625 
L 250.607984 -104.687965 
L 249.613316 -105.247061 
L 248.618648 -105.809752 
L 247.623979 -106.371221 
L 246.629311 -106.935077 
L 245.634643 -107.501335 
L 244.639975 -108.069937 
L 243.645307 -108.641882 
L 242.650639 -109.216285 
L 241.65597 -109.793147 
L 240.661302 -110.372483 
L 239.666634 -110.95431 
L 238.671966 -111.536879 
L 237.677298 -112.121422 
L 236.682629 -112.708557 
L 235.687961 -113.298379 
L 234.693293 -113.892029 
L 233.698625 -114.488276 
L 232.703957 -115.087136 
L 231.709289 -115.688626 
L 230.71462 -116.292763 
L 229.719952 -116.89955 
L 228.725284 -117.508902 
L 227.730616 -118.120954 
L 226.735948 -118.735726 
L 225.74128 -119.349608 
L 224.746611 -119.968232 
L 223.751943 -120.592404 
L 222.757275 -121.220588 
L 221.762607 -121.851572 
L 220.767939 -122.483236 
L 219.77327 -123.117685 
L 218.778602 -123.755761 
L 217.783934 -124.397005 
L 216.789266 -125.040937 
L 215.794598 -125.686291 
L 214.79993 -126.334618 
L 213.805261 -126.98594 
L 212.810593 -127.640276 
L 211.815925 -128.298155 
L 210.821257 -128.95915 
L 209.826589 -129.623195 
L 208.83192 -130.291362 
L 207.837252 -130.963714 
L 206.842584 -131.639129 
L 205.847916 -132.317629 
L 204.853248 -132.999234 
L 203.85858 -133.683966 
L 202.863911 -134.371846 
L 201.869243 -135.062897 
L 200.874575 -135.757139 
L 199.879907 -136.454596 
L 198.885239 -137.15529 
L 197.890571 -137.859243 
L 196.895902 -138.566479 
L 195.901234 -139.277019 
L 194.906566 -139.990888 
L 193.911898 -140.708108 
L 192.91723 -141.428704 
L 191.922561 -142.152699 
L 190.927893 -142.880118 
L 189.933225 -143.612116 
L 188.938557 -144.348173 
L 187.943889 -145.087686 
L 186.949221 -145.829586 
L 185.954552 -146.575059 
L 184.959884 -147.323233 
L 183.965216 -148.074013 
L 182.970548 -148.830236 
L 181.97588 -149.589362 
L 180.981212 -150.35303 
L 179.986543 -151.122348 
L 178.991875 -151.895315 
L 177.997207 -152.672045 
L 177.002539 -153.45242 
L 176.007871 -154.23576 
L 175.013202 -155.023037 
L 174.018534 -155.814278 
L 173.023866 -156.609515 
L 172.029198 -157.408778 
L 171.03453 -158.212098 
L 170.039862 -159.019505 
L 169.045193 -159.834899 
L 168.050525 -160.651165 
L 167.055857 -161.471027 
L 166.061189 -162.294721 
L 165.066521 -163.124397 
L 164.071852 -163.959791 
L 163.077184 -164.800322 
L 162.082516 -165.647901 
L 161.087848 -166.500034 
L 160.09318 -167.350045 
L 159.098512 -168.20551 
L 158.103843 -169.079948 
L 157.109175 -169.945442 
L 156.114507 -170.81506 
L 155.119839 -171.688841 
L 154.125171 -172.567648 
L 153.130503 -173.45123 
L 152.135834 -174.343414 
L 151.141166 -175.245082 
L 150.146498 -176.152328 
L 149.15183 -177.063799 
L 148.157162 -177.970563 
L 147.162493 -178.892935 
L 146.167825 -179.820442 
L 145.173157 -180.753127 
L 144.178489 -181.698815 
L 143.183821 -182.648327 
L 142.189153 -183.584713 
L 141.194484 -184.536521 
L 140.199816 -185.495757 
L 139.205148 -186.460439 
L 138.21048 -187.430613 
L 137.215812 -188.406327 
L 136.221144 -189.387629 
L 135.226475 -190.374566 
L 134.231807 -191.367187 
L 133.237139 -192.365541 
L 132.242471 -193.376442 
L 131.247803 -194.397012 
L 130.253134 -195.415031 
L 129.258466 -196.440464 
L 128.263798 -197.46901 
L 127.26913 -198.506966 
L 126.274462 -199.55153 
L 125.279794 -200.598378 
L 124.285125 -201.651327 
L 123.290457 -202.715303 
L 122.295789 -203.787165 
L 121.301121 -204.866487 
L 120.306453 -205.952007 
L 119.311784 -207.04389 
L 118.317116 -208.142512 
L 117.322448 -209.247942 
L 116.32778 -210.360244 
L 115.333112 -211.479482 
L 114.338444 -212.605722 
L 113.343775 -213.733817 
L 112.349107 -214.865601 
L 111.354439 -216.008282 
L 110.359771 -217.17584 
L 109.365103 -218.345503 
L 108.370435 -219.51204 
L 107.375766 -220.677906 
L 106.381098 -221.851124 
L 105.38643 -223.031764 
L 104.391762 -224.219897 
L 103.397094 -225.421013 
L 102.402425 -226.63576 
L 101.407757 -227.858411 
L 100.413089 -229.089046 
L 99.418421 -230.327742 
L 98.423753 -231.574578 
L 97.429085 -232.829637 
L 96.434416 -234.093096 
L 95.439748 -235.387515 
L 94.44508 -236.690921 
L 93.450412 -238.003407 
L 92.455744 -239.30383 
L 91.461076 -240.612075 
L 90.466407 -241.929181 
L 89.471739 -243.259128 
L 88.477071 -244.611684 
L 87.482403 -245.97382 
L 86.487735 -247.345638 
L 85.493066 -248.727242 
L 84.498398 -250.118738 
L 83.50373 -251.52023 
L 82.509062 -252.931829 
L 81.514394 -254.353642 
L 80.519726 -255.785783 
L 79.525057 -257.228363 
L 78.530389 -258.681497 
L 77.535721 -260.145302 
L 76.541053 -261.619895 
L 75.546385 -263.105396 
L 74.551716 -264.601926 
L 73.557048 -266.109363 
L 72.56238 -267.62788 
L 71.567712 -269.157794 
L 70.573044 -270.699233 
L 69.578376 -272.252327 
L 68.583707 -273.817138 
L 67.589039 -275.39375 
z
" style="stroke: #1f77b4; stroke-opacity: 0.2"/>
    </defs>
    <g clip-path="url(#pfac1bbac37)">
     <use xlink:href="#m187fa8d326" x="0" y="309.611719" style="fill: #1f77b4; fill-opacity: 0.2; stroke: #1f77b4; stroke-opacity: 0.2"/>
    </g>
   </g>
   <g id="matplotlib.axis_1">
    <g id="xtick_1">
     <g id="line2d_1">
      <path d="M 93.830726 268.157969 
L 93.830726 23.077969 
" clip-path="url(#pfac1bbac37)" style="fill: none; stroke: #b0b0b0; stroke-opacity: 0.3; stroke-width: 0.8; stroke-linecap: square"/>
     </g>
     <g id="line2d_2">
      <defs>
       <path id="mac2dd4f811" d="M 0 0 
L 0 3.5 
" style="stroke: #000000; stroke-width: 0.8"/>
      </defs>
      <g>
       <use xlink:href="#mac2dd4f811" x="93.830726" y="268.157969" style="stroke: #000000; stroke-width: 0.8"/>
      </g>
     </g>
     <g id="text_1">
      <!-- 0.05 -->
      <g transform="translate(80.471351 284.276094) scale(0.12 -0.12)">
       <defs>
        <path id="DejaVuSans-30" d="M 2034 4250 
Q 1547 4250 1301 3770 
Q 1056 3291 1056 2328 
Q 1056 1369 1301 889 
Q 1547 409 2034 409 
Q 2525 409 2770 889 
Q 3016 1369 3016 2328 
Q 3016 3291 2770 3770 
Q 2525 4250 2034 4250 
z
M 2034 4750 
Q 2819 4750 3233 4129 
Q 3647 3509 3647 2328 
Q 3647 1150 3233 529 
Q 2819 -91 2034 -91 
Q 1250 -91 836 529 
Q 422 1150 422 2328 
Q 422 3509 836 4129 
Q 1250 4750 2034 4750 
z
" transform="scale(0.015625)"/>
        <path id="DejaVuSans-2e" d="M 684 794 
L 1344 794 
L 1344 0 
L 684 0 
L 684 794 
z
" transform="scale(0.015625)"/>
        <path id="DejaVuSans-35" d="M 691 4666 
L 3169 4666 
L 3169 4134 
L 1269 4134 
L 1269 2991 
Q 1406 3038 1543 3061 
Q 1681 3084 1819 3084 
Q 2600 3084 3056 2656 
Q 3513 2228 3513 1497 
Q 3513 744 3044 326 
Q 2575 -91 1722 -91 
Q 1428 -91 1123 -41 
Q 819 9 494 109 
L 494 744 
Q 775 591 1075 516 
Q 1375 441 1709 441 
Q 2250 441 2565 725 
Q 2881 1009 2881 1497 
Q 2881 1984 2565 2268 
Q 2250 2553 1709 2553 
Q 1456 2553 1204 2497 
Q 953 2441 691 2322 
L 691 4666 
z
" transform="scale(0.015625)"/>
       </defs>
       <use xlink:href="#DejaVuSans-30"/>
       <use xlink:href="#DejaVuSans-2e" transform="translate(63.623047 0)"/>
       <use xlink:href="#DejaVuSans-30" transform="translate(95.410156 0)"/>
       <use xlink:href="#DejaVuSans-35" transform="translate(159.033203 0)"/>
      </g>
     </g>
    </g>
    <g id="xtick_2">
     <g id="line2d_3">
      <path d="M 137.566871 268.157969 
L 137.566871 23.077969 
" clip-path="url(#pfac1bbac37)" style="fill: none; stroke: #b0b0b0; stroke-opacity: 0.3; stroke-width: 0.8; stroke-linecap: square"/>
     </g>
     <g id="line2d_4">
      <g>
       <use xlink:href="#mac2dd4f811" x="137.566871" y="268.157969" style="stroke: #000000; stroke-width: 0.8"/>
      </g>
     </g>
     <g id="text_2">
      <!-- 0.10 -->
      <g transform="translate(124.207496 284.276094) scale(0.12 -0.12)">
       <defs>
        <path id="DejaVuSans-31" d="M 794 531 
L 1825 531 
L 1825 4091 
L 703 3866 
L 703 4441 
L 1819 4666 
L 2450 4666 
L 2450 531 
L 3481 531 
L 3481 0 
L 794 0 
L 794 531 
z
" transform="scale(0.015625)"/>
       </defs>
       <use xlink:href="#DejaVuSans-30"/>
       <use xlink:href="#DejaVuSans-2e" transform="translate(63.623047 0)"/>
       <use xlink:href="#DejaVuSans-31" transform="translate(95.410156 0)"/>
       <use xlink:href="#DejaVuSans-30" transform="translate(159.033203 0)"/>
      </g>
     </g>
    </g>
    <g id="xtick_3">
     <g id="line2d_5">
      <path d="M 181.303016 268.157969 
L 181.303016 23.077969 
" clip-path="url(#pfac1bbac37)" style="fill: none; stroke: #b0b0b0; stroke-opacity: 0.3; stroke-width: 0.8; stroke-linecap: square"/>
     </g>
     <g id="line2d_6">
      <g>
       <use xlink:href="#mac2dd4f811" x="181.303016" y="268.157969" style="stroke: #000000; stroke-width: 0.8"/>
      </g>
     </g>
     <g id="text_3">
      <!-- 0.15 -->
      <g transform="translate(167.943641 284.276094) scale(0.12 -0.12)">
       <use xlink:href="#DejaVuSans-30"/>
       <use xlink:href="#DejaVuSans-2e" transform="translate(63.623047 0)"/>
       <use xlink:href="#DejaVuSans-31" transform="translate(95.410156 0)"/>
       <use xlink:href="#DejaVuSans-35" transform="translate(159.033203 0)"/>
      </g>
     </g>
    </g>
    <g id="xtick_4">
     <g id="line2d_7">
      <path d="M 225.039161 268.157969 
L 225.039161 23.077969 
" clip-path="url(#pfac1bbac37)" style="fill: none; stroke: #b0b0b0; stroke-opacity: 0.3; stroke-width: 0.8; stroke-linecap: square"/>
     </g>
     <g id="line2d_8">
      <g>
       <use xlink:href="#mac2dd4f811" x="225.039161" y="268.157969" style="stroke: #000000; stroke-width: 0.8"/>
      </g>
     </g>
     <g id="text_4">
      <!-- 0.20 -->
      <g transform="translate(211.679786 284.276094) scale(0.12 -0.12)">
       <defs>
        <path id="DejaVuSans-32" d="M 1228 531 
L 3431 531 
L 3431 0 
L 469 0 
L 469 531 
Q 828 903 1448 1529 
Q 2069 2156 2228 2338 
Q 2531 2678 2651 2914 
Q 2772 3150 2772 3378 
Q 2772 3750 2511 3984 
Q 2250 4219 1831 4219 
Q 1534 4219 1204 4116 
Q 875 4013 500 3803 
L 500 4441 
Q 881 4594 1212 4672 
Q 1544 4750 1819 4750 
Q 2544 4750 2975 4387 
Q 3406 4025 3406 3419 
Q 3406 3131 3298 2873 
Q 3191 2616 2906 2266 
Q 2828 2175 2409 1742 
Q 1991 1309 1228 531 
z
" transform="scale(0.015625)"/>
       </defs>
       <use xlink:href="#DejaVuSans-30"/>
       <use xlink:href="#DejaVuSans-2e" transform="translate(63.623047 0)"/>
       <use xlink:href="#DejaVuSans-32" transform="translate(95.410156 0)"/>
       <use xlink:href="#DejaVuSans-30" transform="translate(159.033203 0)"/>
      </g>
     </g>
    </g>
    <g id="xtick_5">
     <g id="line2d_9">
      <path d="M 268.775306 268.157969 
L 268.775306 23.077969 
" clip-path="url(#pfac1bbac37)" style="fill: none; stroke: #b0b0b0; stroke-opacity: 0.3; stroke-width: 0.8; stroke-linecap: square"/>
     </g>
     <g id="line2d_10">
      <g>
       <use xlink:href="#mac2dd4f811" x="268.775306" y="268.157969" style="stroke: #000000; stroke-width: 0.8"/>
      </g>
     </g>
     <g id="text_5">
      <!-- 0.25 -->
      <g transform="translate(255.415931 284.276094) scale(0.12 -0.12)">
       <use xlink:href="#DejaVuSans-30"/>
       <use xlink:href="#DejaVuSans-2e" transform="translate(63.623047 0)"/>
       <use xlink:href="#DejaVuSans-32" transform="translate(95.410156 0)"/>
       <use xlink:href="#DejaVuSans-35" transform="translate(159.033203 0)"/>
      </g>
     </g>
    </g>
    <g id="xtick_6">
     <g id="line2d_11">
      <path d="M 312.511451 268.157969 
L 312.511451 23.077969 
" clip-path="url(#pfac1bbac37)" style="fill: none; stroke: #b0b0b0; stroke-opacity: 0.3; stroke-width: 0.8; stroke-linecap: square"/>
     </g>
     <g id="line2d_12">
      <g>
       <use xlink:href="#mac2dd4f811" x="312.511451" y="268.157969" style="stroke: #000000; stroke-width: 0.8"/>
      </g>
     </g>
     <g id="text_6">
      <!-- 0.30 -->
      <g transform="translate(299.152076 284.276094) scale(0.12 -0.12)">
       <defs>
        <path id="DejaVuSans-33" d="M 2597 2516 
Q 3050 2419 3304 2112 
Q 3559 1806 3559 1356 
Q 3559 666 3084 287 
Q 2609 -91 1734 -91 
Q 1441 -91 1130 -33 
Q 819 25 488 141 
L 488 750 
Q 750 597 1062 519 
Q 1375 441 1716 441 
Q 2309 441 2620 675 
Q 2931 909 2931 1356 
Q 2931 1769 2642 2001 
Q 2353 2234 1838 2234 
L 1294 2234 
L 1294 2753 
L 1863 2753 
Q 2328 2753 2575 2939 
Q 2822 3125 2822 3475 
Q 2822 3834 2567 4026 
Q 2313 4219 1838 4219 
Q 1578 4219 1281 4162 
Q 984 4106 628 3988 
L 628 4550 
Q 988 4650 1302 4700 
Q 1616 4750 1894 4750 
Q 2613 4750 3031 4423 
Q 3450 4097 3450 3541 
Q 3450 3153 3228 2886 
Q 3006 2619 2597 2516 
z
" transform="scale(0.015625)"/>
       </defs>
       <use xlink:href="#DejaVuSans-30"/>
       <use xlink:href="#DejaVuSans-2e" transform="translate(63.623047 0)"/>
       <use xlink:href="#DejaVuSans-33" transform="translate(95.410156 0)"/>
       <use xlink:href="#DejaVuSans-30" transform="translate(159.033203 0)"/>
      </g>
     </g>
    </g>
    <g id="xtick_7">
     <g id="line2d_13">
      <path d="M 356.247595 268.157969 
L 356.247595 23.077969 
" clip-path="url(#pfac1bbac37)" style="fill: none; stroke: #b0b0b0; stroke-opacity: 0.3; stroke-width: 0.8; stroke-linecap: square"/>
     </g>
     <g id="line2d_14">
      <g>
       <use xlink:href="#mac2dd4f811" x="356.247595" y="268.157969" style="stroke: #000000; stroke-width: 0.8"/>
      </g>
     </g>
     <g id="text_7">
      <!-- 0.35 -->
      <g transform="translate(342.88822 284.276094) scale(0.12 -0.12)">
       <use xlink:href="#DejaVuSans-30"/>
       <use xlink:href="#DejaVuSans-2e" transform="translate(63.623047 0)"/>
       <use xlink:href="#DejaVuSans-33" transform="translate(95.410156 0)"/>
       <use xlink:href="#DejaVuSans-35" transform="translate(159.033203 0)"/>
      </g>
     </g>
    </g>
    <g id="text_8">
     <!-- Gap height $h$ (mm) -->
     <g transform="translate(159.111932 299.891719) scale(0.12 -0.12)">
      <defs>
       <path id="DejaVuSans-47" d="M 3809 666 
L 3809 1919 
L 2778 1919 
L 2778 2438 
L 4434 2438 
L 4434 434 
Q 4069 175 3628 42 
Q 3188 -91 2688 -91 
Q 1594 -91 976 548 
Q 359 1188 359 2328 
Q 359 3472 976 4111 
Q 1594 4750 2688 4750 
Q 3144 4750 3555 4637 
Q 3966 4525 4313 4306 
L 4313 3634 
Q 3963 3931 3569 4081 
Q 3175 4231 2741 4231 
Q 1884 4231 1454 3753 
Q 1025 3275 1025 2328 
Q 1025 1384 1454 906 
Q 1884 428 2741 428 
Q 3075 428 3337 486 
Q 3600 544 3809 666 
z
" transform="scale(0.015625)"/>
       <path id="DejaVuSans-61" d="M 2194 1759 
Q 1497 1759 1228 1600 
Q 959 1441 959 1056 
Q 959 750 1161 570 
Q 1363 391 1709 391 
Q 2188 391 2477 730 
Q 2766 1069 2766 1631 
L 2766 1759 
L 2194 1759 
z
M 3341 1997 
L 3341 0 
L 2766 0 
L 2766 531 
Q 2569 213 2275 61 
Q 1981 -91 1556 -91 
Q 1019 -91 701 211 
Q 384 513 384 1019 
Q 384 1609 779 1909 
Q 1175 2209 1959 2209 
L 2766 2209 
L 2766 2266 
Q 2766 2663 2505 2880 
Q 2244 3097 1772 3097 
Q 1472 3097 1187 3025 
Q 903 2953 641 2809 
L 641 3341 
Q 956 3463 1253 3523 
Q 1550 3584 1831 3584 
Q 2591 3584 2966 3190 
Q 3341 2797 3341 1997 
z
" transform="scale(0.015625)"/>
       <path id="DejaVuSans-70" d="M 1159 525 
L 1159 -1331 
L 581 -1331 
L 581 3500 
L 1159 3500 
L 1159 2969 
Q 1341 3281 1617 3432 
Q 1894 3584 2278 3584 
Q 2916 3584 3314 3078 
Q 3713 2572 3713 1747 
Q 3713 922 3314 415 
Q 2916 -91 2278 -91 
Q 1894 -91 1617 61 
Q 1341 213 1159 525 
z
M 3116 1747 
Q 3116 2381 2855 2742 
Q 2594 3103 2138 3103 
Q 1681 3103 1420 2742 
Q 1159 2381 1159 1747 
Q 1159 1113 1420 752 
Q 1681 391 2138 391 
Q 2594 391 2855 752 
Q 3116 1113 3116 1747 
z
" transform="scale(0.015625)"/>
       <path id="DejaVuSans-20" transform="scale(0.015625)"/>
       <path id="DejaVuSans-68" d="M 3513 2113 
L 3513 0 
L 2938 0 
L 2938 2094 
Q 2938 2591 2744 2837 
Q 2550 3084 2163 3084 
Q 1697 3084 1428 2787 
Q 1159 2491 1159 1978 
L 1159 0 
L 581 0 
L 581 4863 
L 1159 4863 
L 1159 2956 
Q 1366 3272 1645 3428 
Q 1925 3584 2291 3584 
Q 2894 3584 3203 3211 
Q 3513 2838 3513 2113 
z
" transform="scale(0.015625)"/>
       <path id="DejaVuSans-65" d="M 3597 1894 
L 3597 1613 
L 953 1613 
Q 991 1019 1311 708 
Q 1631 397 2203 397 
Q 2534 397 2845 478 
Q 3156 559 3463 722 
L 3463 178 
Q 3153 47 2828 -22 
Q 2503 -91 2169 -91 
Q 1331 -91 842 396 
Q 353 884 353 1716 
Q 353 2575 817 3079 
Q 1281 3584 2069 3584 
Q 2775 3584 3186 3129 
Q 3597 2675 3597 1894 
z
M 3022 2063 
Q 3016 2534 2758 2815 
Q 2500 3097 2075 3097 
Q 1594 3097 1305 2825 
Q 1016 2553 972 2059 
L 3022 2063 
z
" transform="scale(0.015625)"/>
       <path id="DejaVuSans-69" d="M 603 3500 
L 1178 3500 
L 1178 0 
L 603 0 
L 603 3500 
z
M 603 4863 
L 1178 4863 
L 1178 4134 
L 603 4134 
L 603 4863 
z
" transform="scale(0.015625)"/>
       <path id="DejaVuSans-67" d="M 2906 1791 
Q 2906 2416 2648 2759 
Q 2391 3103 1925 3103 
Q 1463 3103 1205 2759 
Q 947 2416 947 1791 
Q 947 1169 1205 825 
Q 1463 481 1925 481 
Q 2391 481 2648 825 
Q 2906 1169 2906 1791 
z
M 3481 434 
Q 3481 -459 3084 -895 
Q 2688 -1331 1869 -1331 
Q 1566 -1331 1297 -1286 
Q 1028 -1241 775 -1147 
L 775 -588 
Q 1028 -725 1275 -790 
Q 1522 -856 1778 -856 
Q 2344 -856 2625 -561 
Q 2906 -266 2906 331 
L 2906 616 
Q 2728 306 2450 153 
Q 2172 0 1784 0 
Q 1141 0 747 490 
Q 353 981 353 1791 
Q 353 2603 747 3093 
Q 1141 3584 1784 3584 
Q 2172 3584 2450 3431 
Q 2728 3278 2906 2969 
L 2906 3500 
L 3481 3500 
L 3481 434 
z
" transform="scale(0.015625)"/>
       <path id="DejaVuSans-74" d="M 1172 4494 
L 1172 3500 
L 2356 3500 
L 2356 3053 
L 1172 3053 
L 1172 1153 
Q 1172 725 1289 603 
Q 1406 481 1766 481 
L 2356 481 
L 2356 0 
L 1766 0 
Q 1100 0 847 248 
Q 594 497 594 1153 
L 594 3053 
L 172 3053 
L 172 3500 
L 594 3500 
L 594 4494 
L 1172 4494 
z
" transform="scale(0.015625)"/>
       <path id="DejaVuSans-Oblique-68" d="M 3566 2113 
L 3156 0 
L 2578 0 
L 2988 2091 
Q 3016 2238 3031 2350 
Q 3047 2463 3047 2528 
Q 3047 2791 2881 2937 
Q 2716 3084 2419 3084 
Q 1956 3084 1617 2771 
Q 1278 2459 1178 1941 
L 800 0 
L 225 0 
L 1172 4863 
L 1747 4863 
L 1375 2950 
Q 1594 3244 1934 3414 
Q 2275 3584 2650 3584 
Q 3113 3584 3367 3334 
Q 3622 3084 3622 2631 
Q 3622 2519 3608 2391 
Q 3594 2263 3566 2113 
z
" transform="scale(0.015625)"/>
       <path id="DejaVuSans-28" d="M 1984 4856 
Q 1566 4138 1362 3434 
Q 1159 2731 1159 2009 
Q 1159 1288 1364 580 
Q 1569 -128 1984 -844 
L 1484 -844 
Q 1016 -109 783 600 
Q 550 1309 550 2009 
Q 550 2706 781 3412 
Q 1013 4119 1484 4856 
L 1984 4856 
z
" transform="scale(0.015625)"/>
       <path id="DejaVuSans-6d" d="M 3328 2828 
Q 3544 3216 3844 3400 
Q 4144 3584 4550 3584 
Q 5097 3584 5394 3201 
Q 5691 2819 5691 2113 
L 5691 0 
L 5113 0 
L 5113 2094 
Q 5113 2597 4934 2840 
Q 4756 3084 4391 3084 
Q 3944 3084 3684 2787 
Q 3425 2491 3425 1978 
L 3425 0 
L 2847 0 
L 2847 2094 
Q 2847 2600 2669 2842 
Q 2491 3084 2119 3084 
Q 1678 3084 1418 2786 
Q 1159 2488 1159 1978 
L 1159 0 
L 581 0 
L 581 3500 
L 1159 3500 
L 1159 2956 
Q 1356 3278 1631 3431 
Q 1906 3584 2284 3584 
Q 2666 3584 2933 3390 
Q 3200 3197 3328 2828 
z
" transform="scale(0.015625)"/>
       <path id="DejaVuSans-29" d="M 513 4856 
L 1013 4856 
Q 1481 4119 1714 3412 
Q 1947 2706 1947 2009 
Q 1947 1309 1714 600 
Q 1481 -109 1013 -844 
L 513 -844 
Q 928 -128 1133 580 
Q 1338 1288 1338 2009 
Q 1338 2731 1133 3434 
Q 928 4138 513 4856 
z
" transform="scale(0.015625)"/>
      </defs>
      <use xlink:href="#DejaVuSans-47" transform="translate(0 0.015625)"/>
      <use xlink:href="#DejaVuSans-61" transform="translate(77.490234 0.015625)"/>
      <use xlink:href="#DejaVuSans-70" transform="translate(138.769531 0.015625)"/>
      <use xlink:href="#DejaVuSans-20" transform="translate(202.246094 0.015625)"/>
      <use xlink:href="#DejaVuSans-68" transform="translate(234.033203 0.015625)"/>
      <use xlink:href="#DejaVuSans-65" transform="translate(297.412109 0.015625)"/>
      <use xlink:href="#DejaVuSans-69" transform="translate(358.935547 0.015625)"/>
      <use xlink:href="#DejaVuSans-67" transform="translate(386.71875 0.015625)"/>
      <use xlink:href="#DejaVuSans-68" transform="translate(450.195312 0.015625)"/>
      <use xlink:href="#DejaVuSans-74" transform="translate(513.574219 0.015625)"/>
      <use xlink:href="#DejaVuSans-20" transform="translate(552.783203 0.015625)"/>
      <use xlink:href="#DejaVuSans-Oblique-68" transform="translate(584.570312 0.015625)"/>
      <use xlink:href="#DejaVuSans-20" transform="translate(647.949219 0.015625)"/>
      <use xlink:href="#DejaVuSans-28" transform="translate(679.736328 0.015625)"/>
      <use xlink:href="#DejaVuSans-6d" transform="translate(718.75 0.015625)"/>
      <use xlink:href="#DejaVuSans-6d" transform="translate(816.162109 0.015625)"/>
      <use xlink:href="#DejaVuSans-29" transform="translate(913.574219 0.015625)"/>
     </g>
    </g>
   </g>
   <g id="matplotlib.axis_2">
    <g id="ytick_1">
     <g id="line2d_15">
      <path d="M 52.71875 244.099505 
L 379.865114 244.099505 
" clip-path="url(#pfac1bbac37)" style="fill: none; stroke: #b0b0b0; stroke-opacity: 0.3; stroke-width: 0.8; stroke-linecap: square"/>
     </g>
     <g id="line2d_16">
      <defs>
       <path id="m8f7f99e4f9" d="M 0 0 
L -3.5 0 
" style="stroke: #000000; stroke-width: 0.8"/>
      </defs>
      <g>
       <use xlink:href="#m8f7f99e4f9" x="52.71875" y="244.099505" style="stroke: #000000; stroke-width: 0.8"/>
      </g>
     </g>
     <g id="text_9">
      <!-- 70 -->
      <g transform="translate(30.44875 248.658568) scale(0.12 -0.12)">
       <defs>
        <path id="DejaVuSans-37" d="M 525 4666 
L 3525 4666 
L 3525 4397 
L 1831 0 
L 1172 0 
L 2766 4134 
L 525 4134 
L 525 4666 
z
" transform="scale(0.015625)"/>
       </defs>
       <use xlink:href="#DejaVuSans-37"/>
       <use xlink:href="#DejaVuSans-30" transform="translate(63.623047 0)"/>
      </g>
     </g>
    </g>
    <g id="ytick_2">
     <g id="line2d_17">
      <path d="M 52.71875 200.90018 
L 379.865114 200.90018 
" clip-path="url(#pfac1bbac37)" style="fill: none; stroke: #b0b0b0; stroke-opacity: 0.3; stroke-width: 0.8; stroke-linecap: square"/>
     </g>
     <g id="line2d_18">
      <g>
       <use xlink:href="#m8f7f99e4f9" x="52.71875" y="200.90018" style="stroke: #000000; stroke-width: 0.8"/>
      </g>
     </g>
     <g id="text_10">
      <!-- 80 -->
      <g transform="translate(30.44875 205.459243) scale(0.12 -0.12)">
       <defs>
        <path id="DejaVuSans-38" d="M 2034 2216 
Q 1584 2216 1326 1975 
Q 1069 1734 1069 1313 
Q 1069 891 1326 650 
Q 1584 409 2034 409 
Q 2484 409 2743 651 
Q 3003 894 3003 1313 
Q 3003 1734 2745 1975 
Q 2488 2216 2034 2216 
z
M 1403 2484 
Q 997 2584 770 2862 
Q 544 3141 544 3541 
Q 544 4100 942 4425 
Q 1341 4750 2034 4750 
Q 2731 4750 3128 4425 
Q 3525 4100 3525 3541 
Q 3525 3141 3298 2862 
Q 3072 2584 2669 2484 
Q 3125 2378 3379 2068 
Q 3634 1759 3634 1313 
Q 3634 634 3220 271 
Q 2806 -91 2034 -91 
Q 1263 -91 848 271 
Q 434 634 434 1313 
Q 434 1759 690 2068 
Q 947 2378 1403 2484 
z
M 1172 3481 
Q 1172 3119 1398 2916 
Q 1625 2713 2034 2713 
Q 2441 2713 2670 2916 
Q 2900 3119 2900 3481 
Q 2900 3844 2670 4047 
Q 2441 4250 2034 4250 
Q 1625 4250 1398 4047 
Q 1172 3844 1172 3481 
z
" transform="scale(0.015625)"/>
       </defs>
       <use xlink:href="#DejaVuSans-38"/>
       <use xlink:href="#DejaVuSans-30" transform="translate(63.623047 0)"/>
      </g>
     </g>
    </g>
    <g id="ytick_3">
     <g id="line2d_19">
      <path d="M 52.71875 157.700856 
L 379.865114 157.700856 
" clip-path="url(#pfac1bbac37)" style="fill: none; stroke: #b0b0b0; stroke-opacity: 0.3; stroke-width: 0.8; stroke-linecap: square"/>
     </g>
     <g id="line2d_20">
      <g>
       <use xlink:href="#m8f7f99e4f9" x="52.71875" y="157.700856" style="stroke: #000000; stroke-width: 0.8"/>
      </g>
     </g>
     <g id="text_11">
      <!-- 90 -->
      <g transform="translate(30.44875 162.259918) scale(0.12 -0.12)">
       <defs>
        <path id="DejaVuSans-39" d="M 703 97 
L 703 672 
Q 941 559 1184 500 
Q 1428 441 1663 441 
Q 2288 441 2617 861 
Q 2947 1281 2994 2138 
Q 2813 1869 2534 1725 
Q 2256 1581 1919 1581 
Q 1219 1581 811 2004 
Q 403 2428 403 3163 
Q 403 3881 828 4315 
Q 1253 4750 1959 4750 
Q 2769 4750 3195 4129 
Q 3622 3509 3622 2328 
Q 3622 1225 3098 567 
Q 2575 -91 1691 -91 
Q 1453 -91 1209 -44 
Q 966 3 703 97 
z
M 1959 2075 
Q 2384 2075 2632 2365 
Q 2881 2656 2881 3163 
Q 2881 3666 2632 3958 
Q 2384 4250 1959 4250 
Q 1534 4250 1286 3958 
Q 1038 3666 1038 3163 
Q 1038 2656 1286 2365 
Q 1534 2075 1959 2075 
z
" transform="scale(0.015625)"/>
       </defs>
       <use xlink:href="#DejaVuSans-39"/>
       <use xlink:href="#DejaVuSans-30" transform="translate(63.623047 0)"/>
      </g>
     </g>
    </g>
    <g id="ytick_4">
     <g id="line2d_21">
      <path d="M 52.71875 114.501531 
L 379.865114 114.501531 
" clip-path="url(#pfac1bbac37)" style="fill: none; stroke: #b0b0b0; stroke-opacity: 0.3; stroke-width: 0.8; stroke-linecap: square"/>
     </g>
     <g id="line2d_22">
      <g>
       <use xlink:href="#m8f7f99e4f9" x="52.71875" y="114.501531" style="stroke: #000000; stroke-width: 0.8"/>
      </g>
     </g>
     <g id="text_12">
      <!-- 100 -->
      <g transform="translate(22.81375 119.060594) scale(0.12 -0.12)">
       <use xlink:href="#DejaVuSans-31"/>
       <use xlink:href="#DejaVuSans-30" transform="translate(63.623047 0)"/>
       <use xlink:href="#DejaVuSans-30" transform="translate(127.246094 0)"/>
      </g>
     </g>
    </g>
    <g id="ytick_5">
     <g id="line2d_23">
      <path d="M 52.71875 71.302207 
L 379.865114 71.302207 
" clip-path="url(#pfac1bbac37)" style="fill: none; stroke: #b0b0b0; stroke-opacity: 0.3; stroke-width: 0.8; stroke-linecap: square"/>
     </g>
     <g id="line2d_24">
      <g>
       <use xlink:href="#m8f7f99e4f9" x="52.71875" y="71.302207" style="stroke: #000000; stroke-width: 0.8"/>
      </g>
     </g>
     <g id="text_13">
      <!-- 110 -->
      <g transform="translate(22.81375 75.861269) scale(0.12 -0.12)">
       <use xlink:href="#DejaVuSans-31"/>
       <use xlink:href="#DejaVuSans-31" transform="translate(63.623047 0)"/>
       <use xlink:href="#DejaVuSans-30" transform="translate(127.246094 0)"/>
      </g>
     </g>
    </g>
    <g id="ytick_6">
     <g id="line2d_25">
      <path d="M 52.71875 28.102882 
L 379.865114 28.102882 
" clip-path="url(#pfac1bbac37)" style="fill: none; stroke: #b0b0b0; stroke-opacity: 0.3; stroke-width: 0.8; stroke-linecap: square"/>
     </g>
     <g id="line2d_26">
      <g>
       <use xlink:href="#m8f7f99e4f9" x="52.71875" y="28.102882" style="stroke: #000000; stroke-width: 0.8"/>
      </g>
     </g>
     <g id="text_14">
      <!-- 120 -->
      <g transform="translate(22.81375 32.661944) scale(0.12 -0.12)">
       <use xlink:href="#DejaVuSans-31"/>
       <use xlink:href="#DejaVuSans-32" transform="translate(63.623047 0)"/>
       <use xlink:href="#DejaVuSans-30" transform="translate(127.246094 0)"/>
      </g>
     </g>
    </g>
    <g id="text_15">
     <!-- $T/\Omega$  (% / RPM) -->
     <g transform="translate(16.318125 188.937969) rotate(-90) scale(0.12 -0.12)">
      <defs>
       <path id="DejaVuSans-Oblique-54" d="M 378 4666 
L 4325 4666 
L 4225 4134 
L 2559 4134 
L 1759 0 
L 1125 0 
L 1925 4134 
L 275 4134 
L 378 4666 
z
" transform="scale(0.015625)"/>
       <path id="DejaVuSans-2f" d="M 1625 4666 
L 2156 4666 
L 531 -594 
L 0 -594 
L 1625 4666 
z
" transform="scale(0.015625)"/>
       <path id="DejaVuSans-3a9" d="M 4647 556 
L 4647 0 
L 2772 0 
L 2772 556 
Q 3325 859 3634 1378 
Q 3944 1897 3944 2528 
Q 3944 3278 3531 3731 
Q 3119 4184 2444 4184 
Q 1769 4184 1355 3729 
Q 941 3275 941 2528 
Q 941 1897 1250 1378 
Q 1563 859 2119 556 
L 2119 0 
L 244 0 
L 244 556 
L 1241 556 
Q 747 991 519 1456 
Q 294 1922 294 2497 
Q 294 3491 894 4106 
Q 1491 4722 2444 4722 
Q 3391 4722 3994 4106 
Q 4594 3494 4594 2528 
Q 4594 1922 4372 1459 
Q 4150 997 3647 556 
L 4647 556 
z
" transform="scale(0.015625)"/>
       <path id="DejaVuSans-25" d="M 4653 2053 
Q 4381 2053 4226 1822 
Q 4072 1591 4072 1178 
Q 4072 772 4226 539 
Q 4381 306 4653 306 
Q 4919 306 5073 539 
Q 5228 772 5228 1178 
Q 5228 1588 5073 1820 
Q 4919 2053 4653 2053 
z
M 4653 2450 
Q 5147 2450 5437 2106 
Q 5728 1763 5728 1178 
Q 5728 594 5436 251 
Q 5144 -91 4653 -91 
Q 4153 -91 3862 251 
Q 3572 594 3572 1178 
Q 3572 1766 3864 2108 
Q 4156 2450 4653 2450 
z
M 1428 4353 
Q 1159 4353 1004 4120 
Q 850 3888 850 3481 
Q 850 3069 1003 2837 
Q 1156 2606 1428 2606 
Q 1700 2606 1854 2837 
Q 2009 3069 2009 3481 
Q 2009 3884 1853 4118 
Q 1697 4353 1428 4353 
z
M 4250 4750 
L 4750 4750 
L 1831 -91 
L 1331 -91 
L 4250 4750 
z
M 1428 4750 
Q 1922 4750 2215 4408 
Q 2509 4066 2509 3481 
Q 2509 2891 2217 2550 
Q 1925 2209 1428 2209 
Q 931 2209 642 2551 
Q 353 2894 353 3481 
Q 353 4063 643 4406 
Q 934 4750 1428 4750 
z
" transform="scale(0.015625)"/>
       <path id="DejaVuSans-52" d="M 2841 2188 
Q 3044 2119 3236 1894 
Q 3428 1669 3622 1275 
L 4263 0 
L 3584 0 
L 2988 1197 
Q 2756 1666 2539 1819 
Q 2322 1972 1947 1972 
L 1259 1972 
L 1259 0 
L 628 0 
L 628 4666 
L 2053 4666 
Q 2853 4666 3247 4331 
Q 3641 3997 3641 3322 
Q 3641 2881 3436 2590 
Q 3231 2300 2841 2188 
z
M 1259 4147 
L 1259 2491 
L 2053 2491 
Q 2509 2491 2742 2702 
Q 2975 2913 2975 3322 
Q 2975 3731 2742 3939 
Q 2509 4147 2053 4147 
L 1259 4147 
z
" transform="scale(0.015625)"/>
       <path id="DejaVuSans-50" d="M 1259 4147 
L 1259 2394 
L 2053 2394 
Q 2494 2394 2734 2622 
Q 2975 2850 2975 3272 
Q 2975 3691 2734 3919 
Q 2494 4147 2053 4147 
L 1259 4147 
z
M 628 4666 
L 2053 4666 
Q 2838 4666 3239 4311 
Q 3641 3956 3641 3272 
Q 3641 2581 3239 2228 
Q 2838 1875 2053 1875 
L 1259 1875 
L 1259 0 
L 628 0 
L 628 4666 
z
" transform="scale(0.015625)"/>
       <path id="DejaVuSans-4d" d="M 628 4666 
L 1569 4666 
L 2759 1491 
L 3956 4666 
L 4897 4666 
L 4897 0 
L 4281 0 
L 4281 4097 
L 3078 897 
L 2444 897 
L 1241 4097 
L 1241 0 
L 628 0 
L 628 4666 
z
" transform="scale(0.015625)"/>
      </defs>
      <use xlink:href="#DejaVuSans-Oblique-54" transform="translate(0 0.125)"/>
      <use xlink:href="#DejaVuSans-2f" transform="translate(61.083984 0.125)"/>
      <use xlink:href="#DejaVuSans-3a9" transform="translate(94.775391 0.125)"/>
      <use xlink:href="#DejaVuSans-20" transform="translate(171.191406 0.125)"/>
      <use xlink:href="#DejaVuSans-20" transform="translate(202.978516 0.125)"/>
      <use xlink:href="#DejaVuSans-28" transform="translate(234.765625 0.125)"/>
      <use xlink:href="#DejaVuSans-25" transform="translate(273.779297 0.125)"/>
      <use xlink:href="#DejaVuSans-20" transform="translate(368.798828 0.125)"/>
      <use xlink:href="#DejaVuSans-2f" transform="translate(400.585938 0.125)"/>
      <use xlink:href="#DejaVuSans-20" transform="translate(434.277344 0.125)"/>
      <use xlink:href="#DejaVuSans-52" transform="translate(466.064453 0.125)"/>
      <use xlink:href="#DejaVuSans-50" transform="translate(535.546875 0.125)"/>
      <use xlink:href="#DejaVuSans-4d" transform="translate(595.849609 0.125)"/>
      <use xlink:href="#DejaVuSans-29" transform="translate(682.128906 0.125)"/>
     </g>
    </g>
   </g>
   <g id="line2d_27">
    <path d="M 67.589039 36.126001 
L 73.557048 45.193535 
L 79.525057 53.832486 
L 85.493066 62.11201 
L 92.455744 71.366747 
L 98.423753 78.95408 
L 104.391762 86.243655 
L 111.354439 94.399513 
L 118.317116 102.209017 
L 125.279794 109.683751 
L 132.242471 116.851643 
L 139.205148 123.715694 
L 147.162493 131.25097 
L 155.119839 138.460492 
L 163.077184 145.35217 
L 171.03453 151.961211 
L 178.991875 158.296857 
L 187.943889 165.123146 
L 195.901234 170.938845 
L 204.853248 177.201744 
L 213.805261 183.191382 
L 223.751943 189.568958 
L 232.703957 195.057807 
L 242.650639 200.908938 
L 253.591988 207.038884 
L 265.528007 213.401775 
L 274.48002 217.961222 
L 285.42137 223.314064 
L 295.368052 227.985853 
L 307.30407 233.333557 
L 318.24542 238.027202 
L 330.181438 242.93709 
L 342.117456 247.622955 
L 356.042811 252.837664 
L 364.994824 256.061529 
L 364.994824 256.061529 
" clip-path="url(#pfac1bbac37)" style="fill: none; stroke: #1f77b4; stroke-width: 2; stroke-linecap: square"/>
   </g>
   <g id="line2d_28">
    <defs>
     <path id="m82e262471d" d="M 0 2.5 
C 0.663008 2.5 1.29895 2.236584 1.767767 1.767767 
C 2.236584 1.29895 2.5 0.663008 2.5 0 
C 2.5 -0.663008 2.236584 -1.29895 1.767767 -1.767767 
C 1.29895 -2.236584 0.663008 -2.5 0 -2.5 
C -0.663008 -2.5 -1.29895 -2.236584 -1.767767 -1.767767 
C -2.236584 -1.29895 -2.5 -0.663008 -2.5 0 
C -2.5 0.663008 -2.236584 1.29895 -1.767767 1.767767 
C -1.29895 2.236584 -0.663008 2.5 0 2.5 
z
" style="stroke: #000000"/>
    </defs>
    <g clip-path="url(#pfac1bbac37)">
     <use xlink:href="#m82e262471d" x="67.589039" y="35.389168" style="fill: #ffffff; stroke: #000000"/>
     <use xlink:href="#m82e262471d" x="85.083497" y="63.267132" style="fill: #ffffff; stroke: #000000"/>
     <use xlink:href="#m82e262471d" x="102.577955" y="84.060407" style="fill: #ffffff; stroke: #000000"/>
     <use xlink:href="#m82e262471d" x="120.072413" y="104.536887" style="fill: #ffffff; stroke: #000000"/>
     <use xlink:href="#m82e262471d" x="137.566871" y="120.866232" style="fill: #ffffff; stroke: #000000"/>
     <use xlink:href="#m82e262471d" x="155.061329" y="138.030763" style="fill: #ffffff; stroke: #000000"/>
     <use xlink:href="#m82e262471d" x="172.555787" y="152.084944" style="fill: #ffffff; stroke: #000000"/>
     <use xlink:href="#m82e262471d" x="190.050245" y="166.715115" style="fill: #ffffff; stroke: #000000"/>
     <use xlink:href="#m82e262471d" x="207.544703" y="178.897324" style="fill: #ffffff; stroke: #000000"/>
     <use xlink:href="#m82e262471d" x="225.039161" y="192.00112" style="fill: #ffffff; stroke: #000000"/>
     <use xlink:href="#m82e262471d" x="242.533619" y="200.986579" style="fill: #ffffff; stroke: #000000"/>
     <use xlink:href="#m82e262471d" x="260.028077" y="211.124021" style="fill: #ffffff; stroke: #000000"/>
     <use xlink:href="#m82e262471d" x="277.522535" y="219.187895" style="fill: #ffffff; stroke: #000000"/>
     <use xlink:href="#m82e262471d" x="295.016993" y="228.144555" style="fill: #ffffff; stroke: #000000"/>
     <use xlink:href="#m82e262471d" x="312.511451" y="235.661237" style="fill: #ffffff; stroke: #000000"/>
     <use xlink:href="#m82e262471d" x="330.005908" y="243.321917" style="fill: #ffffff; stroke: #000000"/>
     <use xlink:href="#m82e262471d" x="347.500366" y="249.657818" style="fill: #ffffff; stroke: #000000"/>
     <use xlink:href="#m82e262471d" x="364.994824" y="254.928136" style="fill: #ffffff; stroke: #000000"/>
    </g>
   </g>
   <g id="patch_3">
    <path d="M 52.71875 268.157969 
L 52.71875 23.077969 
" style="fill: none; stroke: #000000; stroke-width: 0.8; stroke-linejoin: miter; stroke-linecap: square"/>
   </g>
   <g id="patch_4">
    <path d="M 379.865114 268.157969 
L 379.865114 23.077969 
" style="fill: none; stroke: #000000; stroke-width: 0.8; stroke-linejoin: miter; stroke-linecap: square"/>
   </g>
   <g id="patch_5">
    <path d="M 52.71875 268.157969 
L 379.865114 268.157969 
" style="fill: none; stroke: #000000; stroke-width: 0.8; stroke-linejoin: miter; stroke-linecap: square"/>
   </g>
   <g id="patch_6">
    <path d="M 52.71875 23.077969 
L 379.865114 23.077969 
" style="fill: none; stroke: #000000; stroke-width: 0.8; stroke-linejoin: miter; stroke-linecap: square"/>
   </g>
   <g id="text_16">
    <!-- Rotational drag vs gap height — 70kcp -->
    <g transform="translate(89.592713 17.077969) scale(0.13 -0.13)">
     <defs>
      <path id="DejaVuSans-6f" d="M 1959 3097 
Q 1497 3097 1228 2736 
Q 959 2375 959 1747 
Q 959 1119 1226 758 
Q 1494 397 1959 397 
Q 2419 397 2687 759 
Q 2956 1122 2956 1747 
Q 2956 2369 2687 2733 
Q 2419 3097 1959 3097 
z
M 1959 3584 
Q 2709 3584 3137 3096 
Q 3566 2609 3566 1747 
Q 3566 888 3137 398 
Q 2709 -91 1959 -91 
Q 1206 -91 779 398 
Q 353 888 353 1747 
Q 353 2609 779 3096 
Q 1206 3584 1959 3584 
z
" transform="scale(0.015625)"/>
      <path id="DejaVuSans-6e" d="M 3513 2113 
L 3513 0 
L 2938 0 
L 2938 2094 
Q 2938 2591 2744 2837 
Q 2550 3084 2163 3084 
Q 1697 3084 1428 2787 
Q 1159 2491 1159 1978 
L 1159 0 
L 581 0 
L 581 3500 
L 1159 3500 
L 1159 2956 
Q 1366 3272 1645 3428 
Q 1925 3584 2291 3584 
Q 2894 3584 3203 3211 
Q 3513 2838 3513 2113 
z
" transform="scale(0.015625)"/>
      <path id="DejaVuSans-6c" d="M 603 4863 
L 1178 4863 
L 1178 0 
L 603 0 
L 603 4863 
z
" transform="scale(0.015625)"/>
      <path id="DejaVuSans-64" d="M 2906 2969 
L 2906 4863 
L 3481 4863 
L 3481 0 
L 2906 0 
L 2906 525 
Q 2725 213 2448 61 
Q 2172 -91 1784 -91 
Q 1150 -91 751 415 
Q 353 922 353 1747 
Q 353 2572 751 3078 
Q 1150 3584 1784 3584 
Q 2172 3584 2448 3432 
Q 2725 3281 2906 2969 
z
M 947 1747 
Q 947 1113 1208 752 
Q 1469 391 1925 391 
Q 2381 391 2643 752 
Q 2906 1113 2906 1747 
Q 2906 2381 2643 2742 
Q 2381 3103 1925 3103 
Q 1469 3103 1208 2742 
Q 947 2381 947 1747 
z
" transform="scale(0.015625)"/>
      <path id="DejaVuSans-72" d="M 2631 2963 
Q 2534 3019 2420 3045 
Q 2306 3072 2169 3072 
Q 1681 3072 1420 2755 
Q 1159 2438 1159 1844 
L 1159 0 
L 581 0 
L 581 3500 
L 1159 3500 
L 1159 2956 
Q 1341 3275 1631 3429 
Q 1922 3584 2338 3584 
Q 2397 3584 2469 3576 
Q 2541 3569 2628 3553 
L 2631 2963 
z
" transform="scale(0.015625)"/>
      <path id="DejaVuSans-76" d="M 191 3500 
L 800 3500 
L 1894 563 
L 2988 3500 
L 3597 3500 
L 2284 0 
L 1503 0 
L 191 3500 
z
" transform="scale(0.015625)"/>
      <path id="DejaVuSans-73" d="M 2834 3397 
L 2834 2853 
Q 2591 2978 2328 3040 
Q 2066 3103 1784 3103 
Q 1356 3103 1142 2972 
Q 928 2841 928 2578 
Q 928 2378 1081 2264 
Q 1234 2150 1697 2047 
L 1894 2003 
Q 2506 1872 2764 1633 
Q 3022 1394 3022 966 
Q 3022 478 2636 193 
Q 2250 -91 1575 -91 
Q 1294 -91 989 -36 
Q 684 19 347 128 
L 347 722 
Q 666 556 975 473 
Q 1284 391 1588 391 
Q 1994 391 2212 530 
Q 2431 669 2431 922 
Q 2431 1156 2273 1281 
Q 2116 1406 1581 1522 
L 1381 1569 
Q 847 1681 609 1914 
Q 372 2147 372 2553 
Q 372 3047 722 3315 
Q 1072 3584 1716 3584 
Q 2034 3584 2315 3537 
Q 2597 3491 2834 3397 
z
" transform="scale(0.015625)"/>
      <path id="DejaVuSans-2014" d="M 313 1978 
L 6088 1978 
L 6088 1528 
L 313 1528 
L 313 1978 
z
" transform="scale(0.015625)"/>
      <path id="DejaVuSans-6b" d="M 581 4863 
L 1159 4863 
L 1159 1991 
L 2875 3500 
L 3609 3500 
L 1753 1863 
L 3688 0 
L 2938 0 
L 1159 1709 
L 1159 0 
L 581 0 
L 581 4863 
z
" transform="scale(0.015625)"/>
      <path id="DejaVuSans-63" d="M 3122 3366 
L 3122 2828 
Q 2878 2963 2633 3030 
Q 2388 3097 2138 3097 
Q 1578 3097 1268 2742 
Q 959 2388 959 1747 
Q 959 1106 1268 751 
Q 1578 397 2138 397 
Q 2388 397 2633 464 
Q 2878 531 3122 666 
L 3122 134 
Q 2881 22 2623 -34 
Q 2366 -91 2075 -91 
Q 1284 -91 818 406 
Q 353 903 353 1747 
Q 353 2603 823 3093 
Q 1294 3584 2113 3584 
Q 2378 3584 2631 3529 
Q 2884 3475 3122 3366 
z
" transform="scale(0.015625)"/>
     </defs>
     <use xlink:href="#DejaVuSans-52"/>
     <use xlink:href="#DejaVuSans-6f" transform="translate(64.982422 0)"/>
     <use xlink:href="#DejaVuSans-74" transform="translate(126.164062 0)"/>
     <use xlink:href="#DejaVuSans-61" transform="translate(165.373047 0)"/>
     <use xlink:href="#DejaVuSans-74" transform="translate(226.652344 0)"/>
     <use xlink:href="#DejaVuSans-69" transform="translate(265.861328 0)"/>
     <use xlink:href="#DejaVuSans-6f" transform="translate(293.644531 0)"/>
     <use xlink:href="#DejaVuSans-6e" transform="translate(354.826172 0)"/>
     <use xlink:href="#DejaVuSans-61" transform="translate(418.205078 0)"/>
     <use xlink:href="#DejaVuSans-6c" transform="translate(479.484375 0)"/>
     <use xlink:href="#DejaVuSans-20" transform="translate(507.267578 0)"/>
     <use xlink:href="#DejaVuSans-64" transform="translate(539.054688 0)"/>
     <use xlink:href="#DejaVuSans-72" transform="translate(602.53125 0)"/>
     <use xlink:href="#DejaVuSans-61" transform="translate(643.644531 0)"/>
     <use xlink:href="#DejaVuSans-67" transform="translate(704.923828 0)"/>
     <use xlink:href="#DejaVuSans-20" transform="translate(768.400391 0)"/>
     <use xlink:href="#DejaVuSans-76" transform="translate(800.1875 0)"/>
     <use xlink:href="#DejaVuSans-73" transform="translate(859.367188 0)"/>
     <use xlink:href="#DejaVuSans-20" transform="translate(911.466797 0)"/>
     <use xlink:href="#DejaVuSans-67" transform="translate(943.253906 0)"/>
     <use xlink:href="#DejaVuSans-61" transform="translate(1006.730469 0)"/>
     <use xlink:href="#DejaVuSans-70" transform="translate(1068.009766 0)"/>
     <use xlink:href="#DejaVuSans-20" transform="translate(1131.486328 0)"/>
     <use xlink:href="#DejaVuSans-68" transform="translate(1163.273438 0)"/>
     <use xlink:href="#DejaVuSans-65" transform="translate(1226.652344 0)"/>
     <use xlink:href="#DejaVuSans-69" transform="translate(1288.175781 0)"/>
     <use xlink:href="#DejaVuSans-67" transform="translate(1315.958984 0)"/>
     <use xlink:href="#DejaVuSans-68" transform="translate(1379.435547 0)"/>
     <use xlink:href="#DejaVuSans-74" transform="translate(1442.814453 0)"/>
     <use xlink:href="#DejaVuSans-20" transform="translate(1482.023438 0)"/>
     <use xlink:href="#DejaVuSans-2014" transform="translate(1513.810547 0)"/>
     <use xlink:href="#DejaVuSans-20" transform="translate(1613.810547 0)"/>
     <use xlink:href="#DejaVuSans-37" transform="translate(1645.597656 0)"/>
     <use xlink:href="#DejaVuSans-30" transform="translate(1709.220703 0)"/>
     <use xlink:href="#DejaVuSans-6b" transform="translate(1772.84375 0)"/>
     <use xlink:href="#DejaVuSans-63" transform="translate(1830.753906 0)"/>
     <use xlink:href="#DejaVuSans-70" transform="translate(1885.734375 0)"/>
    </g>
   </g>
   <g id="legend_1">
    <g id="patch_7">
     <path d="M 240.585426 39.676406 
L 260.585426 39.676406 
L 260.585426 32.676406 
L 240.585426 32.676406 
z
" style="fill: #1f77b4; fill-opacity: 0.2; stroke: #1f77b4; stroke-opacity: 0.2; stroke-linejoin: miter"/>
    </g>
    <g id="text_17">
     <!-- 95 % CI -->
     <g transform="translate(268.585426 39.676406) scale(0.1 -0.1)">
      <defs>
       <path id="DejaVuSans-43" d="M 4122 4306 
L 4122 3641 
Q 3803 3938 3442 4084 
Q 3081 4231 2675 4231 
Q 1875 4231 1450 3742 
Q 1025 3253 1025 2328 
Q 1025 1406 1450 917 
Q 1875 428 2675 428 
Q 3081 428 3442 575 
Q 3803 722 4122 1019 
L 4122 359 
Q 3791 134 3420 21 
Q 3050 -91 2638 -91 
Q 1578 -91 968 557 
Q 359 1206 359 2328 
Q 359 3453 968 4101 
Q 1578 4750 2638 4750 
Q 3056 4750 3426 4639 
Q 3797 4528 4122 4306 
z
" transform="scale(0.015625)"/>
       <path id="DejaVuSans-49" d="M 628 4666 
L 1259 4666 
L 1259 0 
L 628 0 
L 628 4666 
z
" transform="scale(0.015625)"/>
      </defs>
      <use xlink:href="#DejaVuSans-39"/>
      <use xlink:href="#DejaVuSans-35" transform="translate(63.623047 0)"/>
      <use xlink:href="#DejaVuSans-20" transform="translate(127.246094 0)"/>
      <use xlink:href="#DejaVuSans-25" transform="translate(159.033203 0)"/>
      <use xlink:href="#DejaVuSans-20" transform="translate(254.052734 0)"/>
      <use xlink:href="#DejaVuSans-43" transform="translate(285.839844 0)"/>
      <use xlink:href="#DejaVuSans-49" transform="translate(355.664062 0)"/>
     </g>
    </g>
    <g id="line2d_29">
     <path d="M 240.585426 50.854531 
L 250.585426 50.854531 
L 260.585426 50.854531 
" style="fill: none; stroke: #1f77b4; stroke-width: 2; stroke-linecap: square"/>
    </g>
    <g id="text_18">
     <!-- best fit (regularized) -->
     <g transform="translate(268.585426 54.354531) scale(0.1 -0.1)">
      <defs>
       <path id="DejaVuSans-62" d="M 3116 1747 
Q 3116 2381 2855 2742 
Q 2594 3103 2138 3103 
Q 1681 3103 1420 2742 
Q 1159 2381 1159 1747 
Q 1159 1113 1420 752 
Q 1681 391 2138 391 
Q 2594 391 2855 752 
Q 3116 1113 3116 1747 
z
M 1159 2969 
Q 1341 3281 1617 3432 
Q 1894 3584 2278 3584 
Q 2916 3584 3314 3078 
Q 3713 2572 3713 1747 
Q 3713 922 3314 415 
Q 2916 -91 2278 -91 
Q 1894 -91 1617 61 
Q 1341 213 1159 525 
L 1159 0 
L 581 0 
L 581 4863 
L 1159 4863 
L 1159 2969 
z
" transform="scale(0.015625)"/>
       <path id="DejaVuSans-66" d="M 2375 4863 
L 2375 4384 
L 1825 4384 
Q 1516 4384 1395 4259 
Q 1275 4134 1275 3809 
L 1275 3500 
L 2222 3500 
L 2222 3053 
L 1275 3053 
L 1275 0 
L 697 0 
L 697 3053 
L 147 3053 
L 147 3500 
L 697 3500 
L 697 3744 
Q 697 4328 969 4595 
Q 1241 4863 1831 4863 
L 2375 4863 
z
" transform="scale(0.015625)"/>
       <path id="DejaVuSans-75" d="M 544 1381 
L 544 3500 
L 1119 3500 
L 1119 1403 
Q 1119 906 1312 657 
Q 1506 409 1894 409 
Q 2359 409 2629 706 
Q 2900 1003 2900 1516 
L 2900 3500 
L 3475 3500 
L 3475 0 
L 2900 0 
L 2900 538 
Q 2691 219 2414 64 
Q 2138 -91 1772 -91 
Q 1169 -91 856 284 
Q 544 659 544 1381 
z
M 1991 3584 
L 1991 3584 
z
" transform="scale(0.015625)"/>
       <path id="DejaVuSans-7a" d="M 353 3500 
L 3084 3500 
L 3084 2975 
L 922 459 
L 3084 459 
L 3084 0 
L 275 0 
L 275 525 
L 2438 3041 
L 353 3041 
L 353 3500 
z
" transform="scale(0.015625)"/>
      </defs>
      <use xlink:href="#DejaVuSans-62"/>
      <use xlink:href="#DejaVuSans-65" transform="translate(63.476562 0)"/>
      <use xlink:href="#DejaVuSans-73" transform="translate(125 0)"/>
      <use xlink:href="#DejaVuSans-74" transform="translate(177.099609 0)"/>
      <use xlink:href="#DejaVuSans-20" transform="translate(216.308594 0)"/>
      <use xlink:href="#DejaVuSans-66" transform="translate(248.095703 0)"/>
      <use xlink:href="#DejaVuSans-69" transform="translate(283.300781 0)"/>
      <use xlink:href="#DejaVuSans-74" transform="translate(311.083984 0)"/>
      <use xlink:href="#DejaVuSans-20" transform="translate(350.292969 0)"/>
      <use xlink:href="#DejaVuSans-28" transform="translate(382.080078 0)"/>
      <use xlink:href="#DejaVuSans-72" transform="translate(421.09375 0)"/>
      <use xlink:href="#DejaVuSans-65" transform="translate(459.957031 0)"/>
      <use xlink:href="#DejaVuSans-67" transform="translate(521.480469 0)"/>
      <use xlink:href="#DejaVuSans-75" transform="translate(584.957031 0)"/>
      <use xlink:href="#DejaVuSans-6c" transform="translate(648.335938 0)"/>
      <use xlink:href="#DejaVuSans-61" transform="translate(676.119141 0)"/>
      <use xlink:href="#DejaVuSans-72" transform="translate(737.398438 0)"/>
      <use xlink:href="#DejaVuSans-69" transform="translate(778.511719 0)"/>
      <use xlink:href="#DejaVuSans-7a" transform="translate(806.294922 0)"/>
      <use xlink:href="#DejaVuSans-65" transform="translate(858.785156 0)"/>
      <use xlink:href="#DejaVuSans-64" transform="translate(920.308594 0)"/>
      <use xlink:href="#DejaVuSans-29" transform="translate(983.785156 0)"/>
     </g>
    </g>
    <g id="line2d_30">
     <g>
      <use xlink:href="#m82e262471d" x="250.585426" y="65.532656" style="fill: #ffffff; stroke: #000000"/>
     </g>
    </g>
    <g id="text_19">
     <!-- data -->
     <g transform="translate(268.585426 69.032656) scale(0.1 -0.1)">
      <use xlink:href="#DejaVuSans-64"/>
      <use xlink:href="#DejaVuSans-61" transform="translate(63.476562 0)"/>
      <use xlink:href="#DejaVuSans-74" transform="translate(124.755859 0)"/>
      <use xlink:href="#DejaVuSans-61" transform="translate(163.964844 0)"/>
     </g>
    </g>
   </g>
  </g>
  <g id="axes_2">
   <g id="patch_8">
    <path d="M 444.734205 268.157969 
L 771.880568 268.157969 
L 771.880568 23.077969 
L 444.734205 23.077969 
z
" style="fill: #ffffff"/>
   </g>
   <g id="PathCollection_1">
    <defs>
     <path id="mdb5d7ed20b" d="M 0 3 
C 0.795609 3 1.55874 2.683901 2.12132 2.12132 
C 2.683901 1.55874 3 0.795609 3 0 
C 3 -0.795609 2.683901 -1.55874 2.12132 -2.12132 
C 1.55874 -2.683901 0.795609 -3 0 -3 
C -0.795609 -3 -1.55874 -2.683901 -2.12132 -2.12132 
C -2.683901 -1.55874 -3 -0.795609 -3 0 
C -3 0.795609 -2.683901 1.55874 -2.12132 2.12132 
C -1.55874 2.683901 -0.795609 3 0 3 
z
" style="stroke: #000000"/>
    </defs>
    <g clip-path="url(#p228ae49e95)">
     <use xlink:href="#mdb5d7ed20b" x="459.604494" y="71.779986" style="fill: #1f77b4; stroke: #000000"/>
     <use xlink:href="#mdb5d7ed20b" x="477.098952" y="257.017969" style="fill: #1f77b4; stroke: #000000"/>
     <use xlink:href="#mdb5d7ed20b" x="494.59341" y="131.147635" style="fill: #1f77b4; stroke: #000000"/>
     <use xlink:href="#mdb5d7ed20b" x="512.087868" y="160.391044" style="fill: #1f77b4; stroke: #000000"/>
     <use xlink:href="#mdb5d7ed20b" x="529.582326" y="34.217969" style="fill: #1f77b4; stroke: #000000"/>
     <use xlink:href="#mdb5d7ed20b" x="547.076784" y="99.076045" style="fill: #1f77b4; stroke: #000000"/>
     <use xlink:href="#mdb5d7ed20b" x="564.571241" y="45.270272" style="fill: #1f77b4; stroke: #000000"/>
     <use xlink:href="#mdb5d7ed20b" x="582.065699" y="130.645312" style="fill: #1f77b4; stroke: #000000"/>
     <use xlink:href="#mdb5d7ed20b" x="599.560157" y="119.322131" style="fill: #1f77b4; stroke: #000000"/>
     <use xlink:href="#mdb5d7ed20b" x="617.054615" y="250.206946" style="fill: #1f77b4; stroke: #000000"/>
     <use xlink:href="#mdb5d7ed20b" x="634.549073" y="141.934465" style="fill: #1f77b4; stroke: #000000"/>
     <use xlink:href="#mdb5d7ed20b" x="652.043531" y="176.875453" style="fill: #1f77b4; stroke: #000000"/>
     <use xlink:href="#mdb5d7ed20b" x="669.537989" y="110.203733" style="fill: #1f77b4; stroke: #000000"/>
     <use xlink:href="#mdb5d7ed20b" x="687.032447" y="155.859696" style="fill: #1f77b4; stroke: #000000"/>
     <use xlink:href="#mdb5d7ed20b" x="704.526905" y="136.649441" style="fill: #1f77b4; stroke: #000000"/>
     <use xlink:href="#mdb5d7ed20b" x="722.021363" y="165.631067" style="fill: #1f77b4; stroke: #000000"/>
     <use xlink:href="#mdb5d7ed20b" x="739.515821" y="130.629271" style="fill: #1f77b4; stroke: #000000"/>
     <use xlink:href="#mdb5d7ed20b" x="757.010279" y="47.687443" style="fill: #1f77b4; stroke: #000000"/>
    </g>
   </g>
   <g id="matplotlib.axis_3">
    <g id="xtick_8">
     <g id="line2d_31">
      <path d="M 485.846181 268.157969 
L 485.846181 23.077969 
" clip-path="url(#p228ae49e95)" style="fill: none; stroke: #b0b0b0; stroke-opacity: 0.3; stroke-width: 0.8; stroke-linecap: square"/>
     </g>
     <g id="line2d_32">
      <g>
       <use xlink:href="#mac2dd4f811" x="485.846181" y="268.157969" style="stroke: #000000; stroke-width: 0.8"/>
      </g>
     </g>
     <g id="text_20">
      <!-- 0.05 -->
      <g transform="translate(472.486806 284.276094) scale(0.12 -0.12)">
       <use xlink:href="#DejaVuSans-30"/>
       <use xlink:href="#DejaVuSans-2e" transform="translate(63.623047 0)"/>
       <use xlink:href="#DejaVuSans-30" transform="translate(95.410156 0)"/>
       <use xlink:href="#DejaVuSans-35" transform="translate(159.033203 0)"/>
      </g>
     </g>
    </g>
    <g id="xtick_9">
     <g id="line2d_33">
      <path d="M 529.582326 268.157969 
L 529.582326 23.077969 
" clip-path="url(#p228ae49e95)" style="fill: none; stroke: #b0b0b0; stroke-opacity: 0.3; stroke-width: 0.8; stroke-linecap: square"/>
     </g>
     <g id="line2d_34">
      <g>
       <use xlink:href="#mac2dd4f811" x="529.582326" y="268.157969" style="stroke: #000000; stroke-width: 0.8"/>
      </g>
     </g>
     <g id="text_21">
      <!-- 0.10 -->
      <g transform="translate(516.222951 284.276094) scale(0.12 -0.12)">
       <use xlink:href="#DejaVuSans-30"/>
       <use xlink:href="#DejaVuSans-2e" transform="translate(63.623047 0)"/>
       <use xlink:href="#DejaVuSans-31" transform="translate(95.410156 0)"/>
       <use xlink:href="#DejaVuSans-30" transform="translate(159.033203 0)"/>
      </g>
     </g>
    </g>
    <g id="xtick_10">
     <g id="line2d_35">
      <path d="M 573.31847 268.157969 
L 573.31847 23.077969 
" clip-path="url(#p228ae49e95)" style="fill: none; stroke: #b0b0b0; stroke-opacity: 0.3; stroke-width: 0.8; stroke-linecap: square"/>
     </g>
     <g id="line2d_36">
      <g>
       <use xlink:href="#mac2dd4f811" x="573.31847" y="268.157969" style="stroke: #000000; stroke-width: 0.8"/>
      </g>
     </g>
     <g id="text_22">
      <!-- 0.15 -->
      <g transform="translate(559.959095 284.276094) scale(0.12 -0.12)">
       <use xlink:href="#DejaVuSans-30"/>
       <use xlink:href="#DejaVuSans-2e" transform="translate(63.623047 0)"/>
       <use xlink:href="#DejaVuSans-31" transform="translate(95.410156 0)"/>
       <use xlink:href="#DejaVuSans-35" transform="translate(159.033203 0)"/>
      </g>
     </g>
    </g>
    <g id="xtick_11">
     <g id="line2d_37">
      <path d="M 617.054615 268.157969 
L 617.054615 23.077969 
" clip-path="url(#p228ae49e95)" style="fill: none; stroke: #b0b0b0; stroke-opacity: 0.3; stroke-width: 0.8; stroke-linecap: square"/>
     </g>
     <g id="line2d_38">
      <g>
       <use xlink:href="#mac2dd4f811" x="617.054615" y="268.157969" style="stroke: #000000; stroke-width: 0.8"/>
      </g>
     </g>
     <g id="text_23">
      <!-- 0.20 -->
      <g transform="translate(603.69524 284.276094) scale(0.12 -0.12)">
       <use xlink:href="#DejaVuSans-30"/>
       <use xlink:href="#DejaVuSans-2e" transform="translate(63.623047 0)"/>
       <use xlink:href="#DejaVuSans-32" transform="translate(95.410156 0)"/>
       <use xlink:href="#DejaVuSans-30" transform="translate(159.033203 0)"/>
      </g>
     </g>
    </g>
    <g id="xtick_12">
     <g id="line2d_39">
      <path d="M 660.79076 268.157969 
L 660.79076 23.077969 
" clip-path="url(#p228ae49e95)" style="fill: none; stroke: #b0b0b0; stroke-opacity: 0.3; stroke-width: 0.8; stroke-linecap: square"/>
     </g>
     <g id="line2d_40">
      <g>
       <use xlink:href="#mac2dd4f811" x="660.79076" y="268.157969" style="stroke: #000000; stroke-width: 0.8"/>
      </g>
     </g>
     <g id="text_24">
      <!-- 0.25 -->
      <g transform="translate(647.431385 284.276094) scale(0.12 -0.12)">
       <use xlink:href="#DejaVuSans-30"/>
       <use xlink:href="#DejaVuSans-2e" transform="translate(63.623047 0)"/>
       <use xlink:href="#DejaVuSans-32" transform="translate(95.410156 0)"/>
       <use xlink:href="#DejaVuSans-35" transform="translate(159.033203 0)"/>
      </g>
     </g>
    </g>
    <g id="xtick_13">
     <g id="line2d_41">
      <path d="M 704.526905 268.157969 
L 704.526905 23.077969 
" clip-path="url(#p228ae49e95)" style="fill: none; stroke: #b0b0b0; stroke-opacity: 0.3; stroke-width: 0.8; stroke-linecap: square"/>
     </g>
     <g id="line2d_42">
      <g>
       <use xlink:href="#mac2dd4f811" x="704.526905" y="268.157969" style="stroke: #000000; stroke-width: 0.8"/>
      </g>
     </g>
     <g id="text_25">
      <!-- 0.30 -->
      <g transform="translate(691.16753 284.276094) scale(0.12 -0.12)">
       <use xlink:href="#DejaVuSans-30"/>
       <use xlink:href="#DejaVuSans-2e" transform="translate(63.623047 0)"/>
       <use xlink:href="#DejaVuSans-33" transform="translate(95.410156 0)"/>
       <use xlink:href="#DejaVuSans-30" transform="translate(159.033203 0)"/>
      </g>
     </g>
    </g>
    <g id="xtick_14">
     <g id="line2d_43">
      <path d="M 748.26305 268.157969 
L 748.26305 23.077969 
" clip-path="url(#p228ae49e95)" style="fill: none; stroke: #b0b0b0; stroke-opacity: 0.3; stroke-width: 0.8; stroke-linecap: square"/>
     </g>
     <g id="line2d_44">
      <g>
       <use xlink:href="#mac2dd4f811" x="748.26305" y="268.157969" style="stroke: #000000; stroke-width: 0.8"/>
      </g>
     </g>
     <g id="text_26">
      <!-- 0.35 -->
      <g transform="translate(734.903675 284.276094) scale(0.12 -0.12)">
       <use xlink:href="#DejaVuSans-30"/>
       <use xlink:href="#DejaVuSans-2e" transform="translate(63.623047 0)"/>
       <use xlink:href="#DejaVuSans-33" transform="translate(95.410156 0)"/>
       <use xlink:href="#DejaVuSans-35" transform="translate(159.033203 0)"/>
      </g>
     </g>
    </g>
    <g id="text_27">
     <!-- Gap height $h$ (mm) -->
     <g transform="translate(551.127386 299.891719) scale(0.12 -0.12)">
      <use xlink:href="#DejaVuSans-47" transform="translate(0 0.015625)"/>
      <use xlink:href="#DejaVuSans-61" transform="translate(77.490234 0.015625)"/>
      <use xlink:href="#DejaVuSans-70" transform="translate(138.769531 0.015625)"/>
      <use xlink:href="#DejaVuSans-20" transform="translate(202.246094 0.015625)"/>
      <use xlink:href="#DejaVuSans-68" transform="translate(234.033203 0.015625)"/>
      <use xlink:href="#DejaVuSans-65" transform="translate(297.412109 0.015625)"/>
      <use xlink:href="#DejaVuSans-69" transform="translate(358.935547 0.015625)"/>
      <use xlink:href="#DejaVuSans-67" transform="translate(386.71875 0.015625)"/>
      <use xlink:href="#DejaVuSans-68" transform="translate(450.195312 0.015625)"/>
      <use xlink:href="#DejaVuSans-74" transform="translate(513.574219 0.015625)"/>
      <use xlink:href="#DejaVuSans-20" transform="translate(552.783203 0.015625)"/>
      <use xlink:href="#DejaVuSans-Oblique-68" transform="translate(584.570312 0.015625)"/>
      <use xlink:href="#DejaVuSans-20" transform="translate(647.949219 0.015625)"/>
      <use xlink:href="#DejaVuSans-28" transform="translate(679.736328 0.015625)"/>
      <use xlink:href="#DejaVuSans-6d" transform="translate(718.75 0.015625)"/>
      <use xlink:href="#DejaVuSans-6d" transform="translate(816.162109 0.015625)"/>
      <use xlink:href="#DejaVuSans-29" transform="translate(913.574219 0.015625)"/>
     </g>
    </g>
   </g>
   <g id="matplotlib.axis_4">
    <g id="ytick_7">
     <g id="line2d_45">
      <path d="M 444.734205 259.145971 
L 771.880568 259.145971 
" clip-path="url(#p228ae49e95)" style="fill: none; stroke: #b0b0b0; stroke-opacity: 0.3; stroke-width: 0.8; stroke-linecap: square"/>
     </g>
     <g id="line2d_46">
      <g>
       <use xlink:href="#m8f7f99e4f9" x="444.734205" y="259.145971" style="stroke: #000000; stroke-width: 0.8"/>
      </g>
     </g>
     <g id="text_28">
      <!-- −0.4 -->
      <g transform="translate(408.59483 263.705033) scale(0.12 -0.12)">
       <defs>
        <path id="DejaVuSans-2212" d="M 678 2272 
L 4684 2272 
L 4684 1741 
L 678 1741 
L 678 2272 
z
" transform="scale(0.015625)"/>
        <path id="DejaVuSans-34" d="M 2419 4116 
L 825 1625 
L 2419 1625 
L 2419 4116 
z
M 2253 4666 
L 3047 4666 
L 3047 1625 
L 3713 1625 
L 3713 1100 
L 3047 1100 
L 3047 0 
L 2419 0 
L 2419 1100 
L 313 1100 
L 313 1709 
L 2253 4666 
z
" transform="scale(0.015625)"/>
       </defs>
       <use xlink:href="#DejaVuSans-2212"/>
       <use xlink:href="#DejaVuSans-30" transform="translate(83.789062 0)"/>
       <use xlink:href="#DejaVuSans-2e" transform="translate(147.412109 0)"/>
       <use xlink:href="#DejaVuSans-34" transform="translate(179.199219 0)"/>
      </g>
     </g>
    </g>
    <g id="ytick_8">
     <g id="line2d_47">
      <path d="M 444.734205 227.200393 
L 771.880568 227.200393 
" clip-path="url(#p228ae49e95)" style="fill: none; stroke: #b0b0b0; stroke-opacity: 0.3; stroke-width: 0.8; stroke-linecap: square"/>
     </g>
     <g id="line2d_48">
      <g>
       <use xlink:href="#m8f7f99e4f9" x="444.734205" y="227.200393" style="stroke: #000000; stroke-width: 0.8"/>
      </g>
     </g>
     <g id="text_29">
      <!-- −0.3 -->
      <g transform="translate(408.59483 231.759455) scale(0.12 -0.12)">
       <use xlink:href="#DejaVuSans-2212"/>
       <use xlink:href="#DejaVuSans-30" transform="translate(83.789062 0)"/>
       <use xlink:href="#DejaVuSans-2e" transform="translate(147.412109 0)"/>
       <use xlink:href="#DejaVuSans-33" transform="translate(179.199219 0)"/>
      </g>
     </g>
    </g>
    <g id="ytick_9">
     <g id="line2d_49">
      <path d="M 444.734205 195.254815 
L 771.880568 195.254815 
" clip-path="url(#p228ae49e95)" style="fill: none; stroke: #b0b0b0; stroke-opacity: 0.3; stroke-width: 0.8; stroke-linecap: square"/>
     </g>
     <g id="line2d_50">
      <g>
       <use xlink:href="#m8f7f99e4f9" x="444.734205" y="195.254815" style="stroke: #000000; stroke-width: 0.8"/>
      </g>
     </g>
     <g id="text_30">
      <!-- −0.2 -->
      <g transform="translate(408.59483 199.813877) scale(0.12 -0.12)">
       <use xlink:href="#DejaVuSans-2212"/>
       <use xlink:href="#DejaVuSans-30" transform="translate(83.789062 0)"/>
       <use xlink:href="#DejaVuSans-2e" transform="translate(147.412109 0)"/>
       <use xlink:href="#DejaVuSans-32" transform="translate(179.199219 0)"/>
      </g>
     </g>
    </g>
    <g id="ytick_10">
     <g id="line2d_51">
      <path d="M 444.734205 163.309237 
L 771.880568 163.309237 
" clip-path="url(#p228ae49e95)" style="fill: none; stroke: #b0b0b0; stroke-opacity: 0.3; stroke-width: 0.8; stroke-linecap: square"/>
     </g>
     <g id="line2d_52">
      <g>
       <use xlink:href="#m8f7f99e4f9" x="444.734205" y="163.309237" style="stroke: #000000; stroke-width: 0.8"/>
      </g>
     </g>
     <g id="text_31">
      <!-- −0.1 -->
      <g transform="translate(408.59483 167.8683) scale(0.12 -0.12)">
       <use xlink:href="#DejaVuSans-2212"/>
       <use xlink:href="#DejaVuSans-30" transform="translate(83.789062 0)"/>
       <use xlink:href="#DejaVuSans-2e" transform="translate(147.412109 0)"/>
       <use xlink:href="#DejaVuSans-31" transform="translate(179.199219 0)"/>
      </g>
     </g>
    </g>
    <g id="ytick_11">
     <g id="line2d_53">
      <path d="M 444.734205 131.363659 
L 771.880568 131.363659 
" clip-path="url(#p228ae49e95)" style="fill: none; stroke: #b0b0b0; stroke-opacity: 0.3; stroke-width: 0.8; stroke-linecap: square"/>
     </g>
     <g id="line2d_54">
      <g>
       <use xlink:href="#m8f7f99e4f9" x="444.734205" y="131.363659" style="stroke: #000000; stroke-width: 0.8"/>
      </g>
     </g>
     <g id="text_32">
      <!-- 0.0 -->
      <g transform="translate(418.650455 135.922722) scale(0.12 -0.12)">
       <use xlink:href="#DejaVuSans-30"/>
       <use xlink:href="#DejaVuSans-2e" transform="translate(63.623047 0)"/>
       <use xlink:href="#DejaVuSans-30" transform="translate(95.410156 0)"/>
      </g>
     </g>
    </g>
    <g id="ytick_12">
     <g id="line2d_55">
      <path d="M 444.734205 99.418081 
L 771.880568 99.418081 
" clip-path="url(#p228ae49e95)" style="fill: none; stroke: #b0b0b0; stroke-opacity: 0.3; stroke-width: 0.8; stroke-linecap: square"/>
     </g>
     <g id="line2d_56">
      <g>
       <use xlink:href="#m8f7f99e4f9" x="444.734205" y="99.418081" style="stroke: #000000; stroke-width: 0.8"/>
      </g>
     </g>
     <g id="text_33">
      <!-- 0.1 -->
      <g transform="translate(418.650455 103.977144) scale(0.12 -0.12)">
       <use xlink:href="#DejaVuSans-30"/>
       <use xlink:href="#DejaVuSans-2e" transform="translate(63.623047 0)"/>
       <use xlink:href="#DejaVuSans-31" transform="translate(95.410156 0)"/>
      </g>
     </g>
    </g>
    <g id="ytick_13">
     <g id="line2d_57">
      <path d="M 444.734205 67.472503 
L 771.880568 67.472503 
" clip-path="url(#p228ae49e95)" style="fill: none; stroke: #b0b0b0; stroke-opacity: 0.3; stroke-width: 0.8; stroke-linecap: square"/>
     </g>
     <g id="line2d_58">
      <g>
       <use xlink:href="#m8f7f99e4f9" x="444.734205" y="67.472503" style="stroke: #000000; stroke-width: 0.8"/>
      </g>
     </g>
     <g id="text_34">
      <!-- 0.2 -->
      <g transform="translate(418.650455 72.031566) scale(0.12 -0.12)">
       <use xlink:href="#DejaVuSans-30"/>
       <use xlink:href="#DejaVuSans-2e" transform="translate(63.623047 0)"/>
       <use xlink:href="#DejaVuSans-32" transform="translate(95.410156 0)"/>
      </g>
     </g>
    </g>
    <g id="ytick_14">
     <g id="line2d_59">
      <path d="M 444.734205 35.526925 
L 771.880568 35.526925 
" clip-path="url(#p228ae49e95)" style="fill: none; stroke: #b0b0b0; stroke-opacity: 0.3; stroke-width: 0.8; stroke-linecap: square"/>
     </g>
     <g id="line2d_60">
      <g>
       <use xlink:href="#m8f7f99e4f9" x="444.734205" y="35.526925" style="stroke: #000000; stroke-width: 0.8"/>
      </g>
     </g>
     <g id="text_35">
      <!-- 0.3 -->
      <g transform="translate(418.650455 40.085988) scale(0.12 -0.12)">
       <use xlink:href="#DejaVuSans-30"/>
       <use xlink:href="#DejaVuSans-2e" transform="translate(63.623047 0)"/>
       <use xlink:href="#DejaVuSans-33" transform="translate(95.410156 0)"/>
      </g>
     </g>
    </g>
    <g id="text_36">
     <!-- Residual -->
     <g transform="translate(402.099205 170.956719) rotate(-90) scale(0.12 -0.12)">
      <use xlink:href="#DejaVuSans-52"/>
      <use xlink:href="#DejaVuSans-65" transform="translate(64.982422 0)"/>
      <use xlink:href="#DejaVuSans-73" transform="translate(126.505859 0)"/>
      <use xlink:href="#DejaVuSans-69" transform="translate(178.605469 0)"/>
      <use xlink:href="#DejaVuSans-64" transform="translate(206.388672 0)"/>
      <use xlink:href="#DejaVuSans-75" transform="translate(269.865234 0)"/>
      <use xlink:href="#DejaVuSans-61" transform="translate(333.244141 0)"/>
      <use xlink:href="#DejaVuSans-6c" transform="translate(394.523438 0)"/>
     </g>
    </g>
   </g>
   <g id="line2d_61">
    <path d="M 444.734205 131.363659 
L 771.880568 131.363659 
" clip-path="url(#p228ae49e95)" style="fill: none; stroke: #000000; stroke-width: 0.8; stroke-linecap: square"/>
   </g>
   <g id="patch_9">
    <path d="M 444.734205 268.157969 
L 444.734205 23.077969 
" style="fill: none; stroke: #000000; stroke-width: 0.8; stroke-linejoin: miter; stroke-linecap: square"/>
   </g>
   <g id="patch_10">
    <path d="M 771.880568 268.157969 
L 771.880568 23.077969 
" style="fill: none; stroke: #000000; stroke-width: 0.8; stroke-linejoin: miter; stroke-linecap: square"/>
   </g>
   <g id="patch_11">
    <path d="M 444.734205 268.157969 
L 771.880568 268.157969 
" style="fill: none; stroke: #000000; stroke-width: 0.8; stroke-linejoin: miter; stroke-linecap: square"/>
   </g>
   <g id="patch_12">
    <path d="M 444.734205 23.077969 
L 771.880568 23.077969 
" style="fill: none; stroke: #000000; stroke-width: 0.8; stroke-linejoin: miter; stroke-linecap: square"/>
   </g>
   <g id="text_37">
    <!-- Residual diagnostics -->
    <g transform="translate(541.952543 17.077969) scale(0.13 -0.13)">
     <use xlink:href="#DejaVuSans-52"/>
     <use xlink:href="#DejaVuSans-65" transform="translate(64.982422 0)"/>
     <use xlink:href="#DejaVuSans-73" transform="translate(126.505859 0)"/>
     <use xlink:href="#DejaVuSans-69" transform="translate(178.605469 0)"/>
     <use xlink:href="#DejaVuSans-64" transform="translate(206.388672 0)"/>
     <use xlink:href="#DejaVuSans-75" transform="translate(269.865234 0)"/>
     <use xlink:href="#DejaVuSans-61" transform="translate(333.244141 0)"/>
     <use xlink:href="#DejaVuSans-6c" transform="translate(394.523438 0)"/>
     <use xlink:href="#DejaVuSans-20" transform="translate(422.306641 0)"/>
     <use xlink:href="#DejaVuSans-64" transform="translate(454.09375 0)"/>
     <use xlink:href="#DejaVuSans-69" transform="translate(517.570312 0)"/>
     <use xlink:href="#DejaVuSans-61" transform="translate(545.353516 0)"/>
     <use xlink:href="#DejaVuSans-67" transform="translate(606.632812 0)"/>
     <use xlink:href="#DejaVuSans-6e" transform="translate(670.109375 0)"/>
     <use xlink:href="#DejaVuSans-6f" transform="translate(733.488281 0)"/>
     <use xlink:href="#DejaVuSans-73" transform="translate(794.669922 0)"/>
     <use xlink:href="#DejaVuSans-74" transform="translate(846.769531 0)"/>
     <use xlink:href="#DejaVuSans-69" transform="translate(885.978516 0)"/>
     <use xlink:href="#DejaVuSans-63" transform="translate(913.761719 0)"/>
     <use xlink:href="#DejaVuSans-73" transform="translate(968.742188 0)"/>
    </g>
   </g>
  </g>
 </g>
 <defs>
  <clipPath id="pfac1bbac37">
   <rect x="52.71875" y="23.077969" width="327.146364" height="245.08"/>
  </clipPath>
  <clipPath id="p228ae49e95">
   <rect x="444.734205" y="23.077969" width="327.146364" height="245.08"/>
  </clipPath>
 </defs>
</svg>
