<?xml version="1.0" encoding="utf-8" standalone="no"?>
<!DOCTYPE svg PUBLIC "-//W3C//DTD SVG 1.1//EN"
  "http://www.w3.org/Graphics/SVG/1.1/DTD/svg11.dtd">
<svg xmlns:xlink="http://www.w3.org/1999/xlink" width="720pt" height="432pt" viewBox="0 0 720 432" xmlns="http://www.w3.org/2000/svg" version="1.1">
 <metadata>
  <rdf:RDF xmlns:dc="http://purl.org/dc/elements/1.1/" xmlns:cc="http://creativecommons.org/ns#" xmlns:rdf="http://www.w3.org/1999/02/22-rdf-syntax-ns#">
   <cc:Work>
    <dc:type rdf:resource="http://purl.org/dc/dcmitype/StillImage"/>
    <dc:date>2026-06-16T16:16:30.070198</dc:date>
    <dc:format>image/svg+xml</dc:format>
    <dc:creator>
     <cc:Agent>
      <dc:title>Matplotlib v3.10.0, https://matplotlib.org/</dc:title>
     </cc:Agent>
    </dc:creator>
   </cc:Work>
  </rdf:RDF>
 </metadata>
 <defs>
  <style type="text/css">*{stroke-linejoin: round; stroke-linecap: butt}</style>
 </defs>
 <g id="figure_1">
  <g id="patch_1">
   <path d="M 0 432 
L 720 432 
L 720 0 
L 0 0 
z
" style="fill: #ffffff"/>
  </g>
  <g id="axes_1">
   <g id="patch_2">
    <path d="M 54.434711 365.144242 
L 348.381818 365.144242 
L 348.381818 38.370909 
L 54.434711 38.370909 
z
" style="fill: #ffffff"/>
   </g>
   <g id="FillBetweenPolyCollection_1">
    <defs>
     <path id="mb607c5c995" d="M 67.795943 -378.775758 
L 67.795943 -374.574501 
L 68.689671 -372.68506 
L 69.583399 -370.80298 
L 70.477127 -368.935912 
L 71.370855 -367.081522 
L 72.264582 -365.239662 
L 73.15831 -363.410188 
L 74.052038 -361.592956 
L 74.945766 -359.773164 
L 75.839494 -357.968211 
L 76.733222 -356.183795 
L 77.62695 -354.411027 
L 78.520678 -352.649602 
L 79.414406 -350.899929 
L 80.308134 -349.1794 
L 81.201861 -347.445827 
L 82.095589 -345.722032 
L 82.989317 -344.009855 
L 83.883045 -342.313919 
L 84.776773 -340.628533 
L 85.670501 -338.95359 
L 86.564229 -337.288982 
L 87.457957 -335.634605 
L 88.351685 -333.98847 
L 89.245413 -332.349302 
L 90.13914 -330.720376 
L 91.032868 -329.101583 
L 91.926596 -327.492814 
L 92.820324 -325.893991 
L 93.714052 -324.305037 
L 94.60778 -322.728512 
L 95.501508 -321.16455 
L 96.395236 -319.610044 
L 97.288964 -318.06487 
L 98.182692 -316.528944 
L 99.07642 -315.002189 
L 99.970147 -313.483436 
L 100.863875 -311.968531 
L 101.757603 -310.467563 
L 102.651331 -308.97806 
L 103.545059 -307.493809 
L 104.438787 -306.009586 
L 105.332515 -304.533875 
L 106.226243 -303.075951 
L 107.119971 -301.626506 
L 108.013699 -300.175264 
L 108.907426 -298.741396 
L 109.801154 -297.315739 
L 110.694882 -295.898104 
L 111.58861 -294.474003 
L 112.482338 -293.061241 
L 113.376066 -291.664378 
L 114.269794 -290.275611 
L 115.163522 -288.894617 
L 116.05725 -287.520098 
L 116.950978 -286.131372 
L 117.844705 -284.76604 
L 118.738433 -283.401252 
L 119.632161 -282.040247 
L 120.525889 -280.687212 
L 121.419617 -279.342062 
L 122.313345 -278.004714 
L 123.207073 -276.675084 
L 124.100801 -275.353092 
L 124.994529 -274.038658 
L 125.888257 -272.731702 
L 126.781985 -271.432327 
L 127.675712 -270.137388 
L 128.56944 -268.849515 
L 129.463168 -267.56894 
L 130.356896 -266.295588 
L 131.250624 -265.03443 
L 132.144352 -263.780544 
L 133.03808 -262.529723 
L 133.931808 -261.295048 
L 134.825536 -260.058842 
L 135.719264 -258.829408 
L 136.612991 -257.606649 
L 137.506719 -256.390751 
L 138.400447 -255.186957 
L 139.294175 -253.986053 
L 140.187903 -252.793045 
L 141.081631 -251.60624 
L 141.975359 -250.425577 
L 142.869087 -249.251034 
L 143.762815 -248.082845 
L 144.656543 -246.923316 
L 145.55027 -245.763944 
L 146.443998 -244.613101 
L 147.337726 -243.468065 
L 148.231454 -242.328784 
L 149.125182 -241.195204 
L 150.01891 -240.067274 
L 150.912638 -238.944941 
L 151.806366 -237.828155 
L 152.700094 -236.716217 
L 153.593822 -235.606153 
L 154.48755 -234.501574 
L 155.381277 -233.398754 
L 156.275005 -232.298266 
L 157.168733 -231.203096 
L 158.062461 -230.113202 
L 158.956189 -229.02854 
L 159.849917 -227.949069 
L 160.743645 -226.881632 
L 161.637373 -225.819497 
L 162.531101 -224.762446 
L 163.424829 -223.710434 
L 164.318556 -222.664287 
L 165.212284 -221.623313 
L 166.106012 -220.586737 
L 166.99974 -219.551799 
L 167.893468 -218.524937 
L 168.787196 -217.503196 
L 169.680924 -216.486174 
L 170.574652 -215.473829 
L 171.46838 -214.466123 
L 172.362108 -213.463016 
L 173.255836 -212.461478 
L 174.149563 -211.467967 
L 175.043291 -210.473321 
L 175.937019 -209.489489 
L 176.830747 -208.510113 
L 177.724475 -207.529046 
L 178.618203 -206.553631 
L 179.511931 -205.583462 
L 180.405659 -204.610479 
L 181.299387 -203.640878 
L 182.193115 -202.675599 
L 183.086842 -201.716273 
L 183.98057 -200.762923 
L 184.874298 -199.813887 
L 185.768026 -198.866359 
L 186.661754 -197.91601 
L 187.555482 -196.972389 
L 188.44921 -196.033006 
L 189.342938 -195.094747 
L 190.236666 -194.160634 
L 191.130394 -193.230643 
L 192.024121 -192.304796 
L 192.917849 -191.397429 
L 193.811577 -190.483895 
L 194.705305 -189.571523 
L 195.599033 -188.671744 
L 196.492761 -187.773911 
L 197.386489 -186.873724 
L 198.280217 -185.974208 
L 199.173945 -185.075327 
L 200.067673 -184.180362 
L 200.961401 -183.28932 
L 201.855128 -182.406659 
L 202.748856 -181.527808 
L 203.642584 -180.653365 
L 204.536312 -179.786241 
L 205.43004 -178.922927 
L 206.323768 -178.063499 
L 207.217496 -177.207899 
L 208.111224 -176.356041 
L 209.004952 -175.506529 
L 209.89868 -174.657175 
L 210.792407 -173.81429 
L 211.686135 -172.976761 
L 212.579863 -172.142589 
L 213.473591 -171.311749 
L 214.367319 -170.478588 
L 215.261047 -169.647963 
L 216.154775 -168.820756 
L 217.048503 -167.997095 
L 217.942231 -167.178206 
L 218.835959 -166.35986 
L 219.729686 -165.545018 
L 220.623414 -164.734176 
L 221.517142 -163.926571 
L 222.41087 -163.122185 
L 223.304598 -162.321018 
L 224.198326 -161.523071 
L 225.092054 -160.728286 
L 225.985782 -159.936641 
L 226.87951 -159.14878 
L 227.773238 -158.365981 
L 228.666966 -157.588727 
L 229.560693 -156.814674 
L 230.454421 -156.043803 
L 231.348149 -155.276097 
L 232.241877 -154.508633 
L 233.135605 -153.740561 
L 234.029333 -152.975438 
L 234.923061 -152.213246 
L 235.816789 -151.453969 
L 236.710517 -150.697589 
L 237.604245 -149.94409 
L 238.497972 -149.193455 
L 239.3917 -148.445666 
L 240.285428 -147.700709 
L 241.179156 -146.95802 
L 242.072884 -146.217185 
L 242.966612 -145.482185 
L 243.86034 -144.748636 
L 244.754068 -144.01749 
L 245.647796 -143.289127 
L 246.541524 -142.563528 
L 247.435251 -141.840703 
L 248.328979 -141.121569 
L 249.222707 -140.409749 
L 250.116435 -139.70091 
L 251.010163 -138.992761 
L 251.903891 -138.291272 
L 252.797619 -137.590492 
L 253.691347 -136.892424 
L 254.585075 -136.197054 
L 255.478803 -135.500514 
L 256.372531 -134.802967 
L 257.266258 -134.107967 
L 258.159986 -133.415499 
L 259.053714 -132.725549 
L 259.947442 -132.038179 
L 260.84117 -131.353304 
L 261.734898 -130.672673 
L 262.628626 -129.998142 
L 263.522354 -129.326104 
L 264.416082 -128.652462 
L 265.30981 -127.980418 
L 266.203537 -127.310749 
L 267.097265 -126.643432 
L 267.990993 -125.978453 
L 268.884721 -125.315799 
L 269.778449 -124.655458 
L 270.672177 -123.997418 
L 271.565905 -123.341567 
L 272.459633 -122.688092 
L 273.353361 -122.036817 
L 274.247089 -121.387874 
L 275.140816 -120.743367 
L 276.034544 -120.101733 
L 276.928272 -119.462378 
L 277.822 -118.82529 
L 278.715728 -118.190457 
L 279.609456 -117.554745 
L 280.503184 -116.921006 
L 281.396912 -116.289426 
L 282.29064 -115.659991 
L 283.184368 -115.032692 
L 284.078096 -114.407516 
L 284.971823 -113.784453 
L 285.865551 -113.163491 
L 286.759279 -112.544619 
L 287.653007 -111.927827 
L 288.546735 -111.313102 
L 289.440463 -110.700435 
L 290.334191 -110.089814 
L 291.227919 -109.481229 
L 292.121647 -108.874732 
L 293.015375 -108.270269 
L 293.909102 -107.667811 
L 294.80283 -107.067348 
L 295.696558 -106.471646 
L 296.590286 -105.878475 
L 297.484014 -105.287309 
L 298.377742 -104.696626 
L 299.27147 -104.103198 
L 300.165198 -103.511702 
L 301.058926 -102.922128 
L 301.952654 -102.334465 
L 302.846382 -101.750426 
L 303.740109 -101.169192 
L 304.633837 -100.589841 
L 305.527565 -100.012366 
L 306.421293 -99.436857 
L 307.315021 -98.863212 
L 308.208749 -98.290694 
L 309.102477 -97.717541 
L 309.996205 -97.150948 
L 310.889933 -96.586173 
L 311.783661 -96.022997 
L 312.677388 -95.461953 
L 313.571116 -94.89972 
L 314.464844 -94.342762 
L 315.358572 -93.787609 
L 316.2523 -93.232879 
L 317.146028 -92.673037 
L 318.039756 -92.12036 
L 318.933484 -91.567492 
L 319.827212 -91.014975 
L 320.72094 -90.462026 
L 321.614667 -89.912557 
L 322.508395 -89.356863 
L 323.402123 -88.808045 
L 324.295851 -88.250009 
L 325.189579 -87.697328 
L 326.083307 -87.149133 
L 326.977035 -86.600259 
L 327.870763 -86.059845 
L 328.764491 -85.516888 
L 329.658219 -84.976091 
L 330.551947 -84.433699 
L 331.445674 -83.891386 
L 332.339402 -83.354814 
L 333.23313 -82.820694 
L 334.126858 -82.285707 
L 335.020586 -81.743985 
L 335.020586 -85.03748 
L 335.020586 -85.03748 
L 334.126858 -85.522597 
L 333.23313 -86.009479 
L 332.339402 -86.498134 
L 331.445674 -86.98857 
L 330.551947 -87.480795 
L 329.658219 -87.974819 
L 328.764491 -88.470651 
L 327.870763 -88.968298 
L 326.977035 -89.46777 
L 326.083307 -89.972119 
L 325.189579 -90.480301 
L 324.295851 -90.990271 
L 323.402123 -91.502038 
L 322.508395 -92.013376 
L 321.614667 -92.522218 
L 320.72094 -93.032975 
L 319.827212 -93.545659 
L 318.933484 -94.060277 
L 318.039756 -94.57684 
L 317.146028 -95.095358 
L 316.2523 -95.615839 
L 315.358572 -96.138293 
L 314.464844 -96.66273 
L 313.571116 -97.18916 
L 312.677388 -97.717593 
L 311.783661 -98.248754 
L 310.889933 -98.782784 
L 309.996205 -99.318815 
L 309.102477 -99.856856 
L 308.208749 -100.396917 
L 307.315021 -100.939008 
L 306.421293 -101.48314 
L 305.527565 -102.029322 
L 304.633837 -102.577495 
L 303.740109 -103.127659 
L 302.846382 -103.679907 
L 301.952654 -104.234251 
L 301.058926 -104.7907 
L 300.165198 -105.349265 
L 299.27147 -105.909958 
L 298.377742 -106.472788 
L 297.484014 -107.037766 
L 296.590286 -107.604904 
L 295.696558 -108.174212 
L 294.80283 -108.745702 
L 293.909102 -109.319383 
L 293.015375 -109.895268 
L 292.121647 -110.473368 
L 291.227919 -111.053694 
L 290.334191 -111.638391 
L 289.440463 -112.228652 
L 288.546735 -112.821103 
L 287.653007 -113.415757 
L 286.759279 -114.012623 
L 285.865551 -114.605148 
L 284.971823 -115.193398 
L 284.078096 -115.784042 
L 283.184368 -116.379392 
L 282.29064 -116.989674 
L 281.396912 -117.602187 
L 280.503184 -118.216842 
L 279.609456 -118.833704 
L 278.715728 -119.452836 
L 277.822 -120.074251 
L 276.928272 -120.697962 
L 276.034544 -121.322892 
L 275.140816 -121.944707 
L 274.247089 -122.569022 
L 273.353361 -123.195566 
L 272.459633 -123.824633 
L 271.565905 -124.455881 
L 270.672177 -125.08511 
L 269.778449 -125.716869 
L 268.884721 -126.351173 
L 267.990993 -126.988034 
L 267.097265 -127.653573 
L 266.203537 -128.313266 
L 265.30981 -128.991019 
L 264.416082 -129.671058 
L 263.522354 -130.340117 
L 262.628626 -131.003216 
L 261.734898 -131.680596 
L 260.84117 -132.35325 
L 259.947442 -133.034354 
L 259.053714 -133.72236 
L 258.159986 -134.40673 
L 257.266258 -135.104895 
L 256.372531 -135.805267 
L 255.478803 -136.50255 
L 254.585075 -137.207652 
L 253.691347 -137.915668 
L 252.797619 -138.607978 
L 251.903891 -139.317539 
L 251.010163 -140.023918 
L 250.116435 -140.740545 
L 249.222707 -141.455396 
L 248.328979 -142.172589 
L 247.435251 -142.892168 
L 246.541524 -143.614173 
L 245.647796 -144.338159 
L 244.754068 -145.064424 
L 243.86034 -145.79407 
L 242.966612 -146.527686 
L 242.072884 -147.265618 
L 241.179156 -148.00613 
L 240.285428 -148.749238 
L 239.3917 -149.494959 
L 238.497972 -150.24331 
L 237.604245 -150.994305 
L 236.710517 -151.745215 
L 235.816789 -152.49801 
L 234.923061 -153.257987 
L 234.029333 -154.0207 
L 233.135605 -154.786169 
L 232.241877 -155.554408 
L 231.348149 -156.325436 
L 230.454421 -157.099212 
L 229.560693 -157.874797 
L 228.666966 -158.653202 
L 227.773238 -159.434446 
L 226.87951 -160.218547 
L 225.985782 -161.006398 
L 225.092054 -161.802435 
L 224.198326 -162.596633 
L 223.304598 -163.393687 
L 222.41087 -164.193617 
L 221.517142 -164.996536 
L 220.623414 -165.802464 
L 219.729686 -166.611419 
L 218.835959 -167.423421 
L 217.942231 -168.23849 
L 217.048503 -169.056646 
L 216.154775 -169.877909 
L 215.261047 -170.702298 
L 214.367319 -171.529835 
L 213.473591 -172.36054 
L 212.579863 -173.194433 
L 211.686135 -174.031811 
L 210.792407 -174.873737 
L 209.89868 -175.718956 
L 209.004952 -176.568746 
L 208.111224 -177.422177 
L 207.217496 -178.278981 
L 206.323768 -179.13918 
L 205.43004 -180.002796 
L 204.536312 -180.868791 
L 203.642584 -181.736545 
L 202.748856 -182.607675 
L 201.855128 -183.482177 
L 200.961401 -184.35978 
L 200.067673 -185.242101 
L 199.173945 -186.132469 
L 198.280217 -187.027161 
L 197.386489 -187.925478 
L 196.492761 -188.827446 
L 195.599033 -189.733087 
L 194.705305 -190.640844 
L 193.811577 -191.544817 
L 192.917849 -192.452469 
L 192.024121 -193.363836 
L 191.130394 -194.278945 
L 190.236666 -195.200165 
L 189.342938 -196.127764 
L 188.44921 -197.059204 
L 187.555482 -197.994509 
L 186.661754 -198.933708 
L 185.768026 -199.876826 
L 184.874298 -200.823892 
L 183.98057 -201.772718 
L 183.086842 -202.723124 
L 182.193115 -203.680021 
L 181.299387 -204.642976 
L 180.405659 -205.609372 
L 179.511931 -206.576686 
L 178.618203 -207.548181 
L 177.724475 -208.524733 
L 176.830747 -209.515005 
L 175.937019 -210.508641 
L 175.043291 -211.501102 
L 174.149563 -212.493393 
L 173.255836 -213.489071 
L 172.362108 -214.489063 
L 171.46838 -215.499073 
L 170.574652 -216.514688 
L 169.680924 -217.534796 
L 168.787196 -218.561385 
L 167.893468 -219.593917 
L 166.99974 -220.631538 
L 166.106012 -221.671155 
L 165.212284 -222.717956 
L 164.318556 -223.765952 
L 163.424829 -224.816967 
L 162.531101 -225.87271 
L 161.637373 -226.933216 
L 160.743645 -227.99852 
L 159.849917 -229.074962 
L 158.956189 -230.160958 
L 158.062461 -231.251923 
L 157.168733 -232.347891 
L 156.275005 -233.448896 
L 155.381277 -234.551761 
L 154.48755 -235.657519 
L 153.593822 -236.768406 
L 152.700094 -237.884461 
L 151.806366 -239.005722 
L 150.912638 -240.135646 
L 150.01891 -241.272808 
L 149.125182 -242.415235 
L 148.231454 -243.563037 
L 147.337726 -244.711813 
L 146.443998 -245.861732 
L 145.55027 -247.016966 
L 144.656543 -248.177072 
L 143.762815 -249.338449 
L 142.869087 -250.511431 
L 141.975359 -251.692384 
L 141.081631 -252.877337 
L 140.187903 -254.068376 
L 139.294175 -255.268442 
L 138.400447 -256.473944 
L 137.506719 -257.68397 
L 136.612991 -258.900228 
L 135.719264 -260.127759 
L 134.825536 -261.357772 
L 133.931808 -262.593826 
L 133.03808 -263.835791 
L 132.144352 -265.083778 
L 131.250624 -266.340578 
L 130.356896 -267.604037 
L 129.463168 -268.873738 
L 128.56944 -270.151874 
L 127.675712 -271.442205 
L 126.781985 -272.738911 
L 125.888257 -274.028186 
L 124.994529 -275.322697 
L 124.100801 -276.625692 
L 123.207073 -277.940426 
L 122.313345 -279.272903 
L 121.419617 -280.601139 
L 120.525889 -281.970438 
L 119.632161 -283.311737 
L 118.738433 -284.660756 
L 117.844705 -286.015807 
L 116.950978 -287.40952 
L 116.05725 -288.779059 
L 115.163522 -290.152867 
L 114.269794 -291.549224 
L 113.376066 -292.942175 
L 112.482338 -294.338705 
L 111.58861 -295.74255 
L 110.694882 -297.153772 
L 109.801154 -298.598171 
L 108.907426 -300.042509 
L 108.013699 -301.477405 
L 107.119971 -302.937014 
L 106.226243 -304.405127 
L 105.332515 -305.881602 
L 104.438787 -307.36246 
L 103.545059 -308.840902 
L 102.651331 -310.342799 
L 101.757603 -311.830504 
L 100.863875 -313.322129 
L 99.970147 -314.859375 
L 99.07642 -316.42354 
L 98.182692 -317.99783 
L 97.288964 -319.531097 
L 96.395236 -321.112655 
L 95.501508 -322.703851 
L 94.60778 -324.32345 
L 93.714052 -325.959376 
L 92.820324 -327.605829 
L 91.926596 -329.249933 
L 91.032868 -330.890494 
L 90.13914 -332.541457 
L 89.245413 -334.213282 
L 88.351685 -335.920318 
L 87.457957 -337.63961 
L 86.564229 -339.371322 
L 85.670501 -341.115617 
L 84.776773 -342.872546 
L 83.883045 -344.64229 
L 82.989317 -346.425129 
L 82.095589 -348.221241 
L 81.201861 -350.030809 
L 80.308134 -351.854018 
L 79.414406 -353.691059 
L 78.520678 -355.542124 
L 77.62695 -357.406561 
L 76.733222 -359.274351 
L 75.839494 -361.156479 
L 74.945766 -363.053147 
L 74.052038 -364.964562 
L 73.15831 -366.890937 
L 72.264582 -368.832487 
L 71.370855 -370.789433 
L 70.477127 -372.762001 
L 69.583399 -374.75042 
L 68.689671 -376.754925 
L 67.795943 -378.775758 
z
" style="stroke: #f4b400; stroke-opacity: 0.2"/>
    </defs>
    <g clip-path="url(#p7c9a5db44c)">
     <use xlink:href="#mb607c5c995" x="0" y="432" style="fill: #f4b400; fill-opacity: 0.2; stroke: #f4b400; stroke-opacity: 0.2"/>
    </g>
   </g>
   <g id="matplotlib.axis_1">
    <g id="xtick_1">
     <g id="line2d_1">
      <path d="M 92.848253 365.144242 
L 92.848253 38.370909 
" clip-path="url(#p7c9a5db44c)" style="fill: none; stroke: #b0b0b0; stroke-opacity: 0.3; stroke-width: 0.8; stroke-linecap: square"/>
     </g>
     <g id="line2d_2">
      <defs>
       <path id="m1aeb227575" d="M 0 0 
L 0 3.5 
" style="stroke: #000000; stroke-width: 0.8"/>
      </defs>
      <g>
       <use xlink:href="#m1aeb227575" x="92.848253" y="365.144242" style="stroke: #000000; stroke-width: 0.8"/>
      </g>
     </g>
     <g id="text_1">
      <!-- 0.05 -->
      <g transform="translate(79.488878 381.262367) scale(0.12 -0.12)">
       <defs>
        <path id="DejaVuSans-30" d="M 2034 4250 
Q 1547 4250 1301 3770 
Q 1056 3291 1056 2328 
Q 1056 1369 1301 889 
Q 1547 409 2034 409 
Q 2525 409 2770 889 
Q 3016 1369 3016 2328 
Q 3016 3291 2770 3770 
Q 2525 4250 2034 4250 
z
M 2034 4750 
Q 2819 4750 3233 4129 
Q 3647 3509 3647 2328 
Q 3647 1150 3233 529 
Q 2819 -91 2034 -91 
Q 1250 -91 836 529 
Q 422 1150 422 2328 
Q 422 3509 836 4129 
Q 1250 4750 2034 4750 
z
" transform="scale(0.015625)"/>
        <path id="DejaVuSans-2e" d="M 684 794 
L 1344 794 
L 1344 0 
L 684 0 
L 684 794 
z
" transform="scale(0.015625)"/>
        <path id="DejaVuSans-35" d="M 691 4666 
L 3169 4666 
L 3169 4134 
L 1269 4134 
L 1269 2991 
Q 1406 3038 1543 3061 
Q 1681 3084 1819 3084 
Q 2600 3084 3056 2656 
Q 3513 2228 3513 1497 
Q 3513 744 3044 326 
Q 2575 -91 1722 -91 
Q 1428 -91 1123 -41 
Q 819 9 494 109 
L 494 744 
Q 775 591 1075 516 
Q 1375 441 1709 441 
Q 2250 441 2565 725 
Q 2881 1009 2881 1497 
Q 2881 1984 2565 2268 
Q 2250 2553 1709 2553 
Q 1456 2553 1204 2497 
Q 953 2441 691 2322 
L 691 4666 
z
" transform="scale(0.015625)"/>
       </defs>
       <use xlink:href="#DejaVuSans-30"/>
       <use xlink:href="#DejaVuSans-2e" transform="translate(63.623047 0)"/>
       <use xlink:href="#DejaVuSans-30" transform="translate(95.410156 0)"/>
       <use xlink:href="#DejaVuSans-35" transform="translate(159.033203 0)"/>
      </g>
     </g>
    </g>
    <g id="xtick_2">
     <g id="line2d_3">
      <path d="M 134.602104 365.144242 
L 134.602104 38.370909 
" clip-path="url(#p7c9a5db44c)" style="fill: none; stroke: #b0b0b0; stroke-opacity: 0.3; stroke-width: 0.8; stroke-linecap: square"/>
     </g>
     <g id="line2d_4">
      <g>
       <use xlink:href="#m1aeb227575" x="134.602104" y="365.144242" style="stroke: #000000; stroke-width: 0.8"/>
      </g>
     </g>
     <g id="text_2">
      <!-- 0.10 -->
      <g transform="translate(121.242729 381.262367) scale(0.12 -0.12)">
       <defs>
        <path id="DejaVuSans-31" d="M 794 531 
L 1825 531 
L 1825 4091 
L 703 3866 
L 703 4441 
L 1819 4666 
L 2450 4666 
L 2450 531 
L 3481 531 
L 3481 0 
L 794 0 
L 794 531 
z
" transform="scale(0.015625)"/>
       </defs>
       <use xlink:href="#DejaVuSans-30"/>
       <use xlink:href="#DejaVuSans-2e" transform="translate(63.623047 0)"/>
       <use xlink:href="#DejaVuSans-31" transform="translate(95.410156 0)"/>
       <use xlink:href="#DejaVuSans-30" transform="translate(159.033203 0)"/>
      </g>
     </g>
    </g>
    <g id="xtick_3">
     <g id="line2d_5">
      <path d="M 176.355954 365.144242 
L 176.355954 38.370909 
" clip-path="url(#p7c9a5db44c)" style="fill: none; stroke: #b0b0b0; stroke-opacity: 0.3; stroke-width: 0.8; stroke-linecap: square"/>
     </g>
     <g id="line2d_6">
      <g>
       <use xlink:href="#m1aeb227575" x="176.355954" y="365.144242" style="stroke: #000000; stroke-width: 0.8"/>
      </g>
     </g>
     <g id="text_3">
      <!-- 0.15 -->
      <g transform="translate(162.996579 381.262367) scale(0.12 -0.12)">
       <use xlink:href="#DejaVuSans-30"/>
       <use xlink:href="#DejaVuSans-2e" transform="translate(63.623047 0)"/>
       <use xlink:href="#DejaVuSans-31" transform="translate(95.410156 0)"/>
       <use xlink:href="#DejaVuSans-35" transform="translate(159.033203 0)"/>
      </g>
     </g>
    </g>
    <g id="xtick_4">
     <g id="line2d_7">
      <path d="M 218.109805 365.144242 
L 218.109805 38.370909 
" clip-path="url(#p7c9a5db44c)" style="fill: none; stroke: #b0b0b0; stroke-opacity: 0.3; stroke-width: 0.8; stroke-linecap: square"/>
     </g>
     <g id="line2d_8">
      <g>
       <use xlink:href="#m1aeb227575" x="218.109805" y="365.144242" style="stroke: #000000; stroke-width: 0.8"/>
      </g>
     </g>
     <g id="text_4">
      <!-- 0.20 -->
      <g transform="translate(204.75043 381.262367) scale(0.12 -0.12)">
       <defs>
        <path id="DejaVuSans-32" d="M 1228 531 
L 3431 531 
L 3431 0 
L 469 0 
L 469 531 
Q 828 903 1448 1529 
Q 2069 2156 2228 2338 
Q 2531 2678 2651 2914 
Q 2772 3150 2772 3378 
Q 2772 3750 2511 3984 
Q 2250 4219 1831 4219 
Q 1534 4219 1204 4116 
Q 875 4013 500 3803 
L 500 4441 
Q 881 4594 1212 4672 
Q 1544 4750 1819 4750 
Q 2544 4750 2975 4387 
Q 3406 4025 3406 3419 
Q 3406 3131 3298 2873 
Q 3191 2616 2906 2266 
Q 2828 2175 2409 1742 
Q 1991 1309 1228 531 
z
" transform="scale(0.015625)"/>
       </defs>
       <use xlink:href="#DejaVuSans-30"/>
       <use xlink:href="#DejaVuSans-2e" transform="translate(63.623047 0)"/>
       <use xlink:href="#DejaVuSans-32" transform="translate(95.410156 0)"/>
       <use xlink:href="#DejaVuSans-30" transform="translate(159.033203 0)"/>
      </g>
     </g>
    </g>
    <g id="xtick_5">
     <g id="line2d_9">
      <path d="M 259.863655 365.144242 
L 259.863655 38.370909 
" clip-path="url(#p7c9a5db44c)" style="fill: none; stroke: #b0b0b0; stroke-opacity: 0.3; stroke-width: 0.8; stroke-linecap: square"/>
     </g>
     <g id="line2d_10">
      <g>
       <use xlink:href="#m1aeb227575" x="259.863655" y="365.144242" style="stroke: #000000; stroke-width: 0.8"/>
      </g>
     </g>
     <g id="text_5">
      <!-- 0.25 -->
      <g transform="translate(246.50428 381.262367) scale(0.12 -0.12)">
       <use xlink:href="#DejaVuSans-30"/>
       <use xlink:href="#DejaVuSans-2e" transform="translate(63.623047 0)"/>
       <use xlink:href="#DejaVuSans-32" transform="translate(95.410156 0)"/>
       <use xlink:href="#DejaVuSans-35" transform="translate(159.033203 0)"/>
      </g>
     </g>
    </g>
    <g id="xtick_6">
     <g id="line2d_11">
      <path d="M 301.617506 365.144242 
L 301.617506 38.370909 
" clip-path="url(#p7c9a5db44c)" style="fill: none; stroke: #b0b0b0; stroke-opacity: 0.3; stroke-width: 0.8; stroke-linecap: square"/>
     </g>
     <g id="line2d_12">
      <g>
       <use xlink:href="#m1aeb227575" x="301.617506" y="365.144242" style="stroke: #000000; stroke-width: 0.8"/>
      </g>
     </g>
     <g id="text_6">
      <!-- 0.30 -->
      <g transform="translate(288.258131 381.262367) scale(0.12 -0.12)">
       <defs>
        <path id="DejaVuSans-33" d="M 2597 2516 
Q 3050 2419 3304 2112 
Q 3559 1806 3559 1356 
Q 3559 666 3084 287 
Q 2609 -91 1734 -91 
Q 1441 -91 1130 -33 
Q 819 25 488 141 
L 488 750 
Q 750 597 1062 519 
Q 1375 441 1716 441 
Q 2309 441 2620 675 
Q 2931 909 2931 1356 
Q 2931 1769 2642 2001 
Q 2353 2234 1838 2234 
L 1294 2234 
L 1294 2753 
L 1863 2753 
Q 2328 2753 2575 2939 
Q 2822 3125 2822 3475 
Q 2822 3834 2567 4026 
Q 2313 4219 1838 4219 
Q 1578 4219 1281 4162 
Q 984 4106 628 3988 
L 628 4550 
Q 988 4650 1302 4700 
Q 1616 4750 1894 4750 
Q 2613 4750 3031 4423 
Q 3450 4097 3450 3541 
Q 3450 3153 3228 2886 
Q 3006 2619 2597 2516 
z
" transform="scale(0.015625)"/>
       </defs>
       <use xlink:href="#DejaVuSans-30"/>
       <use xlink:href="#DejaVuSans-2e" transform="translate(63.623047 0)"/>
       <use xlink:href="#DejaVuSans-33" transform="translate(95.410156 0)"/>
       <use xlink:href="#DejaVuSans-30" transform="translate(159.033203 0)"/>
      </g>
     </g>
    </g>
    <g id="xtick_7">
     <g id="line2d_13">
      <path d="M 343.371356 365.144242 
L 343.371356 38.370909 
" clip-path="url(#p7c9a5db44c)" style="fill: none; stroke: #b0b0b0; stroke-opacity: 0.3; stroke-width: 0.8; stroke-linecap: square"/>
     </g>
     <g id="line2d_14">
      <g>
       <use xlink:href="#m1aeb227575" x="343.371356" y="365.144242" style="stroke: #000000; stroke-width: 0.8"/>
      </g>
     </g>
     <g id="text_7">
      <!-- 0.35 -->
      <g transform="translate(330.011981 381.262367) scale(0.12 -0.12)">
       <use xlink:href="#DejaVuSans-30"/>
       <use xlink:href="#DejaVuSans-2e" transform="translate(63.623047 0)"/>
       <use xlink:href="#DejaVuSans-33" transform="translate(95.410156 0)"/>
       <use xlink:href="#DejaVuSans-35" transform="translate(159.033203 0)"/>
      </g>
     </g>
    </g>
    <g id="text_8">
     <!-- Gap height $h$ (mm) -->
     <g transform="translate(144.228264 396.877992) scale(0.12 -0.12)">
      <defs>
       <path id="DejaVuSans-47" d="M 3809 666 
L 3809 1919 
L 2778 1919 
L 2778 2438 
L 4434 2438 
L 4434 434 
Q 4069 175 3628 42 
Q 3188 -91 2688 -91 
Q 1594 -91 976 548 
Q 359 1188 359 2328 
Q 359 3472 976 4111 
Q 1594 4750 2688 4750 
Q 3144 4750 3555 4637 
Q 3966 4525 4313 4306 
L 4313 3634 
Q 3963 3931 3569 4081 
Q 3175 4231 2741 4231 
Q 1884 4231 1454 3753 
Q 1025 3275 1025 2328 
Q 1025 1384 1454 906 
Q 1884 428 2741 428 
Q 3075 428 3337 486 
Q 3600 544 3809 666 
z
" transform="scale(0.015625)"/>
       <path id="DejaVuSans-61" d="M 2194 1759 
Q 1497 1759 1228 1600 
Q 959 1441 959 1056 
Q 959 750 1161 570 
Q 1363 391 1709 391 
Q 2188 391 2477 730 
Q 2766 1069 2766 1631 
L 2766 1759 
L 2194 1759 
z
M 3341 1997 
L 3341 0 
L 2766 0 
L 2766 531 
Q 2569 213 2275 61 
Q 1981 -91 1556 -91 
Q 1019 -91 701 211 
Q 384 513 384 1019 
Q 384 1609 779 1909 
Q 1175 2209 1959 2209 
L 2766 2209 
L 2766 2266 
Q 2766 2663 2505 2880 
Q 2244 3097 1772 3097 
Q 1472 3097 1187 3025 
Q 903 2953 641 2809 
L 641 3341 
Q 956 3463 1253 3523 
Q 1550 3584 1831 3584 
Q 2591 3584 2966 3190 
Q 3341 2797 3341 1997 
z
" transform="scale(0.015625)"/>
       <path id="DejaVuSans-70" d="M 1159 525 
L 1159 -1331 
L 581 -1331 
L 581 3500 
L 1159 3500 
L 1159 2969 
Q 1341 3281 1617 3432 
Q 1894 3584 2278 3584 
Q 2916 3584 3314 3078 
Q 3713 2572 3713 1747 
Q 3713 922 3314 415 
Q 2916 -91 2278 -91 
Q 1894 -91 1617 61 
Q 1341 213 1159 525 
z
M 3116 1747 
Q 3116 2381 2855 2742 
Q 2594 3103 2138 3103 
Q 1681 3103 1420 2742 
Q 1159 2381 1159 1747 
Q 1159 1113 1420 752 
Q 1681 391 2138 391 
Q 2594 391 2855 752 
Q 3116 1113 3116 1747 
z
" transform="scale(0.015625)"/>
       <path id="DejaVuSans-20" transform="scale(0.015625)"/>
       <path id="DejaVuSans-68" d="M 3513 2113 
L 3513 0 
L 2938 0 
L 2938 2094 
Q 2938 2591 2744 2837 
Q 2550 3084 2163 3084 
Q 1697 3084 1428 2787 
Q 1159 2491 1159 1978 
L 1159 0 
L 581 0 
L 581 4863 
L 1159 4863 
L 1159 2956 
Q 1366 3272 1645 3428 
Q 1925 3584 2291 3584 
Q 2894 3584 3203 3211 
Q 3513 2838 3513 2113 
z
" transform="scale(0.015625)"/>
       <path id="DejaVuSans-65" d="M 3597 1894 
L 3597 1613 
L 953 1613 
Q 991 1019 1311 708 
Q 1631 397 2203 397 
Q 2534 397 2845 478 
Q 3156 559 3463 722 
L 3463 178 
Q 3153 47 2828 -22 
Q 2503 -91 2169 -91 
Q 1331 -91 842 396 
Q 353 884 353 1716 
Q 353 2575 817 3079 
Q 1281 3584 2069 3584 
Q 2775 3584 3186 3129 
Q 3597 2675 3597 1894 
z
M 3022 2063 
Q 3016 2534 2758 2815 
Q 2500 3097 2075 3097 
Q 1594 3097 1305 2825 
Q 1016 2553 972 2059 
L 3022 2063 
z
" transform="scale(0.015625)"/>
       <path id="DejaVuSans-69" d="M 603 3500 
L 1178 3500 
L 1178 0 
L 603 0 
L 603 3500 
z
M 603 4863 
L 1178 4863 
L 1178 4134 
L 603 4134 
L 603 4863 
z
" transform="scale(0.015625)"/>
       <path id="DejaVuSans-67" d="M 2906 1791 
Q 2906 2416 2648 2759 
Q 2391 3103 1925 3103 
Q 1463 3103 1205 2759 
Q 947 2416 947 1791 
Q 947 1169 1205 825 
Q 1463 481 1925 481 
Q 2391 481 2648 825 
Q 2906 1169 2906 1791 
z
M 3481 434 
Q 3481 -459 3084 -895 
Q 2688 -1331 1869 -1331 
Q 1566 -1331 1297 -1286 
Q 1028 -1241 775 -1147 
L 775 -588 
Q 1028 -725 1275 -790 
Q 1522 -856 1778 -856 
Q 2344 -856 2625 -561 
Q 2906 -266 2906 331 
L 2906 616 
Q 2728 306 2450 153 
Q 2172 0 1784 0 
Q 1141 0 747 490 
Q 353 981 353 1791 
Q 353 2603 747 3093 
Q 1141 3584 1784 3584 
Q 2172 3584 2450 3431 
Q 2728 3278 2906 2969 
L 2906 3500 
L 3481 3500 
L 3481 434 
z
" transform="scale(0.015625)"/>
       <path id="DejaVuSans-74" d="M 1172 4494 
L 1172 3500 
L 2356 3500 
L 2356 3053 
L 1172 3053 
L 1172 1153 
Q 1172 725 1289 603 
Q 1406 481 1766 481 
L 2356 481 
L 2356 0 
L 1766 0 
Q 1100 0 847 248 
Q 594 497 594 1153 
L 594 3053 
L 172 3053 
L 172 3500 
L 594 3500 
L 594 4494 
L 1172 4494 
z
" transform="scale(0.015625)"/>
       <path id="DejaVuSans-Oblique-68" d="M 3566 2113 
L 3156 0 
L 2578 0 
L 2988 2091 
Q 3016 2238 3031 2350 
Q 3047 2463 3047 2528 
Q 3047 2791 2881 2937 
Q 2716 3084 2419 3084 
Q 1956 3084 1617 2771 
Q 1278 2459 1178 1941 
L 800 0 
L 225 0 
L 1172 4863 
L 1747 4863 
L 1375 2950 
Q 1594 3244 1934 3414 
Q 2275 3584 2650 3584 
Q 3113 3584 3367 3334 
Q 3622 3084 3622 2631 
Q 3622 2519 3608 2391 
Q 3594 2263 3566 2113 
z
" transform="scale(0.015625)"/>
       <path id="DejaVuSans-28" d="M 1984 4856 
Q 1566 4138 1362 3434 
Q 1159 2731 1159 2009 
Q 1159 1288 1364 580 
Q 1569 -128 1984 -844 
L 1484 -844 
Q 1016 -109 783 600 
Q 550 1309 550 2009 
Q 550 2706 781 3412 
Q 1013 4119 1484 4856 
L 1984 4856 
z
" transform="scale(0.015625)"/>
       <path id="DejaVuSans-6d" d="M 3328 2828 
Q 3544 3216 3844 3400 
Q 4144 3584 4550 3584 
Q 5097 3584 5394 3201 
Q 5691 2819 5691 2113 
L 5691 0 
L 5113 0 
L 5113 2094 
Q 5113 2597 4934 2840 
Q 4756 3084 4391 3084 
Q 3944 3084 3684 2787 
Q 3425 2491 3425 1978 
L 3425 0 
L 2847 0 
L 2847 2094 
Q 2847 2600 2669 2842 
Q 2491 3084 2119 3084 
Q 1678 3084 1418 2786 
Q 1159 2488 1159 1978 
L 1159 0 
L 581 0 
L 581 3500 
L 1159 3500 
L 1159 2956 
Q 1356 3278 1631 3431 
Q 1906 3584 2284 3584 
Q 2666 3584 2933 3390 
Q 3200 3197 3328 2828 
z
" transform="scale(0.015625)"/>
       <path id="DejaVuSans-29" d="M 513 4856 
L 1013 4856 
Q 1481 4119 1714 3412 
Q 1947 2706 1947 2009 
Q 1947 1309 1714 600 
Q 1481 -109 1013 -844 
L 513 -844 
Q 928 -128 1133 580 
Q 1338 1288 1338 2009 
Q 1338 2731 1133 3434 
Q 928 4138 513 4856 
z
" transform="scale(0.015625)"/>
      </defs>
      <use xlink:href="#DejaVuSans-47" transform="translate(0 0.015625)"/>
      <use xlink:href="#DejaVuSans-61" transform="translate(77.490234 0.015625)"/>
      <use xlink:href="#DejaVuSans-70" transform="translate(138.769531 0.015625)"/>
      <use xlink:href="#DejaVuSans-20" transform="translate(202.246094 0.015625)"/>
      <use xlink:href="#DejaVuSans-68" transform="translate(234.033203 0.015625)"/>
      <use xlink:href="#DejaVuSans-65" transform="translate(297.412109 0.015625)"/>
      <use xlink:href="#DejaVuSans-69" transform="translate(358.935547 0.015625)"/>
      <use xlink:href="#DejaVuSans-67" transform="translate(386.71875 0.015625)"/>
      <use xlink:href="#DejaVuSans-68" transform="translate(450.195312 0.015625)"/>
      <use xlink:href="#DejaVuSans-74" transform="translate(513.574219 0.015625)"/>
      <use xlink:href="#DejaVuSans-20" transform="translate(552.783203 0.015625)"/>
      <use xlink:href="#DejaVuSans-Oblique-68" transform="translate(584.570312 0.015625)"/>
      <use xlink:href="#DejaVuSans-20" transform="translate(647.949219 0.015625)"/>
      <use xlink:href="#DejaVuSans-28" transform="translate(679.736328 0.015625)"/>
      <use xlink:href="#DejaVuSans-6d" transform="translate(718.75 0.015625)"/>
      <use xlink:href="#DejaVuSans-6d" transform="translate(816.162109 0.015625)"/>
      <use xlink:href="#DejaVuSans-29" transform="translate(913.574219 0.015625)"/>
     </g>
    </g>
   </g>
   <g id="matplotlib.axis_2">
    <g id="ytick_1">
     <g id="line2d_15">
      <path d="M 54.434711 325.783197 
L 348.381818 325.783197 
" clip-path="url(#p7c9a5db44c)" style="fill: none; stroke: #b0b0b0; stroke-opacity: 0.3; stroke-width: 0.8; stroke-linecap: square"/>
     </g>
     <g id="line2d_16">
      <defs>
       <path id="ma536df35db" d="M 0 0 
L -3.5 0 
" style="stroke: #000000; stroke-width: 0.8"/>
      </defs>
      <g>
       <use xlink:href="#ma536df35db" x="54.434711" y="325.783197" style="stroke: #000000; stroke-width: 0.8"/>
      </g>
     </g>
     <g id="text_9">
      <!-- 80 -->
      <g transform="translate(32.164711 330.342259) scale(0.12 -0.12)">
       <defs>
        <path id="DejaVuSans-38" d="M 2034 2216 
Q 1584 2216 1326 1975 
Q 1069 1734 1069 1313 
Q 1069 891 1326 650 
Q 1584 409 2034 409 
Q 2484 409 2743 651 
Q 3003 894 3003 1313 
Q 3003 1734 2745 1975 
Q 2488 2216 2034 2216 
z
M 1403 2484 
Q 997 2584 770 2862 
Q 544 3141 544 3541 
Q 544 4100 942 4425 
Q 1341 4750 2034 4750 
Q 2731 4750 3128 4425 
Q 3525 4100 3525 3541 
Q 3525 3141 3298 2862 
Q 3072 2584 2669 2484 
Q 3125 2378 3379 2068 
Q 3634 1759 3634 1313 
Q 3634 634 3220 271 
Q 2806 -91 2034 -91 
Q 1263 -91 848 271 
Q 434 634 434 1313 
Q 434 1759 690 2068 
Q 947 2378 1403 2484 
z
M 1172 3481 
Q 1172 3119 1398 2916 
Q 1625 2713 2034 2713 
Q 2441 2713 2670 2916 
Q 2900 3119 2900 3481 
Q 2900 3844 2670 4047 
Q 2441 4250 2034 4250 
Q 1625 4250 1398 4047 
Q 1172 3844 1172 3481 
z
" transform="scale(0.015625)"/>
       </defs>
       <use xlink:href="#DejaVuSans-38"/>
       <use xlink:href="#DejaVuSans-30" transform="translate(63.623047 0)"/>
      </g>
     </g>
    </g>
    <g id="ytick_2">
     <g id="line2d_17">
      <path d="M 54.434711 271.959524 
L 348.381818 271.959524 
" clip-path="url(#p7c9a5db44c)" style="fill: none; stroke: #b0b0b0; stroke-opacity: 0.3; stroke-width: 0.8; stroke-linecap: square"/>
     </g>
     <g id="line2d_18">
      <g>
       <use xlink:href="#ma536df35db" x="54.434711" y="271.959524" style="stroke: #000000; stroke-width: 0.8"/>
      </g>
     </g>
     <g id="text_10">
      <!-- 90 -->
      <g transform="translate(32.164711 276.518586) scale(0.12 -0.12)">
       <defs>
        <path id="DejaVuSans-39" d="M 703 97 
L 703 672 
Q 941 559 1184 500 
Q 1428 441 1663 441 
Q 2288 441 2617 861 
Q 2947 1281 2994 2138 
Q 2813 1869 2534 1725 
Q 2256 1581 1919 1581 
Q 1219 1581 811 2004 
Q 403 2428 403 3163 
Q 403 3881 828 4315 
Q 1253 4750 1959 4750 
Q 2769 4750 3195 4129 
Q 3622 3509 3622 2328 
Q 3622 1225 3098 567 
Q 2575 -91 1691 -91 
Q 1453 -91 1209 -44 
Q 966 3 703 97 
z
M 1959 2075 
Q 2384 2075 2632 2365 
Q 2881 2656 2881 3163 
Q 2881 3666 2632 3958 
Q 2384 4250 1959 4250 
Q 1534 4250 1286 3958 
Q 1038 3666 1038 3163 
Q 1038 2656 1286 2365 
Q 1534 2075 1959 2075 
z
" transform="scale(0.015625)"/>
       </defs>
       <use xlink:href="#DejaVuSans-39"/>
       <use xlink:href="#DejaVuSans-30" transform="translate(63.623047 0)"/>
      </g>
     </g>
    </g>
    <g id="ytick_3">
     <g id="line2d_19">
      <path d="M 54.434711 218.13585 
L 348.381818 218.13585 
" clip-path="url(#p7c9a5db44c)" style="fill: none; stroke: #b0b0b0; stroke-opacity: 0.3; stroke-width: 0.8; stroke-linecap: square"/>
     </g>
     <g id="line2d_20">
      <g>
       <use xlink:href="#ma536df35db" x="54.434711" y="218.13585" style="stroke: #000000; stroke-width: 0.8"/>
      </g>
     </g>
     <g id="text_11">
      <!-- 100 -->
      <g transform="translate(24.529711 222.694913) scale(0.12 -0.12)">
       <use xlink:href="#DejaVuSans-31"/>
       <use xlink:href="#DejaVuSans-30" transform="translate(63.623047 0)"/>
       <use xlink:href="#DejaVuSans-30" transform="translate(127.246094 0)"/>
      </g>
     </g>
    </g>
    <g id="ytick_4">
     <g id="line2d_21">
      <path d="M 54.434711 164.312177 
L 348.381818 164.312177 
" clip-path="url(#p7c9a5db44c)" style="fill: none; stroke: #b0b0b0; stroke-opacity: 0.3; stroke-width: 0.8; stroke-linecap: square"/>
     </g>
     <g id="line2d_22">
      <g>
       <use xlink:href="#ma536df35db" x="54.434711" y="164.312177" style="stroke: #000000; stroke-width: 0.8"/>
      </g>
     </g>
     <g id="text_12">
      <!-- 110 -->
      <g transform="translate(24.529711 168.87124) scale(0.12 -0.12)">
       <use xlink:href="#DejaVuSans-31"/>
       <use xlink:href="#DejaVuSans-31" transform="translate(63.623047 0)"/>
       <use xlink:href="#DejaVuSans-30" transform="translate(127.246094 0)"/>
      </g>
     </g>
    </g>
    <g id="ytick_5">
     <g id="line2d_23">
      <path d="M 54.434711 110.488504 
L 348.381818 110.488504 
" clip-path="url(#p7c9a5db44c)" style="fill: none; stroke: #b0b0b0; stroke-opacity: 0.3; stroke-width: 0.8; stroke-linecap: square"/>
     </g>
     <g id="line2d_24">
      <g>
       <use xlink:href="#ma536df35db" x="54.434711" y="110.488504" style="stroke: #000000; stroke-width: 0.8"/>
      </g>
     </g>
     <g id="text_13">
      <!-- 120 -->
      <g transform="translate(24.529711 115.047567) scale(0.12 -0.12)">
       <use xlink:href="#DejaVuSans-31"/>
       <use xlink:href="#DejaVuSans-32" transform="translate(63.623047 0)"/>
       <use xlink:href="#DejaVuSans-30" transform="translate(127.246094 0)"/>
      </g>
     </g>
    </g>
    <g id="ytick_6">
     <g id="line2d_25">
      <path d="M 54.434711 56.664831 
L 348.381818 56.664831 
" clip-path="url(#p7c9a5db44c)" style="fill: none; stroke: #b0b0b0; stroke-opacity: 0.3; stroke-width: 0.8; stroke-linecap: square"/>
     </g>
     <g id="line2d_26">
      <g>
       <use xlink:href="#ma536df35db" x="54.434711" y="56.664831" style="stroke: #000000; stroke-width: 0.8"/>
      </g>
     </g>
     <g id="text_14">
      <!-- 130 -->
      <g transform="translate(24.529711 61.223894) scale(0.12 -0.12)">
       <use xlink:href="#DejaVuSans-31"/>
       <use xlink:href="#DejaVuSans-33" transform="translate(63.623047 0)"/>
       <use xlink:href="#DejaVuSans-30" transform="translate(127.246094 0)"/>
      </g>
     </g>
    </g>
    <g id="text_15">
     <!-- $T/\Omega$  (% / RPM) -->
     <g transform="translate(18.034086 245.077576) rotate(-90) scale(0.12 -0.12)">
      <defs>
       <path id="DejaVuSans-Oblique-54" d="M 378 4666 
L 4325 4666 
L 4225 4134 
L 2559 4134 
L 1759 0 
L 1125 0 
L 1925 4134 
L 275 4134 
L 378 4666 
z
" transform="scale(0.015625)"/>
       <path id="DejaVuSans-2f" d="M 1625 4666 
L 2156 4666 
L 531 -594 
L 0 -594 
L 1625 4666 
z
" transform="scale(0.015625)"/>
       <path id="DejaVuSans-3a9" d="M 4647 556 
L 4647 0 
L 2772 0 
L 2772 556 
Q 3325 859 3634 1378 
Q 3944 1897 3944 2528 
Q 3944 3278 3531 3731 
Q 3119 4184 2444 4184 
Q 1769 4184 1355 3729 
Q 941 3275 941 2528 
Q 941 1897 1250 1378 
Q 1563 859 2119 556 
L 2119 0 
L 244 0 
L 244 556 
L 1241 556 
Q 747 991 519 1456 
Q 294 1922 294 2497 
Q 294 3491 894 4106 
Q 1491 4722 2444 4722 
Q 3391 4722 3994 4106 
Q 4594 3494 4594 2528 
Q 4594 1922 4372 1459 
Q 4150 997 3647 556 
L 4647 556 
z
" transform="scale(0.015625)"/>
       <path id="DejaVuSans-25" d="M 4653 2053 
Q 4381 2053 4226 1822 
Q 4072 1591 4072 1178 
Q 4072 772 4226 539 
Q 4381 306 4653 306 
Q 4919 306 5073 539 
Q 5228 772 5228 1178 
Q 5228 1588 5073 1820 
Q 4919 2053 4653 2053 
z
M 4653 2450 
Q 5147 2450 5437 2106 
Q 5728 1763 5728 1178 
Q 5728 594 5436 251 
Q 5144 -91 4653 -91 
Q 4153 -91 3862 251 
Q 3572 594 3572 1178 
Q 3572 1766 3864 2108 
Q 4156 2450 4653 2450 
z
M 1428 4353 
Q 1159 4353 1004 4120 
Q 850 3888 850 3481 
Q 850 3069 1003 2837 
Q 1156 2606 1428 2606 
Q 1700 2606 1854 2837 
Q 2009 3069 2009 3481 
Q 2009 3884 1853 4118 
Q 1697 4353 1428 4353 
z
M 4250 4750 
L 4750 4750 
L 1831 -91 
L 1331 -91 
L 4250 4750 
z
M 1428 4750 
Q 1922 4750 2215 4408 
Q 2509 4066 2509 3481 
Q 2509 2891 2217 2550 
Q 1925 2209 1428 2209 
Q 931 2209 642 2551 
Q 353 2894 353 3481 
Q 353 4063 643 4406 
Q 934 4750 1428 4750 
z
" transform="scale(0.015625)"/>
       <path id="DejaVuSans-52" d="M 2841 2188 
Q 3044 2119 3236 1894 
Q 3428 1669 3622 1275 
L 4263 0 
L 3584 0 
L 2988 1197 
Q 2756 1666 2539 1819 
Q 2322 1972 1947 1972 
L 1259 1972 
L 1259 0 
L 628 0 
L 628 4666 
L 2053 4666 
Q 2853 4666 3247 4331 
Q 3641 3997 3641 3322 
Q 3641 2881 3436 2590 
Q 3231 2300 2841 2188 
z
M 1259 4147 
L 1259 2491 
L 2053 2491 
Q 2509 2491 2742 2702 
Q 2975 2913 2975 3322 
Q 2975 3731 2742 3939 
Q 2509 4147 2053 4147 
L 1259 4147 
z
" transform="scale(0.015625)"/>
       <path id="DejaVuSans-50" d="M 1259 4147 
L 1259 2394 
L 2053 2394 
Q 2494 2394 2734 2622 
Q 2975 2850 2975 3272 
Q 2975 3691 2734 3919 
Q 2494 4147 2053 4147 
L 1259 4147 
z
M 628 4666 
L 2053 4666 
Q 2838 4666 3239 4311 
Q 3641 3956 3641 3272 
Q 3641 2581 3239 2228 
Q 2838 1875 2053 1875 
L 1259 1875 
L 1259 0 
L 628 0 
L 628 4666 
z
" transform="scale(0.015625)"/>
       <path id="DejaVuSans-4d" d="M 628 4666 
L 1569 4666 
L 2759 1491 
L 3956 4666 
L 4897 4666 
L 4897 0 
L 4281 0 
L 4281 4097 
L 3078 897 
L 2444 897 
L 1241 4097 
L 1241 0 
L 628 0 
L 628 4666 
z
" transform="scale(0.015625)"/>
      </defs>
      <use xlink:href="#DejaVuSans-Oblique-54" transform="translate(0 0.125)"/>
      <use xlink:href="#DejaVuSans-2f" transform="translate(61.083984 0.125)"/>
      <use xlink:href="#DejaVuSans-3a9" transform="translate(94.775391 0.125)"/>
      <use xlink:href="#DejaVuSans-20" transform="translate(171.191406 0.125)"/>
      <use xlink:href="#DejaVuSans-20" transform="translate(202.978516 0.125)"/>
      <use xlink:href="#DejaVuSans-28" transform="translate(234.765625 0.125)"/>
      <use xlink:href="#DejaVuSans-25" transform="translate(273.779297 0.125)"/>
      <use xlink:href="#DejaVuSans-20" transform="translate(368.798828 0.125)"/>
      <use xlink:href="#DejaVuSans-2f" transform="translate(400.585938 0.125)"/>
      <use xlink:href="#DejaVuSans-20" transform="translate(434.277344 0.125)"/>
      <use xlink:href="#DejaVuSans-52" transform="translate(466.064453 0.125)"/>
      <use xlink:href="#DejaVuSans-50" transform="translate(535.546875 0.125)"/>
      <use xlink:href="#DejaVuSans-4d" transform="translate(595.849609 0.125)"/>
      <use xlink:href="#DejaVuSans-29" transform="translate(682.128906 0.125)"/>
     </g>
    </g>
   </g>
   <g id="line2d_27">
    <path d="M 67.795943 56.905689 
L 74.052038 69.83384 
L 79.414406 80.436751 
L 85.670501 92.315951 
L 91.032868 102.109465 
L 99.07642 116.261121 
L 105.332515 126.772868 
L 111.58861 136.872864 
L 118.738433 147.96701 
L 125.888257 158.565523 
L 132.144352 167.491591 
L 139.294175 177.303629 
L 146.443998 186.734052 
L 153.593822 195.805629 
L 160.743645 204.536423 
L 167.893468 212.943955 
L 175.937019 222.050131 
L 183.98057 230.795842 
L 192.917849 240.119385 
L 200.961401 248.187259 
L 209.004952 255.967202 
L 217.048503 263.463261 
L 225.985782 271.48279 
L 234.923061 279.196991 
L 245.647796 288.091042 
L 255.478803 295.919934 
L 265.30981 303.45238 
L 275.140816 310.722985 
L 284.971823 317.72903 
L 294.80283 324.497102 
L 307.315021 332.777804 
L 319.827212 340.706292 
L 329.658219 346.707152 
L 335.020586 349.898557 
L 335.020586 349.898557 
" clip-path="url(#p7c9a5db44c)" style="fill: none; stroke: #4285f4; stroke-width: 2; stroke-linecap: square"/>
   </g>
   <g id="line2d_28">
    <defs>
     <path id="m668d743262" d="M 0 2.5 
C 0.663008 2.5 1.29895 2.236584 1.767767 1.767767 
C 2.236584 1.29895 2.5 0.663008 2.5 0 
C 2.5 -0.663008 2.236584 -1.29895 1.767767 -1.767767 
C 1.29895 -2.236584 0.663008 -2.5 0 -2.5 
C -0.663008 -2.5 -1.29895 -2.236584 -1.767767 -1.767767 
C -2.236584 -1.29895 -2.5 -0.663008 -2.5 0 
C -2.5 0.663008 -2.236584 1.29895 -1.767767 1.767767 
C -1.29895 2.236584 -0.663008 2.5 0 2.5 
z
" style="stroke: #000000"/>
    </defs>
    <g clip-path="url(#p7c9a5db44c)">
     <use xlink:href="#m668d743262" x="67.795943" y="57.454245" style="fill: #ffffff; stroke: #000000"/>
     <use xlink:href="#m668d743262" x="84.497483" y="89.425507" style="fill: #ffffff; stroke: #000000"/>
     <use xlink:href="#m668d743262" x="101.199023" y="120.033235" style="fill: #ffffff; stroke: #000000"/>
     <use xlink:href="#m668d743262" x="117.900563" y="145.796834" style="fill: #ffffff; stroke: #000000"/>
     <use xlink:href="#m668d743262" x="134.602104" y="171.273372" style="fill: #ffffff; stroke: #000000"/>
     <use xlink:href="#m668d743262" x="151.303644" y="192.587547" style="fill: #ffffff; stroke: #000000"/>
     <use xlink:href="#m668d743262" x="168.005184" y="214.081134" style="fill: #ffffff; stroke: #000000"/>
     <use xlink:href="#m668d743262" x="184.706724" y="231.699416" style="fill: #ffffff; stroke: #000000"/>
     <use xlink:href="#m668d743262" x="201.408264" y="249.389463" style="fill: #ffffff; stroke: #000000"/>
     <use xlink:href="#m668d743262" x="218.109805" y="264.280679" style="fill: #ffffff; stroke: #000000"/>
     <use xlink:href="#m668d743262" x="234.811345" y="279.136013" style="fill: #ffffff; stroke: #000000"/>
     <use xlink:href="#m668d743262" x="251.512885" y="291.874283" style="fill: #ffffff; stroke: #000000"/>
     <use xlink:href="#m668d743262" x="268.214425" y="305.366083" style="fill: #ffffff; stroke: #000000"/>
     <use xlink:href="#m668d743262" x="284.915965" y="316.956114" style="fill: #ffffff; stroke: #000000"/>
     <use xlink:href="#m668d743262" x="301.617506" y="329.371442" style="fill: #ffffff; stroke: #000000"/>
     <use xlink:href="#m668d743262" x="318.319046" y="339.992646" style="fill: #ffffff; stroke: #000000"/>
     <use xlink:href="#m668d743262" x="335.020586" y="350.290909" style="fill: #ffffff; stroke: #000000"/>
    </g>
   </g>
   <g id="patch_3">
    <path d="M 54.434711 365.144242 
L 54.434711 38.370909 
" style="fill: none; stroke: #000000; stroke-width: 0.8; stroke-linejoin: miter; stroke-linecap: square"/>
   </g>
   <g id="patch_4">
    <path d="M 348.381818 365.144242 
L 348.381818 38.370909 
" style="fill: none; stroke: #000000; stroke-width: 0.8; stroke-linejoin: miter; stroke-linecap: square"/>
   </g>
   <g id="patch_5">
    <path d="M 54.434711 365.144242 
L 348.381818 365.144242 
" style="fill: none; stroke: #000000; stroke-width: 0.8; stroke-linejoin: miter; stroke-linecap: square"/>
   </g>
   <g id="patch_6">
    <path d="M 54.434711 38.370909 
L 348.381818 38.370909 
" style="fill: none; stroke: #000000; stroke-width: 0.8; stroke-linejoin: miter; stroke-linecap: square"/>
   </g>
   <g id="text_16">
    <!-- Rotational drag vs gap height — 90kcp -->
    <g transform="translate(74.709046 32.370909) scale(0.13 -0.13)">
     <defs>
      <path id="DejaVuSans-6f" d="M 1959 3097 
Q 1497 3097 1228 2736 
Q 959 2375 959 1747 
Q 959 1119 1226 758 
Q 1494 397 1959 397 
Q 2419 397 2687 759 
Q 2956 1122 2956 1747 
Q 2956 2369 2687 2733 
Q 2419 3097 1959 3097 
z
M 1959 3584 
Q 2709 3584 3137 3096 
Q 3566 2609 3566 1747 
Q 3566 888 3137 398 
Q 2709 -91 1959 -91 
Q 1206 -91 779 398 
Q 353 888 353 1747 
Q 353 2609 779 3096 
Q 1206 3584 1959 3584 
z
" transform="scale(0.015625)"/>
      <path id="DejaVuSans-6e" d="M 3513 2113 
L 3513 0 
L 2938 0 
L 2938 2094 
Q 2938 2591 2744 2837 
Q 2550 3084 2163 3084 
Q 1697 3084 1428 2787 
Q 1159 2491 1159 1978 
L 1159 0 
L 581 0 
L 581 3500 
L 1159 3500 
L 1159 2956 
Q 1366 3272 1645 3428 
Q 1925 3584 2291 3584 
Q 2894 3584 3203 3211 
Q 3513 2838 3513 2113 
z
" transform="scale(0.015625)"/>
      <path id="DejaVuSans-6c" d="M 603 4863 
L 1178 4863 
L 1178 0 
L 603 0 
L 603 4863 
z
" transform="scale(0.015625)"/>
      <path id="DejaVuSans-64" d="M 2906 2969 
L 2906 4863 
L 3481 4863 
L 3481 0 
L 2906 0 
L 2906 525 
Q 2725 213 2448 61 
Q 2172 -91 1784 -91 
Q 1150 -91 751 415 
Q 353 922 353 1747 
Q 353 2572 751 3078 
Q 1150 3584 1784 3584 
Q 2172 3584 2448 3432 
Q 2725 3281 2906 2969 
z
M 947 1747 
Q 947 1113 1208 752 
Q 1469 391 1925 391 
Q 2381 391 2643 752 
Q 2906 1113 2906 1747 
Q 2906 2381 2643 2742 
Q 2381 3103 1925 3103 
Q 1469 3103 1208 2742 
Q 947 2381 947 1747 
z
" transform="scale(0.015625)"/>
      <path id="DejaVuSans-72" d="M 2631 2963 
Q 2534 3019 2420 3045 
Q 2306 3072 2169 3072 
Q 1681 3072 1420 2755 
Q 1159 2438 1159 1844 
L 1159 0 
L 581 0 
L 581 3500 
L 1159 3500 
L 1159 2956 
Q 1341 3275 1631 3429 
Q 1922 3584 2338 3584 
Q 2397 3584 2469 3576 
Q 2541 3569 2628 3553 
L 2631 2963 
z
" transform="scale(0.015625)"/>
      <path id="DejaVuSans-76" d="M 191 3500 
L 800 3500 
L 1894 563 
L 2988 3500 
L 3597 3500 
L 2284 0 
L 1503 0 
L 191 3500 
z
" transform="scale(0.015625)"/>
      <path id="DejaVuSans-73" d="M 2834 3397 
L 2834 2853 
Q 2591 2978 2328 3040 
Q 2066 3103 1784 3103 
Q 1356 3103 1142 2972 
Q 928 2841 928 2578 
Q 928 2378 1081 2264 
Q 1234 2150 1697 2047 
L 1894 2003 
Q 2506 1872 2764 1633 
Q 3022 1394 3022 966 
Q 3022 478 2636 193 
Q 2250 -91 1575 -91 
Q 1294 -91 989 -36 
Q 684 19 347 128 
L 347 722 
Q 666 556 975 473 
Q 1284 391 1588 391 
Q 1994 391 2212 530 
Q 2431 669 2431 922 
Q 2431 1156 2273 1281 
Q 2116 1406 1581 1522 
L 1381 1569 
Q 847 1681 609 1914 
Q 372 2147 372 2553 
Q 372 3047 722 3315 
Q 1072 3584 1716 3584 
Q 2034 3584 2315 3537 
Q 2597 3491 2834 3397 
z
" transform="scale(0.015625)"/>
      <path id="DejaVuSans-2014" d="M 313 1978 
L 6088 1978 
L 6088 1528 
L 313 1528 
L 313 1978 
z
" transform="scale(0.015625)"/>
      <path id="DejaVuSans-6b" d="M 581 4863 
L 1159 4863 
L 1159 1991 
L 2875 3500 
L 3609 3500 
L 1753 1863 
L 3688 0 
L 2938 0 
L 1159 1709 
L 1159 0 
L 581 0 
L 581 4863 
z
" transform="scale(0.015625)"/>
      <path id="DejaVuSans-63" d="M 3122 3366 
L 3122 2828 
Q 2878 2963 2633 3030 
Q 2388 3097 2138 3097 
Q 1578 3097 1268 2742 
Q 959 2388 959 1747 
Q 959 1106 1268 751 
Q 1578 397 2138 397 
Q 2388 397 2633 464 
Q 2878 531 3122 666 
L 3122 134 
Q 2881 22 2623 -34 
Q 2366 -91 2075 -91 
Q 1284 -91 818 406 
Q 353 903 353 1747 
Q 353 2603 823 3093 
Q 1294 3584 2113 3584 
Q 2378 3584 2631 3529 
Q 2884 3475 3122 3366 
z
" transform="scale(0.015625)"/>
     </defs>
     <use xlink:href="#DejaVuSans-52"/>
     <use xlink:href="#DejaVuSans-6f" transform="translate(64.982422 0)"/>
     <use xlink:href="#DejaVuSans-74" transform="translate(126.164062 0)"/>
     <use xlink:href="#DejaVuSans-61" transform="translate(165.373047 0)"/>
     <use xlink:href="#DejaVuSans-74" transform="translate(226.652344 0)"/>
     <use xlink:href="#DejaVuSans-69" transform="translate(265.861328 0)"/>
     <use xlink:href="#DejaVuSans-6f" transform="translate(293.644531 0)"/>
     <use xlink:href="#DejaVuSans-6e" transform="translate(354.826172 0)"/>
     <use xlink:href="#DejaVuSans-61" transform="translate(418.205078 0)"/>
     <use xlink:href="#DejaVuSans-6c" transform="translate(479.484375 0)"/>
     <use xlink:href="#DejaVuSans-20" transform="translate(507.267578 0)"/>
     <use xlink:href="#DejaVuSans-64" transform="translate(539.054688 0)"/>
     <use xlink:href="#DejaVuSans-72" transform="translate(602.53125 0)"/>
     <use xlink:href="#DejaVuSans-61" transform="translate(643.644531 0)"/>
     <use xlink:href="#DejaVuSans-67" transform="translate(704.923828 0)"/>
     <use xlink:href="#DejaVuSans-20" transform="translate(768.400391 0)"/>
     <use xlink:href="#DejaVuSans-76" transform="translate(800.1875 0)"/>
     <use xlink:href="#DejaVuSans-73" transform="translate(859.367188 0)"/>
     <use xlink:href="#DejaVuSans-20" transform="translate(911.466797 0)"/>
     <use xlink:href="#DejaVuSans-67" transform="translate(943.253906 0)"/>
     <use xlink:href="#DejaVuSans-61" transform="translate(1006.730469 0)"/>
     <use xlink:href="#DejaVuSans-70" transform="translate(1068.009766 0)"/>
     <use xlink:href="#DejaVuSans-20" transform="translate(1131.486328 0)"/>
     <use xlink:href="#DejaVuSans-68" transform="translate(1163.273438 0)"/>
     <use xlink:href="#DejaVuSans-65" transform="translate(1226.652344 0)"/>
     <use xlink:href="#DejaVuSans-69" transform="translate(1288.175781 0)"/>
     <use xlink:href="#DejaVuSans-67" transform="translate(1315.958984 0)"/>
     <use xlink:href="#DejaVuSans-68" transform="translate(1379.435547 0)"/>
     <use xlink:href="#DejaVuSans-74" transform="translate(1442.814453 0)"/>
     <use xlink:href="#DejaVuSans-20" transform="translate(1482.023438 0)"/>
     <use xlink:href="#DejaVuSans-2014" transform="translate(1513.810547 0)"/>
     <use xlink:href="#DejaVuSans-20" transform="translate(1613.810547 0)"/>
     <use xlink:href="#DejaVuSans-39" transform="translate(1645.597656 0)"/>
     <use xlink:href="#DejaVuSans-30" transform="translate(1709.220703 0)"/>
     <use xlink:href="#DejaVuSans-6b" transform="translate(1772.84375 0)"/>
     <use xlink:href="#DejaVuSans-63" transform="translate(1830.753906 0)"/>
     <use xlink:href="#DejaVuSans-70" transform="translate(1885.734375 0)"/>
    </g>
   </g>
   <g id="legend_1">
    <g id="patch_7">
     <path d="M 210.624006 54.969347 
L 230.624006 54.969347 
L 230.624006 47.969347 
L 210.624006 47.969347 
z
" style="fill: #1f77b4; fill-opacity: 0.2; stroke: #1f77b4; stroke-opacity: 0.2; stroke-linejoin: miter"/>
    </g>
    <g id="text_17">
     <!-- 95 % CI -->
     <g transform="translate(238.624006 54.969347) scale(0.1 -0.1)">
      <defs>
       <path id="DejaVuSans-43" d="M 4122 4306 
L 4122 3641 
Q 3803 3938 3442 4084 
Q 3081 4231 2675 4231 
Q 1875 4231 1450 3742 
Q 1025 3253 1025 2328 
Q 1025 1406 1450 917 
Q 1875 428 2675 428 
Q 3081 428 3442 575 
Q 3803 722 4122 1019 
L 4122 359 
Q 3791 134 3420 21 
Q 3050 -91 2638 -91 
Q 1578 -91 968 557 
Q 359 1206 359 2328 
Q 359 3453 968 4101 
Q 1578 4750 2638 4750 
Q 3056 4750 3426 4639 
Q 3797 4528 4122 4306 
z
" transform="scale(0.015625)"/>
       <path id="DejaVuSans-49" d="M 628 4666 
L 1259 4666 
L 1259 0 
L 628 0 
L 628 4666 
z
" transform="scale(0.015625)"/>
      </defs>
      <use xlink:href="#DejaVuSans-39"/>
      <use xlink:href="#DejaVuSans-35" transform="translate(63.623047 0)"/>
      <use xlink:href="#DejaVuSans-20" transform="translate(127.246094 0)"/>
      <use xlink:href="#DejaVuSans-25" transform="translate(159.033203 0)"/>
      <use xlink:href="#DejaVuSans-20" transform="translate(254.052734 0)"/>
      <use xlink:href="#DejaVuSans-43" transform="translate(285.839844 0)"/>
      <use xlink:href="#DejaVuSans-49" transform="translate(355.664062 0)"/>
     </g>
    </g>
    <g id="line2d_29">
     <path d="M 210.624006 66.147472 
L 220.624006 66.147472 
L 230.624006 66.147472 
" style="fill: none; stroke: #1f77b4; stroke-width: 2; stroke-linecap: square"/>
    </g>
    <g id="text_18">
     <!-- best fit (gen_power) -->
     <g transform="translate(238.624006 69.647472) scale(0.1 -0.1)">
      <defs>
       <path id="DejaVuSans-62" d="M 3116 1747 
Q 3116 2381 2855 2742 
Q 2594 3103 2138 3103 
Q 1681 3103 1420 2742 
Q 1159 2381 1159 1747 
Q 1159 1113 1420 752 
Q 1681 391 2138 391 
Q 2594 391 2855 752 
Q 3116 1113 3116 1747 
z
M 1159 2969 
Q 1341 3281 1617 3432 
Q 1894 3584 2278 3584 
Q 2916 3584 3314 3078 
Q 3713 2572 3713 1747 
Q 3713 922 3314 415 
Q 2916 -91 2278 -91 
Q 1894 -91 1617 61 
Q 1341 213 1159 525 
L 1159 0 
L 581 0 
L 581 4863 
L 1159 4863 
L 1159 2969 
z
" transform="scale(0.015625)"/>
       <path id="DejaVuSans-66" d="M 2375 4863 
L 2375 4384 
L 1825 4384 
Q 1516 4384 1395 4259 
Q 1275 4134 1275 3809 
L 1275 3500 
L 2222 3500 
L 2222 3053 
L 1275 3053 
L 1275 0 
L 697 0 
L 697 3053 
L 147 3053 
L 147 3500 
L 697 3500 
L 697 3744 
Q 697 4328 969 4595 
Q 1241 4863 1831 4863 
L 2375 4863 
z
" transform="scale(0.015625)"/>
       <path id="DejaVuSans-5f" d="M 3263 -1063 
L 3263 -1509 
L -63 -1509 
L -63 -1063 
L 3263 -1063 
z
" transform="scale(0.015625)"/>
       <path id="DejaVuSans-77" d="M 269 3500 
L 844 3500 
L 1563 769 
L 2278 3500 
L 2956 3500 
L 3675 769 
L 4391 3500 
L 4966 3500 
L 4050 0 
L 3372 0 
L 2619 2869 
L 1863 0 
L 1184 0 
L 269 3500 
z
" transform="scale(0.015625)"/>
      </defs>
      <use xlink:href="#DejaVuSans-62"/>
      <use xlink:href="#DejaVuSans-65" transform="translate(63.476562 0)"/>
      <use xlink:href="#DejaVuSans-73" transform="translate(125 0)"/>
      <use xlink:href="#DejaVuSans-74" transform="translate(177.099609 0)"/>
      <use xlink:href="#DejaVuSans-20" transform="translate(216.308594 0)"/>
      <use xlink:href="#DejaVuSans-66" transform="translate(248.095703 0)"/>
      <use xlink:href="#DejaVuSans-69" transform="translate(283.300781 0)"/>
      <use xlink:href="#DejaVuSans-74" transform="translate(311.083984 0)"/>
      <use xlink:href="#DejaVuSans-20" transform="translate(350.292969 0)"/>
      <use xlink:href="#DejaVuSans-28" transform="translate(382.080078 0)"/>
      <use xlink:href="#DejaVuSans-67" transform="translate(421.09375 0)"/>
      <use xlink:href="#DejaVuSans-65" transform="translate(484.570312 0)"/>
      <use xlink:href="#DejaVuSans-6e" transform="translate(546.09375 0)"/>
      <use xlink:href="#DejaVuSans-5f" transform="translate(609.472656 0)"/>
      <use xlink:href="#DejaVuSans-70" transform="translate(659.472656 0)"/>
      <use xlink:href="#DejaVuSans-6f" transform="translate(722.949219 0)"/>
      <use xlink:href="#DejaVuSans-77" transform="translate(784.130859 0)"/>
      <use xlink:href="#DejaVuSans-65" transform="translate(865.917969 0)"/>
      <use xlink:href="#DejaVuSans-72" transform="translate(927.441406 0)"/>
      <use xlink:href="#DejaVuSans-29" transform="translate(968.554688 0)"/>
     </g>
    </g>
    <g id="line2d_30">
     <g>
      <use xlink:href="#m668d743262" x="220.624006" y="81.103722" style="fill: #ffffff; stroke: #000000"/>
     </g>
    </g>
    <g id="text_19">
     <!-- data -->
     <g transform="translate(238.624006 84.603722) scale(0.1 -0.1)">
      <use xlink:href="#DejaVuSans-64"/>
      <use xlink:href="#DejaVuSans-61" transform="translate(63.476562 0)"/>
      <use xlink:href="#DejaVuSans-74" transform="translate(124.755859 0)"/>
      <use xlink:href="#DejaVuSans-61" transform="translate(163.964844 0)"/>
     </g>
    </g>
   </g>
  </g>
  <g id="axes_2">
   <g id="patch_8">
    <path d="M 414.271074 365.144242 
L 708.218182 365.144242 
L 708.218182 38.370909 
L 414.271074 38.370909 
z
" style="fill: #ffffff"/>
   </g>
   <g id="PathCollection_1">
    <defs>
     <path id="m49e7c7b01d" d="M 0 3 
C 0.795609 3 1.55874 2.683901 2.12132 2.12132 
C 2.683901 1.55874 3 0.795609 3 0 
C 3 -0.795609 2.683901 -1.55874 2.12132 -2.12132 
C 1.55874 -2.683901 0.795609 -3 0 -3 
C -0.795609 -3 -1.55874 -2.683901 -2.12132 -2.12132 
C -2.683901 -1.55874 -3 -0.795609 -3 0 
C -3 0.795609 -2.683901 1.55874 -2.12132 2.12132 
C -1.55874 2.683901 -0.795609 3 0 3 
z
" style="stroke: #4285f4"/>
    </defs>
    <g clip-path="url(#pc7a213c8e8)">
     <use xlink:href="#m49e7c7b01d" x="427.632307" y="280.264436" style="fill: #4285f4; stroke: #4285f4"/>
     <use xlink:href="#m49e7c7b01d" x="444.333847" y="84.670674" style="fill: #4285f4; stroke: #4285f4"/>
     <use xlink:href="#m49e7c7b01d" x="461.035387" y="209.16616" style="fill: #4285f4; stroke: #4285f4"/>
     <use xlink:href="#m49e7c7b01d" x="477.736927" y="70.967244" style="fill: #4285f4; stroke: #4285f4"/>
     <use xlink:href="#m49e7c7b01d" x="494.438467" y="255.904632" style="fill: #4285f4; stroke: #4285f4"/>
     <use xlink:href="#m49e7c7b01d" x="511.140008" y="156.160057" style="fill: #4285f4; stroke: #4285f4"/>
     <use xlink:href="#m49e7c7b01d" x="527.841548" y="350.290909" style="fill: #4285f4; stroke: #4285f4"/>
     <use xlink:href="#m49e7c7b01d" x="544.543088" y="222.723279" style="fill: #4285f4; stroke: #4285f4"/>
     <use xlink:href="#m49e7c7b01d" x="561.244628" y="309.374626" style="fill: #4285f4; stroke: #4285f4"/>
     <use xlink:href="#m49e7c7b01d" x="577.946168" y="175.037508" style="fill: #4285f4; stroke: #4285f4"/>
     <use xlink:href="#m49e7c7b01d" x="594.647708" y="194.749841" style="fill: #4285f4; stroke: #4285f4"/>
     <use xlink:href="#m49e7c7b01d" x="611.349249" y="53.224242" style="fill: #4285f4; stroke: #4285f4"/>
     <use xlink:href="#m49e7c7b01d" x="628.050789" y="146.51643" style="fill: #4285f4; stroke: #4285f4"/>
     <use xlink:href="#m49e7c7b01d" x="644.752329" y="81.74485" style="fill: #4285f4; stroke: #4285f4"/>
     <use xlink:href="#m49e7c7b01d" x="661.453869" y="238.205183" style="fill: #4285f4; stroke: #4285f4"/>
     <use xlink:href="#m49e7c7b01d" x="678.155409" y="231.299805" style="fill: #4285f4; stroke: #4285f4"/>
     <use xlink:href="#m49e7c7b01d" x="694.85695" y="263.185736" style="fill: #4285f4; stroke: #4285f4"/>
    </g>
   </g>
   <g id="matplotlib.axis_3">
    <g id="xtick_8">
     <g id="line2d_31">
      <path d="M 452.684617 365.144242 
L 452.684617 38.370909 
" clip-path="url(#pc7a213c8e8)" style="fill: none; stroke: #b0b0b0; stroke-opacity: 0.3; stroke-width: 0.8; stroke-linecap: square"/>
     </g>
     <g id="line2d_32">
      <g>
       <use xlink:href="#m1aeb227575" x="452.684617" y="365.144242" style="stroke: #000000; stroke-width: 0.8"/>
      </g>
     </g>
     <g id="text_20">
      <!-- 0.05 -->
      <g transform="translate(439.325242 381.262367) scale(0.12 -0.12)">
       <use xlink:href="#DejaVuSans-30"/>
       <use xlink:href="#DejaVuSans-2e" transform="translate(63.623047 0)"/>
       <use xlink:href="#DejaVuSans-30" transform="translate(95.410156 0)"/>
       <use xlink:href="#DejaVuSans-35" transform="translate(159.033203 0)"/>
      </g>
     </g>
    </g>
    <g id="xtick_9">
     <g id="line2d_33">
      <path d="M 494.438467 365.144242 
L 494.438467 38.370909 
" clip-path="url(#pc7a213c8e8)" style="fill: none; stroke: #b0b0b0; stroke-opacity: 0.3; stroke-width: 0.8; stroke-linecap: square"/>
     </g>
     <g id="line2d_34">
      <g>
       <use xlink:href="#m1aeb227575" x="494.438467" y="365.144242" style="stroke: #000000; stroke-width: 0.8"/>
      </g>
     </g>
     <g id="text_21">
      <!-- 0.10 -->
      <g transform="translate(481.079092 381.262367) scale(0.12 -0.12)">
       <use xlink:href="#DejaVuSans-30"/>
       <use xlink:href="#DejaVuSans-2e" transform="translate(63.623047 0)"/>
       <use xlink:href="#DejaVuSans-31" transform="translate(95.410156 0)"/>
       <use xlink:href="#DejaVuSans-30" transform="translate(159.033203 0)"/>
      </g>
     </g>
    </g>
    <g id="xtick_10">
     <g id="line2d_35">
      <path d="M 536.192318 365.144242 
L 536.192318 38.370909 
" clip-path="url(#pc7a213c8e8)" style="fill: none; stroke: #b0b0b0; stroke-opacity: 0.3; stroke-width: 0.8; stroke-linecap: square"/>
     </g>
     <g id="line2d_36">
      <g>
       <use xlink:href="#m1aeb227575" x="536.192318" y="365.144242" style="stroke: #000000; stroke-width: 0.8"/>
      </g>
     </g>
     <g id="text_22">
      <!-- 0.15 -->
      <g transform="translate(522.832943 381.262367) scale(0.12 -0.12)">
       <use xlink:href="#DejaVuSans-30"/>
       <use xlink:href="#DejaVuSans-2e" transform="translate(63.623047 0)"/>
       <use xlink:href="#DejaVuSans-31" transform="translate(95.410156 0)"/>
       <use xlink:href="#DejaVuSans-35" transform="translate(159.033203 0)"/>
      </g>
     </g>
    </g>
    <g id="xtick_11">
     <g id="line2d_37">
      <path d="M 577.946168 365.144242 
L 577.946168 38.370909 
" clip-path="url(#pc7a213c8e8)" style="fill: none; stroke: #b0b0b0; stroke-opacity: 0.3; stroke-width: 0.8; stroke-linecap: square"/>
     </g>
     <g id="line2d_38">
      <g>
       <use xlink:href="#m1aeb227575" x="577.946168" y="365.144242" style="stroke: #000000; stroke-width: 0.8"/>
      </g>
     </g>
     <g id="text_23">
      <!-- 0.20 -->
      <g transform="translate(564.586793 381.262367) scale(0.12 -0.12)">
       <use xlink:href="#DejaVuSans-30"/>
       <use xlink:href="#DejaVuSans-2e" transform="translate(63.623047 0)"/>
       <use xlink:href="#DejaVuSans-32" transform="translate(95.410156 0)"/>
       <use xlink:href="#DejaVuSans-30" transform="translate(159.033203 0)"/>
      </g>
     </g>
    </g>
    <g id="xtick_12">
     <g id="line2d_39">
      <path d="M 619.700019 365.144242 
L 619.700019 38.370909 
" clip-path="url(#pc7a213c8e8)" style="fill: none; stroke: #b0b0b0; stroke-opacity: 0.3; stroke-width: 0.8; stroke-linecap: square"/>
     </g>
     <g id="line2d_40">
      <g>
       <use xlink:href="#m1aeb227575" x="619.700019" y="365.144242" style="stroke: #000000; stroke-width: 0.8"/>
      </g>
     </g>
     <g id="text_24">
      <!-- 0.25 -->
      <g transform="translate(606.340644 381.262367) scale(0.12 -0.12)">
       <use xlink:href="#DejaVuSans-30"/>
       <use xlink:href="#DejaVuSans-2e" transform="translate(63.623047 0)"/>
       <use xlink:href="#DejaVuSans-32" transform="translate(95.410156 0)"/>
       <use xlink:href="#DejaVuSans-35" transform="translate(159.033203 0)"/>
      </g>
     </g>
    </g>
    <g id="xtick_13">
     <g id="line2d_41">
      <path d="M 661.453869 365.144242 
L 661.453869 38.370909 
" clip-path="url(#pc7a213c8e8)" style="fill: none; stroke: #b0b0b0; stroke-opacity: 0.3; stroke-width: 0.8; stroke-linecap: square"/>
     </g>
     <g id="line2d_42">
      <g>
       <use xlink:href="#m1aeb227575" x="661.453869" y="365.144242" style="stroke: #000000; stroke-width: 0.8"/>
      </g>
     </g>
     <g id="text_25">
      <!-- 0.30 -->
      <g transform="translate(648.094494 381.262367) scale(0.12 -0.12)">
       <use xlink:href="#DejaVuSans-30"/>
       <use xlink:href="#DejaVuSans-2e" transform="translate(63.623047 0)"/>
       <use xlink:href="#DejaVuSans-33" transform="translate(95.410156 0)"/>
       <use xlink:href="#DejaVuSans-30" transform="translate(159.033203 0)"/>
      </g>
     </g>
    </g>
    <g id="xtick_14">
     <g id="line2d_43">
      <path d="M 703.20772 365.144242 
L 703.20772 38.370909 
" clip-path="url(#pc7a213c8e8)" style="fill: none; stroke: #b0b0b0; stroke-opacity: 0.3; stroke-width: 0.8; stroke-linecap: square"/>
     </g>
     <g id="line2d_44">
      <g>
       <use xlink:href="#m1aeb227575" x="703.20772" y="365.144242" style="stroke: #000000; stroke-width: 0.8"/>
      </g>
     </g>
     <g id="text_26">
      <!-- 0.35 -->
      <g transform="translate(689.848345 381.262367) scale(0.12 -0.12)">
       <use xlink:href="#DejaVuSans-30"/>
       <use xlink:href="#DejaVuSans-2e" transform="translate(63.623047 0)"/>
       <use xlink:href="#DejaVuSans-33" transform="translate(95.410156 0)"/>
       <use xlink:href="#DejaVuSans-35" transform="translate(159.033203 0)"/>
      </g>
     </g>
    </g>
    <g id="text_27">
     <!-- Gap height $h$ (mm) -->
     <g transform="translate(504.064628 396.877992) scale(0.12 -0.12)">
      <use xlink:href="#DejaVuSans-47" transform="translate(0 0.015625)"/>
      <use xlink:href="#DejaVuSans-61" transform="translate(77.490234 0.015625)"/>
      <use xlink:href="#DejaVuSans-70" transform="translate(138.769531 0.015625)"/>
      <use xlink:href="#DejaVuSans-20" transform="translate(202.246094 0.015625)"/>
      <use xlink:href="#DejaVuSans-68" transform="translate(234.033203 0.015625)"/>
      <use xlink:href="#DejaVuSans-65" transform="translate(297.412109 0.015625)"/>
      <use xlink:href="#DejaVuSans-69" transform="translate(358.935547 0.015625)"/>
      <use xlink:href="#DejaVuSans-67" transform="translate(386.71875 0.015625)"/>
      <use xlink:href="#DejaVuSans-68" transform="translate(450.195312 0.015625)"/>
      <use xlink:href="#DejaVuSans-74" transform="translate(513.574219 0.015625)"/>
      <use xlink:href="#DejaVuSans-20" transform="translate(552.783203 0.015625)"/>
      <use xlink:href="#DejaVuSans-Oblique-68" transform="translate(584.570312 0.015625)"/>
      <use xlink:href="#DejaVuSans-20" transform="translate(647.949219 0.015625)"/>
      <use xlink:href="#DejaVuSans-28" transform="translate(679.736328 0.015625)"/>
      <use xlink:href="#DejaVuSans-6d" transform="translate(718.75 0.015625)"/>
      <use xlink:href="#DejaVuSans-6d" transform="translate(816.162109 0.015625)"/>
      <use xlink:href="#DejaVuSans-29" transform="translate(913.574219 0.015625)"/>
     </g>
    </g>
   </g>
   <g id="matplotlib.axis_4">
    <g id="ytick_7">
     <g id="line2d_45">
      <path d="M 414.271074 349.591507 
L 708.218182 349.591507 
" clip-path="url(#pc7a213c8e8)" style="fill: none; stroke: #b0b0b0; stroke-opacity: 0.3; stroke-width: 0.8; stroke-linecap: square"/>
     </g>
     <g id="line2d_46">
      <g>
       <use xlink:href="#ma536df35db" x="414.271074" y="349.591507" style="stroke: #000000; stroke-width: 0.8"/>
      </g>
     </g>
     <g id="text_28">
      <!-- −0.20 -->
      <g transform="translate(370.496699 354.150569) scale(0.12 -0.12)">
       <defs>
        <path id="DejaVuSans-2212" d="M 678 2272 
L 4684 2272 
L 4684 1741 
L 678 1741 
L 678 2272 
z
" transform="scale(0.015625)"/>
       </defs>
       <use xlink:href="#DejaVuSans-2212"/>
       <use xlink:href="#DejaVuSans-30" transform="translate(83.789062 0)"/>
       <use xlink:href="#DejaVuSans-2e" transform="translate(147.412109 0)"/>
       <use xlink:href="#DejaVuSans-32" transform="translate(179.199219 0)"/>
       <use xlink:href="#DejaVuSans-30" transform="translate(242.822266 0)"/>
      </g>
     </g>
    </g>
    <g id="ytick_8">
     <g id="line2d_47">
      <path d="M 414.271074 311.068418 
L 708.218182 311.068418 
" clip-path="url(#pc7a213c8e8)" style="fill: none; stroke: #b0b0b0; stroke-opacity: 0.3; stroke-width: 0.8; stroke-linecap: square"/>
     </g>
     <g id="line2d_48">
      <g>
       <use xlink:href="#ma536df35db" x="414.271074" y="311.068418" style="stroke: #000000; stroke-width: 0.8"/>
      </g>
     </g>
     <g id="text_29">
      <!-- −0.15 -->
      <g transform="translate(370.496699 315.627481) scale(0.12 -0.12)">
       <use xlink:href="#DejaVuSans-2212"/>
       <use xlink:href="#DejaVuSans-30" transform="translate(83.789062 0)"/>
       <use xlink:href="#DejaVuSans-2e" transform="translate(147.412109 0)"/>
       <use xlink:href="#DejaVuSans-31" transform="translate(179.199219 0)"/>
       <use xlink:href="#DejaVuSans-35" transform="translate(242.822266 0)"/>
      </g>
     </g>
    </g>
    <g id="ytick_9">
     <g id="line2d_49">
      <path d="M 414.271074 272.54533 
L 708.218182 272.54533 
" clip-path="url(#pc7a213c8e8)" style="fill: none; stroke: #b0b0b0; stroke-opacity: 0.3; stroke-width: 0.8; stroke-linecap: square"/>
     </g>
     <g id="line2d_50">
      <g>
       <use xlink:href="#ma536df35db" x="414.271074" y="272.54533" style="stroke: #000000; stroke-width: 0.8"/>
      </g>
     </g>
     <g id="text_30">
      <!-- −0.10 -->
      <g transform="translate(370.496699 277.104393) scale(0.12 -0.12)">
       <use xlink:href="#DejaVuSans-2212"/>
       <use xlink:href="#DejaVuSans-30" transform="translate(83.789062 0)"/>
       <use xlink:href="#DejaVuSans-2e" transform="translate(147.412109 0)"/>
       <use xlink:href="#DejaVuSans-31" transform="translate(179.199219 0)"/>
       <use xlink:href="#DejaVuSans-30" transform="translate(242.822266 0)"/>
      </g>
     </g>
    </g>
    <g id="ytick_10">
     <g id="line2d_51">
      <path d="M 414.271074 234.022242 
L 708.218182 234.022242 
" clip-path="url(#pc7a213c8e8)" style="fill: none; stroke: #b0b0b0; stroke-opacity: 0.3; stroke-width: 0.8; stroke-linecap: square"/>
     </g>
     <g id="line2d_52">
      <g>
       <use xlink:href="#ma536df35db" x="414.271074" y="234.022242" style="stroke: #000000; stroke-width: 0.8"/>
      </g>
     </g>
     <g id="text_31">
      <!-- −0.05 -->
      <g transform="translate(370.496699 238.581304) scale(0.12 -0.12)">
       <use xlink:href="#DejaVuSans-2212"/>
       <use xlink:href="#DejaVuSans-30" transform="translate(83.789062 0)"/>
       <use xlink:href="#DejaVuSans-2e" transform="translate(147.412109 0)"/>
       <use xlink:href="#DejaVuSans-30" transform="translate(179.199219 0)"/>
       <use xlink:href="#DejaVuSans-35" transform="translate(242.822266 0)"/>
      </g>
     </g>
    </g>
    <g id="ytick_11">
     <g id="line2d_53">
      <path d="M 414.271074 195.499154 
L 708.218182 195.499154 
" clip-path="url(#pc7a213c8e8)" style="fill: none; stroke: #b0b0b0; stroke-opacity: 0.3; stroke-width: 0.8; stroke-linecap: square"/>
     </g>
     <g id="line2d_54">
      <g>
       <use xlink:href="#ma536df35db" x="414.271074" y="195.499154" style="stroke: #000000; stroke-width: 0.8"/>
      </g>
     </g>
     <g id="text_32">
      <!-- 0.00 -->
      <g transform="translate(380.552324 200.058216) scale(0.12 -0.12)">
       <use xlink:href="#DejaVuSans-30"/>
       <use xlink:href="#DejaVuSans-2e" transform="translate(63.623047 0)"/>
       <use xlink:href="#DejaVuSans-30" transform="translate(95.410156 0)"/>
       <use xlink:href="#DejaVuSans-30" transform="translate(159.033203 0)"/>
      </g>
     </g>
    </g>
    <g id="ytick_12">
     <g id="line2d_55">
      <path d="M 414.271074 156.976065 
L 708.218182 156.976065 
" clip-path="url(#pc7a213c8e8)" style="fill: none; stroke: #b0b0b0; stroke-opacity: 0.3; stroke-width: 0.8; stroke-linecap: square"/>
     </g>
     <g id="line2d_56">
      <g>
       <use xlink:href="#ma536df35db" x="414.271074" y="156.976065" style="stroke: #000000; stroke-width: 0.8"/>
      </g>
     </g>
     <g id="text_33">
      <!-- 0.05 -->
      <g transform="translate(380.552324 161.535128) scale(0.12 -0.12)">
       <use xlink:href="#DejaVuSans-30"/>
       <use xlink:href="#DejaVuSans-2e" transform="translate(63.623047 0)"/>
       <use xlink:href="#DejaVuSans-30" transform="translate(95.410156 0)"/>
       <use xlink:href="#DejaVuSans-35" transform="translate(159.033203 0)"/>
      </g>
     </g>
    </g>
    <g id="ytick_13">
     <g id="line2d_57">
      <path d="M 414.271074 118.452977 
L 708.218182 118.452977 
" clip-path="url(#pc7a213c8e8)" style="fill: none; stroke: #b0b0b0; stroke-opacity: 0.3; stroke-width: 0.8; stroke-linecap: square"/>
     </g>
     <g id="line2d_58">
      <g>
       <use xlink:href="#ma536df35db" x="414.271074" y="118.452977" style="stroke: #000000; stroke-width: 0.8"/>
      </g>
     </g>
     <g id="text_34">
      <!-- 0.10 -->
      <g transform="translate(380.552324 123.01204) scale(0.12 -0.12)">
       <use xlink:href="#DejaVuSans-30"/>
       <use xlink:href="#DejaVuSans-2e" transform="translate(63.623047 0)"/>
       <use xlink:href="#DejaVuSans-31" transform="translate(95.410156 0)"/>
       <use xlink:href="#DejaVuSans-30" transform="translate(159.033203 0)"/>
      </g>
     </g>
    </g>
    <g id="ytick_14">
     <g id="line2d_59">
      <path d="M 414.271074 79.929889 
L 708.218182 79.929889 
" clip-path="url(#pc7a213c8e8)" style="fill: none; stroke: #b0b0b0; stroke-opacity: 0.3; stroke-width: 0.8; stroke-linecap: square"/>
     </g>
     <g id="line2d_60">
      <g>
       <use xlink:href="#ma536df35db" x="414.271074" y="79.929889" style="stroke: #000000; stroke-width: 0.8"/>
      </g>
     </g>
     <g id="text_35">
      <!-- 0.15 -->
      <g transform="translate(380.552324 84.488952) scale(0.12 -0.12)">
       <use xlink:href="#DejaVuSans-30"/>
       <use xlink:href="#DejaVuSans-2e" transform="translate(63.623047 0)"/>
       <use xlink:href="#DejaVuSans-31" transform="translate(95.410156 0)"/>
       <use xlink:href="#DejaVuSans-35" transform="translate(159.033203 0)"/>
      </g>
     </g>
    </g>
    <g id="ytick_15">
     <g id="line2d_61">
      <path d="M 414.271074 41.406801 
L 708.218182 41.406801 
" clip-path="url(#pc7a213c8e8)" style="fill: none; stroke: #b0b0b0; stroke-opacity: 0.3; stroke-width: 0.8; stroke-linecap: square"/>
     </g>
     <g id="line2d_62">
      <g>
       <use xlink:href="#ma536df35db" x="414.271074" y="41.406801" style="stroke: #000000; stroke-width: 0.8"/>
      </g>
     </g>
     <g id="text_36">
      <!-- 0.20 -->
      <g transform="translate(380.552324 45.965863) scale(0.12 -0.12)">
       <use xlink:href="#DejaVuSans-30"/>
       <use xlink:href="#DejaVuSans-2e" transform="translate(63.623047 0)"/>
       <use xlink:href="#DejaVuSans-32" transform="translate(95.410156 0)"/>
       <use xlink:href="#DejaVuSans-30" transform="translate(159.033203 0)"/>
      </g>
     </g>
    </g>
    <g id="text_37">
     <!-- Residual -->
     <g transform="translate(364.001074 227.096326) rotate(-90) scale(0.12 -0.12)">
      <defs>
       <path id="DejaVuSans-75" d="M 544 1381 
L 544 3500 
L 1119 3500 
L 1119 1403 
Q 1119 906 1312 657 
Q 1506 409 1894 409 
Q 2359 409 2629 706 
Q 2900 1003 2900 1516 
L 2900 3500 
L 3475 3500 
L 3475 0 
L 2900 0 
L 2900 538 
Q 2691 219 2414 64 
Q 2138 -91 1772 -91 
Q 1169 -91 856 284 
Q 544 659 544 1381 
z
M 1991 3584 
L 1991 3584 
z
" transform="scale(0.015625)"/>
      </defs>
      <use xlink:href="#DejaVuSans-52"/>
      <use xlink:href="#DejaVuSans-65" transform="translate(64.982422 0)"/>
      <use xlink:href="#DejaVuSans-73" transform="translate(126.505859 0)"/>
      <use xlink:href="#DejaVuSans-69" transform="translate(178.605469 0)"/>
      <use xlink:href="#DejaVuSans-64" transform="translate(206.388672 0)"/>
      <use xlink:href="#DejaVuSans-75" transform="translate(269.865234 0)"/>
      <use xlink:href="#DejaVuSans-61" transform="translate(333.244141 0)"/>
      <use xlink:href="#DejaVuSans-6c" transform="translate(394.523438 0)"/>
     </g>
    </g>
   </g>
   <g id="line2d_63">
    <path d="M 414.271074 195.499154 
L 708.218182 195.499154 
" clip-path="url(#pc7a213c8e8)" style="fill: none; stroke: #0f9d58; stroke-width: 0.8; stroke-linecap: square"/>
   </g>
   <g id="patch_9">
    <path d="M 414.271074 365.144242 
L 414.271074 38.370909 
" style="fill: none; stroke: #000000; stroke-width: 0.8; stroke-linejoin: miter; stroke-linecap: square"/>
   </g>
   <g id="patch_10">
    <path d="M 708.218182 365.144242 
L 708.218182 38.370909 
" style="fill: none; stroke: #000000; stroke-width: 0.8; stroke-linejoin: miter; stroke-linecap: square"/>
   </g>
   <g id="patch_11">
    <path d="M 414.271074 365.144242 
L 708.218182 365.144242 
" style="fill: none; stroke: #000000; stroke-width: 0.8; stroke-linejoin: miter; stroke-linecap: square"/>
   </g>
   <g id="patch_12">
    <path d="M 414.271074 38.370909 
L 708.218182 38.370909 
" style="fill: none; stroke: #000000; stroke-width: 0.8; stroke-linejoin: miter; stroke-linecap: square"/>
   </g>
   <g id="text_38">
    <!-- Residual diagnostics -->
    <g transform="translate(494.889784 32.370909) scale(0.13 -0.13)">
     <use xlink:href="#DejaVuSans-52"/>
     <use xlink:href="#DejaVuSans-65" transform="translate(64.982422 0)"/>
     <use xlink:href="#DejaVuSans-73" transform="translate(126.505859 0)"/>
     <use xlink:href="#DejaVuSans-69" transform="translate(178.605469 0)"/>
     <use xlink:href="#DejaVuSans-64" transform="translate(206.388672 0)"/>
     <use xlink:href="#DejaVuSans-75" transform="translate(269.865234 0)"/>
     <use xlink:href="#DejaVuSans-61" transform="translate(333.244141 0)"/>
     <use xlink:href="#DejaVuSans-6c" transform="translate(394.523438 0)"/>
     <use xlink:href="#DejaVuSans-20" transform="translate(422.306641 0)"/>
     <use xlink:href="#DejaVuSans-64" transform="translate(454.09375 0)"/>
     <use xlink:href="#DejaVuSans-69" transform="translate(517.570312 0)"/>
     <use xlink:href="#DejaVuSans-61" transform="translate(545.353516 0)"/>
     <use xlink:href="#DejaVuSans-67" transform="translate(606.632812 0)"/>
     <use xlink:href="#DejaVuSans-6e" transform="translate(670.109375 0)"/>
     <use xlink:href="#DejaVuSans-6f" transform="translate(733.488281 0)"/>
     <use xlink:href="#DejaVuSans-73" transform="translate(794.669922 0)"/>
     <use xlink:href="#DejaVuSans-74" transform="translate(846.769531 0)"/>
     <use xlink:href="#DejaVuSans-69" transform="translate(885.978516 0)"/>
     <use xlink:href="#DejaVuSans-63" transform="translate(913.761719 0)"/>
     <use xlink:href="#DejaVuSans-73" transform="translate(968.742188 0)"/>
    </g>
   </g>
  </g>
 </g>
 <defs>
  <clipPath id="p7c9a5db44c">
   <rect x="54.434711" y="38.370909" width="293.947107" height="326.773333"/>
  </clipPath>
  <clipPath id="pc7a213c8e8">
   <rect x="414.271074" y="38.370909" width="293.947107" height="326.773333"/>
  </clipPath>
 </defs>
</svg>
