<?xml version="1.0" encoding="utf-8" standalone="no"?>
<!DOCTYPE svg PUBLIC "-//W3C//DTD SVG 1.1//EN"
  "http://www.w3.org/Graphics/SVG/1.1/DTD/svg11.dtd">
<svg xmlns:xlink="http://www.w3.org/1999/xlink" width="432pt" height="432pt" viewBox="0 0 432 432" xmlns="http://www.w3.org/2000/svg" version="1.1">
 <metadata>
  <rdf:RDF xmlns:dc="http://purl.org/dc/elements/1.1/" xmlns:cc="http://creativecommons.org/ns#" xmlns:rdf="http://www.w3.org/1999/02/22-rdf-syntax-ns#">
   <cc:Work>
    <dc:type rdf:resource="http://purl.org/dc/dcmitype/StillImage"/>
    <dc:date>2026-06-19T11:54:53.149773</dc:date>
    <dc:format>image/svg+xml</dc:format>
    <dc:creator>
     <cc:Agent>
      <dc:title>Matplotlib v3.10.0, https://matplotlib.org/</dc:title>
     </cc:Agent>
    </dc:creator>
   </cc:Work>
  </rdf:RDF>
 </metadata>
 <defs>
  <style type="text/css">*{stroke-linejoin: round; stroke-linecap: butt}</style>
 </defs>
 <g id="figure_1">
  <g id="patch_1">
   <path d="M 0 432 
L 432 432 
L 432 0 
L 0 0 
z
" style="fill: #ffffff"/>
  </g>
  <g id="axes_1">
   <g id="patch_2">
    <path d="M 59.878182 381.858182 
L 411.410455 381.858182 
L 411.410455 28.778182 
L 59.878182 28.778182 
z
" style="fill: #ffffff"/>
   </g>
   <g id="FillBetweenPolyCollection_1">
    <defs>
     <path id="mad52d220fe" d="M 75.856921 -387.172727 
L 75.856921 -382.633251 
L 76.925734 -380.591702 
L 77.994546 -378.558107 
L 79.063358 -376.540732 
L 80.13217 -374.537055 
L 81.200982 -372.546918 
L 82.269794 -370.570163 
L 83.338606 -368.606636 
L 84.407418 -366.640343 
L 85.47623 -364.690083 
L 86.545042 -362.762013 
L 87.613854 -360.84653 
L 88.682666 -358.943303 
L 89.751478 -357.052774 
L 90.82029 -355.193735 
L 91.889102 -353.320602 
L 92.957914 -351.458033 
L 94.026726 -349.608019 
L 95.095538 -347.775553 
L 96.16435 -345.954486 
L 97.233162 -344.144703 
L 98.301974 -342.346087 
L 99.370786 -340.558525 
L 100.439598 -338.779869 
L 101.50841 -337.008741 
L 102.577222 -335.24868 
L 103.646034 -333.499566 
L 104.714846 -331.761285 
L 105.783658 -330.03375 
L 106.85247 -328.316878 
L 107.921282 -326.613436 
L 108.990094 -324.923568 
L 110.058906 -323.243918 
L 111.127718 -321.57435 
L 112.19653 -319.914776 
L 113.265342 -318.265111 
L 114.334154 -316.624091 
L 115.402966 -314.98723 
L 116.471778 -313.365427 
L 117.54059 -311.756013 
L 118.609402 -310.152274 
L 119.678214 -308.548564 
L 120.747026 -306.954052 
L 121.815838 -305.378759 
L 122.88465 -303.812627 
L 123.953462 -302.244554 
L 125.022274 -300.695253 
L 126.091086 -299.154825 
L 127.159898 -297.623065 
L 128.22871 -296.084316 
L 129.297522 -294.557822 
L 130.366334 -293.048505 
L 131.435146 -291.547936 
L 132.503958 -290.055766 
L 133.57277 -288.570592 
L 134.641582 -287.070068 
L 135.710394 -285.594821 
L 136.779207 -284.120162 
L 137.848019 -282.64959 
L 138.916831 -281.187629 
L 139.985643 -279.734189 
L 141.054455 -278.289178 
L 142.123267 -276.852508 
L 143.192079 -275.42409 
L 144.260891 -274.003838 
L 145.329703 -272.591667 
L 146.398515 -271.187686 
L 147.467327 -269.788499 
L 148.536139 -268.396947 
L 149.604951 -267.01328 
L 150.673763 -265.637417 
L 151.742575 -264.274731 
L 152.811387 -262.919901 
L 153.880199 -261.568384 
L 154.949011 -260.234313 
L 156.017823 -258.898586 
L 157.086635 -257.570178 
L 158.155447 -256.248982 
L 159.224259 -254.935198 
L 160.293071 -253.634494 
L 161.361883 -252.336912 
L 162.430695 -251.047862 
L 163.499507 -249.765513 
L 164.568319 -248.489802 
L 165.637131 -247.220703 
L 166.705943 -245.95847 
L 167.774755 -244.705594 
L 168.843567 -243.452887 
L 169.912379 -242.209396 
L 170.981191 -240.972181 
L 172.050003 -239.741182 
L 173.118815 -238.516344 
L 174.187627 -237.29761 
L 175.256439 -236.084925 
L 176.325251 -234.878233 
L 177.394063 -233.67678 
L 178.462875 -232.47735 
L 179.531687 -231.283848 
L 180.600499 -230.092246 
L 181.669311 -228.903164 
L 182.738123 -227.719829 
L 183.806935 -226.542193 
L 184.875747 -225.370211 
L 185.944559 -224.203838 
L 187.013371 -223.050467 
L 188.082183 -221.902826 
L 189.150995 -220.760678 
L 190.219807 -219.623975 
L 191.288619 -218.493608 
L 192.357431 -217.368831 
L 193.426243 -216.248807 
L 194.495055 -215.130551 
L 195.563868 -214.021022 
L 196.63268 -212.917027 
L 197.701492 -211.81813 
L 198.770304 -210.724287 
L 199.839116 -209.635456 
L 200.907928 -208.551595 
L 201.97674 -207.469428 
L 203.045552 -206.395936 
L 204.114364 -205.321216 
L 205.183176 -204.258182 
L 206.251988 -203.199962 
L 207.3208 -202.139915 
L 208.389612 -201.085974 
L 209.458424 -200.037703 
L 210.527236 -198.98639 
L 211.596048 -197.938732 
L 212.66486 -196.895744 
L 213.733672 -195.859189 
L 214.802484 -194.829089 
L 215.871296 -193.803652 
L 216.940108 -192.779844 
L 218.00892 -191.752987 
L 219.077732 -190.733401 
L 220.146544 -189.718393 
L 221.215356 -188.704601 
L 222.284168 -187.695288 
L 223.35298 -186.690429 
L 224.421792 -185.690047 
L 225.490604 -184.709633 
L 226.559416 -183.722555 
L 227.628228 -182.736733 
L 228.69704 -181.764519 
L 229.765852 -180.794406 
L 230.834664 -179.82175 
L 231.903476 -178.849819 
L 232.972288 -177.878574 
L 234.0411 -176.91156 
L 235.109912 -175.948786 
L 236.178724 -174.995067 
L 237.247536 -174.045464 
L 238.316348 -173.100626 
L 239.38516 -172.163694 
L 240.453972 -171.230879 
L 241.522784 -170.302264 
L 242.591596 -169.377784 
L 243.660408 -168.457348 
L 244.72922 -167.539446 
L 245.798032 -166.621716 
L 246.866844 -165.710975 
L 247.935656 -164.806022 
L 249.004468 -163.904695 
L 250.07328 -163.006969 
L 251.142092 -162.106734 
L 252.210904 -161.209241 
L 253.279716 -160.31544 
L 254.348528 -159.42547 
L 255.417341 -158.540657 
L 256.486153 -157.656432 
L 257.554965 -156.775991 
L 258.623777 -155.899872 
L 259.692589 -155.027252 
L 260.761401 -154.15811 
L 261.830213 -153.292444 
L 262.899025 -152.430259 
L 263.967837 -151.571491 
L 265.036649 -150.716116 
L 266.105461 -149.864828 
L 267.174273 -149.019011 
L 268.243085 -148.179184 
L 269.311897 -147.342816 
L 270.380709 -146.509887 
L 271.449521 -145.680377 
L 272.518333 -144.851129 
L 273.587145 -144.021224 
L 274.655957 -143.194505 
L 275.724769 -142.370954 
L 276.793581 -141.550552 
L 277.862393 -140.73328 
L 278.931205 -139.919121 
L 280.000017 -139.108056 
L 281.068829 -138.300068 
L 282.137641 -137.495138 
L 283.206453 -136.692659 
L 284.275265 -135.892184 
L 285.344077 -135.098013 
L 286.412889 -134.30541 
L 287.481701 -133.515404 
L 288.550513 -132.728404 
L 289.619325 -131.944391 
L 290.688137 -131.163376 
L 291.756949 -130.386349 
L 292.825761 -129.617224 
L 293.894573 -128.85132 
L 294.963385 -128.086163 
L 296.032197 -127.3282 
L 297.101009 -126.571005 
L 298.169821 -125.81674 
L 299.238633 -125.065389 
L 300.307445 -124.312774 
L 301.376257 -123.559072 
L 302.445069 -122.808121 
L 303.513881 -122.059906 
L 304.582693 -121.314413 
L 305.651505 -120.571707 
L 306.720317 -119.831696 
L 307.789129 -119.096271 
L 308.857941 -118.367437 
L 309.926753 -117.641298 
L 310.995565 -116.913425 
L 312.064377 -116.187278 
L 313.133189 -115.463698 
L 314.202002 -114.742658 
L 315.270814 -114.024146 
L 316.339626 -113.308146 
L 317.408438 -112.594645 
L 318.47725 -111.883629 
L 319.546062 -111.174979 
L 320.614874 -110.468897 
L 321.683686 -109.765192 
L 322.752498 -109.064006 
L 323.82131 -108.367613 
L 324.890122 -107.674325 
L 325.958934 -106.9835 
L 327.027746 -106.295123 
L 328.096558 -105.609182 
L 329.16537 -104.922293 
L 330.234182 -104.237536 
L 331.302994 -103.55511 
L 332.371806 -102.875004 
L 333.440618 -102.197204 
L 334.50943 -101.521699 
L 335.578242 -100.848477 
L 336.647054 -100.177525 
L 337.715866 -99.508831 
L 338.784678 -98.842384 
L 339.85349 -98.178171 
L 340.922302 -97.516182 
L 341.991114 -96.856403 
L 343.059926 -96.198825 
L 344.128738 -95.543502 
L 345.19755 -94.890377 
L 346.266362 -94.239418 
L 347.335174 -93.590615 
L 348.403986 -92.946957 
L 349.472798 -92.306033 
L 350.54161 -91.667275 
L 351.610422 -91.02904 
L 352.679234 -90.387839 
L 353.748046 -89.748725 
L 354.816858 -89.111687 
L 355.88567 -88.476715 
L 356.954482 -87.845659 
L 358.023294 -87.217632 
L 359.092106 -86.591642 
L 360.160918 -85.967677 
L 361.22973 -85.345837 
L 362.298542 -84.726011 
L 363.367354 -84.107403 
L 364.436166 -83.488109 
L 365.504978 -82.875902 
L 366.57379 -82.265661 
L 367.642602 -81.657146 
L 368.711414 -81.050936 
L 369.780226 -80.443441 
L 370.849038 -79.841646 
L 371.91785 -79.2418 
L 372.986662 -78.642411 
L 374.055475 -78.037501 
L 375.124287 -77.440331 
L 376.193099 -76.842954 
L 377.261911 -76.245957 
L 378.330723 -75.648493 
L 379.399535 -75.05479 
L 380.468347 -74.454359 
L 381.537159 -73.861359 
L 382.605971 -73.258399 
L 383.674783 -72.661225 
L 384.743595 -72.068899 
L 385.812407 -71.475838 
L 386.881219 -70.891917 
L 387.950031 -70.30525 
L 389.018843 -69.720917 
L 390.087655 -69.13486 
L 391.156467 -68.548888 
L 392.225279 -67.96912 
L 393.294091 -67.392001 
L 394.362903 -66.813946 
L 395.431715 -66.228613 
L 395.431715 -69.787248 
L 395.431715 -69.787248 
L 394.362903 -70.311419 
L 393.294091 -70.837497 
L 392.225279 -71.365491 
L 391.156467 -71.895409 
L 390.087655 -72.42726 
L 389.018843 -72.961056 
L 387.950031 -73.496803 
L 386.881219 -74.034513 
L 385.812407 -74.574195 
L 384.743595 -75.119147 
L 383.674783 -75.668239 
L 382.605971 -76.219264 
L 381.537159 -76.772231 
L 380.468347 -77.324734 
L 379.399535 -77.874539 
L 378.330723 -78.426415 
L 377.261911 -78.980372 
L 376.193099 -79.536419 
L 375.124287 -80.094568 
L 374.055475 -80.654828 
L 372.986662 -81.21721 
L 371.91785 -81.781724 
L 370.849038 -82.348381 
L 369.780226 -82.917191 
L 368.711414 -83.488165 
L 367.642602 -84.062086 
L 366.57379 -84.639108 
L 365.504978 -85.218292 
L 364.436166 -85.799647 
L 363.367354 -86.383186 
L 362.298542 -86.968918 
L 361.22973 -87.556855 
L 360.160918 -88.147007 
L 359.092106 -88.73931 
L 358.023294 -89.333765 
L 356.954482 -89.930471 
L 355.88567 -90.529442 
L 354.816858 -91.130688 
L 353.748046 -91.73422 
L 352.679234 -92.34005 
L 351.610422 -92.948191 
L 350.54161 -93.558652 
L 349.472798 -94.171447 
L 348.403986 -94.786587 
L 347.335174 -95.404084 
L 346.266362 -96.023949 
L 345.19755 -96.646196 
L 344.128738 -97.270835 
L 343.059926 -97.897879 
L 341.991114 -98.529647 
L 340.922302 -99.167427 
L 339.85349 -99.807573 
L 338.784678 -100.450098 
L 337.715866 -101.095015 
L 336.647054 -101.735241 
L 335.578242 -102.370848 
L 334.50943 -103.009041 
L 333.440618 -103.65232 
L 332.371806 -104.311732 
L 331.302994 -104.973555 
L 330.234182 -105.637693 
L 329.16537 -106.304214 
L 328.096558 -106.973189 
L 327.027746 -107.644631 
L 325.958934 -108.318553 
L 324.890122 -108.993793 
L 323.82131 -109.665666 
L 322.752498 -110.340242 
L 321.683686 -111.017225 
L 320.614874 -111.696934 
L 319.546062 -112.379001 
L 318.47725 -113.058885 
L 317.408438 -113.741504 
L 316.339626 -114.426871 
L 315.270814 -115.115003 
L 314.202002 -115.83412 
L 313.133189 -116.546922 
L 312.064377 -117.279237 
L 310.995565 -118.014022 
L 309.926753 -118.736943 
L 308.857941 -119.453424 
L 307.789129 -120.185336 
L 306.720317 -120.912142 
L 305.651505 -121.648078 
L 304.582693 -122.391472 
L 303.513881 -123.130937 
L 302.445069 -123.885306 
L 301.376257 -124.642061 
L 300.307445 -125.395478 
L 299.238633 -126.157345 
L 298.169821 -126.922359 
L 297.101009 -127.670403 
L 296.032197 -128.437087 
L 294.963385 -129.200332 
L 293.894573 -129.97465 
L 292.825761 -130.74705 
L 291.756949 -131.52198 
L 290.688137 -132.299489 
L 289.619325 -133.079618 
L 288.550513 -133.861888 
L 287.481701 -134.646621 
L 286.412889 -135.435006 
L 285.344077 -136.227681 
L 284.275265 -137.02502 
L 283.206453 -137.825147 
L 282.137641 -138.628078 
L 281.068829 -139.433833 
L 280.000017 -140.242429 
L 278.931205 -141.053883 
L 277.862393 -141.865244 
L 276.793581 -142.678643 
L 275.724769 -143.4998 
L 274.655957 -144.323916 
L 273.587145 -145.151008 
L 272.518333 -145.981094 
L 271.449521 -146.814193 
L 270.380709 -147.650261 
L 269.311897 -148.488284 
L 268.243085 -149.329354 
L 267.174273 -150.173491 
L 266.105461 -151.020715 
L 265.036649 -151.871993 
L 263.967837 -152.732114 
L 262.899025 -153.590248 
L 261.830213 -154.451469 
L 260.761401 -155.315796 
L 259.692589 -156.183354 
L 258.623777 -157.054162 
L 257.554965 -157.928242 
L 256.486153 -158.805614 
L 255.417341 -159.6863 
L 254.348528 -160.570321 
L 253.279716 -161.457698 
L 252.210904 -162.348455 
L 251.142092 -163.242612 
L 250.07328 -164.140192 
L 249.004468 -165.041217 
L 247.935656 -165.946008 
L 246.866844 -166.855712 
L 245.798032 -167.768975 
L 244.72922 -168.687177 
L 243.660408 -169.609313 
L 242.591596 -170.535093 
L 241.522784 -171.464542 
L 240.453972 -172.397682 
L 239.38516 -173.333394 
L 238.316348 -174.271006 
L 237.247536 -175.212265 
L 236.178724 -176.157168 
L 235.109912 -177.105423 
L 234.0411 -178.058774 
L 232.972288 -179.020821 
L 231.903476 -179.987539 
L 230.834664 -180.958175 
L 229.765852 -181.932755 
L 228.69704 -182.911305 
L 227.628228 -183.892139 
L 226.559416 -184.868886 
L 225.490604 -185.849608 
L 224.421792 -186.834344 
L 223.35298 -187.823124 
L 222.284168 -188.818505 
L 221.215356 -189.820781 
L 220.146544 -190.827205 
L 219.077732 -191.837807 
L 218.00892 -192.852615 
L 216.940108 -193.871658 
L 215.871296 -194.894967 
L 214.802484 -195.920178 
L 213.733672 -196.947095 
L 212.66486 -197.981027 
L 211.596048 -199.021503 
L 210.527236 -200.065699 
L 209.458424 -201.110886 
L 208.389612 -202.16059 
L 207.3208 -203.215759 
L 206.251988 -204.285752 
L 205.183176 -205.35938 
L 204.114364 -206.431739 
L 203.045552 -207.503913 
L 201.97674 -208.579748 
L 200.907928 -209.660243 
L 199.839116 -210.751563 
L 198.770304 -211.84894 
L 197.701492 -212.951171 
L 196.63268 -214.060404 
L 195.563868 -215.17606 
L 194.495055 -216.297214 
L 193.426243 -217.420525 
L 192.357431 -218.551597 
L 191.288619 -219.683962 
L 190.219807 -220.819588 
L 189.150995 -221.960323 
L 188.082183 -223.106204 
L 187.013371 -224.257269 
L 185.944559 -225.42037 
L 184.875747 -226.593793 
L 183.806935 -227.772586 
L 182.738123 -228.956784 
L 181.669311 -230.146425 
L 180.600499 -231.338075 
L 179.531687 -232.532851 
L 178.462875 -233.73317 
L 177.394063 -234.939072 
L 176.325251 -236.150599 
L 175.256439 -237.371487 
L 174.187627 -238.600195 
L 173.118815 -239.834593 
L 172.050003 -241.074798 
L 170.981191 -242.316055 
L 169.912379 -243.558548 
L 168.843567 -244.806783 
L 167.774755 -246.060283 
L 166.705943 -247.315156 
L 165.637131 -248.582567 
L 164.568319 -249.858592 
L 163.499507 -251.138939 
L 162.430695 -252.425862 
L 161.361883 -253.722538 
L 160.293071 -255.025088 
L 159.224259 -256.332527 
L 158.155447 -257.646699 
L 157.086635 -258.973051 
L 156.017823 -260.302086 
L 154.949011 -261.637648 
L 153.880199 -262.979596 
L 152.811387 -264.328052 
L 151.742575 -265.686029 
L 150.673763 -267.051202 
L 149.604951 -268.42312 
L 148.536139 -269.804151 
L 147.467327 -271.198359 
L 146.398515 -272.599456 
L 145.329703 -273.992524 
L 144.260891 -275.391248 
L 143.192079 -276.799139 
L 142.123267 -278.219715 
L 141.054455 -279.659462 
L 139.985643 -281.094627 
L 138.916831 -282.574161 
L 137.848019 -284.02344 
L 136.779207 -285.481061 
L 135.710394 -286.945199 
L 134.641582 -288.451113 
L 133.57277 -289.930905 
L 132.503958 -291.415311 
L 131.435146 -292.924081 
L 130.366334 -294.42917 
L 129.297522 -295.938126 
L 128.22871 -297.454988 
L 127.159898 -298.979818 
L 126.091086 -300.540499 
L 125.022274 -302.101111 
L 123.953462 -303.651523 
L 122.88465 -305.228637 
L 121.815838 -306.814939 
L 120.747026 -308.410276 
L 119.678214 -310.01035 
L 118.609402 -311.607813 
L 117.54059 -313.23062 
L 116.471778 -314.838091 
L 115.402966 -316.449799 
L 114.334154 -318.110799 
L 113.265342 -319.800886 
L 112.19653 -321.501913 
L 111.127718 -323.158615 
L 110.058906 -324.867495 
L 108.990094 -326.58679 
L 107.921282 -328.336773 
L 106.85247 -330.104399 
L 105.783658 -331.883399 
L 104.714846 -333.659859 
L 103.646034 -335.432493 
L 102.577222 -337.216365 
L 101.50841 -339.02278 
L 100.439598 -340.867239 
L 99.370786 -342.724942 
L 98.301974 -344.596064 
L 97.233162 -346.480783 
L 96.16435 -348.379152 
L 95.095538 -350.291368 
L 94.026726 -352.217733 
L 92.957914 -354.15844 
L 91.889102 -356.113686 
L 90.82029 -358.083671 
L 89.751478 -360.068602 
L 88.682666 -362.068686 
L 87.613854 -364.083218 
L 86.545042 -366.101374 
L 85.47623 -368.13502 
L 84.407418 -370.184378 
L 83.338606 -372.249671 
L 82.269794 -374.331127 
L 81.200982 -376.428981 
L 80.13217 -378.543469 
L 79.063358 -380.674837 
L 77.994546 -382.823332 
L 76.925734 -384.989209 
L 75.856921 -387.172727 
z
" style="stroke: #f4b400; stroke-opacity: 0.2"/>
    </defs>
    <g clip-path="url(#p685b0fb80e)">
     <use xlink:href="#mad52d220fe" x="0" y="432" style="fill: #f4b400; fill-opacity: 0.2; stroke: #f4b400; stroke-opacity: 0.2"/>
    </g>
   </g>
   <g id="matplotlib.axis_1">
    <g id="xtick_1">
     <g id="line2d_1">
      <path d="M 105.817058 381.858182 
L 105.817058 28.778182 
" clip-path="url(#p685b0fb80e)" style="fill: none; stroke: #b0b0b0; stroke-opacity: 0.3; stroke-width: 0.8; stroke-linecap: square"/>
     </g>
     <g id="line2d_2">
      <defs>
       <path id="ma9038fee7c" d="M 0 0 
L 0 3.5 
" style="stroke: #000000; stroke-width: 0.8"/>
      </defs>
      <g>
       <use xlink:href="#ma9038fee7c" x="105.817058" y="381.858182" style="stroke: #000000; stroke-width: 0.8"/>
      </g>
     </g>
     <g id="text_1">
      <!-- 0.05 -->
      <g transform="translate(92.457683 397.976307) scale(0.12 -0.12)">
       <defs>
        <path id="DejaVuSans-30" d="M 2034 4250 
Q 1547 4250 1301 3770 
Q 1056 3291 1056 2328 
Q 1056 1369 1301 889 
Q 1547 409 2034 409 
Q 2525 409 2770 889 
Q 3016 1369 3016 2328 
Q 3016 3291 2770 3770 
Q 2525 4250 2034 4250 
z
M 2034 4750 
Q 2819 4750 3233 4129 
Q 3647 3509 3647 2328 
Q 3647 1150 3233 529 
Q 2819 -91 2034 -91 
Q 1250 -91 836 529 
Q 422 1150 422 2328 
Q 422 3509 836 4129 
Q 1250 4750 2034 4750 
z
" transform="scale(0.015625)"/>
        <path id="DejaVuSans-2e" d="M 684 794 
L 1344 794 
L 1344 0 
L 684 0 
L 684 794 
z
" transform="scale(0.015625)"/>
        <path id="DejaVuSans-35" d="M 691 4666 
L 3169 4666 
L 3169 4134 
L 1269 4134 
L 1269 2991 
Q 1406 3038 1543 3061 
Q 1681 3084 1819 3084 
Q 2600 3084 3056 2656 
Q 3513 2228 3513 1497 
Q 3513 744 3044 326 
Q 2575 -91 1722 -91 
Q 1428 -91 1123 -41 
Q 819 9 494 109 
L 494 744 
Q 775 591 1075 516 
Q 1375 441 1709 441 
Q 2250 441 2565 725 
Q 2881 1009 2881 1497 
Q 2881 1984 2565 2268 
Q 2250 2553 1709 2553 
Q 1456 2553 1204 2497 
Q 953 2441 691 2322 
L 691 4666 
z
" transform="scale(0.015625)"/>
       </defs>
       <use xlink:href="#DejaVuSans-30"/>
       <use xlink:href="#DejaVuSans-2e" transform="translate(63.623047 0)"/>
       <use xlink:href="#DejaVuSans-30" transform="translate(95.410156 0)"/>
       <use xlink:href="#DejaVuSans-35" transform="translate(159.033203 0)"/>
      </g>
     </g>
    </g>
    <g id="xtick_2">
     <g id="line2d_3">
      <path d="M 155.75062 381.858182 
L 155.75062 28.778182 
" clip-path="url(#p685b0fb80e)" style="fill: none; stroke: #b0b0b0; stroke-opacity: 0.3; stroke-width: 0.8; stroke-linecap: square"/>
     </g>
     <g id="line2d_4">
      <g>
       <use xlink:href="#ma9038fee7c" x="155.75062" y="381.858182" style="stroke: #000000; stroke-width: 0.8"/>
      </g>
     </g>
     <g id="text_2">
      <!-- 0.10 -->
      <g transform="translate(142.391245 397.976307) scale(0.12 -0.12)">
       <defs>
        <path id="DejaVuSans-31" d="M 794 531 
L 1825 531 
L 1825 4091 
L 703 3866 
L 703 4441 
L 1819 4666 
L 2450 4666 
L 2450 531 
L 3481 531 
L 3481 0 
L 794 0 
L 794 531 
z
" transform="scale(0.015625)"/>
       </defs>
       <use xlink:href="#DejaVuSans-30"/>
       <use xlink:href="#DejaVuSans-2e" transform="translate(63.623047 0)"/>
       <use xlink:href="#DejaVuSans-31" transform="translate(95.410156 0)"/>
       <use xlink:href="#DejaVuSans-30" transform="translate(159.033203 0)"/>
      </g>
     </g>
    </g>
    <g id="xtick_3">
     <g id="line2d_5">
      <path d="M 205.684181 381.858182 
L 205.684181 28.778182 
" clip-path="url(#p685b0fb80e)" style="fill: none; stroke: #b0b0b0; stroke-opacity: 0.3; stroke-width: 0.8; stroke-linecap: square"/>
     </g>
     <g id="line2d_6">
      <g>
       <use xlink:href="#ma9038fee7c" x="205.684181" y="381.858182" style="stroke: #000000; stroke-width: 0.8"/>
      </g>
     </g>
     <g id="text_3">
      <!-- 0.15 -->
      <g transform="translate(192.324806 397.976307) scale(0.12 -0.12)">
       <use xlink:href="#DejaVuSans-30"/>
       <use xlink:href="#DejaVuSans-2e" transform="translate(63.623047 0)"/>
       <use xlink:href="#DejaVuSans-31" transform="translate(95.410156 0)"/>
       <use xlink:href="#DejaVuSans-35" transform="translate(159.033203 0)"/>
      </g>
     </g>
    </g>
    <g id="xtick_4">
     <g id="line2d_7">
      <path d="M 255.617743 381.858182 
L 255.617743 28.778182 
" clip-path="url(#p685b0fb80e)" style="fill: none; stroke: #b0b0b0; stroke-opacity: 0.3; stroke-width: 0.8; stroke-linecap: square"/>
     </g>
     <g id="line2d_8">
      <g>
       <use xlink:href="#ma9038fee7c" x="255.617743" y="381.858182" style="stroke: #000000; stroke-width: 0.8"/>
      </g>
     </g>
     <g id="text_4">
      <!-- 0.20 -->
      <g transform="translate(242.258368 397.976307) scale(0.12 -0.12)">
       <defs>
        <path id="DejaVuSans-32" d="M 1228 531 
L 3431 531 
L 3431 0 
L 469 0 
L 469 531 
Q 828 903 1448 1529 
Q 2069 2156 2228 2338 
Q 2531 2678 2651 2914 
Q 2772 3150 2772 3378 
Q 2772 3750 2511 3984 
Q 2250 4219 1831 4219 
Q 1534 4219 1204 4116 
Q 875 4013 500 3803 
L 500 4441 
Q 881 4594 1212 4672 
Q 1544 4750 1819 4750 
Q 2544 4750 2975 4387 
Q 3406 4025 3406 3419 
Q 3406 3131 3298 2873 
Q 3191 2616 2906 2266 
Q 2828 2175 2409 1742 
Q 1991 1309 1228 531 
z
" transform="scale(0.015625)"/>
       </defs>
       <use xlink:href="#DejaVuSans-30"/>
       <use xlink:href="#DejaVuSans-2e" transform="translate(63.623047 0)"/>
       <use xlink:href="#DejaVuSans-32" transform="translate(95.410156 0)"/>
       <use xlink:href="#DejaVuSans-30" transform="translate(159.033203 0)"/>
      </g>
     </g>
    </g>
    <g id="xtick_5">
     <g id="line2d_9">
      <path d="M 305.551304 381.858182 
L 305.551304 28.778182 
" clip-path="url(#p685b0fb80e)" style="fill: none; stroke: #b0b0b0; stroke-opacity: 0.3; stroke-width: 0.8; stroke-linecap: square"/>
     </g>
     <g id="line2d_10">
      <g>
       <use xlink:href="#ma9038fee7c" x="305.551304" y="381.858182" style="stroke: #000000; stroke-width: 0.8"/>
      </g>
     </g>
     <g id="text_5">
      <!-- 0.25 -->
      <g transform="translate(292.191929 397.976307) scale(0.12 -0.12)">
       <use xlink:href="#DejaVuSans-30"/>
       <use xlink:href="#DejaVuSans-2e" transform="translate(63.623047 0)"/>
       <use xlink:href="#DejaVuSans-32" transform="translate(95.410156 0)"/>
       <use xlink:href="#DejaVuSans-35" transform="translate(159.033203 0)"/>
      </g>
     </g>
    </g>
    <g id="xtick_6">
     <g id="line2d_11">
      <path d="M 355.484866 381.858182 
L 355.484866 28.778182 
" clip-path="url(#p685b0fb80e)" style="fill: none; stroke: #b0b0b0; stroke-opacity: 0.3; stroke-width: 0.8; stroke-linecap: square"/>
     </g>
     <g id="line2d_12">
      <g>
       <use xlink:href="#ma9038fee7c" x="355.484866" y="381.858182" style="stroke: #000000; stroke-width: 0.8"/>
      </g>
     </g>
     <g id="text_6">
      <!-- 0.30 -->
      <g transform="translate(342.125491 397.976307) scale(0.12 -0.12)">
       <defs>
        <path id="DejaVuSans-33" d="M 2597 2516 
Q 3050 2419 3304 2112 
Q 3559 1806 3559 1356 
Q 3559 666 3084 287 
Q 2609 -91 1734 -91 
Q 1441 -91 1130 -33 
Q 819 25 488 141 
L 488 750 
Q 750 597 1062 519 
Q 1375 441 1716 441 
Q 2309 441 2620 675 
Q 2931 909 2931 1356 
Q 2931 1769 2642 2001 
Q 2353 2234 1838 2234 
L 1294 2234 
L 1294 2753 
L 1863 2753 
Q 2328 2753 2575 2939 
Q 2822 3125 2822 3475 
Q 2822 3834 2567 4026 
Q 2313 4219 1838 4219 
Q 1578 4219 1281 4162 
Q 984 4106 628 3988 
L 628 4550 
Q 988 4650 1302 4700 
Q 1616 4750 1894 4750 
Q 2613 4750 3031 4423 
Q 3450 4097 3450 3541 
Q 3450 3153 3228 2886 
Q 3006 2619 2597 2516 
z
" transform="scale(0.015625)"/>
       </defs>
       <use xlink:href="#DejaVuSans-30"/>
       <use xlink:href="#DejaVuSans-2e" transform="translate(63.623047 0)"/>
       <use xlink:href="#DejaVuSans-33" transform="translate(95.410156 0)"/>
       <use xlink:href="#DejaVuSans-30" transform="translate(159.033203 0)"/>
      </g>
     </g>
    </g>
    <g id="xtick_7">
     <g id="line2d_13">
      <path d="M 405.418427 381.858182 
L 405.418427 28.778182 
" clip-path="url(#p685b0fb80e)" style="fill: none; stroke: #b0b0b0; stroke-opacity: 0.3; stroke-width: 0.8; stroke-linecap: square"/>
     </g>
     <g id="line2d_14">
      <g>
       <use xlink:href="#ma9038fee7c" x="405.418427" y="381.858182" style="stroke: #000000; stroke-width: 0.8"/>
      </g>
     </g>
     <g id="text_7">
      <!-- 0.35 -->
      <g transform="translate(392.059052 397.976307) scale(0.12 -0.12)">
       <use xlink:href="#DejaVuSans-30"/>
       <use xlink:href="#DejaVuSans-2e" transform="translate(63.623047 0)"/>
       <use xlink:href="#DejaVuSans-33" transform="translate(95.410156 0)"/>
       <use xlink:href="#DejaVuSans-35" transform="translate(159.033203 0)"/>
      </g>
     </g>
    </g>
    <g id="text_8">
     <!-- Gap height $h$ (mm) -->
     <g transform="translate(178.464318 413.591932) scale(0.12 -0.12)">
      <defs>
       <path id="DejaVuSans-47" d="M 3809 666 
L 3809 1919 
L 2778 1919 
L 2778 2438 
L 4434 2438 
L 4434 434 
Q 4069 175 3628 42 
Q 3188 -91 2688 -91 
Q 1594 -91 976 548 
Q 359 1188 359 2328 
Q 359 3472 976 4111 
Q 1594 4750 2688 4750 
Q 3144 4750 3555 4637 
Q 3966 4525 4313 4306 
L 4313 3634 
Q 3963 3931 3569 4081 
Q 3175 4231 2741 4231 
Q 1884 4231 1454 3753 
Q 1025 3275 1025 2328 
Q 1025 1384 1454 906 
Q 1884 428 2741 428 
Q 3075 428 3337 486 
Q 3600 544 3809 666 
z
" transform="scale(0.015625)"/>
       <path id="DejaVuSans-61" d="M 2194 1759 
Q 1497 1759 1228 1600 
Q 959 1441 959 1056 
Q 959 750 1161 570 
Q 1363 391 1709 391 
Q 2188 391 2477 730 
Q 2766 1069 2766 1631 
L 2766 1759 
L 2194 1759 
z
M 3341 1997 
L 3341 0 
L 2766 0 
L 2766 531 
Q 2569 213 2275 61 
Q 1981 -91 1556 -91 
Q 1019 -91 701 211 
Q 384 513 384 1019 
Q 384 1609 779 1909 
Q 1175 2209 1959 2209 
L 2766 2209 
L 2766 2266 
Q 2766 2663 2505 2880 
Q 2244 3097 1772 3097 
Q 1472 3097 1187 3025 
Q 903 2953 641 2809 
L 641 3341 
Q 956 3463 1253 3523 
Q 1550 3584 1831 3584 
Q 2591 3584 2966 3190 
Q 3341 2797 3341 1997 
z
" transform="scale(0.015625)"/>
       <path id="DejaVuSans-70" d="M 1159 525 
L 1159 -1331 
L 581 -1331 
L 581 3500 
L 1159 3500 
L 1159 2969 
Q 1341 3281 1617 3432 
Q 1894 3584 2278 3584 
Q 2916 3584 3314 3078 
Q 3713 2572 3713 1747 
Q 3713 922 3314 415 
Q 2916 -91 2278 -91 
Q 1894 -91 1617 61 
Q 1341 213 1159 525 
z
M 3116 1747 
Q 3116 2381 2855 2742 
Q 2594 3103 2138 3103 
Q 1681 3103 1420 2742 
Q 1159 2381 1159 1747 
Q 1159 1113 1420 752 
Q 1681 391 2138 391 
Q 2594 391 2855 752 
Q 3116 1113 3116 1747 
z
" transform="scale(0.015625)"/>
       <path id="DejaVuSans-20" transform="scale(0.015625)"/>
       <path id="DejaVuSans-68" d="M 3513 2113 
L 3513 0 
L 2938 0 
L 2938 2094 
Q 2938 2591 2744 2837 
Q 2550 3084 2163 3084 
Q 1697 3084 1428 2787 
Q 1159 2491 1159 1978 
L 1159 0 
L 581 0 
L 581 4863 
L 1159 4863 
L 1159 2956 
Q 1366 3272 1645 3428 
Q 1925 3584 2291 3584 
Q 2894 3584 3203 3211 
Q 3513 2838 3513 2113 
z
" transform="scale(0.015625)"/>
       <path id="DejaVuSans-65" d="M 3597 1894 
L 3597 1613 
L 953 1613 
Q 991 1019 1311 708 
Q 1631 397 2203 397 
Q 2534 397 2845 478 
Q 3156 559 3463 722 
L 3463 178 
Q 3153 47 2828 -22 
Q 2503 -91 2169 -91 
Q 1331 -91 842 396 
Q 353 884 353 1716 
Q 353 2575 817 3079 
Q 1281 3584 2069 3584 
Q 2775 3584 3186 3129 
Q 3597 2675 3597 1894 
z
M 3022 2063 
Q 3016 2534 2758 2815 
Q 2500 3097 2075 3097 
Q 1594 3097 1305 2825 
Q 1016 2553 972 2059 
L 3022 2063 
z
" transform="scale(0.015625)"/>
       <path id="DejaVuSans-69" d="M 603 3500 
L 1178 3500 
L 1178 0 
L 603 0 
L 603 3500 
z
M 603 4863 
L 1178 4863 
L 1178 4134 
L 603 4134 
L 603 4863 
z
" transform="scale(0.015625)"/>
       <path id="DejaVuSans-67" d="M 2906 1791 
Q 2906 2416 2648 2759 
Q 2391 3103 1925 3103 
Q 1463 3103 1205 2759 
Q 947 2416 947 1791 
Q 947 1169 1205 825 
Q 1463 481 1925 481 
Q 2391 481 2648 825 
Q 2906 1169 2906 1791 
z
M 3481 434 
Q 3481 -459 3084 -895 
Q 2688 -1331 1869 -1331 
Q 1566 -1331 1297 -1286 
Q 1028 -1241 775 -1147 
L 775 -588 
Q 1028 -725 1275 -790 
Q 1522 -856 1778 -856 
Q 2344 -856 2625 -561 
Q 2906 -266 2906 331 
L 2906 616 
Q 2728 306 2450 153 
Q 2172 0 1784 0 
Q 1141 0 747 490 
Q 353 981 353 1791 
Q 353 2603 747 3093 
Q 1141 3584 1784 3584 
Q 2172 3584 2450 3431 
Q 2728 3278 2906 2969 
L 2906 3500 
L 3481 3500 
L 3481 434 
z
" transform="scale(0.015625)"/>
       <path id="DejaVuSans-74" d="M 1172 4494 
L 1172 3500 
L 2356 3500 
L 2356 3053 
L 1172 3053 
L 1172 1153 
Q 1172 725 1289 603 
Q 1406 481 1766 481 
L 2356 481 
L 2356 0 
L 1766 0 
Q 1100 0 847 248 
Q 594 497 594 1153 
L 594 3053 
L 172 3053 
L 172 3500 
L 594 3500 
L 594 4494 
L 1172 4494 
z
" transform="scale(0.015625)"/>
       <path id="DejaVuSans-Oblique-68" d="M 3566 2113 
L 3156 0 
L 2578 0 
L 2988 2091 
Q 3016 2238 3031 2350 
Q 3047 2463 3047 2528 
Q 3047 2791 2881 2937 
Q 2716 3084 2419 3084 
Q 1956 3084 1617 2771 
Q 1278 2459 1178 1941 
L 800 0 
L 225 0 
L 1172 4863 
L 1747 4863 
L 1375 2950 
Q 1594 3244 1934 3414 
Q 2275 3584 2650 3584 
Q 3113 3584 3367 3334 
Q 3622 3084 3622 2631 
Q 3622 2519 3608 2391 
Q 3594 2263 3566 2113 
z
" transform="scale(0.015625)"/>
       <path id="DejaVuSans-28" d="M 1984 4856 
Q 1566 4138 1362 3434 
Q 1159 2731 1159 2009 
Q 1159 1288 1364 580 
Q 1569 -128 1984 -844 
L 1484 -844 
Q 1016 -109 783 600 
Q 550 1309 550 2009 
Q 550 2706 781 3412 
Q 1013 4119 1484 4856 
L 1984 4856 
z
" transform="scale(0.015625)"/>
       <path id="DejaVuSans-6d" d="M 3328 2828 
Q 3544 3216 3844 3400 
Q 4144 3584 4550 3584 
Q 5097 3584 5394 3201 
Q 5691 2819 5691 2113 
L 5691 0 
L 5113 0 
L 5113 2094 
Q 5113 2597 4934 2840 
Q 4756 3084 4391 3084 
Q 3944 3084 3684 2787 
Q 3425 2491 3425 1978 
L 3425 0 
L 2847 0 
L 2847 2094 
Q 2847 2600 2669 2842 
Q 2491 3084 2119 3084 
Q 1678 3084 1418 2786 
Q 1159 2488 1159 1978 
L 1159 0 
L 581 0 
L 581 3500 
L 1159 3500 
L 1159 2956 
Q 1356 3278 1631 3431 
Q 1906 3584 2284 3584 
Q 2666 3584 2933 3390 
Q 3200 3197 3328 2828 
z
" transform="scale(0.015625)"/>
       <path id="DejaVuSans-29" d="M 513 4856 
L 1013 4856 
Q 1481 4119 1714 3412 
Q 1947 2706 1947 2009 
Q 1947 1309 1714 600 
Q 1481 -109 1013 -844 
L 513 -844 
Q 928 -128 1133 580 
Q 1338 1288 1338 2009 
Q 1338 2731 1133 3434 
Q 928 4138 513 4856 
z
" transform="scale(0.015625)"/>
      </defs>
      <use xlink:href="#DejaVuSans-47" transform="translate(0 0.015625)"/>
      <use xlink:href="#DejaVuSans-61" transform="translate(77.490234 0.015625)"/>
      <use xlink:href="#DejaVuSans-70" transform="translate(138.769531 0.015625)"/>
      <use xlink:href="#DejaVuSans-20" transform="translate(202.246094 0.015625)"/>
      <use xlink:href="#DejaVuSans-68" transform="translate(234.033203 0.015625)"/>
      <use xlink:href="#DejaVuSans-65" transform="translate(297.412109 0.015625)"/>
      <use xlink:href="#DejaVuSans-69" transform="translate(358.935547 0.015625)"/>
      <use xlink:href="#DejaVuSans-67" transform="translate(386.71875 0.015625)"/>
      <use xlink:href="#DejaVuSans-68" transform="translate(450.195312 0.015625)"/>
      <use xlink:href="#DejaVuSans-74" transform="translate(513.574219 0.015625)"/>
      <use xlink:href="#DejaVuSans-20" transform="translate(552.783203 0.015625)"/>
      <use xlink:href="#DejaVuSans-Oblique-68" transform="translate(584.570312 0.015625)"/>
      <use xlink:href="#DejaVuSans-20" transform="translate(647.949219 0.015625)"/>
      <use xlink:href="#DejaVuSans-28" transform="translate(679.736328 0.015625)"/>
      <use xlink:href="#DejaVuSans-6d" transform="translate(718.75 0.015625)"/>
      <use xlink:href="#DejaVuSans-6d" transform="translate(816.162109 0.015625)"/>
      <use xlink:href="#DejaVuSans-29" transform="translate(913.574219 0.015625)"/>
     </g>
    </g>
   </g>
   <g id="matplotlib.axis_2">
    <g id="ytick_1">
     <g id="line2d_15">
      <path d="M 59.878182 339.328402 
L 411.410455 339.328402 
" clip-path="url(#p685b0fb80e)" style="fill: none; stroke: #b0b0b0; stroke-opacity: 0.3; stroke-width: 0.8; stroke-linecap: square"/>
     </g>
     <g id="line2d_16">
      <defs>
       <path id="m143fa07a0a" d="M 0 0 
L -3.5 0 
" style="stroke: #000000; stroke-width: 0.8"/>
      </defs>
      <g>
       <use xlink:href="#m143fa07a0a" x="59.878182" y="339.328402" style="stroke: #000000; stroke-width: 0.8"/>
      </g>
     </g>
     <g id="text_9">
      <!-- 80 -->
      <g transform="translate(37.608182 343.887464) scale(0.12 -0.12)">
       <defs>
        <path id="DejaVuSans-38" d="M 2034 2216 
Q 1584 2216 1326 1975 
Q 1069 1734 1069 1313 
Q 1069 891 1326 650 
Q 1584 409 2034 409 
Q 2484 409 2743 651 
Q 3003 894 3003 1313 
Q 3003 1734 2745 1975 
Q 2488 2216 2034 2216 
z
M 1403 2484 
Q 997 2584 770 2862 
Q 544 3141 544 3541 
Q 544 4100 942 4425 
Q 1341 4750 2034 4750 
Q 2731 4750 3128 4425 
Q 3525 4100 3525 3541 
Q 3525 3141 3298 2862 
Q 3072 2584 2669 2484 
Q 3125 2378 3379 2068 
Q 3634 1759 3634 1313 
Q 3634 634 3220 271 
Q 2806 -91 2034 -91 
Q 1263 -91 848 271 
Q 434 634 434 1313 
Q 434 1759 690 2068 
Q 947 2378 1403 2484 
z
M 1172 3481 
Q 1172 3119 1398 2916 
Q 1625 2713 2034 2713 
Q 2441 2713 2670 2916 
Q 2900 3119 2900 3481 
Q 2900 3844 2670 4047 
Q 2441 4250 2034 4250 
Q 1625 4250 1398 4047 
Q 1172 3844 1172 3481 
z
" transform="scale(0.015625)"/>
       </defs>
       <use xlink:href="#DejaVuSans-38"/>
       <use xlink:href="#DejaVuSans-30" transform="translate(63.623047 0)"/>
      </g>
     </g>
    </g>
    <g id="ytick_2">
     <g id="line2d_17">
      <path d="M 59.878182 281.17169 
L 411.410455 281.17169 
" clip-path="url(#p685b0fb80e)" style="fill: none; stroke: #b0b0b0; stroke-opacity: 0.3; stroke-width: 0.8; stroke-linecap: square"/>
     </g>
     <g id="line2d_18">
      <g>
       <use xlink:href="#m143fa07a0a" x="59.878182" y="281.17169" style="stroke: #000000; stroke-width: 0.8"/>
      </g>
     </g>
     <g id="text_10">
      <!-- 90 -->
      <g transform="translate(37.608182 285.730753) scale(0.12 -0.12)">
       <defs>
        <path id="DejaVuSans-39" d="M 703 97 
L 703 672 
Q 941 559 1184 500 
Q 1428 441 1663 441 
Q 2288 441 2617 861 
Q 2947 1281 2994 2138 
Q 2813 1869 2534 1725 
Q 2256 1581 1919 1581 
Q 1219 1581 811 2004 
Q 403 2428 403 3163 
Q 403 3881 828 4315 
Q 1253 4750 1959 4750 
Q 2769 4750 3195 4129 
Q 3622 3509 3622 2328 
Q 3622 1225 3098 567 
Q 2575 -91 1691 -91 
Q 1453 -91 1209 -44 
Q 966 3 703 97 
z
M 1959 2075 
Q 2384 2075 2632 2365 
Q 2881 2656 2881 3163 
Q 2881 3666 2632 3958 
Q 2384 4250 1959 4250 
Q 1534 4250 1286 3958 
Q 1038 3666 1038 3163 
Q 1038 2656 1286 2365 
Q 1534 2075 1959 2075 
z
" transform="scale(0.015625)"/>
       </defs>
       <use xlink:href="#DejaVuSans-39"/>
       <use xlink:href="#DejaVuSans-30" transform="translate(63.623047 0)"/>
      </g>
     </g>
    </g>
    <g id="ytick_3">
     <g id="line2d_19">
      <path d="M 59.878182 223.014978 
L 411.410455 223.014978 
" clip-path="url(#p685b0fb80e)" style="fill: none; stroke: #b0b0b0; stroke-opacity: 0.3; stroke-width: 0.8; stroke-linecap: square"/>
     </g>
     <g id="line2d_20">
      <g>
       <use xlink:href="#m143fa07a0a" x="59.878182" y="223.014978" style="stroke: #000000; stroke-width: 0.8"/>
      </g>
     </g>
     <g id="text_11">
      <!-- 100 -->
      <g transform="translate(29.973182 227.574041) scale(0.12 -0.12)">
       <use xlink:href="#DejaVuSans-31"/>
       <use xlink:href="#DejaVuSans-30" transform="translate(63.623047 0)"/>
       <use xlink:href="#DejaVuSans-30" transform="translate(127.246094 0)"/>
      </g>
     </g>
    </g>
    <g id="ytick_4">
     <g id="line2d_21">
      <path d="M 59.878182 164.858267 
L 411.410455 164.858267 
" clip-path="url(#p685b0fb80e)" style="fill: none; stroke: #b0b0b0; stroke-opacity: 0.3; stroke-width: 0.8; stroke-linecap: square"/>
     </g>
     <g id="line2d_22">
      <g>
       <use xlink:href="#m143fa07a0a" x="59.878182" y="164.858267" style="stroke: #000000; stroke-width: 0.8"/>
      </g>
     </g>
     <g id="text_12">
      <!-- 110 -->
      <g transform="translate(29.973182 169.417329) scale(0.12 -0.12)">
       <use xlink:href="#DejaVuSans-31"/>
       <use xlink:href="#DejaVuSans-31" transform="translate(63.623047 0)"/>
       <use xlink:href="#DejaVuSans-30" transform="translate(127.246094 0)"/>
      </g>
     </g>
    </g>
    <g id="ytick_5">
     <g id="line2d_23">
      <path d="M 59.878182 106.701555 
L 411.410455 106.701555 
" clip-path="url(#p685b0fb80e)" style="fill: none; stroke: #b0b0b0; stroke-opacity: 0.3; stroke-width: 0.8; stroke-linecap: square"/>
     </g>
     <g id="line2d_24">
      <g>
       <use xlink:href="#m143fa07a0a" x="59.878182" y="106.701555" style="stroke: #000000; stroke-width: 0.8"/>
      </g>
     </g>
     <g id="text_13">
      <!-- 120 -->
      <g transform="translate(29.973182 111.260618) scale(0.12 -0.12)">
       <use xlink:href="#DejaVuSans-31"/>
       <use xlink:href="#DejaVuSans-32" transform="translate(63.623047 0)"/>
       <use xlink:href="#DejaVuSans-30" transform="translate(127.246094 0)"/>
      </g>
     </g>
    </g>
    <g id="ytick_6">
     <g id="line2d_25">
      <path d="M 59.878182 48.544844 
L 411.410455 48.544844 
" clip-path="url(#p685b0fb80e)" style="fill: none; stroke: #b0b0b0; stroke-opacity: 0.3; stroke-width: 0.8; stroke-linecap: square"/>
     </g>
     <g id="line2d_26">
      <g>
       <use xlink:href="#m143fa07a0a" x="59.878182" y="48.544844" style="stroke: #000000; stroke-width: 0.8"/>
      </g>
     </g>
     <g id="text_14">
      <!-- 130 -->
      <g transform="translate(29.973182 53.103906) scale(0.12 -0.12)">
       <use xlink:href="#DejaVuSans-31"/>
       <use xlink:href="#DejaVuSans-33" transform="translate(63.623047 0)"/>
       <use xlink:href="#DejaVuSans-30" transform="translate(127.246094 0)"/>
      </g>
     </g>
    </g>
    <g id="text_15">
     <!-- $T/\Omega$  (% / RPM) -->
     <g transform="translate(23.477557 248.638182) rotate(-90) scale(0.12 -0.12)">
      <defs>
       <path id="DejaVuSans-Oblique-54" d="M 378 4666 
L 4325 4666 
L 4225 4134 
L 2559 4134 
L 1759 0 
L 1125 0 
L 1925 4134 
L 275 4134 
L 378 4666 
z
" transform="scale(0.015625)"/>
       <path id="DejaVuSans-2f" d="M 1625 4666 
L 2156 4666 
L 531 -594 
L 0 -594 
L 1625 4666 
z
" transform="scale(0.015625)"/>
       <path id="DejaVuSans-3a9" d="M 4647 556 
L 4647 0 
L 2772 0 
L 2772 556 
Q 3325 859 3634 1378 
Q 3944 1897 3944 2528 
Q 3944 3278 3531 3731 
Q 3119 4184 2444 4184 
Q 1769 4184 1355 3729 
Q 941 3275 941 2528 
Q 941 1897 1250 1378 
Q 1563 859 2119 556 
L 2119 0 
L 244 0 
L 244 556 
L 1241 556 
Q 747 991 519 1456 
Q 294 1922 294 2497 
Q 294 3491 894 4106 
Q 1491 4722 2444 4722 
Q 3391 4722 3994 4106 
Q 4594 3494 4594 2528 
Q 4594 1922 4372 1459 
Q 4150 997 3647 556 
L 4647 556 
z
" transform="scale(0.015625)"/>
       <path id="DejaVuSans-25" d="M 4653 2053 
Q 4381 2053 4226 1822 
Q 4072 1591 4072 1178 
Q 4072 772 4226 539 
Q 4381 306 4653 306 
Q 4919 306 5073 539 
Q 5228 772 5228 1178 
Q 5228 1588 5073 1820 
Q 4919 2053 4653 2053 
z
M 4653 2450 
Q 5147 2450 5437 2106 
Q 5728 1763 5728 1178 
Q 5728 594 5436 251 
Q 5144 -91 4653 -91 
Q 4153 -91 3862 251 
Q 3572 594 3572 1178 
Q 3572 1766 3864 2108 
Q 4156 2450 4653 2450 
z
M 1428 4353 
Q 1159 4353 1004 4120 
Q 850 3888 850 3481 
Q 850 3069 1003 2837 
Q 1156 2606 1428 2606 
Q 1700 2606 1854 2837 
Q 2009 3069 2009 3481 
Q 2009 3884 1853 4118 
Q 1697 4353 1428 4353 
z
M 4250 4750 
L 4750 4750 
L 1831 -91 
L 1331 -91 
L 4250 4750 
z
M 1428 4750 
Q 1922 4750 2215 4408 
Q 2509 4066 2509 3481 
Q 2509 2891 2217 2550 
Q 1925 2209 1428 2209 
Q 931 2209 642 2551 
Q 353 2894 353 3481 
Q 353 4063 643 4406 
Q 934 4750 1428 4750 
z
" transform="scale(0.015625)"/>
       <path id="DejaVuSans-52" d="M 2841 2188 
Q 3044 2119 3236 1894 
Q 3428 1669 3622 1275 
L 4263 0 
L 3584 0 
L 2988 1197 
Q 2756 1666 2539 1819 
Q 2322 1972 1947 1972 
L 1259 1972 
L 1259 0 
L 628 0 
L 628 4666 
L 2053 4666 
Q 2853 4666 3247 4331 
Q 3641 3997 3641 3322 
Q 3641 2881 3436 2590 
Q 3231 2300 2841 2188 
z
M 1259 4147 
L 1259 2491 
L 2053 2491 
Q 2509 2491 2742 2702 
Q 2975 2913 2975 3322 
Q 2975 3731 2742 3939 
Q 2509 4147 2053 4147 
L 1259 4147 
z
" transform="scale(0.015625)"/>
       <path id="DejaVuSans-50" d="M 1259 4147 
L 1259 2394 
L 2053 2394 
Q 2494 2394 2734 2622 
Q 2975 2850 2975 3272 
Q 2975 3691 2734 3919 
Q 2494 4147 2053 4147 
L 1259 4147 
z
M 628 4666 
L 2053 4666 
Q 2838 4666 3239 4311 
Q 3641 3956 3641 3272 
Q 3641 2581 3239 2228 
Q 2838 1875 2053 1875 
L 1259 1875 
L 1259 0 
L 628 0 
L 628 4666 
z
" transform="scale(0.015625)"/>
       <path id="DejaVuSans-4d" d="M 628 4666 
L 1569 4666 
L 2759 1491 
L 3956 4666 
L 4897 4666 
L 4897 0 
L 4281 0 
L 4281 4097 
L 3078 897 
L 2444 897 
L 1241 4097 
L 1241 0 
L 628 0 
L 628 4666 
z
" transform="scale(0.015625)"/>
      </defs>
      <use xlink:href="#DejaVuSans-Oblique-54" transform="translate(0 0.125)"/>
      <use xlink:href="#DejaVuSans-2f" transform="translate(61.083984 0.125)"/>
      <use xlink:href="#DejaVuSans-3a9" transform="translate(94.775391 0.125)"/>
      <use xlink:href="#DejaVuSans-20" transform="translate(171.191406 0.125)"/>
      <use xlink:href="#DejaVuSans-20" transform="translate(202.978516 0.125)"/>
      <use xlink:href="#DejaVuSans-28" transform="translate(234.765625 0.125)"/>
      <use xlink:href="#DejaVuSans-25" transform="translate(273.779297 0.125)"/>
      <use xlink:href="#DejaVuSans-20" transform="translate(368.798828 0.125)"/>
      <use xlink:href="#DejaVuSans-2f" transform="translate(400.585938 0.125)"/>
      <use xlink:href="#DejaVuSans-20" transform="translate(434.277344 0.125)"/>
      <use xlink:href="#DejaVuSans-52" transform="translate(466.064453 0.125)"/>
      <use xlink:href="#DejaVuSans-50" transform="translate(535.546875 0.125)"/>
      <use xlink:href="#DejaVuSans-4d" transform="translate(595.849609 0.125)"/>
      <use xlink:href="#DejaVuSans-29" transform="translate(682.128906 0.125)"/>
     </g>
    </g>
   </g>
   <g id="line2d_27">
    <path d="M 75.856921 48.805091 
L 82.269794 60.822861 
L 88.682666 72.34772 
L 95.095538 83.449865 
L 101.50841 94.163139 
L 108.990094 106.217102 
L 116.471778 117.860353 
L 123.953462 129.033806 
L 131.435146 139.765406 
L 137.848019 148.654183 
L 145.329703 158.648982 
L 152.811387 168.293637 
L 161.361883 178.895586 
L 169.912379 189.0852 
L 178.462875 198.887078 
L 187.013371 208.320738 
L 195.563868 217.405113 
L 204.114364 226.167508 
L 212.66486 234.625662 
L 221.215356 242.788544 
L 230.834664 251.652955 
L 240.453972 260.195121 
L 250.07328 268.433372 
L 259.692589 276.365323 
L 270.380709 284.861557 
L 280.000017 292.238231 
L 289.619325 299.384585 
L 301.376257 307.814374 
L 312.064377 315.199858 
L 323.82131 323.055777 
L 335.578242 330.62584 
L 346.266362 337.284774 
L 359.092106 345.003051 
L 370.849038 351.826599 
L 383.674783 359.014745 
L 395.431715 365.385153 
L 395.431715 365.385153 
" clip-path="url(#p685b0fb80e)" style="fill: none; stroke: #4285f4; stroke-width: 2; stroke-linecap: square"/>
   </g>
   <g id="line2d_28">
    <defs>
     <path id="m3cc5286da0" d="M 0 2.5 
C 0.663008 2.5 1.29895 2.236584 1.767767 1.767767 
C 2.236584 1.29895 2.5 0.663008 2.5 0 
C 2.5 -0.663008 2.236584 -1.29895 1.767767 -1.767767 
C 1.29895 -2.236584 0.663008 -2.5 0 -2.5 
C -0.663008 -2.5 -1.29895 -2.236584 -1.767767 -1.767767 
C -2.236584 -1.29895 -2.5 -0.663008 -2.5 0 
C -2.5 0.663008 -2.236584 1.29895 -1.767767 1.767767 
C -1.29895 2.236584 -0.663008 2.5 0 2.5 
z
" style="stroke: #000000"/>
    </defs>
    <g clip-path="url(#p685b0fb80e)">
     <use xlink:href="#m3cc5286da0" x="75.856921" y="49.397809" style="fill: #ffffff; stroke: #000000"/>
     <use xlink:href="#m3cc5286da0" x="95.830346" y="83.942896" style="fill: #ffffff; stroke: #000000"/>
     <use xlink:href="#m3cc5286da0" x="115.803771" y="117.014679" style="fill: #ffffff; stroke: #000000"/>
     <use xlink:href="#m3cc5286da0" x="135.777195" y="144.852358" style="fill: #ffffff; stroke: #000000"/>
     <use xlink:href="#m3cc5286da0" x="155.75062" y="172.379868" style="fill: #ffffff; stroke: #000000"/>
     <use xlink:href="#m3cc5286da0" x="175.724044" y="195.409926" style="fill: #ffffff; stroke: #000000"/>
     <use xlink:href="#m3cc5286da0" x="195.697469" y="218.63384" style="fill: #ffffff; stroke: #000000"/>
     <use xlink:href="#m3cc5286da0" x="215.670894" y="237.67047" style="fill: #ffffff; stroke: #000000"/>
     <use xlink:href="#m3cc5286da0" x="235.644318" y="256.784642" style="fill: #ffffff; stroke: #000000"/>
     <use xlink:href="#m3cc5286da0" x="255.617743" y="272.874666" style="fill: #ffffff; stroke: #000000"/>
     <use xlink:href="#m3cc5286da0" x="275.591167" y="288.925918" style="fill: #ffffff; stroke: #000000"/>
     <use xlink:href="#m3cc5286da0" x="295.564592" y="302.689673" style="fill: #ffffff; stroke: #000000"/>
     <use xlink:href="#m3cc5286da0" x="315.538017" y="317.267622" style="fill: #ffffff; stroke: #000000"/>
     <use xlink:href="#m3cc5286da0" x="335.511441" y="329.790701" style="fill: #ffffff; stroke: #000000"/>
     <use xlink:href="#m3cc5286da0" x="355.484866" y="343.205516" style="fill: #ffffff; stroke: #000000"/>
     <use xlink:href="#m3cc5286da0" x="375.45829" y="354.681773" style="fill: #ffffff; stroke: #000000"/>
     <use xlink:href="#m3cc5286da0" x="395.431715" y="365.809091" style="fill: #ffffff; stroke: #000000"/>
    </g>
   </g>
   <g id="patch_3">
    <path d="M 59.878182 381.858182 
L 59.878182 28.778182 
" style="fill: none; stroke: #000000; stroke-width: 0.8; stroke-linejoin: miter; stroke-linecap: square"/>
   </g>
   <g id="patch_4">
    <path d="M 411.410455 381.858182 
L 411.410455 28.778182 
" style="fill: none; stroke: #000000; stroke-width: 0.8; stroke-linejoin: miter; stroke-linecap: square"/>
   </g>
   <g id="patch_5">
    <path d="M 59.878182 381.858182 
L 411.410455 381.858182 
" style="fill: none; stroke: #000000; stroke-width: 0.8; stroke-linejoin: miter; stroke-linecap: square"/>
   </g>
   <g id="patch_6">
    <path d="M 59.878182 28.778182 
L 411.410455 28.778182 
" style="fill: none; stroke: #000000; stroke-width: 0.8; stroke-linejoin: miter; stroke-linecap: square"/>
   </g>
   <g id="text_16">
    <!-- Rotational drag vs gap height — 90kcp -->
    <g transform="translate(108.945099 22.778182) scale(0.13 -0.13)">
     <defs>
      <path id="DejaVuSans-6f" d="M 1959 3097 
Q 1497 3097 1228 2736 
Q 959 2375 959 1747 
Q 959 1119 1226 758 
Q 1494 397 1959 397 
Q 2419 397 2687 759 
Q 2956 1122 2956 1747 
Q 2956 2369 2687 2733 
Q 2419 3097 1959 3097 
z
M 1959 3584 
Q 2709 3584 3137 3096 
Q 3566 2609 3566 1747 
Q 3566 888 3137 398 
Q 2709 -91 1959 -91 
Q 1206 -91 779 398 
Q 353 888 353 1747 
Q 353 2609 779 3096 
Q 1206 3584 1959 3584 
z
" transform="scale(0.015625)"/>
      <path id="DejaVuSans-6e" d="M 3513 2113 
L 3513 0 
L 2938 0 
L 2938 2094 
Q 2938 2591 2744 2837 
Q 2550 3084 2163 3084 
Q 1697 3084 1428 2787 
Q 1159 2491 1159 1978 
L 1159 0 
L 581 0 
L 581 3500 
L 1159 3500 
L 1159 2956 
Q 1366 3272 1645 3428 
Q 1925 3584 2291 3584 
Q 2894 3584 3203 3211 
Q 3513 2838 3513 2113 
z
" transform="scale(0.015625)"/>
      <path id="DejaVuSans-6c" d="M 603 4863 
L 1178 4863 
L 1178 0 
L 603 0 
L 603 4863 
z
" transform="scale(0.015625)"/>
      <path id="DejaVuSans-64" d="M 2906 2969 
L 2906 4863 
L 3481 4863 
L 3481 0 
L 2906 0 
L 2906 525 
Q 2725 213 2448 61 
Q 2172 -91 1784 -91 
Q 1150 -91 751 415 
Q 353 922 353 1747 
Q 353 2572 751 3078 
Q 1150 3584 1784 3584 
Q 2172 3584 2448 3432 
Q 2725 3281 2906 2969 
z
M 947 1747 
Q 947 1113 1208 752 
Q 1469 391 1925 391 
Q 2381 391 2643 752 
Q 2906 1113 2906 1747 
Q 2906 2381 2643 2742 
Q 2381 3103 1925 3103 
Q 1469 3103 1208 2742 
Q 947 2381 947 1747 
z
" transform="scale(0.015625)"/>
      <path id="DejaVuSans-72" d="M 2631 2963 
Q 2534 3019 2420 3045 
Q 2306 3072 2169 3072 
Q 1681 3072 1420 2755 
Q 1159 2438 1159 1844 
L 1159 0 
L 581 0 
L 581 3500 
L 1159 3500 
L 1159 2956 
Q 1341 3275 1631 3429 
Q 1922 3584 2338 3584 
Q 2397 3584 2469 3576 
Q 2541 3569 2628 3553 
L 2631 2963 
z
" transform="scale(0.015625)"/>
      <path id="DejaVuSans-76" d="M 191 3500 
L 800 3500 
L 1894 563 
L 2988 3500 
L 3597 3500 
L 2284 0 
L 1503 0 
L 191 3500 
z
" transform="scale(0.015625)"/>
      <path id="DejaVuSans-73" d="M 2834 3397 
L 2834 2853 
Q 2591 2978 2328 3040 
Q 2066 3103 1784 3103 
Q 1356 3103 1142 2972 
Q 928 2841 928 2578 
Q 928 2378 1081 2264 
Q 1234 2150 1697 2047 
L 1894 2003 
Q 2506 1872 2764 1633 
Q 3022 1394 3022 966 
Q 3022 478 2636 193 
Q 2250 -91 1575 -91 
Q 1294 -91 989 -36 
Q 684 19 347 128 
L 347 722 
Q 666 556 975 473 
Q 1284 391 1588 391 
Q 1994 391 2212 530 
Q 2431 669 2431 922 
Q 2431 1156 2273 1281 
Q 2116 1406 1581 1522 
L 1381 1569 
Q 847 1681 609 1914 
Q 372 2147 372 2553 
Q 372 3047 722 3315 
Q 1072 3584 1716 3584 
Q 2034 3584 2315 3537 
Q 2597 3491 2834 3397 
z
" transform="scale(0.015625)"/>
      <path id="DejaVuSans-2014" d="M 313 1978 
L 6088 1978 
L 6088 1528 
L 313 1528 
L 313 1978 
z
" transform="scale(0.015625)"/>
      <path id="DejaVuSans-6b" d="M 581 4863 
L 1159 4863 
L 1159 1991 
L 2875 3500 
L 3609 3500 
L 1753 1863 
L 3688 0 
L 2938 0 
L 1159 1709 
L 1159 0 
L 581 0 
L 581 4863 
z
" transform="scale(0.015625)"/>
      <path id="DejaVuSans-63" d="M 3122 3366 
L 3122 2828 
Q 2878 2963 2633 3030 
Q 2388 3097 2138 3097 
Q 1578 3097 1268 2742 
Q 959 2388 959 1747 
Q 959 1106 1268 751 
Q 1578 397 2138 397 
Q 2388 397 2633 464 
Q 2878 531 3122 666 
L 3122 134 
Q 2881 22 2623 -34 
Q 2366 -91 2075 -91 
Q 1284 -91 818 406 
Q 353 903 353 1747 
Q 353 2603 823 3093 
Q 1294 3584 2113 3584 
Q 2378 3584 2631 3529 
Q 2884 3475 3122 3366 
z
" transform="scale(0.015625)"/>
     </defs>
     <use xlink:href="#DejaVuSans-52"/>
     <use xlink:href="#DejaVuSans-6f" transform="translate(64.982422 0)"/>
     <use xlink:href="#DejaVuSans-74" transform="translate(126.164062 0)"/>
     <use xlink:href="#DejaVuSans-61" transform="translate(165.373047 0)"/>
     <use xlink:href="#DejaVuSans-74" transform="translate(226.652344 0)"/>
     <use xlink:href="#DejaVuSans-69" transform="translate(265.861328 0)"/>
     <use xlink:href="#DejaVuSans-6f" transform="translate(293.644531 0)"/>
     <use xlink:href="#DejaVuSans-6e" transform="translate(354.826172 0)"/>
     <use xlink:href="#DejaVuSans-61" transform="translate(418.205078 0)"/>
     <use xlink:href="#DejaVuSans-6c" transform="translate(479.484375 0)"/>
     <use xlink:href="#DejaVuSans-20" transform="translate(507.267578 0)"/>
     <use xlink:href="#DejaVuSans-64" transform="translate(539.054688 0)"/>
     <use xlink:href="#DejaVuSans-72" transform="translate(602.53125 0)"/>
     <use xlink:href="#DejaVuSans-61" transform="translate(643.644531 0)"/>
     <use xlink:href="#DejaVuSans-67" transform="translate(704.923828 0)"/>
     <use xlink:href="#DejaVuSans-20" transform="translate(768.400391 0)"/>
     <use xlink:href="#DejaVuSans-76" transform="translate(800.1875 0)"/>
     <use xlink:href="#DejaVuSans-73" transform="translate(859.367188 0)"/>
     <use xlink:href="#DejaVuSans-20" transform="translate(911.466797 0)"/>
     <use xlink:href="#DejaVuSans-67" transform="translate(943.253906 0)"/>
     <use xlink:href="#DejaVuSans-61" transform="translate(1006.730469 0)"/>
     <use xlink:href="#DejaVuSans-70" transform="translate(1068.009766 0)"/>
     <use xlink:href="#DejaVuSans-20" transform="translate(1131.486328 0)"/>
     <use xlink:href="#DejaVuSans-68" transform="translate(1163.273438 0)"/>
     <use xlink:href="#DejaVuSans-65" transform="translate(1226.652344 0)"/>
     <use xlink:href="#DejaVuSans-69" transform="translate(1288.175781 0)"/>
     <use xlink:href="#DejaVuSans-67" transform="translate(1315.958984 0)"/>
     <use xlink:href="#DejaVuSans-68" transform="translate(1379.435547 0)"/>
     <use xlink:href="#DejaVuSans-74" transform="translate(1442.814453 0)"/>
     <use xlink:href="#DejaVuSans-20" transform="translate(1482.023438 0)"/>
     <use xlink:href="#DejaVuSans-2014" transform="translate(1513.810547 0)"/>
     <use xlink:href="#DejaVuSans-20" transform="translate(1613.810547 0)"/>
     <use xlink:href="#DejaVuSans-39" transform="translate(1645.597656 0)"/>
     <use xlink:href="#DejaVuSans-30" transform="translate(1709.220703 0)"/>
     <use xlink:href="#DejaVuSans-6b" transform="translate(1772.84375 0)"/>
     <use xlink:href="#DejaVuSans-63" transform="translate(1830.753906 0)"/>
     <use xlink:href="#DejaVuSans-70" transform="translate(1885.734375 0)"/>
    </g>
   </g>
   <g id="legend_1">
    <g id="patch_7">
     <path d="M 273.652642 45.376619 
L 293.652642 45.376619 
L 293.652642 38.376619 
L 273.652642 38.376619 
z
" style="fill: #1f77b4; fill-opacity: 0.2; stroke: #1f77b4; stroke-opacity: 0.2; stroke-linejoin: miter"/>
    </g>
    <g id="text_17">
     <!-- 95 % CI -->
     <g transform="translate(301.652642 45.376619) scale(0.1 -0.1)">
      <defs>
       <path id="DejaVuSans-43" d="M 4122 4306 
L 4122 3641 
Q 3803 3938 3442 4084 
Q 3081 4231 2675 4231 
Q 1875 4231 1450 3742 
Q 1025 3253 1025 2328 
Q 1025 1406 1450 917 
Q 1875 428 2675 428 
Q 3081 428 3442 575 
Q 3803 722 4122 1019 
L 4122 359 
Q 3791 134 3420 21 
Q 3050 -91 2638 -91 
Q 1578 -91 968 557 
Q 359 1206 359 2328 
Q 359 3453 968 4101 
Q 1578 4750 2638 4750 
Q 3056 4750 3426 4639 
Q 3797 4528 4122 4306 
z
" transform="scale(0.015625)"/>
       <path id="DejaVuSans-49" d="M 628 4666 
L 1259 4666 
L 1259 0 
L 628 0 
L 628 4666 
z
" transform="scale(0.015625)"/>
      </defs>
      <use xlink:href="#DejaVuSans-39"/>
      <use xlink:href="#DejaVuSans-35" transform="translate(63.623047 0)"/>
      <use xlink:href="#DejaVuSans-20" transform="translate(127.246094 0)"/>
      <use xlink:href="#DejaVuSans-25" transform="translate(159.033203 0)"/>
      <use xlink:href="#DejaVuSans-20" transform="translate(254.052734 0)"/>
      <use xlink:href="#DejaVuSans-43" transform="translate(285.839844 0)"/>
      <use xlink:href="#DejaVuSans-49" transform="translate(355.664062 0)"/>
     </g>
    </g>
    <g id="line2d_29">
     <path d="M 273.652642 56.554744 
L 283.652642 56.554744 
L 293.652642 56.554744 
" style="fill: none; stroke: #1f77b4; stroke-width: 2; stroke-linecap: square"/>
    </g>
    <g id="text_18">
     <!-- best fit (gen_power) -->
     <g transform="translate(301.652642 60.054744) scale(0.1 -0.1)">
      <defs>
       <path id="DejaVuSans-62" d="M 3116 1747 
Q 3116 2381 2855 2742 
Q 2594 3103 2138 3103 
Q 1681 3103 1420 2742 
Q 1159 2381 1159 1747 
Q 1159 1113 1420 752 
Q 1681 391 2138 391 
Q 2594 391 2855 752 
Q 3116 1113 3116 1747 
z
M 1159 2969 
Q 1341 3281 1617 3432 
Q 1894 3584 2278 3584 
Q 2916 3584 3314 3078 
Q 3713 2572 3713 1747 
Q 3713 922 3314 415 
Q 2916 -91 2278 -91 
Q 1894 -91 1617 61 
Q 1341 213 1159 525 
L 1159 0 
L 581 0 
L 581 4863 
L 1159 4863 
L 1159 2969 
z
" transform="scale(0.015625)"/>
       <path id="DejaVuSans-66" d="M 2375 4863 
L 2375 4384 
L 1825 4384 
Q 1516 4384 1395 4259 
Q 1275 4134 1275 3809 
L 1275 3500 
L 2222 3500 
L 2222 3053 
L 1275 3053 
L 1275 0 
L 697 0 
L 697 3053 
L 147 3053 
L 147 3500 
L 697 3500 
L 697 3744 
Q 697 4328 969 4595 
Q 1241 4863 1831 4863 
L 2375 4863 
z
" transform="scale(0.015625)"/>
       <path id="DejaVuSans-5f" d="M 3263 -1063 
L 3263 -1509 
L -63 -1509 
L -63 -1063 
L 3263 -1063 
z
" transform="scale(0.015625)"/>
       <path id="DejaVuSans-77" d="M 269 3500 
L 844 3500 
L 1563 769 
L 2278 3500 
L 2956 3500 
L 3675 769 
L 4391 3500 
L 4966 3500 
L 4050 0 
L 3372 0 
L 2619 2869 
L 1863 0 
L 1184 0 
L 269 3500 
z
" transform="scale(0.015625)"/>
      </defs>
      <use xlink:href="#DejaVuSans-62"/>
      <use xlink:href="#DejaVuSans-65" transform="translate(63.476562 0)"/>
      <use xlink:href="#DejaVuSans-73" transform="translate(125 0)"/>
      <use xlink:href="#DejaVuSans-74" transform="translate(177.099609 0)"/>
      <use xlink:href="#DejaVuSans-20" transform="translate(216.308594 0)"/>
      <use xlink:href="#DejaVuSans-66" transform="translate(248.095703 0)"/>
      <use xlink:href="#DejaVuSans-69" transform="translate(283.300781 0)"/>
      <use xlink:href="#DejaVuSans-74" transform="translate(311.083984 0)"/>
      <use xlink:href="#DejaVuSans-20" transform="translate(350.292969 0)"/>
      <use xlink:href="#DejaVuSans-28" transform="translate(382.080078 0)"/>
      <use xlink:href="#DejaVuSans-67" transform="translate(421.09375 0)"/>
      <use xlink:href="#DejaVuSans-65" transform="translate(484.570312 0)"/>
      <use xlink:href="#DejaVuSans-6e" transform="translate(546.09375 0)"/>
      <use xlink:href="#DejaVuSans-5f" transform="translate(609.472656 0)"/>
      <use xlink:href="#DejaVuSans-70" transform="translate(659.472656 0)"/>
      <use xlink:href="#DejaVuSans-6f" transform="translate(722.949219 0)"/>
      <use xlink:href="#DejaVuSans-77" transform="translate(784.130859 0)"/>
      <use xlink:href="#DejaVuSans-65" transform="translate(865.917969 0)"/>
      <use xlink:href="#DejaVuSans-72" transform="translate(927.441406 0)"/>
      <use xlink:href="#DejaVuSans-29" transform="translate(968.554688 0)"/>
     </g>
    </g>
    <g id="line2d_30">
     <g>
      <use xlink:href="#m3cc5286da0" x="283.652642" y="71.510994" style="fill: #ffffff; stroke: #000000"/>
     </g>
    </g>
    <g id="text_19">
     <!-- data -->
     <g transform="translate(301.652642 75.010994) scale(0.1 -0.1)">
      <use xlink:href="#DejaVuSans-64"/>
      <use xlink:href="#DejaVuSans-61" transform="translate(63.476562 0)"/>
      <use xlink:href="#DejaVuSans-74" transform="translate(124.755859 0)"/>
      <use xlink:href="#DejaVuSans-61" transform="translate(163.964844 0)"/>
     </g>
    </g>
   </g>
  </g>
 </g>
 <defs>
  <clipPath id="p685b0fb80e">
   <rect x="59.878182" y="28.778182" width="351.532273" height="353.08"/>
  </clipPath>
 </defs>
</svg>
