<?xml version="1.0" encoding="utf-8" standalone="no"?>
<!DOCTYPE svg PUBLIC "-//W3C//DTD SVG 1.1//EN"
  "http://www.w3.org/Graphics/SVG/1.1/DTD/svg11.dtd">
<svg xmlns:xlink="http://www.w3.org/1999/xlink" width="448.73375pt" height="308.441469pt" viewBox="0 0 448.73375 308.441469" xmlns="http://www.w3.org/2000/svg" version="1.1">
 <metadata>
  <rdf:RDF xmlns:dc="http://purl.org/dc/elements/1.1/" xmlns:cc="http://creativecommons.org/ns#" xmlns:rdf="http://www.w3.org/1999/02/22-rdf-syntax-ns#">
   <cc:Work>
    <dc:type rdf:resource="http://purl.org/dc/dcmitype/StillImage"/>
    <dc:date>2026-05-30T13:28:13.316943</dc:date>
    <dc:format>image/svg+xml</dc:format>
    <dc:creator>
     <cc:Agent>
      <dc:title>Matplotlib v3.10.0, https://matplotlib.org/</dc:title>
     </cc:Agent>
    </dc:creator>
   </cc:Work>
  </rdf:RDF>
 </metadata>
 <defs>
  <style type="text/css">*{stroke-linejoin: round; stroke-linecap: butt}</style>
 </defs>
 <g id="figure_1">
  <g id="patch_1">
   <path d="M 0 308.441469 
L 448.73375 308.441469 
L 448.73375 0 
L 0 0 
z
" style="fill: #ffffff"/>
  </g>
  <g id="axes_1">
   <g id="patch_2">
    <path d="M 50.93375 267.013969 
L 441.53375 267.013969 
L 441.53375 23.077969 
L 50.93375 23.077969 
z
" style="fill: #ffffff"/>
   </g>
   <g id="matplotlib.axis_1">
    <g id="xtick_1">
     <g id="line2d_1">
      <path d="M 68.688295 267.013969 
L 68.688295 23.077969 
" clip-path="url(#p211504f9cb)" style="fill: none; stroke: #b0b0b0; stroke-opacity: 0.3; stroke-width: 0.8; stroke-linecap: square"/>
     </g>
     <g id="line2d_2">
      <defs>
       <path id="me9110eacae" d="M 0 0 
L 0 3.5 
" style="stroke: #000000; stroke-width: 0.8"/>
      </defs>
      <g>
       <use xlink:href="#me9110eacae" x="68.688295" y="267.013969" style="stroke: #000000; stroke-width: 0.8"/>
      </g>
     </g>
     <g id="text_1">
      <!-- $\mathdefault{10^{0}}$ -->
      <g transform="translate(58.128295 283.132094) scale(0.12 -0.12)">
       <defs>
        <path id="DejaVuSans-31" d="M 794 531 
L 1825 531 
L 1825 4091 
L 703 3866 
L 703 4441 
L 1819 4666 
L 2450 4666 
L 2450 531 
L 3481 531 
L 3481 0 
L 794 0 
L 794 531 
z
" transform="scale(0.015625)"/>
        <path id="DejaVuSans-30" d="M 2034 4250 
Q 1547 4250 1301 3770 
Q 1056 3291 1056 2328 
Q 1056 1369 1301 889 
Q 1547 409 2034 409 
Q 2525 409 2770 889 
Q 3016 1369 3016 2328 
Q 3016 3291 2770 3770 
Q 2525 4250 2034 4250 
z
M 2034 4750 
Q 2819 4750 3233 4129 
Q 3647 3509 3647 2328 
Q 3647 1150 3233 529 
Q 2819 -91 2034 -91 
Q 1250 -91 836 529 
Q 422 1150 422 2328 
Q 422 3509 836 4129 
Q 1250 4750 2034 4750 
z
" transform="scale(0.015625)"/>
       </defs>
       <use xlink:href="#DejaVuSans-31" transform="translate(0 0.765625)"/>
       <use xlink:href="#DejaVuSans-30" transform="translate(63.623047 0.765625)"/>
       <use xlink:href="#DejaVuSans-30" transform="translate(128.203125 39.046875) scale(0.7)"/>
      </g>
     </g>
    </g>
    <g id="xtick_2">
     <g id="line2d_3">
      <path d="M 246.23375 267.013969 
L 246.23375 23.077969 
" clip-path="url(#p211504f9cb)" style="fill: none; stroke: #b0b0b0; stroke-opacity: 0.3; stroke-width: 0.8; stroke-linecap: square"/>
     </g>
     <g id="line2d_4">
      <g>
       <use xlink:href="#me9110eacae" x="246.23375" y="267.013969" style="stroke: #000000; stroke-width: 0.8"/>
      </g>
     </g>
     <g id="text_2">
      <!-- $\mathdefault{10^{1}}$ -->
      <g transform="translate(235.67375 283.132094) scale(0.12 -0.12)">
       <use xlink:href="#DejaVuSans-31" transform="translate(0 0.684375)"/>
       <use xlink:href="#DejaVuSans-30" transform="translate(63.623047 0.684375)"/>
       <use xlink:href="#DejaVuSans-31" transform="translate(128.203125 38.965625) scale(0.7)"/>
      </g>
     </g>
    </g>
    <g id="xtick_3">
     <g id="line2d_5">
      <path d="M 423.779205 267.013969 
L 423.779205 23.077969 
" clip-path="url(#p211504f9cb)" style="fill: none; stroke: #b0b0b0; stroke-opacity: 0.3; stroke-width: 0.8; stroke-linecap: square"/>
     </g>
     <g id="line2d_6">
      <g>
       <use xlink:href="#me9110eacae" x="423.779205" y="267.013969" style="stroke: #000000; stroke-width: 0.8"/>
      </g>
     </g>
     <g id="text_3">
      <!-- $\mathdefault{10^{2}}$ -->
      <g transform="translate(413.219205 283.132094) scale(0.12 -0.12)">
       <defs>
        <path id="DejaVuSans-32" d="M 1228 531 
L 3431 531 
L 3431 0 
L 469 0 
L 469 531 
Q 828 903 1448 1529 
Q 2069 2156 2228 2338 
Q 2531 2678 2651 2914 
Q 2772 3150 2772 3378 
Q 2772 3750 2511 3984 
Q 2250 4219 1831 4219 
Q 1534 4219 1204 4116 
Q 875 4013 500 3803 
L 500 4441 
Q 881 4594 1212 4672 
Q 1544 4750 1819 4750 
Q 2544 4750 2975 4387 
Q 3406 4025 3406 3419 
Q 3406 3131 3298 2873 
Q 3191 2616 2906 2266 
Q 2828 2175 2409 1742 
Q 1991 1309 1228 531 
z
" transform="scale(0.015625)"/>
       </defs>
       <use xlink:href="#DejaVuSans-31" transform="translate(0 0.765625)"/>
       <use xlink:href="#DejaVuSans-30" transform="translate(63.623047 0.765625)"/>
       <use xlink:href="#DejaVuSans-32" transform="translate(128.203125 39.046875) scale(0.7)"/>
      </g>
     </g>
    </g>
    <g id="xtick_4">
     <g id="line2d_7">
      <defs>
       <path id="mf8d510d81e" d="M 0 0 
L 0 2 
" style="stroke: #000000; stroke-width: 0.6"/>
      </defs>
      <g>
       <use xlink:href="#mf8d510d81e" x="51.482363" y="267.013969" style="stroke: #000000; stroke-width: 0.6"/>
      </g>
     </g>
    </g>
    <g id="xtick_5">
     <g id="line2d_8">
      <g>
       <use xlink:href="#mf8d510d81e" x="60.564261" y="267.013969" style="stroke: #000000; stroke-width: 0.6"/>
      </g>
     </g>
    </g>
    <g id="xtick_6">
     <g id="line2d_9">
      <g>
       <use xlink:href="#mf8d510d81e" x="122.134803" y="267.013969" style="stroke: #000000; stroke-width: 0.6"/>
      </g>
     </g>
    </g>
    <g id="xtick_7">
     <g id="line2d_10">
      <g>
       <use xlink:href="#mf8d510d81e" x="153.399005" y="267.013969" style="stroke: #000000; stroke-width: 0.6"/>
      </g>
     </g>
    </g>
    <g id="xtick_8">
     <g id="line2d_11">
      <g>
       <use xlink:href="#mf8d510d81e" x="175.58131" y="267.013969" style="stroke: #000000; stroke-width: 0.6"/>
      </g>
     </g>
    </g>
    <g id="xtick_9">
     <g id="line2d_12">
      <g>
       <use xlink:href="#mf8d510d81e" x="192.787243" y="267.013969" style="stroke: #000000; stroke-width: 0.6"/>
      </g>
     </g>
    </g>
    <g id="xtick_10">
     <g id="line2d_13">
      <g>
       <use xlink:href="#mf8d510d81e" x="206.845513" y="267.013969" style="stroke: #000000; stroke-width: 0.6"/>
      </g>
     </g>
    </g>
    <g id="xtick_11">
     <g id="line2d_14">
      <g>
       <use xlink:href="#mf8d510d81e" x="218.731611" y="267.013969" style="stroke: #000000; stroke-width: 0.6"/>
      </g>
     </g>
    </g>
    <g id="xtick_12">
     <g id="line2d_15">
      <g>
       <use xlink:href="#mf8d510d81e" x="229.027818" y="267.013969" style="stroke: #000000; stroke-width: 0.6"/>
      </g>
     </g>
    </g>
    <g id="xtick_13">
     <g id="line2d_16">
      <g>
       <use xlink:href="#mf8d510d81e" x="238.109716" y="267.013969" style="stroke: #000000; stroke-width: 0.6"/>
      </g>
     </g>
    </g>
    <g id="xtick_14">
     <g id="line2d_17">
      <g>
       <use xlink:href="#mf8d510d81e" x="299.680257" y="267.013969" style="stroke: #000000; stroke-width: 0.6"/>
      </g>
     </g>
    </g>
    <g id="xtick_15">
     <g id="line2d_18">
      <g>
       <use xlink:href="#mf8d510d81e" x="330.94446" y="267.013969" style="stroke: #000000; stroke-width: 0.6"/>
      </g>
     </g>
    </g>
    <g id="xtick_16">
     <g id="line2d_19">
      <g>
       <use xlink:href="#mf8d510d81e" x="353.126765" y="267.013969" style="stroke: #000000; stroke-width: 0.6"/>
      </g>
     </g>
    </g>
    <g id="xtick_17">
     <g id="line2d_20">
      <g>
       <use xlink:href="#mf8d510d81e" x="370.332697" y="267.013969" style="stroke: #000000; stroke-width: 0.6"/>
      </g>
     </g>
    </g>
    <g id="xtick_18">
     <g id="line2d_21">
      <g>
       <use xlink:href="#mf8d510d81e" x="384.390967" y="267.013969" style="stroke: #000000; stroke-width: 0.6"/>
      </g>
     </g>
    </g>
    <g id="xtick_19">
     <g id="line2d_22">
      <g>
       <use xlink:href="#mf8d510d81e" x="396.277066" y="267.013969" style="stroke: #000000; stroke-width: 0.6"/>
      </g>
     </g>
    </g>
    <g id="xtick_20">
     <g id="line2d_23">
      <g>
       <use xlink:href="#mf8d510d81e" x="406.573272" y="267.013969" style="stroke: #000000; stroke-width: 0.6"/>
      </g>
     </g>
    </g>
    <g id="xtick_21">
     <g id="line2d_24">
      <g>
       <use xlink:href="#mf8d510d81e" x="415.65517" y="267.013969" style="stroke: #000000; stroke-width: 0.6"/>
      </g>
     </g>
    </g>
    <g id="text_4">
     <!-- Nominal viscosity (kcP) -->
     <g transform="translate(176.519375 298.745844) scale(0.12 -0.12)">
      <defs>
       <path id="DejaVuSans-4e" d="M 628 4666 
L 1478 4666 
L 3547 763 
L 3547 4666 
L 4159 4666 
L 4159 0 
L 3309 0 
L 1241 3903 
L 1241 0 
L 628 0 
L 628 4666 
z
" transform="scale(0.015625)"/>
       <path id="DejaVuSans-6f" d="M 1959 3097 
Q 1497 3097 1228 2736 
Q 959 2375 959 1747 
Q 959 1119 1226 758 
Q 1494 397 1959 397 
Q 2419 397 2687 759 
Q 2956 1122 2956 1747 
Q 2956 2369 2687 2733 
Q 2419 3097 1959 3097 
z
M 1959 3584 
Q 2709 3584 3137 3096 
Q 3566 2609 3566 1747 
Q 3566 888 3137 398 
Q 2709 -91 1959 -91 
Q 1206 -91 779 398 
Q 353 888 353 1747 
Q 353 2609 779 3096 
Q 1206 3584 1959 3584 
z
" transform="scale(0.015625)"/>
       <path id="DejaVuSans-6d" d="M 3328 2828 
Q 3544 3216 3844 3400 
Q 4144 3584 4550 3584 
Q 5097 3584 5394 3201 
Q 5691 2819 5691 2113 
L 5691 0 
L 5113 0 
L 5113 2094 
Q 5113 2597 4934 2840 
Q 4756 3084 4391 3084 
Q 3944 3084 3684 2787 
Q 3425 2491 3425 1978 
L 3425 0 
L 2847 0 
L 2847 2094 
Q 2847 2600 2669 2842 
Q 2491 3084 2119 3084 
Q 1678 3084 1418 2786 
Q 1159 2488 1159 1978 
L 1159 0 
L 581 0 
L 581 3500 
L 1159 3500 
L 1159 2956 
Q 1356 3278 1631 3431 
Q 1906 3584 2284 3584 
Q 2666 3584 2933 3390 
Q 3200 3197 3328 2828 
z
" transform="scale(0.015625)"/>
       <path id="DejaVuSans-69" d="M 603 3500 
L 1178 3500 
L 1178 0 
L 603 0 
L 603 3500 
z
M 603 4863 
L 1178 4863 
L 1178 4134 
L 603 4134 
L 603 4863 
z
" transform="scale(0.015625)"/>
       <path id="DejaVuSans-6e" d="M 3513 2113 
L 3513 0 
L 2938 0 
L 2938 2094 
Q 2938 2591 2744 2837 
Q 2550 3084 2163 3084 
Q 1697 3084 1428 2787 
Q 1159 2491 1159 1978 
L 1159 0 
L 581 0 
L 581 3500 
L 1159 3500 
L 1159 2956 
Q 1366 3272 1645 3428 
Q 1925 3584 2291 3584 
Q 2894 3584 3203 3211 
Q 3513 2838 3513 2113 
z
" transform="scale(0.015625)"/>
       <path id="DejaVuSans-61" d="M 2194 1759 
Q 1497 1759 1228 1600 
Q 959 1441 959 1056 
Q 959 750 1161 570 
Q 1363 391 1709 391 
Q 2188 391 2477 730 
Q 2766 1069 2766 1631 
L 2766 1759 
L 2194 1759 
z
M 3341 1997 
L 3341 0 
L 2766 0 
L 2766 531 
Q 2569 213 2275 61 
Q 1981 -91 1556 -91 
Q 1019 -91 701 211 
Q 384 513 384 1019 
Q 384 1609 779 1909 
Q 1175 2209 1959 2209 
L 2766 2209 
L 2766 2266 
Q 2766 2663 2505 2880 
Q 2244 3097 1772 3097 
Q 1472 3097 1187 3025 
Q 903 2953 641 2809 
L 641 3341 
Q 956 3463 1253 3523 
Q 1550 3584 1831 3584 
Q 2591 3584 2966 3190 
Q 3341 2797 3341 1997 
z
" transform="scale(0.015625)"/>
       <path id="DejaVuSans-6c" d="M 603 4863 
L 1178 4863 
L 1178 0 
L 603 0 
L 603 4863 
z
" transform="scale(0.015625)"/>
       <path id="DejaVuSans-20" transform="scale(0.015625)"/>
       <path id="DejaVuSans-76" d="M 191 3500 
L 800 3500 
L 1894 563 
L 2988 3500 
L 3597 3500 
L 2284 0 
L 1503 0 
L 191 3500 
z
" transform="scale(0.015625)"/>
       <path id="DejaVuSans-73" d="M 2834 3397 
L 2834 2853 
Q 2591 2978 2328 3040 
Q 2066 3103 1784 3103 
Q 1356 3103 1142 2972 
Q 928 2841 928 2578 
Q 928 2378 1081 2264 
Q 1234 2150 1697 2047 
L 1894 2003 
Q 2506 1872 2764 1633 
Q 3022 1394 3022 966 
Q 3022 478 2636 193 
Q 2250 -91 1575 -91 
Q 1294 -91 989 -36 
Q 684 19 347 128 
L 347 722 
Q 666 556 975 473 
Q 1284 391 1588 391 
Q 1994 391 2212 530 
Q 2431 669 2431 922 
Q 2431 1156 2273 1281 
Q 2116 1406 1581 1522 
L 1381 1569 
Q 847 1681 609 1914 
Q 372 2147 372 2553 
Q 372 3047 722 3315 
Q 1072 3584 1716 3584 
Q 2034 3584 2315 3537 
Q 2597 3491 2834 3397 
z
" transform="scale(0.015625)"/>
       <path id="DejaVuSans-63" d="M 3122 3366 
L 3122 2828 
Q 2878 2963 2633 3030 
Q 2388 3097 2138 3097 
Q 1578 3097 1268 2742 
Q 959 2388 959 1747 
Q 959 1106 1268 751 
Q 1578 397 2138 397 
Q 2388 397 2633 464 
Q 2878 531 3122 666 
L 3122 134 
Q 2881 22 2623 -34 
Q 2366 -91 2075 -91 
Q 1284 -91 818 406 
Q 353 903 353 1747 
Q 353 2603 823 3093 
Q 1294 3584 2113 3584 
Q 2378 3584 2631 3529 
Q 2884 3475 3122 3366 
z
" transform="scale(0.015625)"/>
       <path id="DejaVuSans-74" d="M 1172 4494 
L 1172 3500 
L 2356 3500 
L 2356 3053 
L 1172 3053 
L 1172 1153 
Q 1172 725 1289 603 
Q 1406 481 1766 481 
L 2356 481 
L 2356 0 
L 1766 0 
Q 1100 0 847 248 
Q 594 497 594 1153 
L 594 3053 
L 172 3053 
L 172 3500 
L 594 3500 
L 594 4494 
L 1172 4494 
z
" transform="scale(0.015625)"/>
       <path id="DejaVuSans-79" d="M 2059 -325 
Q 1816 -950 1584 -1140 
Q 1353 -1331 966 -1331 
L 506 -1331 
L 506 -850 
L 844 -850 
Q 1081 -850 1212 -737 
Q 1344 -625 1503 -206 
L 1606 56 
L 191 3500 
L 800 3500 
L 1894 763 
L 2988 3500 
L 3597 3500 
L 2059 -325 
z
" transform="scale(0.015625)"/>
       <path id="DejaVuSans-28" d="M 1984 4856 
Q 1566 4138 1362 3434 
Q 1159 2731 1159 2009 
Q 1159 1288 1364 580 
Q 1569 -128 1984 -844 
L 1484 -844 
Q 1016 -109 783 600 
Q 550 1309 550 2009 
Q 550 2706 781 3412 
Q 1013 4119 1484 4856 
L 1984 4856 
z
" transform="scale(0.015625)"/>
       <path id="DejaVuSans-6b" d="M 581 4863 
L 1159 4863 
L 1159 1991 
L 2875 3500 
L 3609 3500 
L 1753 1863 
L 3688 0 
L 2938 0 
L 1159 1709 
L 1159 0 
L 581 0 
L 581 4863 
z
" transform="scale(0.015625)"/>
       <path id="DejaVuSans-50" d="M 1259 4147 
L 1259 2394 
L 2053 2394 
Q 2494 2394 2734 2622 
Q 2975 2850 2975 3272 
Q 2975 3691 2734 3919 
Q 2494 4147 2053 4147 
L 1259 4147 
z
M 628 4666 
L 2053 4666 
Q 2838 4666 3239 4311 
Q 3641 3956 3641 3272 
Q 3641 2581 3239 2228 
Q 2838 1875 2053 1875 
L 1259 1875 
L 1259 0 
L 628 0 
L 628 4666 
z
" transform="scale(0.015625)"/>
       <path id="DejaVuSans-29" d="M 513 4856 
L 1013 4856 
Q 1481 4119 1714 3412 
Q 1947 2706 1947 2009 
Q 1947 1309 1714 600 
Q 1481 -109 1013 -844 
L 513 -844 
Q 928 -128 1133 580 
Q 1338 1288 1338 2009 
Q 1338 2731 1133 3434 
Q 928 4138 513 4856 
z
" transform="scale(0.015625)"/>
      </defs>
      <use xlink:href="#DejaVuSans-4e"/>
      <use xlink:href="#DejaVuSans-6f" transform="translate(74.804688 0)"/>
      <use xlink:href="#DejaVuSans-6d" transform="translate(135.986328 0)"/>
      <use xlink:href="#DejaVuSans-69" transform="translate(233.398438 0)"/>
      <use xlink:href="#DejaVuSans-6e" transform="translate(261.181641 0)"/>
      <use xlink:href="#DejaVuSans-61" transform="translate(324.560547 0)"/>
      <use xlink:href="#DejaVuSans-6c" transform="translate(385.839844 0)"/>
      <use xlink:href="#DejaVuSans-20" transform="translate(413.623047 0)"/>
      <use xlink:href="#DejaVuSans-76" transform="translate(445.410156 0)"/>
      <use xlink:href="#DejaVuSans-69" transform="translate(504.589844 0)"/>
      <use xlink:href="#DejaVuSans-73" transform="translate(532.373047 0)"/>
      <use xlink:href="#DejaVuSans-63" transform="translate(584.472656 0)"/>
      <use xlink:href="#DejaVuSans-6f" transform="translate(639.453125 0)"/>
      <use xlink:href="#DejaVuSans-73" transform="translate(700.634766 0)"/>
      <use xlink:href="#DejaVuSans-69" transform="translate(752.734375 0)"/>
      <use xlink:href="#DejaVuSans-74" transform="translate(780.517578 0)"/>
      <use xlink:href="#DejaVuSans-79" transform="translate(819.726562 0)"/>
      <use xlink:href="#DejaVuSans-20" transform="translate(878.90625 0)"/>
      <use xlink:href="#DejaVuSans-28" transform="translate(910.693359 0)"/>
      <use xlink:href="#DejaVuSans-6b" transform="translate(949.707031 0)"/>
      <use xlink:href="#DejaVuSans-63" transform="translate(1007.617188 0)"/>
      <use xlink:href="#DejaVuSans-50" transform="translate(1062.597656 0)"/>
      <use xlink:href="#DejaVuSans-29" transform="translate(1122.900391 0)"/>
     </g>
    </g>
   </g>
   <g id="matplotlib.axis_2">
    <g id="ytick_1">
     <g id="line2d_25">
      <path d="M 50.93375 212.578663 
L 441.53375 212.578663 
" clip-path="url(#p211504f9cb)" style="fill: none; stroke: #b0b0b0; stroke-opacity: 0.3; stroke-width: 0.8; stroke-linecap: square"/>
     </g>
     <g id="line2d_26">
      <defs>
       <path id="m95a457c9de" d="M 0 0 
L -3.5 0 
" style="stroke: #000000; stroke-width: 0.8"/>
      </defs>
      <g>
       <use xlink:href="#m95a457c9de" x="50.93375" y="212.578663" style="stroke: #000000; stroke-width: 0.8"/>
      </g>
     </g>
     <g id="text_5">
      <!-- $\mathdefault{10^{0}}$ -->
      <g transform="translate(22.81375 217.137726) scale(0.12 -0.12)">
       <use xlink:href="#DejaVuSans-31" transform="translate(0 0.765625)"/>
       <use xlink:href="#DejaVuSans-30" transform="translate(63.623047 0.765625)"/>
       <use xlink:href="#DejaVuSans-30" transform="translate(128.203125 39.046875) scale(0.7)"/>
      </g>
     </g>
    </g>
    <g id="ytick_2">
     <g id="line2d_27">
      <path d="M 50.93375 105.040241 
L 441.53375 105.040241 
" clip-path="url(#p211504f9cb)" style="fill: none; stroke: #b0b0b0; stroke-opacity: 0.3; stroke-width: 0.8; stroke-linecap: square"/>
     </g>
     <g id="line2d_28">
      <g>
       <use xlink:href="#m95a457c9de" x="50.93375" y="105.040241" style="stroke: #000000; stroke-width: 0.8"/>
      </g>
     </g>
     <g id="text_6">
      <!-- $\mathdefault{10^{1}}$ -->
      <g transform="translate(22.81375 109.599303) scale(0.12 -0.12)">
       <use xlink:href="#DejaVuSans-31" transform="translate(0 0.684375)"/>
       <use xlink:href="#DejaVuSans-30" transform="translate(63.623047 0.684375)"/>
       <use xlink:href="#DejaVuSans-31" transform="translate(128.203125 38.965625) scale(0.7)"/>
      </g>
     </g>
    </g>
    <g id="ytick_3">
     <g id="line2d_29">
      <defs>
       <path id="medacfa18f2" d="M 0 0 
L -2 0 
" style="stroke: #000000; stroke-width: 0.6"/>
      </defs>
      <g>
       <use xlink:href="#medacfa18f2" x="50.93375" y="255.372504" style="stroke: #000000; stroke-width: 0.6"/>
      </g>
     </g>
    </g>
    <g id="ytick_4">
     <g id="line2d_30">
      <g>
       <use xlink:href="#medacfa18f2" x="50.93375" y="244.950954" style="stroke: #000000; stroke-width: 0.6"/>
      </g>
     </g>
    </g>
    <g id="ytick_5">
     <g id="line2d_31">
      <g>
       <use xlink:href="#medacfa18f2" x="50.93375" y="236.435928" style="stroke: #000000; stroke-width: 0.6"/>
      </g>
     </g>
    </g>
    <g id="ytick_6">
     <g id="line2d_32">
      <g>
       <use xlink:href="#medacfa18f2" x="50.93375" y="229.236576" style="stroke: #000000; stroke-width: 0.6"/>
      </g>
     </g>
    </g>
    <g id="ytick_7">
     <g id="line2d_33">
      <g>
       <use xlink:href="#medacfa18f2" x="50.93375" y="223.000213" style="stroke: #000000; stroke-width: 0.6"/>
      </g>
     </g>
    </g>
    <g id="ytick_8">
     <g id="line2d_34">
      <g>
       <use xlink:href="#medacfa18f2" x="50.93375" y="217.499352" style="stroke: #000000; stroke-width: 0.6"/>
      </g>
     </g>
    </g>
    <g id="ytick_9">
     <g id="line2d_35">
      <g>
       <use xlink:href="#medacfa18f2" x="50.93375" y="180.206372" style="stroke: #000000; stroke-width: 0.6"/>
      </g>
     </g>
    </g>
    <g id="ytick_10">
     <g id="line2d_36">
      <g>
       <use xlink:href="#medacfa18f2" x="50.93375" y="161.269796" style="stroke: #000000; stroke-width: 0.6"/>
      </g>
     </g>
    </g>
    <g id="ytick_11">
     <g id="line2d_37">
      <g>
       <use xlink:href="#medacfa18f2" x="50.93375" y="147.834081" style="stroke: #000000; stroke-width: 0.6"/>
      </g>
     </g>
    </g>
    <g id="ytick_12">
     <g id="line2d_38">
      <g>
       <use xlink:href="#medacfa18f2" x="50.93375" y="137.412532" style="stroke: #000000; stroke-width: 0.6"/>
      </g>
     </g>
    </g>
    <g id="ytick_13">
     <g id="line2d_39">
      <g>
       <use xlink:href="#medacfa18f2" x="50.93375" y="128.897505" style="stroke: #000000; stroke-width: 0.6"/>
      </g>
     </g>
    </g>
    <g id="ytick_14">
     <g id="line2d_40">
      <g>
       <use xlink:href="#medacfa18f2" x="50.93375" y="121.698153" style="stroke: #000000; stroke-width: 0.6"/>
      </g>
     </g>
    </g>
    <g id="ytick_15">
     <g id="line2d_41">
      <g>
       <use xlink:href="#medacfa18f2" x="50.93375" y="115.46179" style="stroke: #000000; stroke-width: 0.6"/>
      </g>
     </g>
    </g>
    <g id="ytick_16">
     <g id="line2d_42">
      <g>
       <use xlink:href="#medacfa18f2" x="50.93375" y="109.960929" style="stroke: #000000; stroke-width: 0.6"/>
      </g>
     </g>
    </g>
    <g id="ytick_17">
     <g id="line2d_43">
      <g>
       <use xlink:href="#medacfa18f2" x="50.93375" y="72.667949" style="stroke: #000000; stroke-width: 0.6"/>
      </g>
     </g>
    </g>
    <g id="ytick_18">
     <g id="line2d_44">
      <g>
       <use xlink:href="#medacfa18f2" x="50.93375" y="53.731373" style="stroke: #000000; stroke-width: 0.6"/>
      </g>
     </g>
    </g>
    <g id="ytick_19">
     <g id="line2d_45">
      <g>
       <use xlink:href="#medacfa18f2" x="50.93375" y="40.295658" style="stroke: #000000; stroke-width: 0.6"/>
      </g>
     </g>
    </g>
    <g id="ytick_20">
     <g id="line2d_46">
      <g>
       <use xlink:href="#medacfa18f2" x="50.93375" y="29.874109" style="stroke: #000000; stroke-width: 0.6"/>
      </g>
     </g>
    </g>
    <g id="text_7">
     <!-- Fitted A  (model = regularized) -->
     <g transform="translate(16.318125 237.728156) rotate(-90) scale(0.12 -0.12)">
      <defs>
       <path id="DejaVuSans-46" d="M 628 4666 
L 3309 4666 
L 3309 4134 
L 1259 4134 
L 1259 2759 
L 3109 2759 
L 3109 2228 
L 1259 2228 
L 1259 0 
L 628 0 
L 628 4666 
z
" transform="scale(0.015625)"/>
       <path id="DejaVuSans-65" d="M 3597 1894 
L 3597 1613 
L 953 1613 
Q 991 1019 1311 708 
Q 1631 397 2203 397 
Q 2534 397 2845 478 
Q 3156 559 3463 722 
L 3463 178 
Q 3153 47 2828 -22 
Q 2503 -91 2169 -91 
Q 1331 -91 842 396 
Q 353 884 353 1716 
Q 353 2575 817 3079 
Q 1281 3584 2069 3584 
Q 2775 3584 3186 3129 
Q 3597 2675 3597 1894 
z
M 3022 2063 
Q 3016 2534 2758 2815 
Q 2500 3097 2075 3097 
Q 1594 3097 1305 2825 
Q 1016 2553 972 2059 
L 3022 2063 
z
" transform="scale(0.015625)"/>
       <path id="DejaVuSans-64" d="M 2906 2969 
L 2906 4863 
L 3481 4863 
L 3481 0 
L 2906 0 
L 2906 525 
Q 2725 213 2448 61 
Q 2172 -91 1784 -91 
Q 1150 -91 751 415 
Q 353 922 353 1747 
Q 353 2572 751 3078 
Q 1150 3584 1784 3584 
Q 2172 3584 2448 3432 
Q 2725 3281 2906 2969 
z
M 947 1747 
Q 947 1113 1208 752 
Q 1469 391 1925 391 
Q 2381 391 2643 752 
Q 2906 1113 2906 1747 
Q 2906 2381 2643 2742 
Q 2381 3103 1925 3103 
Q 1469 3103 1208 2742 
Q 947 2381 947 1747 
z
" transform="scale(0.015625)"/>
       <path id="DejaVuSans-41" d="M 2188 4044 
L 1331 1722 
L 3047 1722 
L 2188 4044 
z
M 1831 4666 
L 2547 4666 
L 4325 0 
L 3669 0 
L 3244 1197 
L 1141 1197 
L 716 0 
L 50 0 
L 1831 4666 
z
" transform="scale(0.015625)"/>
       <path id="DejaVuSans-3d" d="M 678 2906 
L 4684 2906 
L 4684 2381 
L 678 2381 
L 678 2906 
z
M 678 1631 
L 4684 1631 
L 4684 1100 
L 678 1100 
L 678 1631 
z
" transform="scale(0.015625)"/>
       <path id="DejaVuSans-72" d="M 2631 2963 
Q 2534 3019 2420 3045 
Q 2306 3072 2169 3072 
Q 1681 3072 1420 2755 
Q 1159 2438 1159 1844 
L 1159 0 
L 581 0 
L 581 3500 
L 1159 3500 
L 1159 2956 
Q 1341 3275 1631 3429 
Q 1922 3584 2338 3584 
Q 2397 3584 2469 3576 
Q 2541 3569 2628 3553 
L 2631 2963 
z
" transform="scale(0.015625)"/>
       <path id="DejaVuSans-67" d="M 2906 1791 
Q 2906 2416 2648 2759 
Q 2391 3103 1925 3103 
Q 1463 3103 1205 2759 
Q 947 2416 947 1791 
Q 947 1169 1205 825 
Q 1463 481 1925 481 
Q 2391 481 2648 825 
Q 2906 1169 2906 1791 
z
M 3481 434 
Q 3481 -459 3084 -895 
Q 2688 -1331 1869 -1331 
Q 1566 -1331 1297 -1286 
Q 1028 -1241 775 -1147 
L 775 -588 
Q 1028 -725 1275 -790 
Q 1522 -856 1778 -856 
Q 2344 -856 2625 -561 
Q 2906 -266 2906 331 
L 2906 616 
Q 2728 306 2450 153 
Q 2172 0 1784 0 
Q 1141 0 747 490 
Q 353 981 353 1791 
Q 353 2603 747 3093 
Q 1141 3584 1784 3584 
Q 2172 3584 2450 3431 
Q 2728 3278 2906 2969 
L 2906 3500 
L 3481 3500 
L 3481 434 
z
" transform="scale(0.015625)"/>
       <path id="DejaVuSans-75" d="M 544 1381 
L 544 3500 
L 1119 3500 
L 1119 1403 
Q 1119 906 1312 657 
Q 1506 409 1894 409 
Q 2359 409 2629 706 
Q 2900 1003 2900 1516 
L 2900 3500 
L 3475 3500 
L 3475 0 
L 2900 0 
L 2900 538 
Q 2691 219 2414 64 
Q 2138 -91 1772 -91 
Q 1169 -91 856 284 
Q 544 659 544 1381 
z
M 1991 3584 
L 1991 3584 
z
" transform="scale(0.015625)"/>
       <path id="DejaVuSans-7a" d="M 353 3500 
L 3084 3500 
L 3084 2975 
L 922 459 
L 3084 459 
L 3084 0 
L 275 0 
L 275 525 
L 2438 3041 
L 353 3041 
L 353 3500 
z
" transform="scale(0.015625)"/>
      </defs>
      <use xlink:href="#DejaVuSans-46"/>
      <use xlink:href="#DejaVuSans-69" transform="translate(50.269531 0)"/>
      <use xlink:href="#DejaVuSans-74" transform="translate(78.052734 0)"/>
      <use xlink:href="#DejaVuSans-74" transform="translate(117.261719 0)"/>
      <use xlink:href="#DejaVuSans-65" transform="translate(156.470703 0)"/>
      <use xlink:href="#DejaVuSans-64" transform="translate(217.994141 0)"/>
      <use xlink:href="#DejaVuSans-20" transform="translate(281.470703 0)"/>
      <use xlink:href="#DejaVuSans-41" transform="translate(313.257812 0)"/>
      <use xlink:href="#DejaVuSans-20" transform="translate(381.666016 0)"/>
      <use xlink:href="#DejaVuSans-20" transform="translate(413.453125 0)"/>
      <use xlink:href="#DejaVuSans-28" transform="translate(445.240234 0)"/>
      <use xlink:href="#DejaVuSans-6d" transform="translate(484.253906 0)"/>
      <use xlink:href="#DejaVuSans-6f" transform="translate(581.666016 0)"/>
      <use xlink:href="#DejaVuSans-64" transform="translate(642.847656 0)"/>
      <use xlink:href="#DejaVuSans-65" transform="translate(706.324219 0)"/>
      <use xlink:href="#DejaVuSans-6c" transform="translate(767.847656 0)"/>
      <use xlink:href="#DejaVuSans-20" transform="translate(795.630859 0)"/>
      <use xlink:href="#DejaVuSans-3d" transform="translate(827.417969 0)"/>
      <use xlink:href="#DejaVuSans-20" transform="translate(911.207031 0)"/>
      <use xlink:href="#DejaVuSans-72" transform="translate(942.994141 0)"/>
      <use xlink:href="#DejaVuSans-65" transform="translate(981.857422 0)"/>
      <use xlink:href="#DejaVuSans-67" transform="translate(1043.380859 0)"/>
      <use xlink:href="#DejaVuSans-75" transform="translate(1106.857422 0)"/>
      <use xlink:href="#DejaVuSans-6c" transform="translate(1170.236328 0)"/>
      <use xlink:href="#DejaVuSans-61" transform="translate(1198.019531 0)"/>
      <use xlink:href="#DejaVuSans-72" transform="translate(1259.298828 0)"/>
      <use xlink:href="#DejaVuSans-69" transform="translate(1300.412109 0)"/>
      <use xlink:href="#DejaVuSans-7a" transform="translate(1328.195312 0)"/>
      <use xlink:href="#DejaVuSans-65" transform="translate(1380.685547 0)"/>
      <use xlink:href="#DejaVuSans-64" transform="translate(1442.208984 0)"/>
      <use xlink:href="#DejaVuSans-29" transform="translate(1505.685547 0)"/>
     </g>
    </g>
   </g>
   <g id="LineCollection_1">
    <path d="M 68.688295 255.925969 
L 68.688295 252.116816 
" clip-path="url(#p211504f9cb)" style="fill: none; stroke: #1f77b4; stroke-width: 1.6"/>
    <path d="M 122.134803 214.656573 
L 122.134803 208.691854 
" clip-path="url(#p211504f9cb)" style="fill: none; stroke: #1f77b4; stroke-width: 1.6"/>
    <path d="M 175.58131 177.80424 
L 175.58131 174.882212 
" clip-path="url(#p211504f9cb)" style="fill: none; stroke: #1f77b4; stroke-width: 1.6"/>
    <path d="M 192.787243 198.030629 
L 192.787243 188.356766 
" clip-path="url(#p211504f9cb)" style="fill: none; stroke: #1f77b4; stroke-width: 1.6"/>
    <path d="M 229.027818 168.991336 
L 229.027818 166.590474 
" clip-path="url(#p211504f9cb)" style="fill: none; stroke: #1f77b4; stroke-width: 1.6"/>
    <path d="M 246.23375 168.619001 
L 246.23375 160.570996 
" clip-path="url(#p211504f9cb)" style="fill: none; stroke: #1f77b4; stroke-width: 1.6"/>
    <path d="M 263.439682 148.56953 
L 263.439682 145.455721 
" clip-path="url(#p211504f9cb)" style="fill: none; stroke: #1f77b4; stroke-width: 1.6"/>
    <path d="M 277.497953 159.770366 
L 277.497953 126.641616 
" clip-path="url(#p211504f9cb)" style="fill: none; stroke: #1f77b4; stroke-width: 1.6"/>
    <path d="M 299.680257 127.226327 
L 299.680257 123.862238 
" clip-path="url(#p211504f9cb)" style="fill: none; stroke: #1f77b4; stroke-width: 1.6"/>
    <path d="M 316.88619 122.352597 
L 316.88619 119.154105 
" clip-path="url(#p211504f9cb)" style="fill: none; stroke: #1f77b4; stroke-width: 1.6"/>
    <path d="M 330.94446 119.532697 
L 330.94446 114.462308 
" clip-path="url(#p211504f9cb)" style="fill: none; stroke: #1f77b4; stroke-width: 1.6"/>
    <path d="M 342.830558 101.917454 
L 342.830558 91.651949 
" clip-path="url(#p211504f9cb)" style="fill: none; stroke: #1f77b4; stroke-width: 1.6"/>
    <path d="M 353.126765 67.431885 
L 353.126765 63.786199 
" clip-path="url(#p211504f9cb)" style="fill: none; stroke: #1f77b4; stroke-width: 1.6"/>
    <path d="M 362.208663 90.603521 
L 362.208663 88.581868 
" clip-path="url(#p211504f9cb)" style="fill: none; stroke: #1f77b4; stroke-width: 1.6"/>
    <path d="M 370.332697 59.162105 
L 370.332697 53.696008 
" clip-path="url(#p211504f9cb)" style="fill: none; stroke: #1f77b4; stroke-width: 1.6"/>
    <path d="M 377.68178 82.16132 
L 377.68178 78.265965 
" clip-path="url(#p211504f9cb)" style="fill: none; stroke: #1f77b4; stroke-width: 1.6"/>
    <path d="M 384.390967 73.178067 
L 384.390967 71.216065 
" clip-path="url(#p211504f9cb)" style="fill: none; stroke: #1f77b4; stroke-width: 1.6"/>
    <path d="M 396.277066 54.405422 
L 396.277066 51.405403 
" clip-path="url(#p211504f9cb)" style="fill: none; stroke: #1f77b4; stroke-width: 1.6"/>
    <path d="M 401.5969 66.571753 
L 401.5969 64.789673 
" clip-path="url(#p211504f9cb)" style="fill: none; stroke: #1f77b4; stroke-width: 1.6"/>
    <path d="M 406.573272 77.360748 
L 406.573272 66.878867 
" clip-path="url(#p211504f9cb)" style="fill: none; stroke: #1f77b4; stroke-width: 1.6"/>
    <path d="M 415.65517 40.630889 
L 415.65517 38.566193 
" clip-path="url(#p211504f9cb)" style="fill: none; stroke: #1f77b4; stroke-width: 1.6"/>
    <path d="M 419.824132 54.742044 
L 419.824132 53.188553 
" clip-path="url(#p211504f9cb)" style="fill: none; stroke: #1f77b4; stroke-width: 1.6"/>
    <path d="M 423.779205 37.273028 
L 423.779205 34.165969 
" clip-path="url(#p211504f9cb)" style="fill: none; stroke: #1f77b4; stroke-width: 1.6"/>
   </g>
   <g id="line2d_47">
    <path d="M 68.688295 253.982569 
L 122.134803 211.579055 
L 175.58131 176.320378 
L 192.787243 192.943671 
L 229.027818 167.775479 
L 246.23375 164.421857 
L 263.439682 146.98668 
L 277.497953 140.328125 
L 299.680257 125.513999 
L 316.88619 120.725975 
L 330.94446 116.928727 
L 342.830558 96.50322 
L 353.126765 65.573478 
L 362.208663 89.581757 
L 370.332697 56.349134 
L 377.68178 80.173042 
L 384.390967 72.186764 
L 396.277066 52.881328 
L 401.5969 65.672213 
L 406.573272 71.82636 
L 415.65517 39.587132 
L 419.824132 53.958839 
L 423.779205 35.693665 
" clip-path="url(#p211504f9cb)" style="fill: none; stroke: #1f77b4; stroke-width: 1.6; stroke-linecap: square"/>
    <defs>
     <path id="m1684880aaf" d="M 0 3 
C 0.795609 3 1.55874 2.683901 2.12132 2.12132 
C 2.683901 1.55874 3 0.795609 3 0 
C 3 -0.795609 2.683901 -1.55874 2.12132 -2.12132 
C 1.55874 -2.683901 0.795609 -3 0 -3 
C -0.795609 -3 -1.55874 -2.683901 -2.12132 -2.12132 
C -2.683901 -1.55874 -3 -0.795609 -3 0 
C -3 0.795609 -2.683901 1.55874 -2.12132 2.12132 
C -1.55874 2.683901 -0.795609 3 0 3 
z
" style="stroke: #1f77b4"/>
    </defs>
    <g clip-path="url(#p211504f9cb)">
     <use xlink:href="#m1684880aaf" x="68.688295" y="253.982569" style="fill: #1f77b4; stroke: #1f77b4"/>
     <use xlink:href="#m1684880aaf" x="122.134803" y="211.579055" style="fill: #1f77b4; stroke: #1f77b4"/>
     <use xlink:href="#m1684880aaf" x="175.58131" y="176.320378" style="fill: #1f77b4; stroke: #1f77b4"/>
     <use xlink:href="#m1684880aaf" x="192.787243" y="192.943671" style="fill: #1f77b4; stroke: #1f77b4"/>
     <use xlink:href="#m1684880aaf" x="229.027818" y="167.775479" style="fill: #1f77b4; stroke: #1f77b4"/>
     <use xlink:href="#m1684880aaf" x="246.23375" y="164.421857" style="fill: #1f77b4; stroke: #1f77b4"/>
     <use xlink:href="#m1684880aaf" x="263.439682" y="146.98668" style="fill: #1f77b4; stroke: #1f77b4"/>
     <use xlink:href="#m1684880aaf" x="277.497953" y="140.328125" style="fill: #1f77b4; stroke: #1f77b4"/>
     <use xlink:href="#m1684880aaf" x="299.680257" y="125.513999" style="fill: #1f77b4; stroke: #1f77b4"/>
     <use xlink:href="#m1684880aaf" x="316.88619" y="120.725975" style="fill: #1f77b4; stroke: #1f77b4"/>
     <use xlink:href="#m1684880aaf" x="330.94446" y="116.928727" style="fill: #1f77b4; stroke: #1f77b4"/>
     <use xlink:href="#m1684880aaf" x="342.830558" y="96.50322" style="fill: #1f77b4; stroke: #1f77b4"/>
     <use xlink:href="#m1684880aaf" x="353.126765" y="65.573478" style="fill: #1f77b4; stroke: #1f77b4"/>
     <use xlink:href="#m1684880aaf" x="362.208663" y="89.581757" style="fill: #1f77b4; stroke: #1f77b4"/>
     <use xlink:href="#m1684880aaf" x="370.332697" y="56.349134" style="fill: #1f77b4; stroke: #1f77b4"/>
     <use xlink:href="#m1684880aaf" x="377.68178" y="80.173042" style="fill: #1f77b4; stroke: #1f77b4"/>
     <use xlink:href="#m1684880aaf" x="384.390967" y="72.186764" style="fill: #1f77b4; stroke: #1f77b4"/>
     <use xlink:href="#m1684880aaf" x="396.277066" y="52.881328" style="fill: #1f77b4; stroke: #1f77b4"/>
     <use xlink:href="#m1684880aaf" x="401.5969" y="65.672213" style="fill: #1f77b4; stroke: #1f77b4"/>
     <use xlink:href="#m1684880aaf" x="406.573272" y="71.82636" style="fill: #1f77b4; stroke: #1f77b4"/>
     <use xlink:href="#m1684880aaf" x="415.65517" y="39.587132" style="fill: #1f77b4; stroke: #1f77b4"/>
     <use xlink:href="#m1684880aaf" x="419.824132" y="53.958839" style="fill: #1f77b4; stroke: #1f77b4"/>
     <use xlink:href="#m1684880aaf" x="423.779205" y="35.693665" style="fill: #1f77b4; stroke: #1f77b4"/>
    </g>
   </g>
   <g id="patch_3">
    <path d="M 50.93375 267.013969 
L 50.93375 23.077969 
" style="fill: none; stroke: #000000; stroke-width: 0.8; stroke-linejoin: miter; stroke-linecap: square"/>
   </g>
   <g id="patch_4">
    <path d="M 441.53375 267.013969 
L 441.53375 23.077969 
" style="fill: none; stroke: #000000; stroke-width: 0.8; stroke-linejoin: miter; stroke-linecap: square"/>
   </g>
   <g id="patch_5">
    <path d="M 50.93375 267.013969 
L 441.53375 267.013969 
" style="fill: none; stroke: #000000; stroke-width: 0.8; stroke-linejoin: miter; stroke-linecap: square"/>
   </g>
   <g id="patch_6">
    <path d="M 50.93375 23.077969 
L 441.53375 23.077969 
" style="fill: none; stroke: #000000; stroke-width: 0.8; stroke-linejoin: miter; stroke-linecap: square"/>
   </g>
   <g id="text_8">
    <!-- Fitted A vs nominal viscosity — calibration curve -->
    <g transform="translate(88.365 17.077969) scale(0.13 -0.13)">
     <defs>
      <path id="DejaVuSans-2014" d="M 313 1978 
L 6088 1978 
L 6088 1528 
L 313 1528 
L 313 1978 
z
" transform="scale(0.015625)"/>
      <path id="DejaVuSans-62" d="M 3116 1747 
Q 3116 2381 2855 2742 
Q 2594 3103 2138 3103 
Q 1681 3103 1420 2742 
Q 1159 2381 1159 1747 
Q 1159 1113 1420 752 
Q 1681 391 2138 391 
Q 2594 391 2855 752 
Q 3116 1113 3116 1747 
z
M 1159 2969 
Q 1341 3281 1617 3432 
Q 1894 3584 2278 3584 
Q 2916 3584 3314 3078 
Q 3713 2572 3713 1747 
Q 3713 922 3314 415 
Q 2916 -91 2278 -91 
Q 1894 -91 1617 61 
Q 1341 213 1159 525 
L 1159 0 
L 581 0 
L 581 4863 
L 1159 4863 
L 1159 2969 
z
" transform="scale(0.015625)"/>
     </defs>
     <use xlink:href="#DejaVuSans-46"/>
     <use xlink:href="#DejaVuSans-69" transform="translate(50.269531 0)"/>
     <use xlink:href="#DejaVuSans-74" transform="translate(78.052734 0)"/>
     <use xlink:href="#DejaVuSans-74" transform="translate(117.261719 0)"/>
     <use xlink:href="#DejaVuSans-65" transform="translate(156.470703 0)"/>
     <use xlink:href="#DejaVuSans-64" transform="translate(217.994141 0)"/>
     <use xlink:href="#DejaVuSans-20" transform="translate(281.470703 0)"/>
     <use xlink:href="#DejaVuSans-41" transform="translate(313.257812 0)"/>
     <use xlink:href="#DejaVuSans-20" transform="translate(381.666016 0)"/>
     <use xlink:href="#DejaVuSans-76" transform="translate(413.453125 0)"/>
     <use xlink:href="#DejaVuSans-73" transform="translate(472.632812 0)"/>
     <use xlink:href="#DejaVuSans-20" transform="translate(524.732422 0)"/>
     <use xlink:href="#DejaVuSans-6e" transform="translate(556.519531 0)"/>
     <use xlink:href="#DejaVuSans-6f" transform="translate(619.898438 0)"/>
     <use xlink:href="#DejaVuSans-6d" transform="translate(681.080078 0)"/>
     <use xlink:href="#DejaVuSans-69" transform="translate(778.492188 0)"/>
     <use xlink:href="#DejaVuSans-6e" transform="translate(806.275391 0)"/>
     <use xlink:href="#DejaVuSans-61" transform="translate(869.654297 0)"/>
     <use xlink:href="#DejaVuSans-6c" transform="translate(930.933594 0)"/>
     <use xlink:href="#DejaVuSans-20" transform="translate(958.716797 0)"/>
     <use xlink:href="#DejaVuSans-76" transform="translate(990.503906 0)"/>
     <use xlink:href="#DejaVuSans-69" transform="translate(1049.683594 0)"/>
     <use xlink:href="#DejaVuSans-73" transform="translate(1077.466797 0)"/>
     <use xlink:href="#DejaVuSans-63" transform="translate(1129.566406 0)"/>
     <use xlink:href="#DejaVuSans-6f" transform="translate(1184.546875 0)"/>
     <use xlink:href="#DejaVuSans-73" transform="translate(1245.728516 0)"/>
     <use xlink:href="#DejaVuSans-69" transform="translate(1297.828125 0)"/>
     <use xlink:href="#DejaVuSans-74" transform="translate(1325.611328 0)"/>
     <use xlink:href="#DejaVuSans-79" transform="translate(1364.820312 0)"/>
     <use xlink:href="#DejaVuSans-20" transform="translate(1424 0)"/>
     <use xlink:href="#DejaVuSans-2014" transform="translate(1455.787109 0)"/>
     <use xlink:href="#DejaVuSans-20" transform="translate(1555.787109 0)"/>
     <use xlink:href="#DejaVuSans-63" transform="translate(1587.574219 0)"/>
     <use xlink:href="#DejaVuSans-61" transform="translate(1642.554688 0)"/>
     <use xlink:href="#DejaVuSans-6c" transform="translate(1703.833984 0)"/>
     <use xlink:href="#DejaVuSans-69" transform="translate(1731.617188 0)"/>
     <use xlink:href="#DejaVuSans-62" transform="translate(1759.400391 0)"/>
     <use xlink:href="#DejaVuSans-72" transform="translate(1822.876953 0)"/>
     <use xlink:href="#DejaVuSans-61" transform="translate(1863.990234 0)"/>
     <use xlink:href="#DejaVuSans-74" transform="translate(1925.269531 0)"/>
     <use xlink:href="#DejaVuSans-69" transform="translate(1964.478516 0)"/>
     <use xlink:href="#DejaVuSans-6f" transform="translate(1992.261719 0)"/>
     <use xlink:href="#DejaVuSans-6e" transform="translate(2053.443359 0)"/>
     <use xlink:href="#DejaVuSans-20" transform="translate(2116.822266 0)"/>
     <use xlink:href="#DejaVuSans-63" transform="translate(2148.609375 0)"/>
     <use xlink:href="#DejaVuSans-75" transform="translate(2203.589844 0)"/>
     <use xlink:href="#DejaVuSans-72" transform="translate(2266.96875 0)"/>
     <use xlink:href="#DejaVuSans-76" transform="translate(2308.082031 0)"/>
     <use xlink:href="#DejaVuSans-65" transform="translate(2367.261719 0)"/>
    </g>
   </g>
  </g>
 </g>
 <defs>
  <clipPath id="p211504f9cb">
   <rect x="50.93375" y="23.077969" width="390.6" height="243.936"/>
  </clipPath>
 </defs>
</svg>
