<?xml version="1.0" encoding="utf-8" standalone="no"?>
<!DOCTYPE svg PUBLIC "-//W3C//DTD SVG 1.1//EN"
  "http://www.w3.org/Graphics/SVG/1.1/DTD/svg11.dtd">
<svg xmlns:xlink="http://www.w3.org/1999/xlink" width="432pt" height="432pt" viewBox="0 0 432 432" xmlns="http://www.w3.org/2000/svg" version="1.1">
 <metadata>
  <rdf:RDF xmlns:dc="http://purl.org/dc/elements/1.1/" xmlns:cc="http://creativecommons.org/ns#" xmlns:rdf="http://www.w3.org/1999/02/22-rdf-syntax-ns#">
   <cc:Work>
    <dc:type rdf:resource="http://purl.org/dc/dcmitype/StillImage"/>
    <dc:date>2026-06-19T14:21:14.842431</dc:date>
    <dc:format>image/svg+xml</dc:format>
    <dc:creator>
     <cc:Agent>
      <dc:title>Matplotlib v3.10.0, https://matplotlib.org/</dc:title>
     </cc:Agent>
    </dc:creator>
   </cc:Work>
  </rdf:RDF>
 </metadata>
 <defs>
  <style type="text/css">*{stroke-linejoin: round; stroke-linecap: butt}</style>
 </defs>
 <g id="figure_1">
  <g id="patch_1">
   <path d="M 0 432 
L 432 432 
L 432 0 
L 0 0 
z
" style="fill: #ffffff"/>
  </g>
  <g id="axes_1">
   <g id="patch_2">
    <path d="M 55.036528 378.862205 
L 419.04 378.862205 
L 419.04 28.778182 
L 55.036528 28.778182 
z
" style="fill: #ffffff"/>
   </g>
   <g id="matplotlib.axis_1">
    <g id="xtick_1">
     <g id="line2d_1">
      <path d="M 71.582141 378.862205 
L 71.582141 28.778182 
" clip-path="url(#p17f4d8e9af)" style="fill: none; stroke: #b0b0b0; stroke-opacity: 0.3; stroke-width: 0.8; stroke-linecap: square"/>
     </g>
     <g id="line2d_2">
      <defs>
       <path id="m883b0cd197" d="M 0 0 
L 0 3.5 
" style="stroke: #000000; stroke-width: 0.8"/>
      </defs>
      <g>
       <use xlink:href="#m883b0cd197" x="71.582141" y="378.862205" style="stroke: #000000; stroke-width: 0.8"/>
      </g>
     </g>
     <g id="text_1">
      <!-- $\mathdefault{10^{0}}$ -->
      <g transform="translate(62.162141 398.237205) scale(0.12 -0.12)">
       <defs>
        <path id="ArialMT-31" d="M 2384 0 
L 1822 0 
L 1822 3584 
Q 1619 3391 1289 3197 
Q 959 3003 697 2906 
L 697 3450 
Q 1169 3672 1522 3987 
Q 1875 4303 2022 4600 
L 2384 4600 
L 2384 0 
z
" transform="scale(0.015625)"/>
        <path id="ArialMT-30" d="M 266 2259 
Q 266 3072 433 3567 
Q 600 4063 929 4331 
Q 1259 4600 1759 4600 
Q 2128 4600 2406 4451 
Q 2684 4303 2865 4023 
Q 3047 3744 3150 3342 
Q 3253 2941 3253 2259 
Q 3253 1453 3087 958 
Q 2922 463 2592 192 
Q 2263 -78 1759 -78 
Q 1097 -78 719 397 
Q 266 969 266 2259 
z
M 844 2259 
Q 844 1131 1108 757 
Q 1372 384 1759 384 
Q 2147 384 2411 759 
Q 2675 1134 2675 2259 
Q 2675 3391 2411 3762 
Q 2147 4134 1753 4134 
Q 1366 4134 1134 3806 
Q 844 3388 844 2259 
z
" transform="scale(0.015625)"/>
       </defs>
       <use xlink:href="#ArialMT-31" transform="translate(0 0.99375)"/>
       <use xlink:href="#ArialMT-30" transform="translate(55.615234 0.99375)"/>
       <use xlink:href="#ArialMT-30" transform="translate(112.972813 70.6875) scale(0.7)"/>
      </g>
     </g>
    </g>
    <g id="xtick_2">
     <g id="line2d_3">
      <path d="M 237.038264 378.862205 
L 237.038264 28.778182 
" clip-path="url(#p17f4d8e9af)" style="fill: none; stroke: #b0b0b0; stroke-opacity: 0.3; stroke-width: 0.8; stroke-linecap: square"/>
     </g>
     <g id="line2d_4">
      <g>
       <use xlink:href="#m883b0cd197" x="237.038264" y="378.862205" style="stroke: #000000; stroke-width: 0.8"/>
      </g>
     </g>
     <g id="text_2">
      <!-- $\mathdefault{10^{1}}$ -->
      <g transform="translate(227.618264 398.237205) scale(0.12 -0.12)">
       <use xlink:href="#ArialMT-31" transform="translate(0 0.99375)"/>
       <use xlink:href="#ArialMT-30" transform="translate(55.615234 0.99375)"/>
       <use xlink:href="#ArialMT-31" transform="translate(112.972813 70.6875) scale(0.7)"/>
      </g>
     </g>
    </g>
    <g id="xtick_3">
     <g id="line2d_5">
      <path d="M 402.494388 378.862205 
L 402.494388 28.778182 
" clip-path="url(#p17f4d8e9af)" style="fill: none; stroke: #b0b0b0; stroke-opacity: 0.3; stroke-width: 0.8; stroke-linecap: square"/>
     </g>
     <g id="line2d_6">
      <g>
       <use xlink:href="#m883b0cd197" x="402.494388" y="378.862205" style="stroke: #000000; stroke-width: 0.8"/>
      </g>
     </g>
     <g id="text_3">
      <!-- $\mathdefault{10^{2}}$ -->
      <g transform="translate(393.074388 398.237205) scale(0.12 -0.12)">
       <defs>
        <path id="ArialMT-32" d="M 3222 541 
L 3222 0 
L 194 0 
Q 188 203 259 391 
Q 375 700 629 1000 
Q 884 1300 1366 1694 
Q 2113 2306 2375 2664 
Q 2638 3022 2638 3341 
Q 2638 3675 2398 3904 
Q 2159 4134 1775 4134 
Q 1369 4134 1125 3890 
Q 881 3647 878 3216 
L 300 3275 
Q 359 3922 746 4261 
Q 1134 4600 1788 4600 
Q 2447 4600 2831 4234 
Q 3216 3869 3216 3328 
Q 3216 3053 3103 2787 
Q 2991 2522 2730 2228 
Q 2469 1934 1863 1422 
Q 1356 997 1212 845 
Q 1069 694 975 541 
L 3222 541 
z
" transform="scale(0.015625)"/>
       </defs>
       <use xlink:href="#ArialMT-31" transform="translate(0 0.99375)"/>
       <use xlink:href="#ArialMT-30" transform="translate(55.615234 0.99375)"/>
       <use xlink:href="#ArialMT-32" transform="translate(112.972813 70.6875) scale(0.7)"/>
      </g>
     </g>
    </g>
    <g id="xtick_4">
     <g id="line2d_7">
      <defs>
       <path id="m7f6c03ac2e" d="M 0 0 
L 0 2 
" style="stroke: #000000; stroke-width: 0.6"/>
      </defs>
      <g>
       <use xlink:href="#m7f6c03ac2e" x="55.547786" y="378.862205" style="stroke: #000000; stroke-width: 0.6"/>
      </g>
     </g>
    </g>
    <g id="xtick_5">
     <g id="line2d_8">
      <g>
       <use xlink:href="#m7f6c03ac2e" x="64.011284" y="378.862205" style="stroke: #000000; stroke-width: 0.6"/>
      </g>
     </g>
    </g>
    <g id="xtick_6">
     <g id="line2d_9">
      <g>
       <use xlink:href="#m7f6c03ac2e" x="121.389397" y="378.862205" style="stroke: #000000; stroke-width: 0.6"/>
      </g>
     </g>
    </g>
    <g id="xtick_7">
     <g id="line2d_10">
      <g>
       <use xlink:href="#m7f6c03ac2e" x="150.524774" y="378.862205" style="stroke: #000000; stroke-width: 0.6"/>
      </g>
     </g>
    </g>
    <g id="xtick_8">
     <g id="line2d_11">
      <g>
       <use xlink:href="#m7f6c03ac2e" x="171.196653" y="378.862205" style="stroke: #000000; stroke-width: 0.6"/>
      </g>
     </g>
    </g>
    <g id="xtick_9">
     <g id="line2d_12">
      <g>
       <use xlink:href="#m7f6c03ac2e" x="187.231008" y="378.862205" style="stroke: #000000; stroke-width: 0.6"/>
      </g>
     </g>
    </g>
    <g id="xtick_10">
     <g id="line2d_13">
      <g>
       <use xlink:href="#m7f6c03ac2e" x="200.33203" y="378.862205" style="stroke: #000000; stroke-width: 0.6"/>
      </g>
     </g>
    </g>
    <g id="xtick_11">
     <g id="line2d_14">
      <g>
       <use xlink:href="#m7f6c03ac2e" x="211.408786" y="378.862205" style="stroke: #000000; stroke-width: 0.6"/>
      </g>
     </g>
    </g>
    <g id="xtick_12">
     <g id="line2d_15">
      <g>
       <use xlink:href="#m7f6c03ac2e" x="221.003909" y="378.862205" style="stroke: #000000; stroke-width: 0.6"/>
      </g>
     </g>
    </g>
    <g id="xtick_13">
     <g id="line2d_16">
      <g>
       <use xlink:href="#m7f6c03ac2e" x="229.467407" y="378.862205" style="stroke: #000000; stroke-width: 0.6"/>
      </g>
     </g>
    </g>
    <g id="xtick_14">
     <g id="line2d_17">
      <g>
       <use xlink:href="#m7f6c03ac2e" x="286.84552" y="378.862205" style="stroke: #000000; stroke-width: 0.6"/>
      </g>
     </g>
    </g>
    <g id="xtick_15">
     <g id="line2d_18">
      <g>
       <use xlink:href="#m7f6c03ac2e" x="315.980897" y="378.862205" style="stroke: #000000; stroke-width: 0.6"/>
      </g>
     </g>
    </g>
    <g id="xtick_16">
     <g id="line2d_19">
      <g>
       <use xlink:href="#m7f6c03ac2e" x="336.652776" y="378.862205" style="stroke: #000000; stroke-width: 0.6"/>
      </g>
     </g>
    </g>
    <g id="xtick_17">
     <g id="line2d_20">
      <g>
       <use xlink:href="#m7f6c03ac2e" x="352.687132" y="378.862205" style="stroke: #000000; stroke-width: 0.6"/>
      </g>
     </g>
    </g>
    <g id="xtick_18">
     <g id="line2d_21">
      <g>
       <use xlink:href="#m7f6c03ac2e" x="365.788154" y="378.862205" style="stroke: #000000; stroke-width: 0.6"/>
      </g>
     </g>
    </g>
    <g id="xtick_19">
     <g id="line2d_22">
      <g>
       <use xlink:href="#m7f6c03ac2e" x="376.86491" y="378.862205" style="stroke: #000000; stroke-width: 0.6"/>
      </g>
     </g>
    </g>
    <g id="xtick_20">
     <g id="line2d_23">
      <g>
       <use xlink:href="#m7f6c03ac2e" x="386.460033" y="378.862205" style="stroke: #000000; stroke-width: 0.6"/>
      </g>
     </g>
    </g>
    <g id="xtick_21">
     <g id="line2d_24">
      <g>
       <use xlink:href="#m7f6c03ac2e" x="394.923531" y="378.862205" style="stroke: #000000; stroke-width: 0.6"/>
      </g>
     </g>
    </g>
    <g id="text_4">
     <!-- Nominal viscosity (kcP) -->
     <g transform="translate(175.030139 413.35783) scale(0.12 -0.12)">
      <defs>
       <path id="ArialMT-4e" d="M 488 0 
L 488 4581 
L 1109 4581 
L 3516 984 
L 3516 4581 
L 4097 4581 
L 4097 0 
L 3475 0 
L 1069 3600 
L 1069 0 
L 488 0 
z
" transform="scale(0.015625)"/>
       <path id="ArialMT-6f" d="M 213 1659 
Q 213 2581 725 3025 
Q 1153 3394 1769 3394 
Q 2453 3394 2887 2945 
Q 3322 2497 3322 1706 
Q 3322 1066 3130 698 
Q 2938 331 2570 128 
Q 2203 -75 1769 -75 
Q 1072 -75 642 372 
Q 213 819 213 1659 
z
M 791 1659 
Q 791 1022 1069 705 
Q 1347 388 1769 388 
Q 2188 388 2466 706 
Q 2744 1025 2744 1678 
Q 2744 2294 2464 2611 
Q 2184 2928 1769 2928 
Q 1347 2928 1069 2612 
Q 791 2297 791 1659 
z
" transform="scale(0.015625)"/>
       <path id="ArialMT-6d" d="M 422 0 
L 422 3319 
L 925 3319 
L 925 2853 
Q 1081 3097 1340 3245 
Q 1600 3394 1931 3394 
Q 2300 3394 2536 3241 
Q 2772 3088 2869 2813 
Q 3263 3394 3894 3394 
Q 4388 3394 4653 3120 
Q 4919 2847 4919 2278 
L 4919 0 
L 4359 0 
L 4359 2091 
Q 4359 2428 4304 2576 
Q 4250 2725 4106 2815 
Q 3963 2906 3769 2906 
Q 3419 2906 3187 2673 
Q 2956 2441 2956 1928 
L 2956 0 
L 2394 0 
L 2394 2156 
Q 2394 2531 2256 2718 
Q 2119 2906 1806 2906 
Q 1569 2906 1367 2781 
Q 1166 2656 1075 2415 
Q 984 2175 984 1722 
L 984 0 
L 422 0 
z
" transform="scale(0.015625)"/>
       <path id="ArialMT-69" d="M 425 3934 
L 425 4581 
L 988 4581 
L 988 3934 
L 425 3934 
z
M 425 0 
L 425 3319 
L 988 3319 
L 988 0 
L 425 0 
z
" transform="scale(0.015625)"/>
       <path id="ArialMT-6e" d="M 422 0 
L 422 3319 
L 928 3319 
L 928 2847 
Q 1294 3394 1984 3394 
Q 2284 3394 2536 3286 
Q 2788 3178 2913 3003 
Q 3038 2828 3088 2588 
Q 3119 2431 3119 2041 
L 3119 0 
L 2556 0 
L 2556 2019 
Q 2556 2363 2490 2533 
Q 2425 2703 2258 2804 
Q 2091 2906 1866 2906 
Q 1506 2906 1245 2678 
Q 984 2450 984 1813 
L 984 0 
L 422 0 
z
" transform="scale(0.015625)"/>
       <path id="ArialMT-61" d="M 2588 409 
Q 2275 144 1986 34 
Q 1697 -75 1366 -75 
Q 819 -75 525 192 
Q 231 459 231 875 
Q 231 1119 342 1320 
Q 453 1522 633 1644 
Q 813 1766 1038 1828 
Q 1203 1872 1538 1913 
Q 2219 1994 2541 2106 
Q 2544 2222 2544 2253 
Q 2544 2597 2384 2738 
Q 2169 2928 1744 2928 
Q 1347 2928 1158 2789 
Q 969 2650 878 2297 
L 328 2372 
Q 403 2725 575 2942 
Q 747 3159 1072 3276 
Q 1397 3394 1825 3394 
Q 2250 3394 2515 3294 
Q 2781 3194 2906 3042 
Q 3031 2891 3081 2659 
Q 3109 2516 3109 2141 
L 3109 1391 
Q 3109 606 3145 398 
Q 3181 191 3288 0 
L 2700 0 
Q 2613 175 2588 409 
z
M 2541 1666 
Q 2234 1541 1622 1453 
Q 1275 1403 1131 1340 
Q 988 1278 909 1158 
Q 831 1038 831 891 
Q 831 666 1001 516 
Q 1172 366 1500 366 
Q 1825 366 2078 508 
Q 2331 650 2450 897 
Q 2541 1088 2541 1459 
L 2541 1666 
z
" transform="scale(0.015625)"/>
       <path id="ArialMT-6c" d="M 409 0 
L 409 4581 
L 972 4581 
L 972 0 
L 409 0 
z
" transform="scale(0.015625)"/>
       <path id="ArialMT-20" transform="scale(0.015625)"/>
       <path id="ArialMT-76" d="M 1344 0 
L 81 3319 
L 675 3319 
L 1388 1331 
Q 1503 1009 1600 663 
Q 1675 925 1809 1294 
L 2547 3319 
L 3125 3319 
L 1869 0 
L 1344 0 
z
" transform="scale(0.015625)"/>
       <path id="ArialMT-73" d="M 197 991 
L 753 1078 
Q 800 744 1014 566 
Q 1228 388 1613 388 
Q 2000 388 2187 545 
Q 2375 703 2375 916 
Q 2375 1106 2209 1216 
Q 2094 1291 1634 1406 
Q 1016 1563 777 1677 
Q 538 1791 414 1992 
Q 291 2194 291 2438 
Q 291 2659 392 2848 
Q 494 3038 669 3163 
Q 800 3259 1026 3326 
Q 1253 3394 1513 3394 
Q 1903 3394 2198 3281 
Q 2494 3169 2634 2976 
Q 2775 2784 2828 2463 
L 2278 2388 
Q 2241 2644 2061 2787 
Q 1881 2931 1553 2931 
Q 1166 2931 1000 2803 
Q 834 2675 834 2503 
Q 834 2394 903 2306 
Q 972 2216 1119 2156 
Q 1203 2125 1616 2013 
Q 2213 1853 2448 1751 
Q 2684 1650 2818 1456 
Q 2953 1263 2953 975 
Q 2953 694 2789 445 
Q 2625 197 2315 61 
Q 2006 -75 1616 -75 
Q 969 -75 630 194 
Q 291 463 197 991 
z
" transform="scale(0.015625)"/>
       <path id="ArialMT-63" d="M 2588 1216 
L 3141 1144 
Q 3050 572 2676 248 
Q 2303 -75 1759 -75 
Q 1078 -75 664 370 
Q 250 816 250 1647 
Q 250 2184 428 2587 
Q 606 2991 970 3192 
Q 1334 3394 1763 3394 
Q 2303 3394 2647 3120 
Q 2991 2847 3088 2344 
L 2541 2259 
Q 2463 2594 2264 2762 
Q 2066 2931 1784 2931 
Q 1359 2931 1093 2626 
Q 828 2322 828 1663 
Q 828 994 1084 691 
Q 1341 388 1753 388 
Q 2084 388 2306 591 
Q 2528 794 2588 1216 
z
" transform="scale(0.015625)"/>
       <path id="ArialMT-74" d="M 1650 503 
L 1731 6 
Q 1494 -44 1306 -44 
Q 1000 -44 831 53 
Q 663 150 594 308 
Q 525 466 525 972 
L 525 2881 
L 113 2881 
L 113 3319 
L 525 3319 
L 525 4141 
L 1084 4478 
L 1084 3319 
L 1650 3319 
L 1650 2881 
L 1084 2881 
L 1084 941 
Q 1084 700 1114 631 
Q 1144 563 1211 522 
Q 1278 481 1403 481 
Q 1497 481 1650 503 
z
" transform="scale(0.015625)"/>
       <path id="ArialMT-79" d="M 397 -1278 
L 334 -750 
Q 519 -800 656 -800 
Q 844 -800 956 -737 
Q 1069 -675 1141 -563 
Q 1194 -478 1313 -144 
Q 1328 -97 1363 -6 
L 103 3319 
L 709 3319 
L 1400 1397 
Q 1534 1031 1641 628 
Q 1738 1016 1872 1384 
L 2581 3319 
L 3144 3319 
L 1881 -56 
Q 1678 -603 1566 -809 
Q 1416 -1088 1222 -1217 
Q 1028 -1347 759 -1347 
Q 597 -1347 397 -1278 
z
" transform="scale(0.015625)"/>
       <path id="ArialMT-28" d="M 1497 -1347 
Q 1031 -759 709 28 
Q 388 816 388 1659 
Q 388 2403 628 3084 
Q 909 3875 1497 4659 
L 1900 4659 
Q 1522 4009 1400 3731 
Q 1209 3300 1100 2831 
Q 966 2247 966 1656 
Q 966 153 1900 -1347 
L 1497 -1347 
z
" transform="scale(0.015625)"/>
       <path id="ArialMT-6b" d="M 425 0 
L 425 4581 
L 988 4581 
L 988 1969 
L 2319 3319 
L 3047 3319 
L 1778 2088 
L 3175 0 
L 2481 0 
L 1384 1697 
L 988 1316 
L 988 0 
L 425 0 
z
" transform="scale(0.015625)"/>
       <path id="ArialMT-50" d="M 494 0 
L 494 4581 
L 2222 4581 
Q 2678 4581 2919 4538 
Q 3256 4481 3484 4323 
Q 3713 4166 3852 3881 
Q 3991 3597 3991 3256 
Q 3991 2672 3619 2267 
Q 3247 1863 2275 1863 
L 1100 1863 
L 1100 0 
L 494 0 
z
M 1100 2403 
L 2284 2403 
Q 2872 2403 3119 2622 
Q 3366 2841 3366 3238 
Q 3366 3525 3220 3729 
Q 3075 3934 2838 4000 
Q 2684 4041 2272 4041 
L 1100 4041 
L 1100 2403 
z
" transform="scale(0.015625)"/>
       <path id="ArialMT-29" d="M 791 -1347 
L 388 -1347 
Q 1322 153 1322 1656 
Q 1322 2244 1188 2822 
Q 1081 3291 891 3722 
Q 769 4003 388 4659 
L 791 4659 
Q 1378 3875 1659 3084 
Q 1900 2403 1900 1659 
Q 1900 816 1576 28 
Q 1253 -759 791 -1347 
z
" transform="scale(0.015625)"/>
      </defs>
      <use xlink:href="#ArialMT-4e"/>
      <use xlink:href="#ArialMT-6f" transform="translate(72.216797 0)"/>
      <use xlink:href="#ArialMT-6d" transform="translate(127.832031 0)"/>
      <use xlink:href="#ArialMT-69" transform="translate(211.132812 0)"/>
      <use xlink:href="#ArialMT-6e" transform="translate(233.349609 0)"/>
      <use xlink:href="#ArialMT-61" transform="translate(288.964844 0)"/>
      <use xlink:href="#ArialMT-6c" transform="translate(344.580078 0)"/>
      <use xlink:href="#ArialMT-20" transform="translate(366.796875 0)"/>
      <use xlink:href="#ArialMT-76" transform="translate(394.580078 0)"/>
      <use xlink:href="#ArialMT-69" transform="translate(444.580078 0)"/>
      <use xlink:href="#ArialMT-73" transform="translate(466.796875 0)"/>
      <use xlink:href="#ArialMT-63" transform="translate(516.796875 0)"/>
      <use xlink:href="#ArialMT-6f" transform="translate(566.796875 0)"/>
      <use xlink:href="#ArialMT-73" transform="translate(622.412109 0)"/>
      <use xlink:href="#ArialMT-69" transform="translate(672.412109 0)"/>
      <use xlink:href="#ArialMT-74" transform="translate(694.628906 0)"/>
      <use xlink:href="#ArialMT-79" transform="translate(722.412109 0)"/>
      <use xlink:href="#ArialMT-20" transform="translate(772.412109 0)"/>
      <use xlink:href="#ArialMT-28" transform="translate(800.195312 0)"/>
      <use xlink:href="#ArialMT-6b" transform="translate(833.496094 0)"/>
      <use xlink:href="#ArialMT-63" transform="translate(883.496094 0)"/>
      <use xlink:href="#ArialMT-50" transform="translate(933.496094 0)"/>
      <use xlink:href="#ArialMT-29" transform="translate(1000.195312 0)"/>
     </g>
    </g>
   </g>
   <g id="matplotlib.axis_2">
    <g id="ytick_1">
     <g id="line2d_25">
      <path d="M 55.036528 373.65424 
L 419.04 373.65424 
" clip-path="url(#p17f4d8e9af)" style="fill: none; stroke: #b0b0b0; stroke-opacity: 0.3; stroke-width: 0.8; stroke-linecap: square"/>
     </g>
     <g id="line2d_26">
      <defs>
       <path id="mcfc3e77886" d="M 0 0 
L -3.5 0 
" style="stroke: #000000; stroke-width: 0.8"/>
      </defs>
      <g>
       <use xlink:href="#mcfc3e77886" x="55.036528" y="373.65424" style="stroke: #000000; stroke-width: 0.8"/>
      </g>
     </g>
     <g id="text_5">
      <!-- $\mathdefault{10^{0}}$ -->
      <g transform="translate(29.196528 379.84174) scale(0.12 -0.12)">
       <use xlink:href="#ArialMT-31" transform="translate(0 0.99375)"/>
       <use xlink:href="#ArialMT-30" transform="translate(55.615234 0.99375)"/>
       <use xlink:href="#ArialMT-30" transform="translate(112.972813 70.6875) scale(0.7)"/>
      </g>
     </g>
    </g>
    <g id="ytick_2">
     <g id="line2d_27">
      <path d="M 55.036528 248.975223 
L 419.04 248.975223 
" clip-path="url(#p17f4d8e9af)" style="fill: none; stroke: #b0b0b0; stroke-opacity: 0.3; stroke-width: 0.8; stroke-linecap: square"/>
     </g>
     <g id="line2d_28">
      <g>
       <use xlink:href="#mcfc3e77886" x="55.036528" y="248.975223" style="stroke: #000000; stroke-width: 0.8"/>
      </g>
     </g>
     <g id="text_6">
      <!-- $\mathdefault{10^{1}}$ -->
      <g transform="translate(29.196528 255.162723) scale(0.12 -0.12)">
       <use xlink:href="#ArialMT-31" transform="translate(0 0.99375)"/>
       <use xlink:href="#ArialMT-30" transform="translate(55.615234 0.99375)"/>
       <use xlink:href="#ArialMT-31" transform="translate(112.972813 70.6875) scale(0.7)"/>
      </g>
     </g>
    </g>
    <g id="ytick_3">
     <g id="line2d_29">
      <path d="M 55.036528 124.296206 
L 419.04 124.296206 
" clip-path="url(#p17f4d8e9af)" style="fill: none; stroke: #b0b0b0; stroke-opacity: 0.3; stroke-width: 0.8; stroke-linecap: square"/>
     </g>
     <g id="line2d_30">
      <g>
       <use xlink:href="#mcfc3e77886" x="55.036528" y="124.296206" style="stroke: #000000; stroke-width: 0.8"/>
      </g>
     </g>
     <g id="text_7">
      <!-- $\mathdefault{10^{2}}$ -->
      <g transform="translate(29.196528 130.483706) scale(0.12 -0.12)">
       <use xlink:href="#ArialMT-31" transform="translate(0 0.99375)"/>
       <use xlink:href="#ArialMT-30" transform="translate(55.615234 0.99375)"/>
       <use xlink:href="#ArialMT-32" transform="translate(112.972813 70.6875) scale(0.7)"/>
      </g>
     </g>
    </g>
    <g id="ytick_4">
     <g id="line2d_31">
      <defs>
       <path id="m5068865f51" d="M 0 0 
L -2 0 
" style="stroke: #000000; stroke-width: 0.6"/>
      </defs>
      <g>
       <use xlink:href="#m5068865f51" x="55.036528" y="336.122116" style="stroke: #000000; stroke-width: 0.6"/>
      </g>
     </g>
    </g>
    <g id="ytick_5">
     <g id="line2d_32">
      <g>
       <use xlink:href="#m5068865f51" x="55.036528" y="314.167231" style="stroke: #000000; stroke-width: 0.6"/>
      </g>
     </g>
    </g>
    <g id="ytick_6">
     <g id="line2d_33">
      <g>
       <use xlink:href="#m5068865f51" x="55.036528" y="298.589992" style="stroke: #000000; stroke-width: 0.6"/>
      </g>
     </g>
    </g>
    <g id="ytick_7">
     <g id="line2d_34">
      <g>
       <use xlink:href="#m5068865f51" x="55.036528" y="286.507347" style="stroke: #000000; stroke-width: 0.6"/>
      </g>
     </g>
    </g>
    <g id="ytick_8">
     <g id="line2d_35">
      <g>
       <use xlink:href="#m5068865f51" x="55.036528" y="276.635107" style="stroke: #000000; stroke-width: 0.6"/>
      </g>
     </g>
    </g>
    <g id="ytick_9">
     <g id="line2d_36">
      <g>
       <use xlink:href="#m5068865f51" x="55.036528" y="268.288247" style="stroke: #000000; stroke-width: 0.6"/>
      </g>
     </g>
    </g>
    <g id="ytick_10">
     <g id="line2d_37">
      <g>
       <use xlink:href="#m5068865f51" x="55.036528" y="261.057868" style="stroke: #000000; stroke-width: 0.6"/>
      </g>
     </g>
    </g>
    <g id="ytick_11">
     <g id="line2d_38">
      <g>
       <use xlink:href="#m5068865f51" x="55.036528" y="254.680222" style="stroke: #000000; stroke-width: 0.6"/>
      </g>
     </g>
    </g>
    <g id="ytick_12">
     <g id="line2d_39">
      <g>
       <use xlink:href="#m5068865f51" x="55.036528" y="211.443099" style="stroke: #000000; stroke-width: 0.6"/>
      </g>
     </g>
    </g>
    <g id="ytick_13">
     <g id="line2d_40">
      <g>
       <use xlink:href="#m5068865f51" x="55.036528" y="189.488214" style="stroke: #000000; stroke-width: 0.6"/>
      </g>
     </g>
    </g>
    <g id="ytick_14">
     <g id="line2d_41">
      <g>
       <use xlink:href="#m5068865f51" x="55.036528" y="173.910975" style="stroke: #000000; stroke-width: 0.6"/>
      </g>
     </g>
    </g>
    <g id="ytick_15">
     <g id="line2d_42">
      <g>
       <use xlink:href="#m5068865f51" x="55.036528" y="161.82833" style="stroke: #000000; stroke-width: 0.6"/>
      </g>
     </g>
    </g>
    <g id="ytick_16">
     <g id="line2d_43">
      <g>
       <use xlink:href="#m5068865f51" x="55.036528" y="151.95609" style="stroke: #000000; stroke-width: 0.6"/>
      </g>
     </g>
    </g>
    <g id="ytick_17">
     <g id="line2d_44">
      <g>
       <use xlink:href="#m5068865f51" x="55.036528" y="143.60923" style="stroke: #000000; stroke-width: 0.6"/>
      </g>
     </g>
    </g>
    <g id="ytick_18">
     <g id="line2d_45">
      <g>
       <use xlink:href="#m5068865f51" x="55.036528" y="136.378851" style="stroke: #000000; stroke-width: 0.6"/>
      </g>
     </g>
    </g>
    <g id="ytick_19">
     <g id="line2d_46">
      <g>
       <use xlink:href="#m5068865f51" x="55.036528" y="130.001205" style="stroke: #000000; stroke-width: 0.6"/>
      </g>
     </g>
    </g>
    <g id="ytick_20">
     <g id="line2d_47">
      <g>
       <use xlink:href="#m5068865f51" x="55.036528" y="86.764082" style="stroke: #000000; stroke-width: 0.6"/>
      </g>
     </g>
    </g>
    <g id="ytick_21">
     <g id="line2d_48">
      <g>
       <use xlink:href="#m5068865f51" x="55.036528" y="64.809197" style="stroke: #000000; stroke-width: 0.6"/>
      </g>
     </g>
    </g>
    <g id="ytick_22">
     <g id="line2d_49">
      <g>
       <use xlink:href="#m5068865f51" x="55.036528" y="49.231958" style="stroke: #000000; stroke-width: 0.6"/>
      </g>
     </g>
    </g>
    <g id="ytick_23">
     <g id="line2d_50">
      <g>
       <use xlink:href="#m5068865f51" x="55.036528" y="37.149313" style="stroke: #000000; stroke-width: 0.6"/>
      </g>
     </g>
    </g>
    <g id="text_8">
     <!-- Fitted A  (model = gen_power) -->
     <g transform="translate(22.670903 284.028943) rotate(-90) scale(0.12 -0.12)">
      <defs>
       <path id="ArialMT-46" d="M 525 0 
L 525 4581 
L 3616 4581 
L 3616 4041 
L 1131 4041 
L 1131 2622 
L 3281 2622 
L 3281 2081 
L 1131 2081 
L 1131 0 
L 525 0 
z
" transform="scale(0.015625)"/>
       <path id="ArialMT-65" d="M 2694 1069 
L 3275 997 
Q 3138 488 2766 206 
Q 2394 -75 1816 -75 
Q 1088 -75 661 373 
Q 234 822 234 1631 
Q 234 2469 665 2931 
Q 1097 3394 1784 3394 
Q 2450 3394 2872 2941 
Q 3294 2488 3294 1666 
Q 3294 1616 3291 1516 
L 816 1516 
Q 847 969 1125 678 
Q 1403 388 1819 388 
Q 2128 388 2347 550 
Q 2566 713 2694 1069 
z
M 847 1978 
L 2700 1978 
Q 2663 2397 2488 2606 
Q 2219 2931 1791 2931 
Q 1403 2931 1139 2672 
Q 875 2413 847 1978 
z
" transform="scale(0.015625)"/>
       <path id="ArialMT-64" d="M 2575 0 
L 2575 419 
Q 2259 -75 1647 -75 
Q 1250 -75 917 144 
Q 584 363 401 755 
Q 219 1147 219 1656 
Q 219 2153 384 2558 
Q 550 2963 881 3178 
Q 1213 3394 1622 3394 
Q 1922 3394 2156 3267 
Q 2391 3141 2538 2938 
L 2538 4581 
L 3097 4581 
L 3097 0 
L 2575 0 
z
M 797 1656 
Q 797 1019 1065 703 
Q 1334 388 1700 388 
Q 2069 388 2326 689 
Q 2584 991 2584 1609 
Q 2584 2291 2321 2609 
Q 2059 2928 1675 2928 
Q 1300 2928 1048 2622 
Q 797 2316 797 1656 
z
" transform="scale(0.015625)"/>
       <path id="ArialMT-41" d="M -9 0 
L 1750 4581 
L 2403 4581 
L 4278 0 
L 3588 0 
L 3053 1388 
L 1138 1388 
L 634 0 
L -9 0 
z
M 1313 1881 
L 2866 1881 
L 2388 3150 
Q 2169 3728 2063 4100 
Q 1975 3659 1816 3225 
L 1313 1881 
z
" transform="scale(0.015625)"/>
       <path id="ArialMT-3d" d="M 3381 2694 
L 356 2694 
L 356 3219 
L 3381 3219 
L 3381 2694 
z
M 3381 1303 
L 356 1303 
L 356 1828 
L 3381 1828 
L 3381 1303 
z
" transform="scale(0.015625)"/>
       <path id="ArialMT-67" d="M 319 -275 
L 866 -356 
Q 900 -609 1056 -725 
Q 1266 -881 1628 -881 
Q 2019 -881 2231 -725 
Q 2444 -569 2519 -288 
Q 2563 -116 2559 434 
Q 2191 0 1641 0 
Q 956 0 581 494 
Q 206 988 206 1678 
Q 206 2153 378 2554 
Q 550 2956 876 3175 
Q 1203 3394 1644 3394 
Q 2231 3394 2613 2919 
L 2613 3319 
L 3131 3319 
L 3131 450 
Q 3131 -325 2973 -648 
Q 2816 -972 2473 -1159 
Q 2131 -1347 1631 -1347 
Q 1038 -1347 672 -1080 
Q 306 -813 319 -275 
z
M 784 1719 
Q 784 1066 1043 766 
Q 1303 466 1694 466 
Q 2081 466 2343 764 
Q 2606 1063 2606 1700 
Q 2606 2309 2336 2618 
Q 2066 2928 1684 2928 
Q 1309 2928 1046 2623 
Q 784 2319 784 1719 
z
" transform="scale(0.015625)"/>
       <path id="ArialMT-5f" d="M -97 -1272 
L -97 -866 
L 3631 -866 
L 3631 -1272 
L -97 -1272 
z
" transform="scale(0.015625)"/>
       <path id="ArialMT-70" d="M 422 -1272 
L 422 3319 
L 934 3319 
L 934 2888 
Q 1116 3141 1344 3267 
Q 1572 3394 1897 3394 
Q 2322 3394 2647 3175 
Q 2972 2956 3137 2557 
Q 3303 2159 3303 1684 
Q 3303 1175 3120 767 
Q 2938 359 2589 142 
Q 2241 -75 1856 -75 
Q 1575 -75 1351 44 
Q 1128 163 984 344 
L 984 -1272 
L 422 -1272 
z
M 931 1641 
Q 931 1000 1190 694 
Q 1450 388 1819 388 
Q 2194 388 2461 705 
Q 2728 1022 2728 1688 
Q 2728 2322 2467 2637 
Q 2206 2953 1844 2953 
Q 1484 2953 1207 2617 
Q 931 2281 931 1641 
z
" transform="scale(0.015625)"/>
       <path id="ArialMT-77" d="M 1034 0 
L 19 3319 
L 600 3319 
L 1128 1403 
L 1325 691 
Q 1338 744 1497 1375 
L 2025 3319 
L 2603 3319 
L 3100 1394 
L 3266 759 
L 3456 1400 
L 4025 3319 
L 4572 3319 
L 3534 0 
L 2950 0 
L 2422 1988 
L 2294 2553 
L 1622 0 
L 1034 0 
z
" transform="scale(0.015625)"/>
       <path id="ArialMT-72" d="M 416 0 
L 416 3319 
L 922 3319 
L 922 2816 
Q 1116 3169 1280 3281 
Q 1444 3394 1641 3394 
Q 1925 3394 2219 3213 
L 2025 2691 
Q 1819 2813 1613 2813 
Q 1428 2813 1281 2702 
Q 1134 2591 1072 2394 
Q 978 2094 978 1738 
L 978 0 
L 416 0 
z
" transform="scale(0.015625)"/>
      </defs>
      <use xlink:href="#ArialMT-46"/>
      <use xlink:href="#ArialMT-69" transform="translate(61.083984 0)"/>
      <use xlink:href="#ArialMT-74" transform="translate(83.300781 0)"/>
      <use xlink:href="#ArialMT-74" transform="translate(111.083984 0)"/>
      <use xlink:href="#ArialMT-65" transform="translate(138.867188 0)"/>
      <use xlink:href="#ArialMT-64" transform="translate(194.482422 0)"/>
      <use xlink:href="#ArialMT-20" transform="translate(250.097656 0)"/>
      <use xlink:href="#ArialMT-41" transform="translate(272.380859 0)"/>
      <use xlink:href="#ArialMT-20" transform="translate(333.580078 0)"/>
      <use xlink:href="#ArialMT-20" transform="translate(361.363281 0)"/>
      <use xlink:href="#ArialMT-28" transform="translate(389.146484 0)"/>
      <use xlink:href="#ArialMT-6d" transform="translate(422.447266 0)"/>
      <use xlink:href="#ArialMT-6f" transform="translate(505.748047 0)"/>
      <use xlink:href="#ArialMT-64" transform="translate(561.363281 0)"/>
      <use xlink:href="#ArialMT-65" transform="translate(616.978516 0)"/>
      <use xlink:href="#ArialMT-6c" transform="translate(672.59375 0)"/>
      <use xlink:href="#ArialMT-20" transform="translate(694.810547 0)"/>
      <use xlink:href="#ArialMT-3d" transform="translate(722.59375 0)"/>
      <use xlink:href="#ArialMT-20" transform="translate(780.992188 0)"/>
      <use xlink:href="#ArialMT-67" transform="translate(808.775391 0)"/>
      <use xlink:href="#ArialMT-65" transform="translate(864.390625 0)"/>
      <use xlink:href="#ArialMT-6e" transform="translate(920.005859 0)"/>
      <use xlink:href="#ArialMT-5f" transform="translate(975.621094 0)"/>
      <use xlink:href="#ArialMT-70" transform="translate(1031.236328 0)"/>
      <use xlink:href="#ArialMT-6f" transform="translate(1086.851562 0)"/>
      <use xlink:href="#ArialMT-77" transform="translate(1142.466797 0)"/>
      <use xlink:href="#ArialMT-65" transform="translate(1214.683594 0)"/>
      <use xlink:href="#ArialMT-72" transform="translate(1270.298828 0)"/>
      <use xlink:href="#ArialMT-29" transform="translate(1303.599609 0)"/>
     </g>
    </g>
   </g>
   <g id="LineCollection_1">
    <path d="M 71.582141 536.483368 
L 71.582141 296.113095 
" clip-path="url(#p17f4d8e9af)" style="fill: #db4437; stroke: #db4437; stroke-width: 1.6"/>
    <path d="M 121.389397 125052.671231 
L 121.389397 228.067381 
" clip-path="url(#p17f4d8e9af)" style="fill: #db4437; stroke: #db4437; stroke-width: 1.6"/>
    <path d="M 171.196653 383.735391 
L 171.196653 294.955924 
" clip-path="url(#p17f4d8e9af)" style="fill: #db4437; stroke: #db4437; stroke-width: 1.6"/>
    <path d="M 187.231008 125052.671231 
L 187.231008 294.919488 
" clip-path="url(#p17f4d8e9af)" style="fill: #db4437; stroke: #db4437; stroke-width: 1.6"/>
    <path d="M 221.003909 363.20293 
L 221.003909 301.382498 
" clip-path="url(#p17f4d8e9af)" style="fill: #db4437; stroke: #db4437; stroke-width: 1.6"/>
    <path d="M 237.038264 125052.671231 
L 237.038264 256.60459 
" clip-path="url(#p17f4d8e9af)" style="fill: #db4437; stroke: #db4437; stroke-width: 1.6"/>
    <path d="M 253.072619 330.595611 
L 253.072619 283.988279 
" clip-path="url(#p17f4d8e9af)" style="fill: #db4437; stroke: #db4437; stroke-width: 1.6"/>
    <path d="M 266.173641 125052.671231 
L 266.173641 44.691092 
" clip-path="url(#p17f4d8e9af)" style="fill: #db4437; stroke: #db4437; stroke-width: 1.6"/>
    <path d="M 286.84552 279.171192 
L 286.84552 198.259299 
" clip-path="url(#p17f4d8e9af)" style="fill: #db4437; stroke: #db4437; stroke-width: 1.6"/>
    <path d="M 302.879875 254.677237 
L 302.879875 196.484043 
" clip-path="url(#p17f4d8e9af)" style="fill: #db4437; stroke: #db4437; stroke-width: 1.6"/>
    <path d="M 315.980897 460.972939 
L 315.980897 159.849969 
" clip-path="url(#p17f4d8e9af)" style="fill: #db4437; stroke: #db4437; stroke-width: 1.6"/>
    <path d="M 327.057654 125052.671231 
L 327.057654 75.487085 
" clip-path="url(#p17f4d8e9af)" style="fill: #db4437; stroke: #db4437; stroke-width: 1.6"/>
    <path d="M 336.652776 125052.671231 
L 336.652776 158.878235 
" clip-path="url(#p17f4d8e9af)" style="fill: #db4437; stroke: #db4437; stroke-width: 1.6"/>
    <path d="M 345.116275 246.313248 
L 345.116275 222.98703 
" clip-path="url(#p17f4d8e9af)" style="fill: #db4437; stroke: #db4437; stroke-width: 1.6"/>
    <path d="M 352.687132 125052.671231 
L 352.687132 131.27354 
" clip-path="url(#p17f4d8e9af)" style="fill: #db4437; stroke: #db4437; stroke-width: 1.6"/>
    <path d="M 359.535805 231.688482 
L 359.535805 157.795995 
" clip-path="url(#p17f4d8e9af)" style="fill: #db4437; stroke: #db4437; stroke-width: 1.6"/>
    <path d="M 365.788154 231.79577 
L 365.788154 201.294848 
" clip-path="url(#p17f4d8e9af)" style="fill: #db4437; stroke: #db4437; stroke-width: 1.6"/>
    <path d="M 376.86491 209.896856 
L 376.86491 198.83035 
" clip-path="url(#p17f4d8e9af)" style="fill: #db4437; stroke: #db4437; stroke-width: 1.6"/>
    <path d="M 381.822509 213.798791 
L 381.822509 191.059083 
" clip-path="url(#p17f4d8e9af)" style="fill: #db4437; stroke: #db4437; stroke-width: 1.6"/>
    <path d="M 386.460033 125052.671231 
L 386.460033 47.363756 
" clip-path="url(#p17f4d8e9af)" style="fill: #db4437; stroke: #db4437; stroke-width: 1.6"/>
    <path d="M 394.923531 176.178613 
L 394.923531 131.99626 
" clip-path="url(#p17f4d8e9af)" style="fill: #db4437; stroke: #db4437; stroke-width: 1.6"/>
    <path d="M 398.808622 198.139803 
L 398.808622 176.765216 
" clip-path="url(#p17f4d8e9af)" style="fill: #db4437; stroke: #db4437; stroke-width: 1.6"/>
    <path d="M 402.494388 200.098707 
L 402.494388 147.607461 
" clip-path="url(#p17f4d8e9af)" style="fill: #db4437; stroke: #db4437; stroke-width: 1.6"/>
   </g>
   <g id="line2d_51">
    <path d="M 71.582141 333.009721 
L 121.389397 279.641809 
L 171.196653 322.884509 
L 187.231008 362.949294 
L 221.003909 323.911379 
L 237.038264 316.99224 
L 253.072619 302.424857 
L 266.173641 192.336689 
L 286.84552 224.828874 
L 302.879875 218.112564 
L 315.980897 197.174334 
L 327.057654 137.295203 
L 336.652776 200.73285 
L 345.116275 233.403643 
L 352.687132 170.261245 
L 359.535805 183.009084 
L 365.788154 214.425492 
L 376.86491 204.081376 
L 381.822509 201.243888 
L 386.460033 108.35228 
L 394.923531 149.700765 
L 398.808622 186.40459 
L 402.494388 167.726862 
" clip-path="url(#p17f4d8e9af)" style="fill: none; stroke: #4285f4; stroke-width: 1.6; stroke-linecap: square"/>
    <defs>
     <path id="ma19930b3ad" d="M 0 3 
C 0.795609 3 1.55874 2.683901 2.12132 2.12132 
C 2.683901 1.55874 3 0.795609 3 0 
C 3 -0.795609 2.683901 -1.55874 2.12132 -2.12132 
C 1.55874 -2.683901 0.795609 -3 0 -3 
C -0.795609 -3 -1.55874 -2.683901 -2.12132 -2.12132 
C -2.683901 -1.55874 -3 -0.795609 -3 0 
C -3 0.795609 -2.683901 1.55874 -2.12132 2.12132 
C -1.55874 2.683901 -0.795609 3 0 3 
z
" style="stroke: #4285f4"/>
    </defs>
    <g clip-path="url(#p17f4d8e9af)">
     <use xlink:href="#ma19930b3ad" x="71.582141" y="333.009721" style="fill: #4285f4; stroke: #4285f4"/>
     <use xlink:href="#ma19930b3ad" x="121.389397" y="279.641809" style="fill: #4285f4; stroke: #4285f4"/>
     <use xlink:href="#ma19930b3ad" x="171.196653" y="322.884509" style="fill: #4285f4; stroke: #4285f4"/>
     <use xlink:href="#ma19930b3ad" x="187.231008" y="362.949294" style="fill: #4285f4; stroke: #4285f4"/>
     <use xlink:href="#ma19930b3ad" x="221.003909" y="323.911379" style="fill: #4285f4; stroke: #4285f4"/>
     <use xlink:href="#ma19930b3ad" x="237.038264" y="316.99224" style="fill: #4285f4; stroke: #4285f4"/>
     <use xlink:href="#ma19930b3ad" x="253.072619" y="302.424857" style="fill: #4285f4; stroke: #4285f4"/>
     <use xlink:href="#ma19930b3ad" x="266.173641" y="192.336689" style="fill: #4285f4; stroke: #4285f4"/>
     <use xlink:href="#ma19930b3ad" x="286.84552" y="224.828874" style="fill: #4285f4; stroke: #4285f4"/>
     <use xlink:href="#ma19930b3ad" x="302.879875" y="218.112564" style="fill: #4285f4; stroke: #4285f4"/>
     <use xlink:href="#ma19930b3ad" x="315.980897" y="197.174334" style="fill: #4285f4; stroke: #4285f4"/>
     <use xlink:href="#ma19930b3ad" x="327.057654" y="137.295203" style="fill: #4285f4; stroke: #4285f4"/>
     <use xlink:href="#ma19930b3ad" x="336.652776" y="200.73285" style="fill: #4285f4; stroke: #4285f4"/>
     <use xlink:href="#ma19930b3ad" x="345.116275" y="233.403643" style="fill: #4285f4; stroke: #4285f4"/>
     <use xlink:href="#ma19930b3ad" x="352.687132" y="170.261245" style="fill: #4285f4; stroke: #4285f4"/>
     <use xlink:href="#ma19930b3ad" x="359.535805" y="183.009084" style="fill: #4285f4; stroke: #4285f4"/>
     <use xlink:href="#ma19930b3ad" x="365.788154" y="214.425492" style="fill: #4285f4; stroke: #4285f4"/>
     <use xlink:href="#ma19930b3ad" x="376.86491" y="204.081376" style="fill: #4285f4; stroke: #4285f4"/>
     <use xlink:href="#ma19930b3ad" x="381.822509" y="201.243888" style="fill: #4285f4; stroke: #4285f4"/>
     <use xlink:href="#ma19930b3ad" x="386.460033" y="108.35228" style="fill: #4285f4; stroke: #4285f4"/>
     <use xlink:href="#ma19930b3ad" x="394.923531" y="149.700765" style="fill: #4285f4; stroke: #4285f4"/>
     <use xlink:href="#ma19930b3ad" x="398.808622" y="186.40459" style="fill: #4285f4; stroke: #4285f4"/>
     <use xlink:href="#ma19930b3ad" x="402.494388" y="167.726862" style="fill: #4285f4; stroke: #4285f4"/>
    </g>
   </g>
   <g id="patch_3">
    <path d="M 55.036528 378.862205 
L 55.036528 28.778182 
" style="fill: none; stroke: #000000; stroke-width: 0.8; stroke-linejoin: miter; stroke-linecap: square"/>
   </g>
   <g id="patch_4">
    <path d="M 419.04 378.862205 
L 419.04 28.778182 
" style="fill: none; stroke: #000000; stroke-width: 0.8; stroke-linejoin: miter; stroke-linecap: square"/>
   </g>
   <g id="patch_5">
    <path d="M 55.036528 378.862205 
L 419.04 378.862205 
" style="fill: none; stroke: #000000; stroke-width: 0.8; stroke-linejoin: miter; stroke-linecap: square"/>
   </g>
   <g id="patch_6">
    <path d="M 55.036528 28.778182 
L 419.04 28.778182 
" style="fill: none; stroke: #000000; stroke-width: 0.8; stroke-linejoin: miter; stroke-linecap: square"/>
   </g>
   <g id="text_9">
    <!-- Fitted A vs nominal viscosity — calibration curve -->
    <g transform="translate(98.682717 22.778182) scale(0.13 -0.13)">
     <defs>
      <path id="ArialMT-2014" d="M 0 1431 
L 0 1884 
L 6400 1884 
L 6400 1431 
L 0 1431 
z
" transform="scale(0.015625)"/>
      <path id="ArialMT-62" d="M 941 0 
L 419 0 
L 419 4581 
L 981 4581 
L 981 2947 
Q 1338 3394 1891 3394 
Q 2197 3394 2470 3270 
Q 2744 3147 2920 2923 
Q 3097 2700 3197 2384 
Q 3297 2069 3297 1709 
Q 3297 856 2875 390 
Q 2453 -75 1863 -75 
Q 1275 -75 941 416 
L 941 0 
z
M 934 1684 
Q 934 1088 1097 822 
Q 1363 388 1816 388 
Q 2184 388 2453 708 
Q 2722 1028 2722 1663 
Q 2722 2313 2464 2622 
Q 2206 2931 1841 2931 
Q 1472 2931 1203 2611 
Q 934 2291 934 1684 
z
" transform="scale(0.015625)"/>
      <path id="ArialMT-75" d="M 2597 0 
L 2597 488 
Q 2209 -75 1544 -75 
Q 1250 -75 995 37 
Q 741 150 617 320 
Q 494 491 444 738 
Q 409 903 409 1263 
L 409 3319 
L 972 3319 
L 972 1478 
Q 972 1038 1006 884 
Q 1059 663 1231 536 
Q 1403 409 1656 409 
Q 1909 409 2131 539 
Q 2353 669 2445 892 
Q 2538 1116 2538 1541 
L 2538 3319 
L 3100 3319 
L 3100 0 
L 2597 0 
z
" transform="scale(0.015625)"/>
     </defs>
     <use xlink:href="#ArialMT-46"/>
     <use xlink:href="#ArialMT-69" transform="translate(61.083984 0)"/>
     <use xlink:href="#ArialMT-74" transform="translate(83.300781 0)"/>
     <use xlink:href="#ArialMT-74" transform="translate(111.083984 0)"/>
     <use xlink:href="#ArialMT-65" transform="translate(138.867188 0)"/>
     <use xlink:href="#ArialMT-64" transform="translate(194.482422 0)"/>
     <use xlink:href="#ArialMT-20" transform="translate(250.097656 0)"/>
     <use xlink:href="#ArialMT-41" transform="translate(272.380859 0)"/>
     <use xlink:href="#ArialMT-20" transform="translate(333.580078 0)"/>
     <use xlink:href="#ArialMT-76" transform="translate(361.363281 0)"/>
     <use xlink:href="#ArialMT-73" transform="translate(411.363281 0)"/>
     <use xlink:href="#ArialMT-20" transform="translate(461.363281 0)"/>
     <use xlink:href="#ArialMT-6e" transform="translate(489.146484 0)"/>
     <use xlink:href="#ArialMT-6f" transform="translate(544.761719 0)"/>
     <use xlink:href="#ArialMT-6d" transform="translate(600.376953 0)"/>
     <use xlink:href="#ArialMT-69" transform="translate(683.677734 0)"/>
     <use xlink:href="#ArialMT-6e" transform="translate(705.894531 0)"/>
     <use xlink:href="#ArialMT-61" transform="translate(761.509766 0)"/>
     <use xlink:href="#ArialMT-6c" transform="translate(817.125 0)"/>
     <use xlink:href="#ArialMT-20" transform="translate(839.341797 0)"/>
     <use xlink:href="#ArialMT-76" transform="translate(867.125 0)"/>
     <use xlink:href="#ArialMT-69" transform="translate(917.125 0)"/>
     <use xlink:href="#ArialMT-73" transform="translate(939.341797 0)"/>
     <use xlink:href="#ArialMT-63" transform="translate(989.341797 0)"/>
     <use xlink:href="#ArialMT-6f" transform="translate(1039.341797 0)"/>
     <use xlink:href="#ArialMT-73" transform="translate(1094.957031 0)"/>
     <use xlink:href="#ArialMT-69" transform="translate(1144.957031 0)"/>
     <use xlink:href="#ArialMT-74" transform="translate(1167.173828 0)"/>
     <use xlink:href="#ArialMT-79" transform="translate(1194.957031 0)"/>
     <use xlink:href="#ArialMT-20" transform="translate(1244.957031 0)"/>
     <use xlink:href="#ArialMT-2014" transform="translate(1272.740234 0)"/>
     <use xlink:href="#ArialMT-20" transform="translate(1372.740234 0)"/>
     <use xlink:href="#ArialMT-63" transform="translate(1400.523438 0)"/>
     <use xlink:href="#ArialMT-61" transform="translate(1450.523438 0)"/>
     <use xlink:href="#ArialMT-6c" transform="translate(1506.138672 0)"/>
     <use xlink:href="#ArialMT-69" transform="translate(1528.355469 0)"/>
     <use xlink:href="#ArialMT-62" transform="translate(1550.572266 0)"/>
     <use xlink:href="#ArialMT-72" transform="translate(1606.1875 0)"/>
     <use xlink:href="#ArialMT-61" transform="translate(1639.488281 0)"/>
     <use xlink:href="#ArialMT-74" transform="translate(1695.103516 0)"/>
     <use xlink:href="#ArialMT-69" transform="translate(1722.886719 0)"/>
     <use xlink:href="#ArialMT-6f" transform="translate(1745.103516 0)"/>
     <use xlink:href="#ArialMT-6e" transform="translate(1800.71875 0)"/>
     <use xlink:href="#ArialMT-20" transform="translate(1856.333984 0)"/>
     <use xlink:href="#ArialMT-63" transform="translate(1884.117188 0)"/>
     <use xlink:href="#ArialMT-75" transform="translate(1934.117188 0)"/>
     <use xlink:href="#ArialMT-72" transform="translate(1989.732422 0)"/>
     <use xlink:href="#ArialMT-76" transform="translate(2023.033203 0)"/>
     <use xlink:href="#ArialMT-65" transform="translate(2073.033203 0)"/>
    </g>
   </g>
  </g>
 </g>
 <defs>
  <clipPath id="p17f4d8e9af">
   <rect x="55.036528" y="28.778182" width="364.003472" height="350.084023"/>
  </clipPath>
 </defs>
</svg>
