<?xml version="1.0" encoding="utf-8" standalone="no"?>
<!DOCTYPE svg PUBLIC "-//W3C//DTD SVG 1.1//EN"
  "http://www.w3.org/Graphics/SVG/1.1/DTD/svg11.dtd">
<svg xmlns:xlink="http://www.w3.org/1999/xlink" width="432pt" height="432pt" viewBox="0 0 432 432" xmlns="http://www.w3.org/2000/svg" version="1.1">
 <metadata>
  <rdf:RDF xmlns:dc="http://purl.org/dc/elements/1.1/" xmlns:cc="http://creativecommons.org/ns#" xmlns:rdf="http://www.w3.org/1999/02/22-rdf-syntax-ns#">
   <cc:Work>
    <dc:type rdf:resource="http://purl.org/dc/dcmitype/StillImage"/>
    <dc:date>2026-06-19T11:55:15.106334</dc:date>
    <dc:format>image/svg+xml</dc:format>
    <dc:creator>
     <cc:Agent>
      <dc:title>Matplotlib v3.10.0, https://matplotlib.org/</dc:title>
     </cc:Agent>
    </dc:creator>
   </cc:Work>
  </rdf:RDF>
 </metadata>
 <defs>
  <style type="text/css">*{stroke-linejoin: round; stroke-linecap: butt}</style>
 </defs>
 <g id="figure_1">
  <g id="patch_1">
   <path d="M 0 432 
L 432 432 
L 432 0 
L 0 0 
z
" style="fill: #ffffff"/>
  </g>
  <g id="axes_1">
   <g id="patch_2">
    <path d="M 62.588409 369.922149 
L 419.04 369.922149 
L 419.04 28.778182 
L 62.588409 28.778182 
z
" style="fill: #ffffff"/>
   </g>
   <g id="FillBetweenPolyCollection_1">
    <defs>
     <path id="m7322114829" d="M 78.790754 -236.205505 
L 78.790754 -197.632488 
L 93.520159 -197.632488 
L 108.249563 -197.632488 
L 122.978968 -197.632488 
L 137.708372 -197.632488 
L 152.437777 -197.632488 
L 167.167182 -197.632488 
L 181.896586 -197.632488 
L 196.625991 -197.632488 
L 211.355395 -197.632488 
L 226.0848 -197.632488 
L 240.814205 -197.632488 
L 255.543609 -197.632488 
L 270.273014 -197.632488 
L 285.002418 -197.632488 
L 299.731823 -197.632488 
L 314.461227 -197.632488 
L 329.190632 -197.632488 
L 343.920037 -197.632488 
L 358.649441 -197.632488 
L 373.378846 -197.632488 
L 388.10825 -197.632488 
L 402.837655 -197.632488 
L 402.837655 -236.205505 
L 402.837655 -236.205505 
L 388.10825 -236.205505 
L 373.378846 -236.205505 
L 358.649441 -236.205505 
L 343.920037 -236.205505 
L 329.190632 -236.205505 
L 314.461227 -236.205505 
L 299.731823 -236.205505 
L 285.002418 -236.205505 
L 270.273014 -236.205505 
L 255.543609 -236.205505 
L 240.814205 -236.205505 
L 226.0848 -236.205505 
L 211.355395 -236.205505 
L 196.625991 -236.205505 
L 181.896586 -236.205505 
L 167.167182 -236.205505 
L 152.437777 -236.205505 
L 137.708372 -236.205505 
L 122.978968 -236.205505 
L 108.249563 -236.205505 
L 93.520159 -236.205505 
L 78.790754 -236.205505 
z
" style="stroke: #db4437; stroke-opacity: 0.15"/>
    </defs>
    <g clip-path="url(#pf1dd063334)">
     <use xlink:href="#m7322114829" x="0" y="432" style="fill: #db4437; fill-opacity: 0.15; stroke: #db4437; stroke-opacity: 0.15"/>
    </g>
   </g>
   <g id="matplotlib.axis_1">
    <g id="xtick_1">
     <g id="line2d_1">
      <path d="M 78.790754 369.922149 
L 78.790754 28.778182 
" clip-path="url(#pf1dd063334)" style="fill: none; stroke: #b0b0b0; stroke-opacity: 0.3; stroke-width: 0.8; stroke-linecap: square"/>
     </g>
     <g id="line2d_2">
      <defs>
       <path id="m495df307f1" d="M 0 0 
L 0 3.5 
" style="stroke: #000000; stroke-width: 0.8"/>
      </defs>
      <g>
       <use xlink:href="#m495df307f1" x="78.790754" y="369.922149" style="stroke: #000000; stroke-width: 0.8"/>
      </g>
     </g>
     <g id="text_1">
      <!-- 1kcp -->
      <g transform="translate(56.661405 403.734312) rotate(-45) scale(0.12 -0.12)">
       <defs>
        <path id="DejaVuSans-31" d="M 794 531 
L 1825 531 
L 1825 4091 
L 703 3866 
L 703 4441 
L 1819 4666 
L 2450 4666 
L 2450 531 
L 3481 531 
L 3481 0 
L 794 0 
L 794 531 
z
" transform="scale(0.015625)"/>
        <path id="DejaVuSans-6b" d="M 581 4863 
L 1159 4863 
L 1159 1991 
L 2875 3500 
L 3609 3500 
L 1753 1863 
L 3688 0 
L 2938 0 
L 1159 1709 
L 1159 0 
L 581 0 
L 581 4863 
z
" transform="scale(0.015625)"/>
        <path id="DejaVuSans-63" d="M 3122 3366 
L 3122 2828 
Q 2878 2963 2633 3030 
Q 2388 3097 2138 3097 
Q 1578 3097 1268 2742 
Q 959 2388 959 1747 
Q 959 1106 1268 751 
Q 1578 397 2138 397 
Q 2388 397 2633 464 
Q 2878 531 3122 666 
L 3122 134 
Q 2881 22 2623 -34 
Q 2366 -91 2075 -91 
Q 1284 -91 818 406 
Q 353 903 353 1747 
Q 353 2603 823 3093 
Q 1294 3584 2113 3584 
Q 2378 3584 2631 3529 
Q 2884 3475 3122 3366 
z
" transform="scale(0.015625)"/>
        <path id="DejaVuSans-70" d="M 1159 525 
L 1159 -1331 
L 581 -1331 
L 581 3500 
L 1159 3500 
L 1159 2969 
Q 1341 3281 1617 3432 
Q 1894 3584 2278 3584 
Q 2916 3584 3314 3078 
Q 3713 2572 3713 1747 
Q 3713 922 3314 415 
Q 2916 -91 2278 -91 
Q 1894 -91 1617 61 
Q 1341 213 1159 525 
z
M 3116 1747 
Q 3116 2381 2855 2742 
Q 2594 3103 2138 3103 
Q 1681 3103 1420 2742 
Q 1159 2381 1159 1747 
Q 1159 1113 1420 752 
Q 1681 391 2138 391 
Q 2594 391 2855 752 
Q 3116 1113 3116 1747 
z
" transform="scale(0.015625)"/>
       </defs>
       <use xlink:href="#DejaVuSans-31"/>
       <use xlink:href="#DejaVuSans-6b" transform="translate(63.623047 0)"/>
       <use xlink:href="#DejaVuSans-63" transform="translate(121.533203 0)"/>
       <use xlink:href="#DejaVuSans-70" transform="translate(176.513672 0)"/>
      </g>
     </g>
    </g>
    <g id="xtick_2">
     <g id="line2d_3">
      <path d="M 93.520159 369.922149 
L 93.520159 28.778182 
" clip-path="url(#pf1dd063334)" style="fill: none; stroke: #b0b0b0; stroke-opacity: 0.3; stroke-width: 0.8; stroke-linecap: square"/>
     </g>
     <g id="line2d_4">
      <g>
       <use xlink:href="#m495df307f1" x="93.520159" y="369.922149" style="stroke: #000000; stroke-width: 0.8"/>
      </g>
     </g>
     <g id="text_2">
      <!-- 2kcp -->
      <g transform="translate(71.39081 403.734312) rotate(-45) scale(0.12 -0.12)">
       <defs>
        <path id="DejaVuSans-32" d="M 1228 531 
L 3431 531 
L 3431 0 
L 469 0 
L 469 531 
Q 828 903 1448 1529 
Q 2069 2156 2228 2338 
Q 2531 2678 2651 2914 
Q 2772 3150 2772 3378 
Q 2772 3750 2511 3984 
Q 2250 4219 1831 4219 
Q 1534 4219 1204 4116 
Q 875 4013 500 3803 
L 500 4441 
Q 881 4594 1212 4672 
Q 1544 4750 1819 4750 
Q 2544 4750 2975 4387 
Q 3406 4025 3406 3419 
Q 3406 3131 3298 2873 
Q 3191 2616 2906 2266 
Q 2828 2175 2409 1742 
Q 1991 1309 1228 531 
z
" transform="scale(0.015625)"/>
       </defs>
       <use xlink:href="#DejaVuSans-32"/>
       <use xlink:href="#DejaVuSans-6b" transform="translate(63.623047 0)"/>
       <use xlink:href="#DejaVuSans-63" transform="translate(121.533203 0)"/>
       <use xlink:href="#DejaVuSans-70" transform="translate(176.513672 0)"/>
      </g>
     </g>
    </g>
    <g id="xtick_3">
     <g id="line2d_5">
      <path d="M 108.249563 369.922149 
L 108.249563 28.778182 
" clip-path="url(#pf1dd063334)" style="fill: none; stroke: #b0b0b0; stroke-opacity: 0.3; stroke-width: 0.8; stroke-linecap: square"/>
     </g>
     <g id="line2d_6">
      <g>
       <use xlink:href="#m495df307f1" x="108.249563" y="369.922149" style="stroke: #000000; stroke-width: 0.8"/>
      </g>
     </g>
     <g id="text_3">
      <!-- 4kcp -->
      <g transform="translate(86.120215 403.734312) rotate(-45) scale(0.12 -0.12)">
       <defs>
        <path id="DejaVuSans-34" d="M 2419 4116 
L 825 1625 
L 2419 1625 
L 2419 4116 
z
M 2253 4666 
L 3047 4666 
L 3047 1625 
L 3713 1625 
L 3713 1100 
L 3047 1100 
L 3047 0 
L 2419 0 
L 2419 1100 
L 313 1100 
L 313 1709 
L 2253 4666 
z
" transform="scale(0.015625)"/>
       </defs>
       <use xlink:href="#DejaVuSans-34"/>
       <use xlink:href="#DejaVuSans-6b" transform="translate(63.623047 0)"/>
       <use xlink:href="#DejaVuSans-63" transform="translate(121.533203 0)"/>
       <use xlink:href="#DejaVuSans-70" transform="translate(176.513672 0)"/>
      </g>
     </g>
    </g>
    <g id="xtick_4">
     <g id="line2d_7">
      <path d="M 122.978968 369.922149 
L 122.978968 28.778182 
" clip-path="url(#pf1dd063334)" style="fill: none; stroke: #b0b0b0; stroke-opacity: 0.3; stroke-width: 0.8; stroke-linecap: square"/>
     </g>
     <g id="line2d_8">
      <g>
       <use xlink:href="#m495df307f1" x="122.978968" y="369.922149" style="stroke: #000000; stroke-width: 0.8"/>
      </g>
     </g>
     <g id="text_4">
      <!-- 5kcp -->
      <g transform="translate(100.849619 403.734312) rotate(-45) scale(0.12 -0.12)">
       <defs>
        <path id="DejaVuSans-35" d="M 691 4666 
L 3169 4666 
L 3169 4134 
L 1269 4134 
L 1269 2991 
Q 1406 3038 1543 3061 
Q 1681 3084 1819 3084 
Q 2600 3084 3056 2656 
Q 3513 2228 3513 1497 
Q 3513 744 3044 326 
Q 2575 -91 1722 -91 
Q 1428 -91 1123 -41 
Q 819 9 494 109 
L 494 744 
Q 775 591 1075 516 
Q 1375 441 1709 441 
Q 2250 441 2565 725 
Q 2881 1009 2881 1497 
Q 2881 1984 2565 2268 
Q 2250 2553 1709 2553 
Q 1456 2553 1204 2497 
Q 953 2441 691 2322 
L 691 4666 
z
" transform="scale(0.015625)"/>
       </defs>
       <use xlink:href="#DejaVuSans-35"/>
       <use xlink:href="#DejaVuSans-6b" transform="translate(63.623047 0)"/>
       <use xlink:href="#DejaVuSans-63" transform="translate(121.533203 0)"/>
       <use xlink:href="#DejaVuSans-70" transform="translate(176.513672 0)"/>
      </g>
     </g>
    </g>
    <g id="xtick_5">
     <g id="line2d_9">
      <path d="M 137.708372 369.922149 
L 137.708372 28.778182 
" clip-path="url(#pf1dd063334)" style="fill: none; stroke: #b0b0b0; stroke-opacity: 0.3; stroke-width: 0.8; stroke-linecap: square"/>
     </g>
     <g id="line2d_10">
      <g>
       <use xlink:href="#m495df307f1" x="137.708372" y="369.922149" style="stroke: #000000; stroke-width: 0.8"/>
      </g>
     </g>
     <g id="text_5">
      <!-- 8kcp -->
      <g transform="translate(115.579024 403.734312) rotate(-45) scale(0.12 -0.12)">
       <defs>
        <path id="DejaVuSans-38" d="M 2034 2216 
Q 1584 2216 1326 1975 
Q 1069 1734 1069 1313 
Q 1069 891 1326 650 
Q 1584 409 2034 409 
Q 2484 409 2743 651 
Q 3003 894 3003 1313 
Q 3003 1734 2745 1975 
Q 2488 2216 2034 2216 
z
M 1403 2484 
Q 997 2584 770 2862 
Q 544 3141 544 3541 
Q 544 4100 942 4425 
Q 1341 4750 2034 4750 
Q 2731 4750 3128 4425 
Q 3525 4100 3525 3541 
Q 3525 3141 3298 2862 
Q 3072 2584 2669 2484 
Q 3125 2378 3379 2068 
Q 3634 1759 3634 1313 
Q 3634 634 3220 271 
Q 2806 -91 2034 -91 
Q 1263 -91 848 271 
Q 434 634 434 1313 
Q 434 1759 690 2068 
Q 947 2378 1403 2484 
z
M 1172 3481 
Q 1172 3119 1398 2916 
Q 1625 2713 2034 2713 
Q 2441 2713 2670 2916 
Q 2900 3119 2900 3481 
Q 2900 3844 2670 4047 
Q 2441 4250 2034 4250 
Q 1625 4250 1398 4047 
Q 1172 3844 1172 3481 
z
" transform="scale(0.015625)"/>
       </defs>
       <use xlink:href="#DejaVuSans-38"/>
       <use xlink:href="#DejaVuSans-6b" transform="translate(63.623047 0)"/>
       <use xlink:href="#DejaVuSans-63" transform="translate(121.533203 0)"/>
       <use xlink:href="#DejaVuSans-70" transform="translate(176.513672 0)"/>
      </g>
     </g>
    </g>
    <g id="xtick_6">
     <g id="line2d_11">
      <path d="M 152.437777 369.922149 
L 152.437777 28.778182 
" clip-path="url(#pf1dd063334)" style="fill: none; stroke: #b0b0b0; stroke-opacity: 0.3; stroke-width: 0.8; stroke-linecap: square"/>
     </g>
     <g id="line2d_12">
      <g>
       <use xlink:href="#m495df307f1" x="152.437777" y="369.922149" style="stroke: #000000; stroke-width: 0.8"/>
      </g>
     </g>
     <g id="text_6">
      <!-- 10kcp -->
      <g transform="translate(124.909668 409.133072) rotate(-45) scale(0.12 -0.12)">
       <defs>
        <path id="DejaVuSans-30" d="M 2034 4250 
Q 1547 4250 1301 3770 
Q 1056 3291 1056 2328 
Q 1056 1369 1301 889 
Q 1547 409 2034 409 
Q 2525 409 2770 889 
Q 3016 1369 3016 2328 
Q 3016 3291 2770 3770 
Q 2525 4250 2034 4250 
z
M 2034 4750 
Q 2819 4750 3233 4129 
Q 3647 3509 3647 2328 
Q 3647 1150 3233 529 
Q 2819 -91 2034 -91 
Q 1250 -91 836 529 
Q 422 1150 422 2328 
Q 422 3509 836 4129 
Q 1250 4750 2034 4750 
z
" transform="scale(0.015625)"/>
       </defs>
       <use xlink:href="#DejaVuSans-31"/>
       <use xlink:href="#DejaVuSans-30" transform="translate(63.623047 0)"/>
       <use xlink:href="#DejaVuSans-6b" transform="translate(127.246094 0)"/>
       <use xlink:href="#DejaVuSans-63" transform="translate(185.15625 0)"/>
       <use xlink:href="#DejaVuSans-70" transform="translate(240.136719 0)"/>
      </g>
     </g>
    </g>
    <g id="xtick_7">
     <g id="line2d_13">
      <path d="M 167.167182 369.922149 
L 167.167182 28.778182 
" clip-path="url(#pf1dd063334)" style="fill: none; stroke: #b0b0b0; stroke-opacity: 0.3; stroke-width: 0.8; stroke-linecap: square"/>
     </g>
     <g id="line2d_14">
      <g>
       <use xlink:href="#m495df307f1" x="167.167182" y="369.922149" style="stroke: #000000; stroke-width: 0.8"/>
      </g>
     </g>
     <g id="text_7">
      <!-- 12.5kcp -->
      <g transform="translate(131.543584 417.228561) rotate(-45) scale(0.12 -0.12)">
       <defs>
        <path id="DejaVuSans-2e" d="M 684 794 
L 1344 794 
L 1344 0 
L 684 0 
L 684 794 
z
" transform="scale(0.015625)"/>
       </defs>
       <use xlink:href="#DejaVuSans-31"/>
       <use xlink:href="#DejaVuSans-32" transform="translate(63.623047 0)"/>
       <use xlink:href="#DejaVuSans-2e" transform="translate(127.246094 0)"/>
       <use xlink:href="#DejaVuSans-35" transform="translate(159.033203 0)"/>
       <use xlink:href="#DejaVuSans-6b" transform="translate(222.65625 0)"/>
       <use xlink:href="#DejaVuSans-63" transform="translate(280.566406 0)"/>
       <use xlink:href="#DejaVuSans-70" transform="translate(335.546875 0)"/>
      </g>
     </g>
    </g>
    <g id="xtick_8">
     <g id="line2d_15">
      <path d="M 181.896586 369.922149 
L 181.896586 28.778182 
" clip-path="url(#pf1dd063334)" style="fill: none; stroke: #b0b0b0; stroke-opacity: 0.3; stroke-width: 0.8; stroke-linecap: square"/>
     </g>
     <g id="line2d_16">
      <g>
       <use xlink:href="#m495df307f1" x="181.896586" y="369.922149" style="stroke: #000000; stroke-width: 0.8"/>
      </g>
     </g>
     <g id="text_8">
      <!-- 15kcp -->
      <g transform="translate(154.368477 409.133072) rotate(-45) scale(0.12 -0.12)">
       <use xlink:href="#DejaVuSans-31"/>
       <use xlink:href="#DejaVuSans-35" transform="translate(63.623047 0)"/>
       <use xlink:href="#DejaVuSans-6b" transform="translate(127.246094 0)"/>
       <use xlink:href="#DejaVuSans-63" transform="translate(185.15625 0)"/>
       <use xlink:href="#DejaVuSans-70" transform="translate(240.136719 0)"/>
      </g>
     </g>
    </g>
    <g id="xtick_9">
     <g id="line2d_17">
      <path d="M 196.625991 369.922149 
L 196.625991 28.778182 
" clip-path="url(#pf1dd063334)" style="fill: none; stroke: #b0b0b0; stroke-opacity: 0.3; stroke-width: 0.8; stroke-linecap: square"/>
     </g>
     <g id="line2d_18">
      <g>
       <use xlink:href="#m495df307f1" x="196.625991" y="369.922149" style="stroke: #000000; stroke-width: 0.8"/>
      </g>
     </g>
     <g id="text_9">
      <!-- 20kcp -->
      <g transform="translate(169.097882 409.133072) rotate(-45) scale(0.12 -0.12)">
       <use xlink:href="#DejaVuSans-32"/>
       <use xlink:href="#DejaVuSans-30" transform="translate(63.623047 0)"/>
       <use xlink:href="#DejaVuSans-6b" transform="translate(127.246094 0)"/>
       <use xlink:href="#DejaVuSans-63" transform="translate(185.15625 0)"/>
       <use xlink:href="#DejaVuSans-70" transform="translate(240.136719 0)"/>
      </g>
     </g>
    </g>
    <g id="xtick_10">
     <g id="line2d_19">
      <path d="M 211.355395 369.922149 
L 211.355395 28.778182 
" clip-path="url(#pf1dd063334)" style="fill: none; stroke: #b0b0b0; stroke-opacity: 0.3; stroke-width: 0.8; stroke-linecap: square"/>
     </g>
     <g id="line2d_20">
      <g>
       <use xlink:href="#m495df307f1" x="211.355395" y="369.922149" style="stroke: #000000; stroke-width: 0.8"/>
      </g>
     </g>
     <g id="text_10">
      <!-- 25kcp -->
      <g transform="translate(183.827286 409.133072) rotate(-45) scale(0.12 -0.12)">
       <use xlink:href="#DejaVuSans-32"/>
       <use xlink:href="#DejaVuSans-35" transform="translate(63.623047 0)"/>
       <use xlink:href="#DejaVuSans-6b" transform="translate(127.246094 0)"/>
       <use xlink:href="#DejaVuSans-63" transform="translate(185.15625 0)"/>
       <use xlink:href="#DejaVuSans-70" transform="translate(240.136719 0)"/>
      </g>
     </g>
    </g>
    <g id="xtick_11">
     <g id="line2d_21">
      <path d="M 226.0848 369.922149 
L 226.0848 28.778182 
" clip-path="url(#pf1dd063334)" style="fill: none; stroke: #b0b0b0; stroke-opacity: 0.3; stroke-width: 0.8; stroke-linecap: square"/>
     </g>
     <g id="line2d_22">
      <g>
       <use xlink:href="#m495df307f1" x="226.0848" y="369.922149" style="stroke: #000000; stroke-width: 0.8"/>
      </g>
     </g>
     <g id="text_11">
      <!-- 30kcp -->
      <g transform="translate(198.556691 409.133072) rotate(-45) scale(0.12 -0.12)">
       <defs>
        <path id="DejaVuSans-33" d="M 2597 2516 
Q 3050 2419 3304 2112 
Q 3559 1806 3559 1356 
Q 3559 666 3084 287 
Q 2609 -91 1734 -91 
Q 1441 -91 1130 -33 
Q 819 25 488 141 
L 488 750 
Q 750 597 1062 519 
Q 1375 441 1716 441 
Q 2309 441 2620 675 
Q 2931 909 2931 1356 
Q 2931 1769 2642 2001 
Q 2353 2234 1838 2234 
L 1294 2234 
L 1294 2753 
L 1863 2753 
Q 2328 2753 2575 2939 
Q 2822 3125 2822 3475 
Q 2822 3834 2567 4026 
Q 2313 4219 1838 4219 
Q 1578 4219 1281 4162 
Q 984 4106 628 3988 
L 628 4550 
Q 988 4650 1302 4700 
Q 1616 4750 1894 4750 
Q 2613 4750 3031 4423 
Q 3450 4097 3450 3541 
Q 3450 3153 3228 2886 
Q 3006 2619 2597 2516 
z
" transform="scale(0.015625)"/>
       </defs>
       <use xlink:href="#DejaVuSans-33"/>
       <use xlink:href="#DejaVuSans-30" transform="translate(63.623047 0)"/>
       <use xlink:href="#DejaVuSans-6b" transform="translate(127.246094 0)"/>
       <use xlink:href="#DejaVuSans-63" transform="translate(185.15625 0)"/>
       <use xlink:href="#DejaVuSans-70" transform="translate(240.136719 0)"/>
      </g>
     </g>
    </g>
    <g id="xtick_12">
     <g id="line2d_23">
      <path d="M 240.814205 369.922149 
L 240.814205 28.778182 
" clip-path="url(#pf1dd063334)" style="fill: none; stroke: #b0b0b0; stroke-opacity: 0.3; stroke-width: 0.8; stroke-linecap: square"/>
     </g>
     <g id="line2d_24">
      <g>
       <use xlink:href="#m495df307f1" x="240.814205" y="369.922149" style="stroke: #000000; stroke-width: 0.8"/>
      </g>
     </g>
     <g id="text_12">
      <!-- 35kcp -->
      <g transform="translate(213.286096 409.133072) rotate(-45) scale(0.12 -0.12)">
       <use xlink:href="#DejaVuSans-33"/>
       <use xlink:href="#DejaVuSans-35" transform="translate(63.623047 0)"/>
       <use xlink:href="#DejaVuSans-6b" transform="translate(127.246094 0)"/>
       <use xlink:href="#DejaVuSans-63" transform="translate(185.15625 0)"/>
       <use xlink:href="#DejaVuSans-70" transform="translate(240.136719 0)"/>
      </g>
     </g>
    </g>
    <g id="xtick_13">
     <g id="line2d_25">
      <path d="M 255.543609 369.922149 
L 255.543609 28.778182 
" clip-path="url(#pf1dd063334)" style="fill: none; stroke: #b0b0b0; stroke-opacity: 0.3; stroke-width: 0.8; stroke-linecap: square"/>
     </g>
     <g id="line2d_26">
      <g>
       <use xlink:href="#m495df307f1" x="255.543609" y="369.922149" style="stroke: #000000; stroke-width: 0.8"/>
      </g>
     </g>
     <g id="text_13">
      <!-- 40kcp -->
      <g transform="translate(228.0155 409.133072) rotate(-45) scale(0.12 -0.12)">
       <use xlink:href="#DejaVuSans-34"/>
       <use xlink:href="#DejaVuSans-30" transform="translate(63.623047 0)"/>
       <use xlink:href="#DejaVuSans-6b" transform="translate(127.246094 0)"/>
       <use xlink:href="#DejaVuSans-63" transform="translate(185.15625 0)"/>
       <use xlink:href="#DejaVuSans-70" transform="translate(240.136719 0)"/>
      </g>
     </g>
    </g>
    <g id="xtick_14">
     <g id="line2d_27">
      <path d="M 270.273014 369.922149 
L 270.273014 28.778182 
" clip-path="url(#pf1dd063334)" style="fill: none; stroke: #b0b0b0; stroke-opacity: 0.3; stroke-width: 0.8; stroke-linecap: square"/>
     </g>
     <g id="line2d_28">
      <g>
       <use xlink:href="#m495df307f1" x="270.273014" y="369.922149" style="stroke: #000000; stroke-width: 0.8"/>
      </g>
     </g>
     <g id="text_14">
      <!-- 45kcp -->
      <g transform="translate(242.744905 409.133072) rotate(-45) scale(0.12 -0.12)">
       <use xlink:href="#DejaVuSans-34"/>
       <use xlink:href="#DejaVuSans-35" transform="translate(63.623047 0)"/>
       <use xlink:href="#DejaVuSans-6b" transform="translate(127.246094 0)"/>
       <use xlink:href="#DejaVuSans-63" transform="translate(185.15625 0)"/>
       <use xlink:href="#DejaVuSans-70" transform="translate(240.136719 0)"/>
      </g>
     </g>
    </g>
    <g id="xtick_15">
     <g id="line2d_29">
      <path d="M 285.002418 369.922149 
L 285.002418 28.778182 
" clip-path="url(#pf1dd063334)" style="fill: none; stroke: #b0b0b0; stroke-opacity: 0.3; stroke-width: 0.8; stroke-linecap: square"/>
     </g>
     <g id="line2d_30">
      <g>
       <use xlink:href="#m495df307f1" x="285.002418" y="369.922149" style="stroke: #000000; stroke-width: 0.8"/>
      </g>
     </g>
     <g id="text_15">
      <!-- 50kcp -->
      <g transform="translate(257.474309 409.133072) rotate(-45) scale(0.12 -0.12)">
       <use xlink:href="#DejaVuSans-35"/>
       <use xlink:href="#DejaVuSans-30" transform="translate(63.623047 0)"/>
       <use xlink:href="#DejaVuSans-6b" transform="translate(127.246094 0)"/>
       <use xlink:href="#DejaVuSans-63" transform="translate(185.15625 0)"/>
       <use xlink:href="#DejaVuSans-70" transform="translate(240.136719 0)"/>
      </g>
     </g>
    </g>
    <g id="xtick_16">
     <g id="line2d_31">
      <path d="M 299.731823 369.922149 
L 299.731823 28.778182 
" clip-path="url(#pf1dd063334)" style="fill: none; stroke: #b0b0b0; stroke-opacity: 0.3; stroke-width: 0.8; stroke-linecap: square"/>
     </g>
     <g id="line2d_32">
      <g>
       <use xlink:href="#m495df307f1" x="299.731823" y="369.922149" style="stroke: #000000; stroke-width: 0.8"/>
      </g>
     </g>
     <g id="text_16">
      <!-- 55kcp -->
      <g transform="translate(272.203714 409.133072) rotate(-45) scale(0.12 -0.12)">
       <use xlink:href="#DejaVuSans-35"/>
       <use xlink:href="#DejaVuSans-35" transform="translate(63.623047 0)"/>
       <use xlink:href="#DejaVuSans-6b" transform="translate(127.246094 0)"/>
       <use xlink:href="#DejaVuSans-63" transform="translate(185.15625 0)"/>
       <use xlink:href="#DejaVuSans-70" transform="translate(240.136719 0)"/>
      </g>
     </g>
    </g>
    <g id="xtick_17">
     <g id="line2d_33">
      <path d="M 314.461227 369.922149 
L 314.461227 28.778182 
" clip-path="url(#pf1dd063334)" style="fill: none; stroke: #b0b0b0; stroke-opacity: 0.3; stroke-width: 0.8; stroke-linecap: square"/>
     </g>
     <g id="line2d_34">
      <g>
       <use xlink:href="#m495df307f1" x="314.461227" y="369.922149" style="stroke: #000000; stroke-width: 0.8"/>
      </g>
     </g>
     <g id="text_17">
      <!-- 60kcp -->
      <g transform="translate(286.933119 409.133072) rotate(-45) scale(0.12 -0.12)">
       <defs>
        <path id="DejaVuSans-36" d="M 2113 2584 
Q 1688 2584 1439 2293 
Q 1191 2003 1191 1497 
Q 1191 994 1439 701 
Q 1688 409 2113 409 
Q 2538 409 2786 701 
Q 3034 994 3034 1497 
Q 3034 2003 2786 2293 
Q 2538 2584 2113 2584 
z
M 3366 4563 
L 3366 3988 
Q 3128 4100 2886 4159 
Q 2644 4219 2406 4219 
Q 1781 4219 1451 3797 
Q 1122 3375 1075 2522 
Q 1259 2794 1537 2939 
Q 1816 3084 2150 3084 
Q 2853 3084 3261 2657 
Q 3669 2231 3669 1497 
Q 3669 778 3244 343 
Q 2819 -91 2113 -91 
Q 1303 -91 875 529 
Q 447 1150 447 2328 
Q 447 3434 972 4092 
Q 1497 4750 2381 4750 
Q 2619 4750 2861 4703 
Q 3103 4656 3366 4563 
z
" transform="scale(0.015625)"/>
       </defs>
       <use xlink:href="#DejaVuSans-36"/>
       <use xlink:href="#DejaVuSans-30" transform="translate(63.623047 0)"/>
       <use xlink:href="#DejaVuSans-6b" transform="translate(127.246094 0)"/>
       <use xlink:href="#DejaVuSans-63" transform="translate(185.15625 0)"/>
       <use xlink:href="#DejaVuSans-70" transform="translate(240.136719 0)"/>
      </g>
     </g>
    </g>
    <g id="xtick_18">
     <g id="line2d_35">
      <path d="M 329.190632 369.922149 
L 329.190632 28.778182 
" clip-path="url(#pf1dd063334)" style="fill: none; stroke: #b0b0b0; stroke-opacity: 0.3; stroke-width: 0.8; stroke-linecap: square"/>
     </g>
     <g id="line2d_36">
      <g>
       <use xlink:href="#m495df307f1" x="329.190632" y="369.922149" style="stroke: #000000; stroke-width: 0.8"/>
      </g>
     </g>
     <g id="text_18">
      <!-- 70kcp -->
      <g transform="translate(301.662523 409.133072) rotate(-45) scale(0.12 -0.12)">
       <defs>
        <path id="DejaVuSans-37" d="M 525 4666 
L 3525 4666 
L 3525 4397 
L 1831 0 
L 1172 0 
L 2766 4134 
L 525 4134 
L 525 4666 
z
" transform="scale(0.015625)"/>
       </defs>
       <use xlink:href="#DejaVuSans-37"/>
       <use xlink:href="#DejaVuSans-30" transform="translate(63.623047 0)"/>
       <use xlink:href="#DejaVuSans-6b" transform="translate(127.246094 0)"/>
       <use xlink:href="#DejaVuSans-63" transform="translate(185.15625 0)"/>
       <use xlink:href="#DejaVuSans-70" transform="translate(240.136719 0)"/>
      </g>
     </g>
    </g>
    <g id="xtick_19">
     <g id="line2d_37">
      <path d="M 343.920037 369.922149 
L 343.920037 28.778182 
" clip-path="url(#pf1dd063334)" style="fill: none; stroke: #b0b0b0; stroke-opacity: 0.3; stroke-width: 0.8; stroke-linecap: square"/>
     </g>
     <g id="line2d_38">
      <g>
       <use xlink:href="#m495df307f1" x="343.920037" y="369.922149" style="stroke: #000000; stroke-width: 0.8"/>
      </g>
     </g>
     <g id="text_19">
      <!-- 75kcp -->
      <g transform="translate(316.391928 409.133072) rotate(-45) scale(0.12 -0.12)">
       <use xlink:href="#DejaVuSans-37"/>
       <use xlink:href="#DejaVuSans-35" transform="translate(63.623047 0)"/>
       <use xlink:href="#DejaVuSans-6b" transform="translate(127.246094 0)"/>
       <use xlink:href="#DejaVuSans-63" transform="translate(185.15625 0)"/>
       <use xlink:href="#DejaVuSans-70" transform="translate(240.136719 0)"/>
      </g>
     </g>
    </g>
    <g id="xtick_20">
     <g id="line2d_39">
      <path d="M 358.649441 369.922149 
L 358.649441 28.778182 
" clip-path="url(#pf1dd063334)" style="fill: none; stroke: #b0b0b0; stroke-opacity: 0.3; stroke-width: 0.8; stroke-linecap: square"/>
     </g>
     <g id="line2d_40">
      <g>
       <use xlink:href="#m495df307f1" x="358.649441" y="369.922149" style="stroke: #000000; stroke-width: 0.8"/>
      </g>
     </g>
     <g id="text_20">
      <!-- 80kcp -->
      <g transform="translate(331.121332 409.133072) rotate(-45) scale(0.12 -0.12)">
       <use xlink:href="#DejaVuSans-38"/>
       <use xlink:href="#DejaVuSans-30" transform="translate(63.623047 0)"/>
       <use xlink:href="#DejaVuSans-6b" transform="translate(127.246094 0)"/>
       <use xlink:href="#DejaVuSans-63" transform="translate(185.15625 0)"/>
       <use xlink:href="#DejaVuSans-70" transform="translate(240.136719 0)"/>
      </g>
     </g>
    </g>
    <g id="xtick_21">
     <g id="line2d_41">
      <path d="M 373.378846 369.922149 
L 373.378846 28.778182 
" clip-path="url(#pf1dd063334)" style="fill: none; stroke: #b0b0b0; stroke-opacity: 0.3; stroke-width: 0.8; stroke-linecap: square"/>
     </g>
     <g id="line2d_42">
      <g>
       <use xlink:href="#m495df307f1" x="373.378846" y="369.922149" style="stroke: #000000; stroke-width: 0.8"/>
      </g>
     </g>
     <g id="text_21">
      <!-- 90kcp -->
      <g transform="translate(345.850737 409.133072) rotate(-45) scale(0.12 -0.12)">
       <defs>
        <path id="DejaVuSans-39" d="M 703 97 
L 703 672 
Q 941 559 1184 500 
Q 1428 441 1663 441 
Q 2288 441 2617 861 
Q 2947 1281 2994 2138 
Q 2813 1869 2534 1725 
Q 2256 1581 1919 1581 
Q 1219 1581 811 2004 
Q 403 2428 403 3163 
Q 403 3881 828 4315 
Q 1253 4750 1959 4750 
Q 2769 4750 3195 4129 
Q 3622 3509 3622 2328 
Q 3622 1225 3098 567 
Q 2575 -91 1691 -91 
Q 1453 -91 1209 -44 
Q 966 3 703 97 
z
M 1959 2075 
Q 2384 2075 2632 2365 
Q 2881 2656 2881 3163 
Q 2881 3666 2632 3958 
Q 2384 4250 1959 4250 
Q 1534 4250 1286 3958 
Q 1038 3666 1038 3163 
Q 1038 2656 1286 2365 
Q 1534 2075 1959 2075 
z
" transform="scale(0.015625)"/>
       </defs>
       <use xlink:href="#DejaVuSans-39"/>
       <use xlink:href="#DejaVuSans-30" transform="translate(63.623047 0)"/>
       <use xlink:href="#DejaVuSans-6b" transform="translate(127.246094 0)"/>
       <use xlink:href="#DejaVuSans-63" transform="translate(185.15625 0)"/>
       <use xlink:href="#DejaVuSans-70" transform="translate(240.136719 0)"/>
      </g>
     </g>
    </g>
    <g id="xtick_22">
     <g id="line2d_43">
      <path d="M 388.10825 369.922149 
L 388.10825 28.778182 
" clip-path="url(#pf1dd063334)" style="fill: none; stroke: #b0b0b0; stroke-opacity: 0.3; stroke-width: 0.8; stroke-linecap: square"/>
     </g>
     <g id="line2d_44">
      <g>
       <use xlink:href="#m495df307f1" x="388.10825" y="369.922149" style="stroke: #000000; stroke-width: 0.8"/>
      </g>
     </g>
     <g id="text_22">
      <!-- 95kcp -->
      <g transform="translate(360.580141 409.133072) rotate(-45) scale(0.12 -0.12)">
       <use xlink:href="#DejaVuSans-39"/>
       <use xlink:href="#DejaVuSans-35" transform="translate(63.623047 0)"/>
       <use xlink:href="#DejaVuSans-6b" transform="translate(127.246094 0)"/>
       <use xlink:href="#DejaVuSans-63" transform="translate(185.15625 0)"/>
       <use xlink:href="#DejaVuSans-70" transform="translate(240.136719 0)"/>
      </g>
     </g>
    </g>
    <g id="xtick_23">
     <g id="line2d_45">
      <path d="M 402.837655 369.922149 
L 402.837655 28.778182 
" clip-path="url(#pf1dd063334)" style="fill: none; stroke: #b0b0b0; stroke-opacity: 0.3; stroke-width: 0.8; stroke-linecap: square"/>
     </g>
     <g id="line2d_46">
      <g>
       <use xlink:href="#m495df307f1" x="402.837655" y="369.922149" style="stroke: #000000; stroke-width: 0.8"/>
      </g>
     </g>
     <g id="text_23">
      <!-- 100kcp -->
      <g transform="translate(369.910786 414.531833) rotate(-45) scale(0.12 -0.12)">
       <use xlink:href="#DejaVuSans-31"/>
       <use xlink:href="#DejaVuSans-30" transform="translate(63.623047 0)"/>
       <use xlink:href="#DejaVuSans-30" transform="translate(127.246094 0)"/>
       <use xlink:href="#DejaVuSans-6b" transform="translate(190.869141 0)"/>
       <use xlink:href="#DejaVuSans-63" transform="translate(248.779297 0)"/>
       <use xlink:href="#DejaVuSans-70" transform="translate(303.759766 0)"/>
      </g>
     </g>
    </g>
   </g>
   <g id="matplotlib.axis_2">
    <g id="ytick_1">
     <g id="line2d_47">
      <path d="M 62.588409 335.416596 
L 419.04 335.416596 
" clip-path="url(#pf1dd063334)" style="fill: none; stroke: #b0b0b0; stroke-opacity: 0.3; stroke-width: 0.8; stroke-linecap: square"/>
     </g>
     <g id="line2d_48">
      <defs>
       <path id="m16bf935046" d="M 0 0 
L -3.5 0 
" style="stroke: #000000; stroke-width: 0.8"/>
      </defs>
      <g>
       <use xlink:href="#m16bf935046" x="62.588409" y="335.416596" style="stroke: #000000; stroke-width: 0.8"/>
      </g>
     </g>
     <g id="text_24">
      <!-- 0.36 -->
      <g transform="translate(28.869659 339.975659) scale(0.12 -0.12)">
       <use xlink:href="#DejaVuSans-30"/>
       <use xlink:href="#DejaVuSans-2e" transform="translate(63.623047 0)"/>
       <use xlink:href="#DejaVuSans-33" transform="translate(95.410156 0)"/>
       <use xlink:href="#DejaVuSans-36" transform="translate(159.033203 0)"/>
      </g>
     </g>
    </g>
    <g id="ytick_2">
     <g id="line2d_49">
      <path d="M 62.588409 279.537158 
L 419.04 279.537158 
" clip-path="url(#pf1dd063334)" style="fill: none; stroke: #b0b0b0; stroke-opacity: 0.3; stroke-width: 0.8; stroke-linecap: square"/>
     </g>
     <g id="line2d_50">
      <g>
       <use xlink:href="#m16bf935046" x="62.588409" y="279.537158" style="stroke: #000000; stroke-width: 0.8"/>
      </g>
     </g>
     <g id="text_25">
      <!-- 0.38 -->
      <g transform="translate(28.869659 284.096221) scale(0.12 -0.12)">
       <use xlink:href="#DejaVuSans-30"/>
       <use xlink:href="#DejaVuSans-2e" transform="translate(63.623047 0)"/>
       <use xlink:href="#DejaVuSans-33" transform="translate(95.410156 0)"/>
       <use xlink:href="#DejaVuSans-38" transform="translate(159.033203 0)"/>
      </g>
     </g>
    </g>
    <g id="ytick_3">
     <g id="line2d_51">
      <path d="M 62.588409 223.657721 
L 419.04 223.657721 
" clip-path="url(#pf1dd063334)" style="fill: none; stroke: #b0b0b0; stroke-opacity: 0.3; stroke-width: 0.8; stroke-linecap: square"/>
     </g>
     <g id="line2d_52">
      <g>
       <use xlink:href="#m16bf935046" x="62.588409" y="223.657721" style="stroke: #000000; stroke-width: 0.8"/>
      </g>
     </g>
     <g id="text_26">
      <!-- 0.40 -->
      <g transform="translate(28.869659 228.216783) scale(0.12 -0.12)">
       <use xlink:href="#DejaVuSans-30"/>
       <use xlink:href="#DejaVuSans-2e" transform="translate(63.623047 0)"/>
       <use xlink:href="#DejaVuSans-34" transform="translate(95.410156 0)"/>
       <use xlink:href="#DejaVuSans-30" transform="translate(159.033203 0)"/>
      </g>
     </g>
    </g>
    <g id="ytick_4">
     <g id="line2d_53">
      <path d="M 62.588409 167.778283 
L 419.04 167.778283 
" clip-path="url(#pf1dd063334)" style="fill: none; stroke: #b0b0b0; stroke-opacity: 0.3; stroke-width: 0.8; stroke-linecap: square"/>
     </g>
     <g id="line2d_54">
      <g>
       <use xlink:href="#m16bf935046" x="62.588409" y="167.778283" style="stroke: #000000; stroke-width: 0.8"/>
      </g>
     </g>
     <g id="text_27">
      <!-- 0.42 -->
      <g transform="translate(28.869659 172.337346) scale(0.12 -0.12)">
       <use xlink:href="#DejaVuSans-30"/>
       <use xlink:href="#DejaVuSans-2e" transform="translate(63.623047 0)"/>
       <use xlink:href="#DejaVuSans-34" transform="translate(95.410156 0)"/>
       <use xlink:href="#DejaVuSans-32" transform="translate(159.033203 0)"/>
      </g>
     </g>
    </g>
    <g id="ytick_5">
     <g id="line2d_55">
      <path d="M 62.588409 111.898845 
L 419.04 111.898845 
" clip-path="url(#pf1dd063334)" style="fill: none; stroke: #b0b0b0; stroke-opacity: 0.3; stroke-width: 0.8; stroke-linecap: square"/>
     </g>
     <g id="line2d_56">
      <g>
       <use xlink:href="#m16bf935046" x="62.588409" y="111.898845" style="stroke: #000000; stroke-width: 0.8"/>
      </g>
     </g>
     <g id="text_28">
      <!-- 0.44 -->
      <g transform="translate(28.869659 116.457908) scale(0.12 -0.12)">
       <use xlink:href="#DejaVuSans-30"/>
       <use xlink:href="#DejaVuSans-2e" transform="translate(63.623047 0)"/>
       <use xlink:href="#DejaVuSans-34" transform="translate(95.410156 0)"/>
       <use xlink:href="#DejaVuSans-34" transform="translate(159.033203 0)"/>
      </g>
     </g>
    </g>
    <g id="ytick_6">
     <g id="line2d_57">
      <path d="M 62.588409 56.019408 
L 419.04 56.019408 
" clip-path="url(#pf1dd063334)" style="fill: none; stroke: #b0b0b0; stroke-opacity: 0.3; stroke-width: 0.8; stroke-linecap: square"/>
     </g>
     <g id="line2d_58">
      <g>
       <use xlink:href="#m16bf935046" x="62.588409" y="56.019408" style="stroke: #000000; stroke-width: 0.8"/>
      </g>
     </g>
     <g id="text_29">
      <!-- 0.46 -->
      <g transform="translate(28.869659 60.57847) scale(0.12 -0.12)">
       <use xlink:href="#DejaVuSans-30"/>
       <use xlink:href="#DejaVuSans-2e" transform="translate(63.623047 0)"/>
       <use xlink:href="#DejaVuSans-34" transform="translate(95.410156 0)"/>
       <use xlink:href="#DejaVuSans-36" transform="translate(159.033203 0)"/>
      </g>
     </g>
    </g>
    <g id="text_30">
     <!-- h_c (mm) -->
     <g transform="translate(22.040284 227.729228) rotate(-90) scale(0.12 -0.12)">
      <defs>
       <path id="DejaVuSans-68" d="M 3513 2113 
L 3513 0 
L 2938 0 
L 2938 2094 
Q 2938 2591 2744 2837 
Q 2550 3084 2163 3084 
Q 1697 3084 1428 2787 
Q 1159 2491 1159 1978 
L 1159 0 
L 581 0 
L 581 4863 
L 1159 4863 
L 1159 2956 
Q 1366 3272 1645 3428 
Q 1925 3584 2291 3584 
Q 2894 3584 3203 3211 
Q 3513 2838 3513 2113 
z
" transform="scale(0.015625)"/>
       <path id="DejaVuSans-5f" d="M 3263 -1063 
L 3263 -1509 
L -63 -1509 
L -63 -1063 
L 3263 -1063 
z
" transform="scale(0.015625)"/>
       <path id="DejaVuSans-20" transform="scale(0.015625)"/>
       <path id="DejaVuSans-28" d="M 1984 4856 
Q 1566 4138 1362 3434 
Q 1159 2731 1159 2009 
Q 1159 1288 1364 580 
Q 1569 -128 1984 -844 
L 1484 -844 
Q 1016 -109 783 600 
Q 550 1309 550 2009 
Q 550 2706 781 3412 
Q 1013 4119 1484 4856 
L 1984 4856 
z
" transform="scale(0.015625)"/>
       <path id="DejaVuSans-6d" d="M 3328 2828 
Q 3544 3216 3844 3400 
Q 4144 3584 4550 3584 
Q 5097 3584 5394 3201 
Q 5691 2819 5691 2113 
L 5691 0 
L 5113 0 
L 5113 2094 
Q 5113 2597 4934 2840 
Q 4756 3084 4391 3084 
Q 3944 3084 3684 2787 
Q 3425 2491 3425 1978 
L 3425 0 
L 2847 0 
L 2847 2094 
Q 2847 2600 2669 2842 
Q 2491 3084 2119 3084 
Q 1678 3084 1418 2786 
Q 1159 2488 1159 1978 
L 1159 0 
L 581 0 
L 581 3500 
L 1159 3500 
L 1159 2956 
Q 1356 3278 1631 3431 
Q 1906 3584 2284 3584 
Q 2666 3584 2933 3390 
Q 3200 3197 3328 2828 
z
" transform="scale(0.015625)"/>
       <path id="DejaVuSans-29" d="M 513 4856 
L 1013 4856 
Q 1481 4119 1714 3412 
Q 1947 2706 1947 2009 
Q 1947 1309 1714 600 
Q 1481 -109 1013 -844 
L 513 -844 
Q 928 -128 1133 580 
Q 1338 1288 1338 2009 
Q 1338 2731 1133 3434 
Q 928 4138 513 4856 
z
" transform="scale(0.015625)"/>
      </defs>
      <use xlink:href="#DejaVuSans-68"/>
      <use xlink:href="#DejaVuSans-5f" transform="translate(63.378906 0)"/>
      <use xlink:href="#DejaVuSans-63" transform="translate(113.378906 0)"/>
      <use xlink:href="#DejaVuSans-20" transform="translate(168.359375 0)"/>
      <use xlink:href="#DejaVuSans-28" transform="translate(200.146484 0)"/>
      <use xlink:href="#DejaVuSans-6d" transform="translate(239.160156 0)"/>
      <use xlink:href="#DejaVuSans-6d" transform="translate(336.572266 0)"/>
      <use xlink:href="#DejaVuSans-29" transform="translate(433.984375 0)"/>
     </g>
    </g>
   </g>
   <g id="LineCollection_1">
    <path d="M 78.790754 288.589627 
L 78.790754 267.746597 
" clip-path="url(#pf1dd063334)" style="fill: #4285f4; stroke: #4285f4; stroke-width: 1.6"/>
    <path d="M 93.520159 311.919293 
L 93.520159 277.665197 
" clip-path="url(#pf1dd063334)" style="fill: #4285f4; stroke: #4285f4; stroke-width: 1.6"/>
    <path d="M 108.249563 229.525062 
L 108.249563 197.8973 
" clip-path="url(#pf1dd063334)" style="fill: #4285f4; stroke: #4285f4; stroke-width: 1.6"/>
    <path d="M 122.978968 318.596885 
L 122.978968 267.858356 
" clip-path="url(#pf1dd063334)" style="fill: #4285f4; stroke: #4285f4; stroke-width: 1.6"/>
    <path d="M 137.708372 236.342353 
L 137.708372 194.768051 
" clip-path="url(#pf1dd063334)" style="fill: #4285f4; stroke: #4285f4; stroke-width: 1.6"/>
    <path d="M 152.437777 108.43432 
L 152.437777 44.284726 
" clip-path="url(#pf1dd063334)" style="fill: #4285f4; stroke: #4285f4; stroke-width: 1.6"/>
    <path d="M 167.167182 249.278443 
L 167.167182 206.474794 
" clip-path="url(#pf1dd063334)" style="fill: #4285f4; stroke: #4285f4; stroke-width: 1.6"/>
    <path d="M 181.896586 161.659485 
L 181.896586 74.319924 
" clip-path="url(#pf1dd063334)" style="fill: #4285f4; stroke: #4285f4; stroke-width: 1.6"/>
    <path d="M 196.625991 331.337397 
L 196.625991 288.421989 
" clip-path="url(#pf1dd063334)" style="fill: #4285f4; stroke: #4285f4; stroke-width: 1.6"/>
    <path d="M 211.355395 311.444317 
L 211.355395 274.45213 
" clip-path="url(#pf1dd063334)" style="fill: #4285f4; stroke: #4285f4; stroke-width: 1.6"/>
    <path d="M 226.0848 354.415605 
L 226.0848 302.615366 
" clip-path="url(#pf1dd063334)" style="fill: #4285f4; stroke: #4285f4; stroke-width: 1.6"/>
    <path d="M 240.814205 298.871444 
L 240.814205 220.249075 
" clip-path="url(#pf1dd063334)" style="fill: #4285f4; stroke: #4285f4; stroke-width: 1.6"/>
    <path d="M 255.543609 118.241162 
L 255.543609 75.716909 
" clip-path="url(#pf1dd063334)" style="fill: #4285f4; stroke: #4285f4; stroke-width: 1.6"/>
    <path d="M 270.273014 260.594029 
L 270.273014 230.69853 
" clip-path="url(#pf1dd063334)" style="fill: #4285f4; stroke: #4285f4; stroke-width: 1.6"/>
    <path d="M 285.002418 208.961429 
L 285.002418 180.518795 
" clip-path="url(#pf1dd063334)" style="fill: #4285f4; stroke: #4285f4; stroke-width: 1.6"/>
    <path d="M 299.731823 135.479968 
L 299.731823 97.705468 
" clip-path="url(#pf1dd063334)" style="fill: #4285f4; stroke: #4285f4; stroke-width: 1.6"/>
    <path d="M 314.461227 218.71239 
L 314.461227 179.429146 
" clip-path="url(#pf1dd063334)" style="fill: #4285f4; stroke: #4285f4; stroke-width: 1.6"/>
    <path d="M 329.190632 179.345327 
L 329.190632 141.29143 
" clip-path="url(#pf1dd063334)" style="fill: #4285f4; stroke: #4285f4; stroke-width: 1.6"/>
    <path d="M 343.920037 216.337514 
L 343.920037 184.374476 
" clip-path="url(#pf1dd063334)" style="fill: #4285f4; stroke: #4285f4; stroke-width: 1.6"/>
    <path d="M 358.649441 331.532975 
L 358.649441 251.457741 
" clip-path="url(#pf1dd063334)" style="fill: #4285f4; stroke: #4285f4; stroke-width: 1.6"/>
    <path d="M 373.378846 174.427936 
L 373.378846 151.573246 
" clip-path="url(#pf1dd063334)" style="fill: #4285f4; stroke: #4285f4; stroke-width: 1.6"/>
    <path d="M 388.10825 278.866605 
L 388.10825 244.836028 
" clip-path="url(#pf1dd063334)" style="fill: #4285f4; stroke: #4285f4; stroke-width: 1.6"/>
    <path d="M 402.837655 107.540249 
L 402.837655 79.65641 
" clip-path="url(#pf1dd063334)" style="fill: #4285f4; stroke: #4285f4; stroke-width: 1.6"/>
   </g>
   <g id="line2d_59">
    <defs>
     <path id="mbc0aba90b9" d="M 3 0 
L -3 -0 
" style="stroke: #db4437"/>
    </defs>
    <g clip-path="url(#pf1dd063334)">
     <use xlink:href="#mbc0aba90b9" x="78.790754" y="288.589627" style="fill: #db4437; stroke: #db4437"/>
     <use xlink:href="#mbc0aba90b9" x="93.520159" y="311.919293" style="fill: #db4437; stroke: #db4437"/>
     <use xlink:href="#mbc0aba90b9" x="108.249563" y="229.525062" style="fill: #db4437; stroke: #db4437"/>
     <use xlink:href="#mbc0aba90b9" x="122.978968" y="318.596885" style="fill: #db4437; stroke: #db4437"/>
     <use xlink:href="#mbc0aba90b9" x="137.708372" y="236.342353" style="fill: #db4437; stroke: #db4437"/>
     <use xlink:href="#mbc0aba90b9" x="152.437777" y="108.43432" style="fill: #db4437; stroke: #db4437"/>
     <use xlink:href="#mbc0aba90b9" x="167.167182" y="249.278443" style="fill: #db4437; stroke: #db4437"/>
     <use xlink:href="#mbc0aba90b9" x="181.896586" y="161.659485" style="fill: #db4437; stroke: #db4437"/>
     <use xlink:href="#mbc0aba90b9" x="196.625991" y="331.337397" style="fill: #db4437; stroke: #db4437"/>
     <use xlink:href="#mbc0aba90b9" x="211.355395" y="311.444317" style="fill: #db4437; stroke: #db4437"/>
     <use xlink:href="#mbc0aba90b9" x="226.0848" y="354.415605" style="fill: #db4437; stroke: #db4437"/>
     <use xlink:href="#mbc0aba90b9" x="240.814205" y="298.871444" style="fill: #db4437; stroke: #db4437"/>
     <use xlink:href="#mbc0aba90b9" x="255.543609" y="118.241162" style="fill: #db4437; stroke: #db4437"/>
     <use xlink:href="#mbc0aba90b9" x="270.273014" y="260.594029" style="fill: #db4437; stroke: #db4437"/>
     <use xlink:href="#mbc0aba90b9" x="285.002418" y="208.961429" style="fill: #db4437; stroke: #db4437"/>
     <use xlink:href="#mbc0aba90b9" x="299.731823" y="135.479968" style="fill: #db4437; stroke: #db4437"/>
     <use xlink:href="#mbc0aba90b9" x="314.461227" y="218.71239" style="fill: #db4437; stroke: #db4437"/>
     <use xlink:href="#mbc0aba90b9" x="329.190632" y="179.345327" style="fill: #db4437; stroke: #db4437"/>
     <use xlink:href="#mbc0aba90b9" x="343.920037" y="216.337514" style="fill: #db4437; stroke: #db4437"/>
     <use xlink:href="#mbc0aba90b9" x="358.649441" y="331.532975" style="fill: #db4437; stroke: #db4437"/>
     <use xlink:href="#mbc0aba90b9" x="373.378846" y="174.427936" style="fill: #db4437; stroke: #db4437"/>
     <use xlink:href="#mbc0aba90b9" x="388.10825" y="278.866605" style="fill: #db4437; stroke: #db4437"/>
     <use xlink:href="#mbc0aba90b9" x="402.837655" y="107.540249" style="fill: #db4437; stroke: #db4437"/>
    </g>
   </g>
   <g id="line2d_60">
    <defs>
     <path id="m2bb594c442" d="M 3 0 
L -3 -0 
" style="stroke: #f4b400"/>
    </defs>
    <g clip-path="url(#pf1dd063334)">
     <use xlink:href="#m2bb594c442" x="78.790754" y="267.746597" style="fill: #f4b400; stroke: #f4b400"/>
     <use xlink:href="#m2bb594c442" x="93.520159" y="277.665197" style="fill: #f4b400; stroke: #f4b400"/>
     <use xlink:href="#m2bb594c442" x="108.249563" y="197.8973" style="fill: #f4b400; stroke: #f4b400"/>
     <use xlink:href="#m2bb594c442" x="122.978968" y="267.858356" style="fill: #f4b400; stroke: #f4b400"/>
     <use xlink:href="#m2bb594c442" x="137.708372" y="194.768051" style="fill: #f4b400; stroke: #f4b400"/>
     <use xlink:href="#m2bb594c442" x="152.437777" y="44.284726" style="fill: #f4b400; stroke: #f4b400"/>
     <use xlink:href="#m2bb594c442" x="167.167182" y="206.474794" style="fill: #f4b400; stroke: #f4b400"/>
     <use xlink:href="#m2bb594c442" x="181.896586" y="74.319924" style="fill: #f4b400; stroke: #f4b400"/>
     <use xlink:href="#m2bb594c442" x="196.625991" y="288.421989" style="fill: #f4b400; stroke: #f4b400"/>
     <use xlink:href="#m2bb594c442" x="211.355395" y="274.45213" style="fill: #f4b400; stroke: #f4b400"/>
     <use xlink:href="#m2bb594c442" x="226.0848" y="302.615366" style="fill: #f4b400; stroke: #f4b400"/>
     <use xlink:href="#m2bb594c442" x="240.814205" y="220.249075" style="fill: #f4b400; stroke: #f4b400"/>
     <use xlink:href="#m2bb594c442" x="255.543609" y="75.716909" style="fill: #f4b400; stroke: #f4b400"/>
     <use xlink:href="#m2bb594c442" x="270.273014" y="230.69853" style="fill: #f4b400; stroke: #f4b400"/>
     <use xlink:href="#m2bb594c442" x="285.002418" y="180.518795" style="fill: #f4b400; stroke: #f4b400"/>
     <use xlink:href="#m2bb594c442" x="299.731823" y="97.705468" style="fill: #f4b400; stroke: #f4b400"/>
     <use xlink:href="#m2bb594c442" x="314.461227" y="179.429146" style="fill: #f4b400; stroke: #f4b400"/>
     <use xlink:href="#m2bb594c442" x="329.190632" y="141.29143" style="fill: #f4b400; stroke: #f4b400"/>
     <use xlink:href="#m2bb594c442" x="343.920037" y="184.374476" style="fill: #f4b400; stroke: #f4b400"/>
     <use xlink:href="#m2bb594c442" x="358.649441" y="251.457741" style="fill: #f4b400; stroke: #f4b400"/>
     <use xlink:href="#m2bb594c442" x="373.378846" y="151.573246" style="fill: #f4b400; stroke: #f4b400"/>
     <use xlink:href="#m2bb594c442" x="388.10825" y="244.836028" style="fill: #f4b400; stroke: #f4b400"/>
     <use xlink:href="#m2bb594c442" x="402.837655" y="79.65641" style="fill: #f4b400; stroke: #f4b400"/>
    </g>
   </g>
   <g id="line2d_61">
    <path d="M 62.588409 216.307608 
L 419.04 216.307608 
" clip-path="url(#pf1dd063334)" style="fill: none; stroke-dasharray: 5.92,2.56; stroke-dashoffset: 0; stroke: #0f9d58; stroke-width: 1.6"/>
   </g>
   <g id="line2d_62">
    <defs>
     <path id="m882bf2be63" d="M 0 3 
C 0.795609 3 1.55874 2.683901 2.12132 2.12132 
C 2.683901 1.55874 3 0.795609 3 0 
C 3 -0.795609 2.683901 -1.55874 2.12132 -2.12132 
C 1.55874 -2.683901 0.795609 -3 0 -3 
C -0.795609 -3 -1.55874 -2.683901 -2.12132 -2.12132 
C -2.683901 -1.55874 -3 -0.795609 -3 0 
C -3 0.795609 -2.683901 1.55874 -2.12132 2.12132 
C -1.55874 2.683901 -0.795609 3 0 3 
z
" style="stroke: #4285f4"/>
    </defs>
    <g clip-path="url(#pf1dd063334)">
     <use xlink:href="#m882bf2be63" x="78.790754" y="278.168112" style="fill: #4285f4; stroke: #4285f4"/>
     <use xlink:href="#m882bf2be63" x="93.520159" y="294.792245" style="fill: #4285f4; stroke: #4285f4"/>
     <use xlink:href="#m882bf2be63" x="108.249563" y="213.711181" style="fill: #4285f4; stroke: #4285f4"/>
     <use xlink:href="#m882bf2be63" x="122.978968" y="293.227621" style="fill: #4285f4; stroke: #4285f4"/>
     <use xlink:href="#m882bf2be63" x="137.708372" y="215.555202" style="fill: #4285f4; stroke: #4285f4"/>
     <use xlink:href="#m882bf2be63" x="152.437777" y="76.359523" style="fill: #4285f4; stroke: #4285f4"/>
     <use xlink:href="#m882bf2be63" x="167.167182" y="227.876618" style="fill: #4285f4; stroke: #4285f4"/>
     <use xlink:href="#m882bf2be63" x="181.896586" y="117.989704" style="fill: #4285f4; stroke: #4285f4"/>
     <use xlink:href="#m882bf2be63" x="196.625991" y="309.879693" style="fill: #4285f4; stroke: #4285f4"/>
     <use xlink:href="#m882bf2be63" x="211.355395" y="292.948223" style="fill: #4285f4; stroke: #4285f4"/>
     <use xlink:href="#m882bf2be63" x="226.0848" y="328.515485" style="fill: #4285f4; stroke: #4285f4"/>
     <use xlink:href="#m882bf2be63" x="240.814205" y="259.560259" style="fill: #4285f4; stroke: #4285f4"/>
     <use xlink:href="#m882bf2be63" x="255.543609" y="96.979035" style="fill: #4285f4; stroke: #4285f4"/>
     <use xlink:href="#m882bf2be63" x="270.273014" y="245.646279" style="fill: #4285f4; stroke: #4285f4"/>
     <use xlink:href="#m882bf2be63" x="285.002418" y="194.740112" style="fill: #4285f4; stroke: #4285f4"/>
     <use xlink:href="#m882bf2be63" x="299.731823" y="116.592718" style="fill: #4285f4; stroke: #4285f4"/>
     <use xlink:href="#m882bf2be63" x="314.461227" y="199.070768" style="fill: #4285f4; stroke: #4285f4"/>
     <use xlink:href="#m882bf2be63" x="329.190632" y="160.318378" style="fill: #4285f4; stroke: #4285f4"/>
     <use xlink:href="#m882bf2be63" x="343.920037" y="200.355995" style="fill: #4285f4; stroke: #4285f4"/>
     <use xlink:href="#m882bf2be63" x="358.649441" y="291.495358" style="fill: #4285f4; stroke: #4285f4"/>
     <use xlink:href="#m882bf2be63" x="373.378846" y="163.000591" style="fill: #4285f4; stroke: #4285f4"/>
     <use xlink:href="#m882bf2be63" x="388.10825" y="261.851316" style="fill: #4285f4; stroke: #4285f4"/>
     <use xlink:href="#m882bf2be63" x="402.837655" y="93.59833" style="fill: #4285f4; stroke: #4285f4"/>
    </g>
   </g>
   <g id="patch_3">
    <path d="M 62.588409 369.922149 
L 62.588409 28.778182 
" style="fill: none; stroke: #000000; stroke-width: 0.8; stroke-linejoin: miter; stroke-linecap: square"/>
   </g>
   <g id="patch_4">
    <path d="M 419.04 369.922149 
L 419.04 28.778182 
" style="fill: none; stroke: #000000; stroke-width: 0.8; stroke-linejoin: miter; stroke-linecap: square"/>
   </g>
   <g id="patch_5">
    <path d="M 62.588409 369.922149 
L 419.04 369.922149 
" style="fill: none; stroke: #000000; stroke-width: 0.8; stroke-linejoin: miter; stroke-linecap: square"/>
   </g>
   <g id="patch_6">
    <path d="M 62.588409 28.778182 
L 419.04 28.778182 
" style="fill: none; stroke: #000000; stroke-width: 0.8; stroke-linejoin: miter; stroke-linecap: square"/>
   </g>
   <g id="text_31">
    <!-- Geometric length scale h_c across viscosities -->
    <g transform="translate(93.77608 22.778182) scale(0.13 -0.13)">
     <defs>
      <path id="DejaVuSans-47" d="M 3809 666 
L 3809 1919 
L 2778 1919 
L 2778 2438 
L 4434 2438 
L 4434 434 
Q 4069 175 3628 42 
Q 3188 -91 2688 -91 
Q 1594 -91 976 548 
Q 359 1188 359 2328 
Q 359 3472 976 4111 
Q 1594 4750 2688 4750 
Q 3144 4750 3555 4637 
Q 3966 4525 4313 4306 
L 4313 3634 
Q 3963 3931 3569 4081 
Q 3175 4231 2741 4231 
Q 1884 4231 1454 3753 
Q 1025 3275 1025 2328 
Q 1025 1384 1454 906 
Q 1884 428 2741 428 
Q 3075 428 3337 486 
Q 3600 544 3809 666 
z
" transform="scale(0.015625)"/>
      <path id="DejaVuSans-65" d="M 3597 1894 
L 3597 1613 
L 953 1613 
Q 991 1019 1311 708 
Q 1631 397 2203 397 
Q 2534 397 2845 478 
Q 3156 559 3463 722 
L 3463 178 
Q 3153 47 2828 -22 
Q 2503 -91 2169 -91 
Q 1331 -91 842 396 
Q 353 884 353 1716 
Q 353 2575 817 3079 
Q 1281 3584 2069 3584 
Q 2775 3584 3186 3129 
Q 3597 2675 3597 1894 
z
M 3022 2063 
Q 3016 2534 2758 2815 
Q 2500 3097 2075 3097 
Q 1594 3097 1305 2825 
Q 1016 2553 972 2059 
L 3022 2063 
z
" transform="scale(0.015625)"/>
      <path id="DejaVuSans-6f" d="M 1959 3097 
Q 1497 3097 1228 2736 
Q 959 2375 959 1747 
Q 959 1119 1226 758 
Q 1494 397 1959 397 
Q 2419 397 2687 759 
Q 2956 1122 2956 1747 
Q 2956 2369 2687 2733 
Q 2419 3097 1959 3097 
z
M 1959 3584 
Q 2709 3584 3137 3096 
Q 3566 2609 3566 1747 
Q 3566 888 3137 398 
Q 2709 -91 1959 -91 
Q 1206 -91 779 398 
Q 353 888 353 1747 
Q 353 2609 779 3096 
Q 1206 3584 1959 3584 
z
" transform="scale(0.015625)"/>
      <path id="DejaVuSans-74" d="M 1172 4494 
L 1172 3500 
L 2356 3500 
L 2356 3053 
L 1172 3053 
L 1172 1153 
Q 1172 725 1289 603 
Q 1406 481 1766 481 
L 2356 481 
L 2356 0 
L 1766 0 
Q 1100 0 847 248 
Q 594 497 594 1153 
L 594 3053 
L 172 3053 
L 172 3500 
L 594 3500 
L 594 4494 
L 1172 4494 
z
" transform="scale(0.015625)"/>
      <path id="DejaVuSans-72" d="M 2631 2963 
Q 2534 3019 2420 3045 
Q 2306 3072 2169 3072 
Q 1681 3072 1420 2755 
Q 1159 2438 1159 1844 
L 1159 0 
L 581 0 
L 581 3500 
L 1159 3500 
L 1159 2956 
Q 1341 3275 1631 3429 
Q 1922 3584 2338 3584 
Q 2397 3584 2469 3576 
Q 2541 3569 2628 3553 
L 2631 2963 
z
" transform="scale(0.015625)"/>
      <path id="DejaVuSans-69" d="M 603 3500 
L 1178 3500 
L 1178 0 
L 603 0 
L 603 3500 
z
M 603 4863 
L 1178 4863 
L 1178 4134 
L 603 4134 
L 603 4863 
z
" transform="scale(0.015625)"/>
      <path id="DejaVuSans-6c" d="M 603 4863 
L 1178 4863 
L 1178 0 
L 603 0 
L 603 4863 
z
" transform="scale(0.015625)"/>
      <path id="DejaVuSans-6e" d="M 3513 2113 
L 3513 0 
L 2938 0 
L 2938 2094 
Q 2938 2591 2744 2837 
Q 2550 3084 2163 3084 
Q 1697 3084 1428 2787 
Q 1159 2491 1159 1978 
L 1159 0 
L 581 0 
L 581 3500 
L 1159 3500 
L 1159 2956 
Q 1366 3272 1645 3428 
Q 1925 3584 2291 3584 
Q 2894 3584 3203 3211 
Q 3513 2838 3513 2113 
z
" transform="scale(0.015625)"/>
      <path id="DejaVuSans-67" d="M 2906 1791 
Q 2906 2416 2648 2759 
Q 2391 3103 1925 3103 
Q 1463 3103 1205 2759 
Q 947 2416 947 1791 
Q 947 1169 1205 825 
Q 1463 481 1925 481 
Q 2391 481 2648 825 
Q 2906 1169 2906 1791 
z
M 3481 434 
Q 3481 -459 3084 -895 
Q 2688 -1331 1869 -1331 
Q 1566 -1331 1297 -1286 
Q 1028 -1241 775 -1147 
L 775 -588 
Q 1028 -725 1275 -790 
Q 1522 -856 1778 -856 
Q 2344 -856 2625 -561 
Q 2906 -266 2906 331 
L 2906 616 
Q 2728 306 2450 153 
Q 2172 0 1784 0 
Q 1141 0 747 490 
Q 353 981 353 1791 
Q 353 2603 747 3093 
Q 1141 3584 1784 3584 
Q 2172 3584 2450 3431 
Q 2728 3278 2906 2969 
L 2906 3500 
L 3481 3500 
L 3481 434 
z
" transform="scale(0.015625)"/>
      <path id="DejaVuSans-73" d="M 2834 3397 
L 2834 2853 
Q 2591 2978 2328 3040 
Q 2066 3103 1784 3103 
Q 1356 3103 1142 2972 
Q 928 2841 928 2578 
Q 928 2378 1081 2264 
Q 1234 2150 1697 2047 
L 1894 2003 
Q 2506 1872 2764 1633 
Q 3022 1394 3022 966 
Q 3022 478 2636 193 
Q 2250 -91 1575 -91 
Q 1294 -91 989 -36 
Q 684 19 347 128 
L 347 722 
Q 666 556 975 473 
Q 1284 391 1588 391 
Q 1994 391 2212 530 
Q 2431 669 2431 922 
Q 2431 1156 2273 1281 
Q 2116 1406 1581 1522 
L 1381 1569 
Q 847 1681 609 1914 
Q 372 2147 372 2553 
Q 372 3047 722 3315 
Q 1072 3584 1716 3584 
Q 2034 3584 2315 3537 
Q 2597 3491 2834 3397 
z
" transform="scale(0.015625)"/>
      <path id="DejaVuSans-61" d="M 2194 1759 
Q 1497 1759 1228 1600 
Q 959 1441 959 1056 
Q 959 750 1161 570 
Q 1363 391 1709 391 
Q 2188 391 2477 730 
Q 2766 1069 2766 1631 
L 2766 1759 
L 2194 1759 
z
M 3341 1997 
L 3341 0 
L 2766 0 
L 2766 531 
Q 2569 213 2275 61 
Q 1981 -91 1556 -91 
Q 1019 -91 701 211 
Q 384 513 384 1019 
Q 384 1609 779 1909 
Q 1175 2209 1959 2209 
L 2766 2209 
L 2766 2266 
Q 2766 2663 2505 2880 
Q 2244 3097 1772 3097 
Q 1472 3097 1187 3025 
Q 903 2953 641 2809 
L 641 3341 
Q 956 3463 1253 3523 
Q 1550 3584 1831 3584 
Q 2591 3584 2966 3190 
Q 3341 2797 3341 1997 
z
" transform="scale(0.015625)"/>
      <path id="DejaVuSans-76" d="M 191 3500 
L 800 3500 
L 1894 563 
L 2988 3500 
L 3597 3500 
L 2284 0 
L 1503 0 
L 191 3500 
z
" transform="scale(0.015625)"/>
     </defs>
     <use xlink:href="#DejaVuSans-47"/>
     <use xlink:href="#DejaVuSans-65" transform="translate(77.490234 0)"/>
     <use xlink:href="#DejaVuSans-6f" transform="translate(139.013672 0)"/>
     <use xlink:href="#DejaVuSans-6d" transform="translate(200.195312 0)"/>
     <use xlink:href="#DejaVuSans-65" transform="translate(297.607422 0)"/>
     <use xlink:href="#DejaVuSans-74" transform="translate(359.130859 0)"/>
     <use xlink:href="#DejaVuSans-72" transform="translate(398.339844 0)"/>
     <use xlink:href="#DejaVuSans-69" transform="translate(439.453125 0)"/>
     <use xlink:href="#DejaVuSans-63" transform="translate(467.236328 0)"/>
     <use xlink:href="#DejaVuSans-20" transform="translate(522.216797 0)"/>
     <use xlink:href="#DejaVuSans-6c" transform="translate(554.003906 0)"/>
     <use xlink:href="#DejaVuSans-65" transform="translate(581.787109 0)"/>
     <use xlink:href="#DejaVuSans-6e" transform="translate(643.310547 0)"/>
     <use xlink:href="#DejaVuSans-67" transform="translate(706.689453 0)"/>
     <use xlink:href="#DejaVuSans-74" transform="translate(770.166016 0)"/>
     <use xlink:href="#DejaVuSans-68" transform="translate(809.375 0)"/>
     <use xlink:href="#DejaVuSans-20" transform="translate(872.753906 0)"/>
     <use xlink:href="#DejaVuSans-73" transform="translate(904.541016 0)"/>
     <use xlink:href="#DejaVuSans-63" transform="translate(956.640625 0)"/>
     <use xlink:href="#DejaVuSans-61" transform="translate(1011.621094 0)"/>
     <use xlink:href="#DejaVuSans-6c" transform="translate(1072.900391 0)"/>
     <use xlink:href="#DejaVuSans-65" transform="translate(1100.683594 0)"/>
     <use xlink:href="#DejaVuSans-20" transform="translate(1162.207031 0)"/>
     <use xlink:href="#DejaVuSans-68" transform="translate(1193.994141 0)"/>
     <use xlink:href="#DejaVuSans-5f" transform="translate(1257.373047 0)"/>
     <use xlink:href="#DejaVuSans-63" transform="translate(1307.373047 0)"/>
     <use xlink:href="#DejaVuSans-20" transform="translate(1362.353516 0)"/>
     <use xlink:href="#DejaVuSans-61" transform="translate(1394.140625 0)"/>
     <use xlink:href="#DejaVuSans-63" transform="translate(1455.419922 0)"/>
     <use xlink:href="#DejaVuSans-72" transform="translate(1510.400391 0)"/>
     <use xlink:href="#DejaVuSans-6f" transform="translate(1549.263672 0)"/>
     <use xlink:href="#DejaVuSans-73" transform="translate(1610.445312 0)"/>
     <use xlink:href="#DejaVuSans-73" transform="translate(1662.544922 0)"/>
     <use xlink:href="#DejaVuSans-20" transform="translate(1714.644531 0)"/>
     <use xlink:href="#DejaVuSans-76" transform="translate(1746.431641 0)"/>
     <use xlink:href="#DejaVuSans-69" transform="translate(1805.611328 0)"/>
     <use xlink:href="#DejaVuSans-73" transform="translate(1833.394531 0)"/>
     <use xlink:href="#DejaVuSans-63" transform="translate(1885.494141 0)"/>
     <use xlink:href="#DejaVuSans-6f" transform="translate(1940.474609 0)"/>
     <use xlink:href="#DejaVuSans-73" transform="translate(2001.65625 0)"/>
     <use xlink:href="#DejaVuSans-69" transform="translate(2053.755859 0)"/>
     <use xlink:href="#DejaVuSans-74" transform="translate(2081.539062 0)"/>
     <use xlink:href="#DejaVuSans-69" transform="translate(2120.748047 0)"/>
     <use xlink:href="#DejaVuSans-65" transform="translate(2148.53125 0)"/>
     <use xlink:href="#DejaVuSans-73" transform="translate(2210.054688 0)"/>
    </g>
   </g>
   <g id="legend_1">
    <g id="patch_7">
     <path d="M 257.14 364.922149 
L 412.04 364.922149 
Q 414.04 364.922149 414.04 362.922149 
L 414.04 319.331524 
Q 414.04 317.331524 412.04 317.331524 
L 257.14 317.331524 
Q 255.14 317.331524 255.14 319.331524 
L 255.14 362.922149 
Q 255.14 364.922149 257.14 364.922149 
z
" style="fill: #ffffff; opacity: 0.8; stroke: #cccccc; stroke-linejoin: miter"/>
    </g>
    <g id="line2d_63">
     <path d="M 259.14 325.429961 
L 269.14 325.429961 
L 279.14 325.429961 
" style="fill: none; stroke-dasharray: 5.92,2.56; stroke-dashoffset: 0; stroke: #000000; stroke-width: 1.6"/>
    </g>
    <g id="text_32">
     <!-- global h_c = 0.4026 mm -->
     <g transform="translate(287.14 328.929961) scale(0.1 -0.1)">
      <defs>
       <path id="DejaVuSans-62" d="M 3116 1747 
Q 3116 2381 2855 2742 
Q 2594 3103 2138 3103 
Q 1681 3103 1420 2742 
Q 1159 2381 1159 1747 
Q 1159 1113 1420 752 
Q 1681 391 2138 391 
Q 2594 391 2855 752 
Q 3116 1113 3116 1747 
z
M 1159 2969 
Q 1341 3281 1617 3432 
Q 1894 3584 2278 3584 
Q 2916 3584 3314 3078 
Q 3713 2572 3713 1747 
Q 3713 922 3314 415 
Q 2916 -91 2278 -91 
Q 1894 -91 1617 61 
Q 1341 213 1159 525 
L 1159 0 
L 581 0 
L 581 4863 
L 1159 4863 
L 1159 2969 
z
" transform="scale(0.015625)"/>
       <path id="DejaVuSans-3d" d="M 678 2906 
L 4684 2906 
L 4684 2381 
L 678 2381 
L 678 2906 
z
M 678 1631 
L 4684 1631 
L 4684 1100 
L 678 1100 
L 678 1631 
z
" transform="scale(0.015625)"/>
      </defs>
      <use xlink:href="#DejaVuSans-67"/>
      <use xlink:href="#DejaVuSans-6c" transform="translate(63.476562 0)"/>
      <use xlink:href="#DejaVuSans-6f" transform="translate(91.259766 0)"/>
      <use xlink:href="#DejaVuSans-62" transform="translate(152.441406 0)"/>
      <use xlink:href="#DejaVuSans-61" transform="translate(215.917969 0)"/>
      <use xlink:href="#DejaVuSans-6c" transform="translate(277.197266 0)"/>
      <use xlink:href="#DejaVuSans-20" transform="translate(304.980469 0)"/>
      <use xlink:href="#DejaVuSans-68" transform="translate(336.767578 0)"/>
      <use xlink:href="#DejaVuSans-5f" transform="translate(400.146484 0)"/>
      <use xlink:href="#DejaVuSans-63" transform="translate(450.146484 0)"/>
      <use xlink:href="#DejaVuSans-20" transform="translate(505.126953 0)"/>
      <use xlink:href="#DejaVuSans-3d" transform="translate(536.914062 0)"/>
      <use xlink:href="#DejaVuSans-20" transform="translate(620.703125 0)"/>
      <use xlink:href="#DejaVuSans-30" transform="translate(652.490234 0)"/>
      <use xlink:href="#DejaVuSans-2e" transform="translate(716.113281 0)"/>
      <use xlink:href="#DejaVuSans-34" transform="translate(747.900391 0)"/>
      <use xlink:href="#DejaVuSans-30" transform="translate(811.523438 0)"/>
      <use xlink:href="#DejaVuSans-32" transform="translate(875.146484 0)"/>
      <use xlink:href="#DejaVuSans-36" transform="translate(938.769531 0)"/>
      <use xlink:href="#DejaVuSans-20" transform="translate(1002.392578 0)"/>
      <use xlink:href="#DejaVuSans-6d" transform="translate(1034.179688 0)"/>
      <use xlink:href="#DejaVuSans-6d" transform="translate(1131.591797 0)"/>
     </g>
    </g>
    <g id="patch_8">
     <path d="M 259.14 343.886211 
L 279.14 343.886211 
L 279.14 336.886211 
L 259.14 336.886211 
z
" style="fill-opacity: 0.15; stroke: #000000; stroke-opacity: 0.15; stroke-linejoin: miter"/>
    </g>
    <g id="text_33">
     <!-- global 95% CI -->
     <g transform="translate(287.14 343.886211) scale(0.1 -0.1)">
      <defs>
       <path id="DejaVuSans-25" d="M 4653 2053 
Q 4381 2053 4226 1822 
Q 4072 1591 4072 1178 
Q 4072 772 4226 539 
Q 4381 306 4653 306 
Q 4919 306 5073 539 
Q 5228 772 5228 1178 
Q 5228 1588 5073 1820 
Q 4919 2053 4653 2053 
z
M 4653 2450 
Q 5147 2450 5437 2106 
Q 5728 1763 5728 1178 
Q 5728 594 5436 251 
Q 5144 -91 4653 -91 
Q 4153 -91 3862 251 
Q 3572 594 3572 1178 
Q 3572 1766 3864 2108 
Q 4156 2450 4653 2450 
z
M 1428 4353 
Q 1159 4353 1004 4120 
Q 850 3888 850 3481 
Q 850 3069 1003 2837 
Q 1156 2606 1428 2606 
Q 1700 2606 1854 2837 
Q 2009 3069 2009 3481 
Q 2009 3884 1853 4118 
Q 1697 4353 1428 4353 
z
M 4250 4750 
L 4750 4750 
L 1831 -91 
L 1331 -91 
L 4250 4750 
z
M 1428 4750 
Q 1922 4750 2215 4408 
Q 2509 4066 2509 3481 
Q 2509 2891 2217 2550 
Q 1925 2209 1428 2209 
Q 931 2209 642 2551 
Q 353 2894 353 3481 
Q 353 4063 643 4406 
Q 934 4750 1428 4750 
z
" transform="scale(0.015625)"/>
       <path id="DejaVuSans-43" d="M 4122 4306 
L 4122 3641 
Q 3803 3938 3442 4084 
Q 3081 4231 2675 4231 
Q 1875 4231 1450 3742 
Q 1025 3253 1025 2328 
Q 1025 1406 1450 917 
Q 1875 428 2675 428 
Q 3081 428 3442 575 
Q 3803 722 4122 1019 
L 4122 359 
Q 3791 134 3420 21 
Q 3050 -91 2638 -91 
Q 1578 -91 968 557 
Q 359 1206 359 2328 
Q 359 3453 968 4101 
Q 1578 4750 2638 4750 
Q 3056 4750 3426 4639 
Q 3797 4528 4122 4306 
z
" transform="scale(0.015625)"/>
       <path id="DejaVuSans-49" d="M 628 4666 
L 1259 4666 
L 1259 0 
L 628 0 
L 628 4666 
z
" transform="scale(0.015625)"/>
      </defs>
      <use xlink:href="#DejaVuSans-67"/>
      <use xlink:href="#DejaVuSans-6c" transform="translate(63.476562 0)"/>
      <use xlink:href="#DejaVuSans-6f" transform="translate(91.259766 0)"/>
      <use xlink:href="#DejaVuSans-62" transform="translate(152.441406 0)"/>
      <use xlink:href="#DejaVuSans-61" transform="translate(215.917969 0)"/>
      <use xlink:href="#DejaVuSans-6c" transform="translate(277.197266 0)"/>
      <use xlink:href="#DejaVuSans-20" transform="translate(304.980469 0)"/>
      <use xlink:href="#DejaVuSans-39" transform="translate(336.767578 0)"/>
      <use xlink:href="#DejaVuSans-35" transform="translate(400.390625 0)"/>
      <use xlink:href="#DejaVuSans-25" transform="translate(464.013672 0)"/>
      <use xlink:href="#DejaVuSans-20" transform="translate(559.033203 0)"/>
      <use xlink:href="#DejaVuSans-43" transform="translate(590.820312 0)"/>
      <use xlink:href="#DejaVuSans-49" transform="translate(660.644531 0)"/>
     </g>
    </g>
    <g id="LineCollection_2">
     <path d="M 269.14 360.064336 
L 269.14 350.064336 
" style="fill: none; stroke: #4285f4; stroke-width: 1.6"/>
    </g>
    <g id="line2d_64">
     <defs>
      <path id="m31be3c3f19" d="M 3 0 
L -3 -0 
" style="stroke: #4285f4"/>
     </defs>
     <g>
      <use xlink:href="#m31be3c3f19" x="269.14" y="360.064336" style="fill: #4285f4; stroke: #4285f4"/>
     </g>
    </g>
    <g id="line2d_65">
     <g>
      <use xlink:href="#m31be3c3f19" x="269.14" y="350.064336" style="fill: #4285f4; stroke: #4285f4"/>
     </g>
    </g>
    <g id="line2d_66"/>
    <g id="line2d_67">
     <g>
      <use xlink:href="#m882bf2be63" x="269.14" y="355.064336" style="fill: #4285f4; stroke: #4285f4"/>
     </g>
    </g>
    <g id="text_34">
     <!-- per-sample h_c -->
     <g transform="translate(287.14 358.564336) scale(0.1 -0.1)">
      <defs>
       <path id="DejaVuSans-2d" d="M 313 2009 
L 1997 2009 
L 1997 1497 
L 313 1497 
L 313 2009 
z
" transform="scale(0.015625)"/>
      </defs>
      <use xlink:href="#DejaVuSans-70"/>
      <use xlink:href="#DejaVuSans-65" transform="translate(63.476562 0)"/>
      <use xlink:href="#DejaVuSans-72" transform="translate(125 0)"/>
      <use xlink:href="#DejaVuSans-2d" transform="translate(159.738281 0)"/>
      <use xlink:href="#DejaVuSans-73" transform="translate(195.822266 0)"/>
      <use xlink:href="#DejaVuSans-61" transform="translate(247.921875 0)"/>
      <use xlink:href="#DejaVuSans-6d" transform="translate(309.201172 0)"/>
      <use xlink:href="#DejaVuSans-70" transform="translate(406.613281 0)"/>
      <use xlink:href="#DejaVuSans-6c" transform="translate(470.089844 0)"/>
      <use xlink:href="#DejaVuSans-65" transform="translate(497.873047 0)"/>
      <use xlink:href="#DejaVuSans-20" transform="translate(559.396484 0)"/>
      <use xlink:href="#DejaVuSans-68" transform="translate(591.183594 0)"/>
      <use xlink:href="#DejaVuSans-5f" transform="translate(654.5625 0)"/>
      <use xlink:href="#DejaVuSans-63" transform="translate(704.5625 0)"/>
     </g>
    </g>
   </g>
  </g>
 </g>
 <defs>
  <clipPath id="pf1dd063334">
   <rect x="62.588409" y="28.778182" width="356.451591" height="341.143967"/>
  </clipPath>
 </defs>
</svg>
