<?xml version="1.0" encoding="utf-8" standalone="no"?>
<!DOCTYPE svg PUBLIC "-//W3C//DTD SVG 1.1//EN"
  "http://www.w3.org/Graphics/SVG/1.1/DTD/svg11.dtd">
<svg xmlns:xlink="http://www.w3.org/1999/xlink" width="432pt" height="432pt" viewBox="0 0 432 432" xmlns="http://www.w3.org/2000/svg" version="1.1">
 <metadata>
  <rdf:RDF xmlns:dc="http://purl.org/dc/elements/1.1/" xmlns:cc="http://creativecommons.org/ns#" xmlns:rdf="http://www.w3.org/1999/02/22-rdf-syntax-ns#">
   <cc:Work>
    <dc:type rdf:resource="http://purl.org/dc/dcmitype/StillImage"/>
    <dc:date>2026-06-19T14:21:39.892077</dc:date>
    <dc:format>image/svg+xml</dc:format>
    <dc:creator>
     <cc:Agent>
      <dc:title>Matplotlib v3.10.0, https://matplotlib.org/</dc:title>
     </cc:Agent>
    </dc:creator>
   </cc:Work>
  </rdf:RDF>
 </metadata>
 <defs>
  <style type="text/css">*{stroke-linejoin: round; stroke-linecap: butt}</style>
 </defs>
 <g id="figure_1">
  <g id="patch_1">
   <path d="M 0 432 
L 432 432 
L 432 0 
L 0 0 
z
" style="fill: #ffffff"/>
  </g>
  <g id="axes_1">
   <g id="patch_2">
    <path d="M 59.3975 373.79838 
L 419.04 373.79838 
L 419.04 28.778182 
L 59.3975 28.778182 
z
" style="fill: #ffffff"/>
   </g>
   <g id="FillBetweenPolyCollection_1">
    <defs>
     <path id="mfad1acd1f9" d="M 75.744886 -234.307791 
L 75.744886 -195.29649 
L 90.606147 -195.29649 
L 105.467407 -195.29649 
L 120.328667 -195.29649 
L 135.189928 -195.29649 
L 150.051188 -195.29649 
L 164.912448 -195.29649 
L 179.773709 -195.29649 
L 194.634969 -195.29649 
L 209.496229 -195.29649 
L 224.35749 -195.29649 
L 239.21875 -195.29649 
L 254.08001 -195.29649 
L 268.941271 -195.29649 
L 283.802531 -195.29649 
L 298.663791 -195.29649 
L 313.525052 -195.29649 
L 328.386312 -195.29649 
L 343.247572 -195.29649 
L 358.108833 -195.29649 
L 372.970093 -195.29649 
L 387.831353 -195.29649 
L 402.692614 -195.29649 
L 402.692614 -234.307791 
L 402.692614 -234.307791 
L 387.831353 -234.307791 
L 372.970093 -234.307791 
L 358.108833 -234.307791 
L 343.247572 -234.307791 
L 328.386312 -234.307791 
L 313.525052 -234.307791 
L 298.663791 -234.307791 
L 283.802531 -234.307791 
L 268.941271 -234.307791 
L 254.08001 -234.307791 
L 239.21875 -234.307791 
L 224.35749 -234.307791 
L 209.496229 -234.307791 
L 194.634969 -234.307791 
L 179.773709 -234.307791 
L 164.912448 -234.307791 
L 150.051188 -234.307791 
L 135.189928 -234.307791 
L 120.328667 -234.307791 
L 105.467407 -234.307791 
L 90.606147 -234.307791 
L 75.744886 -234.307791 
z
" style="stroke: #db4437; stroke-opacity: 0.15"/>
    </defs>
    <g clip-path="url(#p7d8f221c4f)">
     <use xlink:href="#mfad1acd1f9" x="0" y="432" style="fill: #db4437; fill-opacity: 0.15; stroke: #db4437; stroke-opacity: 0.15"/>
    </g>
   </g>
   <g id="matplotlib.axis_1">
    <g id="xtick_1">
     <g id="line2d_1">
      <path d="M 75.744886 373.79838 
L 75.744886 28.778182 
" clip-path="url(#p7d8f221c4f)" style="fill: none; stroke: #b0b0b0; stroke-opacity: 0.3; stroke-width: 0.8; stroke-linecap: square"/>
     </g>
     <g id="line2d_2">
      <defs>
       <path id="m4678b61857" d="M 0 0 
L 0 3.5 
" style="stroke: #000000; stroke-width: 0.8"/>
      </defs>
      <g>
       <use xlink:href="#m4678b61857" x="75.744886" y="373.79838" style="stroke: #000000; stroke-width: 0.8"/>
      </g>
     </g>
     <g id="text_1">
      <!-- 1kcp -->
      <g transform="translate(56.135931 404.819681) rotate(-45) scale(0.12 -0.12)">
       <defs>
        <path id="ArialMT-31" d="M 2384 0 
L 1822 0 
L 1822 3584 
Q 1619 3391 1289 3197 
Q 959 3003 697 2906 
L 697 3450 
Q 1169 3672 1522 3987 
Q 1875 4303 2022 4600 
L 2384 4600 
L 2384 0 
z
" transform="scale(0.015625)"/>
        <path id="ArialMT-6b" d="M 425 0 
L 425 4581 
L 988 4581 
L 988 1969 
L 2319 3319 
L 3047 3319 
L 1778 2088 
L 3175 0 
L 2481 0 
L 1384 1697 
L 988 1316 
L 988 0 
L 425 0 
z
" transform="scale(0.015625)"/>
        <path id="ArialMT-63" d="M 2588 1216 
L 3141 1144 
Q 3050 572 2676 248 
Q 2303 -75 1759 -75 
Q 1078 -75 664 370 
Q 250 816 250 1647 
Q 250 2184 428 2587 
Q 606 2991 970 3192 
Q 1334 3394 1763 3394 
Q 2303 3394 2647 3120 
Q 2991 2847 3088 2344 
L 2541 2259 
Q 2463 2594 2264 2762 
Q 2066 2931 1784 2931 
Q 1359 2931 1093 2626 
Q 828 2322 828 1663 
Q 828 994 1084 691 
Q 1341 388 1753 388 
Q 2084 388 2306 591 
Q 2528 794 2588 1216 
z
" transform="scale(0.015625)"/>
        <path id="ArialMT-70" d="M 422 -1272 
L 422 3319 
L 934 3319 
L 934 2888 
Q 1116 3141 1344 3267 
Q 1572 3394 1897 3394 
Q 2322 3394 2647 3175 
Q 2972 2956 3137 2557 
Q 3303 2159 3303 1684 
Q 3303 1175 3120 767 
Q 2938 359 2589 142 
Q 2241 -75 1856 -75 
Q 1575 -75 1351 44 
Q 1128 163 984 344 
L 984 -1272 
L 422 -1272 
z
M 931 1641 
Q 931 1000 1190 694 
Q 1450 388 1819 388 
Q 2194 388 2461 705 
Q 2728 1022 2728 1688 
Q 2728 2322 2467 2637 
Q 2206 2953 1844 2953 
Q 1484 2953 1207 2617 
Q 931 2281 931 1641 
z
" transform="scale(0.015625)"/>
       </defs>
       <use xlink:href="#ArialMT-31"/>
       <use xlink:href="#ArialMT-6b" transform="translate(55.615234 0)"/>
       <use xlink:href="#ArialMT-63" transform="translate(105.615234 0)"/>
       <use xlink:href="#ArialMT-70" transform="translate(155.615234 0)"/>
      </g>
     </g>
    </g>
    <g id="xtick_2">
     <g id="line2d_3">
      <path d="M 90.606147 373.79838 
L 90.606147 28.778182 
" clip-path="url(#p7d8f221c4f)" style="fill: none; stroke: #b0b0b0; stroke-opacity: 0.3; stroke-width: 0.8; stroke-linecap: square"/>
     </g>
     <g id="line2d_4">
      <g>
       <use xlink:href="#m4678b61857" x="90.606147" y="373.79838" style="stroke: #000000; stroke-width: 0.8"/>
      </g>
     </g>
     <g id="text_2">
      <!-- 2kcp -->
      <g transform="translate(70.997192 404.819681) rotate(-45) scale(0.12 -0.12)">
       <defs>
        <path id="ArialMT-32" d="M 3222 541 
L 3222 0 
L 194 0 
Q 188 203 259 391 
Q 375 700 629 1000 
Q 884 1300 1366 1694 
Q 2113 2306 2375 2664 
Q 2638 3022 2638 3341 
Q 2638 3675 2398 3904 
Q 2159 4134 1775 4134 
Q 1369 4134 1125 3890 
Q 881 3647 878 3216 
L 300 3275 
Q 359 3922 746 4261 
Q 1134 4600 1788 4600 
Q 2447 4600 2831 4234 
Q 3216 3869 3216 3328 
Q 3216 3053 3103 2787 
Q 2991 2522 2730 2228 
Q 2469 1934 1863 1422 
Q 1356 997 1212 845 
Q 1069 694 975 541 
L 3222 541 
z
" transform="scale(0.015625)"/>
       </defs>
       <use xlink:href="#ArialMT-32"/>
       <use xlink:href="#ArialMT-6b" transform="translate(55.615234 0)"/>
       <use xlink:href="#ArialMT-63" transform="translate(105.615234 0)"/>
       <use xlink:href="#ArialMT-70" transform="translate(155.615234 0)"/>
      </g>
     </g>
    </g>
    <g id="xtick_3">
     <g id="line2d_5">
      <path d="M 105.467407 373.79838 
L 105.467407 28.778182 
" clip-path="url(#p7d8f221c4f)" style="fill: none; stroke: #b0b0b0; stroke-opacity: 0.3; stroke-width: 0.8; stroke-linecap: square"/>
     </g>
     <g id="line2d_6">
      <g>
       <use xlink:href="#m4678b61857" x="105.467407" y="373.79838" style="stroke: #000000; stroke-width: 0.8"/>
      </g>
     </g>
     <g id="text_3">
      <!-- 4kcp -->
      <g transform="translate(85.858452 404.79449) rotate(-45) scale(0.12 -0.12)">
       <defs>
        <path id="ArialMT-34" d="M 2069 0 
L 2069 1097 
L 81 1097 
L 81 1613 
L 2172 4581 
L 2631 4581 
L 2631 1613 
L 3250 1613 
L 3250 1097 
L 2631 1097 
L 2631 0 
L 2069 0 
z
M 2069 1613 
L 2069 3678 
L 634 1613 
L 2069 1613 
z
" transform="scale(0.015625)"/>
       </defs>
       <use xlink:href="#ArialMT-34"/>
       <use xlink:href="#ArialMT-6b" transform="translate(55.615234 0)"/>
       <use xlink:href="#ArialMT-63" transform="translate(105.615234 0)"/>
       <use xlink:href="#ArialMT-70" transform="translate(155.615234 0)"/>
      </g>
     </g>
    </g>
    <g id="xtick_4">
     <g id="line2d_7">
      <path d="M 120.328667 373.79838 
L 120.328667 28.778182 
" clip-path="url(#p7d8f221c4f)" style="fill: none; stroke: #b0b0b0; stroke-opacity: 0.3; stroke-width: 0.8; stroke-linecap: square"/>
     </g>
     <g id="line2d_8">
      <g>
       <use xlink:href="#m4678b61857" x="120.328667" y="373.79838" style="stroke: #000000; stroke-width: 0.8"/>
      </g>
     </g>
     <g id="text_4">
      <!-- 5kcp -->
      <g transform="translate(100.719712 404.79449) rotate(-45) scale(0.12 -0.12)">
       <defs>
        <path id="ArialMT-35" d="M 266 1200 
L 856 1250 
Q 922 819 1161 601 
Q 1400 384 1738 384 
Q 2144 384 2425 690 
Q 2706 997 2706 1503 
Q 2706 1984 2436 2262 
Q 2166 2541 1728 2541 
Q 1456 2541 1237 2417 
Q 1019 2294 894 2097 
L 366 2166 
L 809 4519 
L 3088 4519 
L 3088 3981 
L 1259 3981 
L 1013 2750 
Q 1425 3038 1878 3038 
Q 2478 3038 2890 2622 
Q 3303 2206 3303 1553 
Q 3303 931 2941 478 
Q 2500 -78 1738 -78 
Q 1113 -78 717 272 
Q 322 622 266 1200 
z
" transform="scale(0.015625)"/>
       </defs>
       <use xlink:href="#ArialMT-35"/>
       <use xlink:href="#ArialMT-6b" transform="translate(55.615234 0)"/>
       <use xlink:href="#ArialMT-63" transform="translate(105.615234 0)"/>
       <use xlink:href="#ArialMT-70" transform="translate(155.615234 0)"/>
      </g>
     </g>
    </g>
    <g id="xtick_5">
     <g id="line2d_9">
      <path d="M 135.189928 373.79838 
L 135.189928 28.778182 
" clip-path="url(#p7d8f221c4f)" style="fill: none; stroke: #b0b0b0; stroke-opacity: 0.3; stroke-width: 0.8; stroke-linecap: square"/>
     </g>
     <g id="line2d_10">
      <g>
       <use xlink:href="#m4678b61857" x="135.189928" y="373.79838" style="stroke: #000000; stroke-width: 0.8"/>
      </g>
     </g>
     <g id="text_5">
      <!-- 8kcp -->
      <g transform="translate(115.580973 404.819681) rotate(-45) scale(0.12 -0.12)">
       <defs>
        <path id="ArialMT-38" d="M 1131 2484 
Q 781 2613 612 2850 
Q 444 3088 444 3419 
Q 444 3919 803 4259 
Q 1163 4600 1759 4600 
Q 2359 4600 2725 4251 
Q 3091 3903 3091 3403 
Q 3091 3084 2923 2848 
Q 2756 2613 2416 2484 
Q 2838 2347 3058 2040 
Q 3278 1734 3278 1309 
Q 3278 722 2862 322 
Q 2447 -78 1769 -78 
Q 1091 -78 675 323 
Q 259 725 259 1325 
Q 259 1772 486 2073 
Q 713 2375 1131 2484 
z
M 1019 3438 
Q 1019 3113 1228 2906 
Q 1438 2700 1772 2700 
Q 2097 2700 2305 2904 
Q 2513 3109 2513 3406 
Q 2513 3716 2298 3927 
Q 2084 4138 1766 4138 
Q 1444 4138 1231 3931 
Q 1019 3725 1019 3438 
z
M 838 1322 
Q 838 1081 952 856 
Q 1066 631 1291 507 
Q 1516 384 1775 384 
Q 2178 384 2440 643 
Q 2703 903 2703 1303 
Q 2703 1709 2433 1975 
Q 2163 2241 1756 2241 
Q 1359 2241 1098 1978 
Q 838 1716 838 1322 
z
" transform="scale(0.015625)"/>
       </defs>
       <use xlink:href="#ArialMT-38"/>
       <use xlink:href="#ArialMT-6b" transform="translate(55.615234 0)"/>
       <use xlink:href="#ArialMT-63" transform="translate(105.615234 0)"/>
       <use xlink:href="#ArialMT-70" transform="translate(155.615234 0)"/>
      </g>
     </g>
    </g>
    <g id="xtick_6">
     <g id="line2d_11">
      <path d="M 150.051188 373.79838 
L 150.051188 28.778182 
" clip-path="url(#p7d8f221c4f)" style="fill: none; stroke: #b0b0b0; stroke-opacity: 0.3; stroke-width: 0.8; stroke-linecap: square"/>
     </g>
     <g id="line2d_12">
      <g>
       <use xlink:href="#m4678b61857" x="150.051188" y="373.79838" style="stroke: #000000; stroke-width: 0.8"/>
      </g>
     </g>
     <g id="text_6">
      <!-- 10kcp -->
      <g transform="translate(125.723621 409.538293) rotate(-45) scale(0.12 -0.12)">
       <defs>
        <path id="ArialMT-30" d="M 266 2259 
Q 266 3072 433 3567 
Q 600 4063 929 4331 
Q 1259 4600 1759 4600 
Q 2128 4600 2406 4451 
Q 2684 4303 2865 4023 
Q 3047 3744 3150 3342 
Q 3253 2941 3253 2259 
Q 3253 1453 3087 958 
Q 2922 463 2592 192 
Q 2263 -78 1759 -78 
Q 1097 -78 719 397 
Q 266 969 266 2259 
z
M 844 2259 
Q 844 1131 1108 757 
Q 1372 384 1759 384 
Q 2147 384 2411 759 
Q 2675 1134 2675 2259 
Q 2675 3391 2411 3762 
Q 2147 4134 1753 4134 
Q 1366 4134 1134 3806 
Q 844 3388 844 2259 
z
" transform="scale(0.015625)"/>
       </defs>
       <use xlink:href="#ArialMT-31"/>
       <use xlink:href="#ArialMT-30" transform="translate(55.615234 0)"/>
       <use xlink:href="#ArialMT-6b" transform="translate(111.230469 0)"/>
       <use xlink:href="#ArialMT-63" transform="translate(161.230469 0)"/>
       <use xlink:href="#ArialMT-70" transform="translate(211.230469 0)"/>
      </g>
     </g>
    </g>
    <g id="xtick_7">
     <g id="line2d_13">
      <path d="M 164.912448 373.79838 
L 164.912448 28.778182 
" clip-path="url(#p7d8f221c4f)" style="fill: none; stroke: #b0b0b0; stroke-opacity: 0.3; stroke-width: 0.8; stroke-linecap: square"/>
     </g>
     <g id="line2d_14">
      <g>
       <use xlink:href="#m4678b61857" x="164.912448" y="373.79838" style="stroke: #000000; stroke-width: 0.8"/>
      </g>
     </g>
     <g id="text_7">
      <!-- 12.5kcp -->
      <g transform="translate(133.508952 416.614222) rotate(-45) scale(0.12 -0.12)">
       <defs>
        <path id="ArialMT-2e" d="M 581 0 
L 581 641 
L 1222 641 
L 1222 0 
L 581 0 
z
" transform="scale(0.015625)"/>
       </defs>
       <use xlink:href="#ArialMT-31"/>
       <use xlink:href="#ArialMT-32" transform="translate(55.615234 0)"/>
       <use xlink:href="#ArialMT-2e" transform="translate(111.230469 0)"/>
       <use xlink:href="#ArialMT-35" transform="translate(139.013672 0)"/>
       <use xlink:href="#ArialMT-6b" transform="translate(194.628906 0)"/>
       <use xlink:href="#ArialMT-63" transform="translate(244.628906 0)"/>
       <use xlink:href="#ArialMT-70" transform="translate(294.628906 0)"/>
      </g>
     </g>
    </g>
    <g id="xtick_8">
     <g id="line2d_15">
      <path d="M 179.773709 373.79838 
L 179.773709 28.778182 
" clip-path="url(#p7d8f221c4f)" style="fill: none; stroke: #b0b0b0; stroke-opacity: 0.3; stroke-width: 0.8; stroke-linecap: square"/>
     </g>
     <g id="line2d_16">
      <g>
       <use xlink:href="#m4678b61857" x="179.773709" y="373.79838" style="stroke: #000000; stroke-width: 0.8"/>
      </g>
     </g>
     <g id="text_8">
      <!-- 15kcp -->
      <g transform="translate(155.446142 409.538293) rotate(-45) scale(0.12 -0.12)">
       <use xlink:href="#ArialMT-31"/>
       <use xlink:href="#ArialMT-35" transform="translate(55.615234 0)"/>
       <use xlink:href="#ArialMT-6b" transform="translate(111.230469 0)"/>
       <use xlink:href="#ArialMT-63" transform="translate(161.230469 0)"/>
       <use xlink:href="#ArialMT-70" transform="translate(211.230469 0)"/>
      </g>
     </g>
    </g>
    <g id="xtick_9">
     <g id="line2d_17">
      <path d="M 194.634969 373.79838 
L 194.634969 28.778182 
" clip-path="url(#p7d8f221c4f)" style="fill: none; stroke: #b0b0b0; stroke-opacity: 0.3; stroke-width: 0.8; stroke-linecap: square"/>
     </g>
     <g id="line2d_18">
      <g>
       <use xlink:href="#m4678b61857" x="194.634969" y="373.79838" style="stroke: #000000; stroke-width: 0.8"/>
      </g>
     </g>
     <g id="text_9">
      <!-- 20kcp -->
      <g transform="translate(170.307402 409.538293) rotate(-45) scale(0.12 -0.12)">
       <use xlink:href="#ArialMT-32"/>
       <use xlink:href="#ArialMT-30" transform="translate(55.615234 0)"/>
       <use xlink:href="#ArialMT-6b" transform="translate(111.230469 0)"/>
       <use xlink:href="#ArialMT-63" transform="translate(161.230469 0)"/>
       <use xlink:href="#ArialMT-70" transform="translate(211.230469 0)"/>
      </g>
     </g>
    </g>
    <g id="xtick_10">
     <g id="line2d_19">
      <path d="M 209.496229 373.79838 
L 209.496229 28.778182 
" clip-path="url(#p7d8f221c4f)" style="fill: none; stroke: #b0b0b0; stroke-opacity: 0.3; stroke-width: 0.8; stroke-linecap: square"/>
     </g>
     <g id="line2d_20">
      <g>
       <use xlink:href="#m4678b61857" x="209.496229" y="373.79838" style="stroke: #000000; stroke-width: 0.8"/>
      </g>
     </g>
     <g id="text_10">
      <!-- 25kcp -->
      <g transform="translate(185.168662 409.538293) rotate(-45) scale(0.12 -0.12)">
       <use xlink:href="#ArialMT-32"/>
       <use xlink:href="#ArialMT-35" transform="translate(55.615234 0)"/>
       <use xlink:href="#ArialMT-6b" transform="translate(111.230469 0)"/>
       <use xlink:href="#ArialMT-63" transform="translate(161.230469 0)"/>
       <use xlink:href="#ArialMT-70" transform="translate(211.230469 0)"/>
      </g>
     </g>
    </g>
    <g id="xtick_11">
     <g id="line2d_21">
      <path d="M 224.35749 373.79838 
L 224.35749 28.778182 
" clip-path="url(#p7d8f221c4f)" style="fill: none; stroke: #b0b0b0; stroke-opacity: 0.3; stroke-width: 0.8; stroke-linecap: square"/>
     </g>
     <g id="line2d_22">
      <g>
       <use xlink:href="#m4678b61857" x="224.35749" y="373.79838" style="stroke: #000000; stroke-width: 0.8"/>
      </g>
     </g>
     <g id="text_11">
      <!-- 30kcp -->
      <g transform="translate(200.029923 409.538293) rotate(-45) scale(0.12 -0.12)">
       <defs>
        <path id="ArialMT-33" d="M 269 1209 
L 831 1284 
Q 928 806 1161 595 
Q 1394 384 1728 384 
Q 2125 384 2398 659 
Q 2672 934 2672 1341 
Q 2672 1728 2419 1979 
Q 2166 2231 1775 2231 
Q 1616 2231 1378 2169 
L 1441 2663 
Q 1497 2656 1531 2656 
Q 1891 2656 2178 2843 
Q 2466 3031 2466 3422 
Q 2466 3731 2256 3934 
Q 2047 4138 1716 4138 
Q 1388 4138 1169 3931 
Q 950 3725 888 3313 
L 325 3413 
Q 428 3978 793 4289 
Q 1159 4600 1703 4600 
Q 2078 4600 2393 4439 
Q 2709 4278 2876 4000 
Q 3044 3722 3044 3409 
Q 3044 3113 2884 2869 
Q 2725 2625 2413 2481 
Q 2819 2388 3044 2092 
Q 3269 1797 3269 1353 
Q 3269 753 2831 336 
Q 2394 -81 1725 -81 
Q 1122 -81 723 278 
Q 325 638 269 1209 
z
" transform="scale(0.015625)"/>
       </defs>
       <use xlink:href="#ArialMT-33"/>
       <use xlink:href="#ArialMT-30" transform="translate(55.615234 0)"/>
       <use xlink:href="#ArialMT-6b" transform="translate(111.230469 0)"/>
       <use xlink:href="#ArialMT-63" transform="translate(161.230469 0)"/>
       <use xlink:href="#ArialMT-70" transform="translate(211.230469 0)"/>
      </g>
     </g>
    </g>
    <g id="xtick_12">
     <g id="line2d_23">
      <path d="M 239.21875 373.79838 
L 239.21875 28.778182 
" clip-path="url(#p7d8f221c4f)" style="fill: none; stroke: #b0b0b0; stroke-opacity: 0.3; stroke-width: 0.8; stroke-linecap: square"/>
     </g>
     <g id="line2d_24">
      <g>
       <use xlink:href="#m4678b61857" x="239.21875" y="373.79838" style="stroke: #000000; stroke-width: 0.8"/>
      </g>
     </g>
     <g id="text_12">
      <!-- 35kcp -->
      <g transform="translate(214.891183 409.538293) rotate(-45) scale(0.12 -0.12)">
       <use xlink:href="#ArialMT-33"/>
       <use xlink:href="#ArialMT-35" transform="translate(55.615234 0)"/>
       <use xlink:href="#ArialMT-6b" transform="translate(111.230469 0)"/>
       <use xlink:href="#ArialMT-63" transform="translate(161.230469 0)"/>
       <use xlink:href="#ArialMT-70" transform="translate(211.230469 0)"/>
      </g>
     </g>
    </g>
    <g id="xtick_13">
     <g id="line2d_25">
      <path d="M 254.08001 373.79838 
L 254.08001 28.778182 
" clip-path="url(#p7d8f221c4f)" style="fill: none; stroke: #b0b0b0; stroke-opacity: 0.3; stroke-width: 0.8; stroke-linecap: square"/>
     </g>
     <g id="line2d_26">
      <g>
       <use xlink:href="#m4678b61857" x="254.08001" y="373.79838" style="stroke: #000000; stroke-width: 0.8"/>
      </g>
     </g>
     <g id="text_13">
      <!-- 40kcp -->
      <g transform="translate(229.752443 409.538293) rotate(-45) scale(0.12 -0.12)">
       <use xlink:href="#ArialMT-34"/>
       <use xlink:href="#ArialMT-30" transform="translate(55.615234 0)"/>
       <use xlink:href="#ArialMT-6b" transform="translate(111.230469 0)"/>
       <use xlink:href="#ArialMT-63" transform="translate(161.230469 0)"/>
       <use xlink:href="#ArialMT-70" transform="translate(211.230469 0)"/>
      </g>
     </g>
    </g>
    <g id="xtick_14">
     <g id="line2d_27">
      <path d="M 268.941271 373.79838 
L 268.941271 28.778182 
" clip-path="url(#p7d8f221c4f)" style="fill: none; stroke: #b0b0b0; stroke-opacity: 0.3; stroke-width: 0.8; stroke-linecap: square"/>
     </g>
     <g id="line2d_28">
      <g>
       <use xlink:href="#m4678b61857" x="268.941271" y="373.79838" style="stroke: #000000; stroke-width: 0.8"/>
      </g>
     </g>
     <g id="text_14">
      <!-- 45kcp -->
      <g transform="translate(244.613704 409.513102) rotate(-45) scale(0.12 -0.12)">
       <use xlink:href="#ArialMT-34"/>
       <use xlink:href="#ArialMT-35" transform="translate(55.615234 0)"/>
       <use xlink:href="#ArialMT-6b" transform="translate(111.230469 0)"/>
       <use xlink:href="#ArialMT-63" transform="translate(161.230469 0)"/>
       <use xlink:href="#ArialMT-70" transform="translate(211.230469 0)"/>
      </g>
     </g>
    </g>
    <g id="xtick_15">
     <g id="line2d_29">
      <path d="M 283.802531 373.79838 
L 283.802531 28.778182 
" clip-path="url(#p7d8f221c4f)" style="fill: none; stroke: #b0b0b0; stroke-opacity: 0.3; stroke-width: 0.8; stroke-linecap: square"/>
     </g>
     <g id="line2d_30">
      <g>
       <use xlink:href="#m4678b61857" x="283.802531" y="373.79838" style="stroke: #000000; stroke-width: 0.8"/>
      </g>
     </g>
     <g id="text_15">
      <!-- 50kcp -->
      <g transform="translate(259.474964 409.538293) rotate(-45) scale(0.12 -0.12)">
       <use xlink:href="#ArialMT-35"/>
       <use xlink:href="#ArialMT-30" transform="translate(55.615234 0)"/>
       <use xlink:href="#ArialMT-6b" transform="translate(111.230469 0)"/>
       <use xlink:href="#ArialMT-63" transform="translate(161.230469 0)"/>
       <use xlink:href="#ArialMT-70" transform="translate(211.230469 0)"/>
      </g>
     </g>
    </g>
    <g id="xtick_16">
     <g id="line2d_31">
      <path d="M 298.663791 373.79838 
L 298.663791 28.778182 
" clip-path="url(#p7d8f221c4f)" style="fill: none; stroke: #b0b0b0; stroke-opacity: 0.3; stroke-width: 0.8; stroke-linecap: square"/>
     </g>
     <g id="line2d_32">
      <g>
       <use xlink:href="#m4678b61857" x="298.663791" y="373.79838" style="stroke: #000000; stroke-width: 0.8"/>
      </g>
     </g>
     <g id="text_16">
      <!-- 55kcp -->
      <g transform="translate(274.336224 409.513102) rotate(-45) scale(0.12 -0.12)">
       <use xlink:href="#ArialMT-35"/>
       <use xlink:href="#ArialMT-35" transform="translate(55.615234 0)"/>
       <use xlink:href="#ArialMT-6b" transform="translate(111.230469 0)"/>
       <use xlink:href="#ArialMT-63" transform="translate(161.230469 0)"/>
       <use xlink:href="#ArialMT-70" transform="translate(211.230469 0)"/>
      </g>
     </g>
    </g>
    <g id="xtick_17">
     <g id="line2d_33">
      <path d="M 313.525052 373.79838 
L 313.525052 28.778182 
" clip-path="url(#p7d8f221c4f)" style="fill: none; stroke: #b0b0b0; stroke-opacity: 0.3; stroke-width: 0.8; stroke-linecap: square"/>
     </g>
     <g id="line2d_34">
      <g>
       <use xlink:href="#m4678b61857" x="313.525052" y="373.79838" style="stroke: #000000; stroke-width: 0.8"/>
      </g>
     </g>
     <g id="text_17">
      <!-- 60kcp -->
      <g transform="translate(289.197485 409.538293) rotate(-45) scale(0.12 -0.12)">
       <defs>
        <path id="ArialMT-36" d="M 3184 3459 
L 2625 3416 
Q 2550 3747 2413 3897 
Q 2184 4138 1850 4138 
Q 1581 4138 1378 3988 
Q 1113 3794 959 3422 
Q 806 3050 800 2363 
Q 1003 2672 1297 2822 
Q 1591 2972 1913 2972 
Q 2475 2972 2870 2558 
Q 3266 2144 3266 1488 
Q 3266 1056 3080 686 
Q 2894 316 2569 119 
Q 2244 -78 1831 -78 
Q 1128 -78 684 439 
Q 241 956 241 2144 
Q 241 3472 731 4075 
Q 1159 4600 1884 4600 
Q 2425 4600 2770 4297 
Q 3116 3994 3184 3459 
z
M 888 1484 
Q 888 1194 1011 928 
Q 1134 663 1356 523 
Q 1578 384 1822 384 
Q 2178 384 2434 671 
Q 2691 959 2691 1453 
Q 2691 1928 2437 2201 
Q 2184 2475 1800 2475 
Q 1419 2475 1153 2201 
Q 888 1928 888 1484 
z
" transform="scale(0.015625)"/>
       </defs>
       <use xlink:href="#ArialMT-36"/>
       <use xlink:href="#ArialMT-30" transform="translate(55.615234 0)"/>
       <use xlink:href="#ArialMT-6b" transform="translate(111.230469 0)"/>
       <use xlink:href="#ArialMT-63" transform="translate(161.230469 0)"/>
       <use xlink:href="#ArialMT-70" transform="translate(211.230469 0)"/>
      </g>
     </g>
    </g>
    <g id="xtick_18">
     <g id="line2d_35">
      <path d="M 328.386312 373.79838 
L 328.386312 28.778182 
" clip-path="url(#p7d8f221c4f)" style="fill: none; stroke: #b0b0b0; stroke-opacity: 0.3; stroke-width: 0.8; stroke-linecap: square"/>
     </g>
     <g id="line2d_36">
      <g>
       <use xlink:href="#m4678b61857" x="328.386312" y="373.79838" style="stroke: #000000; stroke-width: 0.8"/>
      </g>
     </g>
     <g id="text_18">
      <!-- 70kcp -->
      <g transform="translate(304.058745 409.538293) rotate(-45) scale(0.12 -0.12)">
       <defs>
        <path id="ArialMT-37" d="M 303 3981 
L 303 4522 
L 3269 4522 
L 3269 4084 
Q 2831 3619 2401 2847 
Q 1972 2075 1738 1259 
Q 1569 684 1522 0 
L 944 0 
Q 953 541 1156 1306 
Q 1359 2072 1739 2783 
Q 2119 3494 2547 3981 
L 303 3981 
z
" transform="scale(0.015625)"/>
       </defs>
       <use xlink:href="#ArialMT-37"/>
       <use xlink:href="#ArialMT-30" transform="translate(55.615234 0)"/>
       <use xlink:href="#ArialMT-6b" transform="translate(111.230469 0)"/>
       <use xlink:href="#ArialMT-63" transform="translate(161.230469 0)"/>
       <use xlink:href="#ArialMT-70" transform="translate(211.230469 0)"/>
      </g>
     </g>
    </g>
    <g id="xtick_19">
     <g id="line2d_37">
      <path d="M 343.247572 373.79838 
L 343.247572 28.778182 
" clip-path="url(#p7d8f221c4f)" style="fill: none; stroke: #b0b0b0; stroke-opacity: 0.3; stroke-width: 0.8; stroke-linecap: square"/>
     </g>
     <g id="line2d_38">
      <g>
       <use xlink:href="#m4678b61857" x="343.247572" y="373.79838" style="stroke: #000000; stroke-width: 0.8"/>
      </g>
     </g>
     <g id="text_19">
      <!-- 75kcp -->
      <g transform="translate(318.920005 409.513102) rotate(-45) scale(0.12 -0.12)">
       <use xlink:href="#ArialMT-37"/>
       <use xlink:href="#ArialMT-35" transform="translate(55.615234 0)"/>
       <use xlink:href="#ArialMT-6b" transform="translate(111.230469 0)"/>
       <use xlink:href="#ArialMT-63" transform="translate(161.230469 0)"/>
       <use xlink:href="#ArialMT-70" transform="translate(211.230469 0)"/>
      </g>
     </g>
    </g>
    <g id="xtick_20">
     <g id="line2d_39">
      <path d="M 358.108833 373.79838 
L 358.108833 28.778182 
" clip-path="url(#p7d8f221c4f)" style="fill: none; stroke: #b0b0b0; stroke-opacity: 0.3; stroke-width: 0.8; stroke-linecap: square"/>
     </g>
     <g id="line2d_40">
      <g>
       <use xlink:href="#m4678b61857" x="358.108833" y="373.79838" style="stroke: #000000; stroke-width: 0.8"/>
      </g>
     </g>
     <g id="text_20">
      <!-- 80kcp -->
      <g transform="translate(333.781266 409.538293) rotate(-45) scale(0.12 -0.12)">
       <use xlink:href="#ArialMT-38"/>
       <use xlink:href="#ArialMT-30" transform="translate(55.615234 0)"/>
       <use xlink:href="#ArialMT-6b" transform="translate(111.230469 0)"/>
       <use xlink:href="#ArialMT-63" transform="translate(161.230469 0)"/>
       <use xlink:href="#ArialMT-70" transform="translate(211.230469 0)"/>
      </g>
     </g>
    </g>
    <g id="xtick_21">
     <g id="line2d_41">
      <path d="M 372.970093 373.79838 
L 372.970093 28.778182 
" clip-path="url(#p7d8f221c4f)" style="fill: none; stroke: #b0b0b0; stroke-opacity: 0.3; stroke-width: 0.8; stroke-linecap: square"/>
     </g>
     <g id="line2d_42">
      <g>
       <use xlink:href="#m4678b61857" x="372.970093" y="373.79838" style="stroke: #000000; stroke-width: 0.8"/>
      </g>
     </g>
     <g id="text_21">
      <!-- 90kcp -->
      <g transform="translate(348.642526 409.538293) rotate(-45) scale(0.12 -0.12)">
       <defs>
        <path id="ArialMT-39" d="M 350 1059 
L 891 1109 
Q 959 728 1153 556 
Q 1347 384 1650 384 
Q 1909 384 2104 503 
Q 2300 622 2425 820 
Q 2550 1019 2634 1356 
Q 2719 1694 2719 2044 
Q 2719 2081 2716 2156 
Q 2547 1888 2255 1720 
Q 1963 1553 1622 1553 
Q 1053 1553 659 1965 
Q 266 2378 266 3053 
Q 266 3750 677 4175 
Q 1088 4600 1706 4600 
Q 2153 4600 2523 4359 
Q 2894 4119 3086 3673 
Q 3278 3228 3278 2384 
Q 3278 1506 3087 986 
Q 2897 466 2520 194 
Q 2144 -78 1638 -78 
Q 1100 -78 759 220 
Q 419 519 350 1059 
z
M 2653 3081 
Q 2653 3566 2395 3850 
Q 2138 4134 1775 4134 
Q 1400 4134 1122 3828 
Q 844 3522 844 3034 
Q 844 2597 1108 2323 
Q 1372 2050 1759 2050 
Q 2150 2050 2401 2323 
Q 2653 2597 2653 3081 
z
" transform="scale(0.015625)"/>
       </defs>
       <use xlink:href="#ArialMT-39"/>
       <use xlink:href="#ArialMT-30" transform="translate(55.615234 0)"/>
       <use xlink:href="#ArialMT-6b" transform="translate(111.230469 0)"/>
       <use xlink:href="#ArialMT-63" transform="translate(161.230469 0)"/>
       <use xlink:href="#ArialMT-70" transform="translate(211.230469 0)"/>
      </g>
     </g>
    </g>
    <g id="xtick_22">
     <g id="line2d_43">
      <path d="M 387.831353 373.79838 
L 387.831353 28.778182 
" clip-path="url(#p7d8f221c4f)" style="fill: none; stroke: #b0b0b0; stroke-opacity: 0.3; stroke-width: 0.8; stroke-linecap: square"/>
     </g>
     <g id="line2d_44">
      <g>
       <use xlink:href="#m4678b61857" x="387.831353" y="373.79838" style="stroke: #000000; stroke-width: 0.8"/>
      </g>
     </g>
     <g id="text_22">
      <!-- 95kcp -->
      <g transform="translate(363.503786 409.538293) rotate(-45) scale(0.12 -0.12)">
       <use xlink:href="#ArialMT-39"/>
       <use xlink:href="#ArialMT-35" transform="translate(55.615234 0)"/>
       <use xlink:href="#ArialMT-6b" transform="translate(111.230469 0)"/>
       <use xlink:href="#ArialMT-63" transform="translate(161.230469 0)"/>
       <use xlink:href="#ArialMT-70" transform="translate(211.230469 0)"/>
      </g>
     </g>
    </g>
    <g id="xtick_23">
     <g id="line2d_45">
      <path d="M 402.692614 373.79838 
L 402.692614 28.778182 
" clip-path="url(#p7d8f221c4f)" style="fill: none; stroke: #b0b0b0; stroke-opacity: 0.3; stroke-width: 0.8; stroke-linecap: square"/>
     </g>
     <g id="line2d_46">
      <g>
       <use xlink:href="#m4678b61857" x="402.692614" y="373.79838" style="stroke: #000000; stroke-width: 0.8"/>
      </g>
     </g>
     <g id="text_23">
      <!-- 100kcp -->
      <g transform="translate(373.646435 414.256905) rotate(-45) scale(0.12 -0.12)">
       <use xlink:href="#ArialMT-31"/>
       <use xlink:href="#ArialMT-30" transform="translate(55.615234 0)"/>
       <use xlink:href="#ArialMT-30" transform="translate(111.230469 0)"/>
       <use xlink:href="#ArialMT-6b" transform="translate(166.845703 0)"/>
       <use xlink:href="#ArialMT-63" transform="translate(216.845703 0)"/>
       <use xlink:href="#ArialMT-70" transform="translate(266.845703 0)"/>
      </g>
     </g>
    </g>
   </g>
   <g id="matplotlib.axis_2">
    <g id="ytick_1">
     <g id="line2d_47">
      <path d="M 59.3975 338.900759 
L 419.04 338.900759 
" clip-path="url(#p7d8f221c4f)" style="fill: none; stroke: #b0b0b0; stroke-opacity: 0.3; stroke-width: 0.8; stroke-linecap: square"/>
     </g>
     <g id="line2d_48">
      <defs>
       <path id="mf7e7ba1c11" d="M 0 0 
L -3.5 0 
" style="stroke: #000000; stroke-width: 0.8"/>
      </defs>
      <g>
       <use xlink:href="#mf7e7ba1c11" x="59.3975" y="338.900759" style="stroke: #000000; stroke-width: 0.8"/>
      </g>
     </g>
     <g id="text_24">
      <!-- 0.36 -->
      <g transform="translate(29.044375 343.195447) scale(0.12 -0.12)">
       <use xlink:href="#ArialMT-30"/>
       <use xlink:href="#ArialMT-2e" transform="translate(55.615234 0)"/>
       <use xlink:href="#ArialMT-33" transform="translate(83.398438 0)"/>
       <use xlink:href="#ArialMT-36" transform="translate(139.013672 0)"/>
      </g>
     </g>
    </g>
    <g id="ytick_2">
     <g id="line2d_49">
      <path d="M 59.3975 282.386394 
L 419.04 282.386394 
" clip-path="url(#p7d8f221c4f)" style="fill: none; stroke: #b0b0b0; stroke-opacity: 0.3; stroke-width: 0.8; stroke-linecap: square"/>
     </g>
     <g id="line2d_50">
      <g>
       <use xlink:href="#mf7e7ba1c11" x="59.3975" y="282.386394" style="stroke: #000000; stroke-width: 0.8"/>
      </g>
     </g>
     <g id="text_25">
      <!-- 0.38 -->
      <g transform="translate(29.044375 286.681082) scale(0.12 -0.12)">
       <use xlink:href="#ArialMT-30"/>
       <use xlink:href="#ArialMT-2e" transform="translate(55.615234 0)"/>
       <use xlink:href="#ArialMT-33" transform="translate(83.398438 0)"/>
       <use xlink:href="#ArialMT-38" transform="translate(139.013672 0)"/>
      </g>
     </g>
    </g>
    <g id="ytick_3">
     <g id="line2d_51">
      <path d="M 59.3975 225.872029 
L 419.04 225.872029 
" clip-path="url(#p7d8f221c4f)" style="fill: none; stroke: #b0b0b0; stroke-opacity: 0.3; stroke-width: 0.8; stroke-linecap: square"/>
     </g>
     <g id="line2d_52">
      <g>
       <use xlink:href="#mf7e7ba1c11" x="59.3975" y="225.872029" style="stroke: #000000; stroke-width: 0.8"/>
      </g>
     </g>
     <g id="text_26">
      <!-- 0.40 -->
      <g transform="translate(29.044375 230.166717) scale(0.12 -0.12)">
       <use xlink:href="#ArialMT-30"/>
       <use xlink:href="#ArialMT-2e" transform="translate(55.615234 0)"/>
       <use xlink:href="#ArialMT-34" transform="translate(83.398438 0)"/>
       <use xlink:href="#ArialMT-30" transform="translate(139.013672 0)"/>
      </g>
     </g>
    </g>
    <g id="ytick_4">
     <g id="line2d_53">
      <path d="M 59.3975 169.357665 
L 419.04 169.357665 
" clip-path="url(#p7d8f221c4f)" style="fill: none; stroke: #b0b0b0; stroke-opacity: 0.3; stroke-width: 0.8; stroke-linecap: square"/>
     </g>
     <g id="line2d_54">
      <g>
       <use xlink:href="#mf7e7ba1c11" x="59.3975" y="169.357665" style="stroke: #000000; stroke-width: 0.8"/>
      </g>
     </g>
     <g id="text_27">
      <!-- 0.42 -->
      <g transform="translate(29.044375 173.652352) scale(0.12 -0.12)">
       <use xlink:href="#ArialMT-30"/>
       <use xlink:href="#ArialMT-2e" transform="translate(55.615234 0)"/>
       <use xlink:href="#ArialMT-34" transform="translate(83.398438 0)"/>
       <use xlink:href="#ArialMT-32" transform="translate(139.013672 0)"/>
      </g>
     </g>
    </g>
    <g id="ytick_5">
     <g id="line2d_55">
      <path d="M 59.3975 112.8433 
L 419.04 112.8433 
" clip-path="url(#p7d8f221c4f)" style="fill: none; stroke: #b0b0b0; stroke-opacity: 0.3; stroke-width: 0.8; stroke-linecap: square"/>
     </g>
     <g id="line2d_56">
      <g>
       <use xlink:href="#mf7e7ba1c11" x="59.3975" y="112.8433" style="stroke: #000000; stroke-width: 0.8"/>
      </g>
     </g>
     <g id="text_28">
      <!-- 0.44 -->
      <g transform="translate(29.044375 117.137987) scale(0.12 -0.12)">
       <use xlink:href="#ArialMT-30"/>
       <use xlink:href="#ArialMT-2e" transform="translate(55.615234 0)"/>
       <use xlink:href="#ArialMT-34" transform="translate(83.398438 0)"/>
       <use xlink:href="#ArialMT-34" transform="translate(139.013672 0)"/>
      </g>
     </g>
    </g>
    <g id="ytick_6">
     <g id="line2d_57">
      <path d="M 59.3975 56.328935 
L 419.04 56.328935 
" clip-path="url(#p7d8f221c4f)" style="fill: none; stroke: #b0b0b0; stroke-opacity: 0.3; stroke-width: 0.8; stroke-linecap: square"/>
     </g>
     <g id="line2d_58">
      <g>
       <use xlink:href="#mf7e7ba1c11" x="59.3975" y="56.328935" style="stroke: #000000; stroke-width: 0.8"/>
      </g>
     </g>
     <g id="text_29">
      <!-- 0.46 -->
      <g transform="translate(29.044375 60.623622) scale(0.12 -0.12)">
       <use xlink:href="#ArialMT-30"/>
       <use xlink:href="#ArialMT-2e" transform="translate(55.615234 0)"/>
       <use xlink:href="#ArialMT-34" transform="translate(83.398438 0)"/>
       <use xlink:href="#ArialMT-36" transform="translate(139.013672 0)"/>
      </g>
     </g>
    </g>
    <g id="text_30">
     <!-- h_c (mm) -->
     <g transform="translate(22.51875 226.619531) rotate(-90) scale(0.12 -0.12)">
      <defs>
       <path id="ArialMT-68" d="M 422 0 
L 422 4581 
L 984 4581 
L 984 2938 
Q 1378 3394 1978 3394 
Q 2347 3394 2619 3248 
Q 2891 3103 3008 2847 
Q 3125 2591 3125 2103 
L 3125 0 
L 2563 0 
L 2563 2103 
Q 2563 2525 2380 2717 
Q 2197 2909 1863 2909 
Q 1613 2909 1392 2779 
Q 1172 2650 1078 2428 
Q 984 2206 984 1816 
L 984 0 
L 422 0 
z
" transform="scale(0.015625)"/>
       <path id="ArialMT-5f" d="M -97 -1272 
L -97 -866 
L 3631 -866 
L 3631 -1272 
L -97 -1272 
z
" transform="scale(0.015625)"/>
       <path id="ArialMT-20" transform="scale(0.015625)"/>
       <path id="ArialMT-28" d="M 1497 -1347 
Q 1031 -759 709 28 
Q 388 816 388 1659 
Q 388 2403 628 3084 
Q 909 3875 1497 4659 
L 1900 4659 
Q 1522 4009 1400 3731 
Q 1209 3300 1100 2831 
Q 966 2247 966 1656 
Q 966 153 1900 -1347 
L 1497 -1347 
z
" transform="scale(0.015625)"/>
       <path id="ArialMT-6d" d="M 422 0 
L 422 3319 
L 925 3319 
L 925 2853 
Q 1081 3097 1340 3245 
Q 1600 3394 1931 3394 
Q 2300 3394 2536 3241 
Q 2772 3088 2869 2813 
Q 3263 3394 3894 3394 
Q 4388 3394 4653 3120 
Q 4919 2847 4919 2278 
L 4919 0 
L 4359 0 
L 4359 2091 
Q 4359 2428 4304 2576 
Q 4250 2725 4106 2815 
Q 3963 2906 3769 2906 
Q 3419 2906 3187 2673 
Q 2956 2441 2956 1928 
L 2956 0 
L 2394 0 
L 2394 2156 
Q 2394 2531 2256 2718 
Q 2119 2906 1806 2906 
Q 1569 2906 1367 2781 
Q 1166 2656 1075 2415 
Q 984 2175 984 1722 
L 984 0 
L 422 0 
z
" transform="scale(0.015625)"/>
       <path id="ArialMT-29" d="M 791 -1347 
L 388 -1347 
Q 1322 153 1322 1656 
Q 1322 2244 1188 2822 
Q 1081 3291 891 3722 
Q 769 4003 388 4659 
L 791 4659 
Q 1378 3875 1659 3084 
Q 1900 2403 1900 1659 
Q 1900 816 1576 28 
Q 1253 -759 791 -1347 
z
" transform="scale(0.015625)"/>
      </defs>
      <use xlink:href="#ArialMT-68"/>
      <use xlink:href="#ArialMT-5f" transform="translate(55.615234 0)"/>
      <use xlink:href="#ArialMT-63" transform="translate(111.230469 0)"/>
      <use xlink:href="#ArialMT-20" transform="translate(161.230469 0)"/>
      <use xlink:href="#ArialMT-28" transform="translate(189.013672 0)"/>
      <use xlink:href="#ArialMT-6d" transform="translate(222.314453 0)"/>
      <use xlink:href="#ArialMT-6d" transform="translate(305.615234 0)"/>
      <use xlink:href="#ArialMT-29" transform="translate(388.916016 0)"/>
     </g>
    </g>
   </g>
   <g id="LineCollection_1">
    <path d="M 75.744886 291.541721 
L 75.744886 270.461863 
" clip-path="url(#p7d8f221c4f)" style="fill: #4285f4; stroke: #4285f4; stroke-width: 1.6"/>
    <path d="M 90.606147 315.136469 
L 90.606147 280.493163 
" clip-path="url(#p7d8f221c4f)" style="fill: #4285f4; stroke: #4285f4; stroke-width: 1.6"/>
    <path d="M 105.467407 231.806038 
L 105.467407 199.818907 
" clip-path="url(#p7d8f221c4f)" style="fill: #4285f4; stroke: #4285f4; stroke-width: 1.6"/>
    <path d="M 120.328667 321.889935 
L 120.328667 270.574892 
" clip-path="url(#p7d8f221c4f)" style="fill: #4285f4; stroke: #4285f4; stroke-width: 1.6"/>
    <path d="M 135.189928 238.70079 
L 135.189928 196.654103 
" clip-path="url(#p7d8f221c4f)" style="fill: #4285f4; stroke: #4285f4; stroke-width: 1.6"/>
    <path d="M 150.051188 109.339409 
L 150.051188 44.460918 
" clip-path="url(#p7d8f221c4f)" style="fill: #4285f4; stroke: #4285f4; stroke-width: 1.6"/>
    <path d="M 164.912448 251.783866 
L 164.912448 208.493862 
" clip-path="url(#p7d8f221c4f)" style="fill: #4285f4; stroke: #4285f4; stroke-width: 1.6"/>
    <path d="M 179.773709 163.169342 
L 179.773709 74.837389 
" clip-path="url(#p7d8f221c4f)" style="fill: #4285f4; stroke: #4285f4; stroke-width: 1.6"/>
    <path d="M 194.634969 334.775211 
L 194.634969 291.372178 
" clip-path="url(#p7d8f221c4f)" style="fill: #4285f4; stroke: #4285f4; stroke-width: 1.6"/>
    <path d="M 209.496229 314.656097 
L 209.496229 277.243587 
" clip-path="url(#p7d8f221c4f)" style="fill: #4285f4; stroke: #4285f4; stroke-width: 1.6"/>
    <path d="M 224.35749 358.115643 
L 224.35749 305.726827 
" clip-path="url(#p7d8f221c4f)" style="fill: #4285f4; stroke: #4285f4; stroke-width: 1.6"/>
    <path d="M 239.21875 301.940365 
L 239.21875 222.424653 
" clip-path="url(#p7d8f221c4f)" style="fill: #4285f4; stroke: #4285f4; stroke-width: 1.6"/>
    <path d="M 254.08001 119.25768 
L 254.08001 76.250248 
" clip-path="url(#p7d8f221c4f)" style="fill: #4285f4; stroke: #4285f4; stroke-width: 1.6"/>
    <path d="M 268.941271 263.228025 
L 268.941271 232.992839 
" clip-path="url(#p7d8f221c4f)" style="fill: #4285f4; stroke: #4285f4; stroke-width: 1.6"/>
    <path d="M 283.802531 211.008751 
L 283.802531 182.24294 
" clip-path="url(#p7d8f221c4f)" style="fill: #4285f4; stroke: #4285f4; stroke-width: 1.6"/>
    <path d="M 298.663791 136.692362 
L 298.663791 98.488651 
" clip-path="url(#p7d8f221c4f)" style="fill: #4285f4; stroke: #4285f4; stroke-width: 1.6"/>
    <path d="M 313.525052 220.870508 
L 313.525052 181.14091 
" clip-path="url(#p7d8f221c4f)" style="fill: #4285f4; stroke: #4285f4; stroke-width: 1.6"/>
    <path d="M 328.386312 181.056138 
L 328.386312 142.569856 
" clip-path="url(#p7d8f221c4f)" style="fill: #4285f4; stroke: #4285f4; stroke-width: 1.6"/>
    <path d="M 343.247572 218.468648 
L 343.247572 186.142431 
" clip-path="url(#p7d8f221c4f)" style="fill: #4285f4; stroke: #4285f4; stroke-width: 1.6"/>
    <path d="M 358.108833 334.973011 
L 358.108833 253.987926 
" clip-path="url(#p7d8f221c4f)" style="fill: #4285f4; stroke: #4285f4; stroke-width: 1.6"/>
    <path d="M 372.970093 176.082874 
L 372.970093 152.968499 
" clip-path="url(#p7d8f221c4f)" style="fill: #4285f4; stroke: #4285f4; stroke-width: 1.6"/>
    <path d="M 387.831353 281.708222 
L 387.831353 247.290974 
" clip-path="url(#p7d8f221c4f)" style="fill: #4285f4; stroke: #4285f4; stroke-width: 1.6"/>
    <path d="M 402.692614 108.435179 
L 402.692614 80.234511 
" clip-path="url(#p7d8f221c4f)" style="fill: #4285f4; stroke: #4285f4; stroke-width: 1.6"/>
   </g>
   <g id="line2d_59">
    <defs>
     <path id="ma3c0c300cd" d="M 3 0 
L -3 -0 
" style="stroke: #db4437"/>
    </defs>
    <g clip-path="url(#p7d8f221c4f)">
     <use xlink:href="#ma3c0c300cd" x="75.744886" y="291.541721" style="fill: #db4437; stroke: #db4437"/>
     <use xlink:href="#ma3c0c300cd" x="90.606147" y="315.136469" style="fill: #db4437; stroke: #db4437"/>
     <use xlink:href="#ma3c0c300cd" x="105.467407" y="231.806038" style="fill: #db4437; stroke: #db4437"/>
     <use xlink:href="#ma3c0c300cd" x="120.328667" y="321.889935" style="fill: #db4437; stroke: #db4437"/>
     <use xlink:href="#ma3c0c300cd" x="135.189928" y="238.70079" style="fill: #db4437; stroke: #db4437"/>
     <use xlink:href="#ma3c0c300cd" x="150.051188" y="109.339409" style="fill: #db4437; stroke: #db4437"/>
     <use xlink:href="#ma3c0c300cd" x="164.912448" y="251.783866" style="fill: #db4437; stroke: #db4437"/>
     <use xlink:href="#ma3c0c300cd" x="179.773709" y="163.169342" style="fill: #db4437; stroke: #db4437"/>
     <use xlink:href="#ma3c0c300cd" x="194.634969" y="334.775211" style="fill: #db4437; stroke: #db4437"/>
     <use xlink:href="#ma3c0c300cd" x="209.496229" y="314.656097" style="fill: #db4437; stroke: #db4437"/>
     <use xlink:href="#ma3c0c300cd" x="224.35749" y="358.115643" style="fill: #db4437; stroke: #db4437"/>
     <use xlink:href="#ma3c0c300cd" x="239.21875" y="301.940365" style="fill: #db4437; stroke: #db4437"/>
     <use xlink:href="#ma3c0c300cd" x="254.08001" y="119.25768" style="fill: #db4437; stroke: #db4437"/>
     <use xlink:href="#ma3c0c300cd" x="268.941271" y="263.228025" style="fill: #db4437; stroke: #db4437"/>
     <use xlink:href="#ma3c0c300cd" x="283.802531" y="211.008751" style="fill: #db4437; stroke: #db4437"/>
     <use xlink:href="#ma3c0c300cd" x="298.663791" y="136.692362" style="fill: #db4437; stroke: #db4437"/>
     <use xlink:href="#ma3c0c300cd" x="313.525052" y="220.870508" style="fill: #db4437; stroke: #db4437"/>
     <use xlink:href="#ma3c0c300cd" x="328.386312" y="181.056138" style="fill: #db4437; stroke: #db4437"/>
     <use xlink:href="#ma3c0c300cd" x="343.247572" y="218.468648" style="fill: #db4437; stroke: #db4437"/>
     <use xlink:href="#ma3c0c300cd" x="358.108833" y="334.973011" style="fill: #db4437; stroke: #db4437"/>
     <use xlink:href="#ma3c0c300cd" x="372.970093" y="176.082874" style="fill: #db4437; stroke: #db4437"/>
     <use xlink:href="#ma3c0c300cd" x="387.831353" y="281.708222" style="fill: #db4437; stroke: #db4437"/>
     <use xlink:href="#ma3c0c300cd" x="402.692614" y="108.435179" style="fill: #db4437; stroke: #db4437"/>
    </g>
   </g>
   <g id="line2d_60">
    <defs>
     <path id="m6ef087cfa8" d="M 3 0 
L -3 -0 
" style="stroke: #f4b400"/>
    </defs>
    <g clip-path="url(#p7d8f221c4f)">
     <use xlink:href="#m6ef087cfa8" x="75.744886" y="270.461863" style="fill: #f4b400; stroke: #f4b400"/>
     <use xlink:href="#m6ef087cfa8" x="90.606147" y="280.493163" style="fill: #f4b400; stroke: #f4b400"/>
     <use xlink:href="#m6ef087cfa8" x="105.467407" y="199.818907" style="fill: #f4b400; stroke: #f4b400"/>
     <use xlink:href="#m6ef087cfa8" x="120.328667" y="270.574892" style="fill: #f4b400; stroke: #f4b400"/>
     <use xlink:href="#m6ef087cfa8" x="135.189928" y="196.654103" style="fill: #f4b400; stroke: #f4b400"/>
     <use xlink:href="#m6ef087cfa8" x="150.051188" y="44.460918" style="fill: #f4b400; stroke: #f4b400"/>
     <use xlink:href="#m6ef087cfa8" x="164.912448" y="208.493862" style="fill: #f4b400; stroke: #f4b400"/>
     <use xlink:href="#m6ef087cfa8" x="179.773709" y="74.837389" style="fill: #f4b400; stroke: #f4b400"/>
     <use xlink:href="#m6ef087cfa8" x="194.634969" y="291.372178" style="fill: #f4b400; stroke: #f4b400"/>
     <use xlink:href="#m6ef087cfa8" x="209.496229" y="277.243587" style="fill: #f4b400; stroke: #f4b400"/>
     <use xlink:href="#m6ef087cfa8" x="224.35749" y="305.726827" style="fill: #f4b400; stroke: #f4b400"/>
     <use xlink:href="#m6ef087cfa8" x="239.21875" y="222.424653" style="fill: #f4b400; stroke: #f4b400"/>
     <use xlink:href="#m6ef087cfa8" x="254.08001" y="76.250248" style="fill: #f4b400; stroke: #f4b400"/>
     <use xlink:href="#m6ef087cfa8" x="268.941271" y="232.992839" style="fill: #f4b400; stroke: #f4b400"/>
     <use xlink:href="#m6ef087cfa8" x="283.802531" y="182.24294" style="fill: #f4b400; stroke: #f4b400"/>
     <use xlink:href="#m6ef087cfa8" x="298.663791" y="98.488651" style="fill: #f4b400; stroke: #f4b400"/>
     <use xlink:href="#m6ef087cfa8" x="313.525052" y="181.14091" style="fill: #f4b400; stroke: #f4b400"/>
     <use xlink:href="#m6ef087cfa8" x="328.386312" y="142.569856" style="fill: #f4b400; stroke: #f4b400"/>
     <use xlink:href="#m6ef087cfa8" x="343.247572" y="186.142431" style="fill: #f4b400; stroke: #f4b400"/>
     <use xlink:href="#m6ef087cfa8" x="358.108833" y="253.987926" style="fill: #f4b400; stroke: #f4b400"/>
     <use xlink:href="#m6ef087cfa8" x="372.970093" y="152.968499" style="fill: #f4b400; stroke: #f4b400"/>
     <use xlink:href="#m6ef087cfa8" x="387.831353" y="247.290974" style="fill: #f4b400; stroke: #f4b400"/>
     <use xlink:href="#m6ef087cfa8" x="402.692614" y="80.234511" style="fill: #f4b400; stroke: #f4b400"/>
    </g>
   </g>
   <g id="line2d_61">
    <path d="M 59.3975 218.438401 
L 419.04 218.438401 
" clip-path="url(#p7d8f221c4f)" style="fill: none; stroke-dasharray: 5.92,2.56; stroke-dashoffset: 0; stroke: #0f9d58; stroke-width: 1.6"/>
   </g>
   <g id="line2d_62">
    <defs>
     <path id="me558290478" d="M 0 3 
C 0.795609 3 1.55874 2.683901 2.12132 2.12132 
C 2.683901 1.55874 3 0.795609 3 0 
C 3 -0.795609 2.683901 -1.55874 2.12132 -2.12132 
C 1.55874 -2.683901 0.795609 -3 0 -3 
C -0.795609 -3 -1.55874 -2.683901 -2.12132 -2.12132 
C -2.683901 -1.55874 -3 -0.795609 -3 0 
C -3 0.795609 -2.683901 1.55874 -2.12132 2.12132 
C -1.55874 2.683901 -0.795609 3 0 3 
z
" style="stroke: #4285f4"/>
    </defs>
    <g clip-path="url(#p7d8f221c4f)">
     <use xlink:href="#me558290478" x="75.744886" y="281.001792" style="fill: #4285f4; stroke: #4285f4"/>
     <use xlink:href="#me558290478" x="90.606147" y="297.814816" style="fill: #4285f4; stroke: #4285f4"/>
     <use xlink:href="#me558290478" x="105.467407" y="215.812473" style="fill: #4285f4; stroke: #4285f4"/>
     <use xlink:href="#me558290478" x="120.328667" y="296.232414" style="fill: #4285f4; stroke: #4285f4"/>
     <use xlink:href="#me558290478" x="135.189928" y="217.677447" style="fill: #4285f4; stroke: #4285f4"/>
     <use xlink:href="#me558290478" x="150.051188" y="76.900164" style="fill: #4285f4; stroke: #4285f4"/>
     <use xlink:href="#me558290478" x="164.912448" y="230.138864" style="fill: #4285f4; stroke: #4285f4"/>
     <use xlink:href="#me558290478" x="179.773709" y="119.003365" style="fill: #4285f4; stroke: #4285f4"/>
     <use xlink:href="#me558290478" x="194.634969" y="313.073695" style="fill: #4285f4; stroke: #4285f4"/>
     <use xlink:href="#me558290478" x="209.496229" y="295.949842" style="fill: #4285f4; stroke: #4285f4"/>
     <use xlink:href="#me558290478" x="224.35749" y="331.921235" style="fill: #4285f4; stroke: #4285f4"/>
     <use xlink:href="#me558290478" x="239.21875" y="262.182509" style="fill: #4285f4; stroke: #4285f4"/>
     <use xlink:href="#me558290478" x="254.08001" y="97.753964" style="fill: #4285f4; stroke: #4285f4"/>
     <use xlink:href="#me558290478" x="268.941271" y="248.110432" style="fill: #4285f4; stroke: #4285f4"/>
     <use xlink:href="#me558290478" x="283.802531" y="196.625846" style="fill: #4285f4; stroke: #4285f4"/>
     <use xlink:href="#me558290478" x="298.663791" y="117.590506" style="fill: #4285f4; stroke: #4285f4"/>
     <use xlink:href="#me558290478" x="313.525052" y="201.005709" style="fill: #4285f4; stroke: #4285f4"/>
     <use xlink:href="#me558290478" x="328.386312" y="161.812997" style="fill: #4285f4; stroke: #4285f4"/>
     <use xlink:href="#me558290478" x="343.247572" y="202.305539" style="fill: #4285f4; stroke: #4285f4"/>
     <use xlink:href="#me558290478" x="358.108833" y="294.480468" style="fill: #4285f4; stroke: #4285f4"/>
     <use xlink:href="#me558290478" x="372.970093" y="164.525686" style="fill: #4285f4; stroke: #4285f4"/>
     <use xlink:href="#me558290478" x="387.831353" y="264.499598" style="fill: #4285f4; stroke: #4285f4"/>
     <use xlink:href="#me558290478" x="402.692614" y="94.334845" style="fill: #4285f4; stroke: #4285f4"/>
    </g>
   </g>
   <g id="patch_3">
    <path d="M 59.3975 373.79838 
L 59.3975 28.778182 
" style="fill: none; stroke: #000000; stroke-width: 0.8; stroke-linejoin: miter; stroke-linecap: square"/>
   </g>
   <g id="patch_4">
    <path d="M 419.04 373.79838 
L 419.04 28.778182 
" style="fill: none; stroke: #000000; stroke-width: 0.8; stroke-linejoin: miter; stroke-linecap: square"/>
   </g>
   <g id="patch_5">
    <path d="M 59.3975 373.79838 
L 419.04 373.79838 
" style="fill: none; stroke: #000000; stroke-width: 0.8; stroke-linejoin: miter; stroke-linecap: square"/>
   </g>
   <g id="patch_6">
    <path d="M 59.3975 28.778182 
L 419.04 28.778182 
" style="fill: none; stroke: #000000; stroke-width: 0.8; stroke-linejoin: miter; stroke-linecap: square"/>
   </g>
   <g id="text_31">
    <!-- Geometric length scale h_c across viscosities -->
    <g transform="translate(108.089375 22.778182) scale(0.13 -0.13)">
     <defs>
      <path id="ArialMT-47" d="M 2638 1797 
L 2638 2334 
L 4578 2338 
L 4578 638 
Q 4131 281 3656 101 
Q 3181 -78 2681 -78 
Q 2006 -78 1454 211 
Q 903 500 622 1047 
Q 341 1594 341 2269 
Q 341 2938 620 3517 
Q 900 4097 1425 4378 
Q 1950 4659 2634 4659 
Q 3131 4659 3532 4498 
Q 3934 4338 4162 4050 
Q 4391 3763 4509 3300 
L 3963 3150 
Q 3859 3500 3706 3700 
Q 3553 3900 3268 4020 
Q 2984 4141 2638 4141 
Q 2222 4141 1919 4014 
Q 1616 3888 1430 3681 
Q 1244 3475 1141 3228 
Q 966 2803 966 2306 
Q 966 1694 1177 1281 
Q 1388 869 1791 669 
Q 2194 469 2647 469 
Q 3041 469 3416 620 
Q 3791 772 3984 944 
L 3984 1797 
L 2638 1797 
z
" transform="scale(0.015625)"/>
      <path id="ArialMT-65" d="M 2694 1069 
L 3275 997 
Q 3138 488 2766 206 
Q 2394 -75 1816 -75 
Q 1088 -75 661 373 
Q 234 822 234 1631 
Q 234 2469 665 2931 
Q 1097 3394 1784 3394 
Q 2450 3394 2872 2941 
Q 3294 2488 3294 1666 
Q 3294 1616 3291 1516 
L 816 1516 
Q 847 969 1125 678 
Q 1403 388 1819 388 
Q 2128 388 2347 550 
Q 2566 713 2694 1069 
z
M 847 1978 
L 2700 1978 
Q 2663 2397 2488 2606 
Q 2219 2931 1791 2931 
Q 1403 2931 1139 2672 
Q 875 2413 847 1978 
z
" transform="scale(0.015625)"/>
      <path id="ArialMT-6f" d="M 213 1659 
Q 213 2581 725 3025 
Q 1153 3394 1769 3394 
Q 2453 3394 2887 2945 
Q 3322 2497 3322 1706 
Q 3322 1066 3130 698 
Q 2938 331 2570 128 
Q 2203 -75 1769 -75 
Q 1072 -75 642 372 
Q 213 819 213 1659 
z
M 791 1659 
Q 791 1022 1069 705 
Q 1347 388 1769 388 
Q 2188 388 2466 706 
Q 2744 1025 2744 1678 
Q 2744 2294 2464 2611 
Q 2184 2928 1769 2928 
Q 1347 2928 1069 2612 
Q 791 2297 791 1659 
z
" transform="scale(0.015625)"/>
      <path id="ArialMT-74" d="M 1650 503 
L 1731 6 
Q 1494 -44 1306 -44 
Q 1000 -44 831 53 
Q 663 150 594 308 
Q 525 466 525 972 
L 525 2881 
L 113 2881 
L 113 3319 
L 525 3319 
L 525 4141 
L 1084 4478 
L 1084 3319 
L 1650 3319 
L 1650 2881 
L 1084 2881 
L 1084 941 
Q 1084 700 1114 631 
Q 1144 563 1211 522 
Q 1278 481 1403 481 
Q 1497 481 1650 503 
z
" transform="scale(0.015625)"/>
      <path id="ArialMT-72" d="M 416 0 
L 416 3319 
L 922 3319 
L 922 2816 
Q 1116 3169 1280 3281 
Q 1444 3394 1641 3394 
Q 1925 3394 2219 3213 
L 2025 2691 
Q 1819 2813 1613 2813 
Q 1428 2813 1281 2702 
Q 1134 2591 1072 2394 
Q 978 2094 978 1738 
L 978 0 
L 416 0 
z
" transform="scale(0.015625)"/>
      <path id="ArialMT-69" d="M 425 3934 
L 425 4581 
L 988 4581 
L 988 3934 
L 425 3934 
z
M 425 0 
L 425 3319 
L 988 3319 
L 988 0 
L 425 0 
z
" transform="scale(0.015625)"/>
      <path id="ArialMT-6c" d="M 409 0 
L 409 4581 
L 972 4581 
L 972 0 
L 409 0 
z
" transform="scale(0.015625)"/>
      <path id="ArialMT-6e" d="M 422 0 
L 422 3319 
L 928 3319 
L 928 2847 
Q 1294 3394 1984 3394 
Q 2284 3394 2536 3286 
Q 2788 3178 2913 3003 
Q 3038 2828 3088 2588 
Q 3119 2431 3119 2041 
L 3119 0 
L 2556 0 
L 2556 2019 
Q 2556 2363 2490 2533 
Q 2425 2703 2258 2804 
Q 2091 2906 1866 2906 
Q 1506 2906 1245 2678 
Q 984 2450 984 1813 
L 984 0 
L 422 0 
z
" transform="scale(0.015625)"/>
      <path id="ArialMT-67" d="M 319 -275 
L 866 -356 
Q 900 -609 1056 -725 
Q 1266 -881 1628 -881 
Q 2019 -881 2231 -725 
Q 2444 -569 2519 -288 
Q 2563 -116 2559 434 
Q 2191 0 1641 0 
Q 956 0 581 494 
Q 206 988 206 1678 
Q 206 2153 378 2554 
Q 550 2956 876 3175 
Q 1203 3394 1644 3394 
Q 2231 3394 2613 2919 
L 2613 3319 
L 3131 3319 
L 3131 450 
Q 3131 -325 2973 -648 
Q 2816 -972 2473 -1159 
Q 2131 -1347 1631 -1347 
Q 1038 -1347 672 -1080 
Q 306 -813 319 -275 
z
M 784 1719 
Q 784 1066 1043 766 
Q 1303 466 1694 466 
Q 2081 466 2343 764 
Q 2606 1063 2606 1700 
Q 2606 2309 2336 2618 
Q 2066 2928 1684 2928 
Q 1309 2928 1046 2623 
Q 784 2319 784 1719 
z
" transform="scale(0.015625)"/>
      <path id="ArialMT-73" d="M 197 991 
L 753 1078 
Q 800 744 1014 566 
Q 1228 388 1613 388 
Q 2000 388 2187 545 
Q 2375 703 2375 916 
Q 2375 1106 2209 1216 
Q 2094 1291 1634 1406 
Q 1016 1563 777 1677 
Q 538 1791 414 1992 
Q 291 2194 291 2438 
Q 291 2659 392 2848 
Q 494 3038 669 3163 
Q 800 3259 1026 3326 
Q 1253 3394 1513 3394 
Q 1903 3394 2198 3281 
Q 2494 3169 2634 2976 
Q 2775 2784 2828 2463 
L 2278 2388 
Q 2241 2644 2061 2787 
Q 1881 2931 1553 2931 
Q 1166 2931 1000 2803 
Q 834 2675 834 2503 
Q 834 2394 903 2306 
Q 972 2216 1119 2156 
Q 1203 2125 1616 2013 
Q 2213 1853 2448 1751 
Q 2684 1650 2818 1456 
Q 2953 1263 2953 975 
Q 2953 694 2789 445 
Q 2625 197 2315 61 
Q 2006 -75 1616 -75 
Q 969 -75 630 194 
Q 291 463 197 991 
z
" transform="scale(0.015625)"/>
      <path id="ArialMT-61" d="M 2588 409 
Q 2275 144 1986 34 
Q 1697 -75 1366 -75 
Q 819 -75 525 192 
Q 231 459 231 875 
Q 231 1119 342 1320 
Q 453 1522 633 1644 
Q 813 1766 1038 1828 
Q 1203 1872 1538 1913 
Q 2219 1994 2541 2106 
Q 2544 2222 2544 2253 
Q 2544 2597 2384 2738 
Q 2169 2928 1744 2928 
Q 1347 2928 1158 2789 
Q 969 2650 878 2297 
L 328 2372 
Q 403 2725 575 2942 
Q 747 3159 1072 3276 
Q 1397 3394 1825 3394 
Q 2250 3394 2515 3294 
Q 2781 3194 2906 3042 
Q 3031 2891 3081 2659 
Q 3109 2516 3109 2141 
L 3109 1391 
Q 3109 606 3145 398 
Q 3181 191 3288 0 
L 2700 0 
Q 2613 175 2588 409 
z
M 2541 1666 
Q 2234 1541 1622 1453 
Q 1275 1403 1131 1340 
Q 988 1278 909 1158 
Q 831 1038 831 891 
Q 831 666 1001 516 
Q 1172 366 1500 366 
Q 1825 366 2078 508 
Q 2331 650 2450 897 
Q 2541 1088 2541 1459 
L 2541 1666 
z
" transform="scale(0.015625)"/>
      <path id="ArialMT-76" d="M 1344 0 
L 81 3319 
L 675 3319 
L 1388 1331 
Q 1503 1009 1600 663 
Q 1675 925 1809 1294 
L 2547 3319 
L 3125 3319 
L 1869 0 
L 1344 0 
z
" transform="scale(0.015625)"/>
     </defs>
     <use xlink:href="#ArialMT-47"/>
     <use xlink:href="#ArialMT-65" transform="translate(77.783203 0)"/>
     <use xlink:href="#ArialMT-6f" transform="translate(133.398438 0)"/>
     <use xlink:href="#ArialMT-6d" transform="translate(189.013672 0)"/>
     <use xlink:href="#ArialMT-65" transform="translate(272.314453 0)"/>
     <use xlink:href="#ArialMT-74" transform="translate(327.929688 0)"/>
     <use xlink:href="#ArialMT-72" transform="translate(355.712891 0)"/>
     <use xlink:href="#ArialMT-69" transform="translate(389.013672 0)"/>
     <use xlink:href="#ArialMT-63" transform="translate(411.230469 0)"/>
     <use xlink:href="#ArialMT-20" transform="translate(461.230469 0)"/>
     <use xlink:href="#ArialMT-6c" transform="translate(489.013672 0)"/>
     <use xlink:href="#ArialMT-65" transform="translate(511.230469 0)"/>
     <use xlink:href="#ArialMT-6e" transform="translate(566.845703 0)"/>
     <use xlink:href="#ArialMT-67" transform="translate(622.460938 0)"/>
     <use xlink:href="#ArialMT-74" transform="translate(678.076172 0)"/>
     <use xlink:href="#ArialMT-68" transform="translate(705.859375 0)"/>
     <use xlink:href="#ArialMT-20" transform="translate(761.474609 0)"/>
     <use xlink:href="#ArialMT-73" transform="translate(789.257812 0)"/>
     <use xlink:href="#ArialMT-63" transform="translate(839.257812 0)"/>
     <use xlink:href="#ArialMT-61" transform="translate(889.257812 0)"/>
     <use xlink:href="#ArialMT-6c" transform="translate(944.873047 0)"/>
     <use xlink:href="#ArialMT-65" transform="translate(967.089844 0)"/>
     <use xlink:href="#ArialMT-20" transform="translate(1022.705078 0)"/>
     <use xlink:href="#ArialMT-68" transform="translate(1050.488281 0)"/>
     <use xlink:href="#ArialMT-5f" transform="translate(1106.103516 0)"/>
     <use xlink:href="#ArialMT-63" transform="translate(1161.71875 0)"/>
     <use xlink:href="#ArialMT-20" transform="translate(1211.71875 0)"/>
     <use xlink:href="#ArialMT-61" transform="translate(1239.501953 0)"/>
     <use xlink:href="#ArialMT-63" transform="translate(1295.117188 0)"/>
     <use xlink:href="#ArialMT-72" transform="translate(1345.117188 0)"/>
     <use xlink:href="#ArialMT-6f" transform="translate(1378.417969 0)"/>
     <use xlink:href="#ArialMT-73" transform="translate(1434.033203 0)"/>
     <use xlink:href="#ArialMT-73" transform="translate(1484.033203 0)"/>
     <use xlink:href="#ArialMT-20" transform="translate(1534.033203 0)"/>
     <use xlink:href="#ArialMT-76" transform="translate(1561.816406 0)"/>
     <use xlink:href="#ArialMT-69" transform="translate(1611.816406 0)"/>
     <use xlink:href="#ArialMT-73" transform="translate(1634.033203 0)"/>
     <use xlink:href="#ArialMT-63" transform="translate(1684.033203 0)"/>
     <use xlink:href="#ArialMT-6f" transform="translate(1734.033203 0)"/>
     <use xlink:href="#ArialMT-73" transform="translate(1789.648438 0)"/>
     <use xlink:href="#ArialMT-69" transform="translate(1839.648438 0)"/>
     <use xlink:href="#ArialMT-74" transform="translate(1861.865234 0)"/>
     <use xlink:href="#ArialMT-69" transform="translate(1889.648438 0)"/>
     <use xlink:href="#ArialMT-65" transform="translate(1911.865234 0)"/>
     <use xlink:href="#ArialMT-73" transform="translate(1967.480469 0)"/>
    </g>
   </g>
   <g id="legend_1">
    <g id="patch_7">
     <path d="M 273.035312 79.600057 
L 412.04 79.600057 
Q 414.04 79.600057 414.04 77.600057 
L 414.04 35.778182 
Q 414.04 33.778182 412.04 33.778182 
L 273.035312 33.778182 
Q 271.035312 33.778182 271.035312 35.778182 
L 271.035312 77.600057 
Q 271.035312 79.600057 273.035312 79.600057 
z
" style="fill: #ffffff; opacity: 0.8; stroke: #cccccc; stroke-linejoin: miter"/>
    </g>
    <g id="line2d_63">
     <path d="M 275.035312 41.465682 
L 285.035312 41.465682 
L 295.035312 41.465682 
" style="fill: none; stroke-dasharray: 5.92,2.56; stroke-dashoffset: 0; stroke: #000000; stroke-width: 1.6"/>
    </g>
    <g id="text_32">
     <!-- global h_c = 0.4026 mm -->
     <g transform="translate(303.035312 44.965682) scale(0.1 -0.1)">
      <defs>
       <path id="ArialMT-62" d="M 941 0 
L 419 0 
L 419 4581 
L 981 4581 
L 981 2947 
Q 1338 3394 1891 3394 
Q 2197 3394 2470 3270 
Q 2744 3147 2920 2923 
Q 3097 2700 3197 2384 
Q 3297 2069 3297 1709 
Q 3297 856 2875 390 
Q 2453 -75 1863 -75 
Q 1275 -75 941 416 
L 941 0 
z
M 934 1684 
Q 934 1088 1097 822 
Q 1363 388 1816 388 
Q 2184 388 2453 708 
Q 2722 1028 2722 1663 
Q 2722 2313 2464 2622 
Q 2206 2931 1841 2931 
Q 1472 2931 1203 2611 
Q 934 2291 934 1684 
z
" transform="scale(0.015625)"/>
       <path id="ArialMT-3d" d="M 3381 2694 
L 356 2694 
L 356 3219 
L 3381 3219 
L 3381 2694 
z
M 3381 1303 
L 356 1303 
L 356 1828 
L 3381 1828 
L 3381 1303 
z
" transform="scale(0.015625)"/>
      </defs>
      <use xlink:href="#ArialMT-67"/>
      <use xlink:href="#ArialMT-6c" transform="translate(55.615234 0)"/>
      <use xlink:href="#ArialMT-6f" transform="translate(77.832031 0)"/>
      <use xlink:href="#ArialMT-62" transform="translate(133.447266 0)"/>
      <use xlink:href="#ArialMT-61" transform="translate(189.0625 0)"/>
      <use xlink:href="#ArialMT-6c" transform="translate(244.677734 0)"/>
      <use xlink:href="#ArialMT-20" transform="translate(266.894531 0)"/>
      <use xlink:href="#ArialMT-68" transform="translate(294.677734 0)"/>
      <use xlink:href="#ArialMT-5f" transform="translate(350.292969 0)"/>
      <use xlink:href="#ArialMT-63" transform="translate(405.908203 0)"/>
      <use xlink:href="#ArialMT-20" transform="translate(455.908203 0)"/>
      <use xlink:href="#ArialMT-3d" transform="translate(483.691406 0)"/>
      <use xlink:href="#ArialMT-20" transform="translate(542.089844 0)"/>
      <use xlink:href="#ArialMT-30" transform="translate(569.873047 0)"/>
      <use xlink:href="#ArialMT-2e" transform="translate(625.488281 0)"/>
      <use xlink:href="#ArialMT-34" transform="translate(653.271484 0)"/>
      <use xlink:href="#ArialMT-30" transform="translate(708.886719 0)"/>
      <use xlink:href="#ArialMT-32" transform="translate(764.501953 0)"/>
      <use xlink:href="#ArialMT-36" transform="translate(820.117188 0)"/>
      <use xlink:href="#ArialMT-20" transform="translate(875.732422 0)"/>
      <use xlink:href="#ArialMT-6d" transform="translate(903.515625 0)"/>
      <use xlink:href="#ArialMT-6d" transform="translate(986.816406 0)"/>
     </g>
    </g>
    <g id="patch_8">
     <path d="M 275.035312 59.350057 
L 295.035312 59.350057 
L 295.035312 52.350057 
L 275.035312 52.350057 
z
" style="fill-opacity: 0.15; stroke: #000000; stroke-opacity: 0.15; stroke-linejoin: miter"/>
    </g>
    <g id="text_33">
     <!-- global 95% CI -->
     <g transform="translate(303.035312 59.350057) scale(0.1 -0.1)">
      <defs>
       <path id="ArialMT-25" d="M 372 3481 
Q 372 3972 619 4315 
Q 866 4659 1334 4659 
Q 1766 4659 2048 4351 
Q 2331 4044 2331 3447 
Q 2331 2866 2045 2552 
Q 1759 2238 1341 2238 
Q 925 2238 648 2547 
Q 372 2856 372 3481 
z
M 1350 4272 
Q 1141 4272 1002 4090 
Q 863 3909 863 3425 
Q 863 2984 1003 2804 
Q 1144 2625 1350 2625 
Q 1563 2625 1702 2806 
Q 1841 2988 1841 3469 
Q 1841 3913 1700 4092 
Q 1559 4272 1350 4272 
z
M 1353 -169 
L 3859 4659 
L 4316 4659 
L 1819 -169 
L 1353 -169 
z
M 3334 1075 
Q 3334 1569 3581 1911 
Q 3828 2253 4300 2253 
Q 4731 2253 5014 1945 
Q 5297 1638 5297 1041 
Q 5297 459 5011 145 
Q 4725 -169 4303 -169 
Q 3888 -169 3611 142 
Q 3334 453 3334 1075 
z
M 4316 1866 
Q 4103 1866 3964 1684 
Q 3825 1503 3825 1019 
Q 3825 581 3965 400 
Q 4106 219 4313 219 
Q 4528 219 4667 400 
Q 4806 581 4806 1063 
Q 4806 1506 4665 1686 
Q 4525 1866 4316 1866 
z
" transform="scale(0.015625)"/>
       <path id="ArialMT-43" d="M 3763 1606 
L 4369 1453 
Q 4178 706 3683 314 
Q 3188 -78 2472 -78 
Q 1731 -78 1267 223 
Q 803 525 561 1097 
Q 319 1669 319 2325 
Q 319 3041 592 3573 
Q 866 4106 1370 4382 
Q 1875 4659 2481 4659 
Q 3169 4659 3637 4309 
Q 4106 3959 4291 3325 
L 3694 3184 
Q 3534 3684 3231 3912 
Q 2928 4141 2469 4141 
Q 1941 4141 1586 3887 
Q 1231 3634 1087 3207 
Q 944 2781 944 2328 
Q 944 1744 1114 1308 
Q 1284 872 1643 656 
Q 2003 441 2422 441 
Q 2931 441 3284 734 
Q 3638 1028 3763 1606 
z
" transform="scale(0.015625)"/>
       <path id="ArialMT-49" d="M 597 0 
L 597 4581 
L 1203 4581 
L 1203 0 
L 597 0 
z
" transform="scale(0.015625)"/>
      </defs>
      <use xlink:href="#ArialMT-67"/>
      <use xlink:href="#ArialMT-6c" transform="translate(55.615234 0)"/>
      <use xlink:href="#ArialMT-6f" transform="translate(77.832031 0)"/>
      <use xlink:href="#ArialMT-62" transform="translate(133.447266 0)"/>
      <use xlink:href="#ArialMT-61" transform="translate(189.0625 0)"/>
      <use xlink:href="#ArialMT-6c" transform="translate(244.677734 0)"/>
      <use xlink:href="#ArialMT-20" transform="translate(266.894531 0)"/>
      <use xlink:href="#ArialMT-39" transform="translate(294.677734 0)"/>
      <use xlink:href="#ArialMT-35" transform="translate(350.292969 0)"/>
      <use xlink:href="#ArialMT-25" transform="translate(405.908203 0)"/>
      <use xlink:href="#ArialMT-20" transform="translate(494.824219 0)"/>
      <use xlink:href="#ArialMT-43" transform="translate(522.607422 0)"/>
      <use xlink:href="#ArialMT-49" transform="translate(594.824219 0)"/>
     </g>
    </g>
    <g id="LineCollection_2">
     <path d="M 285.035312 75.112557 
L 285.035312 65.112557 
" style="fill: none; stroke: #4285f4; stroke-width: 1.6"/>
    </g>
    <g id="line2d_64">
     <defs>
      <path id="m6f4a49ca15" d="M 3 0 
L -3 -0 
" style="stroke: #4285f4"/>
     </defs>
     <g>
      <use xlink:href="#m6f4a49ca15" x="285.035312" y="75.112557" style="fill: #4285f4; stroke: #4285f4"/>
     </g>
    </g>
    <g id="line2d_65">
     <g>
      <use xlink:href="#m6f4a49ca15" x="285.035312" y="65.112557" style="fill: #4285f4; stroke: #4285f4"/>
     </g>
    </g>
    <g id="line2d_66"/>
    <g id="line2d_67">
     <g>
      <use xlink:href="#me558290478" x="285.035312" y="70.112557" style="fill: #4285f4; stroke: #4285f4"/>
     </g>
    </g>
    <g id="text_34">
     <!-- per-sample h_c -->
     <g transform="translate(303.035312 73.612557) scale(0.1 -0.1)">
      <defs>
       <path id="ArialMT-2d" d="M 203 1375 
L 203 1941 
L 1931 1941 
L 1931 1375 
L 203 1375 
z
" transform="scale(0.015625)"/>
      </defs>
      <use xlink:href="#ArialMT-70"/>
      <use xlink:href="#ArialMT-65" transform="translate(55.615234 0)"/>
      <use xlink:href="#ArialMT-72" transform="translate(111.230469 0)"/>
      <use xlink:href="#ArialMT-2d" transform="translate(144.53125 0)"/>
      <use xlink:href="#ArialMT-73" transform="translate(177.832031 0)"/>
      <use xlink:href="#ArialMT-61" transform="translate(227.832031 0)"/>
      <use xlink:href="#ArialMT-6d" transform="translate(283.447266 0)"/>
      <use xlink:href="#ArialMT-70" transform="translate(366.748047 0)"/>
      <use xlink:href="#ArialMT-6c" transform="translate(422.363281 0)"/>
      <use xlink:href="#ArialMT-65" transform="translate(444.580078 0)"/>
      <use xlink:href="#ArialMT-20" transform="translate(500.195312 0)"/>
      <use xlink:href="#ArialMT-68" transform="translate(527.978516 0)"/>
      <use xlink:href="#ArialMT-5f" transform="translate(583.59375 0)"/>
      <use xlink:href="#ArialMT-63" transform="translate(639.208984 0)"/>
     </g>
    </g>
   </g>
  </g>
 </g>
 <defs>
  <clipPath id="p7d8f221c4f">
   <rect x="59.3975" y="28.778182" width="359.6425" height="345.020198"/>
  </clipPath>
 </defs>
</svg>
