<?xml version="1.0" encoding="utf-8" standalone="no"?>
<!DOCTYPE svg PUBLIC "-//W3C//DTD SVG 1.1//EN"
  "http://www.w3.org/Graphics/SVG/1.1/DTD/svg11.dtd">
<svg xmlns:xlink="http://www.w3.org/1999/xlink" width="720pt" height="432pt" viewBox="0 0 720 432" xmlns="http://www.w3.org/2000/svg" version="1.1">
 <metadata>
  <rdf:RDF xmlns:dc="http://purl.org/dc/elements/1.1/" xmlns:cc="http://creativecommons.org/ns#" xmlns:rdf="http://www.w3.org/1999/02/22-rdf-syntax-ns#">
   <cc:Work>
    <dc:type rdf:resource="http://purl.org/dc/dcmitype/StillImage"/>
    <dc:date>2026-06-16T16:16:42.625422</dc:date>
    <dc:format>image/svg+xml</dc:format>
    <dc:creator>
     <cc:Agent>
      <dc:title>Matplotlib v3.10.0, https://matplotlib.org/</dc:title>
     </cc:Agent>
    </dc:creator>
   </cc:Work>
  </rdf:RDF>
 </metadata>
 <defs>
  <style type="text/css">*{stroke-linejoin: round; stroke-linecap: butt}</style>
 </defs>
 <g id="figure_1">
  <g id="patch_1">
   <path d="M 0 432 
L 720 432 
L 720 0 
L 0 0 
z
" style="fill: #ffffff"/>
  </g>
  <g id="axes_1">
   <g id="patch_2">
    <path d="M 83.451212 343.317355 
L 702.72 343.317355 
L 702.72 41.111688 
L 83.451212 41.111688 
z
" style="fill: #ffffff"/>
   </g>
   <g id="FillBetweenPolyCollection_1">
    <defs>
     <path id="m59c705aac0" d="M 111.599793 -242.935303 
L 111.599793 -208.765025 
L 137.189413 -208.765025 
L 162.779032 -208.765025 
L 188.368651 -208.765025 
L 213.958271 -208.765025 
L 239.54789 -208.765025 
L 265.137509 -208.765025 
L 290.727129 -208.765025 
L 316.316748 -208.765025 
L 341.906367 -208.765025 
L 367.495987 -208.765025 
L 393.085606 -208.765025 
L 418.675225 -208.765025 
L 444.264845 -208.765025 
L 469.854464 -208.765025 
L 495.444083 -208.765025 
L 521.033703 -208.765025 
L 546.623322 -208.765025 
L 572.212941 -208.765025 
L 597.802561 -208.765025 
L 623.39218 -208.765025 
L 648.981799 -208.765025 
L 674.571419 -208.765025 
L 674.571419 -242.935303 
L 674.571419 -242.935303 
L 648.981799 -242.935303 
L 623.39218 -242.935303 
L 597.802561 -242.935303 
L 572.212941 -242.935303 
L 546.623322 -242.935303 
L 521.033703 -242.935303 
L 495.444083 -242.935303 
L 469.854464 -242.935303 
L 444.264845 -242.935303 
L 418.675225 -242.935303 
L 393.085606 -242.935303 
L 367.495987 -242.935303 
L 341.906367 -242.935303 
L 316.316748 -242.935303 
L 290.727129 -242.935303 
L 265.137509 -242.935303 
L 239.54789 -242.935303 
L 213.958271 -242.935303 
L 188.368651 -242.935303 
L 162.779032 -242.935303 
L 137.189413 -242.935303 
L 111.599793 -242.935303 
z
" style="stroke: #db4437; stroke-opacity: 0.15"/>
    </defs>
    <g clip-path="url(#p9d35dfbbc9)">
     <use xlink:href="#m59c705aac0" x="0" y="432" style="fill: #db4437; fill-opacity: 0.15; stroke: #db4437; stroke-opacity: 0.15"/>
    </g>
   </g>
   <g id="matplotlib.axis_1">
    <g id="xtick_1">
     <g id="line2d_1">
      <path d="M 111.599793 343.317355 
L 111.599793 41.111688 
" clip-path="url(#p9d35dfbbc9)" style="fill: none; stroke: #b0b0b0; stroke-opacity: 0.3; stroke-width: 0.8; stroke-linecap: square"/>
     </g>
     <g id="line2d_2">
      <defs>
       <path id="ma127cbdaca" d="M 0 0 
L 0 3.5 
" style="stroke: #000000; stroke-width: 0.8"/>
      </defs>
      <g>
       <use xlink:href="#ma127cbdaca" x="111.599793" y="343.317355" style="stroke: #000000; stroke-width: 0.8"/>
      </g>
     </g>
     <g id="text_1">
      <!-- 1kcp -->
      <g transform="translate(89.470445 377.129519) rotate(-45) scale(0.12 -0.12)">
       <defs>
        <path id="DejaVuSans-31" d="M 794 531 
L 1825 531 
L 1825 4091 
L 703 3866 
L 703 4441 
L 1819 4666 
L 2450 4666 
L 2450 531 
L 3481 531 
L 3481 0 
L 794 0 
L 794 531 
z
" transform="scale(0.015625)"/>
        <path id="DejaVuSans-6b" d="M 581 4863 
L 1159 4863 
L 1159 1991 
L 2875 3500 
L 3609 3500 
L 1753 1863 
L 3688 0 
L 2938 0 
L 1159 1709 
L 1159 0 
L 581 0 
L 581 4863 
z
" transform="scale(0.015625)"/>
        <path id="DejaVuSans-63" d="M 3122 3366 
L 3122 2828 
Q 2878 2963 2633 3030 
Q 2388 3097 2138 3097 
Q 1578 3097 1268 2742 
Q 959 2388 959 1747 
Q 959 1106 1268 751 
Q 1578 397 2138 397 
Q 2388 397 2633 464 
Q 2878 531 3122 666 
L 3122 134 
Q 2881 22 2623 -34 
Q 2366 -91 2075 -91 
Q 1284 -91 818 406 
Q 353 903 353 1747 
Q 353 2603 823 3093 
Q 1294 3584 2113 3584 
Q 2378 3584 2631 3529 
Q 2884 3475 3122 3366 
z
" transform="scale(0.015625)"/>
        <path id="DejaVuSans-70" d="M 1159 525 
L 1159 -1331 
L 581 -1331 
L 581 3500 
L 1159 3500 
L 1159 2969 
Q 1341 3281 1617 3432 
Q 1894 3584 2278 3584 
Q 2916 3584 3314 3078 
Q 3713 2572 3713 1747 
Q 3713 922 3314 415 
Q 2916 -91 2278 -91 
Q 1894 -91 1617 61 
Q 1341 213 1159 525 
z
M 3116 1747 
Q 3116 2381 2855 2742 
Q 2594 3103 2138 3103 
Q 1681 3103 1420 2742 
Q 1159 2381 1159 1747 
Q 1159 1113 1420 752 
Q 1681 391 2138 391 
Q 2594 391 2855 752 
Q 3116 1113 3116 1747 
z
" transform="scale(0.015625)"/>
       </defs>
       <use xlink:href="#DejaVuSans-31"/>
       <use xlink:href="#DejaVuSans-6b" transform="translate(63.623047 0)"/>
       <use xlink:href="#DejaVuSans-63" transform="translate(121.533203 0)"/>
       <use xlink:href="#DejaVuSans-70" transform="translate(176.513672 0)"/>
      </g>
     </g>
    </g>
    <g id="xtick_2">
     <g id="line2d_3">
      <path d="M 137.189413 343.317355 
L 137.189413 41.111688 
" clip-path="url(#p9d35dfbbc9)" style="fill: none; stroke: #b0b0b0; stroke-opacity: 0.3; stroke-width: 0.8; stroke-linecap: square"/>
     </g>
     <g id="line2d_4">
      <g>
       <use xlink:href="#ma127cbdaca" x="137.189413" y="343.317355" style="stroke: #000000; stroke-width: 0.8"/>
      </g>
     </g>
     <g id="text_2">
      <!-- 2kcp -->
      <g transform="translate(115.060064 377.129519) rotate(-45) scale(0.12 -0.12)">
       <defs>
        <path id="DejaVuSans-32" d="M 1228 531 
L 3431 531 
L 3431 0 
L 469 0 
L 469 531 
Q 828 903 1448 1529 
Q 2069 2156 2228 2338 
Q 2531 2678 2651 2914 
Q 2772 3150 2772 3378 
Q 2772 3750 2511 3984 
Q 2250 4219 1831 4219 
Q 1534 4219 1204 4116 
Q 875 4013 500 3803 
L 500 4441 
Q 881 4594 1212 4672 
Q 1544 4750 1819 4750 
Q 2544 4750 2975 4387 
Q 3406 4025 3406 3419 
Q 3406 3131 3298 2873 
Q 3191 2616 2906 2266 
Q 2828 2175 2409 1742 
Q 1991 1309 1228 531 
z
" transform="scale(0.015625)"/>
       </defs>
       <use xlink:href="#DejaVuSans-32"/>
       <use xlink:href="#DejaVuSans-6b" transform="translate(63.623047 0)"/>
       <use xlink:href="#DejaVuSans-63" transform="translate(121.533203 0)"/>
       <use xlink:href="#DejaVuSans-70" transform="translate(176.513672 0)"/>
      </g>
     </g>
    </g>
    <g id="xtick_3">
     <g id="line2d_5">
      <path d="M 162.779032 343.317355 
L 162.779032 41.111688 
" clip-path="url(#p9d35dfbbc9)" style="fill: none; stroke: #b0b0b0; stroke-opacity: 0.3; stroke-width: 0.8; stroke-linecap: square"/>
     </g>
     <g id="line2d_6">
      <g>
       <use xlink:href="#ma127cbdaca" x="162.779032" y="343.317355" style="stroke: #000000; stroke-width: 0.8"/>
      </g>
     </g>
     <g id="text_3">
      <!-- 4kcp -->
      <g transform="translate(140.649683 377.129519) rotate(-45) scale(0.12 -0.12)">
       <defs>
        <path id="DejaVuSans-34" d="M 2419 4116 
L 825 1625 
L 2419 1625 
L 2419 4116 
z
M 2253 4666 
L 3047 4666 
L 3047 1625 
L 3713 1625 
L 3713 1100 
L 3047 1100 
L 3047 0 
L 2419 0 
L 2419 1100 
L 313 1100 
L 313 1709 
L 2253 4666 
z
" transform="scale(0.015625)"/>
       </defs>
       <use xlink:href="#DejaVuSans-34"/>
       <use xlink:href="#DejaVuSans-6b" transform="translate(63.623047 0)"/>
       <use xlink:href="#DejaVuSans-63" transform="translate(121.533203 0)"/>
       <use xlink:href="#DejaVuSans-70" transform="translate(176.513672 0)"/>
      </g>
     </g>
    </g>
    <g id="xtick_4">
     <g id="line2d_7">
      <path d="M 188.368651 343.317355 
L 188.368651 41.111688 
" clip-path="url(#p9d35dfbbc9)" style="fill: none; stroke: #b0b0b0; stroke-opacity: 0.3; stroke-width: 0.8; stroke-linecap: square"/>
     </g>
     <g id="line2d_8">
      <g>
       <use xlink:href="#ma127cbdaca" x="188.368651" y="343.317355" style="stroke: #000000; stroke-width: 0.8"/>
      </g>
     </g>
     <g id="text_4">
      <!-- 5kcp -->
      <g transform="translate(166.239303 377.129519) rotate(-45) scale(0.12 -0.12)">
       <defs>
        <path id="DejaVuSans-35" d="M 691 4666 
L 3169 4666 
L 3169 4134 
L 1269 4134 
L 1269 2991 
Q 1406 3038 1543 3061 
Q 1681 3084 1819 3084 
Q 2600 3084 3056 2656 
Q 3513 2228 3513 1497 
Q 3513 744 3044 326 
Q 2575 -91 1722 -91 
Q 1428 -91 1123 -41 
Q 819 9 494 109 
L 494 744 
Q 775 591 1075 516 
Q 1375 441 1709 441 
Q 2250 441 2565 725 
Q 2881 1009 2881 1497 
Q 2881 1984 2565 2268 
Q 2250 2553 1709 2553 
Q 1456 2553 1204 2497 
Q 953 2441 691 2322 
L 691 4666 
z
" transform="scale(0.015625)"/>
       </defs>
       <use xlink:href="#DejaVuSans-35"/>
       <use xlink:href="#DejaVuSans-6b" transform="translate(63.623047 0)"/>
       <use xlink:href="#DejaVuSans-63" transform="translate(121.533203 0)"/>
       <use xlink:href="#DejaVuSans-70" transform="translate(176.513672 0)"/>
      </g>
     </g>
    </g>
    <g id="xtick_5">
     <g id="line2d_9">
      <path d="M 213.958271 343.317355 
L 213.958271 41.111688 
" clip-path="url(#p9d35dfbbc9)" style="fill: none; stroke: #b0b0b0; stroke-opacity: 0.3; stroke-width: 0.8; stroke-linecap: square"/>
     </g>
     <g id="line2d_10">
      <g>
       <use xlink:href="#ma127cbdaca" x="213.958271" y="343.317355" style="stroke: #000000; stroke-width: 0.8"/>
      </g>
     </g>
     <g id="text_5">
      <!-- 8kcp -->
      <g transform="translate(191.828922 377.129519) rotate(-45) scale(0.12 -0.12)">
       <defs>
        <path id="DejaVuSans-38" d="M 2034 2216 
Q 1584 2216 1326 1975 
Q 1069 1734 1069 1313 
Q 1069 891 1326 650 
Q 1584 409 2034 409 
Q 2484 409 2743 651 
Q 3003 894 3003 1313 
Q 3003 1734 2745 1975 
Q 2488 2216 2034 2216 
z
M 1403 2484 
Q 997 2584 770 2862 
Q 544 3141 544 3541 
Q 544 4100 942 4425 
Q 1341 4750 2034 4750 
Q 2731 4750 3128 4425 
Q 3525 4100 3525 3541 
Q 3525 3141 3298 2862 
Q 3072 2584 2669 2484 
Q 3125 2378 3379 2068 
Q 3634 1759 3634 1313 
Q 3634 634 3220 271 
Q 2806 -91 2034 -91 
Q 1263 -91 848 271 
Q 434 634 434 1313 
Q 434 1759 690 2068 
Q 947 2378 1403 2484 
z
M 1172 3481 
Q 1172 3119 1398 2916 
Q 1625 2713 2034 2713 
Q 2441 2713 2670 2916 
Q 2900 3119 2900 3481 
Q 2900 3844 2670 4047 
Q 2441 4250 2034 4250 
Q 1625 4250 1398 4047 
Q 1172 3844 1172 3481 
z
" transform="scale(0.015625)"/>
       </defs>
       <use xlink:href="#DejaVuSans-38"/>
       <use xlink:href="#DejaVuSans-6b" transform="translate(63.623047 0)"/>
       <use xlink:href="#DejaVuSans-63" transform="translate(121.533203 0)"/>
       <use xlink:href="#DejaVuSans-70" transform="translate(176.513672 0)"/>
      </g>
     </g>
    </g>
    <g id="xtick_6">
     <g id="line2d_11">
      <path d="M 239.54789 343.317355 
L 239.54789 41.111688 
" clip-path="url(#p9d35dfbbc9)" style="fill: none; stroke: #b0b0b0; stroke-opacity: 0.3; stroke-width: 0.8; stroke-linecap: square"/>
     </g>
     <g id="line2d_12">
      <g>
       <use xlink:href="#ma127cbdaca" x="239.54789" y="343.317355" style="stroke: #000000; stroke-width: 0.8"/>
      </g>
     </g>
     <g id="text_6">
      <!-- 10kcp -->
      <g transform="translate(212.019781 382.528279) rotate(-45) scale(0.12 -0.12)">
       <defs>
        <path id="DejaVuSans-30" d="M 2034 4250 
Q 1547 4250 1301 3770 
Q 1056 3291 1056 2328 
Q 1056 1369 1301 889 
Q 1547 409 2034 409 
Q 2525 409 2770 889 
Q 3016 1369 3016 2328 
Q 3016 3291 2770 3770 
Q 2525 4250 2034 4250 
z
M 2034 4750 
Q 2819 4750 3233 4129 
Q 3647 3509 3647 2328 
Q 3647 1150 3233 529 
Q 2819 -91 2034 -91 
Q 1250 -91 836 529 
Q 422 1150 422 2328 
Q 422 3509 836 4129 
Q 1250 4750 2034 4750 
z
" transform="scale(0.015625)"/>
       </defs>
       <use xlink:href="#DejaVuSans-31"/>
       <use xlink:href="#DejaVuSans-30" transform="translate(63.623047 0)"/>
       <use xlink:href="#DejaVuSans-6b" transform="translate(127.246094 0)"/>
       <use xlink:href="#DejaVuSans-63" transform="translate(185.15625 0)"/>
       <use xlink:href="#DejaVuSans-70" transform="translate(240.136719 0)"/>
      </g>
     </g>
    </g>
    <g id="xtick_7">
     <g id="line2d_13">
      <path d="M 265.137509 343.317355 
L 265.137509 41.111688 
" clip-path="url(#p9d35dfbbc9)" style="fill: none; stroke: #b0b0b0; stroke-opacity: 0.3; stroke-width: 0.8; stroke-linecap: square"/>
     </g>
     <g id="line2d_14">
      <g>
       <use xlink:href="#ma127cbdaca" x="265.137509" y="343.317355" style="stroke: #000000; stroke-width: 0.8"/>
      </g>
     </g>
     <g id="text_7">
      <!-- 12.5kcp -->
      <g transform="translate(229.513912 390.623768) rotate(-45) scale(0.12 -0.12)">
       <defs>
        <path id="DejaVuSans-2e" d="M 684 794 
L 1344 794 
L 1344 0 
L 684 0 
L 684 794 
z
" transform="scale(0.015625)"/>
       </defs>
       <use xlink:href="#DejaVuSans-31"/>
       <use xlink:href="#DejaVuSans-32" transform="translate(63.623047 0)"/>
       <use xlink:href="#DejaVuSans-2e" transform="translate(127.246094 0)"/>
       <use xlink:href="#DejaVuSans-35" transform="translate(159.033203 0)"/>
       <use xlink:href="#DejaVuSans-6b" transform="translate(222.65625 0)"/>
       <use xlink:href="#DejaVuSans-63" transform="translate(280.566406 0)"/>
       <use xlink:href="#DejaVuSans-70" transform="translate(335.546875 0)"/>
      </g>
     </g>
    </g>
    <g id="xtick_8">
     <g id="line2d_15">
      <path d="M 290.727129 343.317355 
L 290.727129 41.111688 
" clip-path="url(#p9d35dfbbc9)" style="fill: none; stroke: #b0b0b0; stroke-opacity: 0.3; stroke-width: 0.8; stroke-linecap: square"/>
     </g>
     <g id="line2d_16">
      <g>
       <use xlink:href="#ma127cbdaca" x="290.727129" y="343.317355" style="stroke: #000000; stroke-width: 0.8"/>
      </g>
     </g>
     <g id="text_8">
      <!-- 15kcp -->
      <g transform="translate(263.19902 382.528279) rotate(-45) scale(0.12 -0.12)">
       <use xlink:href="#DejaVuSans-31"/>
       <use xlink:href="#DejaVuSans-35" transform="translate(63.623047 0)"/>
       <use xlink:href="#DejaVuSans-6b" transform="translate(127.246094 0)"/>
       <use xlink:href="#DejaVuSans-63" transform="translate(185.15625 0)"/>
       <use xlink:href="#DejaVuSans-70" transform="translate(240.136719 0)"/>
      </g>
     </g>
    </g>
    <g id="xtick_9">
     <g id="line2d_17">
      <path d="M 316.316748 343.317355 
L 316.316748 41.111688 
" clip-path="url(#p9d35dfbbc9)" style="fill: none; stroke: #b0b0b0; stroke-opacity: 0.3; stroke-width: 0.8; stroke-linecap: square"/>
     </g>
     <g id="line2d_18">
      <g>
       <use xlink:href="#ma127cbdaca" x="316.316748" y="343.317355" style="stroke: #000000; stroke-width: 0.8"/>
      </g>
     </g>
     <g id="text_9">
      <!-- 20kcp -->
      <g transform="translate(288.788639 382.528279) rotate(-45) scale(0.12 -0.12)">
       <use xlink:href="#DejaVuSans-32"/>
       <use xlink:href="#DejaVuSans-30" transform="translate(63.623047 0)"/>
       <use xlink:href="#DejaVuSans-6b" transform="translate(127.246094 0)"/>
       <use xlink:href="#DejaVuSans-63" transform="translate(185.15625 0)"/>
       <use xlink:href="#DejaVuSans-70" transform="translate(240.136719 0)"/>
      </g>
     </g>
    </g>
    <g id="xtick_10">
     <g id="line2d_19">
      <path d="M 341.906367 343.317355 
L 341.906367 41.111688 
" clip-path="url(#p9d35dfbbc9)" style="fill: none; stroke: #b0b0b0; stroke-opacity: 0.3; stroke-width: 0.8; stroke-linecap: square"/>
     </g>
     <g id="line2d_20">
      <g>
       <use xlink:href="#ma127cbdaca" x="341.906367" y="343.317355" style="stroke: #000000; stroke-width: 0.8"/>
      </g>
     </g>
     <g id="text_10">
      <!-- 25kcp -->
      <g transform="translate(314.378258 382.528279) rotate(-45) scale(0.12 -0.12)">
       <use xlink:href="#DejaVuSans-32"/>
       <use xlink:href="#DejaVuSans-35" transform="translate(63.623047 0)"/>
       <use xlink:href="#DejaVuSans-6b" transform="translate(127.246094 0)"/>
       <use xlink:href="#DejaVuSans-63" transform="translate(185.15625 0)"/>
       <use xlink:href="#DejaVuSans-70" transform="translate(240.136719 0)"/>
      </g>
     </g>
    </g>
    <g id="xtick_11">
     <g id="line2d_21">
      <path d="M 367.495987 343.317355 
L 367.495987 41.111688 
" clip-path="url(#p9d35dfbbc9)" style="fill: none; stroke: #b0b0b0; stroke-opacity: 0.3; stroke-width: 0.8; stroke-linecap: square"/>
     </g>
     <g id="line2d_22">
      <g>
       <use xlink:href="#ma127cbdaca" x="367.495987" y="343.317355" style="stroke: #000000; stroke-width: 0.8"/>
      </g>
     </g>
     <g id="text_11">
      <!-- 30kcp -->
      <g transform="translate(339.967878 382.528279) rotate(-45) scale(0.12 -0.12)">
       <defs>
        <path id="DejaVuSans-33" d="M 2597 2516 
Q 3050 2419 3304 2112 
Q 3559 1806 3559 1356 
Q 3559 666 3084 287 
Q 2609 -91 1734 -91 
Q 1441 -91 1130 -33 
Q 819 25 488 141 
L 488 750 
Q 750 597 1062 519 
Q 1375 441 1716 441 
Q 2309 441 2620 675 
Q 2931 909 2931 1356 
Q 2931 1769 2642 2001 
Q 2353 2234 1838 2234 
L 1294 2234 
L 1294 2753 
L 1863 2753 
Q 2328 2753 2575 2939 
Q 2822 3125 2822 3475 
Q 2822 3834 2567 4026 
Q 2313 4219 1838 4219 
Q 1578 4219 1281 4162 
Q 984 4106 628 3988 
L 628 4550 
Q 988 4650 1302 4700 
Q 1616 4750 1894 4750 
Q 2613 4750 3031 4423 
Q 3450 4097 3450 3541 
Q 3450 3153 3228 2886 
Q 3006 2619 2597 2516 
z
" transform="scale(0.015625)"/>
       </defs>
       <use xlink:href="#DejaVuSans-33"/>
       <use xlink:href="#DejaVuSans-30" transform="translate(63.623047 0)"/>
       <use xlink:href="#DejaVuSans-6b" transform="translate(127.246094 0)"/>
       <use xlink:href="#DejaVuSans-63" transform="translate(185.15625 0)"/>
       <use xlink:href="#DejaVuSans-70" transform="translate(240.136719 0)"/>
      </g>
     </g>
    </g>
    <g id="xtick_12">
     <g id="line2d_23">
      <path d="M 393.085606 343.317355 
L 393.085606 41.111688 
" clip-path="url(#p9d35dfbbc9)" style="fill: none; stroke: #b0b0b0; stroke-opacity: 0.3; stroke-width: 0.8; stroke-linecap: square"/>
     </g>
     <g id="line2d_24">
      <g>
       <use xlink:href="#ma127cbdaca" x="393.085606" y="343.317355" style="stroke: #000000; stroke-width: 0.8"/>
      </g>
     </g>
     <g id="text_12">
      <!-- 35kcp -->
      <g transform="translate(365.557497 382.528279) rotate(-45) scale(0.12 -0.12)">
       <use xlink:href="#DejaVuSans-33"/>
       <use xlink:href="#DejaVuSans-35" transform="translate(63.623047 0)"/>
       <use xlink:href="#DejaVuSans-6b" transform="translate(127.246094 0)"/>
       <use xlink:href="#DejaVuSans-63" transform="translate(185.15625 0)"/>
       <use xlink:href="#DejaVuSans-70" transform="translate(240.136719 0)"/>
      </g>
     </g>
    </g>
    <g id="xtick_13">
     <g id="line2d_25">
      <path d="M 418.675225 343.317355 
L 418.675225 41.111688 
" clip-path="url(#p9d35dfbbc9)" style="fill: none; stroke: #b0b0b0; stroke-opacity: 0.3; stroke-width: 0.8; stroke-linecap: square"/>
     </g>
     <g id="line2d_26">
      <g>
       <use xlink:href="#ma127cbdaca" x="418.675225" y="343.317355" style="stroke: #000000; stroke-width: 0.8"/>
      </g>
     </g>
     <g id="text_13">
      <!-- 40kcp -->
      <g transform="translate(391.147116 382.528279) rotate(-45) scale(0.12 -0.12)">
       <use xlink:href="#DejaVuSans-34"/>
       <use xlink:href="#DejaVuSans-30" transform="translate(63.623047 0)"/>
       <use xlink:href="#DejaVuSans-6b" transform="translate(127.246094 0)"/>
       <use xlink:href="#DejaVuSans-63" transform="translate(185.15625 0)"/>
       <use xlink:href="#DejaVuSans-70" transform="translate(240.136719 0)"/>
      </g>
     </g>
    </g>
    <g id="xtick_14">
     <g id="line2d_27">
      <path d="M 444.264845 343.317355 
L 444.264845 41.111688 
" clip-path="url(#p9d35dfbbc9)" style="fill: none; stroke: #b0b0b0; stroke-opacity: 0.3; stroke-width: 0.8; stroke-linecap: square"/>
     </g>
     <g id="line2d_28">
      <g>
       <use xlink:href="#ma127cbdaca" x="444.264845" y="343.317355" style="stroke: #000000; stroke-width: 0.8"/>
      </g>
     </g>
     <g id="text_14">
      <!-- 45kcp -->
      <g transform="translate(416.736736 382.528279) rotate(-45) scale(0.12 -0.12)">
       <use xlink:href="#DejaVuSans-34"/>
       <use xlink:href="#DejaVuSans-35" transform="translate(63.623047 0)"/>
       <use xlink:href="#DejaVuSans-6b" transform="translate(127.246094 0)"/>
       <use xlink:href="#DejaVuSans-63" transform="translate(185.15625 0)"/>
       <use xlink:href="#DejaVuSans-70" transform="translate(240.136719 0)"/>
      </g>
     </g>
    </g>
    <g id="xtick_15">
     <g id="line2d_29">
      <path d="M 469.854464 343.317355 
L 469.854464 41.111688 
" clip-path="url(#p9d35dfbbc9)" style="fill: none; stroke: #b0b0b0; stroke-opacity: 0.3; stroke-width: 0.8; stroke-linecap: square"/>
     </g>
     <g id="line2d_30">
      <g>
       <use xlink:href="#ma127cbdaca" x="469.854464" y="343.317355" style="stroke: #000000; stroke-width: 0.8"/>
      </g>
     </g>
     <g id="text_15">
      <!-- 50kcp -->
      <g transform="translate(442.326355 382.528279) rotate(-45) scale(0.12 -0.12)">
       <use xlink:href="#DejaVuSans-35"/>
       <use xlink:href="#DejaVuSans-30" transform="translate(63.623047 0)"/>
       <use xlink:href="#DejaVuSans-6b" transform="translate(127.246094 0)"/>
       <use xlink:href="#DejaVuSans-63" transform="translate(185.15625 0)"/>
       <use xlink:href="#DejaVuSans-70" transform="translate(240.136719 0)"/>
      </g>
     </g>
    </g>
    <g id="xtick_16">
     <g id="line2d_31">
      <path d="M 495.444083 343.317355 
L 495.444083 41.111688 
" clip-path="url(#p9d35dfbbc9)" style="fill: none; stroke: #b0b0b0; stroke-opacity: 0.3; stroke-width: 0.8; stroke-linecap: square"/>
     </g>
     <g id="line2d_32">
      <g>
       <use xlink:href="#ma127cbdaca" x="495.444083" y="343.317355" style="stroke: #000000; stroke-width: 0.8"/>
      </g>
     </g>
     <g id="text_16">
      <!-- 55kcp -->
      <g transform="translate(467.915974 382.528279) rotate(-45) scale(0.12 -0.12)">
       <use xlink:href="#DejaVuSans-35"/>
       <use xlink:href="#DejaVuSans-35" transform="translate(63.623047 0)"/>
       <use xlink:href="#DejaVuSans-6b" transform="translate(127.246094 0)"/>
       <use xlink:href="#DejaVuSans-63" transform="translate(185.15625 0)"/>
       <use xlink:href="#DejaVuSans-70" transform="translate(240.136719 0)"/>
      </g>
     </g>
    </g>
    <g id="xtick_17">
     <g id="line2d_33">
      <path d="M 521.033703 343.317355 
L 521.033703 41.111688 
" clip-path="url(#p9d35dfbbc9)" style="fill: none; stroke: #b0b0b0; stroke-opacity: 0.3; stroke-width: 0.8; stroke-linecap: square"/>
     </g>
     <g id="line2d_34">
      <g>
       <use xlink:href="#ma127cbdaca" x="521.033703" y="343.317355" style="stroke: #000000; stroke-width: 0.8"/>
      </g>
     </g>
     <g id="text_17">
      <!-- 60kcp -->
      <g transform="translate(493.505594 382.528279) rotate(-45) scale(0.12 -0.12)">
       <defs>
        <path id="DejaVuSans-36" d="M 2113 2584 
Q 1688 2584 1439 2293 
Q 1191 2003 1191 1497 
Q 1191 994 1439 701 
Q 1688 409 2113 409 
Q 2538 409 2786 701 
Q 3034 994 3034 1497 
Q 3034 2003 2786 2293 
Q 2538 2584 2113 2584 
z
M 3366 4563 
L 3366 3988 
Q 3128 4100 2886 4159 
Q 2644 4219 2406 4219 
Q 1781 4219 1451 3797 
Q 1122 3375 1075 2522 
Q 1259 2794 1537 2939 
Q 1816 3084 2150 3084 
Q 2853 3084 3261 2657 
Q 3669 2231 3669 1497 
Q 3669 778 3244 343 
Q 2819 -91 2113 -91 
Q 1303 -91 875 529 
Q 447 1150 447 2328 
Q 447 3434 972 4092 
Q 1497 4750 2381 4750 
Q 2619 4750 2861 4703 
Q 3103 4656 3366 4563 
z
" transform="scale(0.015625)"/>
       </defs>
       <use xlink:href="#DejaVuSans-36"/>
       <use xlink:href="#DejaVuSans-30" transform="translate(63.623047 0)"/>
       <use xlink:href="#DejaVuSans-6b" transform="translate(127.246094 0)"/>
       <use xlink:href="#DejaVuSans-63" transform="translate(185.15625 0)"/>
       <use xlink:href="#DejaVuSans-70" transform="translate(240.136719 0)"/>
      </g>
     </g>
    </g>
    <g id="xtick_18">
     <g id="line2d_35">
      <path d="M 546.623322 343.317355 
L 546.623322 41.111688 
" clip-path="url(#p9d35dfbbc9)" style="fill: none; stroke: #b0b0b0; stroke-opacity: 0.3; stroke-width: 0.8; stroke-linecap: square"/>
     </g>
     <g id="line2d_36">
      <g>
       <use xlink:href="#ma127cbdaca" x="546.623322" y="343.317355" style="stroke: #000000; stroke-width: 0.8"/>
      </g>
     </g>
     <g id="text_18">
      <!-- 70kcp -->
      <g transform="translate(519.095213 382.528279) rotate(-45) scale(0.12 -0.12)">
       <defs>
        <path id="DejaVuSans-37" d="M 525 4666 
L 3525 4666 
L 3525 4397 
L 1831 0 
L 1172 0 
L 2766 4134 
L 525 4134 
L 525 4666 
z
" transform="scale(0.015625)"/>
       </defs>
       <use xlink:href="#DejaVuSans-37"/>
       <use xlink:href="#DejaVuSans-30" transform="translate(63.623047 0)"/>
       <use xlink:href="#DejaVuSans-6b" transform="translate(127.246094 0)"/>
       <use xlink:href="#DejaVuSans-63" transform="translate(185.15625 0)"/>
       <use xlink:href="#DejaVuSans-70" transform="translate(240.136719 0)"/>
      </g>
     </g>
    </g>
    <g id="xtick_19">
     <g id="line2d_37">
      <path d="M 572.212941 343.317355 
L 572.212941 41.111688 
" clip-path="url(#p9d35dfbbc9)" style="fill: none; stroke: #b0b0b0; stroke-opacity: 0.3; stroke-width: 0.8; stroke-linecap: square"/>
     </g>
     <g id="line2d_38">
      <g>
       <use xlink:href="#ma127cbdaca" x="572.212941" y="343.317355" style="stroke: #000000; stroke-width: 0.8"/>
      </g>
     </g>
     <g id="text_19">
      <!-- 75kcp -->
      <g transform="translate(544.684832 382.528279) rotate(-45) scale(0.12 -0.12)">
       <use xlink:href="#DejaVuSans-37"/>
       <use xlink:href="#DejaVuSans-35" transform="translate(63.623047 0)"/>
       <use xlink:href="#DejaVuSans-6b" transform="translate(127.246094 0)"/>
       <use xlink:href="#DejaVuSans-63" transform="translate(185.15625 0)"/>
       <use xlink:href="#DejaVuSans-70" transform="translate(240.136719 0)"/>
      </g>
     </g>
    </g>
    <g id="xtick_20">
     <g id="line2d_39">
      <path d="M 597.802561 343.317355 
L 597.802561 41.111688 
" clip-path="url(#p9d35dfbbc9)" style="fill: none; stroke: #b0b0b0; stroke-opacity: 0.3; stroke-width: 0.8; stroke-linecap: square"/>
     </g>
     <g id="line2d_40">
      <g>
       <use xlink:href="#ma127cbdaca" x="597.802561" y="343.317355" style="stroke: #000000; stroke-width: 0.8"/>
      </g>
     </g>
     <g id="text_20">
      <!-- 80kcp -->
      <g transform="translate(570.274452 382.528279) rotate(-45) scale(0.12 -0.12)">
       <use xlink:href="#DejaVuSans-38"/>
       <use xlink:href="#DejaVuSans-30" transform="translate(63.623047 0)"/>
       <use xlink:href="#DejaVuSans-6b" transform="translate(127.246094 0)"/>
       <use xlink:href="#DejaVuSans-63" transform="translate(185.15625 0)"/>
       <use xlink:href="#DejaVuSans-70" transform="translate(240.136719 0)"/>
      </g>
     </g>
    </g>
    <g id="xtick_21">
     <g id="line2d_41">
      <path d="M 623.39218 343.317355 
L 623.39218 41.111688 
" clip-path="url(#p9d35dfbbc9)" style="fill: none; stroke: #b0b0b0; stroke-opacity: 0.3; stroke-width: 0.8; stroke-linecap: square"/>
     </g>
     <g id="line2d_42">
      <g>
       <use xlink:href="#ma127cbdaca" x="623.39218" y="343.317355" style="stroke: #000000; stroke-width: 0.8"/>
      </g>
     </g>
     <g id="text_21">
      <!-- 90kcp -->
      <g transform="translate(595.864071 382.528279) rotate(-45) scale(0.12 -0.12)">
       <defs>
        <path id="DejaVuSans-39" d="M 703 97 
L 703 672 
Q 941 559 1184 500 
Q 1428 441 1663 441 
Q 2288 441 2617 861 
Q 2947 1281 2994 2138 
Q 2813 1869 2534 1725 
Q 2256 1581 1919 1581 
Q 1219 1581 811 2004 
Q 403 2428 403 3163 
Q 403 3881 828 4315 
Q 1253 4750 1959 4750 
Q 2769 4750 3195 4129 
Q 3622 3509 3622 2328 
Q 3622 1225 3098 567 
Q 2575 -91 1691 -91 
Q 1453 -91 1209 -44 
Q 966 3 703 97 
z
M 1959 2075 
Q 2384 2075 2632 2365 
Q 2881 2656 2881 3163 
Q 2881 3666 2632 3958 
Q 2384 4250 1959 4250 
Q 1534 4250 1286 3958 
Q 1038 3666 1038 3163 
Q 1038 2656 1286 2365 
Q 1534 2075 1959 2075 
z
" transform="scale(0.015625)"/>
       </defs>
       <use xlink:href="#DejaVuSans-39"/>
       <use xlink:href="#DejaVuSans-30" transform="translate(63.623047 0)"/>
       <use xlink:href="#DejaVuSans-6b" transform="translate(127.246094 0)"/>
       <use xlink:href="#DejaVuSans-63" transform="translate(185.15625 0)"/>
       <use xlink:href="#DejaVuSans-70" transform="translate(240.136719 0)"/>
      </g>
     </g>
    </g>
    <g id="xtick_22">
     <g id="line2d_43">
      <path d="M 648.981799 343.317355 
L 648.981799 41.111688 
" clip-path="url(#p9d35dfbbc9)" style="fill: none; stroke: #b0b0b0; stroke-opacity: 0.3; stroke-width: 0.8; stroke-linecap: square"/>
     </g>
     <g id="line2d_44">
      <g>
       <use xlink:href="#ma127cbdaca" x="648.981799" y="343.317355" style="stroke: #000000; stroke-width: 0.8"/>
      </g>
     </g>
     <g id="text_22">
      <!-- 95kcp -->
      <g transform="translate(621.45369 382.528279) rotate(-45) scale(0.12 -0.12)">
       <use xlink:href="#DejaVuSans-39"/>
       <use xlink:href="#DejaVuSans-35" transform="translate(63.623047 0)"/>
       <use xlink:href="#DejaVuSans-6b" transform="translate(127.246094 0)"/>
       <use xlink:href="#DejaVuSans-63" transform="translate(185.15625 0)"/>
       <use xlink:href="#DejaVuSans-70" transform="translate(240.136719 0)"/>
      </g>
     </g>
    </g>
    <g id="xtick_23">
     <g id="line2d_45">
      <path d="M 674.571419 343.317355 
L 674.571419 41.111688 
" clip-path="url(#p9d35dfbbc9)" style="fill: none; stroke: #b0b0b0; stroke-opacity: 0.3; stroke-width: 0.8; stroke-linecap: square"/>
     </g>
     <g id="line2d_46">
      <g>
       <use xlink:href="#ma127cbdaca" x="674.571419" y="343.317355" style="stroke: #000000; stroke-width: 0.8"/>
      </g>
     </g>
     <g id="text_23">
      <!-- 100kcp -->
      <g transform="translate(641.64455 387.927039) rotate(-45) scale(0.12 -0.12)">
       <use xlink:href="#DejaVuSans-31"/>
       <use xlink:href="#DejaVuSans-30" transform="translate(63.623047 0)"/>
       <use xlink:href="#DejaVuSans-30" transform="translate(127.246094 0)"/>
       <use xlink:href="#DejaVuSans-6b" transform="translate(190.869141 0)"/>
       <use xlink:href="#DejaVuSans-63" transform="translate(248.779297 0)"/>
       <use xlink:href="#DejaVuSans-70" transform="translate(303.759766 0)"/>
      </g>
     </g>
    </g>
   </g>
   <g id="matplotlib.axis_2">
    <g id="ytick_1">
     <g id="line2d_47">
      <path d="M 83.451212 312.750279 
L 702.72 312.750279 
" clip-path="url(#p9d35dfbbc9)" style="fill: none; stroke: #b0b0b0; stroke-opacity: 0.3; stroke-width: 0.8; stroke-linecap: square"/>
     </g>
     <g id="line2d_48">
      <defs>
       <path id="mfe7ac07380" d="M 0 0 
L -3.5 0 
" style="stroke: #000000; stroke-width: 0.8"/>
      </defs>
      <g>
       <use xlink:href="#mfe7ac07380" x="83.451212" y="312.750279" style="stroke: #000000; stroke-width: 0.8"/>
      </g>
     </g>
     <g id="text_24">
      <!-- 0.36 -->
      <g transform="translate(49.732462 317.309342) scale(0.12 -0.12)">
       <use xlink:href="#DejaVuSans-30"/>
       <use xlink:href="#DejaVuSans-2e" transform="translate(63.623047 0)"/>
       <use xlink:href="#DejaVuSans-33" transform="translate(95.410156 0)"/>
       <use xlink:href="#DejaVuSans-36" transform="translate(159.033203 0)"/>
      </g>
     </g>
    </g>
    <g id="ytick_2">
     <g id="line2d_49">
      <path d="M 83.451212 263.248942 
L 702.72 263.248942 
" clip-path="url(#p9d35dfbbc9)" style="fill: none; stroke: #b0b0b0; stroke-opacity: 0.3; stroke-width: 0.8; stroke-linecap: square"/>
     </g>
     <g id="line2d_50">
      <g>
       <use xlink:href="#mfe7ac07380" x="83.451212" y="263.248942" style="stroke: #000000; stroke-width: 0.8"/>
      </g>
     </g>
     <g id="text_25">
      <!-- 0.38 -->
      <g transform="translate(49.732462 267.808004) scale(0.12 -0.12)">
       <use xlink:href="#DejaVuSans-30"/>
       <use xlink:href="#DejaVuSans-2e" transform="translate(63.623047 0)"/>
       <use xlink:href="#DejaVuSans-33" transform="translate(95.410156 0)"/>
       <use xlink:href="#DejaVuSans-38" transform="translate(159.033203 0)"/>
      </g>
     </g>
    </g>
    <g id="ytick_3">
     <g id="line2d_51">
      <path d="M 83.451212 213.747604 
L 702.72 213.747604 
" clip-path="url(#p9d35dfbbc9)" style="fill: none; stroke: #b0b0b0; stroke-opacity: 0.3; stroke-width: 0.8; stroke-linecap: square"/>
     </g>
     <g id="line2d_52">
      <g>
       <use xlink:href="#mfe7ac07380" x="83.451212" y="213.747604" style="stroke: #000000; stroke-width: 0.8"/>
      </g>
     </g>
     <g id="text_26">
      <!-- 0.40 -->
      <g transform="translate(49.732462 218.306666) scale(0.12 -0.12)">
       <use xlink:href="#DejaVuSans-30"/>
       <use xlink:href="#DejaVuSans-2e" transform="translate(63.623047 0)"/>
       <use xlink:href="#DejaVuSans-34" transform="translate(95.410156 0)"/>
       <use xlink:href="#DejaVuSans-30" transform="translate(159.033203 0)"/>
      </g>
     </g>
    </g>
    <g id="ytick_4">
     <g id="line2d_53">
      <path d="M 83.451212 164.246266 
L 702.72 164.246266 
" clip-path="url(#p9d35dfbbc9)" style="fill: none; stroke: #b0b0b0; stroke-opacity: 0.3; stroke-width: 0.8; stroke-linecap: square"/>
     </g>
     <g id="line2d_54">
      <g>
       <use xlink:href="#mfe7ac07380" x="83.451212" y="164.246266" style="stroke: #000000; stroke-width: 0.8"/>
      </g>
     </g>
     <g id="text_27">
      <!-- 0.42 -->
      <g transform="translate(49.732462 168.805329) scale(0.12 -0.12)">
       <use xlink:href="#DejaVuSans-30"/>
       <use xlink:href="#DejaVuSans-2e" transform="translate(63.623047 0)"/>
       <use xlink:href="#DejaVuSans-34" transform="translate(95.410156 0)"/>
       <use xlink:href="#DejaVuSans-32" transform="translate(159.033203 0)"/>
      </g>
     </g>
    </g>
    <g id="ytick_5">
     <g id="line2d_55">
      <path d="M 83.451212 114.744928 
L 702.72 114.744928 
" clip-path="url(#p9d35dfbbc9)" style="fill: none; stroke: #b0b0b0; stroke-opacity: 0.3; stroke-width: 0.8; stroke-linecap: square"/>
     </g>
     <g id="line2d_56">
      <g>
       <use xlink:href="#mfe7ac07380" x="83.451212" y="114.744928" style="stroke: #000000; stroke-width: 0.8"/>
      </g>
     </g>
     <g id="text_28">
      <!-- 0.44 -->
      <g transform="translate(49.732462 119.303991) scale(0.12 -0.12)">
       <use xlink:href="#DejaVuSans-30"/>
       <use xlink:href="#DejaVuSans-2e" transform="translate(63.623047 0)"/>
       <use xlink:href="#DejaVuSans-34" transform="translate(95.410156 0)"/>
       <use xlink:href="#DejaVuSans-34" transform="translate(159.033203 0)"/>
      </g>
     </g>
    </g>
    <g id="ytick_6">
     <g id="line2d_57">
      <path d="M 83.451212 65.24359 
L 702.72 65.24359 
" clip-path="url(#p9d35dfbbc9)" style="fill: none; stroke: #b0b0b0; stroke-opacity: 0.3; stroke-width: 0.8; stroke-linecap: square"/>
     </g>
     <g id="line2d_58">
      <g>
       <use xlink:href="#mfe7ac07380" x="83.451212" y="65.24359" style="stroke: #000000; stroke-width: 0.8"/>
      </g>
     </g>
     <g id="text_29">
      <!-- 0.46 -->
      <g transform="translate(49.732462 69.802653) scale(0.12 -0.12)">
       <use xlink:href="#DejaVuSans-30"/>
       <use xlink:href="#DejaVuSans-2e" transform="translate(63.623047 0)"/>
       <use xlink:href="#DejaVuSans-34" transform="translate(95.410156 0)"/>
       <use xlink:href="#DejaVuSans-36" transform="translate(159.033203 0)"/>
      </g>
     </g>
    </g>
    <g id="text_30">
     <!-- h_c (mm) -->
     <g transform="translate(42.903087 220.593584) rotate(-90) scale(0.12 -0.12)">
      <defs>
       <path id="DejaVuSans-68" d="M 3513 2113 
L 3513 0 
L 2938 0 
L 2938 2094 
Q 2938 2591 2744 2837 
Q 2550 3084 2163 3084 
Q 1697 3084 1428 2787 
Q 1159 2491 1159 1978 
L 1159 0 
L 581 0 
L 581 4863 
L 1159 4863 
L 1159 2956 
Q 1366 3272 1645 3428 
Q 1925 3584 2291 3584 
Q 2894 3584 3203 3211 
Q 3513 2838 3513 2113 
z
" transform="scale(0.015625)"/>
       <path id="DejaVuSans-5f" d="M 3263 -1063 
L 3263 -1509 
L -63 -1509 
L -63 -1063 
L 3263 -1063 
z
" transform="scale(0.015625)"/>
       <path id="DejaVuSans-20" transform="scale(0.015625)"/>
       <path id="DejaVuSans-28" d="M 1984 4856 
Q 1566 4138 1362 3434 
Q 1159 2731 1159 2009 
Q 1159 1288 1364 580 
Q 1569 -128 1984 -844 
L 1484 -844 
Q 1016 -109 783 600 
Q 550 1309 550 2009 
Q 550 2706 781 3412 
Q 1013 4119 1484 4856 
L 1984 4856 
z
" transform="scale(0.015625)"/>
       <path id="DejaVuSans-6d" d="M 3328 2828 
Q 3544 3216 3844 3400 
Q 4144 3584 4550 3584 
Q 5097 3584 5394 3201 
Q 5691 2819 5691 2113 
L 5691 0 
L 5113 0 
L 5113 2094 
Q 5113 2597 4934 2840 
Q 4756 3084 4391 3084 
Q 3944 3084 3684 2787 
Q 3425 2491 3425 1978 
L 3425 0 
L 2847 0 
L 2847 2094 
Q 2847 2600 2669 2842 
Q 2491 3084 2119 3084 
Q 1678 3084 1418 2786 
Q 1159 2488 1159 1978 
L 1159 0 
L 581 0 
L 581 3500 
L 1159 3500 
L 1159 2956 
Q 1356 3278 1631 3431 
Q 1906 3584 2284 3584 
Q 2666 3584 2933 3390 
Q 3200 3197 3328 2828 
z
" transform="scale(0.015625)"/>
       <path id="DejaVuSans-29" d="M 513 4856 
L 1013 4856 
Q 1481 4119 1714 3412 
Q 1947 2706 1947 2009 
Q 1947 1309 1714 600 
Q 1481 -109 1013 -844 
L 513 -844 
Q 928 -128 1133 580 
Q 1338 1288 1338 2009 
Q 1338 2731 1133 3434 
Q 928 4138 513 4856 
z
" transform="scale(0.015625)"/>
      </defs>
      <use xlink:href="#DejaVuSans-68"/>
      <use xlink:href="#DejaVuSans-5f" transform="translate(63.378906 0)"/>
      <use xlink:href="#DejaVuSans-63" transform="translate(113.378906 0)"/>
      <use xlink:href="#DejaVuSans-20" transform="translate(168.359375 0)"/>
      <use xlink:href="#DejaVuSans-28" transform="translate(200.146484 0)"/>
      <use xlink:href="#DejaVuSans-6d" transform="translate(239.160156 0)"/>
      <use xlink:href="#DejaVuSans-6d" transform="translate(336.572266 0)"/>
      <use xlink:href="#DejaVuSans-29" transform="translate(433.984375 0)"/>
     </g>
    </g>
   </g>
   <g id="LineCollection_1">
    <path d="M 111.599793 271.268158 
L 111.599793 252.804159 
" clip-path="url(#p9d35dfbbc9)" style="fill: #4285f4; stroke: #4285f4; stroke-width: 1.6"/>
    <path d="M 137.189413 291.934967 
L 137.189413 261.590647 
" clip-path="url(#p9d35dfbbc9)" style="fill: #4285f4; stroke: #4285f4; stroke-width: 1.6"/>
    <path d="M 162.779032 218.945244 
L 162.779032 190.927487 
" clip-path="url(#p9d35dfbbc9)" style="fill: #4285f4; stroke: #4285f4; stroke-width: 1.6"/>
    <path d="M 188.368651 297.850377 
L 188.368651 252.903162 
" clip-path="url(#p9d35dfbbc9)" style="fill: #4285f4; stroke: #4285f4; stroke-width: 1.6"/>
    <path d="M 213.958271 224.984407 
L 213.958271 188.155412 
" clip-path="url(#p9d35dfbbc9)" style="fill: #4285f4; stroke: #4285f4; stroke-width: 1.6"/>
    <path d="M 239.54789 111.675845 
L 239.54789 54.84831 
" clip-path="url(#p9d35dfbbc9)" style="fill: #4285f4; stroke: #4285f4; stroke-width: 1.6"/>
    <path d="M 265.137509 236.443967 
L 265.137509 198.525942 
" clip-path="url(#p9d35dfbbc9)" style="fill: #4285f4; stroke: #4285f4; stroke-width: 1.6"/>
    <path d="M 290.727129 158.82587 
L 290.727129 81.455279 
" clip-path="url(#p9d35dfbbc9)" style="fill: #4285f4; stroke: #4285f4; stroke-width: 1.6"/>
    <path d="M 316.316748 309.136682 
L 316.316748 271.119654 
" clip-path="url(#p9d35dfbbc9)" style="fill: #4285f4; stroke: #4285f4; stroke-width: 1.6"/>
    <path d="M 341.906367 291.514205 
L 341.906367 258.74432 
" clip-path="url(#p9d35dfbbc9)" style="fill: #4285f4; stroke: #4285f4; stroke-width: 1.6"/>
    <path d="M 367.495987 329.580734 
L 367.495987 283.692994 
" clip-path="url(#p9d35dfbbc9)" style="fill: #4285f4; stroke: #4285f4; stroke-width: 1.6"/>
    <path d="M 393.085606 280.376404 
L 393.085606 210.728022 
" clip-path="url(#p9d35dfbbc9)" style="fill: #4285f4; stroke: #4285f4; stroke-width: 1.6"/>
    <path d="M 418.675225 120.36333 
L 418.675225 82.692812 
" clip-path="url(#p9d35dfbbc9)" style="fill: #4285f4; stroke: #4285f4; stroke-width: 1.6"/>
    <path d="M 444.264845 246.467988 
L 444.264845 219.984772 
" clip-path="url(#p9d35dfbbc9)" style="fill: #4285f4; stroke: #4285f4; stroke-width: 1.6"/>
    <path d="M 469.854464 200.728752 
L 469.854464 175.532571 
" clip-path="url(#p9d35dfbbc9)" style="fill: #4285f4; stroke: #4285f4; stroke-width: 1.6"/>
    <path d="M 495.444083 135.634493 
L 495.444083 102.171588 
" clip-path="url(#p9d35dfbbc9)" style="fill: #4285f4; stroke: #4285f4; stroke-width: 1.6"/>
    <path d="M 521.033703 209.366735 
L 521.033703 174.567295 
" clip-path="url(#p9d35dfbbc9)" style="fill: #4285f4; stroke: #4285f4; stroke-width: 1.6"/>
    <path d="M 546.623322 174.493043 
L 546.623322 140.782632 
" clip-path="url(#p9d35dfbbc9)" style="fill: #4285f4; stroke: #4285f4; stroke-width: 1.6"/>
    <path d="M 572.212941 207.262929 
L 572.212941 178.948163 
" clip-path="url(#p9d35dfbbc9)" style="fill: #4285f4; stroke: #4285f4; stroke-width: 1.6"/>
    <path d="M 597.802561 309.309936 
L 597.802561 238.374519 
" clip-path="url(#p9d35dfbbc9)" style="fill: #4285f4; stroke: #4285f4; stroke-width: 1.6"/>
    <path d="M 623.39218 170.136925 
L 623.39218 149.890878 
" clip-path="url(#p9d35dfbbc9)" style="fill: #4285f4; stroke: #4285f4; stroke-width: 1.6"/>
    <path d="M 648.981799 262.654926 
L 648.981799 232.508611 
" clip-path="url(#p9d35dfbbc9)" style="fill: #4285f4; stroke: #4285f4; stroke-width: 1.6"/>
    <path d="M 674.571419 110.883824 
L 674.571419 86.182656 
" clip-path="url(#p9d35dfbbc9)" style="fill: #4285f4; stroke: #4285f4; stroke-width: 1.6"/>
   </g>
   <g id="line2d_59">
    <defs>
     <path id="m8d355b0f6c" d="M 3 0 
L -3 -0 
" style="stroke: #db4437"/>
    </defs>
    <g clip-path="url(#p9d35dfbbc9)">
     <use xlink:href="#m8d355b0f6c" x="111.599793" y="271.268158" style="fill: #db4437; stroke: #db4437"/>
     <use xlink:href="#m8d355b0f6c" x="137.189413" y="291.934967" style="fill: #db4437; stroke: #db4437"/>
     <use xlink:href="#m8d355b0f6c" x="162.779032" y="218.945244" style="fill: #db4437; stroke: #db4437"/>
     <use xlink:href="#m8d355b0f6c" x="188.368651" y="297.850377" style="fill: #db4437; stroke: #db4437"/>
     <use xlink:href="#m8d355b0f6c" x="213.958271" y="224.984407" style="fill: #db4437; stroke: #db4437"/>
     <use xlink:href="#m8d355b0f6c" x="239.54789" y="111.675845" style="fill: #db4437; stroke: #db4437"/>
     <use xlink:href="#m8d355b0f6c" x="265.137509" y="236.443967" style="fill: #db4437; stroke: #db4437"/>
     <use xlink:href="#m8d355b0f6c" x="290.727129" y="158.82587" style="fill: #db4437; stroke: #db4437"/>
     <use xlink:href="#m8d355b0f6c" x="316.316748" y="309.136682" style="fill: #db4437; stroke: #db4437"/>
     <use xlink:href="#m8d355b0f6c" x="341.906367" y="291.514205" style="fill: #db4437; stroke: #db4437"/>
     <use xlink:href="#m8d355b0f6c" x="367.495987" y="329.580734" style="fill: #db4437; stroke: #db4437"/>
     <use xlink:href="#m8d355b0f6c" x="393.085606" y="280.376404" style="fill: #db4437; stroke: #db4437"/>
     <use xlink:href="#m8d355b0f6c" x="418.675225" y="120.36333" style="fill: #db4437; stroke: #db4437"/>
     <use xlink:href="#m8d355b0f6c" x="444.264845" y="246.467988" style="fill: #db4437; stroke: #db4437"/>
     <use xlink:href="#m8d355b0f6c" x="469.854464" y="200.728752" style="fill: #db4437; stroke: #db4437"/>
     <use xlink:href="#m8d355b0f6c" x="495.444083" y="135.634493" style="fill: #db4437; stroke: #db4437"/>
     <use xlink:href="#m8d355b0f6c" x="521.033703" y="209.366735" style="fill: #db4437; stroke: #db4437"/>
     <use xlink:href="#m8d355b0f6c" x="546.623322" y="174.493043" style="fill: #db4437; stroke: #db4437"/>
     <use xlink:href="#m8d355b0f6c" x="572.212941" y="207.262929" style="fill: #db4437; stroke: #db4437"/>
     <use xlink:href="#m8d355b0f6c" x="597.802561" y="309.309936" style="fill: #db4437; stroke: #db4437"/>
     <use xlink:href="#m8d355b0f6c" x="623.39218" y="170.136925" style="fill: #db4437; stroke: #db4437"/>
     <use xlink:href="#m8d355b0f6c" x="648.981799" y="262.654926" style="fill: #db4437; stroke: #db4437"/>
     <use xlink:href="#m8d355b0f6c" x="674.571419" y="110.883824" style="fill: #db4437; stroke: #db4437"/>
    </g>
   </g>
   <g id="line2d_60">
    <defs>
     <path id="m7faf523c7e" d="M 3 0 
L -3 -0 
" style="stroke: #f4b400"/>
    </defs>
    <g clip-path="url(#p9d35dfbbc9)">
     <use xlink:href="#m7faf523c7e" x="111.599793" y="252.804159" style="fill: #f4b400; stroke: #f4b400"/>
     <use xlink:href="#m7faf523c7e" x="137.189413" y="261.590647" style="fill: #f4b400; stroke: #f4b400"/>
     <use xlink:href="#m7faf523c7e" x="162.779032" y="190.927487" style="fill: #f4b400; stroke: #f4b400"/>
     <use xlink:href="#m7faf523c7e" x="188.368651" y="252.903162" style="fill: #f4b400; stroke: #f4b400"/>
     <use xlink:href="#m7faf523c7e" x="213.958271" y="188.155412" style="fill: #f4b400; stroke: #f4b400"/>
     <use xlink:href="#m7faf523c7e" x="239.54789" y="54.84831" style="fill: #f4b400; stroke: #f4b400"/>
     <use xlink:href="#m7faf523c7e" x="265.137509" y="198.525942" style="fill: #f4b400; stroke: #f4b400"/>
     <use xlink:href="#m7faf523c7e" x="290.727129" y="81.455279" style="fill: #f4b400; stroke: #f4b400"/>
     <use xlink:href="#m7faf523c7e" x="316.316748" y="271.119654" style="fill: #f4b400; stroke: #f4b400"/>
     <use xlink:href="#m7faf523c7e" x="341.906367" y="258.74432" style="fill: #f4b400; stroke: #f4b400"/>
     <use xlink:href="#m7faf523c7e" x="367.495987" y="283.692994" style="fill: #f4b400; stroke: #f4b400"/>
     <use xlink:href="#m7faf523c7e" x="393.085606" y="210.728022" style="fill: #f4b400; stroke: #f4b400"/>
     <use xlink:href="#m7faf523c7e" x="418.675225" y="82.692812" style="fill: #f4b400; stroke: #f4b400"/>
     <use xlink:href="#m7faf523c7e" x="444.264845" y="219.984772" style="fill: #f4b400; stroke: #f4b400"/>
     <use xlink:href="#m7faf523c7e" x="469.854464" y="175.532571" style="fill: #f4b400; stroke: #f4b400"/>
     <use xlink:href="#m7faf523c7e" x="495.444083" y="102.171588" style="fill: #f4b400; stroke: #f4b400"/>
     <use xlink:href="#m7faf523c7e" x="521.033703" y="174.567295" style="fill: #f4b400; stroke: #f4b400"/>
     <use xlink:href="#m7faf523c7e" x="546.623322" y="140.782632" style="fill: #f4b400; stroke: #f4b400"/>
     <use xlink:href="#m7faf523c7e" x="572.212941" y="178.948163" style="fill: #f4b400; stroke: #f4b400"/>
     <use xlink:href="#m7faf523c7e" x="597.802561" y="238.374519" style="fill: #f4b400; stroke: #f4b400"/>
     <use xlink:href="#m7faf523c7e" x="623.39218" y="149.890878" style="fill: #f4b400; stroke: #f4b400"/>
     <use xlink:href="#m7faf523c7e" x="648.981799" y="232.508611" style="fill: #f4b400; stroke: #f4b400"/>
     <use xlink:href="#m7faf523c7e" x="674.571419" y="86.182656" style="fill: #f4b400; stroke: #f4b400"/>
    </g>
   </g>
   <g id="line2d_61">
    <path d="M 83.451212 207.236436 
L 702.72 207.236436 
" clip-path="url(#p9d35dfbbc9)" style="fill: none; stroke-dasharray: 5.92,2.56; stroke-dashoffset: 0; stroke: #0f9d58; stroke-width: 1.6"/>
   </g>
   <g id="line2d_62">
    <defs>
     <path id="mff558ab4f9" d="M 0 3 
C 0.795609 3 1.55874 2.683901 2.12132 2.12132 
C 2.683901 1.55874 3 0.795609 3 0 
C 3 -0.795609 2.683901 -1.55874 2.12132 -2.12132 
C 1.55874 -2.683901 0.795609 -3 0 -3 
C -0.795609 -3 -1.55874 -2.683901 -2.12132 -2.12132 
C -2.683901 -1.55874 -3 -0.795609 -3 0 
C -3 0.795609 -2.683901 1.55874 -2.12132 2.12132 
C -1.55874 2.683901 -0.795609 3 0 3 
z
" style="stroke: #4285f4"/>
    </defs>
    <g clip-path="url(#p9d35dfbbc9)">
     <use xlink:href="#mff558ab4f9" x="111.599793" y="262.036159" style="fill: #4285f4; stroke: #4285f4"/>
     <use xlink:href="#mff558ab4f9" x="137.189413" y="276.762807" style="fill: #4285f4; stroke: #4285f4"/>
     <use xlink:href="#mff558ab4f9" x="162.779032" y="204.936366" style="fill: #4285f4; stroke: #4285f4"/>
     <use xlink:href="#mff558ab4f9" x="188.368651" y="275.376769" style="fill: #4285f4; stroke: #4285f4"/>
     <use xlink:href="#mff558ab4f9" x="213.958271" y="206.56991" style="fill: #4285f4; stroke: #4285f4"/>
     <use xlink:href="#mff558ab4f9" x="239.54789" y="83.262077" style="fill: #4285f4; stroke: #4285f4"/>
     <use xlink:href="#mff558ab4f9" x="265.137509" y="217.484955" style="fill: #4285f4; stroke: #4285f4"/>
     <use xlink:href="#mff558ab4f9" x="290.727129" y="120.140574" style="fill: #4285f4; stroke: #4285f4"/>
     <use xlink:href="#mff558ab4f9" x="316.316748" y="290.128168" style="fill: #4285f4; stroke: #4285f4"/>
     <use xlink:href="#mff558ab4f9" x="341.906367" y="275.129263" style="fill: #4285f4; stroke: #4285f4"/>
     <use xlink:href="#mff558ab4f9" x="367.495987" y="306.636864" style="fill: #4285f4; stroke: #4285f4"/>
     <use xlink:href="#mff558ab4f9" x="393.085606" y="245.552213" style="fill: #4285f4; stroke: #4285f4"/>
     <use xlink:href="#mff558ab4f9" x="418.675225" y="101.528071" style="fill: #4285f4; stroke: #4285f4"/>
     <use xlink:href="#mff558ab4f9" x="444.264845" y="233.22638" style="fill: #4285f4; stroke: #4285f4"/>
     <use xlink:href="#mff558ab4f9" x="469.854464" y="188.130662" style="fill: #4285f4; stroke: #4285f4"/>
     <use xlink:href="#mff558ab4f9" x="495.444083" y="118.903041" style="fill: #4285f4; stroke: #4285f4"/>
     <use xlink:href="#mff558ab4f9" x="521.033703" y="191.967015" style="fill: #4285f4; stroke: #4285f4"/>
     <use xlink:href="#mff558ab4f9" x="546.623322" y="157.637837" style="fill: #4285f4; stroke: #4285f4"/>
     <use xlink:href="#mff558ab4f9" x="572.212941" y="193.105546" style="fill: #4285f4; stroke: #4285f4"/>
     <use xlink:href="#mff558ab4f9" x="597.802561" y="273.842228" style="fill: #4285f4; stroke: #4285f4"/>
     <use xlink:href="#mff558ab4f9" x="623.39218" y="160.013902" style="fill: #4285f4; stroke: #4285f4"/>
     <use xlink:href="#mff558ab4f9" x="648.981799" y="247.581768" style="fill: #4285f4; stroke: #4285f4"/>
     <use xlink:href="#mff558ab4f9" x="674.571419" y="98.53324" style="fill: #4285f4; stroke: #4285f4"/>
    </g>
   </g>
   <g id="patch_3">
    <path d="M 83.451212 343.317355 
L 83.451212 41.111688 
" style="fill: none; stroke: #000000; stroke-width: 0.8; stroke-linejoin: miter; stroke-linecap: square"/>
   </g>
   <g id="patch_4">
    <path d="M 702.72 343.317355 
L 702.72 41.111688 
" style="fill: none; stroke: #000000; stroke-width: 0.8; stroke-linejoin: miter; stroke-linecap: square"/>
   </g>
   <g id="patch_5">
    <path d="M 83.451212 343.317355 
L 702.72 343.317355 
" style="fill: none; stroke: #000000; stroke-width: 0.8; stroke-linejoin: miter; stroke-linecap: square"/>
   </g>
   <g id="patch_6">
    <path d="M 83.451212 41.111688 
L 702.72 41.111688 
" style="fill: none; stroke: #000000; stroke-width: 0.8; stroke-linejoin: miter; stroke-linecap: square"/>
   </g>
   <g id="text_31">
    <!-- Geometric length scale h_c across viscosities -->
    <g transform="translate(246.047481 35.111688) scale(0.13 -0.13)">
     <defs>
      <path id="DejaVuSans-47" d="M 3809 666 
L 3809 1919 
L 2778 1919 
L 2778 2438 
L 4434 2438 
L 4434 434 
Q 4069 175 3628 42 
Q 3188 -91 2688 -91 
Q 1594 -91 976 548 
Q 359 1188 359 2328 
Q 359 3472 976 4111 
Q 1594 4750 2688 4750 
Q 3144 4750 3555 4637 
Q 3966 4525 4313 4306 
L 4313 3634 
Q 3963 3931 3569 4081 
Q 3175 4231 2741 4231 
Q 1884 4231 1454 3753 
Q 1025 3275 1025 2328 
Q 1025 1384 1454 906 
Q 1884 428 2741 428 
Q 3075 428 3337 486 
Q 3600 544 3809 666 
z
" transform="scale(0.015625)"/>
      <path id="DejaVuSans-65" d="M 3597 1894 
L 3597 1613 
L 953 1613 
Q 991 1019 1311 708 
Q 1631 397 2203 397 
Q 2534 397 2845 478 
Q 3156 559 3463 722 
L 3463 178 
Q 3153 47 2828 -22 
Q 2503 -91 2169 -91 
Q 1331 -91 842 396 
Q 353 884 353 1716 
Q 353 2575 817 3079 
Q 1281 3584 2069 3584 
Q 2775 3584 3186 3129 
Q 3597 2675 3597 1894 
z
M 3022 2063 
Q 3016 2534 2758 2815 
Q 2500 3097 2075 3097 
Q 1594 3097 1305 2825 
Q 1016 2553 972 2059 
L 3022 2063 
z
" transform="scale(0.015625)"/>
      <path id="DejaVuSans-6f" d="M 1959 3097 
Q 1497 3097 1228 2736 
Q 959 2375 959 1747 
Q 959 1119 1226 758 
Q 1494 397 1959 397 
Q 2419 397 2687 759 
Q 2956 1122 2956 1747 
Q 2956 2369 2687 2733 
Q 2419 3097 1959 3097 
z
M 1959 3584 
Q 2709 3584 3137 3096 
Q 3566 2609 3566 1747 
Q 3566 888 3137 398 
Q 2709 -91 1959 -91 
Q 1206 -91 779 398 
Q 353 888 353 1747 
Q 353 2609 779 3096 
Q 1206 3584 1959 3584 
z
" transform="scale(0.015625)"/>
      <path id="DejaVuSans-74" d="M 1172 4494 
L 1172 3500 
L 2356 3500 
L 2356 3053 
L 1172 3053 
L 1172 1153 
Q 1172 725 1289 603 
Q 1406 481 1766 481 
L 2356 481 
L 2356 0 
L 1766 0 
Q 1100 0 847 248 
Q 594 497 594 1153 
L 594 3053 
L 172 3053 
L 172 3500 
L 594 3500 
L 594 4494 
L 1172 4494 
z
" transform="scale(0.015625)"/>
      <path id="DejaVuSans-72" d="M 2631 2963 
Q 2534 3019 2420 3045 
Q 2306 3072 2169 3072 
Q 1681 3072 1420 2755 
Q 1159 2438 1159 1844 
L 1159 0 
L 581 0 
L 581 3500 
L 1159 3500 
L 1159 2956 
Q 1341 3275 1631 3429 
Q 1922 3584 2338 3584 
Q 2397 3584 2469 3576 
Q 2541 3569 2628 3553 
L 2631 2963 
z
" transform="scale(0.015625)"/>
      <path id="DejaVuSans-69" d="M 603 3500 
L 1178 3500 
L 1178 0 
L 603 0 
L 603 3500 
z
M 603 4863 
L 1178 4863 
L 1178 4134 
L 603 4134 
L 603 4863 
z
" transform="scale(0.015625)"/>
      <path id="DejaVuSans-6c" d="M 603 4863 
L 1178 4863 
L 1178 0 
L 603 0 
L 603 4863 
z
" transform="scale(0.015625)"/>
      <path id="DejaVuSans-6e" d="M 3513 2113 
L 3513 0 
L 2938 0 
L 2938 2094 
Q 2938 2591 2744 2837 
Q 2550 3084 2163 3084 
Q 1697 3084 1428 2787 
Q 1159 2491 1159 1978 
L 1159 0 
L 581 0 
L 581 3500 
L 1159 3500 
L 1159 2956 
Q 1366 3272 1645 3428 
Q 1925 3584 2291 3584 
Q 2894 3584 3203 3211 
Q 3513 2838 3513 2113 
z
" transform="scale(0.015625)"/>
      <path id="DejaVuSans-67" d="M 2906 1791 
Q 2906 2416 2648 2759 
Q 2391 3103 1925 3103 
Q 1463 3103 1205 2759 
Q 947 2416 947 1791 
Q 947 1169 1205 825 
Q 1463 481 1925 481 
Q 2391 481 2648 825 
Q 2906 1169 2906 1791 
z
M 3481 434 
Q 3481 -459 3084 -895 
Q 2688 -1331 1869 -1331 
Q 1566 -1331 1297 -1286 
Q 1028 -1241 775 -1147 
L 775 -588 
Q 1028 -725 1275 -790 
Q 1522 -856 1778 -856 
Q 2344 -856 2625 -561 
Q 2906 -266 2906 331 
L 2906 616 
Q 2728 306 2450 153 
Q 2172 0 1784 0 
Q 1141 0 747 490 
Q 353 981 353 1791 
Q 353 2603 747 3093 
Q 1141 3584 1784 3584 
Q 2172 3584 2450 3431 
Q 2728 3278 2906 2969 
L 2906 3500 
L 3481 3500 
L 3481 434 
z
" transform="scale(0.015625)"/>
      <path id="DejaVuSans-73" d="M 2834 3397 
L 2834 2853 
Q 2591 2978 2328 3040 
Q 2066 3103 1784 3103 
Q 1356 3103 1142 2972 
Q 928 2841 928 2578 
Q 928 2378 1081 2264 
Q 1234 2150 1697 2047 
L 1894 2003 
Q 2506 1872 2764 1633 
Q 3022 1394 3022 966 
Q 3022 478 2636 193 
Q 2250 -91 1575 -91 
Q 1294 -91 989 -36 
Q 684 19 347 128 
L 347 722 
Q 666 556 975 473 
Q 1284 391 1588 391 
Q 1994 391 2212 530 
Q 2431 669 2431 922 
Q 2431 1156 2273 1281 
Q 2116 1406 1581 1522 
L 1381 1569 
Q 847 1681 609 1914 
Q 372 2147 372 2553 
Q 372 3047 722 3315 
Q 1072 3584 1716 3584 
Q 2034 3584 2315 3537 
Q 2597 3491 2834 3397 
z
" transform="scale(0.015625)"/>
      <path id="DejaVuSans-61" d="M 2194 1759 
Q 1497 1759 1228 1600 
Q 959 1441 959 1056 
Q 959 750 1161 570 
Q 1363 391 1709 391 
Q 2188 391 2477 730 
Q 2766 1069 2766 1631 
L 2766 1759 
L 2194 1759 
z
M 3341 1997 
L 3341 0 
L 2766 0 
L 2766 531 
Q 2569 213 2275 61 
Q 1981 -91 1556 -91 
Q 1019 -91 701 211 
Q 384 513 384 1019 
Q 384 1609 779 1909 
Q 1175 2209 1959 2209 
L 2766 2209 
L 2766 2266 
Q 2766 2663 2505 2880 
Q 2244 3097 1772 3097 
Q 1472 3097 1187 3025 
Q 903 2953 641 2809 
L 641 3341 
Q 956 3463 1253 3523 
Q 1550 3584 1831 3584 
Q 2591 3584 2966 3190 
Q 3341 2797 3341 1997 
z
" transform="scale(0.015625)"/>
      <path id="DejaVuSans-76" d="M 191 3500 
L 800 3500 
L 1894 563 
L 2988 3500 
L 3597 3500 
L 2284 0 
L 1503 0 
L 191 3500 
z
" transform="scale(0.015625)"/>
     </defs>
     <use xlink:href="#DejaVuSans-47"/>
     <use xlink:href="#DejaVuSans-65" transform="translate(77.490234 0)"/>
     <use xlink:href="#DejaVuSans-6f" transform="translate(139.013672 0)"/>
     <use xlink:href="#DejaVuSans-6d" transform="translate(200.195312 0)"/>
     <use xlink:href="#DejaVuSans-65" transform="translate(297.607422 0)"/>
     <use xlink:href="#DejaVuSans-74" transform="translate(359.130859 0)"/>
     <use xlink:href="#DejaVuSans-72" transform="translate(398.339844 0)"/>
     <use xlink:href="#DejaVuSans-69" transform="translate(439.453125 0)"/>
     <use xlink:href="#DejaVuSans-63" transform="translate(467.236328 0)"/>
     <use xlink:href="#DejaVuSans-20" transform="translate(522.216797 0)"/>
     <use xlink:href="#DejaVuSans-6c" transform="translate(554.003906 0)"/>
     <use xlink:href="#DejaVuSans-65" transform="translate(581.787109 0)"/>
     <use xlink:href="#DejaVuSans-6e" transform="translate(643.310547 0)"/>
     <use xlink:href="#DejaVuSans-67" transform="translate(706.689453 0)"/>
     <use xlink:href="#DejaVuSans-74" transform="translate(770.166016 0)"/>
     <use xlink:href="#DejaVuSans-68" transform="translate(809.375 0)"/>
     <use xlink:href="#DejaVuSans-20" transform="translate(872.753906 0)"/>
     <use xlink:href="#DejaVuSans-73" transform="translate(904.541016 0)"/>
     <use xlink:href="#DejaVuSans-63" transform="translate(956.640625 0)"/>
     <use xlink:href="#DejaVuSans-61" transform="translate(1011.621094 0)"/>
     <use xlink:href="#DejaVuSans-6c" transform="translate(1072.900391 0)"/>
     <use xlink:href="#DejaVuSans-65" transform="translate(1100.683594 0)"/>
     <use xlink:href="#DejaVuSans-20" transform="translate(1162.207031 0)"/>
     <use xlink:href="#DejaVuSans-68" transform="translate(1193.994141 0)"/>
     <use xlink:href="#DejaVuSans-5f" transform="translate(1257.373047 0)"/>
     <use xlink:href="#DejaVuSans-63" transform="translate(1307.373047 0)"/>
     <use xlink:href="#DejaVuSans-20" transform="translate(1362.353516 0)"/>
     <use xlink:href="#DejaVuSans-61" transform="translate(1394.140625 0)"/>
     <use xlink:href="#DejaVuSans-63" transform="translate(1455.419922 0)"/>
     <use xlink:href="#DejaVuSans-72" transform="translate(1510.400391 0)"/>
     <use xlink:href="#DejaVuSans-6f" transform="translate(1549.263672 0)"/>
     <use xlink:href="#DejaVuSans-73" transform="translate(1610.445312 0)"/>
     <use xlink:href="#DejaVuSans-73" transform="translate(1662.544922 0)"/>
     <use xlink:href="#DejaVuSans-20" transform="translate(1714.644531 0)"/>
     <use xlink:href="#DejaVuSans-76" transform="translate(1746.431641 0)"/>
     <use xlink:href="#DejaVuSans-69" transform="translate(1805.611328 0)"/>
     <use xlink:href="#DejaVuSans-73" transform="translate(1833.394531 0)"/>
     <use xlink:href="#DejaVuSans-63" transform="translate(1885.494141 0)"/>
     <use xlink:href="#DejaVuSans-6f" transform="translate(1940.474609 0)"/>
     <use xlink:href="#DejaVuSans-73" transform="translate(2001.65625 0)"/>
     <use xlink:href="#DejaVuSans-69" transform="translate(2053.755859 0)"/>
     <use xlink:href="#DejaVuSans-74" transform="translate(2081.539062 0)"/>
     <use xlink:href="#DejaVuSans-69" transform="translate(2120.748047 0)"/>
     <use xlink:href="#DejaVuSans-65" transform="translate(2148.53125 0)"/>
     <use xlink:href="#DejaVuSans-73" transform="translate(2210.054688 0)"/>
    </g>
   </g>
   <g id="legend_1">
    <g id="patch_7">
     <path d="M 540.82 93.702313 
L 695.72 93.702313 
Q 697.72 93.702313 697.72 91.702313 
L 697.72 48.111688 
Q 697.72 46.111688 695.72 46.111688 
L 540.82 46.111688 
Q 538.82 46.111688 538.82 48.111688 
L 538.82 91.702313 
Q 538.82 93.702313 540.82 93.702313 
z
" style="fill: #ffffff; opacity: 0.8; stroke: #cccccc; stroke-linejoin: miter"/>
    </g>
    <g id="line2d_63">
     <path d="M 542.82 54.210126 
L 552.82 54.210126 
L 562.82 54.210126 
" style="fill: none; stroke-dasharray: 5.92,2.56; stroke-dashoffset: 0; stroke: #000000; stroke-width: 1.6"/>
    </g>
    <g id="text_32">
     <!-- global h_c = 0.4026 mm -->
     <g transform="translate(570.82 57.710126) scale(0.1 -0.1)">
      <defs>
       <path id="DejaVuSans-62" d="M 3116 1747 
Q 3116 2381 2855 2742 
Q 2594 3103 2138 3103 
Q 1681 3103 1420 2742 
Q 1159 2381 1159 1747 
Q 1159 1113 1420 752 
Q 1681 391 2138 391 
Q 2594 391 2855 752 
Q 3116 1113 3116 1747 
z
M 1159 2969 
Q 1341 3281 1617 3432 
Q 1894 3584 2278 3584 
Q 2916 3584 3314 3078 
Q 3713 2572 3713 1747 
Q 3713 922 3314 415 
Q 2916 -91 2278 -91 
Q 1894 -91 1617 61 
Q 1341 213 1159 525 
L 1159 0 
L 581 0 
L 581 4863 
L 1159 4863 
L 1159 2969 
z
" transform="scale(0.015625)"/>
       <path id="DejaVuSans-3d" d="M 678 2906 
L 4684 2906 
L 4684 2381 
L 678 2381 
L 678 2906 
z
M 678 1631 
L 4684 1631 
L 4684 1100 
L 678 1100 
L 678 1631 
z
" transform="scale(0.015625)"/>
      </defs>
      <use xlink:href="#DejaVuSans-67"/>
      <use xlink:href="#DejaVuSans-6c" transform="translate(63.476562 0)"/>
      <use xlink:href="#DejaVuSans-6f" transform="translate(91.259766 0)"/>
      <use xlink:href="#DejaVuSans-62" transform="translate(152.441406 0)"/>
      <use xlink:href="#DejaVuSans-61" transform="translate(215.917969 0)"/>
      <use xlink:href="#DejaVuSans-6c" transform="translate(277.197266 0)"/>
      <use xlink:href="#DejaVuSans-20" transform="translate(304.980469 0)"/>
      <use xlink:href="#DejaVuSans-68" transform="translate(336.767578 0)"/>
      <use xlink:href="#DejaVuSans-5f" transform="translate(400.146484 0)"/>
      <use xlink:href="#DejaVuSans-63" transform="translate(450.146484 0)"/>
      <use xlink:href="#DejaVuSans-20" transform="translate(505.126953 0)"/>
      <use xlink:href="#DejaVuSans-3d" transform="translate(536.914062 0)"/>
      <use xlink:href="#DejaVuSans-20" transform="translate(620.703125 0)"/>
      <use xlink:href="#DejaVuSans-30" transform="translate(652.490234 0)"/>
      <use xlink:href="#DejaVuSans-2e" transform="translate(716.113281 0)"/>
      <use xlink:href="#DejaVuSans-34" transform="translate(747.900391 0)"/>
      <use xlink:href="#DejaVuSans-30" transform="translate(811.523438 0)"/>
      <use xlink:href="#DejaVuSans-32" transform="translate(875.146484 0)"/>
      <use xlink:href="#DejaVuSans-36" transform="translate(938.769531 0)"/>
      <use xlink:href="#DejaVuSans-20" transform="translate(1002.392578 0)"/>
      <use xlink:href="#DejaVuSans-6d" transform="translate(1034.179688 0)"/>
      <use xlink:href="#DejaVuSans-6d" transform="translate(1131.591797 0)"/>
     </g>
    </g>
    <g id="patch_8">
     <path d="M 542.82 72.666376 
L 562.82 72.666376 
L 562.82 65.666376 
L 542.82 65.666376 
z
" style="fill-opacity: 0.15; stroke: #000000; stroke-opacity: 0.15; stroke-linejoin: miter"/>
    </g>
    <g id="text_33">
     <!-- global 95% CI -->
     <g transform="translate(570.82 72.666376) scale(0.1 -0.1)">
      <defs>
       <path id="DejaVuSans-25" d="M 4653 2053 
Q 4381 2053 4226 1822 
Q 4072 1591 4072 1178 
Q 4072 772 4226 539 
Q 4381 306 4653 306 
Q 4919 306 5073 539 
Q 5228 772 5228 1178 
Q 5228 1588 5073 1820 
Q 4919 2053 4653 2053 
z
M 4653 2450 
Q 5147 2450 5437 2106 
Q 5728 1763 5728 1178 
Q 5728 594 5436 251 
Q 5144 -91 4653 -91 
Q 4153 -91 3862 251 
Q 3572 594 3572 1178 
Q 3572 1766 3864 2108 
Q 4156 2450 4653 2450 
z
M 1428 4353 
Q 1159 4353 1004 4120 
Q 850 3888 850 3481 
Q 850 3069 1003 2837 
Q 1156 2606 1428 2606 
Q 1700 2606 1854 2837 
Q 2009 3069 2009 3481 
Q 2009 3884 1853 4118 
Q 1697 4353 1428 4353 
z
M 4250 4750 
L 4750 4750 
L 1831 -91 
L 1331 -91 
L 4250 4750 
z
M 1428 4750 
Q 1922 4750 2215 4408 
Q 2509 4066 2509 3481 
Q 2509 2891 2217 2550 
Q 1925 2209 1428 2209 
Q 931 2209 642 2551 
Q 353 2894 353 3481 
Q 353 4063 643 4406 
Q 934 4750 1428 4750 
z
" transform="scale(0.015625)"/>
       <path id="DejaVuSans-43" d="M 4122 4306 
L 4122 3641 
Q 3803 3938 3442 4084 
Q 3081 4231 2675 4231 
Q 1875 4231 1450 3742 
Q 1025 3253 1025 2328 
Q 1025 1406 1450 917 
Q 1875 428 2675 428 
Q 3081 428 3442 575 
Q 3803 722 4122 1019 
L 4122 359 
Q 3791 134 3420 21 
Q 3050 -91 2638 -91 
Q 1578 -91 968 557 
Q 359 1206 359 2328 
Q 359 3453 968 4101 
Q 1578 4750 2638 4750 
Q 3056 4750 3426 4639 
Q 3797 4528 4122 4306 
z
" transform="scale(0.015625)"/>
       <path id="DejaVuSans-49" d="M 628 4666 
L 1259 4666 
L 1259 0 
L 628 0 
L 628 4666 
z
" transform="scale(0.015625)"/>
      </defs>
      <use xlink:href="#DejaVuSans-67"/>
      <use xlink:href="#DejaVuSans-6c" transform="translate(63.476562 0)"/>
      <use xlink:href="#DejaVuSans-6f" transform="translate(91.259766 0)"/>
      <use xlink:href="#DejaVuSans-62" transform="translate(152.441406 0)"/>
      <use xlink:href="#DejaVuSans-61" transform="translate(215.917969 0)"/>
      <use xlink:href="#DejaVuSans-6c" transform="translate(277.197266 0)"/>
      <use xlink:href="#DejaVuSans-20" transform="translate(304.980469 0)"/>
      <use xlink:href="#DejaVuSans-39" transform="translate(336.767578 0)"/>
      <use xlink:href="#DejaVuSans-35" transform="translate(400.390625 0)"/>
      <use xlink:href="#DejaVuSans-25" transform="translate(464.013672 0)"/>
      <use xlink:href="#DejaVuSans-20" transform="translate(559.033203 0)"/>
      <use xlink:href="#DejaVuSans-43" transform="translate(590.820312 0)"/>
      <use xlink:href="#DejaVuSans-49" transform="translate(660.644531 0)"/>
     </g>
    </g>
    <g id="LineCollection_2">
     <path d="M 552.82 88.844501 
L 552.82 78.844501 
" style="fill: none; stroke: #4285f4; stroke-width: 1.6"/>
    </g>
    <g id="line2d_64">
     <defs>
      <path id="m01dc94a047" d="M 3 0 
L -3 -0 
" style="stroke: #4285f4"/>
     </defs>
     <g>
      <use xlink:href="#m01dc94a047" x="552.82" y="88.844501" style="fill: #4285f4; stroke: #4285f4"/>
     </g>
    </g>
    <g id="line2d_65">
     <g>
      <use xlink:href="#m01dc94a047" x="552.82" y="78.844501" style="fill: #4285f4; stroke: #4285f4"/>
     </g>
    </g>
    <g id="line2d_66"/>
    <g id="line2d_67">
     <g>
      <use xlink:href="#mff558ab4f9" x="552.82" y="83.844501" style="fill: #4285f4; stroke: #4285f4"/>
     </g>
    </g>
    <g id="text_34">
     <!-- per-sample h_c -->
     <g transform="translate(570.82 87.344501) scale(0.1 -0.1)">
      <defs>
       <path id="DejaVuSans-2d" d="M 313 2009 
L 1997 2009 
L 1997 1497 
L 313 1497 
L 313 2009 
z
" transform="scale(0.015625)"/>
      </defs>
      <use xlink:href="#DejaVuSans-70"/>
      <use xlink:href="#DejaVuSans-65" transform="translate(63.476562 0)"/>
      <use xlink:href="#DejaVuSans-72" transform="translate(125 0)"/>
      <use xlink:href="#DejaVuSans-2d" transform="translate(159.738281 0)"/>
      <use xlink:href="#DejaVuSans-73" transform="translate(195.822266 0)"/>
      <use xlink:href="#DejaVuSans-61" transform="translate(247.921875 0)"/>
      <use xlink:href="#DejaVuSans-6d" transform="translate(309.201172 0)"/>
      <use xlink:href="#DejaVuSans-70" transform="translate(406.613281 0)"/>
      <use xlink:href="#DejaVuSans-6c" transform="translate(470.089844 0)"/>
      <use xlink:href="#DejaVuSans-65" transform="translate(497.873047 0)"/>
      <use xlink:href="#DejaVuSans-20" transform="translate(559.396484 0)"/>
      <use xlink:href="#DejaVuSans-68" transform="translate(591.183594 0)"/>
      <use xlink:href="#DejaVuSans-5f" transform="translate(654.5625 0)"/>
      <use xlink:href="#DejaVuSans-63" transform="translate(704.5625 0)"/>
     </g>
    </g>
   </g>
  </g>
 </g>
 <defs>
  <clipPath id="p9d35dfbbc9">
   <rect x="83.451212" y="41.111688" width="619.268788" height="302.205667"/>
  </clipPath>
 </defs>
</svg>
