<?xml version="1.0" encoding="utf-8" standalone="no"?>
<!DOCTYPE svg PUBLIC "-//W3C//DTD SVG 1.1//EN"
  "http://www.w3.org/Graphics/SVG/1.1/DTD/svg11.dtd">
<svg xmlns:xlink="http://www.w3.org/1999/xlink" width="388.249715pt" height="373.037173pt" viewBox="0 0 388.249715 373.037173" xmlns="http://www.w3.org/2000/svg" version="1.1">
 <metadata>
  <rdf:RDF xmlns:dc="http://purl.org/dc/elements/1.1/" xmlns:cc="http://creativecommons.org/ns#" xmlns:rdf="http://www.w3.org/1999/02/22-rdf-syntax-ns#">
   <cc:Work>
    <dc:type rdf:resource="http://purl.org/dc/dcmitype/StillImage"/>
    <dc:date>2026-06-03T16:19:12.922448</dc:date>
    <dc:format>image/svg+xml</dc:format>
    <dc:creator>
     <cc:Agent>
      <dc:title>Matplotlib v3.10.0, https://matplotlib.org/</dc:title>
     </cc:Agent>
    </dc:creator>
   </cc:Work>
  </rdf:RDF>
 </metadata>
 <defs>
  <style type="text/css">*{stroke-linejoin: round; stroke-linecap: butt}</style>
 </defs>
 <g id="figure_1">
  <g id="patch_1">
   <path d="M 0 373.037173 
L 388.249715 373.037173 
L 388.249715 0 
L 0 0 
z
" style="fill: #ffffff"/>
  </g>
  <g id="axes_1">
   <g id="patch_2">
    <path d="M 53.6 331.583423 
L 381.049715 331.583423 
L 381.049715 23.077969 
L 53.6 23.077969 
z
" style="fill: #ffffff"/>
   </g>
   <g id="PathCollection_1">
    <defs>
     <path id="m052d1053a6" d="M 0 4.242641 
C 1.125161 4.242641 2.204391 3.795609 3 3 
C 3.795609 2.204391 4.242641 1.125161 4.242641 0 
C 4.242641 -1.125161 3.795609 -2.204391 3 -3 
C 2.204391 -3.795609 1.125161 -4.242641 0 -4.242641 
C -1.125161 -4.242641 -2.204391 -3.795609 -3 -3 
C -3.795609 -2.204391 -4.242641 -1.125161 -4.242641 0 
C -4.242641 1.125161 -3.795609 2.204391 -3 3 
C -2.204391 3.795609 -1.125161 4.242641 0 4.242641 
z
" style="stroke: #000000; stroke-width: 0.6"/>
    </defs>
    <g clip-path="url(#pc37c3bef06)">
     <use xlink:href="#m052d1053a6" x="211.156145" y="124.73229" style="fill: #7570b3; stroke: #000000; stroke-width: 0.6"/>
    </g>
   </g>
   <g id="PathCollection_2">
    <g clip-path="url(#pc37c3bef06)">
     <use xlink:href="#m052d1053a6" x="102.66377" y="182.414138" style="fill: #7570b3; stroke: #000000; stroke-width: 0.6"/>
    </g>
   </g>
   <g id="PathCollection_3">
    <defs>
     <path id="m7e69567f2c" d="M 0 4.242641 
C 1.125161 4.242641 2.204391 3.795609 3 3 
C 3.795609 2.204391 4.242641 1.125161 4.242641 0 
C 4.242641 -1.125161 3.795609 -2.204391 3 -3 
C 2.204391 -3.795609 1.125161 -4.242641 0 -4.242641 
C -1.125161 -4.242641 -2.204391 -3.795609 -3 -3 
C -3.795609 -2.204391 -4.242641 -1.125161 -4.242641 0 
C -4.242641 1.125161 -3.795609 2.204391 -3 3 
C -2.204391 3.795609 -1.125161 4.242641 0 4.242641 
z
" style="stroke: #000000; stroke-width: 0.6"/>
    </defs>
    <g clip-path="url(#pc37c3bef06)">
     <use xlink:href="#m7e69567f2c" x="305.706773" y="105.644497" style="fill: #e6ab02; stroke: #000000; stroke-width: 0.6"/>
    </g>
   </g>
   <g id="PathCollection_4">
    <g clip-path="url(#pc37c3bef06)">
     <use xlink:href="#m7e69567f2c" x="177.190851" y="133.114883" style="fill: #e6ab02; stroke: #000000; stroke-width: 0.6"/>
    </g>
   </g>
   <g id="PathCollection_5">
    <g clip-path="url(#pc37c3bef06)">
     <use xlink:href="#m7e69567f2c" x="187.242182" y="148.647323" style="fill: #e6ab02; stroke: #000000; stroke-width: 0.6"/>
    </g>
   </g>
   <g id="PathCollection_6">
    <defs>
     <path id="m901d1a34a4" d="M 0 4.242641 
C 1.125161 4.242641 2.204391 3.795609 3 3 
C 3.795609 2.204391 4.242641 1.125161 4.242641 0 
C 4.242641 -1.125161 3.795609 -2.204391 3 -3 
C 2.204391 -3.795609 1.125161 -4.242641 0 -4.242641 
C -1.125161 -4.242641 -2.204391 -3.795609 -3 -3 
C -3.795609 -2.204391 -4.242641 -1.125161 -4.242641 0 
C -4.242641 1.125161 -3.795609 2.204391 -3 3 
C -2.204391 3.795609 -1.125161 4.242641 0 4.242641 
z
" style="stroke: #000000; stroke-width: 0.6"/>
    </defs>
    <g clip-path="url(#pc37c3bef06)">
     <use xlink:href="#m901d1a34a4" x="159.295894" y="172.765916" style="fill: #d95f02; stroke: #000000; stroke-width: 0.6"/>
    </g>
   </g>
   <g id="PathCollection_7">
    <g clip-path="url(#pc37c3bef06)">
     <use xlink:href="#m901d1a34a4" x="249.027288" y="141.776301" style="fill: #d95f02; stroke: #000000; stroke-width: 0.6"/>
    </g>
   </g>
   <g id="PathCollection_8">
    <g clip-path="url(#pc37c3bef06)">
     <use xlink:href="#m901d1a34a4" x="294.997699" y="118.055595" style="fill: #d95f02; stroke: #000000; stroke-width: 0.6"/>
    </g>
   </g>
   <g id="PathCollection_9">
    <defs>
     <path id="m55404ce487" d="M 0 4.242641 
C 1.125161 4.242641 2.204391 3.795609 3 3 
C 3.795609 2.204391 4.242641 1.125161 4.242641 0 
C 4.242641 -1.125161 3.795609 -2.204391 3 -3 
C 2.204391 -3.795609 1.125161 -4.242641 0 -4.242641 
C -1.125161 -4.242641 -2.204391 -3.795609 -3 -3 
C -3.795609 -2.204391 -4.242641 -1.125161 -4.242641 0 
C -4.242641 1.125161 -3.795609 2.204391 -3 3 
C -2.204391 3.795609 -1.125161 4.242641 0 4.242641 
z
" style="stroke: #000000; stroke-width: 0.6"/>
    </defs>
    <g clip-path="url(#pc37c3bef06)">
     <use xlink:href="#m55404ce487" x="98.347817" y="193.677511" style="fill: #66a61e; stroke: #000000; stroke-width: 0.6"/>
    </g>
   </g>
   <g id="PathCollection_10">
    <g clip-path="url(#pc37c3bef06)">
     <use xlink:href="#m55404ce487" x="280.581784" y="118.234729" style="fill: #66a61e; stroke: #000000; stroke-width: 0.6"/>
    </g>
   </g>
   <g id="PathCollection_11">
    <g clip-path="url(#pc37c3bef06)">
     <use xlink:href="#m55404ce487" x="336.301899" y="95.133621" style="fill: #66a61e; stroke: #000000; stroke-width: 0.6"/>
    </g>
   </g>
   <g id="matplotlib.axis_1">
    <g id="xtick_1">
     <g id="line2d_1">
      <path d="M 126.356369 331.583423 
L 126.356369 23.077969 
" clip-path="url(#pc37c3bef06)" style="fill: none; stroke: #b0b0b0; stroke-opacity: 0.3; stroke-width: 0.8; stroke-linecap: square"/>
     </g>
     <g id="line2d_2">
      <defs>
       <path id="m31d10e58e7" d="M 0 0 
L 0 3.5 
" style="stroke: #000000; stroke-width: 0.8"/>
      </defs>
      <g>
       <use xlink:href="#m31d10e58e7" x="126.356369" y="331.583423" style="stroke: #000000; stroke-width: 0.8"/>
      </g>
     </g>
     <g id="text_1">
      <!-- $\mathdefault{10^{3}}$ -->
      <g transform="translate(115.796369 347.701548) scale(0.12 -0.12)">
       <defs>
        <path id="DejaVuSans-31" d="M 794 531 
L 1825 531 
L 1825 4091 
L 703 3866 
L 703 4441 
L 1819 4666 
L 2450 4666 
L 2450 531 
L 3481 531 
L 3481 0 
L 794 0 
L 794 531 
z
" transform="scale(0.015625)"/>
        <path id="DejaVuSans-30" d="M 2034 4250 
Q 1547 4250 1301 3770 
Q 1056 3291 1056 2328 
Q 1056 1369 1301 889 
Q 1547 409 2034 409 
Q 2525 409 2770 889 
Q 3016 1369 3016 2328 
Q 3016 3291 2770 3770 
Q 2525 4250 2034 4250 
z
M 2034 4750 
Q 2819 4750 3233 4129 
Q 3647 3509 3647 2328 
Q 3647 1150 3233 529 
Q 2819 -91 2034 -91 
Q 1250 -91 836 529 
Q 422 1150 422 2328 
Q 422 3509 836 4129 
Q 1250 4750 2034 4750 
z
" transform="scale(0.015625)"/>
        <path id="DejaVuSans-33" d="M 2597 2516 
Q 3050 2419 3304 2112 
Q 3559 1806 3559 1356 
Q 3559 666 3084 287 
Q 2609 -91 1734 -91 
Q 1441 -91 1130 -33 
Q 819 25 488 141 
L 488 750 
Q 750 597 1062 519 
Q 1375 441 1716 441 
Q 2309 441 2620 675 
Q 2931 909 2931 1356 
Q 2931 1769 2642 2001 
Q 2353 2234 1838 2234 
L 1294 2234 
L 1294 2753 
L 1863 2753 
Q 2328 2753 2575 2939 
Q 2822 3125 2822 3475 
Q 2822 3834 2567 4026 
Q 2313 4219 1838 4219 
Q 1578 4219 1281 4162 
Q 984 4106 628 3988 
L 628 4550 
Q 988 4650 1302 4700 
Q 1616 4750 1894 4750 
Q 2613 4750 3031 4423 
Q 3450 4097 3450 3541 
Q 3450 3153 3228 2886 
Q 3006 2619 2597 2516 
z
" transform="scale(0.015625)"/>
       </defs>
       <use xlink:href="#DejaVuSans-31" transform="translate(0 0.765625)"/>
       <use xlink:href="#DejaVuSans-30" transform="translate(63.623047 0.765625)"/>
       <use xlink:href="#DejaVuSans-33" transform="translate(128.203125 39.046875) scale(0.7)"/>
      </g>
     </g>
    </g>
    <g id="xtick_2">
     <g id="line2d_3">
      <path d="M 225.561563 331.583423 
L 225.561563 23.077969 
" clip-path="url(#pc37c3bef06)" style="fill: none; stroke: #b0b0b0; stroke-opacity: 0.3; stroke-width: 0.8; stroke-linecap: square"/>
     </g>
     <g id="line2d_4">
      <g>
       <use xlink:href="#m31d10e58e7" x="225.561563" y="331.583423" style="stroke: #000000; stroke-width: 0.8"/>
      </g>
     </g>
     <g id="text_2">
      <!-- $\mathdefault{10^{4}}$ -->
      <g transform="translate(215.001563 347.701548) scale(0.12 -0.12)">
       <defs>
        <path id="DejaVuSans-34" d="M 2419 4116 
L 825 1625 
L 2419 1625 
L 2419 4116 
z
M 2253 4666 
L 3047 4666 
L 3047 1625 
L 3713 1625 
L 3713 1100 
L 3047 1100 
L 3047 0 
L 2419 0 
L 2419 1100 
L 313 1100 
L 313 1709 
L 2253 4666 
z
" transform="scale(0.015625)"/>
       </defs>
       <use xlink:href="#DejaVuSans-31" transform="translate(0 0.684375)"/>
       <use xlink:href="#DejaVuSans-30" transform="translate(63.623047 0.684375)"/>
       <use xlink:href="#DejaVuSans-34" transform="translate(128.203125 38.965625) scale(0.7)"/>
      </g>
     </g>
    </g>
    <g id="xtick_3">
     <g id="line2d_5">
      <path d="M 324.766756 331.583423 
L 324.766756 23.077969 
" clip-path="url(#pc37c3bef06)" style="fill: none; stroke: #b0b0b0; stroke-opacity: 0.3; stroke-width: 0.8; stroke-linecap: square"/>
     </g>
     <g id="line2d_6">
      <g>
       <use xlink:href="#m31d10e58e7" x="324.766756" y="331.583423" style="stroke: #000000; stroke-width: 0.8"/>
      </g>
     </g>
     <g id="text_3">
      <!-- $\mathdefault{10^{5}}$ -->
      <g transform="translate(314.206756 347.701548) scale(0.12 -0.12)">
       <defs>
        <path id="DejaVuSans-35" d="M 691 4666 
L 3169 4666 
L 3169 4134 
L 1269 4134 
L 1269 2991 
Q 1406 3038 1543 3061 
Q 1681 3084 1819 3084 
Q 2600 3084 3056 2656 
Q 3513 2228 3513 1497 
Q 3513 744 3044 326 
Q 2575 -91 1722 -91 
Q 1428 -91 1123 -41 
Q 819 9 494 109 
L 494 744 
Q 775 591 1075 516 
Q 1375 441 1709 441 
Q 2250 441 2565 725 
Q 2881 1009 2881 1497 
Q 2881 1984 2565 2268 
Q 2250 2553 1709 2553 
Q 1456 2553 1204 2497 
Q 953 2441 691 2322 
L 691 4666 
z
" transform="scale(0.015625)"/>
       </defs>
       <use xlink:href="#DejaVuSans-31" transform="translate(0 0.684375)"/>
       <use xlink:href="#DejaVuSans-30" transform="translate(63.623047 0.684375)"/>
       <use xlink:href="#DejaVuSans-35" transform="translate(128.203125 38.965625) scale(0.7)"/>
      </g>
     </g>
    </g>
    <g id="xtick_4">
     <g id="line2d_7">
      <path d="M 57.014915 331.583423 
L 57.014915 23.077969 
" clip-path="url(#pc37c3bef06)" style="fill: none; stroke: #b0b0b0; stroke-opacity: 0.3; stroke-width: 0.8; stroke-linecap: square"/>
     </g>
     <g id="line2d_8">
      <defs>
       <path id="mf32937c2ae" d="M 0 0 
L 0 2 
" style="stroke: #000000; stroke-width: 0.6"/>
      </defs>
      <g>
       <use xlink:href="#mf32937c2ae" x="57.014915" y="331.583423" style="stroke: #000000; stroke-width: 0.6"/>
      </g>
     </g>
    </g>
    <g id="xtick_5">
     <g id="line2d_9">
      <path d="M 74.484082 331.583423 
L 74.484082 23.077969 
" clip-path="url(#pc37c3bef06)" style="fill: none; stroke: #b0b0b0; stroke-opacity: 0.3; stroke-width: 0.8; stroke-linecap: square"/>
     </g>
     <g id="line2d_10">
      <g>
       <use xlink:href="#mf32937c2ae" x="74.484082" y="331.583423" style="stroke: #000000; stroke-width: 0.6"/>
      </g>
     </g>
    </g>
    <g id="xtick_6">
     <g id="line2d_11">
      <path d="M 86.878654 331.583423 
L 86.878654 23.077969 
" clip-path="url(#pc37c3bef06)" style="fill: none; stroke: #b0b0b0; stroke-opacity: 0.3; stroke-width: 0.8; stroke-linecap: square"/>
     </g>
     <g id="line2d_12">
      <g>
       <use xlink:href="#mf32937c2ae" x="86.878654" y="331.583423" style="stroke: #000000; stroke-width: 0.6"/>
      </g>
     </g>
    </g>
    <g id="xtick_7">
     <g id="line2d_13">
      <path d="M 96.49263 331.583423 
L 96.49263 23.077969 
" clip-path="url(#pc37c3bef06)" style="fill: none; stroke: #b0b0b0; stroke-opacity: 0.3; stroke-width: 0.8; stroke-linecap: square"/>
     </g>
     <g id="line2d_14">
      <g>
       <use xlink:href="#mf32937c2ae" x="96.49263" y="331.583423" style="stroke: #000000; stroke-width: 0.6"/>
      </g>
     </g>
    </g>
    <g id="xtick_8">
     <g id="line2d_15">
      <path d="M 104.347821 331.583423 
L 104.347821 23.077969 
" clip-path="url(#pc37c3bef06)" style="fill: none; stroke: #b0b0b0; stroke-opacity: 0.3; stroke-width: 0.8; stroke-linecap: square"/>
     </g>
     <g id="line2d_16">
      <g>
       <use xlink:href="#mf32937c2ae" x="104.347821" y="331.583423" style="stroke: #000000; stroke-width: 0.6"/>
      </g>
     </g>
    </g>
    <g id="xtick_9">
     <g id="line2d_17">
      <path d="M 110.98929 331.583423 
L 110.98929 23.077969 
" clip-path="url(#pc37c3bef06)" style="fill: none; stroke: #b0b0b0; stroke-opacity: 0.3; stroke-width: 0.8; stroke-linecap: square"/>
     </g>
     <g id="line2d_18">
      <g>
       <use xlink:href="#mf32937c2ae" x="110.98929" y="331.583423" style="stroke: #000000; stroke-width: 0.6"/>
      </g>
     </g>
    </g>
    <g id="xtick_10">
     <g id="line2d_19">
      <path d="M 116.742393 331.583423 
L 116.742393 23.077969 
" clip-path="url(#pc37c3bef06)" style="fill: none; stroke: #b0b0b0; stroke-opacity: 0.3; stroke-width: 0.8; stroke-linecap: square"/>
     </g>
     <g id="line2d_20">
      <g>
       <use xlink:href="#mf32937c2ae" x="116.742393" y="331.583423" style="stroke: #000000; stroke-width: 0.6"/>
      </g>
     </g>
    </g>
    <g id="xtick_11">
     <g id="line2d_21">
      <path d="M 121.816989 331.583423 
L 121.816989 23.077969 
" clip-path="url(#pc37c3bef06)" style="fill: none; stroke: #b0b0b0; stroke-opacity: 0.3; stroke-width: 0.8; stroke-linecap: square"/>
     </g>
     <g id="line2d_22">
      <g>
       <use xlink:href="#mf32937c2ae" x="121.816989" y="331.583423" style="stroke: #000000; stroke-width: 0.6"/>
      </g>
     </g>
    </g>
    <g id="xtick_12">
     <g id="line2d_23">
      <path d="M 156.220108 331.583423 
L 156.220108 23.077969 
" clip-path="url(#pc37c3bef06)" style="fill: none; stroke: #b0b0b0; stroke-opacity: 0.3; stroke-width: 0.8; stroke-linecap: square"/>
     </g>
     <g id="line2d_24">
      <g>
       <use xlink:href="#mf32937c2ae" x="156.220108" y="331.583423" style="stroke: #000000; stroke-width: 0.6"/>
      </g>
     </g>
    </g>
    <g id="xtick_13">
     <g id="line2d_25">
      <path d="M 173.689276 331.583423 
L 173.689276 23.077969 
" clip-path="url(#pc37c3bef06)" style="fill: none; stroke: #b0b0b0; stroke-opacity: 0.3; stroke-width: 0.8; stroke-linecap: square"/>
     </g>
     <g id="line2d_26">
      <g>
       <use xlink:href="#mf32937c2ae" x="173.689276" y="331.583423" style="stroke: #000000; stroke-width: 0.6"/>
      </g>
     </g>
    </g>
    <g id="xtick_14">
     <g id="line2d_27">
      <path d="M 186.083847 331.583423 
L 186.083847 23.077969 
" clip-path="url(#pc37c3bef06)" style="fill: none; stroke: #b0b0b0; stroke-opacity: 0.3; stroke-width: 0.8; stroke-linecap: square"/>
     </g>
     <g id="line2d_28">
      <g>
       <use xlink:href="#mf32937c2ae" x="186.083847" y="331.583423" style="stroke: #000000; stroke-width: 0.6"/>
      </g>
     </g>
    </g>
    <g id="xtick_15">
     <g id="line2d_29">
      <path d="M 195.697824 331.583423 
L 195.697824 23.077969 
" clip-path="url(#pc37c3bef06)" style="fill: none; stroke: #b0b0b0; stroke-opacity: 0.3; stroke-width: 0.8; stroke-linecap: square"/>
     </g>
     <g id="line2d_30">
      <g>
       <use xlink:href="#mf32937c2ae" x="195.697824" y="331.583423" style="stroke: #000000; stroke-width: 0.6"/>
      </g>
     </g>
    </g>
    <g id="xtick_16">
     <g id="line2d_31">
      <path d="M 203.553015 331.583423 
L 203.553015 23.077969 
" clip-path="url(#pc37c3bef06)" style="fill: none; stroke: #b0b0b0; stroke-opacity: 0.3; stroke-width: 0.8; stroke-linecap: square"/>
     </g>
     <g id="line2d_32">
      <g>
       <use xlink:href="#mf32937c2ae" x="203.553015" y="331.583423" style="stroke: #000000; stroke-width: 0.6"/>
      </g>
     </g>
    </g>
    <g id="xtick_17">
     <g id="line2d_33">
      <path d="M 210.194484 331.583423 
L 210.194484 23.077969 
" clip-path="url(#pc37c3bef06)" style="fill: none; stroke: #b0b0b0; stroke-opacity: 0.3; stroke-width: 0.8; stroke-linecap: square"/>
     </g>
     <g id="line2d_34">
      <g>
       <use xlink:href="#mf32937c2ae" x="210.194484" y="331.583423" style="stroke: #000000; stroke-width: 0.6"/>
      </g>
     </g>
    </g>
    <g id="xtick_18">
     <g id="line2d_35">
      <path d="M 215.947586 331.583423 
L 215.947586 23.077969 
" clip-path="url(#pc37c3bef06)" style="fill: none; stroke: #b0b0b0; stroke-opacity: 0.3; stroke-width: 0.8; stroke-linecap: square"/>
     </g>
     <g id="line2d_36">
      <g>
       <use xlink:href="#mf32937c2ae" x="215.947586" y="331.583423" style="stroke: #000000; stroke-width: 0.6"/>
      </g>
     </g>
    </g>
    <g id="xtick_19">
     <g id="line2d_37">
      <path d="M 221.022182 331.583423 
L 221.022182 23.077969 
" clip-path="url(#pc37c3bef06)" style="fill: none; stroke: #b0b0b0; stroke-opacity: 0.3; stroke-width: 0.8; stroke-linecap: square"/>
     </g>
     <g id="line2d_38">
      <g>
       <use xlink:href="#mf32937c2ae" x="221.022182" y="331.583423" style="stroke: #000000; stroke-width: 0.6"/>
      </g>
     </g>
    </g>
    <g id="xtick_20">
     <g id="line2d_39">
      <path d="M 255.425302 331.583423 
L 255.425302 23.077969 
" clip-path="url(#pc37c3bef06)" style="fill: none; stroke: #b0b0b0; stroke-opacity: 0.3; stroke-width: 0.8; stroke-linecap: square"/>
     </g>
     <g id="line2d_40">
      <g>
       <use xlink:href="#mf32937c2ae" x="255.425302" y="331.583423" style="stroke: #000000; stroke-width: 0.6"/>
      </g>
     </g>
    </g>
    <g id="xtick_21">
     <g id="line2d_41">
      <path d="M 272.894469 331.583423 
L 272.894469 23.077969 
" clip-path="url(#pc37c3bef06)" style="fill: none; stroke: #b0b0b0; stroke-opacity: 0.3; stroke-width: 0.8; stroke-linecap: square"/>
     </g>
     <g id="line2d_42">
      <g>
       <use xlink:href="#mf32937c2ae" x="272.894469" y="331.583423" style="stroke: #000000; stroke-width: 0.6"/>
      </g>
     </g>
    </g>
    <g id="xtick_22">
     <g id="line2d_43">
      <path d="M 285.289041 331.583423 
L 285.289041 23.077969 
" clip-path="url(#pc37c3bef06)" style="fill: none; stroke: #b0b0b0; stroke-opacity: 0.3; stroke-width: 0.8; stroke-linecap: square"/>
     </g>
     <g id="line2d_44">
      <g>
       <use xlink:href="#mf32937c2ae" x="285.289041" y="331.583423" style="stroke: #000000; stroke-width: 0.6"/>
      </g>
     </g>
    </g>
    <g id="xtick_23">
     <g id="line2d_45">
      <path d="M 294.903017 331.583423 
L 294.903017 23.077969 
" clip-path="url(#pc37c3bef06)" style="fill: none; stroke: #b0b0b0; stroke-opacity: 0.3; stroke-width: 0.8; stroke-linecap: square"/>
     </g>
     <g id="line2d_46">
      <g>
       <use xlink:href="#mf32937c2ae" x="294.903017" y="331.583423" style="stroke: #000000; stroke-width: 0.6"/>
      </g>
     </g>
    </g>
    <g id="xtick_24">
     <g id="line2d_47">
      <path d="M 302.758208 331.583423 
L 302.758208 23.077969 
" clip-path="url(#pc37c3bef06)" style="fill: none; stroke: #b0b0b0; stroke-opacity: 0.3; stroke-width: 0.8; stroke-linecap: square"/>
     </g>
     <g id="line2d_48">
      <g>
       <use xlink:href="#mf32937c2ae" x="302.758208" y="331.583423" style="stroke: #000000; stroke-width: 0.6"/>
      </g>
     </g>
    </g>
    <g id="xtick_25">
     <g id="line2d_49">
      <path d="M 309.399677 331.583423 
L 309.399677 23.077969 
" clip-path="url(#pc37c3bef06)" style="fill: none; stroke: #b0b0b0; stroke-opacity: 0.3; stroke-width: 0.8; stroke-linecap: square"/>
     </g>
     <g id="line2d_50">
      <g>
       <use xlink:href="#mf32937c2ae" x="309.399677" y="331.583423" style="stroke: #000000; stroke-width: 0.6"/>
      </g>
     </g>
    </g>
    <g id="xtick_26">
     <g id="line2d_51">
      <path d="M 315.15278 331.583423 
L 315.15278 23.077969 
" clip-path="url(#pc37c3bef06)" style="fill: none; stroke: #b0b0b0; stroke-opacity: 0.3; stroke-width: 0.8; stroke-linecap: square"/>
     </g>
     <g id="line2d_52">
      <g>
       <use xlink:href="#mf32937c2ae" x="315.15278" y="331.583423" style="stroke: #000000; stroke-width: 0.6"/>
      </g>
     </g>
    </g>
    <g id="xtick_27">
     <g id="line2d_53">
      <path d="M 320.227376 331.583423 
L 320.227376 23.077969 
" clip-path="url(#pc37c3bef06)" style="fill: none; stroke: #b0b0b0; stroke-opacity: 0.3; stroke-width: 0.8; stroke-linecap: square"/>
     </g>
     <g id="line2d_54">
      <g>
       <use xlink:href="#mf32937c2ae" x="320.227376" y="331.583423" style="stroke: #000000; stroke-width: 0.6"/>
      </g>
     </g>
    </g>
    <g id="xtick_28">
     <g id="line2d_55">
      <path d="M 354.630495 331.583423 
L 354.630495 23.077969 
" clip-path="url(#pc37c3bef06)" style="fill: none; stroke: #b0b0b0; stroke-opacity: 0.3; stroke-width: 0.8; stroke-linecap: square"/>
     </g>
     <g id="line2d_56">
      <g>
       <use xlink:href="#mf32937c2ae" x="354.630495" y="331.583423" style="stroke: #000000; stroke-width: 0.6"/>
      </g>
     </g>
    </g>
    <g id="xtick_29">
     <g id="line2d_57">
      <path d="M 372.099663 331.583423 
L 372.099663 23.077969 
" clip-path="url(#pc37c3bef06)" style="fill: none; stroke: #b0b0b0; stroke-opacity: 0.3; stroke-width: 0.8; stroke-linecap: square"/>
     </g>
     <g id="line2d_58">
      <g>
       <use xlink:href="#mf32937c2ae" x="372.099663" y="331.583423" style="stroke: #000000; stroke-width: 0.6"/>
      </g>
     </g>
    </g>
    <g id="text_4">
     <!-- labelled  $\mu_\mathrm{true}$  (cP) -->
     <g transform="translate(161.764858 363.317173) scale(0.12 -0.12)">
      <defs>
       <path id="DejaVuSans-6c" d="M 603 4863 
L 1178 4863 
L 1178 0 
L 603 0 
L 603 4863 
z
" transform="scale(0.015625)"/>
       <path id="DejaVuSans-61" d="M 2194 1759 
Q 1497 1759 1228 1600 
Q 959 1441 959 1056 
Q 959 750 1161 570 
Q 1363 391 1709 391 
Q 2188 391 2477 730 
Q 2766 1069 2766 1631 
L 2766 1759 
L 2194 1759 
z
M 3341 1997 
L 3341 0 
L 2766 0 
L 2766 531 
Q 2569 213 2275 61 
Q 1981 -91 1556 -91 
Q 1019 -91 701 211 
Q 384 513 384 1019 
Q 384 1609 779 1909 
Q 1175 2209 1959 2209 
L 2766 2209 
L 2766 2266 
Q 2766 2663 2505 2880 
Q 2244 3097 1772 3097 
Q 1472 3097 1187 3025 
Q 903 2953 641 2809 
L 641 3341 
Q 956 3463 1253 3523 
Q 1550 3584 1831 3584 
Q 2591 3584 2966 3190 
Q 3341 2797 3341 1997 
z
" transform="scale(0.015625)"/>
       <path id="DejaVuSans-62" d="M 3116 1747 
Q 3116 2381 2855 2742 
Q 2594 3103 2138 3103 
Q 1681 3103 1420 2742 
Q 1159 2381 1159 1747 
Q 1159 1113 1420 752 
Q 1681 391 2138 391 
Q 2594 391 2855 752 
Q 3116 1113 3116 1747 
z
M 1159 2969 
Q 1341 3281 1617 3432 
Q 1894 3584 2278 3584 
Q 2916 3584 3314 3078 
Q 3713 2572 3713 1747 
Q 3713 922 3314 415 
Q 2916 -91 2278 -91 
Q 1894 -91 1617 61 
Q 1341 213 1159 525 
L 1159 0 
L 581 0 
L 581 4863 
L 1159 4863 
L 1159 2969 
z
" transform="scale(0.015625)"/>
       <path id="DejaVuSans-65" d="M 3597 1894 
L 3597 1613 
L 953 1613 
Q 991 1019 1311 708 
Q 1631 397 2203 397 
Q 2534 397 2845 478 
Q 3156 559 3463 722 
L 3463 178 
Q 3153 47 2828 -22 
Q 2503 -91 2169 -91 
Q 1331 -91 842 396 
Q 353 884 353 1716 
Q 353 2575 817 3079 
Q 1281 3584 2069 3584 
Q 2775 3584 3186 3129 
Q 3597 2675 3597 1894 
z
M 3022 2063 
Q 3016 2534 2758 2815 
Q 2500 3097 2075 3097 
Q 1594 3097 1305 2825 
Q 1016 2553 972 2059 
L 3022 2063 
z
" transform="scale(0.015625)"/>
       <path id="DejaVuSans-64" d="M 2906 2969 
L 2906 4863 
L 3481 4863 
L 3481 0 
L 2906 0 
L 2906 525 
Q 2725 213 2448 61 
Q 2172 -91 1784 -91 
Q 1150 -91 751 415 
Q 353 922 353 1747 
Q 353 2572 751 3078 
Q 1150 3584 1784 3584 
Q 2172 3584 2448 3432 
Q 2725 3281 2906 2969 
z
M 947 1747 
Q 947 1113 1208 752 
Q 1469 391 1925 391 
Q 2381 391 2643 752 
Q 2906 1113 2906 1747 
Q 2906 2381 2643 2742 
Q 2381 3103 1925 3103 
Q 1469 3103 1208 2742 
Q 947 2381 947 1747 
z
" transform="scale(0.015625)"/>
       <path id="DejaVuSans-20" transform="scale(0.015625)"/>
       <path id="DejaVuSans-Oblique-3bc" d="M -84 -1331 
L 856 3500 
L 1434 3500 
L 1009 1322 
Q 997 1256 987 1175 
Q 978 1094 978 1013 
Q 978 722 1161 565 
Q 1344 409 1684 409 
Q 2147 409 2431 671 
Q 2716 934 2816 1459 
L 3213 3500 
L 3788 3500 
L 3266 809 
Q 3253 750 3248 706 
Q 3244 663 3244 628 
Q 3244 531 3283 486 
Q 3322 441 3406 441 
Q 3438 441 3492 456 
Q 3547 472 3647 513 
L 3559 50 
Q 3422 -19 3297 -55 
Q 3172 -91 3053 -91 
Q 2847 -91 2730 40 
Q 2613 172 2613 403 
Q 2438 153 2195 31 
Q 1953 -91 1625 -91 
Q 1334 -91 1117 43 
Q 900 178 831 397 
L 494 -1331 
L -84 -1331 
z
" transform="scale(0.015625)"/>
       <path id="DejaVuSans-74" d="M 1172 4494 
L 1172 3500 
L 2356 3500 
L 2356 3053 
L 1172 3053 
L 1172 1153 
Q 1172 725 1289 603 
Q 1406 481 1766 481 
L 2356 481 
L 2356 0 
L 1766 0 
Q 1100 0 847 248 
Q 594 497 594 1153 
L 594 3053 
L 172 3053 
L 172 3500 
L 594 3500 
L 594 4494 
L 1172 4494 
z
" transform="scale(0.015625)"/>
       <path id="DejaVuSans-72" d="M 2631 2963 
Q 2534 3019 2420 3045 
Q 2306 3072 2169 3072 
Q 1681 3072 1420 2755 
Q 1159 2438 1159 1844 
L 1159 0 
L 581 0 
L 581 3500 
L 1159 3500 
L 1159 2956 
Q 1341 3275 1631 3429 
Q 1922 3584 2338 3584 
Q 2397 3584 2469 3576 
Q 2541 3569 2628 3553 
L 2631 2963 
z
" transform="scale(0.015625)"/>
       <path id="DejaVuSans-75" d="M 544 1381 
L 544 3500 
L 1119 3500 
L 1119 1403 
Q 1119 906 1312 657 
Q 1506 409 1894 409 
Q 2359 409 2629 706 
Q 2900 1003 2900 1516 
L 2900 3500 
L 3475 3500 
L 3475 0 
L 2900 0 
L 2900 538 
Q 2691 219 2414 64 
Q 2138 -91 1772 -91 
Q 1169 -91 856 284 
Q 544 659 544 1381 
z
M 1991 3584 
L 1991 3584 
z
" transform="scale(0.015625)"/>
       <path id="DejaVuSans-28" d="M 1984 4856 
Q 1566 4138 1362 3434 
Q 1159 2731 1159 2009 
Q 1159 1288 1364 580 
Q 1569 -128 1984 -844 
L 1484 -844 
Q 1016 -109 783 600 
Q 550 1309 550 2009 
Q 550 2706 781 3412 
Q 1013 4119 1484 4856 
L 1984 4856 
z
" transform="scale(0.015625)"/>
       <path id="DejaVuSans-63" d="M 3122 3366 
L 3122 2828 
Q 2878 2963 2633 3030 
Q 2388 3097 2138 3097 
Q 1578 3097 1268 2742 
Q 959 2388 959 1747 
Q 959 1106 1268 751 
Q 1578 397 2138 397 
Q 2388 397 2633 464 
Q 2878 531 3122 666 
L 3122 134 
Q 2881 22 2623 -34 
Q 2366 -91 2075 -91 
Q 1284 -91 818 406 
Q 353 903 353 1747 
Q 353 2603 823 3093 
Q 1294 3584 2113 3584 
Q 2378 3584 2631 3529 
Q 2884 3475 3122 3366 
z
" transform="scale(0.015625)"/>
       <path id="DejaVuSans-50" d="M 1259 4147 
L 1259 2394 
L 2053 2394 
Q 2494 2394 2734 2622 
Q 2975 2850 2975 3272 
Q 2975 3691 2734 3919 
Q 2494 4147 2053 4147 
L 1259 4147 
z
M 628 4666 
L 2053 4666 
Q 2838 4666 3239 4311 
Q 3641 3956 3641 3272 
Q 3641 2581 3239 2228 
Q 2838 1875 2053 1875 
L 1259 1875 
L 1259 0 
L 628 0 
L 628 4666 
z
" transform="scale(0.015625)"/>
       <path id="DejaVuSans-29" d="M 513 4856 
L 1013 4856 
Q 1481 4119 1714 3412 
Q 1947 2706 1947 2009 
Q 1947 1309 1714 600 
Q 1481 -109 1013 -844 
L 513 -844 
Q 928 -128 1133 580 
Q 1338 1288 1338 2009 
Q 1338 2731 1133 3434 
Q 928 4138 513 4856 
z
" transform="scale(0.015625)"/>
      </defs>
      <use xlink:href="#DejaVuSans-6c" transform="translate(0 0.015625)"/>
      <use xlink:href="#DejaVuSans-61" transform="translate(27.783203 0.015625)"/>
      <use xlink:href="#DejaVuSans-62" transform="translate(89.0625 0.015625)"/>
      <use xlink:href="#DejaVuSans-65" transform="translate(152.539062 0.015625)"/>
      <use xlink:href="#DejaVuSans-6c" transform="translate(214.0625 0.015625)"/>
      <use xlink:href="#DejaVuSans-6c" transform="translate(241.845703 0.015625)"/>
      <use xlink:href="#DejaVuSans-65" transform="translate(269.628906 0.015625)"/>
      <use xlink:href="#DejaVuSans-64" transform="translate(331.152344 0.015625)"/>
      <use xlink:href="#DejaVuSans-20" transform="translate(394.628906 0.015625)"/>
      <use xlink:href="#DejaVuSans-20" transform="translate(426.416016 0.015625)"/>
      <use xlink:href="#DejaVuSans-Oblique-3bc" transform="translate(458.203125 0.015625)"/>
      <use xlink:href="#DejaVuSans-74" transform="translate(521.826172 -16.390625) scale(0.7)"/>
      <use xlink:href="#DejaVuSans-72" transform="translate(549.272461 -16.390625) scale(0.7)"/>
      <use xlink:href="#DejaVuSans-75" transform="translate(578.051758 -16.390625) scale(0.7)"/>
      <use xlink:href="#DejaVuSans-65" transform="translate(622.416992 -16.390625) scale(0.7)"/>
      <use xlink:href="#DejaVuSans-20" transform="translate(668.217773 0.015625)"/>
      <use xlink:href="#DejaVuSans-20" transform="translate(700.004883 0.015625)"/>
      <use xlink:href="#DejaVuSans-28" transform="translate(731.791992 0.015625)"/>
      <use xlink:href="#DejaVuSans-63" transform="translate(770.805664 0.015625)"/>
      <use xlink:href="#DejaVuSans-50" transform="translate(825.786133 0.015625)"/>
      <use xlink:href="#DejaVuSans-29" transform="translate(886.088867 0.015625)"/>
     </g>
    </g>
   </g>
   <g id="matplotlib.axis_2">
    <g id="ytick_1">
     <g id="line2d_59">
      <path d="M 53.6 326.560321 
L 381.049715 326.560321 
" clip-path="url(#pc37c3bef06)" style="fill: none; stroke: #b0b0b0; stroke-opacity: 0.3; stroke-width: 0.8; stroke-linecap: square"/>
     </g>
     <g id="line2d_60">
      <defs>
       <path id="mb6642dc60e" d="M 0 0 
L -3.5 0 
" style="stroke: #000000; stroke-width: 0.8"/>
      </defs>
      <g>
       <use xlink:href="#mb6642dc60e" x="53.6" y="326.560321" style="stroke: #000000; stroke-width: 0.8"/>
      </g>
     </g>
     <g id="text_5">
      <!-- $\mathdefault{10^{2}}$ -->
      <g transform="translate(25.48 331.119383) scale(0.12 -0.12)">
       <defs>
        <path id="DejaVuSans-32" d="M 1228 531 
L 3431 531 
L 3431 0 
L 469 0 
L 469 531 
Q 828 903 1448 1529 
Q 2069 2156 2228 2338 
Q 2531 2678 2651 2914 
Q 2772 3150 2772 3378 
Q 2772 3750 2511 3984 
Q 2250 4219 1831 4219 
Q 1534 4219 1204 4116 
Q 875 4013 500 3803 
L 500 4441 
Q 881 4594 1212 4672 
Q 1544 4750 1819 4750 
Q 2544 4750 2975 4387 
Q 3406 4025 3406 3419 
Q 3406 3131 3298 2873 
Q 3191 2616 2906 2266 
Q 2828 2175 2409 1742 
Q 1991 1309 1228 531 
z
" transform="scale(0.015625)"/>
       </defs>
       <use xlink:href="#DejaVuSans-31" transform="translate(0 0.765625)"/>
       <use xlink:href="#DejaVuSans-30" transform="translate(63.623047 0.765625)"/>
       <use xlink:href="#DejaVuSans-32" transform="translate(128.203125 39.046875) scale(0.7)"/>
      </g>
     </g>
    </g>
    <g id="ytick_2">
     <g id="line2d_61">
      <path d="M 53.6 248.71383 
L 381.049715 248.71383 
" clip-path="url(#pc37c3bef06)" style="fill: none; stroke: #b0b0b0; stroke-opacity: 0.3; stroke-width: 0.8; stroke-linecap: square"/>
     </g>
     <g id="line2d_62">
      <g>
       <use xlink:href="#mb6642dc60e" x="53.6" y="248.71383" style="stroke: #000000; stroke-width: 0.8"/>
      </g>
     </g>
     <g id="text_6">
      <!-- $\mathdefault{10^{3}}$ -->
      <g transform="translate(25.48 253.272892) scale(0.12 -0.12)">
       <use xlink:href="#DejaVuSans-31" transform="translate(0 0.765625)"/>
       <use xlink:href="#DejaVuSans-30" transform="translate(63.623047 0.765625)"/>
       <use xlink:href="#DejaVuSans-33" transform="translate(128.203125 39.046875) scale(0.7)"/>
      </g>
     </g>
    </g>
    <g id="ytick_3">
     <g id="line2d_63">
      <path d="M 53.6 170.867339 
L 381.049715 170.867339 
" clip-path="url(#pc37c3bef06)" style="fill: none; stroke: #b0b0b0; stroke-opacity: 0.3; stroke-width: 0.8; stroke-linecap: square"/>
     </g>
     <g id="line2d_64">
      <g>
       <use xlink:href="#mb6642dc60e" x="53.6" y="170.867339" style="stroke: #000000; stroke-width: 0.8"/>
      </g>
     </g>
     <g id="text_7">
      <!-- $\mathdefault{10^{4}}$ -->
      <g transform="translate(25.48 175.426401) scale(0.12 -0.12)">
       <use xlink:href="#DejaVuSans-31" transform="translate(0 0.684375)"/>
       <use xlink:href="#DejaVuSans-30" transform="translate(63.623047 0.684375)"/>
       <use xlink:href="#DejaVuSans-34" transform="translate(128.203125 38.965625) scale(0.7)"/>
      </g>
     </g>
    </g>
    <g id="ytick_4">
     <g id="line2d_65">
      <path d="M 53.6 93.020848 
L 381.049715 93.020848 
" clip-path="url(#pc37c3bef06)" style="fill: none; stroke: #b0b0b0; stroke-opacity: 0.3; stroke-width: 0.8; stroke-linecap: square"/>
     </g>
     <g id="line2d_66">
      <g>
       <use xlink:href="#mb6642dc60e" x="53.6" y="93.020848" style="stroke: #000000; stroke-width: 0.8"/>
      </g>
     </g>
     <g id="text_8">
      <!-- $\mathdefault{10^{5}}$ -->
      <g transform="translate(25.48 97.579911) scale(0.12 -0.12)">
       <use xlink:href="#DejaVuSans-31" transform="translate(0 0.684375)"/>
       <use xlink:href="#DejaVuSans-30" transform="translate(63.623047 0.684375)"/>
       <use xlink:href="#DejaVuSans-35" transform="translate(128.203125 38.965625) scale(0.7)"/>
      </g>
     </g>
    </g>
    <g id="ytick_5">
     <g id="line2d_67">
      <path d="M 53.6 330.122381 
L 381.049715 330.122381 
" clip-path="url(#pc37c3bef06)" style="fill: none; stroke: #b0b0b0; stroke-opacity: 0.3; stroke-width: 0.8; stroke-linecap: square"/>
     </g>
     <g id="line2d_68">
      <defs>
       <path id="m8f5f5ca4e6" d="M 0 0 
L -2 0 
" style="stroke: #000000; stroke-width: 0.6"/>
      </defs>
      <g>
       <use xlink:href="#m8f5f5ca4e6" x="53.6" y="330.122381" style="stroke: #000000; stroke-width: 0.6"/>
      </g>
     </g>
    </g>
    <g id="ytick_6">
     <g id="line2d_69">
      <path d="M 53.6 303.126192 
L 381.049715 303.126192 
" clip-path="url(#pc37c3bef06)" style="fill: none; stroke: #b0b0b0; stroke-opacity: 0.3; stroke-width: 0.8; stroke-linecap: square"/>
     </g>
     <g id="line2d_70">
      <g>
       <use xlink:href="#m8f5f5ca4e6" x="53.6" y="303.126192" style="stroke: #000000; stroke-width: 0.6"/>
      </g>
     </g>
    </g>
    <g id="ytick_7">
     <g id="line2d_71">
      <path d="M 53.6 289.418105 
L 381.049715 289.418105 
" clip-path="url(#pc37c3bef06)" style="fill: none; stroke: #b0b0b0; stroke-opacity: 0.3; stroke-width: 0.8; stroke-linecap: square"/>
     </g>
     <g id="line2d_72">
      <g>
       <use xlink:href="#m8f5f5ca4e6" x="53.6" y="289.418105" style="stroke: #000000; stroke-width: 0.6"/>
      </g>
     </g>
    </g>
    <g id="ytick_8">
     <g id="line2d_73">
      <path d="M 53.6 279.692063 
L 381.049715 279.692063 
" clip-path="url(#pc37c3bef06)" style="fill: none; stroke: #b0b0b0; stroke-opacity: 0.3; stroke-width: 0.8; stroke-linecap: square"/>
     </g>
     <g id="line2d_74">
      <g>
       <use xlink:href="#m8f5f5ca4e6" x="53.6" y="279.692063" style="stroke: #000000; stroke-width: 0.6"/>
      </g>
     </g>
    </g>
    <g id="ytick_9">
     <g id="line2d_75">
      <path d="M 53.6 272.147959 
L 381.049715 272.147959 
" clip-path="url(#pc37c3bef06)" style="fill: none; stroke: #b0b0b0; stroke-opacity: 0.3; stroke-width: 0.8; stroke-linecap: square"/>
     </g>
     <g id="line2d_76">
      <g>
       <use xlink:href="#m8f5f5ca4e6" x="53.6" y="272.147959" style="stroke: #000000; stroke-width: 0.6"/>
      </g>
     </g>
    </g>
    <g id="ytick_10">
     <g id="line2d_77">
      <path d="M 53.6 265.983977 
L 381.049715 265.983977 
" clip-path="url(#pc37c3bef06)" style="fill: none; stroke: #b0b0b0; stroke-opacity: 0.3; stroke-width: 0.8; stroke-linecap: square"/>
     </g>
     <g id="line2d_78">
      <g>
       <use xlink:href="#m8f5f5ca4e6" x="53.6" y="265.983977" style="stroke: #000000; stroke-width: 0.6"/>
      </g>
     </g>
    </g>
    <g id="ytick_11">
     <g id="line2d_79">
      <path d="M 53.6 260.772404 
L 381.049715 260.772404 
" clip-path="url(#pc37c3bef06)" style="fill: none; stroke: #b0b0b0; stroke-opacity: 0.3; stroke-width: 0.8; stroke-linecap: square"/>
     </g>
     <g id="line2d_80">
      <g>
       <use xlink:href="#m8f5f5ca4e6" x="53.6" y="260.772404" style="stroke: #000000; stroke-width: 0.6"/>
      </g>
     </g>
    </g>
    <g id="ytick_12">
     <g id="line2d_81">
      <path d="M 53.6 256.257934 
L 381.049715 256.257934 
" clip-path="url(#pc37c3bef06)" style="fill: none; stroke: #b0b0b0; stroke-opacity: 0.3; stroke-width: 0.8; stroke-linecap: square"/>
     </g>
     <g id="line2d_82">
      <g>
       <use xlink:href="#m8f5f5ca4e6" x="53.6" y="256.257934" style="stroke: #000000; stroke-width: 0.6"/>
      </g>
     </g>
    </g>
    <g id="ytick_13">
     <g id="line2d_83">
      <path d="M 53.6 252.27589 
L 381.049715 252.27589 
" clip-path="url(#pc37c3bef06)" style="fill: none; stroke: #b0b0b0; stroke-opacity: 0.3; stroke-width: 0.8; stroke-linecap: square"/>
     </g>
     <g id="line2d_84">
      <g>
       <use xlink:href="#m8f5f5ca4e6" x="53.6" y="252.27589" style="stroke: #000000; stroke-width: 0.6"/>
      </g>
     </g>
    </g>
    <g id="ytick_14">
     <g id="line2d_85">
      <path d="M 53.6 225.279701 
L 381.049715 225.279701 
" clip-path="url(#pc37c3bef06)" style="fill: none; stroke: #b0b0b0; stroke-opacity: 0.3; stroke-width: 0.8; stroke-linecap: square"/>
     </g>
     <g id="line2d_86">
      <g>
       <use xlink:href="#m8f5f5ca4e6" x="53.6" y="225.279701" style="stroke: #000000; stroke-width: 0.6"/>
      </g>
     </g>
    </g>
    <g id="ytick_15">
     <g id="line2d_87">
      <path d="M 53.6 211.571614 
L 381.049715 211.571614 
" clip-path="url(#pc37c3bef06)" style="fill: none; stroke: #b0b0b0; stroke-opacity: 0.3; stroke-width: 0.8; stroke-linecap: square"/>
     </g>
     <g id="line2d_88">
      <g>
       <use xlink:href="#m8f5f5ca4e6" x="53.6" y="211.571614" style="stroke: #000000; stroke-width: 0.6"/>
      </g>
     </g>
    </g>
    <g id="ytick_16">
     <g id="line2d_89">
      <path d="M 53.6 201.845572 
L 381.049715 201.845572 
" clip-path="url(#pc37c3bef06)" style="fill: none; stroke: #b0b0b0; stroke-opacity: 0.3; stroke-width: 0.8; stroke-linecap: square"/>
     </g>
     <g id="line2d_90">
      <g>
       <use xlink:href="#m8f5f5ca4e6" x="53.6" y="201.845572" style="stroke: #000000; stroke-width: 0.6"/>
      </g>
     </g>
    </g>
    <g id="ytick_17">
     <g id="line2d_91">
      <path d="M 53.6 194.301468 
L 381.049715 194.301468 
" clip-path="url(#pc37c3bef06)" style="fill: none; stroke: #b0b0b0; stroke-opacity: 0.3; stroke-width: 0.8; stroke-linecap: square"/>
     </g>
     <g id="line2d_92">
      <g>
       <use xlink:href="#m8f5f5ca4e6" x="53.6" y="194.301468" style="stroke: #000000; stroke-width: 0.6"/>
      </g>
     </g>
    </g>
    <g id="ytick_18">
     <g id="line2d_93">
      <path d="M 53.6 188.137486 
L 381.049715 188.137486 
" clip-path="url(#pc37c3bef06)" style="fill: none; stroke: #b0b0b0; stroke-opacity: 0.3; stroke-width: 0.8; stroke-linecap: square"/>
     </g>
     <g id="line2d_94">
      <g>
       <use xlink:href="#m8f5f5ca4e6" x="53.6" y="188.137486" style="stroke: #000000; stroke-width: 0.6"/>
      </g>
     </g>
    </g>
    <g id="ytick_19">
     <g id="line2d_95">
      <path d="M 53.6 182.925913 
L 381.049715 182.925913 
" clip-path="url(#pc37c3bef06)" style="fill: none; stroke: #b0b0b0; stroke-opacity: 0.3; stroke-width: 0.8; stroke-linecap: square"/>
     </g>
     <g id="line2d_96">
      <g>
       <use xlink:href="#m8f5f5ca4e6" x="53.6" y="182.925913" style="stroke: #000000; stroke-width: 0.6"/>
      </g>
     </g>
    </g>
    <g id="ytick_20">
     <g id="line2d_97">
      <path d="M 53.6 178.411443 
L 381.049715 178.411443 
" clip-path="url(#pc37c3bef06)" style="fill: none; stroke: #b0b0b0; stroke-opacity: 0.3; stroke-width: 0.8; stroke-linecap: square"/>
     </g>
     <g id="line2d_98">
      <g>
       <use xlink:href="#m8f5f5ca4e6" x="53.6" y="178.411443" style="stroke: #000000; stroke-width: 0.6"/>
      </g>
     </g>
    </g>
    <g id="ytick_21">
     <g id="line2d_99">
      <path d="M 53.6 174.429399 
L 381.049715 174.429399 
" clip-path="url(#pc37c3bef06)" style="fill: none; stroke: #b0b0b0; stroke-opacity: 0.3; stroke-width: 0.8; stroke-linecap: square"/>
     </g>
     <g id="line2d_100">
      <g>
       <use xlink:href="#m8f5f5ca4e6" x="53.6" y="174.429399" style="stroke: #000000; stroke-width: 0.6"/>
      </g>
     </g>
    </g>
    <g id="ytick_22">
     <g id="line2d_101">
      <path d="M 53.6 147.43321 
L 381.049715 147.43321 
" clip-path="url(#pc37c3bef06)" style="fill: none; stroke: #b0b0b0; stroke-opacity: 0.3; stroke-width: 0.8; stroke-linecap: square"/>
     </g>
     <g id="line2d_102">
      <g>
       <use xlink:href="#m8f5f5ca4e6" x="53.6" y="147.43321" style="stroke: #000000; stroke-width: 0.6"/>
      </g>
     </g>
    </g>
    <g id="ytick_23">
     <g id="line2d_103">
      <path d="M 53.6 133.725124 
L 381.049715 133.725124 
" clip-path="url(#pc37c3bef06)" style="fill: none; stroke: #b0b0b0; stroke-opacity: 0.3; stroke-width: 0.8; stroke-linecap: square"/>
     </g>
     <g id="line2d_104">
      <g>
       <use xlink:href="#m8f5f5ca4e6" x="53.6" y="133.725124" style="stroke: #000000; stroke-width: 0.6"/>
      </g>
     </g>
    </g>
    <g id="ytick_24">
     <g id="line2d_105">
      <path d="M 53.6 123.999081 
L 381.049715 123.999081 
" clip-path="url(#pc37c3bef06)" style="fill: none; stroke: #b0b0b0; stroke-opacity: 0.3; stroke-width: 0.8; stroke-linecap: square"/>
     </g>
     <g id="line2d_106">
      <g>
       <use xlink:href="#m8f5f5ca4e6" x="53.6" y="123.999081" style="stroke: #000000; stroke-width: 0.6"/>
      </g>
     </g>
    </g>
    <g id="ytick_25">
     <g id="line2d_107">
      <path d="M 53.6 116.454977 
L 381.049715 116.454977 
" clip-path="url(#pc37c3bef06)" style="fill: none; stroke: #b0b0b0; stroke-opacity: 0.3; stroke-width: 0.8; stroke-linecap: square"/>
     </g>
     <g id="line2d_108">
      <g>
       <use xlink:href="#m8f5f5ca4e6" x="53.6" y="116.454977" style="stroke: #000000; stroke-width: 0.6"/>
      </g>
     </g>
    </g>
    <g id="ytick_26">
     <g id="line2d_109">
      <path d="M 53.6 110.290995 
L 381.049715 110.290995 
" clip-path="url(#pc37c3bef06)" style="fill: none; stroke: #b0b0b0; stroke-opacity: 0.3; stroke-width: 0.8; stroke-linecap: square"/>
     </g>
     <g id="line2d_110">
      <g>
       <use xlink:href="#m8f5f5ca4e6" x="53.6" y="110.290995" style="stroke: #000000; stroke-width: 0.6"/>
      </g>
     </g>
    </g>
    <g id="ytick_27">
     <g id="line2d_111">
      <path d="M 53.6 105.079422 
L 381.049715 105.079422 
" clip-path="url(#pc37c3bef06)" style="fill: none; stroke: #b0b0b0; stroke-opacity: 0.3; stroke-width: 0.8; stroke-linecap: square"/>
     </g>
     <g id="line2d_112">
      <g>
       <use xlink:href="#m8f5f5ca4e6" x="53.6" y="105.079422" style="stroke: #000000; stroke-width: 0.6"/>
      </g>
     </g>
    </g>
    <g id="ytick_28">
     <g id="line2d_113">
      <path d="M 53.6 100.564953 
L 381.049715 100.564953 
" clip-path="url(#pc37c3bef06)" style="fill: none; stroke: #b0b0b0; stroke-opacity: 0.3; stroke-width: 0.8; stroke-linecap: square"/>
     </g>
     <g id="line2d_114">
      <g>
       <use xlink:href="#m8f5f5ca4e6" x="53.6" y="100.564953" style="stroke: #000000; stroke-width: 0.6"/>
      </g>
     </g>
    </g>
    <g id="ytick_29">
     <g id="line2d_115">
      <path d="M 53.6 96.582908 
L 381.049715 96.582908 
" clip-path="url(#pc37c3bef06)" style="fill: none; stroke: #b0b0b0; stroke-opacity: 0.3; stroke-width: 0.8; stroke-linecap: square"/>
     </g>
     <g id="line2d_116">
      <g>
       <use xlink:href="#m8f5f5ca4e6" x="53.6" y="96.582908" style="stroke: #000000; stroke-width: 0.6"/>
      </g>
     </g>
    </g>
    <g id="ytick_30">
     <g id="line2d_117">
      <path d="M 53.6 69.586719 
L 381.049715 69.586719 
" clip-path="url(#pc37c3bef06)" style="fill: none; stroke: #b0b0b0; stroke-opacity: 0.3; stroke-width: 0.8; stroke-linecap: square"/>
     </g>
     <g id="line2d_118">
      <g>
       <use xlink:href="#m8f5f5ca4e6" x="53.6" y="69.586719" style="stroke: #000000; stroke-width: 0.6"/>
      </g>
     </g>
    </g>
    <g id="ytick_31">
     <g id="line2d_119">
      <path d="M 53.6 55.878633 
L 381.049715 55.878633 
" clip-path="url(#pc37c3bef06)" style="fill: none; stroke: #b0b0b0; stroke-opacity: 0.3; stroke-width: 0.8; stroke-linecap: square"/>
     </g>
     <g id="line2d_120">
      <g>
       <use xlink:href="#m8f5f5ca4e6" x="53.6" y="55.878633" style="stroke: #000000; stroke-width: 0.6"/>
      </g>
     </g>
    </g>
    <g id="ytick_32">
     <g id="line2d_121">
      <path d="M 53.6 46.15259 
L 381.049715 46.15259 
" clip-path="url(#pc37c3bef06)" style="fill: none; stroke: #b0b0b0; stroke-opacity: 0.3; stroke-width: 0.8; stroke-linecap: square"/>
     </g>
     <g id="line2d_122">
      <g>
       <use xlink:href="#m8f5f5ca4e6" x="53.6" y="46.15259" style="stroke: #000000; stroke-width: 0.6"/>
      </g>
     </g>
    </g>
    <g id="ytick_33">
     <g id="line2d_123">
      <path d="M 53.6 38.608486 
L 381.049715 38.608486 
" clip-path="url(#pc37c3bef06)" style="fill: none; stroke: #b0b0b0; stroke-opacity: 0.3; stroke-width: 0.8; stroke-linecap: square"/>
     </g>
     <g id="line2d_124">
      <g>
       <use xlink:href="#m8f5f5ca4e6" x="53.6" y="38.608486" style="stroke: #000000; stroke-width: 0.6"/>
      </g>
     </g>
    </g>
    <g id="ytick_34">
     <g id="line2d_125">
      <path d="M 53.6 32.444504 
L 381.049715 32.444504 
" clip-path="url(#pc37c3bef06)" style="fill: none; stroke: #b0b0b0; stroke-opacity: 0.3; stroke-width: 0.8; stroke-linecap: square"/>
     </g>
     <g id="line2d_126">
      <g>
       <use xlink:href="#m8f5f5ca4e6" x="53.6" y="32.444504" style="stroke: #000000; stroke-width: 0.6"/>
      </g>
     </g>
    </g>
    <g id="ytick_35">
     <g id="line2d_127">
      <path d="M 53.6 27.232931 
L 381.049715 27.232931 
" clip-path="url(#pc37c3bef06)" style="fill: none; stroke: #b0b0b0; stroke-opacity: 0.3; stroke-width: 0.8; stroke-linecap: square"/>
     </g>
     <g id="line2d_128">
      <g>
       <use xlink:href="#m8f5f5ca4e6" x="53.6" y="27.232931" style="stroke: #000000; stroke-width: 0.6"/>
      </g>
     </g>
    </g>
    <g id="text_9">
     <!-- $\mu_\mathrm{app}$ at lowest $\dot\gamma$  (cP) -->
     <g transform="translate(17.76 239.370696) rotate(-90) scale(0.12 -0.12)">
      <defs>
       <path id="DejaVuSans-70" d="M 1159 525 
L 1159 -1331 
L 581 -1331 
L 581 3500 
L 1159 3500 
L 1159 2969 
Q 1341 3281 1617 3432 
Q 1894 3584 2278 3584 
Q 2916 3584 3314 3078 
Q 3713 2572 3713 1747 
Q 3713 922 3314 415 
Q 2916 -91 2278 -91 
Q 1894 -91 1617 61 
Q 1341 213 1159 525 
z
M 3116 1747 
Q 3116 2381 2855 2742 
Q 2594 3103 2138 3103 
Q 1681 3103 1420 2742 
Q 1159 2381 1159 1747 
Q 1159 1113 1420 752 
Q 1681 391 2138 391 
Q 2594 391 2855 752 
Q 3116 1113 3116 1747 
z
" transform="scale(0.015625)"/>
       <path id="DejaVuSans-6f" d="M 1959 3097 
Q 1497 3097 1228 2736 
Q 959 2375 959 1747 
Q 959 1119 1226 758 
Q 1494 397 1959 397 
Q 2419 397 2687 759 
Q 2956 1122 2956 1747 
Q 2956 2369 2687 2733 
Q 2419 3097 1959 3097 
z
M 1959 3584 
Q 2709 3584 3137 3096 
Q 3566 2609 3566 1747 
Q 3566 888 3137 398 
Q 2709 -91 1959 -91 
Q 1206 -91 779 398 
Q 353 888 353 1747 
Q 353 2609 779 3096 
Q 1206 3584 1959 3584 
z
" transform="scale(0.015625)"/>
       <path id="DejaVuSans-77" d="M 269 3500 
L 844 3500 
L 1563 769 
L 2278 3500 
L 2956 3500 
L 3675 769 
L 4391 3500 
L 4966 3500 
L 4050 0 
L 3372 0 
L 2619 2869 
L 1863 0 
L 1184 0 
L 269 3500 
z
" transform="scale(0.015625)"/>
       <path id="DejaVuSans-73" d="M 2834 3397 
L 2834 2853 
Q 2591 2978 2328 3040 
Q 2066 3103 1784 3103 
Q 1356 3103 1142 2972 
Q 928 2841 928 2578 
Q 928 2378 1081 2264 
Q 1234 2150 1697 2047 
L 1894 2003 
Q 2506 1872 2764 1633 
Q 3022 1394 3022 966 
Q 3022 478 2636 193 
Q 2250 -91 1575 -91 
Q 1294 -91 989 -36 
Q 684 19 347 128 
L 347 722 
Q 666 556 975 473 
Q 1284 391 1588 391 
Q 1994 391 2212 530 
Q 2431 669 2431 922 
Q 2431 1156 2273 1281 
Q 2116 1406 1581 1522 
L 1381 1569 
Q 847 1681 609 1914 
Q 372 2147 372 2553 
Q 372 3047 722 3315 
Q 1072 3584 1716 3584 
Q 2034 3584 2315 3537 
Q 2597 3491 2834 3397 
z
" transform="scale(0.015625)"/>
       <path id="DejaVuSans-307" d="M -1894 4863 
L -1319 4863 
L -1319 4134 
L -1894 4134 
L -1894 4863 
z
M -1600 3584 
L -1600 3584 
z
" transform="scale(0.015625)"/>
       <path id="DejaVuSans-Oblique-3b3" d="M 1491 2950 
L 1838 788 
L 3456 3500 
L 4066 3500 
L 1972 0 
L 1713 -1331 
L 1138 -1331 
L 1397 0 
L 988 2613 
Q 925 3006 628 3006 
L 475 3006 
L 569 3500 
L 788 3500 
Q 1403 3500 1491 2950 
z
" transform="scale(0.015625)"/>
      </defs>
      <use xlink:href="#DejaVuSans-Oblique-3bc" transform="translate(0 0.828125)"/>
      <use xlink:href="#DejaVuSans-61" transform="translate(63.623047 -15.578125) scale(0.7)"/>
      <use xlink:href="#DejaVuSans-70" transform="translate(106.518555 -15.578125) scale(0.7)"/>
      <use xlink:href="#DejaVuSans-70" transform="translate(150.952148 -15.578125) scale(0.7)"/>
      <use xlink:href="#DejaVuSans-20" transform="translate(198.120117 0.828125)"/>
      <use xlink:href="#DejaVuSans-61" transform="translate(229.907227 0.828125)"/>
      <use xlink:href="#DejaVuSans-74" transform="translate(291.186523 0.828125)"/>
      <use xlink:href="#DejaVuSans-20" transform="translate(330.395508 0.828125)"/>
      <use xlink:href="#DejaVuSans-6c" transform="translate(362.182617 0.828125)"/>
      <use xlink:href="#DejaVuSans-6f" transform="translate(389.96582 0.828125)"/>
      <use xlink:href="#DejaVuSans-77" transform="translate(451.147461 0.828125)"/>
      <use xlink:href="#DejaVuSans-65" transform="translate(532.93457 0.828125)"/>
      <use xlink:href="#DejaVuSans-73" transform="translate(594.458008 0.828125)"/>
      <use xlink:href="#DejaVuSans-74" transform="translate(646.557617 0.828125)"/>
      <use xlink:href="#DejaVuSans-20" transform="translate(685.766602 0.828125)"/>
      <use xlink:href="#DejaVuSans-307" transform="translate(778.170898 12.015625)"/>
      <use xlink:href="#DejaVuSans-Oblique-3b3" transform="translate(717.553711 0.828125)"/>
      <use xlink:href="#DejaVuSans-20" transform="translate(776.733398 0.828125)"/>
      <use xlink:href="#DejaVuSans-20" transform="translate(808.520508 0.828125)"/>
      <use xlink:href="#DejaVuSans-28" transform="translate(840.307617 0.828125)"/>
      <use xlink:href="#DejaVuSans-63" transform="translate(879.321289 0.828125)"/>
      <use xlink:href="#DejaVuSans-50" transform="translate(934.301758 0.828125)"/>
      <use xlink:href="#DejaVuSans-29" transform="translate(994.604492 0.828125)"/>
     </g>
    </g>
   </g>
   <g id="line2d_129">
    <path d="M 68.484078 294.126319 
L 74.559212 289.359151 
L 80.634346 284.591983 
L 86.70948 279.824814 
L 92.784613 275.057646 
L 98.859747 270.290478 
L 104.934881 265.523309 
L 111.010015 260.756141 
L 117.085149 255.988973 
L 123.160283 251.221805 
L 129.235417 246.454636 
L 135.310551 241.687468 
L 141.385684 236.9203 
L 147.460818 232.153131 
L 153.535952 227.385963 
L 159.611086 222.618795 
L 165.68622 217.851627 
L 171.761354 213.084458 
L 177.836488 208.31729 
L 183.911621 203.550122 
L 189.986755 198.782953 
L 196.061889 194.015785 
L 202.137023 189.248617 
L 208.212157 184.481448 
L 214.287291 179.71428 
L 220.362425 174.947112 
L 226.437559 170.179944 
L 232.512692 165.412775 
L 238.587826 160.645607 
L 244.66296 155.878439 
L 250.738094 151.11127 
L 256.813228 146.344102 
L 262.888362 141.576934 
L 268.963496 136.809766 
L 275.038629 132.042597 
L 281.113763 127.275429 
L 287.188897 122.508261 
L 293.264031 117.741092 
L 299.339165 112.973924 
L 305.414299 108.206756 
L 311.489433 103.439587 
L 317.564567 98.672419 
L 323.6397 93.905251 
L 329.714834 89.138083 
L 335.789968 84.370914 
L 341.865102 79.603746 
L 347.940236 74.836578 
L 354.01537 70.069409 
L 360.090504 65.302241 
L 366.165637 60.535073 
" clip-path="url(#pc37c3bef06)" style="fill: none; stroke-dasharray: 3.7,1.6; stroke-dashoffset: 0; stroke: #000000"/>
   </g>
   <g id="line2d_130">
    <path d="M 68.484078 270.69219 
L 74.559212 265.925022 
L 80.634346 261.157854 
L 86.70948 256.390686 
L 92.784613 251.623517 
L 98.859747 246.856349 
L 104.934881 242.089181 
L 111.010015 237.322012 
L 117.085149 232.554844 
L 123.160283 227.787676 
L 129.235417 223.020507 
L 135.310551 218.253339 
L 141.385684 213.486171 
L 147.460818 208.719003 
L 153.535952 203.951834 
L 159.611086 199.184666 
L 165.68622 194.417498 
L 171.761354 189.650329 
L 177.836488 184.883161 
L 183.911621 180.115993 
L 189.986755 175.348825 
L 196.061889 170.581656 
L 202.137023 165.814488 
L 208.212157 161.04732 
L 214.287291 156.280151 
L 220.362425 151.512983 
L 226.437559 146.745815 
L 232.512692 141.978646 
L 238.587826 137.211478 
L 244.66296 132.44431 
L 250.738094 127.677142 
L 256.813228 122.909973 
L 262.888362 118.142805 
L 268.963496 113.375637 
L 275.038629 108.608468 
L 281.113763 103.8413 
L 287.188897 99.074132 
L 293.264031 94.306964 
L 299.339165 89.539795 
L 305.414299 84.772627 
L 311.489433 80.005459 
L 317.564567 75.23829 
L 323.6397 70.471122 
L 329.714834 65.703954 
L 335.789968 60.936785 
L 341.865102 56.169617 
L 347.940236 51.402449 
L 354.01537 46.635281 
L 360.090504 41.868112 
L 366.165637 37.100944 
" clip-path="url(#pc37c3bef06)" style="fill: none; stroke-dasharray: 0.7,1.155; stroke-dashoffset: 0; stroke: #000000; stroke-opacity: 0.5; stroke-width: 0.7"/>
   </g>
   <g id="line2d_131">
    <path d="M 68.484078 317.560448 
L 74.559212 312.79328 
L 80.634346 308.026111 
L 86.70948 303.258943 
L 92.784613 298.491775 
L 98.859747 293.724607 
L 104.934881 288.957438 
L 111.010015 284.19027 
L 117.085149 279.423102 
L 123.160283 274.655933 
L 129.235417 269.888765 
L 135.310551 265.121597 
L 141.385684 260.354429 
L 147.460818 255.58726 
L 153.535952 250.820092 
L 159.611086 246.052924 
L 165.68622 241.285755 
L 171.761354 236.518587 
L 177.836488 231.751419 
L 183.911621 226.98425 
L 189.986755 222.217082 
L 196.061889 217.449914 
L 202.137023 212.682746 
L 208.212157 207.915577 
L 214.287291 203.148409 
L 220.362425 198.381241 
L 226.437559 193.614072 
L 232.512692 188.846904 
L 238.587826 184.079736 
L 244.66296 179.312568 
L 250.738094 174.545399 
L 256.813228 169.778231 
L 262.888362 165.011063 
L 268.963496 160.243894 
L 275.038629 155.476726 
L 281.113763 150.709558 
L 287.188897 145.942389 
L 293.264031 141.175221 
L 299.339165 136.408053 
L 305.414299 131.640885 
L 311.489433 126.873716 
L 317.564567 122.106548 
L 323.6397 117.33938 
L 329.714834 112.572211 
L 335.789968 107.805043 
L 341.865102 103.037875 
L 347.940236 98.270706 
L 354.01537 93.503538 
L 360.090504 88.73637 
L 366.165637 83.969202 
" clip-path="url(#pc37c3bef06)" style="fill: none; stroke-dasharray: 0.7,1.155; stroke-dashoffset: 0; stroke: #000000; stroke-opacity: 0.5; stroke-width: 0.7"/>
   </g>
   <g id="patch_3">
    <path d="M 53.6 331.583423 
L 53.6 23.077969 
" style="fill: none; stroke: #000000; stroke-width: 0.8; stroke-linejoin: miter; stroke-linecap: square"/>
   </g>
   <g id="patch_4">
    <path d="M 381.049715 331.583423 
L 381.049715 23.077969 
" style="fill: none; stroke: #000000; stroke-width: 0.8; stroke-linejoin: miter; stroke-linecap: square"/>
   </g>
   <g id="patch_5">
    <path d="M 53.6 331.583423 
L 381.049715 331.583423 
" style="fill: none; stroke: #000000; stroke-width: 0.8; stroke-linejoin: miter; stroke-linecap: square"/>
   </g>
   <g id="patch_6">
    <path d="M 53.6 23.077969 
L 381.049715 23.077969 
" style="fill: none; stroke: #000000; stroke-width: 0.8; stroke-linejoin: miter; stroke-linecap: square"/>
   </g>
   <g id="text_10">
    <!-- §14.5d  Parity at lowest measured shear rate -->
    <g transform="translate(71.132748 17.077969) scale(0.13 -0.13)">
     <defs>
      <path id="DejaVuSans-a7" d="M 1184 2925 
Q 988 2781 891 2640 
Q 794 2500 794 2356 
Q 794 2119 1011 1911 
Q 1228 1703 2009 1281 
Q 2206 1422 2303 1564 
Q 2400 1706 2400 1850 
Q 2400 2084 2176 2296 
Q 1953 2509 1184 2925 
z
M 2591 4569 
L 2591 4056 
Q 2331 4178 2107 4239 
Q 1884 4300 1709 4300 
Q 1406 4300 1237 4175 
Q 1069 4050 1069 3828 
Q 1069 3547 1713 3188 
Q 1794 3141 1838 3116 
Q 2497 2744 2701 2503 
Q 2906 2263 2906 1947 
Q 2906 1666 2762 1447 
Q 2619 1228 2328 1063 
Q 2522 900 2611 729 
Q 2700 559 2700 359 
Q 2700 -84 2381 -346 
Q 2063 -609 1522 -609 
Q 1294 -609 1053 -564 
Q 813 -519 538 -428 
L 538 84 
Q 809 -38 1040 -98 
Q 1272 -159 1453 -159 
Q 1772 -159 1948 -28 
Q 2125 103 2125 341 
Q 2125 659 1434 1044 
L 1356 1088 
Q 688 1463 488 1702 
Q 288 1941 288 2259 
Q 288 2544 433 2767 
Q 578 2991 863 3144 
Q 678 3281 586 3456 
Q 494 3631 494 3847 
Q 494 4253 806 4501 
Q 1119 4750 1638 4750 
Q 1866 4750 2105 4704 
Q 2344 4659 2591 4569 
z
" transform="scale(0.015625)"/>
      <path id="DejaVuSans-2e" d="M 684 794 
L 1344 794 
L 1344 0 
L 684 0 
L 684 794 
z
" transform="scale(0.015625)"/>
      <path id="DejaVuSans-69" d="M 603 3500 
L 1178 3500 
L 1178 0 
L 603 0 
L 603 3500 
z
M 603 4863 
L 1178 4863 
L 1178 4134 
L 603 4134 
L 603 4863 
z
" transform="scale(0.015625)"/>
      <path id="DejaVuSans-79" d="M 2059 -325 
Q 1816 -950 1584 -1140 
Q 1353 -1331 966 -1331 
L 506 -1331 
L 506 -850 
L 844 -850 
Q 1081 -850 1212 -737 
Q 1344 -625 1503 -206 
L 1606 56 
L 191 3500 
L 800 3500 
L 1894 763 
L 2988 3500 
L 3597 3500 
L 2059 -325 
z
" transform="scale(0.015625)"/>
      <path id="DejaVuSans-6d" d="M 3328 2828 
Q 3544 3216 3844 3400 
Q 4144 3584 4550 3584 
Q 5097 3584 5394 3201 
Q 5691 2819 5691 2113 
L 5691 0 
L 5113 0 
L 5113 2094 
Q 5113 2597 4934 2840 
Q 4756 3084 4391 3084 
Q 3944 3084 3684 2787 
Q 3425 2491 3425 1978 
L 3425 0 
L 2847 0 
L 2847 2094 
Q 2847 2600 2669 2842 
Q 2491 3084 2119 3084 
Q 1678 3084 1418 2786 
Q 1159 2488 1159 1978 
L 1159 0 
L 581 0 
L 581 3500 
L 1159 3500 
L 1159 2956 
Q 1356 3278 1631 3431 
Q 1906 3584 2284 3584 
Q 2666 3584 2933 3390 
Q 3200 3197 3328 2828 
z
" transform="scale(0.015625)"/>
      <path id="DejaVuSans-68" d="M 3513 2113 
L 3513 0 
L 2938 0 
L 2938 2094 
Q 2938 2591 2744 2837 
Q 2550 3084 2163 3084 
Q 1697 3084 1428 2787 
Q 1159 2491 1159 1978 
L 1159 0 
L 581 0 
L 581 4863 
L 1159 4863 
L 1159 2956 
Q 1366 3272 1645 3428 
Q 1925 3584 2291 3584 
Q 2894 3584 3203 3211 
Q 3513 2838 3513 2113 
z
" transform="scale(0.015625)"/>
     </defs>
     <use xlink:href="#DejaVuSans-a7"/>
     <use xlink:href="#DejaVuSans-31" transform="translate(50 0)"/>
     <use xlink:href="#DejaVuSans-34" transform="translate(113.623047 0)"/>
     <use xlink:href="#DejaVuSans-2e" transform="translate(177.246094 0)"/>
     <use xlink:href="#DejaVuSans-35" transform="translate(209.033203 0)"/>
     <use xlink:href="#DejaVuSans-64" transform="translate(272.65625 0)"/>
     <use xlink:href="#DejaVuSans-20" transform="translate(336.132812 0)"/>
     <use xlink:href="#DejaVuSans-20" transform="translate(367.919922 0)"/>
     <use xlink:href="#DejaVuSans-50" transform="translate(399.707031 0)"/>
     <use xlink:href="#DejaVuSans-61" transform="translate(455.509766 0)"/>
     <use xlink:href="#DejaVuSans-72" transform="translate(516.789062 0)"/>
     <use xlink:href="#DejaVuSans-69" transform="translate(557.902344 0)"/>
     <use xlink:href="#DejaVuSans-74" transform="translate(585.685547 0)"/>
     <use xlink:href="#DejaVuSans-79" transform="translate(624.894531 0)"/>
     <use xlink:href="#DejaVuSans-20" transform="translate(684.074219 0)"/>
     <use xlink:href="#DejaVuSans-61" transform="translate(715.861328 0)"/>
     <use xlink:href="#DejaVuSans-74" transform="translate(777.140625 0)"/>
     <use xlink:href="#DejaVuSans-20" transform="translate(816.349609 0)"/>
     <use xlink:href="#DejaVuSans-6c" transform="translate(848.136719 0)"/>
     <use xlink:href="#DejaVuSans-6f" transform="translate(875.919922 0)"/>
     <use xlink:href="#DejaVuSans-77" transform="translate(937.101562 0)"/>
     <use xlink:href="#DejaVuSans-65" transform="translate(1018.888672 0)"/>
     <use xlink:href="#DejaVuSans-73" transform="translate(1080.412109 0)"/>
     <use xlink:href="#DejaVuSans-74" transform="translate(1132.511719 0)"/>
     <use xlink:href="#DejaVuSans-20" transform="translate(1171.720703 0)"/>
     <use xlink:href="#DejaVuSans-6d" transform="translate(1203.507812 0)"/>
     <use xlink:href="#DejaVuSans-65" transform="translate(1300.919922 0)"/>
     <use xlink:href="#DejaVuSans-61" transform="translate(1362.443359 0)"/>
     <use xlink:href="#DejaVuSans-73" transform="translate(1423.722656 0)"/>
     <use xlink:href="#DejaVuSans-75" transform="translate(1475.822266 0)"/>
     <use xlink:href="#DejaVuSans-72" transform="translate(1539.201172 0)"/>
     <use xlink:href="#DejaVuSans-65" transform="translate(1578.064453 0)"/>
     <use xlink:href="#DejaVuSans-64" transform="translate(1639.587891 0)"/>
     <use xlink:href="#DejaVuSans-20" transform="translate(1703.064453 0)"/>
     <use xlink:href="#DejaVuSans-73" transform="translate(1734.851562 0)"/>
     <use xlink:href="#DejaVuSans-68" transform="translate(1786.951172 0)"/>
     <use xlink:href="#DejaVuSans-65" transform="translate(1850.330078 0)"/>
     <use xlink:href="#DejaVuSans-61" transform="translate(1911.853516 0)"/>
     <use xlink:href="#DejaVuSans-72" transform="translate(1973.132812 0)"/>
     <use xlink:href="#DejaVuSans-20" transform="translate(2014.246094 0)"/>
     <use xlink:href="#DejaVuSans-72" transform="translate(2046.033203 0)"/>
     <use xlink:href="#DejaVuSans-61" transform="translate(2087.146484 0)"/>
     <use xlink:href="#DejaVuSans-74" transform="translate(2148.425781 0)"/>
     <use xlink:href="#DejaVuSans-65" transform="translate(2187.634766 0)"/>
    </g>
   </g>
   <g id="legend_1">
    <g id="PathCollection_12">
     <g>
      <use xlink:href="#m052d1053a6" x="66.9" y="32.859375" style="fill: #7570b3; stroke: #000000; stroke-width: 0.6"/>
     </g>
    </g>
    <g id="text_11">
     <!-- PEG-300K 10% -->
     <g transform="translate(79.5 34.696875) scale(0.07 -0.07)">
      <defs>
       <path id="DejaVuSans-45" d="M 628 4666 
L 3578 4666 
L 3578 4134 
L 1259 4134 
L 1259 2753 
L 3481 2753 
L 3481 2222 
L 1259 2222 
L 1259 531 
L 3634 531 
L 3634 0 
L 628 0 
L 628 4666 
z
" transform="scale(0.015625)"/>
       <path id="DejaVuSans-47" d="M 3809 666 
L 3809 1919 
L 2778 1919 
L 2778 2438 
L 4434 2438 
L 4434 434 
Q 4069 175 3628 42 
Q 3188 -91 2688 -91 
Q 1594 -91 976 548 
Q 359 1188 359 2328 
Q 359 3472 976 4111 
Q 1594 4750 2688 4750 
Q 3144 4750 3555 4637 
Q 3966 4525 4313 4306 
L 4313 3634 
Q 3963 3931 3569 4081 
Q 3175 4231 2741 4231 
Q 1884 4231 1454 3753 
Q 1025 3275 1025 2328 
Q 1025 1384 1454 906 
Q 1884 428 2741 428 
Q 3075 428 3337 486 
Q 3600 544 3809 666 
z
" transform="scale(0.015625)"/>
       <path id="DejaVuSans-2d" d="M 313 2009 
L 1997 2009 
L 1997 1497 
L 313 1497 
L 313 2009 
z
" transform="scale(0.015625)"/>
       <path id="DejaVuSans-4b" d="M 628 4666 
L 1259 4666 
L 1259 2694 
L 3353 4666 
L 4166 4666 
L 1850 2491 
L 4331 0 
L 3500 0 
L 1259 2247 
L 1259 0 
L 628 0 
L 628 4666 
z
" transform="scale(0.015625)"/>
       <path id="DejaVuSans-25" d="M 4653 2053 
Q 4381 2053 4226 1822 
Q 4072 1591 4072 1178 
Q 4072 772 4226 539 
Q 4381 306 4653 306 
Q 4919 306 5073 539 
Q 5228 772 5228 1178 
Q 5228 1588 5073 1820 
Q 4919 2053 4653 2053 
z
M 4653 2450 
Q 5147 2450 5437 2106 
Q 5728 1763 5728 1178 
Q 5728 594 5436 251 
Q 5144 -91 4653 -91 
Q 4153 -91 3862 251 
Q 3572 594 3572 1178 
Q 3572 1766 3864 2108 
Q 4156 2450 4653 2450 
z
M 1428 4353 
Q 1159 4353 1004 4120 
Q 850 3888 850 3481 
Q 850 3069 1003 2837 
Q 1156 2606 1428 2606 
Q 1700 2606 1854 2837 
Q 2009 3069 2009 3481 
Q 2009 3884 1853 4118 
Q 1697 4353 1428 4353 
z
M 4250 4750 
L 4750 4750 
L 1831 -91 
L 1331 -91 
L 4250 4750 
z
M 1428 4750 
Q 1922 4750 2215 4408 
Q 2509 4066 2509 3481 
Q 2509 2891 2217 2550 
Q 1925 2209 1428 2209 
Q 931 2209 642 2551 
Q 353 2894 353 3481 
Q 353 4063 643 4406 
Q 934 4750 1428 4750 
z
" transform="scale(0.015625)"/>
      </defs>
      <use xlink:href="#DejaVuSans-50"/>
      <use xlink:href="#DejaVuSans-45" transform="translate(60.302734 0)"/>
      <use xlink:href="#DejaVuSans-47" transform="translate(123.486328 0)"/>
      <use xlink:href="#DejaVuSans-2d" transform="translate(200.976562 0)"/>
      <use xlink:href="#DejaVuSans-33" transform="translate(237.060547 0)"/>
      <use xlink:href="#DejaVuSans-30" transform="translate(300.683594 0)"/>
      <use xlink:href="#DejaVuSans-30" transform="translate(364.306641 0)"/>
      <use xlink:href="#DejaVuSans-4b" transform="translate(427.929688 0)"/>
      <use xlink:href="#DejaVuSans-20" transform="translate(493.505859 0)"/>
      <use xlink:href="#DejaVuSans-31" transform="translate(525.292969 0)"/>
      <use xlink:href="#DejaVuSans-30" transform="translate(588.916016 0)"/>
      <use xlink:href="#DejaVuSans-25" transform="translate(652.539062 0)"/>
     </g>
    </g>
    <g id="PathCollection_13">
     <g>
      <use xlink:href="#m052d1053a6" x="66.9" y="43.134062" style="fill: #7570b3; stroke: #000000; stroke-width: 0.6"/>
     </g>
    </g>
    <g id="text_12">
     <!-- PEG-300K 5% -->
     <g transform="translate(79.5 44.971562) scale(0.07 -0.07)">
      <use xlink:href="#DejaVuSans-50"/>
      <use xlink:href="#DejaVuSans-45" transform="translate(60.302734 0)"/>
      <use xlink:href="#DejaVuSans-47" transform="translate(123.486328 0)"/>
      <use xlink:href="#DejaVuSans-2d" transform="translate(200.976562 0)"/>
      <use xlink:href="#DejaVuSans-33" transform="translate(237.060547 0)"/>
      <use xlink:href="#DejaVuSans-30" transform="translate(300.683594 0)"/>
      <use xlink:href="#DejaVuSans-30" transform="translate(364.306641 0)"/>
      <use xlink:href="#DejaVuSans-4b" transform="translate(427.929688 0)"/>
      <use xlink:href="#DejaVuSans-20" transform="translate(493.505859 0)"/>
      <use xlink:href="#DejaVuSans-35" transform="translate(525.292969 0)"/>
      <use xlink:href="#DejaVuSans-25" transform="translate(588.916016 0)"/>
     </g>
    </g>
    <g id="PathCollection_14">
     <g>
      <use xlink:href="#m7e69567f2c" x="66.9" y="53.40875" style="fill: #e6ab02; stroke: #000000; stroke-width: 0.6"/>
     </g>
    </g>
    <g id="text_13">
     <!-- PEG-600K 10% -->
     <g transform="translate(79.5 55.24625) scale(0.07 -0.07)">
      <defs>
       <path id="DejaVuSans-36" d="M 2113 2584 
Q 1688 2584 1439 2293 
Q 1191 2003 1191 1497 
Q 1191 994 1439 701 
Q 1688 409 2113 409 
Q 2538 409 2786 701 
Q 3034 994 3034 1497 
Q 3034 2003 2786 2293 
Q 2538 2584 2113 2584 
z
M 3366 4563 
L 3366 3988 
Q 3128 4100 2886 4159 
Q 2644 4219 2406 4219 
Q 1781 4219 1451 3797 
Q 1122 3375 1075 2522 
Q 1259 2794 1537 2939 
Q 1816 3084 2150 3084 
Q 2853 3084 3261 2657 
Q 3669 2231 3669 1497 
Q 3669 778 3244 343 
Q 2819 -91 2113 -91 
Q 1303 -91 875 529 
Q 447 1150 447 2328 
Q 447 3434 972 4092 
Q 1497 4750 2381 4750 
Q 2619 4750 2861 4703 
Q 3103 4656 3366 4563 
z
" transform="scale(0.015625)"/>
      </defs>
      <use xlink:href="#DejaVuSans-50"/>
      <use xlink:href="#DejaVuSans-45" transform="translate(60.302734 0)"/>
      <use xlink:href="#DejaVuSans-47" transform="translate(123.486328 0)"/>
      <use xlink:href="#DejaVuSans-2d" transform="translate(200.976562 0)"/>
      <use xlink:href="#DejaVuSans-36" transform="translate(237.060547 0)"/>
      <use xlink:href="#DejaVuSans-30" transform="translate(300.683594 0)"/>
      <use xlink:href="#DejaVuSans-30" transform="translate(364.306641 0)"/>
      <use xlink:href="#DejaVuSans-4b" transform="translate(427.929688 0)"/>
      <use xlink:href="#DejaVuSans-20" transform="translate(493.505859 0)"/>
      <use xlink:href="#DejaVuSans-31" transform="translate(525.292969 0)"/>
      <use xlink:href="#DejaVuSans-30" transform="translate(588.916016 0)"/>
      <use xlink:href="#DejaVuSans-25" transform="translate(652.539062 0)"/>
     </g>
    </g>
    <g id="PathCollection_15">
     <g>
      <use xlink:href="#m7e69567f2c" x="66.9" y="63.683438" style="fill: #e6ab02; stroke: #000000; stroke-width: 0.6"/>
     </g>
    </g>
    <g id="text_14">
     <!-- PEG-600K 5% -->
     <g transform="translate(79.5 65.520938) scale(0.07 -0.07)">
      <use xlink:href="#DejaVuSans-50"/>
      <use xlink:href="#DejaVuSans-45" transform="translate(60.302734 0)"/>
      <use xlink:href="#DejaVuSans-47" transform="translate(123.486328 0)"/>
      <use xlink:href="#DejaVuSans-2d" transform="translate(200.976562 0)"/>
      <use xlink:href="#DejaVuSans-36" transform="translate(237.060547 0)"/>
      <use xlink:href="#DejaVuSans-30" transform="translate(300.683594 0)"/>
      <use xlink:href="#DejaVuSans-30" transform="translate(364.306641 0)"/>
      <use xlink:href="#DejaVuSans-4b" transform="translate(427.929688 0)"/>
      <use xlink:href="#DejaVuSans-20" transform="translate(493.505859 0)"/>
      <use xlink:href="#DejaVuSans-35" transform="translate(525.292969 0)"/>
      <use xlink:href="#DejaVuSans-25" transform="translate(588.916016 0)"/>
     </g>
    </g>
    <g id="PathCollection_16">
     <g>
      <use xlink:href="#m7e69567f2c" x="66.9" y="73.958125" style="fill: #e6ab02; stroke: #000000; stroke-width: 0.6"/>
     </g>
    </g>
    <g id="text_15">
     <!-- PEG-600K 6.5% -->
     <g transform="translate(79.5 75.795625) scale(0.07 -0.07)">
      <use xlink:href="#DejaVuSans-50"/>
      <use xlink:href="#DejaVuSans-45" transform="translate(60.302734 0)"/>
      <use xlink:href="#DejaVuSans-47" transform="translate(123.486328 0)"/>
      <use xlink:href="#DejaVuSans-2d" transform="translate(200.976562 0)"/>
      <use xlink:href="#DejaVuSans-36" transform="translate(237.060547 0)"/>
      <use xlink:href="#DejaVuSans-30" transform="translate(300.683594 0)"/>
      <use xlink:href="#DejaVuSans-30" transform="translate(364.306641 0)"/>
      <use xlink:href="#DejaVuSans-4b" transform="translate(427.929688 0)"/>
      <use xlink:href="#DejaVuSans-20" transform="translate(493.505859 0)"/>
      <use xlink:href="#DejaVuSans-36" transform="translate(525.292969 0)"/>
      <use xlink:href="#DejaVuSans-2e" transform="translate(588.916016 0)"/>
      <use xlink:href="#DejaVuSans-35" transform="translate(620.703125 0)"/>
      <use xlink:href="#DejaVuSans-25" transform="translate(684.326172 0)"/>
     </g>
    </g>
    <g id="PathCollection_17">
     <g>
      <use xlink:href="#m901d1a34a4" x="66.9" y="84.232812" style="fill: #d95f02; stroke: #000000; stroke-width: 0.6"/>
     </g>
    </g>
    <g id="text_16">
     <!-- Sepineo 1% -->
     <g transform="translate(79.5 86.070312) scale(0.07 -0.07)">
      <defs>
       <path id="DejaVuSans-53" d="M 3425 4513 
L 3425 3897 
Q 3066 4069 2747 4153 
Q 2428 4238 2131 4238 
Q 1616 4238 1336 4038 
Q 1056 3838 1056 3469 
Q 1056 3159 1242 3001 
Q 1428 2844 1947 2747 
L 2328 2669 
Q 3034 2534 3370 2195 
Q 3706 1856 3706 1288 
Q 3706 609 3251 259 
Q 2797 -91 1919 -91 
Q 1588 -91 1214 -16 
Q 841 59 441 206 
L 441 856 
Q 825 641 1194 531 
Q 1563 422 1919 422 
Q 2459 422 2753 634 
Q 3047 847 3047 1241 
Q 3047 1584 2836 1778 
Q 2625 1972 2144 2069 
L 1759 2144 
Q 1053 2284 737 2584 
Q 422 2884 422 3419 
Q 422 4038 858 4394 
Q 1294 4750 2059 4750 
Q 2388 4750 2728 4690 
Q 3069 4631 3425 4513 
z
" transform="scale(0.015625)"/>
       <path id="DejaVuSans-6e" d="M 3513 2113 
L 3513 0 
L 2938 0 
L 2938 2094 
Q 2938 2591 2744 2837 
Q 2550 3084 2163 3084 
Q 1697 3084 1428 2787 
Q 1159 2491 1159 1978 
L 1159 0 
L 581 0 
L 581 3500 
L 1159 3500 
L 1159 2956 
Q 1366 3272 1645 3428 
Q 1925 3584 2291 3584 
Q 2894 3584 3203 3211 
Q 3513 2838 3513 2113 
z
" transform="scale(0.015625)"/>
      </defs>
      <use xlink:href="#DejaVuSans-53"/>
      <use xlink:href="#DejaVuSans-65" transform="translate(63.476562 0)"/>
      <use xlink:href="#DejaVuSans-70" transform="translate(125 0)"/>
      <use xlink:href="#DejaVuSans-69" transform="translate(188.476562 0)"/>
      <use xlink:href="#DejaVuSans-6e" transform="translate(216.259766 0)"/>
      <use xlink:href="#DejaVuSans-65" transform="translate(279.638672 0)"/>
      <use xlink:href="#DejaVuSans-6f" transform="translate(341.162109 0)"/>
      <use xlink:href="#DejaVuSans-20" transform="translate(402.34375 0)"/>
      <use xlink:href="#DejaVuSans-31" transform="translate(434.130859 0)"/>
      <use xlink:href="#DejaVuSans-25" transform="translate(497.753906 0)"/>
     </g>
    </g>
    <g id="PathCollection_18">
     <g>
      <use xlink:href="#m901d1a34a4" x="66.9" y="94.5075" style="fill: #d95f02; stroke: #000000; stroke-width: 0.6"/>
     </g>
    </g>
    <g id="text_17">
     <!-- Sepineo 1.5% -->
     <g transform="translate(79.5 96.345) scale(0.07 -0.07)">
      <use xlink:href="#DejaVuSans-53"/>
      <use xlink:href="#DejaVuSans-65" transform="translate(63.476562 0)"/>
      <use xlink:href="#DejaVuSans-70" transform="translate(125 0)"/>
      <use xlink:href="#DejaVuSans-69" transform="translate(188.476562 0)"/>
      <use xlink:href="#DejaVuSans-6e" transform="translate(216.259766 0)"/>
      <use xlink:href="#DejaVuSans-65" transform="translate(279.638672 0)"/>
      <use xlink:href="#DejaVuSans-6f" transform="translate(341.162109 0)"/>
      <use xlink:href="#DejaVuSans-20" transform="translate(402.34375 0)"/>
      <use xlink:href="#DejaVuSans-31" transform="translate(434.130859 0)"/>
      <use xlink:href="#DejaVuSans-2e" transform="translate(497.753906 0)"/>
      <use xlink:href="#DejaVuSans-35" transform="translate(529.541016 0)"/>
      <use xlink:href="#DejaVuSans-25" transform="translate(593.164062 0)"/>
     </g>
    </g>
    <g id="PathCollection_19">
     <g>
      <use xlink:href="#m901d1a34a4" x="66.9" y="104.782187" style="fill: #d95f02; stroke: #000000; stroke-width: 0.6"/>
     </g>
    </g>
    <g id="text_18">
     <!-- Sepineo 2% -->
     <g transform="translate(79.5 106.619687) scale(0.07 -0.07)">
      <use xlink:href="#DejaVuSans-53"/>
      <use xlink:href="#DejaVuSans-65" transform="translate(63.476562 0)"/>
      <use xlink:href="#DejaVuSans-70" transform="translate(125 0)"/>
      <use xlink:href="#DejaVuSans-69" transform="translate(188.476562 0)"/>
      <use xlink:href="#DejaVuSans-6e" transform="translate(216.259766 0)"/>
      <use xlink:href="#DejaVuSans-65" transform="translate(279.638672 0)"/>
      <use xlink:href="#DejaVuSans-6f" transform="translate(341.162109 0)"/>
      <use xlink:href="#DejaVuSans-20" transform="translate(402.34375 0)"/>
      <use xlink:href="#DejaVuSans-32" transform="translate(434.130859 0)"/>
      <use xlink:href="#DejaVuSans-25" transform="translate(497.753906 0)"/>
     </g>
    </g>
    <g id="PathCollection_20">
     <g>
      <use xlink:href="#m55404ce487" x="66.9" y="115.056875" style="fill: #66a61e; stroke: #000000; stroke-width: 0.6"/>
     </g>
    </g>
    <g id="text_19">
     <!-- Solagum 1% -->
     <g transform="translate(79.5 116.894375) scale(0.07 -0.07)">
      <defs>
       <path id="DejaVuSans-67" d="M 2906 1791 
Q 2906 2416 2648 2759 
Q 2391 3103 1925 3103 
Q 1463 3103 1205 2759 
Q 947 2416 947 1791 
Q 947 1169 1205 825 
Q 1463 481 1925 481 
Q 2391 481 2648 825 
Q 2906 1169 2906 1791 
z
M 3481 434 
Q 3481 -459 3084 -895 
Q 2688 -1331 1869 -1331 
Q 1566 -1331 1297 -1286 
Q 1028 -1241 775 -1147 
L 775 -588 
Q 1028 -725 1275 -790 
Q 1522 -856 1778 -856 
Q 2344 -856 2625 -561 
Q 2906 -266 2906 331 
L 2906 616 
Q 2728 306 2450 153 
Q 2172 0 1784 0 
Q 1141 0 747 490 
Q 353 981 353 1791 
Q 353 2603 747 3093 
Q 1141 3584 1784 3584 
Q 2172 3584 2450 3431 
Q 2728 3278 2906 2969 
L 2906 3500 
L 3481 3500 
L 3481 434 
z
" transform="scale(0.015625)"/>
      </defs>
      <use xlink:href="#DejaVuSans-53"/>
      <use xlink:href="#DejaVuSans-6f" transform="translate(63.476562 0)"/>
      <use xlink:href="#DejaVuSans-6c" transform="translate(124.658203 0)"/>
      <use xlink:href="#DejaVuSans-61" transform="translate(152.441406 0)"/>
      <use xlink:href="#DejaVuSans-67" transform="translate(213.720703 0)"/>
      <use xlink:href="#DejaVuSans-75" transform="translate(277.197266 0)"/>
      <use xlink:href="#DejaVuSans-6d" transform="translate(340.576172 0)"/>
      <use xlink:href="#DejaVuSans-20" transform="translate(437.988281 0)"/>
      <use xlink:href="#DejaVuSans-31" transform="translate(469.775391 0)"/>
      <use xlink:href="#DejaVuSans-25" transform="translate(533.398438 0)"/>
     </g>
    </g>
    <g id="PathCollection_21">
     <g>
      <use xlink:href="#m55404ce487" x="66.9" y="125.331562" style="fill: #66a61e; stroke: #000000; stroke-width: 0.6"/>
     </g>
    </g>
    <g id="text_20">
     <!-- Solagum 2% -->
     <g transform="translate(79.5 127.169062) scale(0.07 -0.07)">
      <use xlink:href="#DejaVuSans-53"/>
      <use xlink:href="#DejaVuSans-6f" transform="translate(63.476562 0)"/>
      <use xlink:href="#DejaVuSans-6c" transform="translate(124.658203 0)"/>
      <use xlink:href="#DejaVuSans-61" transform="translate(152.441406 0)"/>
      <use xlink:href="#DejaVuSans-67" transform="translate(213.720703 0)"/>
      <use xlink:href="#DejaVuSans-75" transform="translate(277.197266 0)"/>
      <use xlink:href="#DejaVuSans-6d" transform="translate(340.576172 0)"/>
      <use xlink:href="#DejaVuSans-20" transform="translate(437.988281 0)"/>
      <use xlink:href="#DejaVuSans-32" transform="translate(469.775391 0)"/>
      <use xlink:href="#DejaVuSans-25" transform="translate(533.398438 0)"/>
     </g>
    </g>
    <g id="PathCollection_22">
     <g>
      <use xlink:href="#m55404ce487" x="66.9" y="135.60625" style="fill: #66a61e; stroke: #000000; stroke-width: 0.6"/>
     </g>
    </g>
    <g id="text_21">
     <!-- Solagum 3% -->
     <g transform="translate(79.5 137.44375) scale(0.07 -0.07)">
      <use xlink:href="#DejaVuSans-53"/>
      <use xlink:href="#DejaVuSans-6f" transform="translate(63.476562 0)"/>
      <use xlink:href="#DejaVuSans-6c" transform="translate(124.658203 0)"/>
      <use xlink:href="#DejaVuSans-61" transform="translate(152.441406 0)"/>
      <use xlink:href="#DejaVuSans-67" transform="translate(213.720703 0)"/>
      <use xlink:href="#DejaVuSans-75" transform="translate(277.197266 0)"/>
      <use xlink:href="#DejaVuSans-6d" transform="translate(340.576172 0)"/>
      <use xlink:href="#DejaVuSans-20" transform="translate(437.988281 0)"/>
      <use xlink:href="#DejaVuSans-33" transform="translate(469.775391 0)"/>
      <use xlink:href="#DejaVuSans-25" transform="translate(533.398438 0)"/>
     </g>
    </g>
    <g id="line2d_132">
     <path d="M 59.9 145.268438 
L 66.9 145.268438 
L 73.9 145.268438 
" style="fill: none; stroke-dasharray: 3.7,1.6; stroke-dashoffset: 0; stroke: #000000"/>
    </g>
    <g id="text_22">
     <!-- parity -->
     <g transform="translate(79.5 147.718437) scale(0.07 -0.07)">
      <use xlink:href="#DejaVuSans-70"/>
      <use xlink:href="#DejaVuSans-61" transform="translate(63.476562 0)"/>
      <use xlink:href="#DejaVuSans-72" transform="translate(124.755859 0)"/>
      <use xlink:href="#DejaVuSans-69" transform="translate(165.869141 0)"/>
      <use xlink:href="#DejaVuSans-74" transform="translate(193.652344 0)"/>
      <use xlink:href="#DejaVuSans-79" transform="translate(232.861328 0)"/>
     </g>
    </g>
   </g>
  </g>
 </g>
 <defs>
  <clipPath id="pc37c3bef06">
   <rect x="53.6" y="23.077969" width="327.449715" height="308.505455"/>
  </clipPath>
 </defs>
</svg>
