<?xml version="1.0" ?>
<svg xmlns="http://www.w3.org/2000/svg" version="1.1" viewBox="0 0 516 387" width="516" height="387">
  <style>.chain{fill:none;stroke:#111;stroke-width:3.5;stroke-linecap:round;stroke-linejoin:round;}.bead{fill:#b9c7cb;stroke:#111;stroke-width:2;}.hatch{stroke:#4f5659;stroke-width:1.6;stroke-linecap:round;}.arrow{stroke:#111;stroke-width:3.5;fill:none;stroke-linecap:round;}.arrowhead{fill:#111;}</style>
  <g>
    <path class="chain" d="M 18 112 C 24.053333333333335 127.48 35.38666666666667 135.48 52 136 C 61.8 124.74666666666666 73.8 121.41333333333334 88 126 C 105.93333333333332 123.48 117.26666666666667 113.48 122 96 C 132.02666666666667 83.64 144.69333333333336 79.64 160 84 C 172.22666666666666 93.02666666666667 184.89333333333335 93.69333333333333 198 86 C 210.22666666666666 76.97333333333333 222.89333333333335 76.30666666666667 236 84 C 255.72 84.57333333333332 269.72 75.90666666666667 278 58"/>
    <circle class="bead" cx="58" cy="136" r="14"/>
    <g clip-path="url(#clip_tl_0)">
      <line class="hatch" x1="38" y1="122" x2="66" y2="150"/>
      <line class="hatch" x1="43" y1="122" x2="71" y2="150"/>
      <line class="hatch" x1="48" y1="122" x2="76" y2="150"/>
    </g>
    <circle class="bead" cx="116" cy="126" r="14"/>
    <g clip-path="url(#clip_tl_1)">
      <line class="hatch" x1="96" y1="112" x2="124" y2="140"/>
      <line class="hatch" x1="101" y1="112" x2="129" y2="140"/>
      <line class="hatch" x1="106" y1="112" x2="134" y2="140"/>
    </g>
    <circle class="bead" cx="168" cy="96" r="14"/>
    <g clip-path="url(#clip_tl_2)">
      <line class="hatch" x1="148" y1="82" x2="176" y2="110"/>
      <line class="hatch" x1="153" y1="82" x2="181" y2="110"/>
      <line class="hatch" x1="158" y1="82" x2="186" y2="110"/>
    </g>
    <circle class="bead" cx="226" cy="84" r="14"/>
    <g clip-path="url(#clip_tl_3)">
      <line class="hatch" x1="206" y1="70" x2="234" y2="98"/>
      <line class="hatch" x1="211" y1="70" x2="239" y2="98"/>
      <line class="hatch" x1="216" y1="70" x2="244" y2="98"/>
    </g>
    <path class="chain" d="M 224 153 C 236.17333333333335 150.50666666666666 243.50666666666666 143.17333333333335 246 131 C 259.5333333333333 126.85333333333334 270.8666666666667 130.18666666666667 280 141 C 285.6133333333333 157.14666666666665 296.94666666666666 165.81333333333333 314 167 C 320.72 151.08 332.72 143.08 350 143 C 362.0133333333333 153.8 375.3466666666667 155.8 390 149 C 400.25333333333333 135.53333333333333 413.5866666666667 130.86666666666665 430 135 C 438.7 147.92 450.7 152.92 466 150 C 470.7066666666667 138.28 479.37333333333333 132.28 492 132"/>
    <circle class="bead" cx="250" cy="137" r="14"/>
    <g clip-path="url(#clip_mr_0)">
      <line class="hatch" x1="230" y1="123" x2="258" y2="151"/>
      <line class="hatch" x1="235" y1="123" x2="263" y2="151"/>
      <line class="hatch" x1="240" y1="123" x2="268" y2="151"/>
    </g>
    <circle class="bead" cx="298" cy="145" r="14"/>
    <g clip-path="url(#clip_mr_1)">
      <line class="hatch" x1="278" y1="131" x2="306" y2="159"/>
      <line class="hatch" x1="283" y1="131" x2="311" y2="159"/>
      <line class="hatch" x1="288" y1="131" x2="316" y2="159"/>
    </g>
    <circle class="bead" cx="344" cy="170" r="14"/>
    <g clip-path="url(#clip_mr_2)">
      <line class="hatch" x1="324" y1="156" x2="352" y2="184"/>
      <line class="hatch" x1="329" y1="156" x2="357" y2="184"/>
      <line class="hatch" x1="334" y1="156" x2="362" y2="184"/>
    </g>
    <circle class="bead" cx="390" cy="150" r="14"/>
    <g clip-path="url(#clip_mr_3)">
      <line class="hatch" x1="370" y1="136" x2="398" y2="164"/>
      <line class="hatch" x1="375" y1="136" x2="403" y2="164"/>
      <line class="hatch" x1="380" y1="136" x2="408" y2="164"/>
    </g>
    <circle class="bead" cx="440" cy="144" r="14"/>
    <g clip-path="url(#clip_mr_4)">
      <line class="hatch" x1="420" y1="130" x2="448" y2="158"/>
      <line class="hatch" x1="425" y1="130" x2="453" y2="158"/>
      <line class="hatch" x1="430" y1="130" x2="458" y2="158"/>
    </g>
    <path class="chain" d="M 20 215 C 24.266666666666666 227.38666666666666 32.93333333333333 234.05333333333334 46 235 C 54.03333333333334 222.52 65.36666666666667 217.52 80 220 C 95.3 222.92 107.3 217.92 116 205 C 133.28666666666666 203.64 145.95333333333335 210.64 154 226 C 166.78 234.91333333333336 179.78 235.24666666666667 193 227 C 200.38 212.08 212.38 205.08 229 206 C 239.58666666666664 219.68666666666667 253.2533333333333 224.35333333333335 270 220"/>
    <circle class="bead" cx="94" cy="218" r="14"/>
    <g clip-path="url(#clip_ml_0)">
      <line class="hatch" x1="74" y1="204" x2="102" y2="232"/>
      <line class="hatch" x1="79" y1="204" x2="107" y2="232"/>
      <line class="hatch" x1="84" y1="204" x2="112" y2="232"/>
    </g>
    <circle class="bead" cx="136" cy="206" r="14"/>
    <g clip-path="url(#clip_ml_1)">
      <line class="hatch" x1="116" y1="192" x2="144" y2="220"/>
      <line class="hatch" x1="121" y1="192" x2="149" y2="220"/>
      <line class="hatch" x1="126" y1="192" x2="154" y2="220"/>
    </g>
    <circle class="bead" cx="190" cy="226" r="14"/>
    <g clip-path="url(#clip_ml_2)">
      <line class="hatch" x1="170" y1="212" x2="198" y2="240"/>
      <line class="hatch" x1="175" y1="212" x2="203" y2="240"/>
      <line class="hatch" x1="180" y1="212" x2="208" y2="240"/>
    </g>
    <circle class="bead" cx="236" cy="208" r="14"/>
    <g clip-path="url(#clip_ml_3)">
      <line class="hatch" x1="216" y1="194" x2="244" y2="222"/>
      <line class="hatch" x1="221" y1="194" x2="249" y2="222"/>
      <line class="hatch" x1="226" y1="194" x2="254" y2="222"/>
    </g>
    <path class="chain" d="M 63 300 C 69.04666666666667 314.04 79.71333333333332 321.04 95 321 C 102.25333333333333 309.5133333333333 112.58666666666667 304.8466666666667 126 307 C 143.93333333333334 304.48 155.26666666666665 294.48 160 277 C 167.82666666666665 261.3066666666667 180.49333333333334 253.9733333333333 198 255 C 205.38666666666666 271.36 218.05333333333334 279.36 236 279 C 253.08 274.4266666666667 267.08 279.0933333333333 278 293 C 296.2866666666667 295.02 309.9533333333333 288.02 319 272 C 335.31333333333333 265.54 349.6466666666667 268.54 362 281 C 378.96 283.58 391.96 277.58 401 263 C 412.1533333333333 246.54666666666668 427.4866666666667 240.21333333333334 447 244 C 453.37333333333333 256.82 463.7066666666667 262.82 478 262"/>
    <circle class="bead" cx="106" cy="314" r="14"/>
    <g clip-path="url(#clip_bc_0)">
      <line class="hatch" x1="86" y1="300" x2="114" y2="328"/>
      <line class="hatch" x1="91" y1="300" x2="119" y2="328"/>
      <line class="hatch" x1="96" y1="300" x2="124" y2="328"/>
    </g>
    <circle class="bead" cx="153" cy="280" r="14"/>
    <g clip-path="url(#clip_bc_1)">
      <line class="hatch" x1="133" y1="266" x2="161" y2="294"/>
      <line class="hatch" x1="138" y1="266" x2="166" y2="294"/>
      <line class="hatch" x1="143" y1="266" x2="171" y2="294"/>
    </g>
    <circle class="bead" cx="206" cy="260" r="14"/>
    <g clip-path="url(#clip_bc_2)">
      <line class="hatch" x1="186" y1="246" x2="214" y2="274"/>
      <line class="hatch" x1="191" y1="246" x2="219" y2="274"/>
      <line class="hatch" x1="196" y1="246" x2="224" y2="274"/>
    </g>
    <circle class="bead" cx="255" cy="281" r="14"/>
    <g clip-path="url(#clip_bc_3)">
      <line class="hatch" x1="235" y1="267" x2="263" y2="295"/>
      <line class="hatch" x1="240" y1="267" x2="268" y2="295"/>
      <line class="hatch" x1="245" y1="267" x2="273" y2="295"/>
    </g>
    <circle class="bead" cx="299" cy="286" r="14"/>
    <g clip-path="url(#clip_bc_4)">
      <line class="hatch" x1="279" y1="272" x2="307" y2="300"/>
      <line class="hatch" x1="284" y1="272" x2="312" y2="300"/>
      <line class="hatch" x1="289" y1="272" x2="317" y2="300"/>
    </g>
    <circle class="bead" cx="345" cy="273" r="14"/>
    <g clip-path="url(#clip_bc_5)">
      <line class="hatch" x1="325" y1="259" x2="353" y2="287"/>
      <line class="hatch" x1="330" y1="259" x2="358" y2="287"/>
      <line class="hatch" x1="335" y1="259" x2="363" y2="287"/>
    </g>
    <path class="chain" d="M 378 327 C 385.56666666666666 334.3866666666667 394.2333333333333 336.05333333333334 404 332 C 411.68666666666667 322.62 421.3533333333333 319.62 433 323 C 447.7266666666667 321.7133333333333 457.3933333333333 314.0466666666667 462 300 C 466.4866666666667 287.94666666666666 475.1533333333333 281.6133333333333 488 281"/>
  </g>
  <clipPath id="clip_tl_0">
    <circle cx="58" cy="136" r="14"/>
  </clipPath>
  <clipPath id="clip_tl_1">
    <circle cx="116" cy="126" r="14"/>
  </clipPath>
  <clipPath id="clip_tl_2">
    <circle cx="168" cy="96" r="14"/>
  </clipPath>
  <clipPath id="clip_tl_3">
    <circle cx="226" cy="84" r="14"/>
  </clipPath>
  <clipPath id="clip_mr_0">
    <circle cx="250" cy="137" r="14"/>
  </clipPath>
  <clipPath id="clip_mr_1">
    <circle cx="298" cy="145" r="14"/>
  </clipPath>
  <clipPath id="clip_mr_2">
    <circle cx="344" cy="170" r="14"/>
  </clipPath>
  <clipPath id="clip_mr_3">
    <circle cx="390" cy="150" r="14"/>
  </clipPath>
  <clipPath id="clip_mr_4">
    <circle cx="440" cy="144" r="14"/>
  </clipPath>
  <clipPath id="clip_ml_0">
    <circle cx="94" cy="218" r="14"/>
  </clipPath>
  <clipPath id="clip_ml_1">
    <circle cx="136" cy="206" r="14"/>
  </clipPath>
  <clipPath id="clip_ml_2">
    <circle cx="190" cy="226" r="14"/>
  </clipPath>
  <clipPath id="clip_ml_3">
    <circle cx="236" cy="208" r="14"/>
  </clipPath>
  <clipPath id="clip_bc_0">
    <circle cx="106" cy="314" r="14"/>
  </clipPath>
  <clipPath id="clip_bc_1">
    <circle cx="153" cy="280" r="14"/>
  </clipPath>
  <clipPath id="clip_bc_2">
    <circle cx="206" cy="260" r="14"/>
  </clipPath>
  <clipPath id="clip_bc_3">
    <circle cx="255" cy="281" r="14"/>
  </clipPath>
  <clipPath id="clip_bc_4">
    <circle cx="299" cy="286" r="14"/>
  </clipPath>
  <clipPath id="clip_bc_5">
    <circle cx="345" cy="273" r="14"/>
  </clipPath>
  <g>
    <line class="arrow" x1="130" y1="70" x2="278" y2="28"/>
    <polygon class="arrowhead" points="278,28 266.4428439773405,38.55614250888581 262.62079237929566,25.08796068720391"/>
    <line class="arrow" x1="128" y1="167" x2="250" y2="133"/>
    <polygon class="arrowhead" points="250,133 238.39312913091683,143.50145459583712 234.6347138018804,130.01537606223576"/>
    <line class="arrow" x1="416" y1="225" x2="340" y2="247"/>
    <polygon class="arrowhead" points="340,247 351.5014931660165,236.38323707752326 355.39430623759125,249.83113677932712"/>
    <line class="arrow" x1="130" y1="348" x2="237" y2="287"/>
    <polygon class="arrowhead" points="237,287 228.30445753272036,300.0148968954708 221.37075700325553,287.85250416345883"/>
    <line class="arrow" x1="390" y1="327" x2="470" y2="287"/>
    <polygon class="arrowhead" points="470,287 460.60851449450087,299.52198067399877 454.3475241575015,287.0"/>
  </g>
</svg>
