<?xml version="1.0" ?>
<svg xmlns="http://www.w3.org/2000/svg" version="1.1" viewBox="0 0 1120 387" width="1120" height="387">
  <rect x="0" y="0" width="1120" height="387" fill="#ffffff"/>
  <style>.edge{fill:none;stroke:#111;stroke-width:2.25;stroke-linecap:round;stroke-linejoin:round;opacity:0.95;}.node{stroke:#2f3a44;stroke-width:1.8;}</style>
  <g>
    <path class="edge" d="M 1102.74 254.31 C 1109.64 261.28 1111.00 269.19 1106.81 278.06"/>
    <path class="edge" d="M 896.01 86.89 C 911.83 99.74 927.69 99.79 943.59 87.02"/>
    <path class="edge" d="M -4.33 162.54 C 6.14 176.10 19.04 179.05 34.36 171.38"/>
    <path class="edge" d="M 127.13 322.69 C 131.04 341.08 128.56 358.55 119.69 375.12"/>
    <path class="edge" d="M 117.76 75.92 C 98.24 85.13 89.06 100.50 90.22 122.05"/>
    <path class="edge" d="M 246.00 240.20 C 258.37 234.17 271.12 233.21 284.25 237.33"/>
    <path class="edge" d="M 364.54 79.25 C 355.31 97.34 357.72 113.72 371.75 128.39"/>
    <path class="edge" d="M 330.29 8.06 C 346.22 15.09 359.58 11.78 370.39 -1.86"/>
    <path class="edge" d="M 43.88 198.57 C 37.55 212.50 36.75 226.74 41.48 241.29"/>
    <path class="edge" d="M 615.89 47.90 C 631.25 57.51 646.54 57.39 661.75 47.55"/>
    <path class="edge" d="M -4.33 162.54 C -15.54 177.56 -16.17 193.01 -6.22 208.89"/>
    <path class="edge" d="M 34.36 171.38 C 51.38 179.81 66.38 177.10 79.37 163.25"/>
    <path class="edge" d="M 866.30 3.58 C 871.34 22.96 883.77 34.01 903.60 36.73"/>
    <path class="edge" d="M 168.32 336.56 C 170.79 351.36 166.36 363.68 155.03 373.51"/>
    <path class="edge" d="M 980.93 77.01 C 972.82 96.08 976.66 112.30 992.48 125.69"/>
    <path class="edge" d="M 213.82 210.98 C 220.74 202.17 229.44 199.77 239.91 203.77"/>
    <path class="edge" d="M 88.89 213.42 C 88.67 224.57 84.03 233.40 74.97 239.91"/>
    <path class="edge" d="M 1026.05 289.30 C 1039.86 301.26 1053.94 301.58 1068.27 290.25"/>
    <path class="edge" d="M 661.75 47.55 C 670.13 36.97 680.55 34.28 693.01 39.48"/>
    <path class="edge" d="M 418.57 -8.16 C 404.55 2.77 399.70 16.86 404.02 34.11"/>
    <path class="edge" d="M -8.50 119.03 C 8.44 110.08 23.49 112.56 36.67 126.47"/>
    <path class="edge" d="M 1058.51 211.41 C 1064.64 222.39 1065.09 233.60 1059.84 245.02"/>
    <path class="edge" d="M 239.91 203.77 C 256.13 215.63 271.93 215.08 287.28 202.10"/>
    <path class="edge" d="M 568.25 1.47 C 585.53 11.52 601.95 10.26 617.50 -2.30"/>
    <path class="edge" d="M 253.68 372.83 C 265.19 359.61 278.70 357.08 294.23 365.22"/>
    <path class="edge" d="M 237.75 278.40 C 249.12 294.74 251.74 312.37 245.62 331.31"/>
    <path class="edge" d="M 497.74 244.78 C 492.91 257.23 493.91 269.20 500.73 280.69"/>
    <path class="edge" d="M 36.67 126.47 C 55.46 136.45 73.31 134.97 90.22 122.05"/>
    <path class="edge" d="M 285.92 158.30 C 299.88 153.31 310.93 157.00 319.07 169.39"/>
    <path class="edge" d="M 897.39 1.34 C 890.50 14.71 892.57 26.51 903.60 36.73"/>
    <path class="edge" d="M 700.72 248.45 C 711.23 237.51 723.09 235.78 736.28 243.26"/>
    <path class="edge" d="M 322.52 201.73 C 328.67 213.42 329.00 225.27 323.51 237.28"/>
    <path class="edge" d="M 617.50 -2.30 C 629.23 -13.96 642.35 -15.82 656.86 -7.87"/>
    <path class="edge" d="M 934.07 39.54 C 950.64 27.76 966.50 28.65 981.65 42.19"/>
    <path class="edge" d="M 285.92 158.30 C 280.52 173.08 280.97 187.68 287.28 202.10"/>
    <path class="edge" d="M 690.51 287.43 C 687.15 307.36 675.44 318.59 655.39 321.13"/>
    <path class="edge" d="M 209.67 242.22 C 210.35 261.02 219.70 273.08 237.75 278.40"/>
    <path class="edge" d="M 319.07 169.39 C 332.82 160.50 347.50 158.54 363.10 163.52"/>
    <path class="edge" d="M 130.87 131.78 C 137.77 146.40 135.64 159.57 124.50 171.28"/>
    <path class="edge" d="M 623.49 121.13 C 599.54 125.81 581.53 138.76 569.47 159.98"/>
    <path class="edge" d="M 373.00 196.35 C 360.92 213.25 360.98 230.11 373.20 246.92"/>
    <path class="edge" d="M 168.32 336.56 C 178.44 325.93 190.63 322.37 204.89 325.89"/>
    <path class="edge" d="M 981.65 42.19 C 998.26 55.77 1015.43 56.51 1033.16 44.43"/>
    <path class="edge" d="M 738.08 293.03 C 731.40 308.23 720.07 318.08 704.09 322.59"/>
    <path class="edge" d="M 330.05 75.67 C 343.78 90.25 345.14 105.90 334.13 122.63"/>
    <path class="edge" d="M 289.23 130.21 C 302.66 118.54 317.62 116.02 334.13 122.63"/>
    <path class="edge" d="M 44.52 42.70 C 47.63 59.55 57.50 70.05 74.12 74.21"/>
    <path class="edge" d="M 976.89 293.04 C 958.37 299.29 945.33 311.43 937.79 329.47"/>
    <path class="edge" d="M 905.59 170.78 C 882.36 173.33 867.93 185.94 862.27 208.61"/>
    <path class="edge" d="M 569.49 364.78 C 585.01 373.94 600.25 373.49 615.20 363.42"/>
    <path class="edge" d="M 334.13 122.63 C 345.50 132.18 358.04 134.10 371.75 128.39"/>
    <path class="edge" d="M 1059.84 245.02 C 1072.96 253.58 1087.26 256.67 1102.74 254.31"/>
    <path class="edge" d="M 897.39 1.34 C 913.72 -5.14 929.07 -3.34 943.45 6.75"/>
    <path class="edge" d="M 615.20 363.42 C 624.99 376.54 637.83 381.14 653.72 377.21"/>
    <path class="edge" d="M 414.38 324.48 C 418.35 339.89 416.05 354.29 407.49 367.70"/>
    <path class="edge" d="M 619.90 164.14 C 633.10 159.13 645.50 160.65 657.11 168.68"/>
    <path class="edge" d="M 458.38 128.08 C 474.98 137.49 486.52 151.17 493.00 169.12"/>
    <path class="edge" d="M 577.16 324.24 C 589.00 335.90 601.71 336.94 615.30 327.36"/>
    <path class="edge" d="M 155.09 282.76 C 170.14 298.07 174.55 316.01 168.32 336.56"/>
    <path class="edge" d="M 894.61 197.04 C 912.94 190.86 930.20 193.07 946.39 203.66"/>
    <path class="edge" d="M 615.30 327.36 C 627.49 317.74 640.86 315.67 655.39 321.13"/>
    <path class="edge" d="M 43.88 198.57 C 37.76 223.83 21.74 237.41 -4.18 239.33"/>
    <path class="edge" d="M 865.18 368.12 C 879.93 357.94 893.71 359.10 906.55 371.60"/>
    <path class="edge" d="M 197.62 285.19 C 194.91 299.67 197.34 313.24 204.89 325.89"/>
    <path class="edge" d="M 1066.28 43.12 C 1075.33 64.43 1090.81 78.83 1112.73 86.32"/>
    <path class="edge" d="M 866.30 3.58 C 858.17 14.67 854.81 27.05 856.20 40.73"/>
    <path class="edge" d="M 906.55 371.60 C 914.64 359.57 925.50 356.00 939.15 360.88"/>
    <path class="edge" d="M 813.63 128.88 C 791.68 132.40 780.21 145.26 779.22 167.47"/>
    <path class="edge" d="M 497.74 244.78 C 486.59 264.16 470.35 277.19 449.01 283.87"/>
    <path class="edge" d="M 1110.17 32.97 C 1120.82 50.28 1121.67 68.07 1112.73 86.32"/>
    <path class="edge" d="M 937.79 329.47 C 951.33 340.00 964.58 339.65 977.55 328.43"/>
    <path class="edge" d="M 992.48 125.69 C 998.67 144.41 1011.56 155.00 1031.12 157.47"/>
    <path class="edge" d="M 322.52 201.73 C 319.48 224.05 306.72 235.91 284.25 237.33"/>
    <path class="edge" d="M 278.46 88.74 C 271.11 105.32 258.47 114.97 240.54 117.68"/>
    <path class="edge" d="M 2.87 320.19 C 8.70 340.69 21.11 355.77 40.11 365.44"/>
    <path class="edge" d="M 6.76 37.65 C 15.71 54.25 12.81 68.43 -1.94 80.18"/>
    <path class="edge" d="M 130.87 131.78 C 109.73 135.77 92.56 146.26 79.37 163.25"/>
    <path class="edge" d="M 866.30 3.58 C 877.06 8.32 887.42 7.57 897.39 1.34"/>
    <path class="edge" d="M 569.47 159.98 C 587.38 148.02 604.19 149.40 619.90 164.14"/>
    <path class="edge" d="M 1027.42 210.43 C 1029.81 222.83 1027.77 234.44 1021.28 245.27"/>
    <path class="edge" d="M 536.10 331.46 C 548.10 319.46 561.79 317.05 577.16 324.24"/>
    <path class="edge" d="M 74.12 74.21 C 89.14 62.67 103.69 63.24 117.76 75.92"/>
    <path class="edge" d="M 402.53 125.89 C 400.77 140.58 404.61 153.62 414.05 165.02"/>
    <path class="edge" d="M 862.27 208.61 C 869.92 196.01 880.70 192.15 894.61 197.04"/>
    <path class="edge" d="M 162.17 204.77 C 184.29 209.28 200.12 221.77 209.67 242.22"/>
    <path class="edge" d="M 414.38 324.48 C 413.37 348.64 401.24 364.01 377.98 370.61"/>
    <path class="edge" d="M 360.41 40.31 C 355.09 54.00 356.47 66.98 364.54 79.25"/>
    <path class="edge" d="M 246.42 155.34 C 237.48 170.57 235.30 186.71 239.91 203.77"/>
    <path class="edge" d="M 458.38 128.08 C 449.55 138.62 446.04 150.70 447.87 164.33"/>
    <path class="edge" d="M 704.42 162.98 C 695.52 173.11 691.67 184.90 692.87 198.33"/>
    <path class="edge" d="M 155.09 282.76 C 169.56 278.38 183.74 279.19 197.62 285.19"/>
    <path class="edge" d="M 6.76 37.65 C 20.11 33.62 32.69 35.31 44.52 42.70"/>
    <path class="edge" d="M 736.60 212.41 C 740.83 230.61 752.29 239.59 770.98 239.34"/>
    <path class="edge" d="M 155.09 282.76 C 135.01 288.53 125.69 301.85 127.13 322.69"/>
    <path class="edge" d="M 623.49 121.13 C 636.34 116.37 646.58 119.68 654.22 131.04"/>
    <path class="edge" d="M 370.39 -1.86 C 346.78 4.93 331.97 20.22 325.94 44.04"/>
    <path class="edge" d="M 655.39 321.13 C 639.77 339.38 639.22 358.07 653.72 377.21"/>
    <path class="edge" d="M 860.60 171.95 C 875.34 161.64 890.33 161.25 905.59 170.78"/>
    <path class="edge" d="M 740.03 164.10 C 730.46 179.60 729.32 195.71 736.60 212.41"/>
    <path class="edge" d="M 160.62 242.49 C 166.68 257.00 164.84 270.42 155.09 282.76"/>
    <path class="edge" d="M 197.62 285.19 C 210.02 277.20 223.40 274.93 237.75 278.40"/>
    <path class="edge" d="M 44.52 42.70 C 57.81 46.89 70.78 46.06 83.44 40.21"/>
    <path class="edge" d="M 571.17 77.77 C 587.36 66.77 603.95 66.15 620.92 75.91"/>
    <path class="edge" d="M 704.09 322.59 C 690.54 339.89 690.48 357.23 703.92 374.62"/>
    <path class="edge" d="M 1066.28 43.12 C 1060.05 59.04 1062.07 73.84 1072.35 87.51"/>
    <path class="edge" d="M 905.59 170.78 C 922.52 174.49 937.65 170.79 950.96 159.67"/>
    <path class="edge" d="M 701.05 117.06 C 710.14 131.78 711.27 147.09 704.42 162.98"/>
    <path class="edge" d="M -4.18 239.33 C 10.65 249.05 25.87 249.70 41.48 241.29"/>
    <path class="edge" d="M 82.65 -2.42 C 92.77 7.00 103.57 7.85 115.04 0.13"/>
    <path class="edge" d="M 896.78 336.02 C 912.26 345.18 925.93 343.00 937.79 329.47"/>
    <path class="edge" d="M 566.45 40.09 C 558.11 53.89 559.68 66.45 571.17 77.77"/>
    <path class="edge" d="M 620.92 75.91 C 631.94 76.57 640.77 81.31 647.42 90.12"/>
    <path class="edge" d="M 82.65 -2.42 C 75.84 11.92 76.11 26.13 83.44 40.21"/>
    <path class="edge" d="M 525.91 165.09 C 518.25 181.19 518.00 197.40 525.16 213.73"/>
    <path class="edge" d="M 41.48 241.29 C 53.03 250.16 64.19 249.70 74.97 239.91"/>
    <path class="edge" d="M 985.07 171.98 C 993.11 187.97 990.19 201.60 976.30 212.89"/>
    <path class="edge" d="M 115.04 0.13 C 128.81 6.45 142.35 6.01 155.67 -1.19"/>
    <path class="edge" d="M 360.41 40.31 C 374.14 32.61 388.68 30.54 404.02 34.11"/>
    <path class="edge" d="M 936.36 114.26 C 948.81 126.96 953.67 142.10 950.96 159.67"/>
    <path class="edge" d="M 977.55 328.43 C 968.73 343.96 955.93 354.77 939.15 360.88"/>
    <path class="edge" d="M 992.48 125.69 C 1004.37 121.64 1015.37 123.34 1025.48 130.81"/>
    <path class="edge" d="M 656.86 -7.87 C 651.82 11.19 653.45 29.67 661.75 47.55"/>
    <path class="edge" d="M 1106.81 278.06 C 1120.14 294.46 1122.53 312.33 1113.96 331.66"/>
    <path class="edge" d="M 697.51 75.64 C 690.83 90.12 692.01 103.92 701.05 117.06"/>
    <path class="edge" d="M 1031.12 157.47 C 1038.09 175.70 1036.86 193.35 1027.42 210.43"/>
    <path class="edge" d="M 690.51 287.43 C 707.16 282.54 723.02 284.40 738.08 293.03"/>
    <path class="edge" d="M 943.59 87.02 C 958.47 92.77 970.92 89.44 980.93 77.01"/>
    <path class="edge" d="M 1033.15 321.39 C 1025.52 341.30 1011.70 354.94 991.68 362.29"/>
    <path class="edge" d="M 689.07 -5.29 C 684.39 10.16 685.70 25.08 693.01 39.48"/>
    <path class="edge" d="M 826.54 85.53 C 830.87 102.55 826.57 117.00 813.63 128.88"/>
    <path class="edge" d="M 43.88 198.57 C 56.62 210.41 71.62 215.35 88.89 213.42"/>
    <path class="edge" d="M 284.25 237.33 C 297.32 228.15 310.41 228.14 323.51 237.28"/>
    <path class="edge" d="M 117.95 213.15 C 138.43 213.83 152.65 223.61 160.62 242.49"/>
    <path class="edge" d="M 40.11 365.44 C 51.82 370.31 63.63 370.56 75.53 366.19"/>
    <path class="edge" d="M 244.64 5.88 C 254.13 19.80 255.46 34.47 248.65 49.88"/>
    <path class="edge" d="M 980.93 77.01 C 999.26 75.19 1015.82 79.76 1030.61 90.73"/>
    <path class="edge" d="M 79.37 163.25 C 95.81 158.09 110.85 160.76 124.50 171.28"/>
    <path class="edge" d="M 245.62 331.31 C 270.58 330.05 286.79 341.36 294.23 365.22"/>
    <path class="edge" d="M 323.51 237.28 C 338.89 246.58 355.45 249.79 373.20 246.92"/>
    <path class="edge" d="M 418.57 -8.16 C 432.39 -14.33 445.35 -12.88 457.45 -3.79"/>
    <path class="edge" d="M 1027.42 210.43 C 1016.67 228.44 1000.89 238.75 980.07 241.36"/>
    <path class="edge" d="M 819.16 -3.60 C 798.82 1.09 788.18 13.87 787.24 34.72"/>
    <path class="edge" d="M -4.18 239.33 C 1.23 259.80 13.30 274.98 32.02 284.87"/>
    <path class="edge" d="M 124.50 171.28 C 137.14 179.55 149.83 179.63 162.57 171.52"/>
    <path class="edge" d="M 943.45 6.75 C 948.98 26.33 961.71 38.14 981.65 42.19"/>
    <path class="edge" d="M 402.53 125.89 C 381.76 130.45 368.62 143.00 363.10 163.52"/>
    <path class="edge" d="M 162.17 204.77 C 152.81 216.98 152.29 229.55 160.62 242.49"/>
    <path class="edge" d="M 787.24 34.72 C 796.59 28.24 805.57 28.73 814.17 36.18"/>
    <path class="edge" d="M 449.01 283.87 C 451.36 305.39 463.05 318.72 484.09 323.84"/>
    <path class="edge" d="M 988.13 -3.82 C 991.55 23.08 1006.56 39.16 1033.16 44.43"/>
    <path class="edge" d="M 899.31 123.88 C 889.22 141.14 891.32 156.77 905.59 170.78"/>
    <path class="edge" d="M 322.52 201.73 C 338.28 189.89 355.10 188.09 373.00 196.35"/>
    <path class="edge" d="M 1112.73 86.32 C 1119.23 96.78 1119.27 107.28 1112.87 117.80"/>
    <path class="edge" d="M 813.69 212.55 C 802.76 226.74 788.52 235.67 770.98 239.34"/>
    <path class="edge" d="M 1068.27 290.25 C 1075.34 302.34 1076.51 314.98 1071.76 328.16"/>
    <path class="edge" d="M 114.91 240.63 C 97.45 251.55 86.33 267.03 81.54 287.05"/>
    <path class="edge" d="M 377.98 370.61 C 388.54 377.04 398.38 376.07 407.49 367.70"/>
    <path class="edge" d="M 130.87 131.78 C 146.16 133.64 159.94 129.90 172.19 120.56"/>
    <path class="edge" d="M 531.04 47.69 C 533.31 57.57 531.48 66.62 525.55 74.84"/>
    <path class="edge" d="M 655.39 321.13 C 632.87 326.55 619.47 340.64 615.20 363.42"/>
    <path class="edge" d="M 770.98 239.34 C 786.98 234.59 800.75 238.26 812.27 250.34"/>
    <path class="edge" d="M 654.22 131.04 C 647.30 146.76 635.86 157.79 619.90 164.14"/>
    <path class="edge" d="M 1100.74 -0.20 C 1099.42 22.33 1087.93 36.77 1066.28 43.12"/>
    <path class="edge" d="M 83.44 40.21 C 89.89 56.91 101.33 68.81 117.76 75.92"/>
    <path class="edge" d="M 1066.28 43.12 C 1044.86 51.85 1032.97 67.72 1030.61 90.73"/>
    <path class="edge" d="M 647.42 90.12 C 643.98 104.71 646.25 118.35 654.22 131.04"/>
    <path class="edge" d="M 525.91 165.09 C 509.65 173.97 499.09 187.35 494.23 205.22"/>
    <path class="edge" d="M 985.07 171.98 C 980.34 192.51 967.45 203.07 946.39 203.66"/>
    <path class="edge" d="M 325.94 44.04 C 320.62 55.45 321.99 66.00 330.05 75.67"/>
    <path class="edge" d="M -3.43 284.42 C 3.90 295.42 6.00 307.34 2.87 320.19"/>
    <path class="edge" d="M 370.39 -1.86 C 384.75 -16.97 400.81 -19.07 418.57 -8.16"/>
    <path class="edge" d="M 527.21 128.20 C 535.35 146.71 549.43 157.31 569.47 159.98"/>
    <path class="edge" d="M 660.21 292.62 C 680.95 293.65 695.58 303.64 704.09 322.59"/>
    <path class="edge" d="M 117.95 213.15 C 109.50 221.48 108.48 230.65 114.91 240.63"/>
    <path class="edge" d="M 457.45 -3.79 C 473.75 4.77 483.05 18.19 485.33 36.46"/>
    <path class="edge" d="M 1072.35 87.51 C 1062.51 100.26 1060.00 114.32 1064.81 129.69"/>
    <path class="edge" d="M 287.28 202.10 C 299.13 211.74 310.88 211.62 322.52 201.73"/>
    <path class="edge" d="M 413.89 293.82 C 422.21 303.91 422.37 314.13 414.38 324.48"/>
    <path class="edge" d="M 770.32 327.26 C 796.79 324.76 814.67 335.97 823.95 360.89"/>
    <path class="edge" d="M 90.22 122.05 C 101.79 133.54 115.34 136.78 130.87 131.78"/>
    <path class="edge" d="M 943.45 6.75 C 949.16 20.21 946.04 31.14 934.07 39.54"/>
    <path class="edge" d="M 656.86 -7.87 C 667.11 -0.97 677.85 -0.11 689.07 -5.29"/>
    <path class="edge" d="M 43.72 -7.70 C 39.48 14.01 27.16 29.12 6.76 37.65"/>
    <path class="edge" d="M 825.76 336.43 C 843.05 341.82 856.19 352.38 865.18 368.12"/>
    <path class="edge" d="M 363.10 163.52 C 379.79 174.25 396.77 174.75 414.05 165.02"/>
    <path class="edge" d="M 1068.27 290.25 C 1052.13 295.63 1040.43 306.01 1033.15 321.39"/>
    <path class="edge" d="M 410.97 203.93 C 418.95 219.40 416.76 233.28 404.41 245.55"/>
    <path class="edge" d="M 1033.16 44.43 C 1043.91 36.66 1054.95 36.22 1066.28 43.12"/>
    <path class="edge" d="M 363.10 163.52 C 374.99 171.88 378.28 182.82 373.00 196.35"/>
    <path class="edge" d="M 414.05 165.02 C 425.24 160.54 436.51 160.32 447.87 164.33"/>
    <path class="edge" d="M 199.97 118.08 C 209.21 132.76 210.90 148.25 205.03 164.57"/>
    <path class="edge" d="M 1064.81 129.69 C 1081.16 133.92 1092.66 143.80 1099.31 159.33"/>
    <path class="edge" d="M 442.33 201.97 C 457.72 209.86 463.22 222.18 458.82 238.91"/>
    <path class="edge" d="M 1066.28 43.12 C 1079.29 32.71 1093.92 29.33 1110.17 32.97"/>
    <path class="edge" d="M 1113.96 331.66 C 1120.75 342.36 1121.29 353.37 1115.57 364.68"/>
    <path class="edge" d="M 939.15 360.88 C 933.95 380.16 922.09 393.54 903.57 401.00"/>
    <path class="edge" d="M 371.75 128.39 C 382.57 134.44 392.83 133.61 402.53 125.89"/>
    <path class="edge" d="M 83.44 40.21 C 73.02 49.54 69.91 60.87 74.12 74.21"/>
    <path class="edge" d="M 34.36 171.38 C 43.03 178.52 46.21 187.58 43.88 198.57"/>
    <path class="edge" d="M 240.54 117.68 C 235.17 131.38 237.13 143.93 246.42 155.34"/>
    <path class="edge" d="M 647.42 90.12 C 643.90 103.89 635.92 114.23 623.49 121.13"/>
    <path class="edge" d="M 943.45 6.75 C 959.84 9.53 974.73 6.01 988.13 -3.82"/>
    <path class="edge" d="M 653.72 377.21 C 670.93 385.63 687.66 384.77 703.92 374.62"/>
    <path class="edge" d="M 452.22 319.22 C 443.84 332.27 442.09 346.15 446.95 360.87"/>
    <path class="edge" d="M 814.17 36.18 C 808.06 55.19 812.18 71.64 826.54 85.53"/>
    <path class="edge" d="M 657.11 168.68 C 671.64 156.48 687.41 154.58 704.42 162.98"/>
    <path class="edge" d="M 1099.20 211.53 C 1109.96 225.00 1111.14 239.26 1102.74 254.31"/>
    <path class="edge" d="M -3.43 284.42 C 8.28 292.85 20.10 293.00 32.02 284.87"/>
    <path class="edge" d="M 988.13 -3.82 C 1003.94 4.62 1019.11 3.60 1033.64 -6.87"/>
    <path class="edge" d="M 238.83 79.54 C 253.83 74.88 267.04 77.94 278.46 88.74"/>
    <path class="edge" d="M 484.09 323.84 C 476.21 341.02 476.46 358.08 484.83 375.02"/>
    <path class="edge" d="M 856.20 40.73 C 848.52 53.79 848.68 66.74 856.70 79.60"/>
    <path class="edge" d="M 704.42 162.98 C 716.05 170.96 727.92 171.33 740.03 164.10"/>
    <path class="edge" d="M 655.39 321.13 C 671.37 330.21 687.60 330.69 704.09 322.59"/>
    <path class="edge" d="M 278.46 88.74 C 293.59 76.22 310.79 71.87 330.05 75.67"/>
    <path class="edge" d="M 736.28 243.26 C 747.07 235.06 758.64 233.75 770.98 239.34"/>
    <path class="edge" d="M 319.07 169.39 C 311.23 181.13 312.38 191.91 322.52 201.73"/>
    <path class="edge" d="M 527.21 128.20 C 517.80 140.18 517.36 152.47 525.91 165.09"/>
    <path class="edge" d="M 976.30 212.89 C 993.66 218.75 1010.70 217.93 1027.42 210.43"/>
    <path class="edge" d="M 779.22 167.47 C 787.38 177.48 789.22 188.54 784.74 200.65"/>
    <path class="edge" d="M 83.44 40.21 C 97.06 51.46 112.29 54.39 129.12 49.00"/>
    <path class="edge" d="M 117.95 213.15 C 97.26 211.85 82.94 220.77 74.97 239.91"/>
    <path class="edge" d="M 660.21 292.62 C 654.16 301.37 652.55 310.88 655.39 321.13"/>
    <path class="edge" d="M 939.15 360.88 C 957.00 348.84 974.51 349.31 991.68 362.29"/>
    <path class="edge" d="M 823.95 360.89 C 804.16 367.74 791.41 381.24 785.71 401.39"/>
    <path class="edge" d="M 746.61 335.85 C 735.27 347.96 733.18 361.49 740.36 376.44"/>
    <path class="edge" d="M 204.89 325.89 C 219.86 317.27 233.43 319.07 245.62 331.31"/>
    <path class="edge" d="M 457.45 -3.79 C 447.33 19.68 429.52 32.31 404.02 34.11"/>
    <path class="edge" d="M 819.14 164.60 C 828.78 181.88 826.96 197.87 813.69 212.55"/>
    <path class="edge" d="M 413.89 293.82 C 423.64 283.62 435.35 280.30 449.01 283.87"/>
    <path class="edge" d="M 647.71 210.02 C 660.04 195.59 675.09 191.69 692.87 198.33"/>
    <path class="edge" d="M 661.75 47.55 C 677.61 51.89 689.53 61.26 697.51 75.64"/>
    <path class="edge" d="M 485.60 -6.88 C 490.74 7.60 490.65 22.04 485.33 36.46"/>
    <path class="edge" d="M -1.94 80.18 C 4.18 94.53 1.99 107.48 -8.50 119.03"/>
    <path class="edge" d="M 977.55 328.43 C 998.01 341.32 1016.55 338.97 1033.15 321.39"/>
    <path class="edge" d="M 1071.76 328.16 C 1077.07 344.96 1073.93 360.01 1062.36 373.30"/>
    <path class="edge" d="M 45.26 323.54 C 66.43 329.90 76.52 344.11 75.53 366.19"/>
    <path class="edge" d="M 114.91 240.63 C 130.48 232.99 145.72 233.61 160.62 242.49"/>
    <path class="edge" d="M 1102.74 254.31 C 1084.30 259.63 1072.81 271.61 1068.27 290.25"/>
    <path class="edge" d="M 197.26 -7.37 C 215.26 -10.86 231.06 -6.44 244.64 5.88"/>
    <path class="edge" d="M 410.97 203.93 C 389.40 210.37 376.81 224.70 373.20 246.92"/>
    <path class="edge" d="M 1064.81 129.69 C 1082.87 133.97 1098.89 130.01 1112.87 117.80"/>
    <path class="edge" d="M 896.01 86.89 C 916.46 85.69 929.91 94.81 936.36 114.26"/>
    <path class="edge" d="M 1099.31 159.33 C 1089.30 176.71 1089.26 194.11 1099.20 211.53"/>
    <path class="edge" d="M 168.32 336.56 C 145.60 341.22 129.40 354.07 119.69 375.12"/>
    <path class="edge" d="M 946.39 203.66 C 954.40 213.08 964.37 216.16 976.30 212.89"/>
    <path class="edge" d="M 1113.96 331.66 C 1102.35 352.46 1085.14 366.34 1062.36 373.30"/>
    <path class="edge" d="M 775.65 1.54 C 794.44 6.47 807.28 18.01 814.17 36.18"/>
    <path class="edge" d="M 34.36 171.38 C 30.36 194.19 16.84 206.70 -6.22 208.89"/>
    <path class="edge" d="M 213.82 210.98 C 229.01 215.81 239.73 225.55 246.00 240.20"/>
    <path class="edge" d="M 119.69 375.12 C 131.90 383.98 143.68 383.44 155.03 373.51"/>
    <path class="edge" d="M 452.22 319.22 C 431.13 329.68 416.22 345.84 407.49 367.70"/>
    <path class="edge" d="M -8.50 119.03 C 16.24 127.93 30.52 145.38 34.36 171.38"/>
    <path class="edge" d="M 237.75 278.40 C 238.37 302.24 227.42 318.07 204.89 325.89"/>
    <path class="edge" d="M 239.91 203.77 C 264.07 202.55 278.85 213.74 284.25 237.33"/>
    <path class="edge" d="M 950.96 159.67 C 964.83 156.86 976.20 160.96 985.07 171.98"/>
    <path class="edge" d="M 1099.20 211.53 C 1092.18 229.87 1079.06 241.04 1059.84 245.02"/>
    <path class="edge" d="M 784.74 200.65 C 783.23 223.14 792.41 239.70 812.27 250.34"/>
    <path class="edge" d="M 36.67 126.47 C 40.91 150.33 55.14 162.59 79.37 163.25"/>
    <path class="edge" d="M 209.67 242.22 C 214.42 259.00 210.40 273.33 197.62 285.19"/>
    <path class="edge" d="M 537.03 289.58 C 544.18 308.35 557.55 319.90 577.16 324.24"/>
    <path class="edge" d="M 1025.48 130.81 C 1029.97 148.60 1041.21 159.31 1059.19 162.96"/>
    <path class="edge" d="M 319.07 169.39 C 317.01 188.58 306.41 199.49 287.28 202.10"/>
    <path class="edge" d="M 246.00 240.20 C 250.81 254.57 248.06 267.30 237.75 278.40"/>
    <path class="edge" d="M 44.52 42.70 C 31.79 54.26 28.24 68.17 33.86 84.42"/>
    <path class="edge" d="M 949.67 249.07 C 951.44 263.20 947.02 275.01 936.40 284.49"/>
    <path class="edge" d="M 615.89 47.90 C 624.58 55.98 626.26 65.31 620.92 75.91"/>
    <path class="edge" d="M 946.39 203.66 C 951.17 221.98 962.40 234.55 980.07 241.36"/>
    <path class="edge" d="M 155.67 -1.19 C 167.98 -13.74 181.84 -15.80 197.26 -7.37"/>
    <path class="edge" d="M 661.75 47.55 C 662.83 63.71 658.05 77.90 647.42 90.12"/>
    <path class="edge" d="M 373.20 246.92 C 397.57 253.18 411.13 268.81 413.89 293.82"/>
    <path class="edge" d="M 1059.19 162.96 C 1072.45 179.30 1072.23 195.45 1058.51 211.41"/>
    <path class="edge" d="M 485.33 36.46 C 502.67 31.64 517.90 35.38 531.04 47.69"/>
    <path class="edge" d="M 856.70 79.60 C 853.32 97.16 857.64 112.57 869.65 125.83"/>
    <path class="edge" d="M 619.90 164.14 C 638.38 173.85 647.65 189.14 647.71 210.02"/>
    <path class="edge" d="M 81.54 287.05 C 73.66 298.22 71.26 310.46 74.34 323.78"/>
    <path class="edge" d="M 280.23 -4.98 C 293.53 6.33 297.72 20.37 292.79 37.12"/>
    <path class="edge" d="M 1030.61 90.73 C 1045.42 101.30 1059.33 100.23 1072.35 87.51"/>
    <path class="edge" d="M 741.25 -1.30 C 730.34 18.40 714.26 32.00 693.01 39.48"/>
    <path class="edge" d="M 117.95 213.15 C 134.75 221.23 149.49 218.44 162.17 204.77"/>
    <path class="edge" d="M 457.45 -3.79 C 467.55 1.67 476.93 0.64 485.60 -6.88"/>
    <path class="edge" d="M 615.30 327.36 C 619.70 350.46 632.50 367.08 653.72 377.21"/>
    <path class="edge" d="M 812.27 250.34 C 812.10 270.46 802.84 284.64 784.48 292.88"/>
    <path class="edge" d="M 404.41 245.55 C 421.54 235.09 439.68 232.88 458.82 238.91"/>
    <path class="edge" d="M 213.82 210.98 C 205.92 220.53 204.54 230.94 209.67 242.22"/>
    <path class="edge" d="M 814.17 36.18 C 827.16 47.09 841.17 48.60 856.20 40.73"/>
    <path class="edge" d="M 896.78 336.02 C 917.85 332.46 931.98 340.75 939.15 360.88"/>
    <path class="edge" d="M -8.50 119.03 C 0.98 132.76 2.36 147.26 -4.33 162.54"/>
    <path class="edge" d="M 1110.17 32.97 C 1089.65 45.66 1077.04 63.84 1072.35 87.51"/>
    <path class="edge" d="M 45.26 323.54 C 54.99 319.63 64.68 319.71 74.34 323.78"/>
    <path class="edge" d="M 74.97 239.91 C 88.18 246.03 101.49 246.27 114.91 240.63"/>
    <path class="edge" d="M 992.48 125.69 C 1001.66 142.99 999.19 158.41 985.07 171.98"/>
    <path class="edge" d="M 410.97 203.93 C 420.94 195.47 431.39 194.81 442.33 201.97"/>
    <path class="edge" d="M 1025.48 130.81 C 1038.72 135.23 1051.83 134.86 1064.81 129.69"/>
    <path class="edge" d="M 741.25 -1.30 C 753.20 -6.26 764.67 -5.31 775.65 1.54"/>
    <path class="edge" d="M 446.95 360.87 C 462.08 358.90 474.70 363.62 484.83 375.02"/>
    <path class="edge" d="M 937.79 329.47 C 933.14 340.16 933.59 350.63 939.15 360.88"/>
    <path class="edge" d="M 738.08 293.03 C 753.59 305.26 769.06 305.21 784.48 292.88"/>
    <path class="edge" d="M 1025.48 130.81 C 1032.05 138.70 1033.93 147.59 1031.12 157.47"/>
    <path class="edge" d="M 949.67 249.07 C 961.21 252.02 971.34 249.45 980.07 241.36"/>
    <path class="edge" d="M 494.23 205.22 C 485.02 219.33 486.19 232.51 497.74 244.78"/>
    <path class="edge" d="M 88.89 213.42 C 98.50 205.38 108.19 205.29 117.95 213.15"/>
    <path class="edge" d="M 493.00 169.12 C 504.85 174.99 515.82 173.64 525.91 165.09"/>
    <path class="edge" d="M 75.53 366.19 C 89.12 374.78 103.84 377.76 119.69 375.12"/>
    <path class="edge" d="M 289.23 130.21 C 295.34 140.42 294.24 149.78 285.92 158.30"/>
    <path class="edge" d="M 1033.64 -6.87 C 1054.25 13.05 1076.61 15.28 1100.74 -0.20"/>
    <path class="edge" d="M 452.22 319.22 C 463.62 315.39 474.25 316.93 484.09 323.84"/>
    <path class="edge" d="M 373.20 246.92 C 383.22 237.92 393.63 237.46 404.41 245.55"/>
    <path class="edge" d="M 536.10 331.46 C 538.16 351.65 549.29 362.76 569.49 364.78"/>
    <path class="edge" d="M 124.50 171.28 C 114.68 184.04 112.50 198.00 117.95 213.15"/>
    <path class="edge" d="M 784.74 200.65 C 796.24 200.12 805.89 204.08 813.69 212.55"/>
    <path class="edge" d="M 162.57 171.52 C 178.53 180.24 192.68 177.93 205.03 164.57"/>
    <path class="edge" d="M 1059.19 162.96 C 1036.88 170.94 1026.29 186.76 1027.42 210.43"/>
    <path class="edge" d="M 740.36 376.44 C 756.85 381.14 772.38 378.95 786.93 369.89"/>
    <path class="edge" d="M 496.50 122.60 C 505.90 129.07 516.14 130.94 527.21 128.20"/>
    <path class="edge" d="M 2.87 320.19 C 17.56 314.25 31.69 315.36 45.26 323.54"/>
    <path class="edge" d="M 740.36 376.44 C 758.93 378.48 774.05 386.80 785.71 401.39"/>
    <path class="edge" d="M 162.57 171.52 C 168.48 182.68 168.34 193.76 162.17 204.77"/>
    <path class="edge" d="M 736.60 212.41 C 732.47 222.65 732.36 232.93 736.28 243.26"/>
    <path class="edge" d="M 81.54 287.05 C 93.56 296.16 105.58 296.17 117.62 287.09"/>
    <path class="edge" d="M 373.00 196.35 C 384.45 204.92 397.11 207.45 410.97 203.93"/>
    <path class="edge" d="M 577.16 324.24 C 567.90 336.48 565.34 350.00 569.49 364.78"/>
    <path class="edge" d="M 934.07 39.54 C 931.28 56.56 934.45 72.39 943.59 87.02"/>
    <path class="edge" d="M 740.03 164.10 C 730.28 183.75 714.57 195.16 692.87 198.33"/>
    <path class="edge" d="M 779.22 167.47 C 793.20 175.81 806.50 174.86 819.14 164.60"/>
    <path class="edge" d="M 414.05 165.02 C 417.45 181.95 426.87 194.26 442.33 201.97"/>
    <path class="edge" d="M 407.49 367.70 C 419.69 359.88 432.84 357.61 446.95 360.87"/>
    <path class="edge" d="M 172.19 120.56 C 182.08 126.79 191.34 125.96 199.97 118.08"/>
    <path class="edge" d="M 860.60 171.95 C 875.59 175.36 886.92 183.73 894.61 197.04"/>
    <path class="edge" d="M 746.61 335.85 C 756.53 338.57 764.44 335.71 770.32 327.26"/>
    <path class="edge" d="M 738.08 293.03 C 739.47 313.25 750.21 324.66 770.32 327.26"/>
    <path class="edge" d="M 865.18 368.12 C 869.03 389.53 881.82 400.49 903.57 401.00"/>
    <path class="edge" d="M 1058.51 211.41 C 1072.09 205.09 1085.65 205.13 1099.20 211.53"/>
    <path class="edge" d="M 447.87 164.33 C 462.24 172.29 477.28 173.88 493.00 169.12"/>
    <path class="edge" d="M 1024.50 366.19 C 1038.27 362.44 1050.89 364.81 1062.36 373.30"/>
    <path class="edge" d="M 896.78 336.02 C 907.65 345.79 910.91 357.65 906.55 371.60"/>
    <path class="edge" d="M 447.87 164.33 C 440.02 175.99 438.17 188.54 442.33 201.97"/>
    <path class="edge" d="M 703.92 374.62 C 716.34 369.61 728.49 370.22 740.36 376.44"/>
    <path class="edge" d="M 32.02 284.87 C 41.83 295.91 46.25 308.80 45.26 323.54"/>
    <path class="edge" d="M 689.07 -5.29 C 690.89 17.97 681.78 35.59 661.75 47.55"/>
    <path class="edge" d="M 127.13 322.69 C 124.06 346.43 133.36 363.37 155.03 373.51"/>
    <path class="edge" d="M 43.88 198.57 C 44.94 219.35 55.30 233.13 74.97 239.91"/>
    <path class="edge" d="M 245.62 331.31 C 255.35 343.78 258.04 357.62 253.68 372.83"/>
    <path class="edge" d="M 494.23 205.22 C 477.92 211.72 466.12 222.95 458.82 238.91"/>
    <path class="edge" d="M 79.37 163.25 C 58.49 165.93 46.66 177.71 43.88 198.57"/>
    <path class="edge" d="M 692.87 198.33 C 684.16 216.81 686.78 233.52 700.72 248.45"/>
    <path class="edge" d="M 1033.64 -6.87 C 1041.52 3.44 1051.82 7.28 1064.53 4.63"/>
    <path class="edge" d="M 536.10 331.46 C 524.70 345.20 522.38 360.32 529.14 376.84"/>
    <path class="edge" d="M 449.01 283.87 C 445.47 296.07 446.53 307.86 452.22 319.22"/>
    <path class="edge" d="M 529.55 5.69 C 536.48 22.92 548.78 34.38 566.45 40.09"/>
    <path class="edge" d="M 41.48 241.29 C 28.10 253.60 24.95 268.12 32.02 284.87"/>
    <path class="edge" d="M 988.13 -3.82 C 977.48 10.32 975.32 25.66 981.65 42.19"/>
    <path class="edge" d="M 497.74 244.78 C 521.77 250.12 534.87 265.06 537.03 289.58"/>
    <path class="edge" d="M 689.07 -5.29 C 707.49 -17.41 724.88 -16.08 741.25 -1.30"/>
    <path class="edge" d="M 570.99 128.41 C 565.30 138.69 564.79 149.21 569.47 159.98"/>
    <path class="edge" d="M 690.51 287.43 C 686.99 302.25 691.52 313.97 704.09 322.59"/>
    <path class="edge" d="M 278.46 88.74 C 302.99 90.23 321.54 101.52 334.13 122.63"/>
    <path class="edge" d="M 414.05 165.02 C 404.25 177.29 403.23 190.26 410.97 203.93"/>
    <path class="edge" d="M 860.60 171.95 C 867.02 183.90 867.57 196.12 862.27 208.61"/>
    <path class="edge" d="M 330.05 75.67 C 353.25 85.89 367.15 103.47 371.75 128.39"/>
    <path class="edge" d="M 129.12 49.00 C 129.34 59.67 125.56 68.64 117.76 75.92"/>
    <path class="edge" d="M 1021.28 245.27 C 1011.15 261.22 1012.75 275.89 1026.05 289.30"/>
    <path class="edge" d="M 74.12 74.21 C 90.68 86.39 96.05 102.34 90.22 122.05"/>
    <path class="edge" d="M 458.38 128.08 C 471.78 131.08 484.49 129.25 496.50 122.60"/>
    <path class="edge" d="M 248.65 49.88 C 240.87 58.28 237.60 68.17 238.83 79.54"/>
    <path class="edge" d="M 1071.76 328.16 C 1085.20 336.96 1099.26 338.13 1113.96 331.66"/>
    <path class="edge" d="M 32.02 284.87 C 48.16 294.00 64.67 294.73 81.54 287.05"/>
    <path class="edge" d="M 32.02 284.87 C 27.56 300.98 17.84 312.75 2.87 320.19"/>
    <path class="edge" d="M -6.22 208.89 C 0.89 218.60 1.57 228.75 -4.18 239.33"/>
    <path class="edge" d="M 740.03 164.10 C 753.63 158.92 766.70 160.05 779.22 167.47"/>
    <path class="edge" d="M 155.09 282.76 C 161.79 308.56 178.39 322.94 204.89 325.89"/>
    <path class="edge" d="M 370.39 -1.86 C 377.28 14.17 388.49 26.16 404.02 34.11"/>
    <path class="edge" d="M 704.09 322.59 C 721.50 316.62 735.67 321.05 746.61 335.85"/>
    <path class="edge" d="M 943.59 87.02 C 937.72 95.18 935.31 104.26 936.36 114.26"/>
    <path class="edge" d="M 330.05 75.67 C 342.33 69.38 353.82 70.57 364.54 79.25"/>
    <path class="edge" d="M 976.89 293.04 C 993.87 299.62 1010.26 298.37 1026.05 289.30"/>
    <path class="edge" d="M 245.62 331.31 C 226.51 333.08 215.00 343.36 211.10 362.16"/>
    <path class="edge" d="M 1027.42 210.43 C 1037.52 219.04 1047.88 219.36 1058.51 211.41"/>
    <path class="edge" d="M 991.68 362.29 C 1003.14 359.20 1014.08 360.50 1024.50 366.19"/>
    <path class="edge" d="M 813.63 128.88 C 831.75 117.61 850.42 116.60 869.65 125.83"/>
    <path class="edge" d="M 936.40 284.49 C 948.22 299.13 948.69 314.12 937.79 329.47"/>
    <path class="edge" d="M 287.28 202.10 C 294.63 218.70 306.71 230.42 323.51 237.28"/>
    <path class="edge" d="M 943.45 6.75 C 935.80 24.23 922.52 34.22 903.60 36.73"/>
    <path class="edge" d="M 211.10 362.16 C 227.76 355.90 241.95 359.46 253.68 372.83"/>
    <path class="edge" d="M 449.01 283.87 C 465.45 269.74 482.68 268.68 500.73 280.69"/>
    <path class="edge" d="M 248.65 49.88 C 260.91 37.13 275.62 32.88 292.79 37.12"/>
    <path class="edge" d="M 813.63 128.88 C 807.19 142.06 809.03 153.97 819.14 164.60"/>
    <path class="edge" d="M 90.22 122.05 C 91.71 145.38 103.13 161.79 124.50 171.28"/>
    <path class="edge" d="M 825.76 336.43 C 828.59 344.83 827.99 352.99 823.95 360.89"/>
    <path class="edge" d="M 529.55 5.69 C 535.38 19.50 535.88 33.50 531.04 47.69"/>
    <path class="edge" d="M 33.86 84.42 C 45.26 97.74 46.20 111.75 36.67 126.47"/>
    <path class="edge" d="M 1031.12 157.47 C 1039.34 165.12 1048.69 166.95 1059.19 162.96"/>
    <path class="edge" d="M 977.55 328.43 C 1001.58 330.59 1017.23 343.18 1024.50 366.19"/>
    <path class="edge" d="M 238.83 79.54 C 245.50 91.98 246.07 104.69 240.54 117.68"/>
    <path class="edge" d="M 1033.15 321.39 C 1044.82 330.49 1057.69 332.75 1071.76 328.16"/>
    <path class="edge" d="M 826.54 85.53 C 837.50 88.15 847.55 86.17 856.70 79.60"/>
    <path class="edge" d="M 160.62 242.49 C 177.01 249.36 193.36 249.27 209.67 242.22"/>
    <path class="edge" d="M 1033.15 321.39 C 1054.68 332.05 1064.42 349.36 1062.36 373.30"/>
    <path class="edge" d="M 278.46 88.74 C 275.47 104.27 279.06 118.09 289.23 130.21"/>
    <path class="edge" d="M 244.64 5.88 C 254.43 -4.54 266.29 -8.16 280.23 -4.98"/>
    <path class="edge" d="M 1064.81 129.69 C 1068.80 141.77 1066.93 152.86 1059.19 162.96"/>
    <path class="edge" d="M 494.23 205.22 C 502.31 216.15 512.62 218.98 525.16 213.73"/>
    <path class="edge" d="M 976.30 212.89 C 984.49 233.13 999.48 243.93 1021.28 245.27"/>
    <path class="edge" d="M 936.40 284.49 C 947.75 297.49 961.25 300.34 976.89 293.04"/>
    <path class="edge" d="M 693.01 39.48 C 703.25 50.44 704.75 62.50 697.51 75.64"/>
    <path class="edge" d="M 566.45 40.09 C 581.16 53.90 597.64 56.50 615.89 47.90"/>
    <path class="edge" d="M 1112.87 117.80 C 1116.40 134.27 1111.88 148.12 1099.31 159.33"/>
    <path class="edge" d="M 371.75 128.39 C 395.12 129.90 409.22 142.11 414.05 165.02"/>
    <path class="edge" d="M 1021.28 245.27 C 1034.17 251.60 1047.02 251.52 1059.84 245.02"/>
    <path class="edge" d="M 155.03 373.51 C 175.46 378.31 194.15 374.53 211.10 362.16"/>
    <path class="edge" d="M 402.53 125.89 C 411.30 146.18 426.41 159.00 447.87 164.33"/>
    <path class="edge" d="M 657.11 168.68 C 662.14 186.87 674.06 196.75 692.87 198.33"/>
    <path class="edge" d="M 484.09 323.84 C 466.60 331.05 454.22 343.40 446.95 360.87"/>
    <path class="edge" d="M 458.82 238.91 C 470.65 248.46 483.62 250.41 497.74 244.78"/>
    <path class="edge" d="M 458.82 238.91 C 448.95 252.46 445.68 267.44 449.01 283.87"/>
    <path class="edge" d="M 114.91 240.63 C 123.17 259.56 136.57 273.61 155.09 282.76"/>
    <path class="edge" d="M 74.34 323.78 C 91.68 310.75 109.27 310.38 127.13 322.69"/>
    <path class="edge" d="M 660.21 292.62 C 637.08 293.66 622.11 305.24 615.30 327.36"/>
    <path class="edge" d="M 493.00 169.12 C 513.10 177.23 523.81 192.10 525.16 213.73"/>
    <path class="edge" d="M 701.05 117.06 C 704.72 140.47 717.71 156.15 740.03 164.10"/>
    <path class="edge" d="M 980.07 241.36 C 971.24 258.11 970.18 275.34 976.89 293.04"/>
    <path class="edge" d="M 770.32 327.26 C 766.30 347.29 756.31 363.68 740.36 376.44"/>
    <path class="edge" d="M 287.28 202.10 C 294.13 214.52 293.12 226.26 284.25 237.33"/>
    <path class="edge" d="M 525.55 74.84 C 528.74 98.59 519.06 114.51 496.50 122.60"/>
    <path class="edge" d="M 529.14 376.84 C 540.66 366.36 554.11 362.34 569.49 364.78"/>
    <path class="edge" d="M 90.22 122.05 C 80.74 134.24 77.13 147.97 79.37 163.25"/>
    <path class="edge" d="M 45.26 323.54 C 33.33 336.25 31.61 350.21 40.11 365.44"/>
    <path class="edge" d="M 529.55 5.69 C 519.96 23.35 505.22 33.61 485.33 36.46"/>
    <path class="edge" d="M 33.86 84.42 C 12.06 86.55 -2.06 98.08 -8.50 119.03"/>
    <path class="edge" d="M 977.55 328.43 C 991.34 335.93 996.06 347.21 991.68 362.29"/>
    <path class="edge" d="M 656.86 -7.87 C 657.29 16.79 669.34 32.57 693.01 39.48"/>
    <path class="edge" d="M 238.83 79.54 C 235.08 101.67 222.12 114.52 199.97 118.08"/>
    <path class="edge" d="M 531.04 47.69 C 543.98 50.45 555.78 47.91 566.45 40.09"/>
    <path class="edge" d="M 896.01 86.89 C 903.44 98.66 904.54 110.98 899.31 123.88"/>
    <path class="edge" d="M 1064.81 129.69 C 1047.80 131.94 1036.57 141.20 1031.12 157.47"/>
    <path class="edge" d="M 117.62 287.09 C 111.78 301.36 114.95 313.23 127.13 322.69"/>
    <path class="edge" d="M 1072.35 87.51 C 1085.96 92.22 1099.42 91.83 1112.73 86.32"/>
    <path class="edge" d="M 976.30 212.89 C 983.84 221.55 985.10 231.04 980.07 241.36"/>
    <path class="edge" d="M 775.65 1.54 C 787.24 9.90 791.10 20.96 787.24 34.72"/>
    <path class="edge" d="M 74.34 323.78 C 74.23 346.95 62.82 360.83 40.11 365.44"/>
    <path class="edge" d="M 485.60 -6.88 C 497.74 6.10 512.39 10.29 529.55 5.69"/>
    <path class="edge" d="M 371.75 128.39 C 362.97 138.65 360.09 150.36 363.10 163.52"/>
    <path class="edge" d="M 404.41 245.55 C 413.98 260.38 417.14 276.47 413.89 293.82"/>
    <path class="edge" d="M 205.03 164.57 C 217.48 155.44 231.28 152.36 246.42 155.34"/>
    <path class="edge" d="M 819.16 -3.60 C 806.55 8.28 804.89 21.54 814.17 36.18"/>
    <path class="edge" d="M 239.91 203.77 C 237.33 216.68 239.36 228.83 246.00 240.20"/>
    <path class="edge" d="M 529.55 5.69 C 543.09 10.11 555.99 8.70 568.25 1.47"/>
    <path class="edge" d="M 856.20 40.73 C 871.52 33.69 887.32 32.35 903.60 36.73"/>
    <path class="edge" d="M 657.11 168.68 C 664.60 184.87 661.46 198.66 647.71 210.02"/>
    <path class="edge" d="M 246.42 155.34 C 260.15 148.89 273.31 149.88 285.92 158.30"/>
    <path class="edge" d="M 36.67 126.47 C 25.75 140.92 24.98 155.89 34.36 171.38"/>
    <path class="edge" d="M 485.33 36.46 C 505.93 41.71 519.33 54.51 525.55 74.84"/>
    <path class="edge" d="M 903.60 36.73 C 913.23 43.46 923.38 44.40 934.07 39.54"/>
    <path class="edge" d="M 813.69 212.55 C 822.75 225.50 822.27 238.10 812.27 250.34"/>
    <path class="edge" d="M 537.03 289.58 C 542.85 303.68 542.54 317.64 536.10 331.46"/>
    <path class="edge" d="M 199.97 118.08 C 213.57 125.69 227.09 125.56 240.54 117.68"/>
    <path class="edge" d="M 1068.27 290.25 C 1090.78 296.03 1106.01 309.83 1113.96 331.66"/>
    <path class="edge" d="M 1064.53 4.63 C 1059.97 17.69 1060.55 30.52 1066.28 43.12"/>
    <path class="edge" d="M 531.04 47.69 C 538.59 65.48 551.96 75.51 571.17 77.77"/>
    <path class="edge" d="M 775.65 1.54 C 788.79 -11.72 803.29 -13.43 819.16 -3.60"/>
    <path class="edge" d="M 1033.16 44.43 C 1045.08 60.57 1044.23 76.00 1030.61 90.73"/>
    <path class="edge" d="M 484.83 375.02 C 500.00 365.92 514.77 366.52 529.14 376.84"/>
    <path class="edge" d="M 654.22 131.04 C 660.06 143.21 661.03 155.76 657.11 168.68"/>
    <path class="edge" d="M 1100.74 -0.20 C 1111.09 8.81 1114.24 19.86 1110.17 32.97"/>
    <path class="edge" d="M 784.48 292.88 C 772.49 301.34 767.77 312.80 770.32 327.26"/>
    <path class="edge" d="M 980.07 241.36 C 994.58 234.55 1008.31 235.85 1021.28 245.27"/>
    <path class="edge" d="M 819.16 -3.60 C 836.08 -9.12 851.79 -6.73 866.30 3.58"/>
    <path class="edge" d="M 647.42 90.12 C 658.24 113.13 676.12 122.11 701.05 117.06"/>
    <path class="edge" d="M -1.94 80.18 C 9.36 86.97 21.29 88.38 33.86 84.42"/>
    <path class="edge" d="M 493.00 169.12 C 500.33 180.92 500.74 192.95 494.23 205.22"/>
    <path class="edge" d="M 661.75 47.55 C 641.74 47.79 628.13 57.24 620.92 75.91"/>
    <path class="edge" d="M 525.91 165.09 C 541.52 172.66 556.04 170.96 569.47 159.98"/>
    <path class="edge" d="M 334.13 122.63 C 319.53 135.13 314.51 150.72 319.07 169.39"/>
    <path class="edge" d="M 33.86 84.42 C 45.41 73.63 58.83 70.23 74.12 74.21"/>
    <path class="edge" d="M 325.94 44.04 C 333.57 61.52 346.43 73.26 364.54 79.25"/>
    <path class="edge" d="M 813.69 212.55 C 829.06 201.14 845.26 199.83 862.27 208.61"/>
    <path class="edge" d="M 1064.53 4.63 C 1077.84 12.36 1089.91 10.75 1100.74 -0.20"/>
    <path class="edge" d="M 700.72 248.45 C 692.05 260.06 688.64 273.05 690.51 287.43"/>
    <path class="edge" d="M 786.93 369.89 C 797.83 360.96 810.17 357.96 823.95 360.89"/>
    <path class="edge" d="M 81.54 287.05 C 61.84 291.64 49.74 303.81 45.26 323.54"/>
    <path class="edge" d="M 527.21 128.20 C 541.76 137.54 556.35 137.61 570.99 128.41"/>
    <path class="edge" d="M 280.23 -4.98 C 258.61 6.92 248.09 25.21 248.65 49.88"/>
    <path class="edge" d="M 896.01 86.89 C 892.39 103.38 883.60 116.35 869.65 125.83"/>
    <path class="edge" d="M 117.62 287.09 C 130.68 290.58 143.17 289.14 155.09 282.76"/>
    <path class="edge" d="M 736.28 243.26 C 724.03 260.31 724.63 276.90 738.08 293.03"/>
    <path class="edge" d="M 823.95 360.89 C 839.39 353.64 853.13 356.05 865.18 368.12"/>
    <path class="edge" d="M 615.30 327.36 C 620.25 339.40 620.22 351.41 615.20 363.42"/>
    <path class="edge" d="M 330.29 8.06 C 324.64 26.58 312.14 36.26 292.79 37.12"/>
    <path class="edge" d="M 981.65 42.19 C 972.61 53.62 972.37 65.23 980.93 77.01"/>
    <path class="edge" d="M 819.14 164.60 C 831.88 173.16 845.70 175.61 860.60 171.95"/>
    <path class="edge" d="M 770.32 327.26 C 790.72 318.67 809.20 321.72 825.76 336.43"/>
    <path class="edge" d="M 525.55 74.84 C 541.17 69.34 556.38 70.32 571.17 77.77"/>
    <path class="edge" d="M 500.73 280.69 C 500.76 297.22 495.21 311.60 484.09 323.84"/>
    <path class="edge" d="M 1026.05 289.30 C 1034.31 310.46 1049.55 323.41 1071.76 328.16"/>
    <path class="edge" d="M 1033.64 -6.87 C 1022.45 10.12 1022.28 27.22 1033.16 44.43"/>
    <path class="edge" d="M 43.72 -7.70 C 55.81 0.60 68.78 2.36 82.65 -2.42"/>
    <path class="edge" d="M 239.91 203.77 C 237.06 222.27 226.98 235.09 209.67 242.22"/>
    <path class="edge" d="M 1059.84 245.02 C 1082.74 245.73 1098.40 256.74 1106.81 278.06"/>
    <path class="edge" d="M 1062.36 373.30 C 1078.29 359.25 1096.02 356.38 1115.57 364.68"/>
    <path class="edge" d="M 899.31 123.88 C 909.16 111.06 921.51 107.85 936.36 114.26"/>
    <path class="edge" d="M 568.25 1.47 C 558.41 13.91 557.81 26.78 566.45 40.09"/>
    <path class="edge" d="M 36.67 126.47 C 14.26 128.56 0.60 140.59 -4.33 162.54"/>
    <path class="edge" d="M 950.96 159.67 C 960.52 175.49 959.00 190.15 946.39 203.66"/>
    <path class="edge" d="M 617.50 -2.30 C 607.94 14.15 607.41 30.88 615.89 47.90"/>
    <path class="edge" d="M 117.76 75.92 C 137.30 90.98 141.67 109.60 130.87 131.78"/>
    <path class="edge" d="M 660.21 292.62 C 669.65 287.04 679.75 285.31 690.51 287.43"/>
    <path class="edge" d="M -4.33 162.54 C 16.64 168.00 32.71 180.01 43.88 198.57"/>
    <path class="edge" d="M 168.32 336.56 C 188.94 334.46 203.20 343.00 211.10 362.16"/>
    <path class="edge" d="M 88.89 213.42 C 90.27 229.46 98.94 238.53 114.91 240.63"/>
    <path class="edge" d="M -8.94 368.85 C 6.87 359.83 23.22 358.69 40.11 365.44"/>
    <path class="edge" d="M 525.16 213.73 C 510.07 218.83 500.93 229.18 497.74 244.78"/>
    <path class="edge" d="M 1058.51 211.41 C 1082.39 216.29 1097.13 230.59 1102.74 254.31"/>
    <path class="edge" d="M 204.89 325.89 C 215.36 347.55 231.62 363.20 253.68 372.83"/>
    <path class="edge" d="M 292.79 37.12 C 275.21 50.77 270.43 67.98 278.46 88.74"/>
    <path class="edge" d="M 452.22 319.22 C 451.45 344.63 462.32 363.23 484.83 375.02"/>
    <path class="edge" d="M 814.17 36.18 C 818.36 60.43 832.54 74.90 856.70 79.60"/>
    <path class="edge" d="M 897.39 1.34 C 904.15 19.32 916.38 32.06 934.07 39.54"/>
    <path class="edge" d="M 1068.27 290.25 C 1078.60 278.24 1091.45 274.18 1106.81 278.06"/>
    <path class="edge" d="M 74.97 239.91 C 88.91 253.98 91.11 269.70 81.54 287.05"/>
    <path class="edge" d="M 496.50 122.60 C 511.50 133.17 521.30 147.33 525.91 165.09"/>
    <path class="edge" d="M 786.93 369.89 C 781.98 380.21 781.58 390.71 785.71 401.39"/>
    <path class="edge" d="M 623.49 121.13 C 633.46 136.40 632.27 150.73 619.90 164.14"/>
    <path class="edge" d="M -3.17 -6.28 C 12.28 -12.65 27.91 -13.12 43.72 -7.70"/>
    <path class="edge" d="M 738.08 293.03 C 730.18 309.44 733.02 323.72 746.61 335.85"/>
    <path class="edge" d="M 1030.61 90.73 C 1036.22 105.03 1034.51 118.38 1025.48 130.81"/>
    <path class="edge" d="M 779.22 167.47 C 784.16 187.50 795.65 202.53 813.69 212.55"/>
    <path class="edge" d="M 869.65 125.83 C 879.18 119.75 889.06 119.10 899.31 123.88"/>
    <path class="edge" d="M 976.89 293.04 C 984.81 304.70 985.04 316.49 977.55 328.43"/>
    <path class="edge" d="M 981.65 42.19 C 961.22 50.56 948.53 65.51 943.59 87.02"/>
    <path class="edge" d="M -3.17 -6.28 C -11.42 10.97 -8.11 25.62 6.76 37.65"/>
    <path class="edge" d="M 905.59 170.78 C 905.26 180.92 901.60 189.68 894.61 197.04"/>
    <path class="edge" d="M 500.73 280.69 C 511.25 290.11 523.35 293.07 537.03 289.58"/>
    <path class="edge" d="M 292.79 37.12 C 302.38 46.47 313.43 48.77 325.94 44.04"/>
    <path class="edge" d="M 869.65 125.83 C 858.49 139.61 855.47 154.98 860.60 171.95"/>
    <path class="edge" d="M 906.55 371.60 C 899.30 380.77 898.31 390.57 903.57 401.00"/>
    <path class="edge" d="M 896.78 336.02 C 882.29 342.82 871.76 353.52 865.18 368.12"/>
    <path class="edge" d="M 1026.05 289.30 C 1019.50 301.97 1021.87 312.66 1033.15 321.39"/>
    <path class="edge" d="M 1059.19 162.96 C 1073.08 167.50 1086.45 166.29 1099.31 159.33"/>
    <path class="edge" d="M 447.87 164.33 C 442.05 183.57 429.75 196.77 410.97 203.93"/>
    <path class="edge" d="M 325.94 44.04 C 338.18 49.69 349.66 48.44 360.41 40.31"/>
    <path class="edge" d="M 1059.84 245.02 C 1053.10 261.88 1055.92 276.96 1068.27 290.25"/>
    <path class="edge" d="M 414.38 324.48 C 435.17 327.71 446.03 339.84 446.95 360.87"/>
    <path class="edge" d="M 856.70 79.60 C 870.72 77.10 883.82 79.53 896.01 86.89"/>
    <path class="edge" d="M 568.25 1.47 C 567.09 25.93 554.69 41.34 531.04 47.69"/>
    <path class="edge" d="M 209.67 242.22 C 221.29 232.69 233.40 232.01 246.00 240.20"/>
    <path class="edge" d="M 1071.76 328.16 C 1094.46 330.63 1109.06 342.80 1115.57 364.68"/>
    <path class="edge" d="M 280.23 -4.98 C 294.76 7.63 311.45 11.98 330.29 8.06"/>
    <path class="edge" d="M 961.80 266.87 C 980.62 291.23 977.42 312.23 952.21 329.89"/>
    <path class="edge" d="M 952.21 329.89 C 972.35 306.87 978.86 280.49 971.72 250.74"/>
    <path class="edge" d="M 971.72 250.74 C 949.78 257.14 938.70 271.77 938.48 294.62"/>
    <path class="edge" d="M 938.48 294.62 C 938.94 293.01 939.38 291.39 939.77 289.76"/>
    <path class="edge" d="M 939.77 289.76 C 950.37 290.88 960.80 289.98 971.05 287.06"/>
    <path class="edge" d="M 971.05 287.06 C 948.15 270.14 928.68 273.44 912.64 296.98"/>
    <path class="edge" d="M 912.64 296.98 C 917.98 288.81 925.53 284.84 935.28 285.09"/>
    <path class="edge" d="M 935.28 285.09 C 936.09 270.40 933.13 256.51 926.38 243.43"/>
    <path class="edge" d="M 926.38 243.43 C 916.08 249.15 910.22 257.87 908.82 269.57"/>
    <path class="edge" d="M 908.82 269.57 C 909.55 255.04 913.72 241.56 921.31 229.15"/>
    <path class="edge" d="M 921.31 229.15 C 934.40 243.10 950.51 249.87 969.63 249.47"/>
    <path class="edge" d="M 969.63 249.47 C 957.11 267.17 941.41 281.35 922.54 292.03"/>
    <path class="edge" d="M 922.54 292.03 C 913.04 295.61 903.76 299.70 894.71 304.30"/>
    <path class="edge" d="M 894.71 304.30 C 904.27 303.43 913.13 300.47 921.28 295.40"/>
    <path class="edge" d="M 921.28 295.40 C 924.79 293.31 927.20 290.33 928.49 286.45"/>
    <path class="edge" d="M 928.49 286.45 C 934.36 281.26 941.21 278.63 949.04 278.55"/>
    <path class="edge" d="M 949.04 278.55 C 936.01 263.71 920.11 253.16 901.37 246.92"/>
    <path class="edge" d="M 901.37 246.92 C 912.12 270.68 924.91 293.28 939.74 314.73"/>
    <path class="edge" d="M 939.74 314.73 C 931.13 309.58 926.93 301.99 927.15 291.96"/>
    <path class="edge" d="M 927.15 291.96 C 933.17 293.15 939.13 292.92 945.05 291.29"/>
    <path class="edge" d="M 945.05 291.29 C 943.61 271.52 950.30 255.06 965.12 241.90"/>
    <path class="edge" d="M 965.12 241.90 C 950.97 247.79 945.74 258.18 949.43 273.05"/>
    <path class="edge" d="M 949.43 273.05 C 943.63 268.05 938.13 262.74 932.93 257.11"/>
    <path class="edge" d="M 932.93 257.11 C 929.59 253.57 925.48 251.94 920.62 252.21"/>
    <path class="edge" d="M 920.62 252.21 C 919.16 277.10 918.85 302.00 919.69 326.92"/>
  </g>
  <g>
    <circle class="node" cx="-3.17" cy="-6.28" r="5.80" fill="#34A853"/>
    <circle class="node" cx="43.72" cy="-7.70" r="5.80" fill="#FBBC05"/>
    <circle class="node" cx="82.65" cy="-2.42" r="5.80" fill="#EA4335"/>
    <circle class="node" cx="115.04" cy="0.13" r="5.80" fill="#34A853"/>
    <circle class="node" cx="155.67" cy="-1.19" r="5.80" fill="#4285F4"/>
    <circle class="node" cx="197.26" cy="-7.37" r="5.80" fill="#34A853"/>
    <circle class="node" cx="244.64" cy="5.88" r="5.80" fill="#34A853"/>
    <circle class="node" cx="280.23" cy="-4.98" r="5.80" fill="#4285F4"/>
    <circle class="node" cx="330.29" cy="8.06" r="5.80" fill="#4285F4"/>
    <circle class="node" cx="370.39" cy="-1.86" r="5.80" fill="#4285F4"/>
    <circle class="node" cx="418.57" cy="-8.16" r="5.80" fill="#4285F4"/>
    <circle class="node" cx="457.45" cy="-3.79" r="5.80" fill="#4285F4"/>
    <circle class="node" cx="485.60" cy="-6.88" r="5.80" fill="#4285F4"/>
    <circle class="node" cx="529.55" cy="5.69" r="5.80" fill="#4285F4"/>
    <circle class="node" cx="568.25" cy="1.47" r="5.80" fill="#4285F4"/>
    <circle class="node" cx="617.50" cy="-2.30" r="5.80" fill="#EA4335"/>
    <circle class="node" cx="656.86" cy="-7.87" r="5.80" fill="#4285F4"/>
    <circle class="node" cx="689.07" cy="-5.29" r="5.80" fill="#4285F4"/>
    <circle class="node" cx="741.25" cy="-1.30" r="5.80" fill="#4285F4"/>
    <circle class="node" cx="775.65" cy="1.54" r="5.80" fill="#4285F4"/>
    <circle class="node" cx="819.16" cy="-3.60" r="5.80" fill="#4285F4"/>
    <circle class="node" cx="866.30" cy="3.58" r="5.80" fill="#4285F4"/>
    <circle class="node" cx="897.39" cy="1.34" r="5.80" fill="#4285F4"/>
    <circle class="node" cx="943.45" cy="6.75" r="5.80" fill="#FBBC05"/>
    <circle class="node" cx="988.13" cy="-3.82" r="5.80" fill="#4285F4"/>
    <circle class="node" cx="1033.64" cy="-6.87" r="5.80" fill="#4285F4"/>
    <circle class="node" cx="1064.53" cy="4.63" r="5.80" fill="#4285F4"/>
    <circle class="node" cx="1100.74" cy="-0.20" r="5.80" fill="#4285F4"/>
    <circle class="node" cx="6.76" cy="37.65" r="5.80" fill="#4285F4"/>
    <circle class="node" cx="44.52" cy="42.70" r="5.80" fill="#4285F4"/>
    <circle class="node" cx="83.44" cy="40.21" r="5.80" fill="#4285F4"/>
    <circle class="node" cx="129.12" cy="49.00" r="5.80" fill="#4285F4"/>
    <circle class="node" cx="248.65" cy="49.88" r="5.80" fill="#34A853"/>
    <circle class="node" cx="292.79" cy="37.12" r="5.80" fill="#4285F4"/>
    <circle class="node" cx="325.94" cy="44.04" r="5.80" fill="#EA4335"/>
    <circle class="node" cx="360.41" cy="40.31" r="5.80" fill="#4285F4"/>
    <circle class="node" cx="404.02" cy="34.11" r="5.80" fill="#EA4335"/>
    <circle class="node" cx="485.33" cy="36.46" r="5.80" fill="#4285F4"/>
    <circle class="node" cx="531.04" cy="47.69" r="5.80" fill="#4285F4"/>
    <circle class="node" cx="566.45" cy="40.09" r="5.80" fill="#4285F4"/>
    <circle class="node" cx="615.89" cy="47.90" r="5.80" fill="#4285F4"/>
    <circle class="node" cx="661.75" cy="47.55" r="5.80" fill="#EA4335"/>
    <circle class="node" cx="693.01" cy="39.48" r="5.80" fill="#4285F4"/>
    <circle class="node" cx="787.24" cy="34.72" r="5.80" fill="#34A853"/>
    <circle class="node" cx="814.17" cy="36.18" r="5.80" fill="#4285F4"/>
    <circle class="node" cx="856.20" cy="40.73" r="5.80" fill="#FBBC05"/>
    <circle class="node" cx="903.60" cy="36.73" r="5.80" fill="#4285F4"/>
    <circle class="node" cx="934.07" cy="39.54" r="5.80" fill="#4285F4"/>
    <circle class="node" cx="981.65" cy="42.19" r="5.80" fill="#FBBC05"/>
    <circle class="node" cx="1033.16" cy="44.43" r="5.80" fill="#4285F4"/>
    <circle class="node" cx="1066.28" cy="43.12" r="5.80" fill="#4285F4"/>
    <circle class="node" cx="1110.17" cy="32.97" r="5.80" fill="#4285F4"/>
    <circle class="node" cx="-1.94" cy="80.18" r="5.80" fill="#4285F4"/>
    <circle class="node" cx="33.86" cy="84.42" r="5.80" fill="#4285F4"/>
    <circle class="node" cx="74.12" cy="74.21" r="5.80" fill="#34A853"/>
    <circle class="node" cx="117.76" cy="75.92" r="5.80" fill="#4285F4"/>
    <circle class="node" cx="238.83" cy="79.54" r="5.80" fill="#4285F4"/>
    <circle class="node" cx="278.46" cy="88.74" r="5.80" fill="#4285F4"/>
    <circle class="node" cx="330.05" cy="75.67" r="5.80" fill="#4285F4"/>
    <circle class="node" cx="364.54" cy="79.25" r="5.80" fill="#FBBC05"/>
    <circle class="node" cx="525.55" cy="74.84" r="5.80" fill="#4285F4"/>
    <circle class="node" cx="571.17" cy="77.77" r="5.80" fill="#4285F4"/>
    <circle class="node" cx="620.92" cy="75.91" r="5.80" fill="#34A853"/>
    <circle class="node" cx="647.42" cy="90.12" r="5.80" fill="#EA4335"/>
    <circle class="node" cx="697.51" cy="75.64" r="5.80" fill="#4285F4"/>
    <circle class="node" cx="826.54" cy="85.53" r="5.80" fill="#4285F4"/>
    <circle class="node" cx="856.70" cy="79.60" r="5.80" fill="#FBBC05"/>
    <circle class="node" cx="896.01" cy="86.89" r="5.80" fill="#FBBC05"/>
    <circle class="node" cx="943.59" cy="87.02" r="5.80" fill="#4285F4"/>
    <circle class="node" cx="980.93" cy="77.01" r="5.80" fill="#4285F4"/>
    <circle class="node" cx="1030.61" cy="90.73" r="5.80" fill="#4285F4"/>
    <circle class="node" cx="1072.35" cy="87.51" r="5.80" fill="#4285F4"/>
    <circle class="node" cx="1112.73" cy="86.32" r="5.80" fill="#FBBC05"/>
    <circle class="node" cx="-8.50" cy="119.03" r="5.80" fill="#4285F4"/>
    <circle class="node" cx="36.67" cy="126.47" r="5.80" fill="#EA4335"/>
    <circle class="node" cx="90.22" cy="122.05" r="5.80" fill="#4285F4"/>
    <circle class="node" cx="130.87" cy="131.78" r="5.80" fill="#4285F4"/>
    <circle class="node" cx="172.19" cy="120.56" r="5.80" fill="#34A853"/>
    <circle class="node" cx="199.97" cy="118.08" r="5.80" fill="#4285F4"/>
    <circle class="node" cx="240.54" cy="117.68" r="5.80" fill="#4285F4"/>
    <circle class="node" cx="289.23" cy="130.21" r="5.80" fill="#4285F4"/>
    <circle class="node" cx="334.13" cy="122.63" r="5.80" fill="#4285F4"/>
    <circle class="node" cx="371.75" cy="128.39" r="5.80" fill="#4285F4"/>
    <circle class="node" cx="402.53" cy="125.89" r="5.80" fill="#4285F4"/>
    <circle class="node" cx="458.38" cy="128.08" r="5.80" fill="#4285F4"/>
    <circle class="node" cx="496.50" cy="122.60" r="5.80" fill="#4285F4"/>
    <circle class="node" cx="527.21" cy="128.20" r="5.80" fill="#4285F4"/>
    <circle class="node" cx="570.99" cy="128.41" r="5.80" fill="#4285F4"/>
    <circle class="node" cx="623.49" cy="121.13" r="5.80" fill="#4285F4"/>
    <circle class="node" cx="654.22" cy="131.04" r="5.80" fill="#4285F4"/>
    <circle class="node" cx="701.05" cy="117.06" r="5.80" fill="#4285F4"/>
    <circle class="node" cx="813.63" cy="128.88" r="5.80" fill="#4285F4"/>
    <circle class="node" cx="869.65" cy="125.83" r="5.80" fill="#EA4335"/>
    <circle class="node" cx="899.31" cy="123.88" r="5.80" fill="#4285F4"/>
    <circle class="node" cx="936.36" cy="114.26" r="5.80" fill="#EA4335"/>
    <circle class="node" cx="992.48" cy="125.69" r="5.80" fill="#4285F4"/>
    <circle class="node" cx="1025.48" cy="130.81" r="5.80" fill="#4285F4"/>
    <circle class="node" cx="1064.81" cy="129.69" r="5.80" fill="#34A853"/>
    <circle class="node" cx="1112.87" cy="117.80" r="5.80" fill="#4285F4"/>
    <circle class="node" cx="-4.33" cy="162.54" r="5.80" fill="#4285F4"/>
    <circle class="node" cx="34.36" cy="171.38" r="5.80" fill="#4285F4"/>
    <circle class="node" cx="79.37" cy="163.25" r="5.80" fill="#4285F4"/>
    <circle class="node" cx="124.50" cy="171.28" r="5.80" fill="#34A853"/>
    <circle class="node" cx="162.57" cy="171.52" r="5.80" fill="#4285F4"/>
    <circle class="node" cx="205.03" cy="164.57" r="5.80" fill="#FBBC05"/>
    <circle class="node" cx="246.42" cy="155.34" r="5.80" fill="#4285F4"/>
    <circle class="node" cx="285.92" cy="158.30" r="5.80" fill="#4285F4"/>
    <circle class="node" cx="319.07" cy="169.39" r="5.80" fill="#4285F4"/>
    <circle class="node" cx="363.10" cy="163.52" r="5.80" fill="#4285F4"/>
    <circle class="node" cx="414.05" cy="165.02" r="5.80" fill="#4285F4"/>
    <circle class="node" cx="447.87" cy="164.33" r="5.80" fill="#4285F4"/>
    <circle class="node" cx="493.00" cy="169.12" r="5.80" fill="#4285F4"/>
    <circle class="node" cx="525.91" cy="165.09" r="5.80" fill="#34A853"/>
    <circle class="node" cx="569.47" cy="159.98" r="5.80" fill="#4285F4"/>
    <circle class="node" cx="619.90" cy="164.14" r="5.80" fill="#34A853"/>
    <circle class="node" cx="657.11" cy="168.68" r="5.80" fill="#34A853"/>
    <circle class="node" cx="704.42" cy="162.98" r="5.80" fill="#34A853"/>
    <circle class="node" cx="740.03" cy="164.10" r="5.80" fill="#4285F4"/>
    <circle class="node" cx="779.22" cy="167.47" r="5.80" fill="#34A853"/>
    <circle class="node" cx="819.14" cy="164.60" r="5.80" fill="#EA4335"/>
    <circle class="node" cx="860.60" cy="171.95" r="5.80" fill="#4285F4"/>
    <circle class="node" cx="905.59" cy="170.78" r="5.80" fill="#4285F4"/>
    <circle class="node" cx="950.96" cy="159.67" r="5.80" fill="#4285F4"/>
    <circle class="node" cx="985.07" cy="171.98" r="5.80" fill="#EA4335"/>
    <circle class="node" cx="1031.12" cy="157.47" r="5.80" fill="#4285F4"/>
    <circle class="node" cx="1059.19" cy="162.96" r="5.80" fill="#4285F4"/>
    <circle class="node" cx="1099.31" cy="159.33" r="5.80" fill="#4285F4"/>
    <circle class="node" cx="-6.22" cy="208.89" r="5.80" fill="#4285F4"/>
    <circle class="node" cx="43.88" cy="198.57" r="5.80" fill="#34A853"/>
    <circle class="node" cx="88.89" cy="213.42" r="5.80" fill="#4285F4"/>
    <circle class="node" cx="117.95" cy="213.15" r="5.80" fill="#EA4335"/>
    <circle class="node" cx="162.17" cy="204.77" r="5.80" fill="#4285F4"/>
    <circle class="node" cx="213.82" cy="210.98" r="5.80" fill="#34A853"/>
    <circle class="node" cx="239.91" cy="203.77" r="5.80" fill="#4285F4"/>
    <circle class="node" cx="287.28" cy="202.10" r="5.80" fill="#4285F4"/>
    <circle class="node" cx="322.52" cy="201.73" r="5.80" fill="#4285F4"/>
    <circle class="node" cx="373.00" cy="196.35" r="5.80" fill="#4285F4"/>
    <circle class="node" cx="410.97" cy="203.93" r="5.80" fill="#4285F4"/>
    <circle class="node" cx="442.33" cy="201.97" r="5.80" fill="#4285F4"/>
    <circle class="node" cx="494.23" cy="205.22" r="5.80" fill="#4285F4"/>
    <circle class="node" cx="525.16" cy="213.73" r="5.80" fill="#EA4335"/>
    <circle class="node" cx="647.71" cy="210.02" r="5.80" fill="#4285F4"/>
    <circle class="node" cx="692.87" cy="198.33" r="5.80" fill="#4285F4"/>
    <circle class="node" cx="736.60" cy="212.41" r="5.80" fill="#4285F4"/>
    <circle class="node" cx="784.74" cy="200.65" r="5.80" fill="#34A853"/>
    <circle class="node" cx="813.69" cy="212.55" r="5.80" fill="#EA4335"/>
    <circle class="node" cx="862.27" cy="208.61" r="5.80" fill="#4285F4"/>
    <circle class="node" cx="894.61" cy="197.04" r="5.80" fill="#4285F4"/>
    <circle class="node" cx="946.39" cy="203.66" r="5.80" fill="#34A853"/>
    <circle class="node" cx="976.30" cy="212.89" r="5.80" fill="#4285F4"/>
    <circle class="node" cx="1027.42" cy="210.43" r="5.80" fill="#EA4335"/>
    <circle class="node" cx="1058.51" cy="211.41" r="5.80" fill="#4285F4"/>
    <circle class="node" cx="1099.20" cy="211.53" r="5.80" fill="#4285F4"/>
    <circle class="node" cx="-4.18" cy="239.33" r="5.80" fill="#4285F4"/>
    <circle class="node" cx="41.48" cy="241.29" r="5.80" fill="#FBBC05"/>
    <circle class="node" cx="74.97" cy="239.91" r="5.80" fill="#4285F4"/>
    <circle class="node" cx="114.91" cy="240.63" r="5.80" fill="#4285F4"/>
    <circle class="node" cx="160.62" cy="242.49" r="5.80" fill="#EA4335"/>
    <circle class="node" cx="209.67" cy="242.22" r="5.80" fill="#4285F4"/>
    <circle class="node" cx="246.00" cy="240.20" r="5.80" fill="#34A853"/>
    <circle class="node" cx="284.25" cy="237.33" r="5.80" fill="#4285F4"/>
    <circle class="node" cx="323.51" cy="237.28" r="5.80" fill="#4285F4"/>
    <circle class="node" cx="373.20" cy="246.92" r="5.80" fill="#4285F4"/>
    <circle class="node" cx="404.41" cy="245.55" r="5.80" fill="#FBBC05"/>
    <circle class="node" cx="458.82" cy="238.91" r="5.80" fill="#4285F4"/>
    <circle class="node" cx="497.74" cy="244.78" r="5.80" fill="#4285F4"/>
    <circle class="node" cx="700.72" cy="248.45" r="5.80" fill="#4285F4"/>
    <circle class="node" cx="736.28" cy="243.26" r="5.80" fill="#EA4335"/>
    <circle class="node" cx="770.98" cy="239.34" r="5.80" fill="#EA4335"/>
    <circle class="node" cx="812.27" cy="250.34" r="5.80" fill="#4285F4"/>
    <circle class="node" cx="949.67" cy="249.07" r="5.80" fill="#4285F4"/>
    <circle class="node" cx="980.07" cy="241.36" r="5.80" fill="#4285F4"/>
    <circle class="node" cx="1021.28" cy="245.27" r="5.80" fill="#4285F4"/>
    <circle class="node" cx="1059.84" cy="245.02" r="5.80" fill="#4285F4"/>
    <circle class="node" cx="1102.74" cy="254.31" r="5.80" fill="#4285F4"/>
    <circle class="node" cx="-3.43" cy="284.42" r="5.80" fill="#4285F4"/>
    <circle class="node" cx="32.02" cy="284.87" r="5.80" fill="#34A853"/>
    <circle class="node" cx="81.54" cy="287.05" r="5.80" fill="#4285F4"/>
    <circle class="node" cx="117.62" cy="287.09" r="5.80" fill="#4285F4"/>
    <circle class="node" cx="155.09" cy="282.76" r="5.80" fill="#EA4335"/>
    <circle class="node" cx="197.62" cy="285.19" r="5.80" fill="#4285F4"/>
    <circle class="node" cx="237.75" cy="278.40" r="5.80" fill="#4285F4"/>
    <circle class="node" cx="413.89" cy="293.82" r="5.80" fill="#4285F4"/>
    <circle class="node" cx="449.01" cy="283.87" r="5.80" fill="#FBBC05"/>
    <circle class="node" cx="500.73" cy="280.69" r="5.80" fill="#FBBC05"/>
    <circle class="node" cx="537.03" cy="289.58" r="5.80" fill="#4285F4"/>
    <circle class="node" cx="660.21" cy="292.62" r="5.80" fill="#34A853"/>
    <circle class="node" cx="690.51" cy="287.43" r="5.80" fill="#FBBC05"/>
    <circle class="node" cx="738.08" cy="293.03" r="5.80" fill="#4285F4"/>
    <circle class="node" cx="784.48" cy="292.88" r="5.80" fill="#4285F4"/>
    <circle class="node" cx="936.40" cy="284.49" r="5.80" fill="#4285F4"/>
    <circle class="node" cx="976.89" cy="293.04" r="5.80" fill="#FBBC05"/>
    <circle class="node" cx="1026.05" cy="289.30" r="5.80" fill="#4285F4"/>
    <circle class="node" cx="1068.27" cy="290.25" r="5.80" fill="#34A853"/>
    <circle class="node" cx="1106.81" cy="278.06" r="5.80" fill="#4285F4"/>
    <circle class="node" cx="2.87" cy="320.19" r="5.80" fill="#4285F4"/>
    <circle class="node" cx="45.26" cy="323.54" r="5.80" fill="#4285F4"/>
    <circle class="node" cx="74.34" cy="323.78" r="5.80" fill="#FBBC05"/>
    <circle class="node" cx="127.13" cy="322.69" r="5.80" fill="#4285F4"/>
    <circle class="node" cx="168.32" cy="336.56" r="5.80" fill="#FBBC05"/>
    <circle class="node" cx="204.89" cy="325.89" r="5.80" fill="#4285F4"/>
    <circle class="node" cx="245.62" cy="331.31" r="5.80" fill="#34A853"/>
    <circle class="node" cx="414.38" cy="324.48" r="5.80" fill="#FBBC05"/>
    <circle class="node" cx="452.22" cy="319.22" r="5.80" fill="#4285F4"/>
    <circle class="node" cx="484.09" cy="323.84" r="5.80" fill="#FBBC05"/>
    <circle class="node" cx="536.10" cy="331.46" r="5.80" fill="#EA4335"/>
    <circle class="node" cx="577.16" cy="324.24" r="5.80" fill="#4285F4"/>
    <circle class="node" cx="615.30" cy="327.36" r="5.80" fill="#4285F4"/>
    <circle class="node" cx="655.39" cy="321.13" r="5.80" fill="#4285F4"/>
    <circle class="node" cx="704.09" cy="322.59" r="5.80" fill="#EA4335"/>
    <circle class="node" cx="746.61" cy="335.85" r="5.80" fill="#4285F4"/>
    <circle class="node" cx="770.32" cy="327.26" r="5.80" fill="#EA4335"/>
    <circle class="node" cx="825.76" cy="336.43" r="5.80" fill="#4285F4"/>
    <circle class="node" cx="896.78" cy="336.02" r="5.80" fill="#34A853"/>
    <circle class="node" cx="937.79" cy="329.47" r="5.80" fill="#4285F4"/>
    <circle class="node" cx="977.55" cy="328.43" r="5.80" fill="#4285F4"/>
    <circle class="node" cx="1033.15" cy="321.39" r="5.80" fill="#34A853"/>
    <circle class="node" cx="1071.76" cy="328.16" r="5.80" fill="#4285F4"/>
    <circle class="node" cx="1113.96" cy="331.66" r="5.80" fill="#4285F4"/>
    <circle class="node" cx="-8.94" cy="368.85" r="5.80" fill="#EA4335"/>
    <circle class="node" cx="40.11" cy="365.44" r="5.80" fill="#34A853"/>
    <circle class="node" cx="75.53" cy="366.19" r="5.80" fill="#FBBC05"/>
    <circle class="node" cx="119.69" cy="375.12" r="5.80" fill="#EA4335"/>
    <circle class="node" cx="155.03" cy="373.51" r="5.80" fill="#4285F4"/>
    <circle class="node" cx="211.10" cy="362.16" r="5.80" fill="#4285F4"/>
    <circle class="node" cx="253.68" cy="372.83" r="5.80" fill="#34A853"/>
    <circle class="node" cx="294.23" cy="365.22" r="5.80" fill="#34A853"/>
    <circle class="node" cx="377.98" cy="370.61" r="5.80" fill="#4285F4"/>
    <circle class="node" cx="407.49" cy="367.70" r="5.80" fill="#4285F4"/>
    <circle class="node" cx="446.95" cy="360.87" r="5.80" fill="#4285F4"/>
    <circle class="node" cx="484.83" cy="375.02" r="5.80" fill="#4285F4"/>
    <circle class="node" cx="529.14" cy="376.84" r="5.80" fill="#4285F4"/>
    <circle class="node" cx="569.49" cy="364.78" r="5.80" fill="#4285F4"/>
    <circle class="node" cx="615.20" cy="363.42" r="5.80" fill="#EA4335"/>
    <circle class="node" cx="653.72" cy="377.21" r="5.80" fill="#4285F4"/>
    <circle class="node" cx="703.92" cy="374.62" r="5.80" fill="#FBBC05"/>
    <circle class="node" cx="740.36" cy="376.44" r="5.80" fill="#4285F4"/>
    <circle class="node" cx="786.93" cy="369.89" r="5.80" fill="#4285F4"/>
    <circle class="node" cx="823.95" cy="360.89" r="5.80" fill="#4285F4"/>
    <circle class="node" cx="865.18" cy="368.12" r="5.80" fill="#4285F4"/>
    <circle class="node" cx="906.55" cy="371.60" r="5.80" fill="#4285F4"/>
    <circle class="node" cx="939.15" cy="360.88" r="5.80" fill="#34A853"/>
    <circle class="node" cx="991.68" cy="362.29" r="5.80" fill="#4285F4"/>
    <circle class="node" cx="1024.50" cy="366.19" r="5.80" fill="#34A853"/>
    <circle class="node" cx="1062.36" cy="373.30" r="5.80" fill="#4285F4"/>
    <circle class="node" cx="1115.57" cy="364.68" r="5.80" fill="#4285F4"/>
    <circle class="node" cx="785.71" cy="401.39" r="5.80" fill="#4285F4"/>
    <circle class="node" cx="903.57" cy="401.00" r="5.80" fill="#4285F4"/>
    <circle class="node" cx="961.80" cy="266.87" r="5.4" fill="#4285F4"/>
    <circle class="node" cx="952.21" cy="329.89" r="5.4" fill="#4285F4"/>
    <circle class="node" cx="971.72" cy="250.74" r="5.4" fill="#4285F4"/>
    <circle class="node" cx="938.48" cy="294.62" r="5.4" fill="#EA4335"/>
    <circle class="node" cx="939.77" cy="289.76" r="5.4" fill="#4285F4"/>
    <circle class="node" cx="971.05" cy="287.06" r="5.4" fill="#4285F4"/>
    <circle class="node" cx="912.64" cy="296.98" r="5.4" fill="#4285F4"/>
    <circle class="node" cx="935.28" cy="285.09" r="5.4" fill="#FBBC05"/>
    <circle class="node" cx="926.38" cy="243.43" r="5.4" fill="#4285F4"/>
    <circle class="node" cx="908.82" cy="269.57" r="5.4" fill="#4285F4"/>
    <circle class="node" cx="921.31" cy="229.15" r="5.4" fill="#FBBC05"/>
    <circle class="node" cx="969.63" cy="249.47" r="5.4" fill="#4285F4"/>
    <circle class="node" cx="922.54" cy="292.03" r="5.4" fill="#4285F4"/>
    <circle class="node" cx="894.71" cy="304.30" r="5.4" fill="#FBBC05"/>
    <circle class="node" cx="921.28" cy="295.40" r="5.4" fill="#FBBC05"/>
    <circle class="node" cx="928.49" cy="286.45" r="5.4" fill="#FBBC05"/>
    <circle class="node" cx="949.04" cy="278.55" r="5.4" fill="#4285F4"/>
    <circle class="node" cx="901.37" cy="246.92" r="5.4" fill="#4285F4"/>
    <circle class="node" cx="939.74" cy="314.73" r="5.4" fill="#FBBC05"/>
    <circle class="node" cx="927.15" cy="291.96" r="5.4" fill="#FBBC05"/>
    <circle class="node" cx="945.05" cy="291.29" r="5.4" fill="#4285F4"/>
    <circle class="node" cx="965.12" cy="241.90" r="5.4" fill="#4285F4"/>
    <circle class="node" cx="949.43" cy="273.05" r="5.4" fill="#4285F4"/>
    <circle class="node" cx="932.93" cy="257.11" r="5.4" fill="#4285F4"/>
    <circle class="node" cx="920.62" cy="252.21" r="5.4" fill="#4285F4"/>
    <circle class="node" cx="919.69" cy="326.92" r="5.4" fill="#FBBC05"/>
  </g>
</svg>
