<?xml version="1.0" encoding="utf-8" standalone="no"?>
<!DOCTYPE svg PUBLIC "-//W3C//DTD SVG 1.1//EN"
  "http://www.w3.org/Graphics/SVG/1.1/DTD/svg11.dtd">
<svg xmlns:xlink="http://www.w3.org/1999/xlink" width="864pt" height="792pt" viewBox="0 0 864 792" xmlns="http://www.w3.org/2000/svg" version="1.1">
 <metadata>
  <rdf:RDF xmlns:dc="http://purl.org/dc/elements/1.1/" xmlns:cc="http://creativecommons.org/ns#" xmlns:rdf="http://www.w3.org/1999/02/22-rdf-syntax-ns#">
   <cc:Work>
    <dc:type rdf:resource="http://purl.org/dc/dcmitype/StillImage"/>
    <dc:date>2026-05-22T12:36:57.369765</dc:date>
    <dc:format>image/svg+xml</dc:format>
    <dc:creator>
     <cc:Agent>
      <dc:title>Matplotlib v3.10.0, https://matplotlib.org/</dc:title>
     </cc:Agent>
    </dc:creator>
   </cc:Work>
  </rdf:RDF>
 </metadata>
 <defs>
  <style type="text/css">*{stroke-linejoin: round; stroke-linecap: butt}</style>
 </defs>
 <g id="figure_1">
  <g id="patch_1">
   <path d="M 0 792 
L 864 792 
L 864 0 
L 0 0 
z
" style="fill: #ffffff"/>
  </g>
  <g id="axes_1">
   <g id="patch_2">
    <path d="M 88.76 710.1925 
L 844.56 710.1925 
L 844.56 19.44 
L 88.76 19.44 
z
" style="fill: #ffffff"/>
   </g>
   <g id="FillBetweenPolyCollection_1">
    <defs>
     <path id="m4f11947891" d="M 88.76 -91.065856 
L 88.76 -81.8075 
L 90.654236 -81.8075 
L 92.548471 -81.8075 
L 94.442707 -81.8075 
L 96.336942 -81.8075 
L 98.231178 -81.8075 
L 100.125414 -81.8075 
L 102.019649 -81.8075 
L 103.913885 -81.8075 
L 105.80812 -81.8075 
L 107.702356 -81.8075 
L 109.596591 -81.8075 
L 111.490827 -81.8075 
L 113.385063 -81.8075 
L 115.279298 -81.8075 
L 117.173534 -81.8075 
L 119.067769 -81.8075 
L 120.962005 -81.8075 
L 122.856241 -81.8075 
L 124.750476 -81.8075 
L 126.644712 -81.8075 
L 128.538947 -81.8075 
L 130.433183 -81.8075 
L 132.327419 -81.8075 
L 134.221654 -81.8075 
L 136.11589 -81.8075 
L 138.010125 -81.8075 
L 139.904361 -81.8075 
L 141.798596 -81.8075 
L 143.692832 -81.8075 
L 145.587068 -81.8075 
L 147.481303 -81.8075 
L 149.375539 -81.8075 
L 151.269774 -81.8075 
L 153.16401 -81.8075 
L 155.058246 -81.8075 
L 156.952481 -81.8075 
L 158.846717 -81.8075 
L 160.740952 -81.8075 
L 162.635188 -81.8075 
L 164.529424 -81.8075 
L 166.423659 -81.8075 
L 168.317895 -81.8075 
L 170.21213 -81.8075 
L 172.106366 -81.8075 
L 174.000602 -81.8075 
L 175.894837 -81.8075 
L 177.789073 -81.8075 
L 179.683308 -81.8075 
L 181.577544 -81.8075 
L 183.471779 -81.8075 
L 185.366015 -81.8075 
L 187.260251 -81.8075 
L 189.154486 -81.8075 
L 191.048722 -81.8075 
L 192.942957 -81.8075 
L 194.837193 -81.8075 
L 196.731429 -81.8075 
L 198.625664 -81.8075 
L 200.5199 -81.8075 
L 202.414135 -81.8075 
L 204.308371 -81.8075 
L 206.202607 -81.8075 
L 208.096842 -81.8075 
L 209.991078 -81.8075 
L 211.885313 -81.8075 
L 213.779549 -81.8075 
L 215.673784 -81.8075 
L 217.56802 -81.8075 
L 219.462256 -81.8075 
L 221.356491 -81.8075 
L 223.250727 -81.8075 
L 225.144962 -81.8075 
L 227.039198 -81.8075 
L 228.933434 -81.8075 
L 230.827669 -81.8075 
L 232.721905 -81.8075 
L 234.61614 -81.8075 
L 236.510376 -81.8075 
L 238.404612 -81.8075 
L 240.298847 -81.8075 
L 242.193083 -81.8075 
L 244.087318 -81.8075 
L 245.981554 -81.8075 
L 247.875789 -81.8075 
L 249.770025 -81.8075 
L 251.664261 -81.8075 
L 253.558496 -81.8075 
L 255.452732 -81.8075 
L 257.346967 -81.8075 
L 259.241203 -81.8075 
L 261.135439 -81.8075 
L 263.029674 -81.8075 
L 264.92391 -81.8075 
L 266.818145 -81.8075 
L 268.712381 -81.8075 
L 270.606617 -81.8075 
L 272.500852 -81.8075 
L 274.395088 -81.8075 
L 276.289323 -81.8075 
L 278.183559 -81.8075 
L 280.077794 -81.8075 
L 281.97203 -81.8075 
L 283.866266 -81.8075 
L 285.760501 -81.8075 
L 287.654737 -81.8075 
L 289.548972 -81.8075 
L 291.443208 -81.8075 
L 293.337444 -81.8075 
L 295.231679 -81.8075 
L 297.125915 -81.8075 
L 299.02015 -81.8075 
L 300.914386 -81.8075 
L 302.808622 -81.8075 
L 304.702857 -81.8075 
L 306.597093 -81.8075 
L 308.491328 -81.8075 
L 310.385564 -81.8075 
L 312.279799 -81.8075 
L 314.174035 -81.8075 
L 316.068271 -81.8075 
L 317.962506 -81.8075 
L 319.856742 -81.8075 
L 321.750977 -81.8075 
L 323.645213 -81.8075 
L 325.539449 -81.8075 
L 327.433684 -81.8075 
L 329.32792 -81.8075 
L 331.222155 -81.8075 
L 333.116391 -81.8075 
L 335.010627 -81.8075 
L 336.904862 -81.8075 
L 338.799098 -81.8075 
L 340.693333 -81.8075 
L 342.587569 -81.8075 
L 344.481805 -81.8075 
L 346.37604 -81.8075 
L 348.270276 -81.8075 
L 350.164511 -81.8075 
L 352.058747 -81.8075 
L 353.952982 -81.8075 
L 355.847218 -81.8075 
L 357.741454 -81.8075 
L 359.635689 -81.8075 
L 361.529925 -81.8075 
L 363.42416 -81.8075 
L 365.318396 -81.8075 
L 367.212632 -81.8075 
L 369.106867 -81.8075 
L 371.001103 -81.8075 
L 372.895338 -81.8075 
L 374.789574 -81.8075 
L 376.68381 -81.8075 
L 378.578045 -81.8075 
L 380.472281 -81.8075 
L 382.366516 -81.8075 
L 384.260752 -81.8075 
L 386.154987 -81.8075 
L 388.049223 -81.8075 
L 389.943459 -81.8075 
L 391.837694 -81.8075 
L 393.73193 -81.8075 
L 395.626165 -81.8075 
L 397.520401 -81.8075 
L 399.414637 -81.8075 
L 401.308872 -81.8075 
L 403.203108 -81.8075 
L 405.097343 -81.8075 
L 406.991579 -81.8075 
L 408.885815 -81.8075 
L 410.78005 -81.8075 
L 412.674286 -81.8075 
L 414.568521 -81.8075 
L 416.462757 -81.8075 
L 418.356992 -81.8075 
L 420.251228 -81.8075 
L 422.145464 -81.8075 
L 424.039699 -81.8075 
L 425.933935 -81.8075 
L 427.82817 -81.8075 
L 429.722406 -81.8075 
L 431.616642 -81.8075 
L 433.510877 -81.8075 
L 435.405113 -81.8075 
L 437.299348 -81.8075 
L 439.193584 -81.8075 
L 441.08782 -81.8075 
L 442.982055 -81.8075 
L 444.876291 -81.8075 
L 446.770526 -81.8075 
L 448.664762 -81.8075 
L 450.558997 -81.8075 
L 452.453233 -81.8075 
L 454.347469 -81.8075 
L 456.241704 -81.8075 
L 458.13594 -81.8075 
L 460.030175 -81.8075 
L 461.924411 -81.8075 
L 463.818647 -81.8075 
L 465.712882 -81.8075 
L 467.607118 -81.8075 
L 469.501353 -81.8075 
L 471.395589 -81.8075 
L 473.289825 -81.8075 
L 475.18406 -81.8075 
L 477.078296 -81.8075 
L 478.972531 -81.8075 
L 480.866767 -81.8075 
L 482.761003 -81.8075 
L 484.655238 -81.8075 
L 486.549474 -81.8075 
L 488.443709 -81.8075 
L 490.337945 -81.8075 
L 492.23218 -81.8075 
L 494.126416 -81.8075 
L 496.020652 -81.8075 
L 497.914887 -81.8075 
L 499.809123 -81.8075 
L 501.703358 -81.8075 
L 503.597594 -81.8075 
L 505.49183 -81.8075 
L 507.386065 -81.8075 
L 509.280301 -81.8075 
L 511.174536 -81.8075 
L 513.068772 -81.8075 
L 514.963008 -81.8075 
L 516.857243 -81.8075 
L 518.751479 -81.8075 
L 520.645714 -81.8075 
L 522.53995 -81.8075 
L 524.434185 -81.8075 
L 526.328421 -81.8075 
L 528.222657 -81.8075 
L 530.116892 -81.8075 
L 532.011128 -81.8075 
L 533.905363 -81.8075 
L 535.799599 -81.8075 
L 537.693835 -81.8075 
L 539.58807 -81.8075 
L 541.482306 -81.8075 
L 543.376541 -81.8075 
L 545.270777 -81.8075 
L 547.165013 -81.8075 
L 549.059248 -81.8075 
L 550.953484 -81.8075 
L 552.847719 -81.8075 
L 554.741955 -81.8075 
L 556.63619 -81.8075 
L 558.530426 -81.8075 
L 560.424662 -81.8075 
L 562.318897 -81.8075 
L 564.213133 -81.8075 
L 566.107368 -81.8075 
L 568.001604 -81.8075 
L 569.89584 -81.8075 
L 571.790075 -81.8075 
L 573.684311 -81.8075 
L 575.578546 -81.8075 
L 577.472782 -81.8075 
L 579.367018 -81.8075 
L 581.261253 -81.8075 
L 583.155489 -81.8075 
L 585.049724 -81.8075 
L 586.94396 -81.8075 
L 588.838195 -81.8075 
L 590.732431 -81.8075 
L 592.626667 -81.8075 
L 594.520902 -81.8075 
L 596.415138 -81.8075 
L 598.309373 -81.8075 
L 600.203609 -81.8075 
L 602.097845 -81.8075 
L 603.99208 -81.8075 
L 605.886316 -81.8075 
L 607.780551 -81.8075 
L 609.674787 -81.8075 
L 611.569023 -81.8075 
L 613.463258 -81.8075 
L 615.357494 -81.8075 
L 617.251729 -81.8075 
L 619.145965 -81.8075 
L 621.040201 -81.8075 
L 622.934436 -81.8075 
L 624.828672 -81.8075 
L 626.722907 -81.8075 
L 628.617143 -81.8075 
L 630.511378 -81.8075 
L 632.405614 -81.8075 
L 634.29985 -81.8075 
L 636.194085 -81.8075 
L 638.088321 -81.8075 
L 639.982556 -81.8075 
L 641.876792 -81.8075 
L 643.771028 -81.8075 
L 645.665263 -81.8075 
L 647.559499 -81.8075 
L 649.453734 -81.8075 
L 651.34797 -81.8075 
L 653.242206 -81.8075 
L 655.136441 -81.8075 
L 657.030677 -81.8075 
L 658.924912 -81.8075 
L 660.819148 -81.8075 
L 662.713383 -81.8075 
L 664.607619 -81.8075 
L 666.501855 -81.8075 
L 668.39609 -81.8075 
L 670.290326 -81.8075 
L 672.184561 -81.8075 
L 674.078797 -81.8075 
L 675.973033 -81.8075 
L 677.867268 -81.8075 
L 679.761504 -81.8075 
L 681.655739 -81.8075 
L 683.549975 -81.8075 
L 685.444211 -81.8075 
L 687.338446 -81.8075 
L 689.232682 -81.8075 
L 691.126917 -81.8075 
L 693.021153 -81.8075 
L 694.915388 -81.8075 
L 696.809624 -81.8075 
L 698.70386 -81.8075 
L 700.598095 -81.8075 
L 702.492331 -81.8075 
L 704.386566 -81.8075 
L 706.280802 -81.8075 
L 708.175038 -81.8075 
L 710.069273 -81.8075 
L 711.963509 -81.8075 
L 713.857744 -81.8075 
L 715.75198 -81.8075 
L 717.646216 -81.8075 
L 719.540451 -81.8075 
L 721.434687 -81.8075 
L 723.328922 -81.8075 
L 725.223158 -81.8075 
L 727.117393 -81.8075 
L 729.011629 -81.8075 
L 730.905865 -81.8075 
L 732.8001 -81.8075 
L 734.694336 -81.8075 
L 736.588571 -81.8075 
L 738.482807 -81.8075 
L 740.377043 -81.8075 
L 742.271278 -81.8075 
L 744.165514 -81.8075 
L 746.059749 -81.8075 
L 747.953985 -81.8075 
L 749.848221 -81.8075 
L 751.742456 -81.8075 
L 753.636692 -81.8075 
L 755.530927 -81.8075 
L 757.425163 -81.8075 
L 759.319398 -81.8075 
L 761.213634 -81.8075 
L 763.10787 -81.8075 
L 765.002105 -81.8075 
L 766.896341 -81.8075 
L 768.790576 -81.8075 
L 770.684812 -81.8075 
L 772.579048 -81.8075 
L 774.473283 -81.8075 
L 776.367519 -81.8075 
L 778.261754 -81.8075 
L 780.15599 -81.8075 
L 782.050226 -81.8075 
L 783.944461 -81.8075 
L 785.838697 -81.8075 
L 787.732932 -81.8075 
L 789.627168 -81.8075 
L 791.521404 -81.8075 
L 793.415639 -81.8075 
L 795.309875 -81.8075 
L 797.20411 -81.8075 
L 799.098346 -81.8075 
L 800.992581 -81.8075 
L 802.886817 -81.8075 
L 804.781053 -81.8075 
L 806.675288 -81.8075 
L 808.569524 -81.8075 
L 810.463759 -81.8075 
L 812.357995 -81.8075 
L 814.252231 -81.8075 
L 816.146466 -81.8075 
L 818.040702 -81.8075 
L 819.934937 -81.8075 
L 821.829173 -81.8075 
L 823.723409 -81.8075 
L 825.617644 -81.8075 
L 827.51188 -81.8075 
L 829.406115 -81.8075 
L 831.300351 -81.8075 
L 833.194586 -81.8075 
L 835.088822 -81.8075 
L 836.983058 -81.8075 
L 838.877293 -81.8075 
L 840.771529 -81.8075 
L 842.665764 -81.8075 
L 844.56 -81.8075 
L 844.56 -115.229165 
L 844.56 -115.229165 
L 842.665764 -116.117631 
L 840.771529 -117.024356 
L 838.877293 -117.950514 
L 836.983058 -118.897346 
L 835.088822 -119.866159 
L 833.194586 -120.85832 
L 831.300351 -121.875246 
L 829.406115 -122.918404 
L 827.51188 -123.989298 
L 825.617644 -125.089464 
L 823.723409 -126.220459 
L 821.829173 -127.383853 
L 819.934937 -128.581218 
L 818.040702 -129.814118 
L 816.146466 -131.084098 
L 814.252231 -132.39267 
L 812.357995 -133.741306 
L 810.463759 -135.131421 
L 808.569524 -136.564361 
L 806.675288 -138.041394 
L 804.781053 -139.563693 
L 802.886817 -141.132327 
L 800.992581 -142.748245 
L 799.098346 -144.412266 
L 797.20411 -146.125068 
L 795.309875 -147.887172 
L 793.415639 -149.698937 
L 791.521404 -151.560543 
L 789.627168 -153.471989 
L 787.732932 -155.433075 
L 785.838697 -157.443401 
L 783.944461 -159.502357 
L 782.050226 -161.609116 
L 780.15599 -163.762631 
L 778.261754 -165.961628 
L 776.367519 -168.204608 
L 774.473283 -170.48984 
L 772.579048 -172.815363 
L 770.684812 -175.178988 
L 768.790576 -177.578299 
L 766.896341 -180.010657 
L 765.002105 -182.473205 
L 763.10787 -184.962873 
L 761.213634 -187.476388 
L 759.319398 -190.010281 
L 757.425163 -192.560898 
L 755.530927 -195.12441 
L 753.636692 -197.696828 
L 751.742456 -200.274012 
L 749.848221 -202.851689 
L 747.953985 -205.425468 
L 746.059749 -207.990854 
L 744.165514 -210.543267 
L 742.271278 -213.078059 
L 740.377043 -215.59053 
L 738.482807 -218.075948 
L 736.588571 -220.529568 
L 734.694336 -222.94665 
L 732.8001 -225.322476 
L 730.905865 -227.652374 
L 729.011629 -229.93173 
L 727.117393 -232.156011 
L 725.223158 -234.320779 
L 723.328922 -236.421714 
L 721.434687 -238.454624 
L 719.540451 -240.415466 
L 717.646216 -242.300359 
L 715.75198 -244.105598 
L 713.857744 -245.82767 
L 711.963509 -247.463263 
L 710.069273 -249.009279 
L 708.175038 -250.462846 
L 706.280802 -251.821322 
L 704.386566 -253.082307 
L 702.492331 -254.243651 
L 700.598095 -255.303454 
L 698.70386 -256.260074 
L 696.809624 -257.112129 
L 694.915388 -257.858499 
L 693.021153 -258.498328 
L 691.126917 -259.031019 
L 689.232682 -259.456238 
L 687.338446 -259.773908 
L 685.444211 -259.984207 
L 683.549975 -260.087562 
L 681.655739 -260.084644 
L 679.761504 -259.976364 
L 677.867268 -259.763864 
L 675.973033 -259.44851 
L 674.078797 -259.031885 
L 672.184561 -258.515778 
L 670.290326 -257.90218 
L 668.39609 -257.19327 
L 666.501855 -256.391408 
L 664.607619 -255.499126 
L 662.713383 -254.519117 
L 660.819148 -253.454228 
L 658.924912 -252.307446 
L 657.030677 -251.081893 
L 655.136441 -249.780817 
L 653.242206 -248.407577 
L 651.34797 -246.965642 
L 649.453734 -245.458577 
L 647.559499 -243.890038 
L 645.665263 -242.263763 
L 643.771028 -240.583564 
L 641.876792 -238.85332 
L 639.982556 -237.076973 
L 638.088321 -235.258517 
L 636.194085 -233.401996 
L 634.29985 -231.511496 
L 632.405614 -229.591142 
L 630.511378 -227.64509 
L 628.617143 -225.677526 
L 626.722907 -223.692656 
L 624.828672 -221.694711 
L 622.934436 -219.687932 
L 621.040201 -217.676576 
L 619.145965 -215.664908 
L 617.251729 -213.657194 
L 615.357494 -211.657707 
L 613.463258 -209.670716 
L 611.569023 -207.700484 
L 609.674787 -205.751269 
L 607.780551 -203.827316 
L 605.886316 -201.932856 
L 603.99208 -200.072102 
L 602.097845 -198.24925 
L 600.203609 -196.468466 
L 598.309373 -194.733894 
L 596.415138 -193.049643 
L 594.520902 -191.41979 
L 592.626667 -189.848374 
L 590.732431 -188.339388 
L 588.838195 -186.896785 
L 586.94396 -185.524464 
L 585.049724 -184.22627 
L 583.155489 -183.005994 
L 581.261253 -181.86736 
L 579.367018 -180.81403 
L 577.472782 -179.849593 
L 575.578546 -178.977565 
L 573.684311 -178.201382 
L 571.790075 -177.524399 
L 569.89584 -176.949881 
L 568.001604 -176.481005 
L 566.107368 -176.120851 
L 564.213133 -175.872401 
L 562.318897 -175.738535 
L 560.424662 -175.722023 
L 558.530426 -175.825528 
L 556.63619 -176.051598 
L 554.741955 -176.402662 
L 552.847719 -176.881031 
L 550.953484 -177.48889 
L 549.059248 -178.228297 
L 547.165013 -179.101179 
L 545.270777 -180.109331 
L 543.376541 -181.254409 
L 541.482306 -182.537934 
L 539.58807 -183.96128 
L 537.693835 -185.525679 
L 535.799599 -187.232216 
L 533.905363 -189.081825 
L 532.011128 -191.075286 
L 530.116892 -193.213227 
L 528.222657 -195.496115 
L 526.328421 -197.924259 
L 524.434185 -200.497806 
L 522.53995 -203.216736 
L 520.645714 -206.080865 
L 518.751479 -209.089839 
L 516.857243 -212.243131 
L 514.963008 -215.540043 
L 513.068772 -218.979702 
L 511.174536 -222.561058 
L 509.280301 -226.282884 
L 507.386065 -230.143773 
L 505.49183 -234.14214 
L 503.597594 -238.276218 
L 501.703358 -242.54406 
L 499.809123 -246.943537 
L 497.914887 -251.472343 
L 496.020652 -256.127991 
L 494.126416 -260.907816 
L 492.23218 -265.808978 
L 490.337945 -270.828467 
L 488.443709 -275.963099 
L 486.549474 -281.209528 
L 484.655238 -286.564244 
L 482.761003 -292.023583 
L 480.866767 -297.58373 
L 478.972531 -303.240727 
L 477.078296 -308.99048 
L 475.18406 -314.828767 
L 473.289825 -320.751246 
L 471.395589 -326.753466 
L 469.501353 -332.830874 
L 467.607118 -338.97883 
L 465.712882 -345.192612 
L 463.818647 -351.467435 
L 461.924411 -357.798457 
L 460.030175 -364.180793 
L 458.13594 -370.609527 
L 456.241704 -377.079726 
L 454.347469 -383.586454 
L 452.453233 -390.124778 
L 450.558997 -396.689787 
L 448.664762 -403.276603 
L 446.770526 -409.880389 
L 444.876291 -416.496362 
L 442.982055 -423.119807 
L 441.08782 -429.746078 
L 439.193584 -436.370616 
L 437.299348 -442.98895 
L 435.405113 -449.596708 
L 433.510877 -456.189616 
L 431.616642 -462.76351 
L 429.722406 -469.314331 
L 427.82817 -475.83813 
L 425.933935 -482.331068 
L 424.039699 -488.78941 
L 422.145464 -495.209524 
L 420.251228 -501.587876 
L 418.356992 -507.921021 
L 416.462757 -514.205594 
L 414.568521 -520.438305 
L 412.674286 -526.615919 
L 410.78005 -532.735252 
L 408.885815 -538.793148 
L 406.991579 -544.786471 
L 405.097343 -550.712083 
L 403.203108 -556.566832 
L 401.308872 -562.347529 
L 399.414637 -568.050932 
L 397.520401 -573.673728 
L 395.626165 -579.212511 
L 393.73193 -584.663768 
L 391.837694 -590.023857 
L 389.943459 -595.288989 
L 388.049223 -600.455216 
L 386.154987 -605.518409 
L 384.260752 -610.474248 
L 382.366516 -615.318206 
L 380.472281 -620.045541 
L 378.578045 -624.651284 
L 376.68381 -629.130235 
L 374.789574 -633.476954 
L 372.895338 -637.685764 
L 371.001103 -641.750748 
L 369.106867 -645.665754 
L 367.212632 -649.424401 
L 365.318396 -653.020088 
L 363.42416 -656.446006 
L 361.529925 -659.695154 
L 359.635689 -662.760358 
L 357.741454 -665.634291 
L 355.847218 -668.309498 
L 353.952982 -670.778422 
L 352.058747 -673.033437 
L 350.164511 -675.066878 
L 348.270276 -676.871074 
L 346.37604 -678.438389 
L 344.481805 -679.76126 
L 342.587569 -680.832234 
L 340.693333 -681.644016 
L 338.799098 -682.189506 
L 336.904862 -682.461848 
L 335.010627 -682.45447 
L 333.116391 -682.161134 
L 331.222155 -681.575974 
L 329.32792 -680.693544 
L 327.433684 -679.508861 
L 325.539449 -678.017444 
L 323.645213 -676.215357 
L 321.750977 -674.099245 
L 319.856742 -671.666371 
L 317.962506 -668.91465 
L 316.068271 -665.842678 
L 314.174035 -662.449762 
L 312.279799 -658.735942 
L 310.385564 -654.70201 
L 308.491328 -650.349534 
L 306.597093 -645.680863 
L 304.702857 -640.69914 
L 302.808622 -635.408306 
L 300.914386 -629.813102 
L 299.02015 -623.919063 
L 297.125915 -617.73251 
L 295.231679 -611.260541 
L 293.337444 -604.511012 
L 291.443208 -597.492515 
L 289.548972 -590.214359 
L 287.654737 -582.686536 
L 285.760501 -574.919694 
L 283.866266 -566.925096 
L 281.97203 -558.714587 
L 280.077794 -550.30055 
L 278.183559 -541.695863 
L 276.289323 -532.91385 
L 274.395088 -523.968234 
L 272.500852 -514.873087 
L 270.606617 -505.64278 
L 268.712381 -496.291923 
L 266.818145 -486.835321 
L 264.92391 -477.28791 
L 263.029674 -467.664712 
L 261.135439 -457.980772 
L 259.241203 -448.251111 
L 257.346967 -438.49067 
L 255.452732 -428.71426 
L 253.558496 -418.936508 
L 251.664261 -409.171814 
L 249.770025 -399.434302 
L 247.875789 -389.737771 
L 245.981554 -380.095662 
L 244.087318 -370.521008 
L 242.193083 -361.026408 
L 240.298847 -351.623983 
L 238.404612 -342.325352 
L 236.510376 -333.141599 
L 234.61614 -324.083254 
L 232.721905 -315.160266 
L 230.827669 -306.381987 
L 228.933434 -297.757157 
L 227.039198 -289.293891 
L 225.144962 -280.999672 
L 223.250727 -272.881342 
L 221.356491 -264.945105 
L 219.462256 -257.19652 
L 217.56802 -249.64051 
L 215.673784 -242.281365 
L 213.779549 -235.122751 
L 211.885313 -228.16772 
L 209.991078 -221.418724 
L 208.096842 -214.877629 
L 206.202607 -208.545734 
L 204.308371 -202.423786 
L 202.414135 -196.512002 
L 200.5199 -190.810093 
L 198.625664 -185.317283 
L 196.731429 -180.032335 
L 194.837193 -174.953573 
L 192.942957 -170.078912 
L 191.048722 -165.405878 
L 189.154486 -160.931639 
L 187.260251 -156.653028 
L 185.366015 -152.56657 
L 183.471779 -148.668509 
L 181.577544 -144.954834 
L 179.683308 -141.421302 
L 177.789073 -138.063468 
L 175.894837 -134.876704 
L 174.000602 -131.856226 
L 172.106366 -128.997117 
L 170.21213 -126.294348 
L 168.317895 -123.742802 
L 166.423659 -121.337291 
L 164.529424 -119.072578 
L 162.635188 -116.943394 
L 160.740952 -114.944459 
L 158.846717 -113.070494 
L 156.952481 -111.316238 
L 155.058246 -109.676464 
L 153.16401 -108.145992 
L 151.269774 -106.719698 
L 149.375539 -105.392533 
L 147.481303 -104.159523 
L 145.587068 -103.015788 
L 143.692832 -101.956544 
L 141.798596 -100.977116 
L 139.904361 -100.07294 
L 138.010125 -99.239571 
L 136.11589 -98.472687 
L 134.221654 -97.768098 
L 132.327419 -97.121744 
L 130.433183 -96.5297 
L 128.538947 -95.98818 
L 126.644712 -95.493536 
L 124.750476 -95.042263 
L 122.856241 -94.630997 
L 120.962005 -94.256517 
L 119.067769 -93.915742 
L 117.173534 -93.605735 
L 115.279298 -93.323699 
L 113.385063 -93.066976 
L 111.490827 -92.833048 
L 109.596591 -92.61953 
L 107.702356 -92.424175 
L 105.80812 -92.244866 
L 103.913885 -92.079617 
L 102.019649 -91.926567 
L 100.125414 -91.783981 
L 98.231178 -91.650245 
L 96.336942 -91.523861 
L 94.442707 -91.403447 
L 92.548471 -91.287733 
L 90.654236 -91.175556 
L 88.76 -91.065856 
z
"/>
    </defs>
    <g clip-path="url(#p16d347e76f)">
     <use xlink:href="#m4f11947891" x="0" y="792" style="fill: #4285f4; fill-opacity: 0.35"/>
    </g>
   </g>
   <g id="matplotlib.axis_1">
    <g id="xtick_1">
     <g id="line2d_1">
      <defs>
       <path id="m6e1358c878" d="M 0 0 
L 0 8 
" style="stroke: #202124; stroke-width: 0.8"/>
      </defs>
      <g>
       <use xlink:href="#m6e1358c878" x="119.126964" y="710.1925" style="fill: #202124; stroke: #202124; stroke-width: 0.8"/>
      </g>
     </g>
     <g id="text_1">
      <!-- −66.75 -->
      <g style="fill: #202124" transform="translate(88.219152 736.926875) scale(0.2 -0.2)">
       <defs>
        <path id="Roboto-Regular-2212" d="M 3134 2025 
L 525 2025 
L 525 2509 
L 3134 2509 
L 3134 2025 
z
" transform="scale(0.015625)"/>
        <path id="Roboto-Regular-36" d="M 2109 4616 
Q 2344 4616 2573 4562 
Q 2803 4509 2953 4428 
L 2822 3956 
Q 2669 4034 2501 4082 
Q 2334 4131 2109 4131 
Q 1622 4131 1323 3740 
Q 1025 3350 1025 2722 
L 1025 2650 
Q 1225 2825 1483 2923 
Q 1741 3022 2038 3022 
Q 2647 3022 3009 2600 
Q 3372 2178 3372 1531 
Q 3372 825 2986 379 
Q 2600 -66 1956 -66 
Q 1288 -66 850 418 
Q 413 903 413 1784 
L 413 2653 
Q 413 3528 900 4072 
Q 1388 4616 2109 4616 
z
M 1900 2563 
Q 1584 2563 1362 2434 
Q 1141 2306 1025 2094 
L 1025 1725 
Q 1025 1097 1290 756 
Q 1556 416 1956 416 
Q 2334 416 2545 736 
Q 2756 1056 2756 1531 
Q 2756 1981 2529 2272 
Q 2303 2563 1900 2563 
z
" transform="scale(0.015625)"/>
        <path id="Roboto-Regular-2e" d="M 1119 0 
L 503 0 
L 503 631 
L 1119 631 
L 1119 0 
z
" transform="scale(0.015625)"/>
        <path id="Roboto-Regular-37" d="M 3319 4066 
Q 2494 3084 2205 2326 
Q 1916 1569 1788 491 
L 1738 0 
L 1122 0 
L 1172 491 
Q 1303 1566 1681 2412 
Q 2059 3259 2716 4066 
L 241 4066 
L 241 4550 
L 3319 4550 
L 3319 4066 
z
" transform="scale(0.015625)"/>
        <path id="Roboto-Regular-35" d="M 547 2053 
L 809 4550 
L 3088 4550 
L 3088 4003 
L 1331 4003 
L 1181 2725 
Q 1325 2831 1501 2901 
Q 1678 2972 1909 2978 
Q 2538 2984 2898 2568 
Q 3259 2153 3259 1450 
Q 3259 766 2892 350 
Q 2525 -66 1822 -66 
Q 1244 -66 859 250 
Q 475 566 491 1178 
L 497 1197 
L 1053 1197 
Q 1053 825 1267 620 
Q 1481 416 1822 416 
Q 2213 416 2428 691 
Q 2644 966 2644 1444 
Q 2644 1881 2425 2162 
Q 2206 2444 1822 2444 
Q 1459 2444 1296 2334 
Q 1134 2225 1059 2000 
L 547 2053 
z
" transform="scale(0.015625)"/>
       </defs>
       <use xlink:href="#Roboto-Regular-2212"/>
       <use xlink:href="#Roboto-Regular-36" transform="translate(57.128906 0)"/>
       <use xlink:href="#Roboto-Regular-36" transform="translate(113.427734 0)"/>
       <use xlink:href="#Roboto-Regular-2e" transform="translate(169.726562 0)"/>
       <use xlink:href="#Roboto-Regular-37" transform="translate(196.484375 0)"/>
       <use xlink:href="#Roboto-Regular-35" transform="translate(252.783203 0)"/>
      </g>
     </g>
    </g>
    <g id="xtick_2">
     <g id="line2d_2">
      <g>
       <use xlink:href="#m6e1358c878" x="203.479643" y="710.1925" style="fill: #202124; stroke: #202124; stroke-width: 0.8"/>
      </g>
     </g>
     <g id="text_2">
      <!-- −66.50 -->
      <g style="fill: #202124" transform="translate(172.567143 736.926875) scale(0.2 -0.2)">
       <defs>
        <path id="Roboto-Regular-30" d="M 3250 1734 
Q 3250 863 2864 398 
Q 2478 -66 1806 -66 
Q 1134 -66 743 400 
Q 353 866 353 1734 
L 353 2813 
Q 353 3681 742 4148 
Q 1131 4616 1800 4616 
Q 2472 4616 2861 4148 
Q 3250 3681 3250 2813 
L 3250 1734 
z
M 2634 2944 
Q 2634 3534 2420 3832 
Q 2206 4131 1800 4131 
Q 1394 4131 1181 3832 
Q 969 3534 969 2944 
L 969 1609 
Q 969 1019 1184 717 
Q 1400 416 1806 416 
Q 2213 416 2423 716 
Q 2634 1016 2634 1609 
L 2634 2944 
z
" transform="scale(0.015625)"/>
       </defs>
       <use xlink:href="#Roboto-Regular-2212"/>
       <use xlink:href="#Roboto-Regular-36" transform="translate(57.128906 0)"/>
       <use xlink:href="#Roboto-Regular-36" transform="translate(113.427734 0)"/>
       <use xlink:href="#Roboto-Regular-2e" transform="translate(169.726562 0)"/>
       <use xlink:href="#Roboto-Regular-35" transform="translate(196.484375 0)"/>
       <use xlink:href="#Roboto-Regular-30" transform="translate(252.783203 0)"/>
      </g>
     </g>
    </g>
    <g id="xtick_3">
     <g id="line2d_3">
      <g>
       <use xlink:href="#m6e1358c878" x="287.832321" y="710.1925" style="fill: #202124; stroke: #202124; stroke-width: 0.8"/>
      </g>
     </g>
     <g id="text_3">
      <!-- −66.25 -->
      <g style="fill: #202124" transform="translate(256.924509 736.926875) scale(0.2 -0.2)">
       <defs>
        <path id="Roboto-Regular-32" d="M 3319 0 
L 369 0 
L 369 422 
L 1859 2078 
Q 2259 2525 2401 2787 
Q 2544 3050 2544 3325 
Q 2544 3666 2345 3898 
Q 2147 4131 1819 4131 
Q 1347 4131 1123 3889 
Q 900 3647 900 3209 
L 309 3209 
L 303 3228 
Q 288 3816 694 4216 
Q 1100 4616 1819 4616 
Q 2431 4616 2795 4258 
Q 3159 3900 3159 3347 
Q 3159 2975 2939 2601 
Q 2719 2228 2322 1800 
L 1125 497 
L 1131 481 
L 3319 481 
L 3319 0 
z
" transform="scale(0.015625)"/>
       </defs>
       <use xlink:href="#Roboto-Regular-2212"/>
       <use xlink:href="#Roboto-Regular-36" transform="translate(57.128906 0)"/>
       <use xlink:href="#Roboto-Regular-36" transform="translate(113.427734 0)"/>
       <use xlink:href="#Roboto-Regular-2e" transform="translate(169.726562 0)"/>
       <use xlink:href="#Roboto-Regular-32" transform="translate(196.484375 0)"/>
       <use xlink:href="#Roboto-Regular-35" transform="translate(252.783203 0)"/>
      </g>
     </g>
    </g>
    <g id="xtick_4">
     <g id="line2d_4">
      <g>
       <use xlink:href="#m6e1358c878" x="372.185" y="710.1925" style="fill: #202124; stroke: #202124; stroke-width: 0.8"/>
      </g>
     </g>
     <g id="text_4">
      <!-- −66.00 -->
      <g style="fill: #202124" transform="translate(341.267812 736.926875) scale(0.2 -0.2)">
       <use xlink:href="#Roboto-Regular-2212"/>
       <use xlink:href="#Roboto-Regular-36" transform="translate(57.128906 0)"/>
       <use xlink:href="#Roboto-Regular-36" transform="translate(113.427734 0)"/>
       <use xlink:href="#Roboto-Regular-2e" transform="translate(169.726562 0)"/>
       <use xlink:href="#Roboto-Regular-30" transform="translate(196.484375 0)"/>
       <use xlink:href="#Roboto-Regular-30" transform="translate(252.832031 0)"/>
      </g>
     </g>
    </g>
    <g id="xtick_5">
     <g id="line2d_5">
      <g>
       <use xlink:href="#m6e1358c878" x="456.537679" y="710.1925" style="fill: #202124; stroke: #202124; stroke-width: 0.8"/>
      </g>
     </g>
     <g id="text_5">
      <!-- −65.75 -->
      <g style="fill: #202124" transform="translate(425.629866 736.926875) scale(0.2 -0.2)">
       <use xlink:href="#Roboto-Regular-2212"/>
       <use xlink:href="#Roboto-Regular-36" transform="translate(57.128906 0)"/>
       <use xlink:href="#Roboto-Regular-35" transform="translate(113.427734 0)"/>
       <use xlink:href="#Roboto-Regular-2e" transform="translate(169.726562 0)"/>
       <use xlink:href="#Roboto-Regular-37" transform="translate(196.484375 0)"/>
       <use xlink:href="#Roboto-Regular-35" transform="translate(252.783203 0)"/>
      </g>
     </g>
    </g>
    <g id="xtick_6">
     <g id="line2d_6">
      <g>
       <use xlink:href="#m6e1358c878" x="540.890357" y="710.1925" style="fill: #202124; stroke: #202124; stroke-width: 0.8"/>
      </g>
     </g>
     <g id="text_6">
      <!-- −65.50 -->
      <g style="fill: #202124" transform="translate(509.977857 736.926875) scale(0.2 -0.2)">
       <use xlink:href="#Roboto-Regular-2212"/>
       <use xlink:href="#Roboto-Regular-36" transform="translate(57.128906 0)"/>
       <use xlink:href="#Roboto-Regular-35" transform="translate(113.427734 0)"/>
       <use xlink:href="#Roboto-Regular-2e" transform="translate(169.726562 0)"/>
       <use xlink:href="#Roboto-Regular-35" transform="translate(196.484375 0)"/>
       <use xlink:href="#Roboto-Regular-30" transform="translate(252.783203 0)"/>
      </g>
     </g>
    </g>
    <g id="xtick_7">
     <g id="line2d_7">
      <g>
       <use xlink:href="#m6e1358c878" x="625.243036" y="710.1925" style="fill: #202124; stroke: #202124; stroke-width: 0.8"/>
      </g>
     </g>
     <g id="text_7">
      <!-- −65.25 -->
      <g style="fill: #202124" transform="translate(594.335223 736.926875) scale(0.2 -0.2)">
       <use xlink:href="#Roboto-Regular-2212"/>
       <use xlink:href="#Roboto-Regular-36" transform="translate(57.128906 0)"/>
       <use xlink:href="#Roboto-Regular-35" transform="translate(113.427734 0)"/>
       <use xlink:href="#Roboto-Regular-2e" transform="translate(169.726562 0)"/>
       <use xlink:href="#Roboto-Regular-32" transform="translate(196.484375 0)"/>
       <use xlink:href="#Roboto-Regular-35" transform="translate(252.783203 0)"/>
      </g>
     </g>
    </g>
    <g id="xtick_8">
     <g id="line2d_8">
      <g>
       <use xlink:href="#m6e1358c878" x="709.595714" y="710.1925" style="fill: #202124; stroke: #202124; stroke-width: 0.8"/>
      </g>
     </g>
     <g id="text_8">
      <!-- −65.00 -->
      <g style="fill: #202124" transform="translate(678.678527 736.926875) scale(0.2 -0.2)">
       <use xlink:href="#Roboto-Regular-2212"/>
       <use xlink:href="#Roboto-Regular-36" transform="translate(57.128906 0)"/>
       <use xlink:href="#Roboto-Regular-35" transform="translate(113.427734 0)"/>
       <use xlink:href="#Roboto-Regular-2e" transform="translate(169.726562 0)"/>
       <use xlink:href="#Roboto-Regular-30" transform="translate(196.484375 0)"/>
       <use xlink:href="#Roboto-Regular-30" transform="translate(252.832031 0)"/>
      </g>
     </g>
    </g>
    <g id="xtick_9">
     <g id="line2d_9">
      <g>
       <use xlink:href="#m6e1358c878" x="793.948393" y="710.1925" style="fill: #202124; stroke: #202124; stroke-width: 0.8"/>
      </g>
     </g>
     <g id="text_9">
      <!-- −64.75 -->
      <g style="fill: #202124" transform="translate(763.04058 736.926875) scale(0.2 -0.2)">
       <defs>
        <path id="Roboto-Regular-34" d="M 2828 1531 
L 3456 1531 
L 3456 1050 
L 2828 1050 
L 2828 0 
L 2216 0 
L 2216 1050 
L 172 1050 
L 172 1397 
L 2178 4550 
L 2828 4550 
L 2828 1531 
z
M 828 1531 
L 2216 1531 
L 2216 3666 
L 2197 3669 
L 2138 3513 
L 828 1531 
z
" transform="scale(0.015625)"/>
       </defs>
       <use xlink:href="#Roboto-Regular-2212"/>
       <use xlink:href="#Roboto-Regular-36" transform="translate(57.128906 0)"/>
       <use xlink:href="#Roboto-Regular-34" transform="translate(113.427734 0)"/>
       <use xlink:href="#Roboto-Regular-2e" transform="translate(169.726562 0)"/>
       <use xlink:href="#Roboto-Regular-37" transform="translate(196.484375 0)"/>
       <use xlink:href="#Roboto-Regular-35" transform="translate(252.783203 0)"/>
      </g>
     </g>
    </g>
    <g id="text_10">
     <!-- Hit Point (mm) -->
     <g style="fill: #202124" transform="translate(380.874219 765.760937) scale(0.26 -0.26)">
      <defs>
       <path id="Roboto-Regular-48" d="M 4003 0 
L 3388 0 
L 3388 2009 
L 1178 2009 
L 1178 0 
L 563 0 
L 563 4550 
L 1178 4550 
L 1178 2494 
L 3388 2494 
L 3388 4550 
L 4003 4550 
L 4003 0 
z
" transform="scale(0.015625)"/>
       <path id="Roboto-Regular-69" d="M 1113 0 
L 497 0 
L 497 3381 
L 1113 3381 
L 1113 0 
z
M 1113 4247 
L 497 4247 
L 497 4875 
L 1113 4875 
L 1113 4247 
z
" transform="scale(0.015625)"/>
       <path id="Roboto-Regular-74" d="M 1259 4197 
L 1259 3381 
L 1900 3381 
L 1900 2925 
L 1259 2925 
L 1259 872 
Q 1259 634 1357 537 
Q 1456 441 1619 441 
Q 1672 441 1736 453 
Q 1800 466 1850 484 
L 1931 63 
Q 1863 6 1730 -30 
Q 1597 -66 1463 -66 
Q 1088 -66 866 161 
Q 644 388 644 872 
L 644 2925 
L 106 2925 
L 106 3381 
L 644 3381 
L 644 4197 
L 1259 4197 
z
" transform="scale(0.015625)"/>
       <path id="Roboto-Regular-20" transform="scale(0.015625)"/>
       <path id="Roboto-Regular-50" d="M 1178 1825 
L 1178 0 
L 563 0 
L 563 4550 
L 2303 4550 
Q 3031 4550 3434 4175 
Q 3838 3800 3838 3188 
Q 3838 2566 3434 2195 
Q 3031 1825 2303 1825 
L 1178 1825 
z
M 1178 2306 
L 2303 2306 
Q 2766 2306 2994 2554 
Q 3222 2803 3222 3181 
Q 3222 3559 2992 3812 
Q 2763 4066 2303 4066 
L 1178 4066 
L 1178 2306 
z
" transform="scale(0.015625)"/>
       <path id="Roboto-Regular-6f" d="M 303 1722 
Q 303 2472 709 2958 
Q 1116 3444 1813 3444 
Q 2516 3444 2923 2959 
Q 3331 2475 3331 1722 
L 3331 1653 
Q 3331 897 2925 415 
Q 2519 -66 1819 -66 
Q 1119 -66 711 417 
Q 303 900 303 1653 
L 303 1722 
z
M 919 1653 
Q 919 1116 1145 766 
Q 1372 416 1819 416 
Q 2259 416 2487 766 
Q 2716 1116 2716 1653 
L 2716 1722 
Q 2716 2253 2486 2606 
Q 2256 2959 1813 2959 
Q 1372 2959 1145 2606 
Q 919 2253 919 1722 
L 919 1653 
z
" transform="scale(0.015625)"/>
       <path id="Roboto-Regular-6e" d="M 997 3381 
L 1041 2878 
Q 1209 3147 1464 3295 
Q 1719 3444 2044 3444 
Q 2591 3444 2891 3123 
Q 3191 2803 3191 2134 
L 3191 0 
L 2575 0 
L 2575 2122 
Q 2575 2569 2398 2756 
Q 2222 2944 1859 2944 
Q 1594 2944 1389 2816 
Q 1184 2688 1063 2466 
L 1063 0 
L 447 0 
L 447 3381 
L 997 3381 
z
" transform="scale(0.015625)"/>
       <path id="Roboto-Regular-28" d="M 413 1847 
Q 413 3078 909 3950 
Q 1406 4822 1953 5113 
L 1972 5109 
L 2091 4747 
Q 1663 4413 1345 3675 
Q 1028 2938 1028 1853 
L 1028 1813 
Q 1028 728 1343 -9 
Q 1659 -747 2091 -1109 
L 1972 -1447 
L 1953 -1447 
Q 1406 -1156 909 -286 
Q 413 584 413 1819 
L 413 1847 
z
" transform="scale(0.015625)"/>
       <path id="Roboto-Regular-6d" d="M 997 3381 
L 1041 2938 
Q 1206 3178 1461 3311 
Q 1716 3444 2053 3444 
Q 2391 3444 2633 3287 
Q 2875 3131 2997 2819 
Q 3156 3106 3418 3275 
Q 3681 3444 4031 3444 
Q 4547 3444 4847 3089 
Q 5147 2734 5147 2022 
L 5147 0 
L 4531 0 
L 4531 2028 
Q 4531 2528 4359 2736 
Q 4188 2944 3847 2944 
Q 3531 2944 3336 2725 
Q 3141 2506 3106 2172 
L 3106 2147 
L 3106 0 
L 2488 0 
L 2488 2028 
Q 2488 2503 2311 2723 
Q 2134 2944 1803 2944 
Q 1522 2944 1340 2828 
Q 1159 2713 1063 2503 
L 1063 0 
L 447 0 
L 447 3381 
L 997 3381 
z
" transform="scale(0.015625)"/>
       <path id="Roboto-Regular-29" d="M 1697 1819 
Q 1697 584 1198 -286 
Q 700 -1156 156 -1447 
L 138 -1447 
L 19 -1109 
Q 441 -781 761 -29 
Q 1081 722 1081 1813 
L 1081 1853 
Q 1081 2922 751 3676 
Q 422 4431 19 4775 
L 138 5113 
L 156 5113 
Q 700 4822 1198 3950 
Q 1697 3078 1697 1847 
L 1697 1819 
z
" transform="scale(0.015625)"/>
      </defs>
      <use xlink:href="#Roboto-Regular-48"/>
      <use xlink:href="#Roboto-Regular-69" transform="translate(71.337891 0)"/>
      <use xlink:href="#Roboto-Regular-74" transform="translate(96.533203 0)"/>
      <use xlink:href="#Roboto-Regular-20" transform="translate(131.103516 0)"/>
      <use xlink:href="#Roboto-Regular-50" transform="translate(155.957031 0)"/>
      <use xlink:href="#Roboto-Regular-6f" transform="translate(220.019531 0)"/>
      <use xlink:href="#Roboto-Regular-69" transform="translate(276.855469 0)"/>
      <use xlink:href="#Roboto-Regular-6e" transform="translate(302.050781 0)"/>
      <use xlink:href="#Roboto-Regular-74" transform="translate(358.886719 0)"/>
      <use xlink:href="#Roboto-Regular-20" transform="translate(393.457031 0)"/>
      <use xlink:href="#Roboto-Regular-28" transform="translate(418.310547 0)"/>
      <use xlink:href="#Roboto-Regular-6d" transform="translate(451.464844 0)"/>
      <use xlink:href="#Roboto-Regular-6d" transform="translate(538.867188 0)"/>
      <use xlink:href="#Roboto-Regular-29" transform="translate(626.269531 0)"/>
     </g>
    </g>
   </g>
   <g id="matplotlib.axis_2">
    <g id="ytick_1">
     <g id="line2d_10">
      <defs>
       <path id="m9fc6d4257e" d="M 0 0 
L -8 0 
" style="stroke: #202124; stroke-width: 0.8"/>
      </defs>
      <g>
       <use xlink:href="#m9fc6d4257e" x="88.76" y="710.1925" style="fill: #202124; stroke: #202124; stroke-width: 0.8"/>
      </g>
     </g>
     <g id="text_11">
      <!-- 0.0 -->
      <g style="fill: #202124" transform="translate(49.369375 717.809687) scale(0.2 -0.2)">
       <use xlink:href="#Roboto-Regular-30"/>
       <use xlink:href="#Roboto-Regular-2e" transform="translate(56.347656 0)"/>
       <use xlink:href="#Roboto-Regular-30" transform="translate(83.105469 0)"/>
      </g>
     </g>
    </g>
    <g id="ytick_2">
     <g id="line2d_11">
      <g>
       <use xlink:href="#m9fc6d4257e" x="88.76" y="610.826995" style="fill: #202124; stroke: #202124; stroke-width: 0.8"/>
      </g>
     </g>
     <g id="text_12">
      <!-- 0.2 -->
      <g style="fill: #202124" transform="translate(49.37875 618.444183) scale(0.2 -0.2)">
       <use xlink:href="#Roboto-Regular-30"/>
       <use xlink:href="#Roboto-Regular-2e" transform="translate(56.347656 0)"/>
       <use xlink:href="#Roboto-Regular-32" transform="translate(83.105469 0)"/>
      </g>
     </g>
    </g>
    <g id="ytick_3">
     <g id="line2d_12">
      <g>
       <use xlink:href="#m9fc6d4257e" x="88.76" y="511.46149" style="fill: #202124; stroke: #202124; stroke-width: 0.8"/>
      </g>
     </g>
     <g id="text_13">
      <!-- 0.4 -->
      <g style="fill: #202124" transform="translate(49.37875 519.078678) scale(0.2 -0.2)">
       <use xlink:href="#Roboto-Regular-30"/>
       <use xlink:href="#Roboto-Regular-2e" transform="translate(56.347656 0)"/>
       <use xlink:href="#Roboto-Regular-34" transform="translate(83.105469 0)"/>
      </g>
     </g>
    </g>
    <g id="ytick_4">
     <g id="line2d_13">
      <g>
       <use xlink:href="#m9fc6d4257e" x="88.76" y="412.095985" style="fill: #202124; stroke: #202124; stroke-width: 0.8"/>
      </g>
     </g>
     <g id="text_14">
      <!-- 0.6 -->
      <g style="fill: #202124" transform="translate(49.37875 419.713173) scale(0.2 -0.2)">
       <use xlink:href="#Roboto-Regular-30"/>
       <use xlink:href="#Roboto-Regular-2e" transform="translate(56.347656 0)"/>
       <use xlink:href="#Roboto-Regular-36" transform="translate(83.105469 0)"/>
      </g>
     </g>
    </g>
    <g id="ytick_5">
     <g id="line2d_14">
      <g>
       <use xlink:href="#m9fc6d4257e" x="88.76" y="312.730481" style="fill: #202124; stroke: #202124; stroke-width: 0.8"/>
      </g>
     </g>
     <g id="text_15">
      <!-- 0.8 -->
      <g style="fill: #202124" transform="translate(49.37875 320.347668) scale(0.2 -0.2)">
       <defs>
        <path id="Roboto-Regular-38" d="M 3156 3363 
Q 3156 3006 2956 2739 
Q 2756 2472 2416 2341 
Q 2809 2203 3045 1909 
Q 3281 1616 3281 1231 
Q 3281 600 2870 267 
Q 2459 -66 1803 -66 
Q 1134 -66 726 267 
Q 319 600 319 1231 
Q 319 1616 550 1909 
Q 781 2203 1175 2341 
Q 834 2472 640 2739 
Q 447 3006 447 3363 
Q 447 3963 817 4289 
Q 1188 4616 1797 4616 
Q 2397 4616 2776 4289 
Q 3156 3963 3156 3363 
z
M 2669 1244 
Q 2669 1619 2422 1859 
Q 2175 2100 1797 2100 
Q 1413 2100 1173 1859 
Q 934 1619 934 1244 
Q 934 856 1171 636 
Q 1409 416 1803 416 
Q 2188 416 2428 637 
Q 2669 859 2669 1244 
z
M 2541 3350 
Q 2541 3688 2330 3909 
Q 2119 4131 1797 4131 
Q 1469 4131 1266 3917 
Q 1063 3703 1063 3350 
Q 1063 3003 1267 2793 
Q 1472 2584 1803 2584 
Q 2128 2584 2334 2793 
Q 2541 3003 2541 3350 
z
" transform="scale(0.015625)"/>
       </defs>
       <use xlink:href="#Roboto-Regular-30"/>
       <use xlink:href="#Roboto-Regular-2e" transform="translate(56.347656 0)"/>
       <use xlink:href="#Roboto-Regular-38" transform="translate(83.105469 0)"/>
      </g>
     </g>
    </g>
    <g id="ytick_6">
     <g id="line2d_15">
      <g>
       <use xlink:href="#m9fc6d4257e" x="88.76" y="213.364976" style="fill: #202124; stroke: #202124; stroke-width: 0.8"/>
      </g>
     </g>
     <g id="text_16">
      <!-- 1.0 -->
      <g style="fill: #202124" transform="translate(49.37875 220.982163) scale(0.2 -0.2)">
       <defs>
        <path id="Roboto-Regular-31" d="M 2128 0 
L 1513 0 
L 1513 3950 
L 581 3938 
L 581 4381 
L 2128 4550 
L 2128 0 
z
" transform="scale(0.015625)"/>
       </defs>
       <use xlink:href="#Roboto-Regular-31"/>
       <use xlink:href="#Roboto-Regular-2e" transform="translate(56.298828 0)"/>
       <use xlink:href="#Roboto-Regular-30" transform="translate(83.056641 0)"/>
      </g>
     </g>
    </g>
    <g id="ytick_7">
     <g id="line2d_16">
      <g>
       <use xlink:href="#m9fc6d4257e" x="88.76" y="113.999471" style="fill: #202124; stroke: #202124; stroke-width: 0.8"/>
      </g>
     </g>
     <g id="text_17">
      <!-- 1.2 -->
      <g style="fill: #202124" transform="translate(49.388125 121.616658) scale(0.2 -0.2)">
       <use xlink:href="#Roboto-Regular-31"/>
       <use xlink:href="#Roboto-Regular-2e" transform="translate(56.298828 0)"/>
       <use xlink:href="#Roboto-Regular-32" transform="translate(83.056641 0)"/>
      </g>
     </g>
    </g>
    <g id="text_18">
     <!-- Probability Density -->
     <g style="fill: #202124" transform="translate(39.82 474.948594) rotate(-90) scale(0.26 -0.26)">
      <defs>
       <path id="Roboto-Regular-72" d="M 2047 2838 
L 1731 2856 
Q 1488 2856 1320 2740 
Q 1153 2625 1063 2416 
L 1063 0 
L 447 0 
L 447 3381 
L 997 3381 
L 1056 2888 
Q 1200 3150 1411 3297 
Q 1622 3444 1897 3444 
Q 1966 3444 2028 3433 
Q 2091 3422 2131 3409 
L 2047 2838 
z
" transform="scale(0.015625)"/>
       <path id="Roboto-Regular-62" d="M 3334 1563 
Q 3334 831 2982 382 
Q 2631 -66 2016 -66 
Q 1681 -66 1434 64 
Q 1188 194 1025 447 
L 950 0 
L 447 0 
L 447 4875 
L 1063 4875 
L 1063 2981 
Q 1222 3206 1458 3325 
Q 1694 3444 2009 3444 
Q 2634 3444 2984 2944 
Q 3334 2444 3334 1628 
L 3334 1563 
z
M 2719 1628 
Q 2719 2209 2505 2576 
Q 2291 2944 1853 2944 
Q 1569 2944 1373 2805 
Q 1178 2666 1063 2431 
L 1063 966 
Q 1181 716 1373 575 
Q 1566 434 1859 434 
Q 2294 434 2506 743 
Q 2719 1053 2719 1563 
L 2719 1628 
z
" transform="scale(0.015625)"/>
       <path id="Roboto-Regular-61" d="M 2525 0 
Q 2494 153 2476 270 
Q 2459 388 2456 506 
Q 2284 263 2007 98 
Q 1731 -66 1413 -66 
Q 884 -66 607 204 
Q 331 475 331 950 
Q 331 1434 723 1707 
Q 1116 1981 1788 1981 
L 2456 1981 
L 2456 2316 
Q 2456 2613 2275 2786 
Q 2094 2959 1763 2959 
Q 1466 2959 1280 2807 
Q 1094 2656 1094 2444 
L 506 2444 
L 500 2463 
Q 481 2831 848 3137 
Q 1216 3444 1797 3444 
Q 2372 3444 2722 3151 
Q 3072 2859 3072 2309 
L 3072 681 
Q 3072 500 3090 331 
Q 3109 163 3159 0 
L 2525 0 
z
M 1503 450 
Q 1838 450 2106 622 
Q 2375 794 2456 1016 
L 2456 1566 
L 1766 1566 
Q 1394 1566 1170 1378 
Q 947 1191 947 938 
Q 947 713 1087 581 
Q 1228 450 1503 450 
z
" transform="scale(0.015625)"/>
       <path id="Roboto-Regular-6c" d="M 1113 0 
L 497 0 
L 497 4875 
L 1113 4875 
L 1113 0 
z
" transform="scale(0.015625)"/>
       <path id="Roboto-Regular-79" d="M 1481 1253 
L 1591 828 
L 1609 828 
L 2441 3381 
L 3125 3381 
L 1703 -519 
Q 1575 -859 1336 -1112 
Q 1097 -1366 691 -1366 
Q 616 -1366 500 -1348 
Q 384 -1331 322 -1316 
L 384 -831 
Q 366 -828 495 -837 
Q 625 -847 659 -847 
Q 856 -847 981 -672 
Q 1106 -497 1191 -284 
L 1338 69 
L 81 3381 
L 769 3381 
L 1481 1253 
z
" transform="scale(0.015625)"/>
       <path id="Roboto-Regular-44" d="M 563 0 
L 563 4550 
L 1959 4550 
Q 2853 4550 3393 4001 
Q 3934 3453 3934 2584 
L 3934 1963 
Q 3934 1091 3393 545 
Q 2853 0 1959 0 
L 563 0 
z
M 1178 4066 
L 1178 481 
L 1959 481 
Q 2591 481 2955 897 
Q 3319 1313 3319 1963 
L 3319 2591 
Q 3319 3234 2955 3650 
Q 2591 4066 1959 4066 
L 1178 4066 
z
" transform="scale(0.015625)"/>
       <path id="Roboto-Regular-65" d="M 1850 -66 
Q 1144 -66 726 404 
Q 309 875 309 1625 
L 309 1763 
Q 309 2484 739 2964 
Q 1169 3444 1756 3444 
Q 2441 3444 2791 3031 
Q 3141 2619 3141 1931 
L 3141 1547 
L 947 1547 
L 938 1531 
Q 947 1044 1184 730 
Q 1422 416 1850 416 
Q 2163 416 2398 505 
Q 2634 594 2806 750 
L 3047 350 
Q 2866 172 2569 53 
Q 2272 -66 1850 -66 
z
M 1756 2959 
Q 1447 2959 1228 2698 
Q 1009 2438 959 2044 
L 966 2028 
L 2525 2028 
L 2525 2109 
Q 2525 2472 2331 2715 
Q 2138 2959 1756 2959 
z
" transform="scale(0.015625)"/>
       <path id="Roboto-Regular-73" d="M 2413 897 
Q 2413 1100 2258 1231 
Q 2103 1363 1672 1459 
Q 1056 1594 745 1823 
Q 434 2053 434 2450 
Q 434 2863 784 3153 
Q 1134 3444 1697 3444 
Q 2288 3444 2636 3141 
Q 2984 2838 2969 2403 
L 2963 2384 
L 2375 2384 
Q 2375 2606 2189 2782 
Q 2003 2959 1697 2959 
Q 1369 2959 1209 2815 
Q 1050 2672 1050 2469 
Q 1050 2269 1190 2153 
Q 1331 2038 1763 1947 
Q 2403 1809 2715 1573 
Q 3028 1338 3028 941 
Q 3028 491 2664 212 
Q 2300 -66 1713 -66 
Q 1066 -66 694 262 
Q 322 591 341 1028 
L 347 1047 
L 934 1047 
Q 950 719 1178 567 
Q 1406 416 1713 416 
Q 2041 416 2227 548 
Q 2413 681 2413 897 
z
" transform="scale(0.015625)"/>
      </defs>
      <use xlink:href="#Roboto-Regular-50"/>
      <use xlink:href="#Roboto-Regular-72" transform="translate(64.0625 0)"/>
      <use xlink:href="#Roboto-Regular-6f" transform="translate(98.339844 0)"/>
      <use xlink:href="#Roboto-Regular-62" transform="translate(155.175781 0)"/>
      <use xlink:href="#Roboto-Regular-61" transform="translate(212.011719 0)"/>
      <use xlink:href="#Roboto-Regular-62" transform="translate(266.992188 0)"/>
      <use xlink:href="#Roboto-Regular-69" transform="translate(323.828125 0)"/>
      <use xlink:href="#Roboto-Regular-6c" transform="translate(349.023438 0)"/>
      <use xlink:href="#Roboto-Regular-69" transform="translate(374.21875 0)"/>
      <use xlink:href="#Roboto-Regular-74" transform="translate(399.414062 0)"/>
      <use xlink:href="#Roboto-Regular-79" transform="translate(433.984375 0)"/>
      <use xlink:href="#Roboto-Regular-20" transform="translate(484.277344 0)"/>
      <use xlink:href="#Roboto-Regular-44" transform="translate(509.130859 0)"/>
      <use xlink:href="#Roboto-Regular-65" transform="translate(575 0)"/>
      <use xlink:href="#Roboto-Regular-6e" transform="translate(627.880859 0)"/>
      <use xlink:href="#Roboto-Regular-73" transform="translate(684.716797 0)"/>
      <use xlink:href="#Roboto-Regular-69" transform="translate(737.011719 0)"/>
      <use xlink:href="#Roboto-Regular-74" transform="translate(762.207031 0)"/>
      <use xlink:href="#Roboto-Regular-79" transform="translate(796.777344 0)"/>
     </g>
    </g>
   </g>
   <g id="line2d_17">
    <path d="M 88.76 700.934144 
L 102.019649 700.073433 
L 109.596591 699.38047 
L 115.279298 698.676301 
L 120.962005 697.743483 
L 124.750476 696.957737 
L 128.538947 696.01182 
L 132.327419 694.878256 
L 136.11589 693.527313 
L 139.904361 691.92706 
L 143.692832 690.043456 
L 147.481303 687.840477 
L 151.269774 685.280302 
L 155.058246 682.323536 
L 158.846717 678.929506 
L 162.635188 675.056606 
L 166.423659 670.662709 
L 170.21213 665.705652 
L 174.000602 660.143774 
L 177.789073 653.936532 
L 181.577544 647.045166 
L 185.366015 639.43343 
L 189.154486 631.068361 
L 192.942957 621.921088 
L 196.731429 611.967665 
L 200.5199 601.189907 
L 204.308371 589.576214 
L 208.096842 577.122371 
L 211.885313 563.83228 
L 215.673784 549.718635 
L 219.462256 534.80348 
L 223.250727 519.118658 
L 227.039198 502.706109 
L 232.721905 476.839734 
L 238.404612 449.674648 
L 244.087318 421.478992 
L 253.558496 373.063492 
L 266.818145 305.164679 
L 272.500852 277.126913 
L 278.183559 250.304137 
L 281.97203 233.285413 
L 285.760501 217.080306 
L 289.548972 201.785641 
L 293.337444 187.488988 
L 297.125915 174.26749 
L 300.914386 162.186898 
L 304.702857 151.30086 
L 306.597093 146.319137 
L 308.491328 141.650466 
L 310.385564 137.29799 
L 312.279799 133.264058 
L 314.174035 129.550238 
L 316.068271 126.157322 
L 317.962506 123.08535 
L 319.856742 120.333629 
L 321.750977 117.900755 
L 323.645213 115.784643 
L 325.539449 113.982556 
L 327.433684 112.491139 
L 329.32792 111.306456 
L 331.222155 110.424026 
L 333.116391 109.838866 
L 335.010627 109.54553 
L 336.904862 109.538152 
L 338.799098 109.810494 
L 340.693333 110.355984 
L 342.587569 111.167766 
L 344.481805 112.23874 
L 346.37604 113.561611 
L 348.270276 115.128926 
L 350.164511 116.933122 
L 352.058747 118.966563 
L 353.952982 121.221578 
L 355.847218 123.690502 
L 357.741454 126.365709 
L 361.529925 132.304846 
L 365.318396 138.979912 
L 369.106867 146.334246 
L 372.895338 154.314236 
L 376.68381 162.869765 
L 380.472281 171.954459 
L 384.260752 181.525752 
L 388.049223 191.544784 
L 393.73193 207.336232 
L 399.414637 223.949068 
L 405.097343 241.287917 
L 410.78005 259.264748 
L 418.356992 284.078979 
L 425.933935 309.668932 
L 437.299348 349.01105 
L 456.241704 414.920274 
L 463.818647 440.532565 
L 469.501353 459.169126 
L 475.18406 477.171233 
L 480.866767 494.41627 
L 486.549474 510.790472 
L 490.337945 521.171533 
L 494.126416 531.092184 
L 497.914887 540.527657 
L 501.703358 549.45594 
L 505.49183 557.85786 
L 509.280301 565.717116 
L 513.068772 573.020298 
L 516.857243 579.756869 
L 520.645714 585.919135 
L 524.434185 591.502194 
L 528.222657 596.503885 
L 532.011128 600.924714 
L 535.799599 604.767784 
L 539.58807 608.03872 
L 541.482306 609.462066 
L 543.376541 610.745591 
L 545.270777 611.890669 
L 547.165013 612.898821 
L 549.059248 613.771703 
L 550.953484 614.51111 
L 552.847719 615.118969 
L 554.741955 615.597338 
L 556.63619 615.948402 
L 558.530426 616.174472 
L 560.424662 616.277977 
L 562.318897 616.261465 
L 564.213133 616.127599 
L 568.001604 615.518995 
L 571.790075 614.475601 
L 575.578546 613.022435 
L 579.367018 611.18597 
L 583.155489 608.994006 
L 586.94396 606.475536 
L 590.732431 603.660612 
L 594.520902 600.58021 
L 598.309373 597.266106 
L 603.99208 591.927898 
L 609.674787 586.248731 
L 617.251729 578.342806 
L 632.405614 562.408858 
L 638.088321 556.741483 
L 643.771028 551.416436 
L 647.559499 548.109962 
L 651.34797 545.034358 
L 655.136441 542.219183 
L 658.924912 539.692554 
L 662.713383 537.480883 
L 666.501855 535.608592 
L 670.290326 534.09782 
L 674.078797 532.968115 
L 677.867268 532.236136 
L 681.655739 531.915356 
L 685.444211 532.015793 
L 689.232682 532.543762 
L 693.021153 533.501672 
L 696.809624 534.887871 
L 700.598095 536.696546 
L 704.386566 538.917693 
L 708.175038 541.537154 
L 711.963509 544.536737 
L 715.75198 547.894402 
L 719.540451 551.584534 
L 723.328922 555.578286 
L 727.117393 559.843989 
L 732.8001 566.677524 
L 738.482807 573.924052 
L 746.059749 584.009146 
L 765.002105 609.526795 
L 770.684812 616.821012 
L 776.367519 623.795392 
L 782.050226 630.390884 
L 787.732932 636.566925 
L 793.415639 642.301063 
L 799.098346 647.587734 
L 804.781053 652.436307 
L 810.463759 656.868579 
L 816.146466 660.915902 
L 821.829173 664.616147 
L 827.51188 668.010702 
L 833.194586 671.14168 
L 838.877293 674.049486 
L 844.56 676.770835 
L 844.56 676.770835 
" clip-path="url(#p16d347e76f)" style="fill: none; stroke: #4285f4; stroke-width: 2; stroke-linecap: square"/>
   </g>
   <g id="line2d_18">
    <path d="M 336.904862 710.1925 
L 336.904862 19.44 
" clip-path="url(#p16d347e76f)" style="fill: none; stroke-dasharray: 9.25,4; stroke-dashoffset: 0; stroke: #ffa500; stroke-width: 2.5"/>
   </g>
   <g id="patch_3">
    <path d="M 88.76 710.1925 
L 88.76 19.44 
" style="fill: none; stroke: #000000; stroke-width: 1.5; stroke-linejoin: miter; stroke-linecap: square"/>
   </g>
   <g id="patch_4">
    <path d="M 844.56 710.1925 
L 844.56 19.44 
" style="fill: none; stroke: #000000; stroke-width: 1.5; stroke-linejoin: miter; stroke-linecap: square"/>
   </g>
   <g id="patch_5">
    <path d="M 88.76 710.1925 
L 844.56 710.1925 
" style="fill: none; stroke: #000000; stroke-width: 1.5; stroke-linejoin: miter; stroke-linecap: square"/>
   </g>
   <g id="patch_6">
    <path d="M 88.76 19.44 
L 844.56 19.44 
" style="fill: none; stroke: #000000; stroke-width: 1.5; stroke-linejoin: miter; stroke-linecap: square"/>
   </g>
   <g id="legend_1">
    <g id="patch_7">
     <path d="M 655.369375 64.943125 
L 830.56 64.943125 
Q 834.56 64.943125 834.56 60.943125 
L 834.56 33.44 
Q 834.56 29.44 830.56 29.44 
L 655.369375 29.44 
Q 651.369375 29.44 651.369375 33.44 
L 651.369375 60.943125 
Q 651.369375 64.943125 655.369375 64.943125 
z
" style="fill: #ffffff; opacity: 0.8; stroke: #cccccc; stroke-linejoin: miter"/>
    </g>
    <g id="line2d_19">
     <path d="M 659.369375 45.674375 
L 679.369375 45.674375 
L 699.369375 45.674375 
" style="fill: none; stroke-dasharray: 9.25,4; stroke-dashoffset: 0; stroke: #ffa500; stroke-width: 2.5"/>
    </g>
    <g id="text_19">
     <!-- Max Density -->
     <g transform="translate(715.369375 52.674375) scale(0.2 -0.2)">
      <defs>
       <path id="Roboto-Regular-4d" d="M 1350 4550 
L 2800 853 
L 2819 853 
L 4269 4550 
L 5056 4550 
L 5056 0 
L 4441 0 
L 4441 1800 
L 4503 3650 
L 4488 3653 
L 3013 0 
L 2603 0 
L 1134 3644 
L 1119 3641 
L 1178 1800 
L 1178 0 
L 563 0 
L 563 4550 
L 1350 4550 
z
" transform="scale(0.015625)"/>
       <path id="Roboto-Regular-78" d="M 1594 2134 
L 2313 3381 
L 3031 3381 
L 1934 1709 
L 3063 0 
L 2356 0 
L 1606 1278 
L 856 0 
L 144 0 
L 1272 1709 
L 175 3381 
L 884 3381 
L 1594 2134 
z
" transform="scale(0.015625)"/>
      </defs>
      <use xlink:href="#Roboto-Regular-4d"/>
      <use xlink:href="#Roboto-Regular-61" transform="translate(87.841797 0)"/>
      <use xlink:href="#Roboto-Regular-78" transform="translate(142.822266 0)"/>
      <use xlink:href="#Roboto-Regular-20" transform="translate(193.115234 0)"/>
      <use xlink:href="#Roboto-Regular-44" transform="translate(217.96875 0)"/>
      <use xlink:href="#Roboto-Regular-65" transform="translate(283.837891 0)"/>
      <use xlink:href="#Roboto-Regular-6e" transform="translate(336.71875 0)"/>
      <use xlink:href="#Roboto-Regular-73" transform="translate(393.554688 0)"/>
      <use xlink:href="#Roboto-Regular-69" transform="translate(445.849609 0)"/>
      <use xlink:href="#Roboto-Regular-74" transform="translate(471.044922 0)"/>
      <use xlink:href="#Roboto-Regular-79" transform="translate(505.615234 0)"/>
     </g>
    </g>
   </g>
  </g>
 </g>
 <defs>
  <clipPath id="p16d347e76f">
   <rect x="88.76" y="19.44" width="755.8" height="690.7525"/>
  </clipPath>
 </defs>
</svg>
