<?xml version="1.0" encoding="utf-8" standalone="no"?>
<!DOCTYPE svg PUBLIC "-//W3C//DTD SVG 1.1//EN"
  "http://www.w3.org/Graphics/SVG/1.1/DTD/svg11.dtd">
<svg xmlns:xlink="http://www.w3.org/1999/xlink" width="432pt" height="432pt" viewBox="0 0 432 432" xmlns="http://www.w3.org/2000/svg" version="1.1">
 <metadata>
  <rdf:RDF xmlns:dc="http://purl.org/dc/elements/1.1/" xmlns:cc="http://creativecommons.org/ns#" xmlns:rdf="http://www.w3.org/1999/02/22-rdf-syntax-ns#">
   <cc:Work>
    <dc:type rdf:resource="http://purl.org/dc/dcmitype/StillImage"/>
    <dc:date>2026-06-17T14:35:26.600637</dc:date>
    <dc:format>image/svg+xml</dc:format>
    <dc:creator>
     <cc:Agent>
      <dc:title>Matplotlib v3.10.0, https://matplotlib.org/</dc:title>
     </cc:Agent>
    </dc:creator>
   </cc:Work>
  </rdf:RDF>
 </metadata>
 <defs>
  <style type="text/css">*{stroke-linejoin: round; stroke-linecap: butt}</style>
 </defs>
 <g id="figure_1">
  <g id="patch_1">
   <path d="M 0 432 
L 432 432 
L 432 0 
L 0 0 
z
" style="fill: #ffffff"/>
  </g>
  <g id="axes_1">
   <g id="patch_2">
    <path d="M 64.28 376.36 
L 421.2 376.36 
L 421.2 10.8 
L 64.28 10.8 
z
" style="fill: #ffffff"/>
   </g>
   <g id="FillBetweenPolyCollection_1">
    <defs>
     <path id="md9630d1488" d="M 64.28 -60.539707 
L 64.28 -55.64 
L 65.174536 -55.64 
L 66.069073 -55.64 
L 66.963609 -55.64 
L 67.858145 -55.64 
L 68.752682 -55.64 
L 69.647218 -55.64 
L 70.541754 -55.64 
L 71.436291 -55.64 
L 72.330827 -55.64 
L 73.225363 -55.64 
L 74.1199 -55.64 
L 75.014436 -55.64 
L 75.908972 -55.64 
L 76.803509 -55.64 
L 77.698045 -55.64 
L 78.592581 -55.64 
L 79.487118 -55.64 
L 80.381654 -55.64 
L 81.27619 -55.64 
L 82.170727 -55.64 
L 83.065263 -55.64 
L 83.959799 -55.64 
L 84.854336 -55.64 
L 85.748872 -55.64 
L 86.643409 -55.64 
L 87.537945 -55.64 
L 88.432481 -55.64 
L 89.327018 -55.64 
L 90.221554 -55.64 
L 91.11609 -55.64 
L 92.010627 -55.64 
L 92.905163 -55.64 
L 93.799699 -55.64 
L 94.694236 -55.64 
L 95.588772 -55.64 
L 96.483308 -55.64 
L 97.377845 -55.64 
L 98.272381 -55.64 
L 99.166917 -55.64 
L 100.061454 -55.64 
L 100.95599 -55.64 
L 101.850526 -55.64 
L 102.745063 -55.64 
L 103.639599 -55.64 
L 104.534135 -55.64 
L 105.428672 -55.64 
L 106.323208 -55.64 
L 107.217744 -55.64 
L 108.112281 -55.64 
L 109.006817 -55.64 
L 109.901353 -55.64 
L 110.79589 -55.64 
L 111.690426 -55.64 
L 112.584962 -55.64 
L 113.479499 -55.64 
L 114.374035 -55.64 
L 115.268571 -55.64 
L 116.163108 -55.64 
L 117.057644 -55.64 
L 117.95218 -55.64 
L 118.846717 -55.64 
L 119.741253 -55.64 
L 120.635789 -55.64 
L 121.530326 -55.64 
L 122.424862 -55.64 
L 123.319398 -55.64 
L 124.213935 -55.64 
L 125.108471 -55.64 
L 126.003008 -55.64 
L 126.897544 -55.64 
L 127.79208 -55.64 
L 128.686617 -55.64 
L 129.581153 -55.64 
L 130.475689 -55.64 
L 131.370226 -55.64 
L 132.264762 -55.64 
L 133.159298 -55.64 
L 134.053835 -55.64 
L 134.948371 -55.64 
L 135.842907 -55.64 
L 136.737444 -55.64 
L 137.63198 -55.64 
L 138.526516 -55.64 
L 139.421053 -55.64 
L 140.315589 -55.64 
L 141.210125 -55.64 
L 142.104662 -55.64 
L 142.999198 -55.64 
L 143.893734 -55.64 
L 144.788271 -55.64 
L 145.682807 -55.64 
L 146.577343 -55.64 
L 147.47188 -55.64 
L 148.366416 -55.64 
L 149.260952 -55.64 
L 150.155489 -55.64 
L 151.050025 -55.64 
L 151.944561 -55.64 
L 152.839098 -55.64 
L 153.733634 -55.64 
L 154.62817 -55.64 
L 155.522707 -55.64 
L 156.417243 -55.64 
L 157.311779 -55.64 
L 158.206316 -55.64 
L 159.100852 -55.64 
L 159.995388 -55.64 
L 160.889925 -55.64 
L 161.784461 -55.64 
L 162.678997 -55.64 
L 163.573534 -55.64 
L 164.46807 -55.64 
L 165.362607 -55.64 
L 166.257143 -55.64 
L 167.151679 -55.64 
L 168.046216 -55.64 
L 168.940752 -55.64 
L 169.835288 -55.64 
L 170.729825 -55.64 
L 171.624361 -55.64 
L 172.518897 -55.64 
L 173.413434 -55.64 
L 174.30797 -55.64 
L 175.202506 -55.64 
L 176.097043 -55.64 
L 176.991579 -55.64 
L 177.886115 -55.64 
L 178.780652 -55.64 
L 179.675188 -55.64 
L 180.569724 -55.64 
L 181.464261 -55.64 
L 182.358797 -55.64 
L 183.253333 -55.64 
L 184.14787 -55.64 
L 185.042406 -55.64 
L 185.936942 -55.64 
L 186.831479 -55.64 
L 187.726015 -55.64 
L 188.620551 -55.64 
L 189.515088 -55.64 
L 190.409624 -55.64 
L 191.30416 -55.64 
L 192.198697 -55.64 
L 193.093233 -55.64 
L 193.987769 -55.64 
L 194.882306 -55.64 
L 195.776842 -55.64 
L 196.671378 -55.64 
L 197.565915 -55.64 
L 198.460451 -55.64 
L 199.354987 -55.64 
L 200.249524 -55.64 
L 201.14406 -55.64 
L 202.038596 -55.64 
L 202.933133 -55.64 
L 203.827669 -55.64 
L 204.722206 -55.64 
L 205.616742 -55.64 
L 206.511278 -55.64 
L 207.405815 -55.64 
L 208.300351 -55.64 
L 209.194887 -55.64 
L 210.089424 -55.64 
L 210.98396 -55.64 
L 211.878496 -55.64 
L 212.773033 -55.64 
L 213.667569 -55.64 
L 214.562105 -55.64 
L 215.456642 -55.64 
L 216.351178 -55.64 
L 217.245714 -55.64 
L 218.140251 -55.64 
L 219.034787 -55.64 
L 219.929323 -55.64 
L 220.82386 -55.64 
L 221.718396 -55.64 
L 222.612932 -55.64 
L 223.507469 -55.64 
L 224.402005 -55.64 
L 225.296541 -55.64 
L 226.191078 -55.64 
L 227.085614 -55.64 
L 227.98015 -55.64 
L 228.874687 -55.64 
L 229.769223 -55.64 
L 230.663759 -55.64 
L 231.558296 -55.64 
L 232.452832 -55.64 
L 233.347368 -55.64 
L 234.241905 -55.64 
L 235.136441 -55.64 
L 236.030977 -55.64 
L 236.925514 -55.64 
L 237.82005 -55.64 
L 238.714586 -55.64 
L 239.609123 -55.64 
L 240.503659 -55.64 
L 241.398195 -55.64 
L 242.292732 -55.64 
L 243.187268 -55.64 
L 244.081805 -55.64 
L 244.976341 -55.64 
L 245.870877 -55.64 
L 246.765414 -55.64 
L 247.65995 -55.64 
L 248.554486 -55.64 
L 249.449023 -55.64 
L 250.343559 -55.64 
L 251.238095 -55.64 
L 252.132632 -55.64 
L 253.027168 -55.64 
L 253.921704 -55.64 
L 254.816241 -55.64 
L 255.710777 -55.64 
L 256.605313 -55.64 
L 257.49985 -55.64 
L 258.394386 -55.64 
L 259.288922 -55.64 
L 260.183459 -55.64 
L 261.077995 -55.64 
L 261.972531 -55.64 
L 262.867068 -55.64 
L 263.761604 -55.64 
L 264.65614 -55.64 
L 265.550677 -55.64 
L 266.445213 -55.64 
L 267.339749 -55.64 
L 268.234286 -55.64 
L 269.128822 -55.64 
L 270.023358 -55.64 
L 270.917895 -55.64 
L 271.812431 -55.64 
L 272.706967 -55.64 
L 273.601504 -55.64 
L 274.49604 -55.64 
L 275.390576 -55.64 
L 276.285113 -55.64 
L 277.179649 -55.64 
L 278.074185 -55.64 
L 278.968722 -55.64 
L 279.863258 -55.64 
L 280.757794 -55.64 
L 281.652331 -55.64 
L 282.546867 -55.64 
L 283.441404 -55.64 
L 284.33594 -55.64 
L 285.230476 -55.64 
L 286.125013 -55.64 
L 287.019549 -55.64 
L 287.914085 -55.64 
L 288.808622 -55.64 
L 289.703158 -55.64 
L 290.597694 -55.64 
L 291.492231 -55.64 
L 292.386767 -55.64 
L 293.281303 -55.64 
L 294.17584 -55.64 
L 295.070376 -55.64 
L 295.964912 -55.64 
L 296.859449 -55.64 
L 297.753985 -55.64 
L 298.648521 -55.64 
L 299.543058 -55.64 
L 300.437594 -55.64 
L 301.33213 -55.64 
L 302.226667 -55.64 
L 303.121203 -55.64 
L 304.015739 -55.64 
L 304.910276 -55.64 
L 305.804812 -55.64 
L 306.699348 -55.64 
L 307.593885 -55.64 
L 308.488421 -55.64 
L 309.382957 -55.64 
L 310.277494 -55.64 
L 311.17203 -55.64 
L 312.066566 -55.64 
L 312.961103 -55.64 
L 313.855639 -55.64 
L 314.750175 -55.64 
L 315.644712 -55.64 
L 316.539248 -55.64 
L 317.433784 -55.64 
L 318.328321 -55.64 
L 319.222857 -55.64 
L 320.117393 -55.64 
L 321.01193 -55.64 
L 321.906466 -55.64 
L 322.801003 -55.64 
L 323.695539 -55.64 
L 324.590075 -55.64 
L 325.484612 -55.64 
L 326.379148 -55.64 
L 327.273684 -55.64 
L 328.168221 -55.64 
L 329.062757 -55.64 
L 329.957293 -55.64 
L 330.85183 -55.64 
L 331.746366 -55.64 
L 332.640902 -55.64 
L 333.535439 -55.64 
L 334.429975 -55.64 
L 335.324511 -55.64 
L 336.219048 -55.64 
L 337.113584 -55.64 
L 338.00812 -55.64 
L 338.902657 -55.64 
L 339.797193 -55.64 
L 340.691729 -55.64 
L 341.586266 -55.64 
L 342.480802 -55.64 
L 343.375338 -55.64 
L 344.269875 -55.64 
L 345.164411 -55.64 
L 346.058947 -55.64 
L 346.953484 -55.64 
L 347.84802 -55.64 
L 348.742556 -55.64 
L 349.637093 -55.64 
L 350.531629 -55.64 
L 351.426165 -55.64 
L 352.320702 -55.64 
L 353.215238 -55.64 
L 354.109774 -55.64 
L 355.004311 -55.64 
L 355.898847 -55.64 
L 356.793383 -55.64 
L 357.68792 -55.64 
L 358.582456 -55.64 
L 359.476992 -55.64 
L 360.371529 -55.64 
L 361.266065 -55.64 
L 362.160602 -55.64 
L 363.055138 -55.64 
L 363.949674 -55.64 
L 364.844211 -55.64 
L 365.738747 -55.64 
L 366.633283 -55.64 
L 367.52782 -55.64 
L 368.422356 -55.64 
L 369.316892 -55.64 
L 370.211429 -55.64 
L 371.105965 -55.64 
L 372.000501 -55.64 
L 372.895038 -55.64 
L 373.789574 -55.64 
L 374.68411 -55.64 
L 375.578647 -55.64 
L 376.473183 -55.64 
L 377.367719 -55.64 
L 378.262256 -55.64 
L 379.156792 -55.64 
L 380.051328 -55.64 
L 380.945865 -55.64 
L 381.840401 -55.64 
L 382.734937 -55.64 
L 383.629474 -55.64 
L 384.52401 -55.64 
L 385.418546 -55.64 
L 386.313083 -55.64 
L 387.207619 -55.64 
L 388.102155 -55.64 
L 388.996692 -55.64 
L 389.891228 -55.64 
L 390.785764 -55.64 
L 391.680301 -55.64 
L 392.574837 -55.64 
L 393.469373 -55.64 
L 394.36391 -55.64 
L 395.258446 -55.64 
L 396.152982 -55.64 
L 397.047519 -55.64 
L 397.942055 -55.64 
L 398.836591 -55.64 
L 399.731128 -55.64 
L 400.625664 -55.64 
L 401.520201 -55.64 
L 402.414737 -55.64 
L 403.309273 -55.64 
L 404.20381 -55.64 
L 405.098346 -55.64 
L 405.992882 -55.64 
L 406.887419 -55.64 
L 407.781955 -55.64 
L 408.676491 -55.64 
L 409.571028 -55.64 
L 410.465564 -55.64 
L 411.3601 -55.64 
L 412.254637 -55.64 
L 413.149173 -55.64 
L 414.043709 -55.64 
L 414.938246 -55.64 
L 415.832782 -55.64 
L 416.727318 -55.64 
L 417.621855 -55.64 
L 418.516391 -55.64 
L 419.410927 -55.64 
L 420.305464 -55.64 
L 421.2 -55.64 
L 421.2 -73.327412 
L 421.2 -73.327412 
L 420.305464 -73.797606 
L 419.410927 -74.277463 
L 418.516391 -74.767604 
L 417.621855 -75.268686 
L 416.727318 -75.781402 
L 415.832782 -76.306473 
L 414.938246 -76.84465 
L 414.043709 -77.39671 
L 413.149173 -77.963449 
L 412.254637 -78.545679 
L 411.3601 -79.144224 
L 410.465564 -79.759915 
L 409.571028 -80.393584 
L 408.676491 -81.04606 
L 407.781955 -81.718158 
L 406.887419 -82.410681 
L 405.992882 -83.124406 
L 405.098346 -83.860082 
L 404.20381 -84.618423 
L 403.309273 -85.400098 
L 402.414737 -86.205729 
L 401.520201 -87.035882 
L 400.625664 -87.891058 
L 399.731128 -88.771691 
L 398.836591 -89.67814 
L 397.942055 -90.61068 
L 397.047519 -91.569502 
L 396.152982 -92.554702 
L 395.258446 -93.566277 
L 394.36391 -94.604123 
L 393.469373 -95.668027 
L 392.574837 -96.757668 
L 391.680301 -97.872607 
L 390.785764 -99.01229 
L 389.891228 -100.176043 
L 388.996692 -101.363073 
L 388.102155 -102.572463 
L 387.207619 -103.803176 
L 386.313083 -105.054054 
L 385.418546 -106.323817 
L 384.52401 -107.611069 
L 383.629474 -108.914299 
L 382.734937 -110.231881 
L 381.840401 -111.562083 
L 380.945865 -112.90307 
L 380.051328 -114.252907 
L 379.156792 -115.609569 
L 378.262256 -116.970944 
L 377.367719 -118.334841 
L 376.473183 -119.698999 
L 375.578647 -121.061094 
L 374.68411 -122.418748 
L 373.789574 -123.769536 
L 372.895038 -125.110998 
L 372.000501 -126.440648 
L 371.105965 -127.75598 
L 370.211429 -129.054485 
L 369.316892 -130.333653 
L 368.422356 -131.590988 
L 367.52782 -132.824016 
L 366.633283 -134.030297 
L 365.738747 -135.207431 
L 364.844211 -136.353069 
L 363.949674 -137.464926 
L 363.055138 -138.540782 
L 362.160602 -139.578499 
L 361.266065 -140.576022 
L 360.371529 -141.531391 
L 359.476992 -142.442745 
L 358.582456 -143.308334 
L 357.68792 -144.126516 
L 356.793383 -144.895773 
L 355.898847 -145.614705 
L 355.004311 -146.282044 
L 354.109774 -146.89665 
L 353.215238 -147.457519 
L 352.320702 -147.963782 
L 351.426165 -148.414706 
L 350.531629 -148.8097 
L 349.637093 -149.14831 
L 348.742556 -149.430221 
L 347.84802 -149.655255 
L 346.953484 -149.823373 
L 346.058947 -149.934667 
L 345.164411 -149.989364 
L 344.269875 -149.98782 
L 343.375338 -149.930516 
L 342.480802 -149.818057 
L 341.586266 -149.651166 
L 340.691729 -149.430679 
L 339.797193 -149.157545 
L 338.902657 -148.832817 
L 338.00812 -148.457647 
L 337.113584 -148.033286 
L 336.219048 -147.561073 
L 335.324511 -147.042432 
L 334.429975 -146.478872 
L 333.535439 -145.871972 
L 332.640902 -145.223385 
L 331.746366 -144.534829 
L 330.85183 -143.808084 
L 329.957293 -143.044983 
L 329.062757 -142.247414 
L 328.168221 -141.417312 
L 327.273684 -140.556655 
L 326.379148 -139.66746 
L 325.484612 -138.75178 
L 324.590075 -137.811702 
L 323.695539 -136.849339 
L 322.801003 -135.866831 
L 321.906466 -134.866341 
L 321.01193 -133.850051 
L 320.117393 -132.820162 
L 319.222857 -131.778887 
L 318.328321 -130.728455 
L 317.433784 -129.671102 
L 316.539248 -128.609075 
L 315.644712 -127.544625 
L 314.750175 -126.48001 
L 313.855639 -125.417488 
L 312.961103 -124.35932 
L 312.066566 -123.307764 
L 311.17203 -122.265078 
L 310.277494 -121.233515 
L 309.382957 -120.21532 
L 308.488421 -119.212734 
L 307.593885 -118.227986 
L 306.699348 -117.263296 
L 305.804812 -116.32087 
L 304.910276 -115.4029 
L 304.015739 -114.511561 
L 303.121203 -113.64901 
L 302.226667 -112.817385 
L 301.33213 -112.0188 
L 300.437594 -111.255346 
L 299.543058 -110.529086 
L 298.648521 -109.842056 
L 297.753985 -109.196261 
L 296.859449 -108.593674 
L 295.964912 -108.036231 
L 295.070376 -107.525831 
L 294.17584 -107.064337 
L 293.281303 -106.653565 
L 292.386767 -106.295292 
L 291.492231 -105.991246 
L 290.597694 -105.743107 
L 289.703158 -105.552506 
L 288.808622 -105.421022 
L 287.914085 -105.350177 
L 287.019549 -105.341439 
L 286.125013 -105.396216 
L 285.230476 -105.515856 
L 284.33594 -105.701647 
L 283.441404 -105.954809 
L 282.546867 -106.2765 
L 281.652331 -106.667809 
L 280.757794 -107.129756 
L 279.863258 -107.663289 
L 278.968722 -108.269288 
L 278.074185 -108.948555 
L 277.179649 -109.701818 
L 276.285113 -110.529729 
L 275.390576 -111.432863 
L 274.49604 -112.411712 
L 273.601504 -113.466692 
L 272.706967 -114.598133 
L 271.812431 -115.806282 
L 270.917895 -117.091305 
L 270.023358 -118.453277 
L 269.128822 -119.892189 
L 268.234286 -121.407944 
L 267.339749 -123.000352 
L 266.445213 -124.669137 
L 265.550677 -126.413929 
L 264.65614 -128.234265 
L 263.761604 -130.12959 
L 262.867068 -132.099255 
L 261.972531 -134.142514 
L 261.077995 -136.25853 
L 260.183459 -138.446366 
L 259.288922 -140.704993 
L 258.394386 -143.033285 
L 257.49985 -145.430019 
L 256.605313 -147.89388 
L 255.710777 -150.423459 
L 254.816241 -153.017252 
L 253.921704 -155.673666 
L 253.027168 -158.391016 
L 252.132632 -161.16753 
L 251.238095 -164.001353 
L 250.343559 -166.890544 
L 249.449023 -169.833084 
L 248.554486 -172.82688 
L 247.65995 -175.869764 
L 246.765414 -178.959502 
L 245.870877 -182.093796 
L 244.976341 -185.270291 
L 244.081805 -188.486576 
L 243.187268 -191.740197 
L 242.292732 -195.028655 
L 241.398195 -198.349416 
L 240.503659 -201.699919 
L 239.609123 -205.077578 
L 238.714586 -208.479793 
L 237.82005 -211.903951 
L 236.925514 -215.347441 
L 236.030977 -218.807653 
L 235.136441 -222.281987 
L 234.241905 -225.767861 
L 233.347368 -229.262716 
L 232.452832 -232.764021 
L 231.558296 -236.26928 
L 230.663759 -239.776035 
L 229.769223 -243.281873 
L 228.874687 -246.784427 
L 227.98015 -250.281384 
L 227.085614 -253.770483 
L 226.191078 -257.249518 
L 225.296541 -260.716344 
L 224.402005 -264.168869 
L 223.507469 -267.605061 
L 222.612932 -271.022944 
L 221.718396 -274.420597 
L 220.82386 -277.796147 
L 219.929323 -281.147774 
L 219.034787 -284.473696 
L 218.140251 -287.77217 
L 217.245714 -291.041487 
L 216.351178 -294.27996 
L 215.456642 -297.485919 
L 214.562105 -300.657705 
L 213.667569 -303.793658 
L 212.773033 -306.892108 
L 211.878496 -309.951368 
L 210.98396 -312.969723 
L 210.089424 -315.945418 
L 209.194887 -318.876653 
L 208.300351 -321.761567 
L 207.405815 -324.598232 
L 206.511278 -327.384646 
L 205.616742 -330.118716 
L 204.722206 -332.798259 
L 203.827669 -335.420987 
L 202.933133 -337.984507 
L 202.038596 -340.486306 
L 201.14406 -342.923758 
L 200.249524 -345.294108 
L 199.354987 -347.594478 
L 198.460451 -349.821864 
L 197.565915 -351.973135 
L 196.671378 -354.045034 
L 195.776842 -356.034185 
L 194.882306 -357.937094 
L 193.987769 -359.750158 
L 193.093233 -361.469672 
L 192.198697 -363.091839 
L 191.30416 -364.612782 
L 190.409624 -366.028555 
L 189.515088 -367.335159 
L 188.620551 -368.528558 
L 187.726015 -369.604695 
L 186.831479 -370.559512 
L 185.936942 -371.388966 
L 185.042406 -372.089056 
L 184.14787 -372.655837 
L 183.253333 -373.085448 
L 182.358797 -373.374132 
L 181.464261 -373.518261 
L 180.569724 -373.514357 
L 179.675188 -373.359117 
L 178.780652 -373.049439 
L 177.886115 -372.582439 
L 176.991579 -371.955481 
L 176.097043 -371.166194 
L 175.202506 -370.212493 
L 174.30797 -369.092605 
L 173.413434 -367.805079 
L 172.518897 -366.348814 
L 171.624361 -364.723065 
L 170.729825 -362.927466 
L 169.835288 -360.962038 
L 168.940752 -358.827201 
L 168.046216 -356.523784 
L 167.151679 -354.05303 
L 166.257143 -351.416603 
L 165.362607 -348.616588 
L 164.46807 -345.655495 
L 163.573534 -342.536252 
L 162.678997 -339.262204 
L 161.784461 -335.837109 
L 160.889925 -332.265124 
L 159.995388 -328.550795 
L 159.100852 -324.69905 
L 158.206316 -320.715176 
L 157.311779 -316.604808 
L 156.417243 -312.373907 
L 155.522707 -308.028742 
L 154.62817 -303.575866 
L 153.733634 -299.022094 
L 152.839098 -294.374477 
L 151.944561 -289.640279 
L 151.050025 -284.826946 
L 150.155489 -279.942083 
L 149.260952 -274.993424 
L 148.366416 -269.988801 
L 147.47188 -264.936121 
L 146.577343 -259.843332 
L 145.682807 -254.718398 
L 144.788271 -249.569268 
L 143.893734 -244.403848 
L 142.999198 -239.229976 
L 142.104662 -234.055395 
L 141.210125 -228.887724 
L 140.315589 -223.734438 
L 139.421053 -218.602841 
L 138.526516 -213.500044 
L 137.63198 -208.432947 
L 136.737444 -203.408215 
L 135.842907 -198.432264 
L 134.948371 -193.511243 
L 134.053835 -188.651018 
L 133.159298 -183.857161 
L 132.264762 -179.134938 
L 131.370226 -174.489298 
L 130.475689 -169.924866 
L 129.581153 -165.445937 
L 128.686617 -161.05647 
L 127.79208 -156.760088 
L 126.897544 -152.560073 
L 126.003008 -148.459367 
L 125.108471 -144.460576 
L 124.213935 -140.56597 
L 123.319398 -136.777488 
L 122.424862 -133.096747 
L 121.530326 -129.525044 
L 120.635789 -126.063367 
L 119.741253 -122.712401 
L 118.846717 -119.472544 
L 117.95218 -116.34391 
L 117.057644 -113.326346 
L 116.163108 -110.419442 
L 115.268571 -107.622542 
L 114.374035 -104.93476 
L 113.479499 -102.354992 
L 112.584962 -99.881929 
L 111.690426 -97.514073 
L 110.79589 -95.249746 
L 109.901353 -93.087111 
L 109.006817 -91.02418 
L 108.112281 -89.058828 
L 107.217744 -87.188813 
L 106.323208 -85.41178 
L 105.428672 -83.725281 
L 104.534135 -82.126784 
L 103.639599 -80.613686 
L 102.745063 -79.183327 
L 101.850526 -77.832998 
L 100.95599 -76.559954 
L 100.061454 -75.361422 
L 99.166917 -74.234616 
L 98.272381 -73.17674 
L 97.377845 -72.185 
L 96.483308 -71.256613 
L 95.588772 -70.388812 
L 94.694236 -69.578855 
L 93.799699 -68.824032 
L 92.905163 -68.12167 
L 92.010627 -67.469136 
L 91.11609 -66.863849 
L 90.221554 -66.303276 
L 89.327018 -65.784943 
L 88.432481 -65.306435 
L 87.537945 -64.865399 
L 86.643409 -64.45955 
L 85.748872 -64.086667 
L 84.854336 -63.744603 
L 83.959799 -63.431282 
L 83.065263 -63.144698 
L 82.170727 -62.882923 
L 81.27619 -62.644101 
L 80.381654 -62.426451 
L 79.487118 -62.228268 
L 78.592581 -62.047923 
L 77.698045 -61.883862 
L 76.803509 -61.734602 
L 75.908972 -61.598739 
L 75.014436 -61.47494 
L 74.1199 -61.361942 
L 73.225363 -61.258556 
L 72.330827 -61.163662 
L 71.436291 -61.076209 
L 70.541754 -60.995212 
L 69.647218 -60.919753 
L 68.752682 -60.848977 
L 67.858145 -60.782092 
L 66.963609 -60.718367 
L 66.069073 -60.657128 
L 65.174536 -60.597762 
L 64.28 -60.539707 
z
"/>
    </defs>
    <g clip-path="url(#p6192b40dd7)">
     <use xlink:href="#md9630d1488" x="0" y="432" style="fill: #4285f4; fill-opacity: 0.35"/>
    </g>
   </g>
   <g id="matplotlib.axis_1">
    <g id="xtick_1">
     <g id="line2d_1">
      <defs>
       <path id="m046bbaaa24" d="M 0 0 
L 0 3.5 
" style="stroke: #000000; stroke-width: 0.8"/>
      </defs>
      <g>
       <use xlink:href="#m046bbaaa24" x="78.620536" y="376.36" style="stroke: #000000; stroke-width: 0.8"/>
      </g>
     </g>
     <g id="text_1">
      <!-- -66.8 -->
      <g transform="translate(60.509129 393.997813) scale(0.14 -0.14)">
       <defs>
        <path id="DejaVuSans-2d" d="M 313 2009 
L 1997 2009 
L 1997 1497 
L 313 1497 
L 313 2009 
z
" transform="scale(0.015625)"/>
        <path id="DejaVuSans-36" d="M 2113 2584 
Q 1688 2584 1439 2293 
Q 1191 2003 1191 1497 
Q 1191 994 1439 701 
Q 1688 409 2113 409 
Q 2538 409 2786 701 
Q 3034 994 3034 1497 
Q 3034 2003 2786 2293 
Q 2538 2584 2113 2584 
z
M 3366 4563 
L 3366 3988 
Q 3128 4100 2886 4159 
Q 2644 4219 2406 4219 
Q 1781 4219 1451 3797 
Q 1122 3375 1075 2522 
Q 1259 2794 1537 2939 
Q 1816 3084 2150 3084 
Q 2853 3084 3261 2657 
Q 3669 2231 3669 1497 
Q 3669 778 3244 343 
Q 2819 -91 2113 -91 
Q 1303 -91 875 529 
Q 447 1150 447 2328 
Q 447 3434 972 4092 
Q 1497 4750 2381 4750 
Q 2619 4750 2861 4703 
Q 3103 4656 3366 4563 
z
" transform="scale(0.015625)"/>
        <path id="DejaVuSans-2e" d="M 684 794 
L 1344 794 
L 1344 0 
L 684 0 
L 684 794 
z
" transform="scale(0.015625)"/>
        <path id="DejaVuSans-38" d="M 2034 2216 
Q 1584 2216 1326 1975 
Q 1069 1734 1069 1313 
Q 1069 891 1326 650 
Q 1584 409 2034 409 
Q 2484 409 2743 651 
Q 3003 894 3003 1313 
Q 3003 1734 2745 1975 
Q 2488 2216 2034 2216 
z
M 1403 2484 
Q 997 2584 770 2862 
Q 544 3141 544 3541 
Q 544 4100 942 4425 
Q 1341 4750 2034 4750 
Q 2731 4750 3128 4425 
Q 3525 4100 3525 3541 
Q 3525 3141 3298 2862 
Q 3072 2584 2669 2484 
Q 3125 2378 3379 2068 
Q 3634 1759 3634 1313 
Q 3634 634 3220 271 
Q 2806 -91 2034 -91 
Q 1263 -91 848 271 
Q 434 634 434 1313 
Q 434 1759 690 2068 
Q 947 2378 1403 2484 
z
M 1172 3481 
Q 1172 3119 1398 2916 
Q 1625 2713 2034 2713 
Q 2441 2713 2670 2916 
Q 2900 3119 2900 3481 
Q 2900 3844 2670 4047 
Q 2441 4250 2034 4250 
Q 1625 4250 1398 4047 
Q 1172 3844 1172 3481 
z
" transform="scale(0.015625)"/>
       </defs>
       <use xlink:href="#DejaVuSans-2d"/>
       <use xlink:href="#DejaVuSans-36" transform="translate(36.083984 0)"/>
       <use xlink:href="#DejaVuSans-36" transform="translate(99.707031 0)"/>
       <use xlink:href="#DejaVuSans-2e" transform="translate(163.330078 0)"/>
       <use xlink:href="#DejaVuSans-38" transform="translate(195.117188 0)"/>
      </g>
     </g>
    </g>
    <g id="xtick_2">
     <g id="line2d_2">
      <g>
       <use xlink:href="#m046bbaaa24" x="118.455357" y="376.36" style="stroke: #000000; stroke-width: 0.8"/>
      </g>
     </g>
     <g id="text_2">
      <!-- -66.5 -->
      <g transform="translate(100.343951 393.997813) scale(0.14 -0.14)">
       <defs>
        <path id="DejaVuSans-35" d="M 691 4666 
L 3169 4666 
L 3169 4134 
L 1269 4134 
L 1269 2991 
Q 1406 3038 1543 3061 
Q 1681 3084 1819 3084 
Q 2600 3084 3056 2656 
Q 3513 2228 3513 1497 
Q 3513 744 3044 326 
Q 2575 -91 1722 -91 
Q 1428 -91 1123 -41 
Q 819 9 494 109 
L 494 744 
Q 775 591 1075 516 
Q 1375 441 1709 441 
Q 2250 441 2565 725 
Q 2881 1009 2881 1497 
Q 2881 1984 2565 2268 
Q 2250 2553 1709 2553 
Q 1456 2553 1204 2497 
Q 953 2441 691 2322 
L 691 4666 
z
" transform="scale(0.015625)"/>
       </defs>
       <use xlink:href="#DejaVuSans-2d"/>
       <use xlink:href="#DejaVuSans-36" transform="translate(36.083984 0)"/>
       <use xlink:href="#DejaVuSans-36" transform="translate(99.707031 0)"/>
       <use xlink:href="#DejaVuSans-2e" transform="translate(163.330078 0)"/>
       <use xlink:href="#DejaVuSans-35" transform="translate(195.117188 0)"/>
      </g>
     </g>
    </g>
    <g id="xtick_3">
     <g id="line2d_3">
      <g>
       <use xlink:href="#m046bbaaa24" x="158.290179" y="376.36" style="stroke: #000000; stroke-width: 0.8"/>
      </g>
     </g>
     <g id="text_3">
      <!-- -66.2 -->
      <g transform="translate(140.178772 393.997813) scale(0.14 -0.14)">
       <defs>
        <path id="DejaVuSans-32" d="M 1228 531 
L 3431 531 
L 3431 0 
L 469 0 
L 469 531 
Q 828 903 1448 1529 
Q 2069 2156 2228 2338 
Q 2531 2678 2651 2914 
Q 2772 3150 2772 3378 
Q 2772 3750 2511 3984 
Q 2250 4219 1831 4219 
Q 1534 4219 1204 4116 
Q 875 4013 500 3803 
L 500 4441 
Q 881 4594 1212 4672 
Q 1544 4750 1819 4750 
Q 2544 4750 2975 4387 
Q 3406 4025 3406 3419 
Q 3406 3131 3298 2873 
Q 3191 2616 2906 2266 
Q 2828 2175 2409 1742 
Q 1991 1309 1228 531 
z
" transform="scale(0.015625)"/>
       </defs>
       <use xlink:href="#DejaVuSans-2d"/>
       <use xlink:href="#DejaVuSans-36" transform="translate(36.083984 0)"/>
       <use xlink:href="#DejaVuSans-36" transform="translate(99.707031 0)"/>
       <use xlink:href="#DejaVuSans-2e" transform="translate(163.330078 0)"/>
       <use xlink:href="#DejaVuSans-32" transform="translate(195.117188 0)"/>
      </g>
     </g>
    </g>
    <g id="xtick_4">
     <g id="line2d_4">
      <g>
       <use xlink:href="#m046bbaaa24" x="198.125" y="376.36" style="stroke: #000000; stroke-width: 0.8"/>
      </g>
     </g>
     <g id="text_4">
      <!-- -66.0 -->
      <g transform="translate(180.013594 393.997813) scale(0.14 -0.14)">
       <defs>
        <path id="DejaVuSans-30" d="M 2034 4250 
Q 1547 4250 1301 3770 
Q 1056 3291 1056 2328 
Q 1056 1369 1301 889 
Q 1547 409 2034 409 
Q 2525 409 2770 889 
Q 3016 1369 3016 2328 
Q 3016 3291 2770 3770 
Q 2525 4250 2034 4250 
z
M 2034 4750 
Q 2819 4750 3233 4129 
Q 3647 3509 3647 2328 
Q 3647 1150 3233 529 
Q 2819 -91 2034 -91 
Q 1250 -91 836 529 
Q 422 1150 422 2328 
Q 422 3509 836 4129 
Q 1250 4750 2034 4750 
z
" transform="scale(0.015625)"/>
       </defs>
       <use xlink:href="#DejaVuSans-2d"/>
       <use xlink:href="#DejaVuSans-36" transform="translate(36.083984 0)"/>
       <use xlink:href="#DejaVuSans-36" transform="translate(99.707031 0)"/>
       <use xlink:href="#DejaVuSans-2e" transform="translate(163.330078 0)"/>
       <use xlink:href="#DejaVuSans-30" transform="translate(195.117188 0)"/>
      </g>
     </g>
    </g>
    <g id="xtick_5">
     <g id="line2d_5">
      <g>
       <use xlink:href="#m046bbaaa24" x="237.959821" y="376.36" style="stroke: #000000; stroke-width: 0.8"/>
      </g>
     </g>
     <g id="text_5">
      <!-- -65.8 -->
      <g transform="translate(219.848415 393.997813) scale(0.14 -0.14)">
       <use xlink:href="#DejaVuSans-2d"/>
       <use xlink:href="#DejaVuSans-36" transform="translate(36.083984 0)"/>
       <use xlink:href="#DejaVuSans-35" transform="translate(99.707031 0)"/>
       <use xlink:href="#DejaVuSans-2e" transform="translate(163.330078 0)"/>
       <use xlink:href="#DejaVuSans-38" transform="translate(195.117188 0)"/>
      </g>
     </g>
    </g>
    <g id="xtick_6">
     <g id="line2d_6">
      <g>
       <use xlink:href="#m046bbaaa24" x="277.794643" y="376.36" style="stroke: #000000; stroke-width: 0.8"/>
      </g>
     </g>
     <g id="text_6">
      <!-- -65.5 -->
      <g transform="translate(259.683237 393.997813) scale(0.14 -0.14)">
       <use xlink:href="#DejaVuSans-2d"/>
       <use xlink:href="#DejaVuSans-36" transform="translate(36.083984 0)"/>
       <use xlink:href="#DejaVuSans-35" transform="translate(99.707031 0)"/>
       <use xlink:href="#DejaVuSans-2e" transform="translate(163.330078 0)"/>
       <use xlink:href="#DejaVuSans-35" transform="translate(195.117188 0)"/>
      </g>
     </g>
    </g>
    <g id="xtick_7">
     <g id="line2d_7">
      <g>
       <use xlink:href="#m046bbaaa24" x="317.629464" y="376.36" style="stroke: #000000; stroke-width: 0.8"/>
      </g>
     </g>
     <g id="text_7">
      <!-- -65.2 -->
      <g transform="translate(299.518058 393.997813) scale(0.14 -0.14)">
       <use xlink:href="#DejaVuSans-2d"/>
       <use xlink:href="#DejaVuSans-36" transform="translate(36.083984 0)"/>
       <use xlink:href="#DejaVuSans-35" transform="translate(99.707031 0)"/>
       <use xlink:href="#DejaVuSans-2e" transform="translate(163.330078 0)"/>
       <use xlink:href="#DejaVuSans-32" transform="translate(195.117188 0)"/>
      </g>
     </g>
    </g>
    <g id="xtick_8">
     <g id="line2d_8">
      <g>
       <use xlink:href="#m046bbaaa24" x="357.464286" y="376.36" style="stroke: #000000; stroke-width: 0.8"/>
      </g>
     </g>
     <g id="text_8">
      <!-- -65.0 -->
      <g transform="translate(339.352879 393.997813) scale(0.14 -0.14)">
       <use xlink:href="#DejaVuSans-2d"/>
       <use xlink:href="#DejaVuSans-36" transform="translate(36.083984 0)"/>
       <use xlink:href="#DejaVuSans-35" transform="translate(99.707031 0)"/>
       <use xlink:href="#DejaVuSans-2e" transform="translate(163.330078 0)"/>
       <use xlink:href="#DejaVuSans-30" transform="translate(195.117188 0)"/>
      </g>
     </g>
    </g>
    <g id="xtick_9">
     <g id="line2d_9">
      <g>
       <use xlink:href="#m046bbaaa24" x="397.299107" y="376.36" style="stroke: #000000; stroke-width: 0.8"/>
      </g>
     </g>
     <g id="text_9">
      <!-- -64.8 -->
      <g transform="translate(379.187701 393.997813) scale(0.14 -0.14)">
       <defs>
        <path id="DejaVuSans-34" d="M 2419 4116 
L 825 1625 
L 2419 1625 
L 2419 4116 
z
M 2253 4666 
L 3047 4666 
L 3047 1625 
L 3713 1625 
L 3713 1100 
L 3047 1100 
L 3047 0 
L 2419 0 
L 2419 1100 
L 313 1100 
L 313 1709 
L 2253 4666 
z
" transform="scale(0.015625)"/>
       </defs>
       <use xlink:href="#DejaVuSans-2d"/>
       <use xlink:href="#DejaVuSans-36" transform="translate(36.083984 0)"/>
       <use xlink:href="#DejaVuSans-34" transform="translate(99.707031 0)"/>
       <use xlink:href="#DejaVuSans-2e" transform="translate(163.330078 0)"/>
       <use xlink:href="#DejaVuSans-38" transform="translate(195.117188 0)"/>
      </g>
     </g>
    </g>
    <g id="text_10">
     <!-- Hit Point (mm) -->
     <g transform="translate(170.05875 416.10625) scale(0.2 -0.2)">
      <defs>
       <path id="DejaVuSans-48" d="M 628 4666 
L 1259 4666 
L 1259 2753 
L 3553 2753 
L 3553 4666 
L 4184 4666 
L 4184 0 
L 3553 0 
L 3553 2222 
L 1259 2222 
L 1259 0 
L 628 0 
L 628 4666 
z
" transform="scale(0.015625)"/>
       <path id="DejaVuSans-69" d="M 603 3500 
L 1178 3500 
L 1178 0 
L 603 0 
L 603 3500 
z
M 603 4863 
L 1178 4863 
L 1178 4134 
L 603 4134 
L 603 4863 
z
" transform="scale(0.015625)"/>
       <path id="DejaVuSans-74" d="M 1172 4494 
L 1172 3500 
L 2356 3500 
L 2356 3053 
L 1172 3053 
L 1172 1153 
Q 1172 725 1289 603 
Q 1406 481 1766 481 
L 2356 481 
L 2356 0 
L 1766 0 
Q 1100 0 847 248 
Q 594 497 594 1153 
L 594 3053 
L 172 3053 
L 172 3500 
L 594 3500 
L 594 4494 
L 1172 4494 
z
" transform="scale(0.015625)"/>
       <path id="DejaVuSans-20" transform="scale(0.015625)"/>
       <path id="DejaVuSans-50" d="M 1259 4147 
L 1259 2394 
L 2053 2394 
Q 2494 2394 2734 2622 
Q 2975 2850 2975 3272 
Q 2975 3691 2734 3919 
Q 2494 4147 2053 4147 
L 1259 4147 
z
M 628 4666 
L 2053 4666 
Q 2838 4666 3239 4311 
Q 3641 3956 3641 3272 
Q 3641 2581 3239 2228 
Q 2838 1875 2053 1875 
L 1259 1875 
L 1259 0 
L 628 0 
L 628 4666 
z
" transform="scale(0.015625)"/>
       <path id="DejaVuSans-6f" d="M 1959 3097 
Q 1497 3097 1228 2736 
Q 959 2375 959 1747 
Q 959 1119 1226 758 
Q 1494 397 1959 397 
Q 2419 397 2687 759 
Q 2956 1122 2956 1747 
Q 2956 2369 2687 2733 
Q 2419 3097 1959 3097 
z
M 1959 3584 
Q 2709 3584 3137 3096 
Q 3566 2609 3566 1747 
Q 3566 888 3137 398 
Q 2709 -91 1959 -91 
Q 1206 -91 779 398 
Q 353 888 353 1747 
Q 353 2609 779 3096 
Q 1206 3584 1959 3584 
z
" transform="scale(0.015625)"/>
       <path id="DejaVuSans-6e" d="M 3513 2113 
L 3513 0 
L 2938 0 
L 2938 2094 
Q 2938 2591 2744 2837 
Q 2550 3084 2163 3084 
Q 1697 3084 1428 2787 
Q 1159 2491 1159 1978 
L 1159 0 
L 581 0 
L 581 3500 
L 1159 3500 
L 1159 2956 
Q 1366 3272 1645 3428 
Q 1925 3584 2291 3584 
Q 2894 3584 3203 3211 
Q 3513 2838 3513 2113 
z
" transform="scale(0.015625)"/>
       <path id="DejaVuSans-28" d="M 1984 4856 
Q 1566 4138 1362 3434 
Q 1159 2731 1159 2009 
Q 1159 1288 1364 580 
Q 1569 -128 1984 -844 
L 1484 -844 
Q 1016 -109 783 600 
Q 550 1309 550 2009 
Q 550 2706 781 3412 
Q 1013 4119 1484 4856 
L 1984 4856 
z
" transform="scale(0.015625)"/>
       <path id="DejaVuSans-6d" d="M 3328 2828 
Q 3544 3216 3844 3400 
Q 4144 3584 4550 3584 
Q 5097 3584 5394 3201 
Q 5691 2819 5691 2113 
L 5691 0 
L 5113 0 
L 5113 2094 
Q 5113 2597 4934 2840 
Q 4756 3084 4391 3084 
Q 3944 3084 3684 2787 
Q 3425 2491 3425 1978 
L 3425 0 
L 2847 0 
L 2847 2094 
Q 2847 2600 2669 2842 
Q 2491 3084 2119 3084 
Q 1678 3084 1418 2786 
Q 1159 2488 1159 1978 
L 1159 0 
L 581 0 
L 581 3500 
L 1159 3500 
L 1159 2956 
Q 1356 3278 1631 3431 
Q 1906 3584 2284 3584 
Q 2666 3584 2933 3390 
Q 3200 3197 3328 2828 
z
" transform="scale(0.015625)"/>
       <path id="DejaVuSans-29" d="M 513 4856 
L 1013 4856 
Q 1481 4119 1714 3412 
Q 1947 2706 1947 2009 
Q 1947 1309 1714 600 
Q 1481 -109 1013 -844 
L 513 -844 
Q 928 -128 1133 580 
Q 1338 1288 1338 2009 
Q 1338 2731 1133 3434 
Q 928 4138 513 4856 
z
" transform="scale(0.015625)"/>
      </defs>
      <use xlink:href="#DejaVuSans-48"/>
      <use xlink:href="#DejaVuSans-69" transform="translate(75.195312 0)"/>
      <use xlink:href="#DejaVuSans-74" transform="translate(102.978516 0)"/>
      <use xlink:href="#DejaVuSans-20" transform="translate(142.1875 0)"/>
      <use xlink:href="#DejaVuSans-50" transform="translate(173.974609 0)"/>
      <use xlink:href="#DejaVuSans-6f" transform="translate(230.652344 0)"/>
      <use xlink:href="#DejaVuSans-69" transform="translate(291.833984 0)"/>
      <use xlink:href="#DejaVuSans-6e" transform="translate(319.617188 0)"/>
      <use xlink:href="#DejaVuSans-74" transform="translate(382.996094 0)"/>
      <use xlink:href="#DejaVuSans-20" transform="translate(422.205078 0)"/>
      <use xlink:href="#DejaVuSans-28" transform="translate(453.992188 0)"/>
      <use xlink:href="#DejaVuSans-6d" transform="translate(493.005859 0)"/>
      <use xlink:href="#DejaVuSans-6d" transform="translate(590.417969 0)"/>
      <use xlink:href="#DejaVuSans-29" transform="translate(687.830078 0)"/>
     </g>
    </g>
   </g>
   <g id="matplotlib.axis_2">
    <g id="ytick_1">
     <g id="line2d_10">
      <defs>
       <path id="m55d9b11015" d="M 0 0 
L -3.5 0 
" style="stroke: #000000; stroke-width: 0.8"/>
      </defs>
      <g>
       <use xlink:href="#m55d9b11015" x="64.28" y="376.36" style="stroke: #000000; stroke-width: 0.8"/>
      </g>
     </g>
     <g id="text_11">
      <!-- 0.0 -->
      <g transform="translate(35.015625 381.678906) scale(0.14 -0.14)">
       <use xlink:href="#DejaVuSans-30"/>
       <use xlink:href="#DejaVuSans-2e" transform="translate(63.623047 0)"/>
       <use xlink:href="#DejaVuSans-30" transform="translate(95.410156 0)"/>
      </g>
     </g>
    </g>
    <g id="ytick_2">
     <g id="line2d_11">
      <g>
       <use xlink:href="#m55d9b11015" x="64.28" y="323.773793" style="stroke: #000000; stroke-width: 0.8"/>
      </g>
     </g>
     <g id="text_12">
      <!-- 0.2 -->
      <g transform="translate(35.015625 329.092699) scale(0.14 -0.14)">
       <use xlink:href="#DejaVuSans-30"/>
       <use xlink:href="#DejaVuSans-2e" transform="translate(63.623047 0)"/>
       <use xlink:href="#DejaVuSans-32" transform="translate(95.410156 0)"/>
      </g>
     </g>
    </g>
    <g id="ytick_3">
     <g id="line2d_12">
      <g>
       <use xlink:href="#m55d9b11015" x="64.28" y="271.187586" style="stroke: #000000; stroke-width: 0.8"/>
      </g>
     </g>
     <g id="text_13">
      <!-- 0.4 -->
      <g transform="translate(35.015625 276.506492) scale(0.14 -0.14)">
       <use xlink:href="#DejaVuSans-30"/>
       <use xlink:href="#DejaVuSans-2e" transform="translate(63.623047 0)"/>
       <use xlink:href="#DejaVuSans-34" transform="translate(95.410156 0)"/>
      </g>
     </g>
    </g>
    <g id="ytick_4">
     <g id="line2d_13">
      <g>
       <use xlink:href="#m55d9b11015" x="64.28" y="218.601379" style="stroke: #000000; stroke-width: 0.8"/>
      </g>
     </g>
     <g id="text_14">
      <!-- 0.6 -->
      <g transform="translate(35.015625 223.920285) scale(0.14 -0.14)">
       <use xlink:href="#DejaVuSans-30"/>
       <use xlink:href="#DejaVuSans-2e" transform="translate(63.623047 0)"/>
       <use xlink:href="#DejaVuSans-36" transform="translate(95.410156 0)"/>
      </g>
     </g>
    </g>
    <g id="ytick_5">
     <g id="line2d_14">
      <g>
       <use xlink:href="#m55d9b11015" x="64.28" y="166.015172" style="stroke: #000000; stroke-width: 0.8"/>
      </g>
     </g>
     <g id="text_15">
      <!-- 0.8 -->
      <g transform="translate(35.015625 171.334078) scale(0.14 -0.14)">
       <use xlink:href="#DejaVuSans-30"/>
       <use xlink:href="#DejaVuSans-2e" transform="translate(63.623047 0)"/>
       <use xlink:href="#DejaVuSans-38" transform="translate(95.410156 0)"/>
      </g>
     </g>
    </g>
    <g id="ytick_6">
     <g id="line2d_15">
      <g>
       <use xlink:href="#m55d9b11015" x="64.28" y="113.428965" style="stroke: #000000; stroke-width: 0.8"/>
      </g>
     </g>
     <g id="text_16">
      <!-- 1.0 -->
      <g transform="translate(35.015625 118.747871) scale(0.14 -0.14)">
       <defs>
        <path id="DejaVuSans-31" d="M 794 531 
L 1825 531 
L 1825 4091 
L 703 3866 
L 703 4441 
L 1819 4666 
L 2450 4666 
L 2450 531 
L 3481 531 
L 3481 0 
L 794 0 
L 794 531 
z
" transform="scale(0.015625)"/>
       </defs>
       <use xlink:href="#DejaVuSans-31"/>
       <use xlink:href="#DejaVuSans-2e" transform="translate(63.623047 0)"/>
       <use xlink:href="#DejaVuSans-30" transform="translate(95.410156 0)"/>
      </g>
     </g>
    </g>
    <g id="ytick_7">
     <g id="line2d_16">
      <g>
       <use xlink:href="#m55d9b11015" x="64.28" y="60.842758" style="stroke: #000000; stroke-width: 0.8"/>
      </g>
     </g>
     <g id="text_17">
      <!-- 1.2 -->
      <g transform="translate(35.015625 66.161664) scale(0.14 -0.14)">
       <use xlink:href="#DejaVuSans-31"/>
       <use xlink:href="#DejaVuSans-2e" transform="translate(63.623047 0)"/>
       <use xlink:href="#DejaVuSans-32" transform="translate(95.410156 0)"/>
      </g>
     </g>
    </g>
    <g id="text_18">
     <!-- Probability Density -->
     <g transform="translate(26.85625 287.633125) rotate(-90) scale(0.2 -0.2)">
      <defs>
       <path id="DejaVuSans-72" d="M 2631 2963 
Q 2534 3019 2420 3045 
Q 2306 3072 2169 3072 
Q 1681 3072 1420 2755 
Q 1159 2438 1159 1844 
L 1159 0 
L 581 0 
L 581 3500 
L 1159 3500 
L 1159 2956 
Q 1341 3275 1631 3429 
Q 1922 3584 2338 3584 
Q 2397 3584 2469 3576 
Q 2541 3569 2628 3553 
L 2631 2963 
z
" transform="scale(0.015625)"/>
       <path id="DejaVuSans-62" d="M 3116 1747 
Q 3116 2381 2855 2742 
Q 2594 3103 2138 3103 
Q 1681 3103 1420 2742 
Q 1159 2381 1159 1747 
Q 1159 1113 1420 752 
Q 1681 391 2138 391 
Q 2594 391 2855 752 
Q 3116 1113 3116 1747 
z
M 1159 2969 
Q 1341 3281 1617 3432 
Q 1894 3584 2278 3584 
Q 2916 3584 3314 3078 
Q 3713 2572 3713 1747 
Q 3713 922 3314 415 
Q 2916 -91 2278 -91 
Q 1894 -91 1617 61 
Q 1341 213 1159 525 
L 1159 0 
L 581 0 
L 581 4863 
L 1159 4863 
L 1159 2969 
z
" transform="scale(0.015625)"/>
       <path id="DejaVuSans-61" d="M 2194 1759 
Q 1497 1759 1228 1600 
Q 959 1441 959 1056 
Q 959 750 1161 570 
Q 1363 391 1709 391 
Q 2188 391 2477 730 
Q 2766 1069 2766 1631 
L 2766 1759 
L 2194 1759 
z
M 3341 1997 
L 3341 0 
L 2766 0 
L 2766 531 
Q 2569 213 2275 61 
Q 1981 -91 1556 -91 
Q 1019 -91 701 211 
Q 384 513 384 1019 
Q 384 1609 779 1909 
Q 1175 2209 1959 2209 
L 2766 2209 
L 2766 2266 
Q 2766 2663 2505 2880 
Q 2244 3097 1772 3097 
Q 1472 3097 1187 3025 
Q 903 2953 641 2809 
L 641 3341 
Q 956 3463 1253 3523 
Q 1550 3584 1831 3584 
Q 2591 3584 2966 3190 
Q 3341 2797 3341 1997 
z
" transform="scale(0.015625)"/>
       <path id="DejaVuSans-6c" d="M 603 4863 
L 1178 4863 
L 1178 0 
L 603 0 
L 603 4863 
z
" transform="scale(0.015625)"/>
       <path id="DejaVuSans-79" d="M 2059 -325 
Q 1816 -950 1584 -1140 
Q 1353 -1331 966 -1331 
L 506 -1331 
L 506 -850 
L 844 -850 
Q 1081 -850 1212 -737 
Q 1344 -625 1503 -206 
L 1606 56 
L 191 3500 
L 800 3500 
L 1894 763 
L 2988 3500 
L 3597 3500 
L 2059 -325 
z
" transform="scale(0.015625)"/>
       <path id="DejaVuSans-44" d="M 1259 4147 
L 1259 519 
L 2022 519 
Q 2988 519 3436 956 
Q 3884 1394 3884 2338 
Q 3884 3275 3436 3711 
Q 2988 4147 2022 4147 
L 1259 4147 
z
M 628 4666 
L 1925 4666 
Q 3281 4666 3915 4102 
Q 4550 3538 4550 2338 
Q 4550 1131 3912 565 
Q 3275 0 1925 0 
L 628 0 
L 628 4666 
z
" transform="scale(0.015625)"/>
       <path id="DejaVuSans-65" d="M 3597 1894 
L 3597 1613 
L 953 1613 
Q 991 1019 1311 708 
Q 1631 397 2203 397 
Q 2534 397 2845 478 
Q 3156 559 3463 722 
L 3463 178 
Q 3153 47 2828 -22 
Q 2503 -91 2169 -91 
Q 1331 -91 842 396 
Q 353 884 353 1716 
Q 353 2575 817 3079 
Q 1281 3584 2069 3584 
Q 2775 3584 3186 3129 
Q 3597 2675 3597 1894 
z
M 3022 2063 
Q 3016 2534 2758 2815 
Q 2500 3097 2075 3097 
Q 1594 3097 1305 2825 
Q 1016 2553 972 2059 
L 3022 2063 
z
" transform="scale(0.015625)"/>
       <path id="DejaVuSans-73" d="M 2834 3397 
L 2834 2853 
Q 2591 2978 2328 3040 
Q 2066 3103 1784 3103 
Q 1356 3103 1142 2972 
Q 928 2841 928 2578 
Q 928 2378 1081 2264 
Q 1234 2150 1697 2047 
L 1894 2003 
Q 2506 1872 2764 1633 
Q 3022 1394 3022 966 
Q 3022 478 2636 193 
Q 2250 -91 1575 -91 
Q 1294 -91 989 -36 
Q 684 19 347 128 
L 347 722 
Q 666 556 975 473 
Q 1284 391 1588 391 
Q 1994 391 2212 530 
Q 2431 669 2431 922 
Q 2431 1156 2273 1281 
Q 2116 1406 1581 1522 
L 1381 1569 
Q 847 1681 609 1914 
Q 372 2147 372 2553 
Q 372 3047 722 3315 
Q 1072 3584 1716 3584 
Q 2034 3584 2315 3537 
Q 2597 3491 2834 3397 
z
" transform="scale(0.015625)"/>
      </defs>
      <use xlink:href="#DejaVuSans-50"/>
      <use xlink:href="#DejaVuSans-72" transform="translate(58.552734 0)"/>
      <use xlink:href="#DejaVuSans-6f" transform="translate(97.416016 0)"/>
      <use xlink:href="#DejaVuSans-62" transform="translate(158.597656 0)"/>
      <use xlink:href="#DejaVuSans-61" transform="translate(222.074219 0)"/>
      <use xlink:href="#DejaVuSans-62" transform="translate(283.353516 0)"/>
      <use xlink:href="#DejaVuSans-69" transform="translate(346.830078 0)"/>
      <use xlink:href="#DejaVuSans-6c" transform="translate(374.613281 0)"/>
      <use xlink:href="#DejaVuSans-69" transform="translate(402.396484 0)"/>
      <use xlink:href="#DejaVuSans-74" transform="translate(430.179688 0)"/>
      <use xlink:href="#DejaVuSans-79" transform="translate(469.388672 0)"/>
      <use xlink:href="#DejaVuSans-20" transform="translate(528.568359 0)"/>
      <use xlink:href="#DejaVuSans-44" transform="translate(560.355469 0)"/>
      <use xlink:href="#DejaVuSans-65" transform="translate(637.357422 0)"/>
      <use xlink:href="#DejaVuSans-6e" transform="translate(698.880859 0)"/>
      <use xlink:href="#DejaVuSans-73" transform="translate(762.259766 0)"/>
      <use xlink:href="#DejaVuSans-69" transform="translate(814.359375 0)"/>
      <use xlink:href="#DejaVuSans-74" transform="translate(842.142578 0)"/>
      <use xlink:href="#DejaVuSans-79" transform="translate(881.351562 0)"/>
     </g>
    </g>
   </g>
   <g id="line2d_17">
    <path d="M 64.28 371.460293 
L 72.330827 370.836338 
L 76.803509 370.265398 
L 80.381654 369.573549 
L 83.065263 368.855302 
L 85.748872 367.913333 
L 88.432481 366.693565 
L 91.11609 365.136151 
L 92.905163 363.87833 
L 94.694236 362.421145 
L 96.483308 360.743387 
L 98.272381 358.82326 
L 100.061454 356.638578 
L 101.850526 354.167002 
L 103.639599 351.386314 
L 105.428672 348.274719 
L 107.217744 344.811187 
L 109.006817 340.97582 
L 110.79589 336.750254 
L 112.584962 332.118071 
L 115.268571 324.377458 
L 117.95218 315.65609 
L 120.635789 305.936633 
L 123.319398 295.222512 
L 126.003008 283.540633 
L 128.686617 270.94353 
L 132.264762 252.865062 
L 135.842907 233.567736 
L 141.210125 203.112276 
L 150.155489 152.057917 
L 153.733634 132.977906 
L 156.417243 119.626093 
L 159.100852 107.30095 
L 161.784461 96.162891 
L 163.573534 89.463748 
L 165.362607 83.383412 
L 167.151679 77.94697 
L 168.940752 73.172799 
L 170.729825 69.072534 
L 172.518897 65.651186 
L 174.30797 62.907395 
L 176.097043 60.833806 
L 176.991579 60.044519 
L 177.886115 59.417561 
L 178.780652 58.950561 
L 179.675188 58.640883 
L 180.569724 58.485643 
L 181.464261 58.481739 
L 182.358797 58.625868 
L 183.253333 58.914552 
L 184.14787 59.344163 
L 185.042406 59.910944 
L 186.831479 61.440488 
L 188.620551 63.471442 
L 190.409624 65.971445 
L 192.198697 68.908161 
L 193.987769 72.249842 
L 195.776842 75.965815 
L 198.460451 82.178136 
L 201.14406 89.076242 
L 203.827669 96.579013 
L 207.405815 107.401768 
L 210.98396 119.030277 
L 214.562105 131.342295 
L 219.034787 147.526304 
L 224.402005 167.831131 
L 234.241905 206.232139 
L 240.503659 230.300081 
L 244.976341 246.729709 
L 248.554486 259.17312 
L 252.132632 270.83247 
L 255.710777 281.576541 
L 258.394386 288.966715 
L 261.077995 295.74147 
L 263.761604 301.87041 
L 266.445213 307.330863 
L 269.128822 312.107811 
L 270.917895 314.908695 
L 272.706967 317.401867 
L 274.49604 319.588288 
L 276.285113 321.470271 
L 278.074185 323.051445 
L 279.863258 324.336711 
L 281.652331 325.332191 
L 283.441404 326.045191 
L 285.230476 326.484144 
L 287.019549 326.658561 
L 288.808622 326.578978 
L 290.597694 326.256893 
L 292.386767 325.704708 
L 294.17584 324.935663 
L 295.964912 323.963769 
L 297.753985 322.803739 
L 300.437594 320.744654 
L 303.121203 318.35099 
L 305.804812 315.67913 
L 309.382957 311.78468 
L 314.750175 305.51999 
L 321.906466 297.133659 
L 325.484612 293.24822 
L 328.168221 290.582688 
L 330.85183 288.191916 
L 333.535439 286.128028 
L 336.219048 284.438927 
L 338.00812 283.542353 
L 339.797193 282.842455 
L 341.586266 282.348834 
L 343.375338 282.069484 
L 345.164411 282.010636 
L 346.953484 282.176627 
L 348.742556 282.569779 
L 350.531629 283.1903 
L 352.320702 284.036218 
L 354.109774 285.10335 
L 355.898847 286.385295 
L 357.68792 287.873484 
L 360.371529 290.468609 
L 363.055138 293.459218 
L 365.738747 296.792569 
L 369.316892 301.666347 
L 373.789574 308.230464 
L 386.313083 326.945946 
L 389.891228 331.823957 
L 393.469373 336.331973 
L 397.047519 340.430498 
L 400.625664 344.108942 
L 404.20381 347.381577 
L 407.781955 350.281842 
L 411.3601 352.855776 
L 414.938246 355.15535 
L 419.410927 357.722537 
L 421.2 358.672588 
L 421.2 358.672588 
" clip-path="url(#p6192b40dd7)" style="fill: none; stroke: #4285f4; stroke-width: 2; stroke-linecap: square"/>
   </g>
   <g id="line2d_18">
    <path d="M 181.464261 376.36 
L 181.464261 10.8 
" clip-path="url(#p6192b40dd7)" style="fill: none; stroke-dasharray: 9.25,4; stroke-dashoffset: 0; stroke: #ffa500; stroke-width: 2.5"/>
   </g>
   <g id="patch_3">
    <path d="M 64.28 376.36 
L 64.28 10.8 
" style="fill: none; stroke: #000000; stroke-width: 1.5; stroke-linejoin: miter; stroke-linecap: square"/>
   </g>
   <g id="patch_4">
    <path d="M 421.2 376.36 
L 421.2 10.8 
" style="fill: none; stroke: #000000; stroke-width: 1.5; stroke-linejoin: miter; stroke-linecap: square"/>
   </g>
   <g id="patch_5">
    <path d="M 64.28 376.36 
L 421.2 376.36 
" style="fill: none; stroke: #000000; stroke-width: 1.5; stroke-linejoin: miter; stroke-linecap: square"/>
   </g>
   <g id="patch_6">
    <path d="M 64.28 10.8 
L 421.2 10.8 
" style="fill: none; stroke: #000000; stroke-width: 1.5; stroke-linejoin: miter; stroke-linecap: square"/>
   </g>
   <g id="legend_1">
    <g id="line2d_19">
     <path d="M 282.781562 29.137812 
L 296.781562 29.137812 
L 310.781562 29.137812 
" style="fill: none; stroke-dasharray: 9.25,4; stroke-dashoffset: 0; stroke: #ffa500; stroke-width: 2.5"/>
    </g>
    <g id="text_19">
     <!-- Max Density -->
     <g transform="translate(321.981562 34.037812) scale(0.14 -0.14)">
      <defs>
       <path id="DejaVuSans-4d" d="M 628 4666 
L 1569 4666 
L 2759 1491 
L 3956 4666 
L 4897 4666 
L 4897 0 
L 4281 0 
L 4281 4097 
L 3078 897 
L 2444 897 
L 1241 4097 
L 1241 0 
L 628 0 
L 628 4666 
z
" transform="scale(0.015625)"/>
       <path id="DejaVuSans-78" d="M 3513 3500 
L 2247 1797 
L 3578 0 
L 2900 0 
L 1881 1375 
L 863 0 
L 184 0 
L 1544 1831 
L 300 3500 
L 978 3500 
L 1906 2253 
L 2834 3500 
L 3513 3500 
z
" transform="scale(0.015625)"/>
      </defs>
      <use xlink:href="#DejaVuSans-4d"/>
      <use xlink:href="#DejaVuSans-61" transform="translate(86.279297 0)"/>
      <use xlink:href="#DejaVuSans-78" transform="translate(147.558594 0)"/>
      <use xlink:href="#DejaVuSans-20" transform="translate(206.738281 0)"/>
      <use xlink:href="#DejaVuSans-44" transform="translate(238.525391 0)"/>
      <use xlink:href="#DejaVuSans-65" transform="translate(315.527344 0)"/>
      <use xlink:href="#DejaVuSans-6e" transform="translate(377.050781 0)"/>
      <use xlink:href="#DejaVuSans-73" transform="translate(440.429688 0)"/>
      <use xlink:href="#DejaVuSans-69" transform="translate(492.529297 0)"/>
      <use xlink:href="#DejaVuSans-74" transform="translate(520.3125 0)"/>
      <use xlink:href="#DejaVuSans-79" transform="translate(559.521484 0)"/>
     </g>
    </g>
   </g>
  </g>
 </g>
 <defs>
  <clipPath id="p6192b40dd7">
   <rect x="64.28" y="10.8" width="356.92" height="365.56"/>
  </clipPath>
 </defs>
</svg>
