<?xml version="1.0" encoding="utf-8" standalone="no"?>
<!DOCTYPE svg PUBLIC "-//W3C//DTD SVG 1.1//EN"
  "http://www.w3.org/Graphics/SVG/1.1/DTD/svg11.dtd">
<svg xmlns:xlink="http://www.w3.org/1999/xlink" width="941.76pt" height="757.44pt" viewBox="0 0 941.76 757.44" xmlns="http://www.w3.org/2000/svg" version="1.1">
 <metadata>
  <rdf:RDF xmlns:dc="http://purl.org/dc/elements/1.1/" xmlns:cc="http://creativecommons.org/ns#" xmlns:rdf="http://www.w3.org/1999/02/22-rdf-syntax-ns#">
   <cc:Work>
    <dc:type rdf:resource="http://purl.org/dc/dcmitype/StillImage"/>
    <dc:date>2026-05-21T16:25:37.192099</dc:date>
    <dc:format>image/svg+xml</dc:format>
    <dc:creator>
     <cc:Agent>
      <dc:title>Matplotlib v3.10.0, https://matplotlib.org/</dc:title>
     </cc:Agent>
    </dc:creator>
   </cc:Work>
  </rdf:RDF>
 </metadata>
 <defs>
  <style type="text/css">*{stroke-linejoin: round; stroke-linecap: butt}</style>
 </defs>
 <g id="figure_1">
  <g id="patch_1">
   <path d="M 0 757.44 
L 941.76 757.44 
L 941.76 0 
L 0 0 
z
" style="fill: #ffffff"/>
  </g>
  <g id="axes_1">
   <g id="patch_2">
    <path d="M 7.2 750.24 
L 934.56 750.24 
L 934.56 7.2 
L 7.2 7.2 
z
" style="fill: #ffffff"/>
   </g>
   <g id="patch_3">
    <path d="M 838.88 543.84 
L 838.589058 547.122298 
L 837.716693 550.399406 
L 836.264283 553.666142 
L 834.234126 556.917341 
L 831.629431 560.147862 
L 828.454317 563.352597 
L 824.713805 566.526478 
L 820.413808 569.664488 
L 815.561127 572.761664 
L 810.163435 575.813108 
L 804.229265 578.813997 
L 797.768001 581.759584 
L 790.789861 584.645213 
L 783.305877 587.46632 
L 775.327884 590.218446 
L 766.868496 592.897237 
L 757.941089 595.498459 
L 748.55978 598.017998 
L 738.739402 600.45187 
L 728.495483 602.796228 
L 717.844222 605.047364 
L 706.802459 607.201718 
L 695.387654 609.255884 
L 683.617856 611.206615 
L 671.511676 613.050825 
L 659.088256 614.785598 
L 646.367241 616.408192 
L 633.368743 617.91604 
L 620.113318 619.306759 
L 606.621924 620.57815 
L 592.915895 621.728202 
L 579.016901 622.755097 
L 564.946921 623.65721 
L 550.728201 624.433117 
L 536.383226 625.081588 
L 521.934676 625.601601 
L 507.405398 625.992331 
L 492.818366 626.253162 
L 478.196645 626.38368 
L 463.563355 626.38368 
L 448.941634 626.253162 
L 434.354602 625.992331 
L 419.825324 625.601601 
L 405.376774 625.081588 
L 391.031799 624.433117 
L 376.813079 623.65721 
L 362.743099 622.755097 
L 348.844105 621.728202 
L 335.138076 620.57815 
L 321.646682 619.306759 
L 308.391257 617.91604 
L 295.392759 616.408192 
L 282.671744 614.785598 
L 270.248324 613.050825 
L 258.142144 611.206615 
L 246.372346 609.255884 
L 234.957541 607.201718 
L 223.915778 605.047364 
L 213.264517 602.796228 
L 203.020598 600.45187 
L 193.20022 598.017998 
L 183.818911 595.498459 
L 174.891504 592.897237 
L 166.432116 590.218446 
L 158.454123 587.46632 
L 150.970139 584.645213 
L 143.991999 581.759584 
L 137.530735 578.813997 
L 131.596565 575.813108 
L 126.198873 572.761664 
L 121.346192 569.664488 
L 117.046195 566.526478 
L 113.305683 563.352597 
L 110.130569 560.147862 
L 107.525874 556.917341 
L 105.495717 553.666142 
L 104.043307 550.399406 
L 103.170942 547.122298 
L 102.88 543.84 
L 102.88 572.736 
L 103.170942 576.018298 
L 104.043307 579.295406 
L 105.495717 582.562142 
L 107.525874 585.813341 
L 110.130569 589.043862 
L 113.305683 592.248597 
L 117.046195 595.422478 
L 121.346192 598.560488 
L 126.198873 601.657664 
L 131.596565 604.709108 
L 137.530735 607.709997 
L 143.991999 610.655584 
L 150.970139 613.541213 
L 158.454123 616.36232 
L 166.432116 619.114446 
L 174.891504 621.793237 
L 183.818911 624.394459 
L 193.20022 626.913998 
L 203.020598 629.34787 
L 213.264517 631.692228 
L 223.915778 633.943364 
L 234.957541 636.097718 
L 246.372346 638.151884 
L 258.142144 640.102615 
L 270.248324 641.946825 
L 282.671744 643.681598 
L 295.392759 645.304192 
L 308.391257 646.81204 
L 321.646682 648.202759 
L 335.138076 649.47415 
L 348.844105 650.624202 
L 362.743099 651.651097 
L 376.813079 652.55321 
L 391.031799 653.329117 
L 405.376774 653.977588 
L 419.825324 654.497601 
L 434.354602 654.888331 
L 448.941634 655.149162 
L 463.563355 655.27968 
L 478.196645 655.27968 
L 492.818366 655.149162 
L 507.405398 654.888331 
L 521.934676 654.497601 
L 536.383226 653.977588 
L 550.728201 653.329117 
L 564.946921 652.55321 
L 579.016901 651.651097 
L 592.915895 650.624202 
L 606.621924 649.47415 
L 620.113318 648.202759 
L 633.368743 646.81204 
L 646.367241 645.304192 
L 659.088256 643.681598 
L 671.511676 641.946825 
L 683.617856 640.102615 
L 695.387654 638.151884 
L 706.802459 636.097718 
L 717.844222 633.943364 
L 728.495483 631.692228 
L 738.739402 629.34787 
L 748.55978 626.913998 
L 757.941089 624.394459 
L 766.868496 621.793237 
L 775.327884 619.114446 
L 783.305877 616.36232 
L 790.789861 613.541213 
L 797.768001 610.655584 
L 804.229265 607.709997 
L 810.163435 604.709108 
L 815.561127 601.657664 
L 820.413808 598.560488 
L 824.713805 595.422478 
L 828.454317 592.248597 
L 831.629431 589.043862 
L 834.234126 585.813341 
L 836.264283 582.562142 
L 837.716693 579.295406 
L 838.589058 576.018298 
L 838.88 572.736 
z
" clip-path="url(#pc060b771ce)" style="fill: #dadce0; stroke: #5f6368; stroke-width: 1.2; stroke-linejoin: miter"/>
   </g>
   <g id="matplotlib.axis_1"/>
   <g id="matplotlib.axis_2"/>
   <g id="patch_4">
    <path d="M 470.88 626.4 
C 568.474741 626.4 662.085392 617.700958 731.095295 602.218736 
C 800.105199 586.736514 838.88 565.735168 838.88 543.84 
C 838.88 521.944832 800.105199 500.943486 731.095295 485.461264 
C 662.085392 469.979042 568.474741 461.28 470.88 461.28 
C 373.285259 461.28 279.674608 469.979042 210.664705 485.461264 
C 141.654801 500.943486 102.88 521.944832 102.88 543.84 
C 102.88 565.735168 141.654801 586.736514 210.664705 602.218736 
C 279.674608 617.700958 373.285259 626.4 470.88 626.4 
z
" clip-path="url(#pc060b771ce)" style="fill: #f1f3f4"/>
   </g>
   <g id="patch_5">
    <path d="M 470.88 623.816671 
C 565.42097 623.816671 656.102514 615.389824 722.953075 600.392046 
C 789.803636 585.394268 827.365161 565.050061 827.365161 543.84 
C 827.365161 522.629939 789.803636 502.285732 722.953075 487.287954 
C 656.102514 472.290176 565.42097 463.863329 470.88 463.863329 
C 376.33903 463.863329 285.657486 472.290176 218.806925 487.287954 
C 151.956364 502.285732 114.394839 522.629939 114.394839 543.84 
C 114.394839 565.050061 151.956364 585.394268 218.806925 600.392046 
C 285.657486 615.389824 376.33903 623.816671 470.88 623.816671 
z
" clip-path="url(#pc060b771ce)" style="fill: #e8eaec"/>
   </g>
   <g id="patch_6">
    <path d="M 470.88 621.233342 
C 562.367199 621.233342 650.119636 613.078691 714.810854 598.565357 
C 779.502073 584.052023 815.850323 564.364954 815.850323 543.84 
C 815.850323 523.315046 779.502073 503.627977 714.810854 489.114643 
C 650.119636 474.601309 562.367199 466.446658 470.88 466.446658 
C 379.392801 466.446658 291.640364 474.601309 226.949146 489.114643 
C 162.257927 503.627977 125.909677 523.315046 125.909677 543.84 
C 125.909677 564.364954 162.257927 584.052023 226.949146 598.565357 
C 291.640364 613.078691 379.392801 621.233342 470.88 621.233342 
z
" clip-path="url(#pc060b771ce)" style="fill: #e1e3e5"/>
   </g>
   <g id="patch_7">
    <path d="M 470.88 618.650013 
C 559.313428 618.650013 644.136757 610.767558 706.668634 596.738667 
C 769.200511 582.709777 804.335484 563.679847 804.335484 543.84 
C 804.335484 524.000153 769.200511 504.970223 706.668634 490.941333 
C 644.136757 476.912442 559.313428 469.029987 470.88 469.029987 
C 382.446572 469.029987 297.623243 476.912442 235.091366 490.941333 
C 172.559489 504.970223 137.424516 524.000153 137.424516 543.84 
C 137.424516 563.679847 172.559489 582.709777 235.091366 596.738667 
C 297.623243 610.767558 382.446572 618.650013 470.88 618.650013 
z
" clip-path="url(#pc060b771ce)" style="fill: #dbdddf"/>
   </g>
   <g id="patch_8">
    <path d="M 470.88 616.066684 
C 556.259657 616.066684 638.153879 608.456425 698.526413 594.911978 
C 758.898948 581.367531 792.820645 562.99474 792.820645 543.84 
C 792.820645 524.68526 758.898948 506.312469 698.526413 492.768022 
C 638.153879 479.223575 556.259657 471.613316 470.88 471.613316 
C 385.500343 471.613316 303.606121 479.223575 243.233587 492.768022 
C 182.861052 506.312469 148.939355 524.68526 148.939355 543.84 
C 148.939355 562.99474 182.861052 581.367531 243.233587 594.911978 
C 303.606121 608.456425 385.500343 616.066684 470.88 616.066684 
z
" clip-path="url(#pc060b771ce)" style="fill: #d5d7d9"/>
   </g>
   <g id="patch_9">
    <path d="M 470.88 613.483355 
C 553.205886 613.483355 632.171 606.145292 690.384193 593.085288 
C 748.597385 580.025285 781.305806 562.309634 781.305806 543.84 
C 781.305806 525.370366 748.597385 507.654715 690.384193 494.594712 
C 632.171 481.534708 553.205886 474.196645 470.88 474.196645 
C 388.554114 474.196645 309.589 481.534708 251.375807 494.594712 
C 193.162615 507.654715 160.454194 525.370366 160.454194 543.84 
C 160.454194 562.309634 193.162615 580.025285 251.375807 593.085288 
C 309.589 606.145292 388.554114 613.483355 470.88 613.483355 
z
" clip-path="url(#pc060b771ce)" style="fill: #cfd1d3"/>
   </g>
   <g id="patch_10">
    <path d="M 470.88 610.900026 
C 550.152115 610.900026 626.188122 603.834158 682.241972 591.258599 
C 738.295823 578.68304 769.790968 561.624527 769.790968 543.84 
C 769.790968 526.055473 738.295823 508.99696 682.241972 496.421401 
C 626.188122 483.845842 550.152115 476.779974 470.88 476.779974 
C 391.607885 476.779974 315.571878 483.845842 259.518028 496.421401 
C 203.464177 508.99696 171.969032 526.055473 171.969032 543.84 
C 171.969032 561.624527 203.464177 578.68304 259.518028 591.258599 
C 315.571878 603.834158 391.607885 610.900026 470.88 610.900026 
z
" clip-path="url(#pc060b771ce)" style="fill: #c9cbcd"/>
   </g>
   <g id="patch_11">
    <path d="M 470.88 608.316697 
C 547.098344 608.316697 620.205244 601.523025 674.099752 589.43191 
C 727.99426 577.340794 758.276129 560.93942 758.276129 543.84 
C 758.276129 526.74058 727.99426 510.339206 674.099752 498.24809 
C 620.205244 486.156975 547.098344 479.363303 470.88 479.363303 
C 394.661656 479.363303 321.554756 486.156975 267.660248 498.24809 
C 213.76574 510.339206 183.483871 526.74058 183.483871 543.84 
C 183.483871 560.93942 213.76574 577.340794 267.660248 589.43191 
C 321.554756 601.523025 394.661656 608.316697 470.88 608.316697 
z
" clip-path="url(#pc060b771ce)" style="fill: #c4c6c8"/>
   </g>
   <g id="patch_12">
    <path d="M 470.88 605.733368 
C 544.044573 605.733368 614.222365 599.211892 665.957531 587.60522 
C 717.692697 575.998548 746.76129 560.254313 746.76129 543.84 
C 746.76129 527.425687 717.692697 511.681452 665.957531 500.07478 
C 614.222365 488.468108 544.044573 481.946632 470.88 481.946632 
C 397.715427 481.946632 327.537635 488.468108 275.802469 500.07478 
C 224.067303 511.681452 194.99871 527.425687 194.99871 543.84 
C 194.99871 560.254313 224.067303 575.998548 275.802469 587.60522 
C 327.537635 599.211892 397.715427 605.733368 470.88 605.733368 
z
" clip-path="url(#pc060b771ce)" style="fill: #bec0c3"/>
   </g>
   <g id="patch_13">
    <path d="M 470.88 603.150039 
C 540.990803 603.150039 608.239487 596.900759 657.815311 585.778531 
C 707.391135 574.656302 735.246452 559.569206 735.246452 543.84 
C 735.246452 528.110794 707.391135 513.023698 657.815311 501.901469 
C 608.239487 490.779241 540.990803 484.529961 470.88 484.529961 
C 400.769197 484.529961 333.520513 490.779241 283.944689 501.901469 
C 234.368865 513.023698 206.513548 528.110794 206.513548 543.84 
C 206.513548 559.569206 234.368865 574.656302 283.944689 585.778531 
C 333.520513 596.900759 400.769197 603.150039 470.88 603.150039 
z
" clip-path="url(#pc060b771ce)" style="fill: #b9bbbd"/>
   </g>
   <g id="patch_14">
    <path d="M 470.88 600.56671 
C 537.937032 600.56671 602.256608 594.589626 649.67309 583.951841 
C 697.089572 573.314056 723.731613 558.884099 723.731613 543.84 
C 723.731613 528.795901 697.089572 514.365944 649.67309 503.728159 
C 602.256608 493.090374 537.937032 487.11329 470.88 487.11329 
C 403.822968 487.11329 339.503392 493.090374 292.08691 503.728159 
C 244.670428 514.365944 218.028387 528.795901 218.028387 543.84 
C 218.028387 558.884099 244.670428 573.314056 292.08691 583.951841 
C 339.503392 594.589626 403.822968 600.56671 470.88 600.56671 
z
" clip-path="url(#pc060b771ce)" style="fill: #b3b6b8"/>
   </g>
   <g id="patch_15">
    <path d="M 470.88 597.983381 
C 534.883261 597.983381 596.27373 592.278493 641.53087 582.125152 
C 686.788009 571.971811 712.216774 558.198992 712.216774 543.84 
C 712.216774 529.481008 686.788009 515.708189 641.53087 505.554848 
C 596.27373 495.401507 534.883261 489.696619 470.88 489.696619 
C 406.876739 489.696619 345.48627 495.401507 300.22913 505.554848 
C 254.971991 515.708189 229.543226 529.481008 229.543226 543.84 
C 229.543226 558.198992 254.971991 571.971811 300.22913 582.125152 
C 345.48627 592.278493 406.876739 597.983381 470.88 597.983381 
z
" clip-path="url(#pc060b771ce)" style="fill: #aeb1b3"/>
   </g>
   <g id="patch_16">
    <path d="M 470.88 595.400052 
C 531.82949 595.400052 590.290852 589.967359 633.388649 580.298462 
C 676.486447 570.629565 700.701935 557.513886 700.701935 543.84 
C 700.701935 530.166114 676.486447 517.050435 633.388649 507.381538 
C 590.290852 497.712641 531.82949 492.279948 470.88 492.279948 
C 409.93051 492.279948 351.469148 497.712641 308.371351 507.381538 
C 265.273553 517.050435 241.058065 530.166114 241.058065 543.84 
C 241.058065 557.513886 265.273553 570.629565 308.371351 580.298462 
C 351.469148 589.967359 409.93051 595.400052 470.88 595.400052 
z
" clip-path="url(#pc060b771ce)" style="fill: #a9acae"/>
   </g>
   <g id="patch_17">
    <path d="M 470.88 592.816723 
C 528.775719 592.816723 584.307973 587.656226 625.246429 578.471773 
C 666.184884 569.287319 689.187097 556.828779 689.187097 543.84 
C 689.187097 530.851221 666.184884 518.392681 625.246429 509.208227 
C 584.307973 500.023774 528.775719 494.863277 470.88 494.863277 
C 412.984281 494.863277 357.452027 500.023774 316.513571 509.208227 
C 275.575116 518.392681 252.572903 530.851221 252.572903 543.84 
C 252.572903 556.828779 275.575116 569.287319 316.513571 578.471773 
C 357.452027 587.656226 412.984281 592.816723 470.88 592.816723 
z
" clip-path="url(#pc060b771ce)" style="fill: #a4a7a9"/>
   </g>
   <g id="patch_18">
    <path d="M 470.88 590.233394 
C 525.721948 590.233394 578.325095 585.345093 617.104208 576.645083 
C 655.883321 567.945073 677.672258 556.143672 677.672258 543.84 
C 677.672258 531.536328 655.883321 519.734927 617.104208 511.034917 
C 578.325095 502.334907 525.721948 497.446606 470.88 497.446606 
C 416.038052 497.446606 363.434905 502.334907 324.655792 511.034917 
C 285.876679 519.734927 264.087742 531.536328 264.087742 543.84 
C 264.087742 556.143672 285.876679 567.945073 324.655792 576.645083 
C 363.434905 585.345093 416.038052 590.233394 470.88 590.233394 
z
" clip-path="url(#pc060b771ce)" style="fill: #9fa2a5"/>
   </g>
   <g id="patch_19">
    <path d="M 470.88 587.650065 
C 522.668177 587.650065 572.342216 583.03396 608.961987 574.818394 
C 645.581759 566.602828 666.157419 555.458565 666.157419 543.84 
C 666.157419 532.221435 645.581759 521.077172 608.961987 512.861606 
C 572.342216 504.64604 522.668177 500.029935 470.88 500.029935 
C 419.091823 500.029935 369.417784 504.64604 332.798013 512.861606 
C 296.178241 521.077172 275.602581 532.221435 275.602581 543.84 
C 275.602581 555.458565 296.178241 566.602828 332.798013 574.818394 
C 369.417784 583.03396 419.091823 587.650065 470.88 587.650065 
z
" clip-path="url(#pc060b771ce)" style="fill: #9a9da0"/>
   </g>
   <g id="patch_20">
    <path d="M 470.88 585.066735 
C 519.614406 585.066735 566.359338 580.722827 600.819767 572.991704 
C 635.280196 565.260582 654.642581 554.773458 654.642581 543.84 
C 654.642581 532.906542 635.280196 522.419418 600.819767 514.688296 
C 566.359338 506.957173 519.614406 502.613265 470.88 502.613265 
C 422.145594 502.613265 375.400662 506.957173 340.940233 514.688296 
C 306.479804 522.419418 287.117419 532.906542 287.117419 543.84 
C 287.117419 554.773458 306.479804 565.260582 340.940233 572.991704 
C 375.400662 580.722827 422.145594 585.066735 470.88 585.066735 
z
" clip-path="url(#pc060b771ce)" style="fill: #95989b"/>
   </g>
   <g id="patch_21">
    <path d="M 470.88 582.483406 
C 516.560635 582.483406 560.376459 578.411693 592.677546 571.165015 
C 624.978633 563.918336 643.127742 554.088351 643.127742 543.84 
C 643.127742 533.591649 624.978633 523.761664 592.677546 516.514985 
C 560.376459 509.268307 516.560635 505.196594 470.88 505.196594 
C 425.199365 505.196594 381.383541 509.268307 349.082454 516.514985 
C 316.781367 523.761664 298.632258 533.591649 298.632258 543.84 
C 298.632258 554.088351 316.781367 563.918336 349.082454 571.165015 
C 381.383541 578.411693 425.199365 582.483406 470.88 582.483406 
z
" clip-path="url(#pc060b771ce)" style="fill: #909396"/>
   </g>
   <g id="patch_22">
    <path d="M 470.88 579.900077 
C 513.506864 579.900077 554.393581 576.10056 584.535326 569.338325 
C 614.677071 562.57609 631.612903 553.403244 631.612903 543.84 
C 631.612903 534.276756 614.677071 525.10391 584.535326 518.341675 
C 554.393581 511.57944 513.506864 507.779923 470.88 507.779923 
C 428.253136 507.779923 387.366419 511.57944 357.224674 518.341675 
C 327.082929 525.10391 310.147097 534.276756 310.147097 543.84 
C 310.147097 553.403244 327.082929 562.57609 357.224674 569.338325 
C 387.366419 576.10056 428.253136 579.900077 470.88 579.900077 
z
" clip-path="url(#pc060b771ce)" style="fill: #8c8e92"/>
   </g>
   <g id="patch_23">
    <path d="M 470.88 577.316748 
C 510.453093 577.316748 548.410703 573.789427 576.393105 567.511636 
C 604.375508 561.233845 620.098065 552.718137 620.098065 543.84 
C 620.098065 534.961863 604.375508 526.446155 576.393105 520.168364 
C 548.410703 513.890573 510.453093 510.363252 470.88 510.363252 
C 431.306907 510.363252 393.349297 513.890573 365.366895 520.168364 
C 337.384492 526.446155 321.661935 534.961863 321.661935 543.84 
C 321.661935 552.718137 337.384492 561.233845 365.366895 567.511636 
C 393.349297 573.789427 431.306907 577.316748 470.88 577.316748 
z
" clip-path="url(#pc060b771ce)" style="fill: #87898d"/>
   </g>
   <g id="patch_24">
    <path d="M 470.88 574.733419 
C 507.399322 574.733419 542.427824 571.478294 568.250885 565.684946 
C 594.073945 559.891599 608.583226 552.033031 608.583226 543.84 
C 608.583226 535.646969 594.073945 527.788401 568.250885 521.995054 
C 542.427824 516.201706 507.399322 512.946581 470.88 512.946581 
C 434.360678 512.946581 399.332176 516.201706 373.509115 521.995054 
C 347.686055 527.788401 333.176774 535.646969 333.176774 543.84 
C 333.176774 552.033031 347.686055 559.891599 373.509115 565.684946 
C 399.332176 571.478294 434.360678 574.733419 470.88 574.733419 
z
" clip-path="url(#pc060b771ce)" style="fill: #828589"/>
   </g>
   <g id="patch_25">
    <path d="M 470.88 572.15009 
C 504.345551 572.15009 536.444946 569.167161 560.108664 563.858257 
C 583.772383 558.549353 597.068387 551.347924 597.068387 543.84 
C 597.068387 536.332076 583.772383 529.130647 560.108664 523.821743 
C 536.444946 518.512839 504.345551 515.52991 470.88 515.52991 
C 437.414449 515.52991 405.315054 518.512839 381.651336 523.821743 
C 357.987617 529.130647 344.691613 536.332076 344.691613 543.84 
C 344.691613 551.347924 357.987617 558.549353 381.651336 563.858257 
C 405.315054 569.167161 437.414449 572.15009 470.88 572.15009 
z
" clip-path="url(#pc060b771ce)" style="fill: #7d8084"/>
   </g>
   <g id="patch_26">
    <path d="M 470.88 569.566761 
C 501.291781 569.566761 530.462067 566.856027 551.966444 562.031567 
C 573.47082 557.207107 585.553548 550.662817 585.553548 543.84 
C 585.553548 537.017183 573.47082 530.472893 551.966444 525.648433 
C 530.462067 520.823973 501.291781 518.113239 470.88 518.113239 
C 440.468219 518.113239 411.297933 520.823973 389.793556 525.648433 
C 368.28918 530.472893 356.206452 537.017183 356.206452 543.84 
C 356.206452 550.662817 368.28918 557.207107 389.793556 562.031567 
C 411.297933 566.856027 440.468219 569.566761 470.88 569.566761 
z
" clip-path="url(#pc060b771ce)" style="fill: #797b7f"/>
   </g>
   <g id="patch_27">
    <path d="M 470.88 566.983432 
C 498.23801 566.983432 524.479189 564.544894 543.824223 560.204878 
C 563.169257 555.864862 574.03871 549.97771 574.03871 543.84 
C 574.03871 537.70229 563.169257 531.815138 543.824223 527.475122 
C 524.479189 523.135106 498.23801 520.696568 470.88 520.696568 
C 443.52199 520.696568 417.280811 523.135106 397.935777 527.475122 
C 378.590743 531.815138 367.72129 537.70229 367.72129 543.84 
C 367.72129 549.97771 378.590743 555.864862 397.935777 560.204878 
C 417.280811 564.544894 443.52199 566.983432 470.88 566.983432 
z
" clip-path="url(#pc060b771ce)" style="fill: #74777b"/>
   </g>
   <g id="patch_28">
    <path d="M 470.88 564.400103 
C 495.184239 564.400103 518.496311 562.233761 535.682003 558.378188 
C 552.867695 554.522616 562.523871 549.292603 562.523871 543.84 
C 562.523871 538.387397 552.867695 533.157384 535.682003 529.301812 
C 518.496311 525.446239 495.184239 523.279897 470.88 523.279897 
C 446.575761 523.279897 423.263689 525.446239 406.077997 529.301812 
C 388.892305 533.157384 379.236129 538.387397 379.236129 543.84 
C 379.236129 549.292603 388.892305 554.522616 406.077997 558.378188 
C 423.263689 562.233761 446.575761 564.400103 470.88 564.400103 
z
" clip-path="url(#pc060b771ce)" style="fill: #6f7276"/>
   </g>
   <g id="patch_29">
    <path d="M 470.88 561.816774 
C 492.130468 561.816774 512.513432 559.922628 527.539782 556.551499 
C 542.566132 553.18037 551.009032 548.607496 551.009032 543.84 
C 551.009032 539.072504 542.566132 534.49963 527.539782 531.128501 
C 512.513432 527.757372 492.130468 525.863226 470.88 525.863226 
C 449.629532 525.863226 429.246568 527.757372 414.220218 531.128501 
C 399.193868 534.49963 390.750968 539.072504 390.750968 543.84 
C 390.750968 548.607496 399.193868 553.18037 414.220218 556.551499 
C 429.246568 559.922628 449.629532 561.816774 470.88 561.816774 
z
" clip-path="url(#pc060b771ce)" style="fill: #6b6e72"/>
   </g>
   <g id="patch_30">
    <path d="M 470.88 559.233445 
C 489.076697 559.233445 506.530554 557.611495 519.397562 554.724809 
C 532.264569 551.838124 539.494194 547.922389 539.494194 543.84 
C 539.494194 539.757611 532.264569 535.841876 519.397562 532.955191 
C 506.530554 530.068505 489.076697 528.446555 470.88 528.446555 
C 452.683303 528.446555 435.229446 530.068505 422.362438 532.955191 
C 409.495431 535.841876 402.265806 539.757611 402.265806 543.84 
C 402.265806 547.922389 409.495431 551.838124 422.362438 554.724809 
C 435.229446 557.611495 452.683303 559.233445 470.88 559.233445 
z
" clip-path="url(#pc060b771ce)" style="fill: #66696e"/>
   </g>
   <g id="patch_31">
    <path d="M 470.88 556.650116 
C 486.022926 556.650116 500.547675 555.300361 511.255341 552.89812 
C 521.963007 550.495878 527.979355 547.237283 527.979355 543.84 
C 527.979355 540.442717 521.963007 537.184122 511.255341 534.78188 
C 500.547675 532.379639 486.022926 531.029884 470.88 531.029884 
C 455.737074 531.029884 441.212325 532.379639 430.504659 534.78188 
C 419.796993 537.184122 413.780645 540.442717 413.780645 543.84 
C 413.780645 547.237283 419.796993 550.495878 430.504659 552.89812 
C 441.212325 555.300361 455.737074 556.650116 470.88 556.650116 
z
" clip-path="url(#pc060b771ce)" style="fill: #626569"/>
   </g>
   <g id="patch_32">
    <path d="M 470.88 554.066787 
C 482.969155 554.066787 494.564797 552.989228 503.11312 551.071431 
C 511.661444 549.153633 516.464516 546.552176 516.464516 543.84 
C 516.464516 541.127824 511.661444 538.526367 503.11312 536.608569 
C 494.564797 534.690772 482.969155 533.613213 470.88 533.613213 
C 458.790845 533.613213 447.195203 534.690772 438.64688 536.608569 
C 430.098556 538.526367 425.295484 541.127824 425.295484 543.84 
C 425.295484 546.552176 430.098556 549.153633 438.64688 551.071431 
C 447.195203 552.989228 458.790845 554.066787 470.88 554.066787 
z
" clip-path="url(#pc060b771ce)" style="fill: #5d6065"/>
   </g>
   <g id="patch_33">
    <path d="M 470.88 551.483458 
C 479.915384 551.483458 488.581919 550.678095 494.9709 549.244741 
C 501.359881 547.811387 504.949677 545.867069 504.949677 543.84 
C 504.949677 541.812931 501.359881 539.868613 494.9709 538.435259 
C 488.581919 537.001905 479.915384 536.196542 470.88 536.196542 
C 461.844616 536.196542 453.178081 537.001905 446.7891 538.435259 
C 440.400119 539.868613 436.810323 541.812931 436.810323 543.84 
C 436.810323 545.867069 440.400119 547.811387 446.7891 549.244741 
C 453.178081 550.678095 461.844616 551.483458 470.88 551.483458 
z
" clip-path="url(#pc060b771ce)" style="fill: #595c61"/>
   </g>
   <g id="patch_34">
    <path d="M 470.88 548.900129 
C 476.861613 548.900129 482.59904 548.366962 486.828679 547.418052 
C 491.058319 546.469141 493.434839 545.181962 493.434839 543.84 
C 493.434839 542.498038 491.058319 541.210859 486.828679 540.261948 
C 482.59904 539.313038 476.861613 538.779871 470.88 538.779871 
C 464.898387 538.779871 459.16096 539.313038 454.931321 540.261948 
C 450.701681 541.210859 448.325161 542.498038 448.325161 543.84 
C 448.325161 545.181962 450.701681 546.469141 454.931321 547.418052 
C 459.16096 548.366962 464.898387 548.900129 470.88 548.900129 
z
" clip-path="url(#pc060b771ce)" style="fill: #54575c"/>
   </g>
   <g id="patch_35">
    <path d="M 470.88 546.3168 
C 473.807842 546.3168 476.616162 546.055829 478.686459 545.591362 
C 480.756756 545.126895 481.92 544.496855 481.92 543.84 
C 481.92 543.183145 480.756756 542.553105 478.686459 542.088638 
C 476.616162 541.624171 473.807842 541.3632 470.88 541.3632 
C 467.952158 541.3632 465.143838 541.624171 463.073541 542.088638 
C 461.003244 542.553105 459.84 543.183145 459.84 543.84 
C 459.84 544.496855 461.003244 545.126895 463.073541 545.591362 
C 465.143838 546.055829 467.952158 546.3168 470.88 546.3168 
z
" clip-path="url(#pc060b771ce)" style="fill: #505358"/>
   </g>
   <g id="patch_36">
    <path d="M 470.88 626.4 
C 568.474741 626.4 662.085392 617.700958 731.095295 602.218736 
C 800.105199 586.736514 838.88 565.735168 838.88 543.84 
C 838.88 521.944832 800.105199 500.943486 731.095295 485.461264 
C 662.085392 469.979042 568.474741 461.28 470.88 461.28 
C 373.285259 461.28 279.674608 469.979042 210.664705 485.461264 
C 141.654801 500.943486 102.88 521.944832 102.88 543.84 
C 102.88 565.735168 141.654801 586.736514 210.664705 602.218736 
C 279.674608 617.700958 373.285259 626.4 470.88 626.4 
L 470.88 626.4 
z
" clip-path="url(#pc060b771ce)" style="fill: none; stroke: #5f6368; stroke-width: 1.2; stroke-linejoin: miter"/>
   </g>
   <g id="patch_37">
    <path d="M 757.92 271.392 
L 757.693065 268.569224 
L 757.01262 265.750911 
L 755.879741 262.941518 
L 754.296218 260.145487 
L 752.264556 257.367239 
L 749.787967 254.611167 
L 746.870368 251.881629 
L 743.516371 249.18294 
L 739.731279 246.519369 
L 735.521079 243.895127 
L 730.892427 241.314363 
L 725.852641 238.781158 
L 720.409692 236.299517 
L 714.572184 233.873364 
L 708.34935 231.506537 
L 701.751027 229.202776 
L 694.78765 226.965725 
L 687.470229 224.798922 
L 679.810334 222.705791 
L 671.820077 220.689644 
L 663.512093 218.753667 
L 654.899518 216.900923 
L 645.99597 215.13434 
L 636.815528 213.456711 
L 627.372707 211.870691 
L 617.68244 210.378786 
L 607.760048 208.983355 
L 597.62122 207.686605 
L 587.281988 206.490587 
L 576.758701 205.397191 
L 566.067998 204.408146 
L 555.226783 203.525017 
L 544.252198 202.749199 
L 533.161597 202.08192 
L 521.972516 201.524234 
L 510.702647 201.077023 
L 499.36981 200.740995 
L 487.991926 200.516681 
L 476.586983 200.404435 
L 465.173017 200.404435 
L 453.768074 200.516681 
L 442.39019 200.740995 
L 431.057353 201.077023 
L 419.787484 201.524234 
L 408.598403 202.08192 
L 397.507802 202.749199 
L 386.533217 203.525017 
L 375.692002 204.408146 
L 365.001299 205.397191 
L 354.478012 206.490587 
L 344.13878 207.686605 
L 333.999952 208.983355 
L 324.07756 210.378786 
L 314.387293 211.870691 
L 304.944472 213.456711 
L 295.76403 215.13434 
L 286.860482 216.900923 
L 278.247907 218.753667 
L 269.939923 220.689644 
L 261.949666 222.705791 
L 254.289771 224.798922 
L 246.97235 226.965725 
L 240.008973 229.202776 
L 233.41065 231.506537 
L 227.187816 233.873364 
L 221.350308 236.299517 
L 215.907359 238.781158 
L 210.867573 241.314363 
L 206.238921 243.895127 
L 202.028721 246.519369 
L 198.243629 249.18294 
L 194.889632 251.881629 
L 191.972033 254.611167 
L 189.495444 257.367239 
L 187.463782 260.145487 
L 185.880259 262.941518 
L 184.74738 265.750911 
L 184.066935 268.569224 
L 183.84 271.392 
L 183.84 543.84 
L 184.066935 541.017224 
L 184.74738 538.198911 
L 185.880259 535.389518 
L 187.463782 532.593487 
L 189.495444 529.815239 
L 191.972033 527.059167 
L 194.889632 524.329629 
L 198.243629 521.63094 
L 202.028721 518.967369 
L 206.238921 516.343127 
L 210.867573 513.762363 
L 215.907359 511.229158 
L 221.350308 508.747517 
L 227.187816 506.321364 
L 233.41065 503.954537 
L 240.008973 501.650776 
L 246.97235 499.413725 
L 254.289771 497.246922 
L 261.949666 495.153791 
L 269.939923 493.137644 
L 278.247907 491.201667 
L 286.860482 489.348923 
L 295.76403 487.58234 
L 304.944472 485.904711 
L 314.387293 484.318691 
L 324.07756 482.826786 
L 333.999952 481.431355 
L 344.13878 480.134605 
L 354.478012 478.938587 
L 365.001299 477.845191 
L 375.692002 476.856146 
L 386.533217 475.973017 
L 397.507802 475.197199 
L 408.598403 474.52992 
L 419.787484 473.972234 
L 431.057353 473.525023 
L 442.39019 473.188995 
L 453.768074 472.964681 
L 465.173017 472.852435 
L 476.586983 472.852435 
L 487.991926 472.964681 
L 499.36981 473.188995 
L 510.702647 473.525023 
L 521.972516 473.972234 
L 533.161597 474.52992 
L 544.252198 475.197199 
L 555.226783 475.973017 
L 566.067998 476.856146 
L 576.758701 477.845191 
L 587.281988 478.938587 
L 597.62122 480.134605 
L 607.760048 481.431355 
L 617.68244 482.826786 
L 627.372707 484.318691 
L 636.815528 485.904711 
L 645.99597 487.58234 
L 654.899518 489.348923 
L 663.512093 491.201667 
L 671.820077 493.137644 
L 679.810334 495.153791 
L 687.470229 497.246922 
L 694.78765 499.413725 
L 701.751027 501.650776 
L 708.34935 503.954537 
L 714.572184 506.321364 
L 720.409692 508.747517 
L 725.852641 511.229158 
L 730.892427 513.762363 
L 735.521079 516.343127 
L 739.731279 518.967369 
L 743.516371 521.63094 
L 746.870368 524.329629 
L 749.787967 527.059167 
L 752.264556 529.815239 
L 754.296218 532.593487 
L 755.879741 535.389518 
L 757.01262 538.198911 
L 757.693065 541.017224 
L 757.92 543.84 
z
" clip-path="url(#pc060b771ce)" style="fill: #d2e3fc; opacity: 0.22"/>
   </g>
   <g id="patch_38">
    <path d="M 757.92 271.392 
C 757.92 252.568427 727.657727 234.496563 673.84793 221.186287 
C 620.038134 207.876011 546.978545 200.3904 470.88 200.3904 
C 394.781455 200.3904 321.721866 207.876011 267.91207 221.186287 
C 214.102273 234.496563 183.84 252.568427 183.84 271.392 
" clip-path="url(#pc060b771ce)" style="fill: none; opacity: 0.7; stroke-dasharray: 3.33,1.44; stroke-dashoffset: 0; stroke: #4285f4; stroke-width: 0.9; stroke-linejoin: miter"/>
   </g>
   <g id="patch_39">
    <path d="M 757.92 543.84 
C 757.92 525.016427 727.657727 506.944563 673.84793 493.634287 
C 620.038134 480.324011 546.978545 472.8384 470.88 472.8384 
C 394.781455 472.8384 321.721866 480.324011 267.91207 493.634287 
C 214.102273 506.944563 183.84 525.016427 183.84 543.84 
" clip-path="url(#pc060b771ce)" style="fill: none; opacity: 0.7; stroke-dasharray: 3.33,1.44; stroke-dashoffset: 0; stroke: #4285f4; stroke-width: 0.9; stroke-linejoin: miter"/>
   </g>
   <g id="text_1">
    <!-- $\omega$ -->
    <g style="fill: #1a73e8" transform="translate(577.6 110.439) scale(0.32 -0.32)">
     <defs>
      <path id="Cmmi10-21" d="M 775 -72 
Q 413 -72 252 193 
Q 91 459 91 844 
Q 91 1097 136 1339 
Q 181 1581 273 1829 
Q 366 2078 484 2295 
Q 603 2513 750 2719 
Q 778 2759 825 2759 
Q 866 2759 891 2734 
Q 916 2709 916 2675 
Q 916 2641 897 2613 
Q 313 1809 313 1131 
Q 313 838 448 627 
Q 584 416 863 416 
Q 1103 416 1308 556 
Q 1513 697 1663 916 
Q 1663 1028 1702 1265 
Q 1741 1503 1823 1689 
Q 1906 1875 2022 1875 
Q 2169 1875 2169 1703 
Q 2169 1603 2126 1451 
Q 2084 1300 2032 1169 
Q 1981 1038 1906 872 
Q 1981 416 2363 416 
Q 2584 416 2807 544 
Q 3031 672 3203 880 
Q 3375 1088 3473 1328 
Q 3572 1569 3572 1784 
Q 3572 1978 3511 2086 
Q 3450 2194 3350 2312 
Q 3250 2431 3250 2503 
Q 3250 2628 3356 2731 
Q 3463 2834 3584 2834 
Q 3741 2834 3806 2692 
Q 3872 2550 3872 2369 
Q 3872 2075 3755 1628 
Q 3638 1181 3488 884 
Q 3281 481 2970 204 
Q 2659 -72 2272 -72 
Q 2025 -72 1873 76 
Q 1722 225 1678 481 
Q 1500 228 1272 78 
Q 1044 -72 775 -72 
z
" transform="scale(0.015625)"/>
     </defs>
     <use xlink:href="#Cmmi10-21" transform="translate(0 0.71875)"/>
    </g>
   </g>
   <g id="text_2">
    <!-- $u_\theta = r\,\omega$ -->
    <g style="fill: #ffa500" transform="translate(765.28 263.175) scale(0.32 -0.32)">
     <defs>
      <path id="Cmmi10-75" d="M 678 697 
Q 678 906 734 1126 
Q 791 1347 892 1617 
Q 994 1888 1069 2088 
Q 1153 2322 1153 2472 
Q 1153 2663 1013 2663 
Q 759 2663 595 2402 
Q 431 2141 353 1819 
Q 341 1778 300 1778 
L 225 1778 
Q 172 1778 172 1838 
L 172 1856 
Q 275 2238 487 2533 
Q 700 2828 1025 2828 
Q 1253 2828 1411 2678 
Q 1569 2528 1569 2297 
Q 1569 2178 1516 2047 
Q 1488 1969 1388 1706 
Q 1288 1444 1234 1272 
Q 1181 1100 1147 934 
Q 1113 769 1113 603 
Q 1113 391 1203 244 
Q 1294 97 1497 97 
Q 1906 97 2216 603 
Q 2222 628 2226 651 
Q 2231 675 2234 697 
L 2694 2553 
Q 2716 2638 2794 2698 
Q 2872 2759 2963 2759 
Q 3041 2759 3098 2709 
Q 3156 2659 3156 2578 
Q 3156 2541 3150 2528 
L 2688 684 
Q 2644 494 2644 372 
Q 2644 97 2828 97 
Q 3034 97 3136 351 
Q 3238 606 3309 941 
Q 3322 978 3359 978 
L 3438 978 
Q 3463 978 3478 956 
Q 3494 934 3494 916 
Q 3425 641 3361 444 
Q 3297 247 3159 87 
Q 3022 -72 2816 -72 
Q 2613 -72 2452 39 
Q 2291 150 2234 341 
Q 2088 153 1894 40 
Q 1700 -72 1484 -72 
Q 1116 -72 897 129 
Q 678 331 678 697 
z
" transform="scale(0.015625)"/>
      <path id="Cmmi10-b5" d="M 1031 -72 
Q 741 -72 566 140 
Q 391 353 323 653 
Q 256 953 256 1247 
L 256 1253 
Q 256 1572 317 1915 
Q 378 2259 493 2601 
Q 609 2944 744 3213 
Q 838 3400 986 3631 
Q 1134 3863 1317 4064 
Q 1500 4266 1711 4389 
Q 1922 4513 2138 4513 
L 2144 4513 
Q 2375 4513 2529 4384 
Q 2684 4256 2770 4056 
Q 2856 3856 2890 3628 
Q 2925 3400 2925 3194 
Q 2925 2709 2794 2204 
Q 2663 1700 2431 1228 
Q 2344 1050 2189 809 
Q 2034 569 1861 378 
Q 1688 188 1472 58 
Q 1256 -72 1038 -72 
L 1031 -72 
z
M 1044 97 
Q 1256 97 1451 323 
Q 1647 550 1794 873 
Q 1941 1197 2052 1536 
Q 2163 1875 2216 2113 
L 909 2113 
Q 809 1709 753 1417 
Q 697 1125 697 844 
Q 697 97 1044 97 
z
M 959 2338 
L 2272 2338 
Q 2341 2619 2381 2808 
Q 2422 2997 2450 3206 
Q 2478 3416 2478 3597 
Q 2478 4347 2138 4347 
Q 1731 4347 1436 3692 
Q 1141 3038 959 2338 
z
" transform="scale(0.015625)"/>
      <path id="Cmr10-3d" d="M 481 850 
Q 428 850 393 890 
Q 359 931 359 978 
Q 359 1031 393 1068 
Q 428 1106 481 1106 
L 4500 1106 
Q 4547 1106 4581 1068 
Q 4616 1031 4616 978 
Q 4616 931 4581 890 
Q 4547 850 4500 850 
L 481 850 
z
M 481 2094 
Q 428 2094 393 2131 
Q 359 2169 359 2222 
Q 359 2269 393 2309 
Q 428 2350 481 2350 
L 4500 2350 
Q 4547 2350 4581 2309 
Q 4616 2269 4616 2222 
Q 4616 2169 4581 2131 
Q 4547 2094 4500 2094 
L 481 2094 
z
" transform="scale(0.015625)"/>
      <path id="Cmmi10-72" d="M 494 109 
Q 494 147 500 166 
L 978 2075 
Q 1025 2253 1025 2388 
Q 1025 2663 838 2663 
Q 638 2663 541 2423 
Q 444 2184 353 1819 
Q 353 1800 334 1789 
Q 316 1778 300 1778 
L 225 1778 
Q 203 1778 187 1801 
Q 172 1825 172 1844 
Q 241 2122 305 2315 
Q 369 2509 505 2668 
Q 641 2828 844 2828 
Q 1066 2828 1233 2700 
Q 1400 2572 1441 2363 
Q 1603 2575 1811 2701 
Q 2019 2828 2266 2828 
Q 2469 2828 2623 2709 
Q 2778 2591 2778 2388 
Q 2778 2225 2676 2104 
Q 2575 1984 2406 1984 
Q 2303 1984 2233 2048 
Q 2163 2113 2163 2216 
Q 2163 2356 2266 2467 
Q 2369 2578 2503 2578 
Q 2400 2663 2253 2663 
Q 1978 2663 1775 2467 
Q 1572 2272 1409 1972 
L 953 141 
Q 931 53 854 -9 
Q 778 -72 684 -72 
Q 606 -72 550 -22 
Q 494 28 494 109 
z
" transform="scale(0.015625)"/>
     </defs>
     <use xlink:href="#Cmmi10-75" transform="translate(0 0.71875)"/>
     <use xlink:href="#Cmmi10-b5" transform="translate(57.177734 -16.2875) scale(0.7)"/>
     <use xlink:href="#Cmr10-3d" transform="translate(113.960352 0.71875)"/>
     <use xlink:href="#Cmmi10-72" transform="translate(209.204492 0.71875)"/>
     <use xlink:href="#Cmmi10-21" transform="translate(268.954134 0.71875)"/>
    </g>
   </g>
   <g id="text_3">
    <!-- $u_\theta = r\,\omega$ -->
    <g style="fill: #ffa500" transform="translate(765.28 263.175) scale(0.32 -0.32)">
     <use xlink:href="#Cmmi10-75" transform="translate(0 0.71875)"/>
     <use xlink:href="#Cmmi10-b5" transform="translate(57.177734 -16.2875) scale(0.7)"/>
     <use xlink:href="#Cmr10-3d" transform="translate(113.960352 0.71875)"/>
     <use xlink:href="#Cmmi10-72" transform="translate(209.204492 0.71875)"/>
     <use xlink:href="#Cmmi10-21" transform="translate(268.954134 0.71875)"/>
    </g>
   </g>
   <g id="text_4">
    <!-- $u_\theta = r\,\omega$ -->
    <g style="fill: #ffa500" transform="translate(765.28 263.175) scale(0.32 -0.32)">
     <use xlink:href="#Cmmi10-75" transform="translate(0 0.71875)"/>
     <use xlink:href="#Cmmi10-b5" transform="translate(57.177734 -16.2875) scale(0.7)"/>
     <use xlink:href="#Cmr10-3d" transform="translate(113.960352 0.71875)"/>
     <use xlink:href="#Cmmi10-72" transform="translate(209.204492 0.71875)"/>
     <use xlink:href="#Cmmi10-21" transform="translate(268.954134 0.71875)"/>
    </g>
   </g>
   <g id="text_5">
    <!-- $u_\theta = r\,\omega$ -->
    <g style="fill: #ffa500" transform="translate(765.28 263.175) scale(0.32 -0.32)">
     <use xlink:href="#Cmmi10-75" transform="translate(0 0.71875)"/>
     <use xlink:href="#Cmmi10-b5" transform="translate(57.177734 -16.2875) scale(0.7)"/>
     <use xlink:href="#Cmr10-3d" transform="translate(113.960352 0.71875)"/>
     <use xlink:href="#Cmmi10-72" transform="translate(209.204492 0.71875)"/>
     <use xlink:href="#Cmmi10-21" transform="translate(268.954134 0.71875)"/>
    </g>
   </g>
   <g id="text_6">
    <!-- $\alpha$ -->
    <g style="fill: #34a853" transform="translate(555.888 444.267469) scale(0.3 -0.3)">
     <defs>
      <path id="Cmmi10-ae" d="M 1288 -72 
Q 984 -72 748 72 
Q 513 216 384 459 
Q 256 703 256 1013 
Q 256 1447 498 1872 
Q 741 2297 1142 2562 
Q 1544 2828 1984 2828 
Q 2309 2828 2556 2658 
Q 2803 2488 2931 2205 
Q 3059 1922 3059 1600 
L 3066 1172 
Q 3284 1475 3436 1801 
Q 3588 2128 3669 2478 
Q 3681 2516 3719 2516 
L 3794 2516 
Q 3853 2516 3853 2456 
Q 3853 2450 3847 2438 
Q 3772 2144 3659 1873 
Q 3547 1603 3395 1350 
Q 3244 1097 3066 891 
Q 3066 97 3250 97 
Q 3369 97 3445 167 
Q 3522 238 3580 341 
Q 3638 444 3653 447 
L 3731 447 
Q 3781 447 3781 384 
Q 3781 225 3598 76 
Q 3416 -72 3238 -72 
Q 3006 -72 2853 78 
Q 2700 228 2644 469 
Q 2344 213 1994 70 
Q 1644 -72 1288 -72 
z
M 1300 97 
Q 1984 97 2613 659 
Q 2609 697 2603 751 
Q 2597 806 2597 813 
L 2597 1503 
Q 2597 2663 1972 2663 
Q 1597 2663 1315 2342 
Q 1034 2022 892 1576 
Q 750 1131 750 763 
Q 750 484 892 290 
Q 1034 97 1300 97 
z
" transform="scale(0.015625)"/>
     </defs>
     <use xlink:href="#Cmmi10-ae" transform="translate(0 0.8125)"/>
    </g>
   </g>
   <g id="text_7">
    <!-- $H(r)$ -->
    <g style="fill: #1a73e8" transform="translate(805.76 415.116) scale(0.3 -0.3)">
     <defs>
      <path id="Cmmi10-48" d="M 300 0 
Q 238 0 238 84 
Q 241 100 250 139 
Q 259 178 276 201 
Q 294 225 319 225 
Q 709 225 863 269 
Q 947 297 984 441 
L 1863 3956 
Q 1875 4019 1875 4044 
Q 1875 4113 1797 4122 
Q 1678 4147 1338 4147 
Q 1275 4147 1275 4231 
Q 1297 4313 1309 4342 
Q 1322 4372 1381 4372 
L 3103 4372 
Q 3169 4372 3169 4288 
Q 3166 4272 3156 4234 
Q 3147 4197 3131 4172 
Q 3116 4147 3084 4147 
Q 2694 4147 2541 4103 
Q 2456 4072 2419 3928 
L 2034 2388 
L 3956 2388 
L 4347 3956 
Q 4359 4019 4359 4044 
Q 4359 4113 4281 4122 
Q 4159 4147 3822 4147 
Q 3756 4147 3756 4231 
Q 3778 4313 3790 4342 
Q 3803 4372 3866 4372 
L 5588 4372 
Q 5650 4372 5650 4288 
Q 5647 4272 5637 4233 
Q 5628 4194 5611 4170 
Q 5594 4147 5569 4147 
Q 5178 4147 5025 4103 
Q 4941 4075 4903 3928 
L 4025 416 
Q 4013 353 4013 325 
Q 4013 259 4091 250 
Q 4213 225 4550 225 
Q 4616 225 4616 141 
Q 4597 66 4578 33 
Q 4559 0 4506 0 
L 2784 0 
Q 2719 0 2719 84 
Q 2731 131 2737 153 
Q 2744 175 2761 200 
Q 2778 225 2803 225 
Q 3194 225 3347 269 
Q 3431 297 3469 441 
L 3897 2163 
L 1978 2163 
L 1544 416 
Q 1528 338 1528 325 
Q 1528 259 1606 250 
Q 1728 225 2069 225 
Q 2131 225 2131 141 
Q 2109 56 2095 28 
Q 2081 0 2022 0 
L 300 0 
z
" transform="scale(0.015625)"/>
      <path id="Cmr10-28" d="M 1984 -1588 
Q 1628 -1306 1370 -942 
Q 1113 -578 948 -165 
Q 784 247 703 697 
Q 622 1147 622 1600 
Q 622 2059 703 2509 
Q 784 2959 951 3375 
Q 1119 3791 1378 4153 
Q 1638 4516 1984 4788 
Q 1984 4800 2016 4800 
L 2075 4800 
Q 2094 4800 2109 4783 
Q 2125 4766 2125 4744 
Q 2125 4716 2113 4703 
Q 1800 4397 1592 4047 
Q 1384 3697 1257 3301 
Q 1131 2906 1075 2482 
Q 1019 2059 1019 1600 
Q 1019 -434 2106 -1491 
Q 2125 -1509 2125 -1544 
Q 2125 -1559 2108 -1579 
Q 2091 -1600 2075 -1600 
L 2016 -1600 
Q 1984 -1600 1984 -1588 
z
" transform="scale(0.015625)"/>
      <path id="Cmr10-29" d="M 416 -1600 
Q 359 -1600 359 -1544 
Q 359 -1516 372 -1503 
Q 1466 -434 1466 1600 
Q 1466 3634 384 4691 
Q 359 4706 359 4744 
Q 359 4766 376 4783 
Q 394 4800 416 4800 
L 475 4800 
Q 494 4800 506 4788 
Q 966 4425 1272 3906 
Q 1578 3388 1720 2800 
Q 1863 2213 1863 1600 
Q 1863 1147 1786 708 
Q 1709 269 1542 -157 
Q 1375 -584 1119 -945 
Q 863 -1306 506 -1588 
Q 494 -1600 475 -1600 
L 416 -1600 
z
" transform="scale(0.015625)"/>
     </defs>
     <use xlink:href="#Cmmi10-48"/>
     <use xlink:href="#Cmr10-28" transform="translate(83.105469 0)"/>
     <use xlink:href="#Cmmi10-72" transform="translate(121.923828 0)"/>
     <use xlink:href="#Cmr10-29" transform="translate(167.041016 0)"/>
    </g>
   </g>
   <g id="text_8">
    <!-- $R$ -->
    <g style="fill: #202124" transform="translate(600.84 153.1173) scale(0.26 -0.26)">
     <defs>
      <path id="Cmmi10-52" d="M 313 0 
Q 250 0 250 84 
Q 253 100 262 139 
Q 272 178 289 201 
Q 306 225 331 225 
Q 722 225 878 269 
Q 959 297 997 441 
L 1875 3956 
Q 1888 4019 1888 4044 
Q 1888 4113 1813 4122 
Q 1691 4147 1350 4147 
Q 1288 4147 1288 4231 
Q 1291 4247 1300 4286 
Q 1309 4325 1326 4348 
Q 1344 4372 1369 4372 
L 3309 4372 
Q 3541 4372 3791 4319 
Q 4041 4266 4250 4152 
Q 4459 4038 4593 3848 
Q 4728 3659 4728 3406 
Q 4728 3084 4515 2831 
Q 4303 2578 3978 2408 
Q 3653 2238 3347 2169 
Q 3597 2078 3756 1879 
Q 3916 1681 3916 1422 
Q 3916 1388 3914 1370 
Q 3913 1353 3909 1331 
L 3859 763 
Q 3853 638 3847 550 
Q 3841 463 3841 409 
Q 3841 234 3892 129 
Q 3944 25 4097 25 
Q 4297 25 4448 211 
Q 4600 397 4647 616 
Q 4675 672 4709 672 
L 4769 672 
Q 4831 672 4831 588 
Q 4784 403 4682 237 
Q 4581 72 4426 -34 
Q 4272 -141 4091 -141 
Q 3716 -141 3452 26 
Q 3188 194 3188 550 
Q 3188 684 3213 788 
L 3353 1356 
Q 3378 1434 3378 1538 
Q 3378 1803 3198 1954 
Q 3019 2106 2747 2106 
L 1959 2106 
L 1538 416 
Q 1522 363 1522 325 
Q 1522 259 1600 250 
Q 1722 225 2059 225 
Q 2125 225 2125 141 
Q 2103 50 2090 25 
Q 2078 0 2016 0 
L 313 0 
z
M 1997 2272 
L 2706 2272 
Q 3403 2272 3756 2625 
Q 3919 2788 4014 3039 
Q 4109 3291 4109 3541 
Q 4109 3778 3970 3912 
Q 3831 4047 3626 4097 
Q 3422 4147 3175 4147 
L 2747 4147 
Q 2572 4147 2515 4117 
Q 2459 4088 2413 3928 
L 1997 2272 
z
" transform="scale(0.015625)"/>
     </defs>
     <use xlink:href="#Cmmi10-52" transform="translate(0 0.6875)"/>
    </g>
   </g>
   <g id="text_9">
    <!-- Fluid  -->
    <g style="fill: #1a73e8" transform="translate(105.595 398.9655) scale(0.32 -0.32)">
     <defs>
      <path id="ArialMT-46" d="M 525 0 
L 525 4581 
L 3616 4581 
L 3616 4041 
L 1131 4041 
L 1131 2622 
L 3281 2622 
L 3281 2081 
L 1131 2081 
L 1131 0 
L 525 0 
z
" transform="scale(0.015625)"/>
      <path id="ArialMT-6c" d="M 409 0 
L 409 4581 
L 972 4581 
L 972 0 
L 409 0 
z
" transform="scale(0.015625)"/>
      <path id="ArialMT-75" d="M 2597 0 
L 2597 488 
Q 2209 -75 1544 -75 
Q 1250 -75 995 37 
Q 741 150 617 320 
Q 494 491 444 738 
Q 409 903 409 1263 
L 409 3319 
L 972 3319 
L 972 1478 
Q 972 1038 1006 884 
Q 1059 663 1231 536 
Q 1403 409 1656 409 
Q 1909 409 2131 539 
Q 2353 669 2445 892 
Q 2538 1116 2538 1541 
L 2538 3319 
L 3100 3319 
L 3100 0 
L 2597 0 
z
" transform="scale(0.015625)"/>
      <path id="ArialMT-69" d="M 425 3934 
L 425 4581 
L 988 4581 
L 988 3934 
L 425 3934 
z
M 425 0 
L 425 3319 
L 988 3319 
L 988 0 
L 425 0 
z
" transform="scale(0.015625)"/>
      <path id="ArialMT-64" d="M 2575 0 
L 2575 419 
Q 2259 -75 1647 -75 
Q 1250 -75 917 144 
Q 584 363 401 755 
Q 219 1147 219 1656 
Q 219 2153 384 2558 
Q 550 2963 881 3178 
Q 1213 3394 1622 3394 
Q 1922 3394 2156 3267 
Q 2391 3141 2538 2938 
L 2538 4581 
L 3097 4581 
L 3097 0 
L 2575 0 
z
M 797 1656 
Q 797 1019 1065 703 
Q 1334 388 1700 388 
Q 2069 388 2326 689 
Q 2584 991 2584 1609 
Q 2584 2291 2321 2609 
Q 2059 2928 1675 2928 
Q 1300 2928 1048 2622 
Q 797 2316 797 1656 
z
" transform="scale(0.015625)"/>
      <path id="ArialMT-20" transform="scale(0.015625)"/>
     </defs>
     <use xlink:href="#ArialMT-46"/>
     <use xlink:href="#ArialMT-6c" transform="translate(61.083984 0)"/>
     <use xlink:href="#ArialMT-75" transform="translate(83.300781 0)"/>
     <use xlink:href="#ArialMT-69" transform="translate(138.916016 0)"/>
     <use xlink:href="#ArialMT-64" transform="translate(161.132812 0)"/>
     <use xlink:href="#ArialMT-20" transform="translate(216.748047 0)"/>
    </g>
    <!--  Domain -->
    <g style="fill: #1a73e8" transform="translate(64.69 432.8115) scale(0.32 -0.32)">
     <defs>
      <path id="ArialMT-44" d="M 494 0 
L 494 4581 
L 2072 4581 
Q 2606 4581 2888 4516 
Q 3281 4425 3559 4188 
Q 3922 3881 4101 3404 
Q 4281 2928 4281 2316 
Q 4281 1794 4159 1391 
Q 4038 988 3847 723 
Q 3656 459 3429 307 
Q 3203 156 2883 78 
Q 2563 0 2147 0 
L 494 0 
z
M 1100 541 
L 2078 541 
Q 2531 541 2789 625 
Q 3047 709 3200 863 
Q 3416 1078 3536 1442 
Q 3656 1806 3656 2325 
Q 3656 3044 3420 3430 
Q 3184 3816 2847 3947 
Q 2603 4041 2063 4041 
L 1100 4041 
L 1100 541 
z
" transform="scale(0.015625)"/>
      <path id="ArialMT-6f" d="M 213 1659 
Q 213 2581 725 3025 
Q 1153 3394 1769 3394 
Q 2453 3394 2887 2945 
Q 3322 2497 3322 1706 
Q 3322 1066 3130 698 
Q 2938 331 2570 128 
Q 2203 -75 1769 -75 
Q 1072 -75 642 372 
Q 213 819 213 1659 
z
M 791 1659 
Q 791 1022 1069 705 
Q 1347 388 1769 388 
Q 2188 388 2466 706 
Q 2744 1025 2744 1678 
Q 2744 2294 2464 2611 
Q 2184 2928 1769 2928 
Q 1347 2928 1069 2612 
Q 791 2297 791 1659 
z
" transform="scale(0.015625)"/>
      <path id="ArialMT-6d" d="M 422 0 
L 422 3319 
L 925 3319 
L 925 2853 
Q 1081 3097 1340 3245 
Q 1600 3394 1931 3394 
Q 2300 3394 2536 3241 
Q 2772 3088 2869 2813 
Q 3263 3394 3894 3394 
Q 4388 3394 4653 3120 
Q 4919 2847 4919 2278 
L 4919 0 
L 4359 0 
L 4359 2091 
Q 4359 2428 4304 2576 
Q 4250 2725 4106 2815 
Q 3963 2906 3769 2906 
Q 3419 2906 3187 2673 
Q 2956 2441 2956 1928 
L 2956 0 
L 2394 0 
L 2394 2156 
Q 2394 2531 2256 2718 
Q 2119 2906 1806 2906 
Q 1569 2906 1367 2781 
Q 1166 2656 1075 2415 
Q 984 2175 984 1722 
L 984 0 
L 422 0 
z
" transform="scale(0.015625)"/>
      <path id="ArialMT-61" d="M 2588 409 
Q 2275 144 1986 34 
Q 1697 -75 1366 -75 
Q 819 -75 525 192 
Q 231 459 231 875 
Q 231 1119 342 1320 
Q 453 1522 633 1644 
Q 813 1766 1038 1828 
Q 1203 1872 1538 1913 
Q 2219 1994 2541 2106 
Q 2544 2222 2544 2253 
Q 2544 2597 2384 2738 
Q 2169 2928 1744 2928 
Q 1347 2928 1158 2789 
Q 969 2650 878 2297 
L 328 2372 
Q 403 2725 575 2942 
Q 747 3159 1072 3276 
Q 1397 3394 1825 3394 
Q 2250 3394 2515 3294 
Q 2781 3194 2906 3042 
Q 3031 2891 3081 2659 
Q 3109 2516 3109 2141 
L 3109 1391 
Q 3109 606 3145 398 
Q 3181 191 3288 0 
L 2700 0 
Q 2613 175 2588 409 
z
M 2541 1666 
Q 2234 1541 1622 1453 
Q 1275 1403 1131 1340 
Q 988 1278 909 1158 
Q 831 1038 831 891 
Q 831 666 1001 516 
Q 1172 366 1500 366 
Q 1825 366 2078 508 
Q 2331 650 2450 897 
Q 2541 1088 2541 1459 
L 2541 1666 
z
" transform="scale(0.015625)"/>
      <path id="ArialMT-6e" d="M 422 0 
L 422 3319 
L 928 3319 
L 928 2847 
Q 1294 3394 1984 3394 
Q 2284 3394 2536 3286 
Q 2788 3178 2913 3003 
Q 3038 2828 3088 2588 
Q 3119 2431 3119 2041 
L 3119 0 
L 2556 0 
L 2556 2019 
Q 2556 2363 2490 2533 
Q 2425 2703 2258 2804 
Q 2091 2906 1866 2906 
Q 1506 2906 1245 2678 
Q 984 2450 984 1813 
L 984 0 
L 422 0 
z
" transform="scale(0.015625)"/>
     </defs>
     <use xlink:href="#ArialMT-20"/>
     <use xlink:href="#ArialMT-44" transform="translate(27.783203 0)"/>
     <use xlink:href="#ArialMT-6f" transform="translate(100 0)"/>
     <use xlink:href="#ArialMT-6d" transform="translate(155.615234 0)"/>
     <use xlink:href="#ArialMT-61" transform="translate(238.916016 0)"/>
     <use xlink:href="#ArialMT-69" transform="translate(294.53125 0)"/>
     <use xlink:href="#ArialMT-6e" transform="translate(316.748047 0)"/>
    </g>
   </g>
   <g id="text_10">
    <!-- Stationary plate -->
    <g style="fill: #5f6368" transform="translate(366.655781 693.647062) scale(0.3 -0.3)">
     <defs>
      <path id="ArialMT-53" d="M 288 1472 
L 859 1522 
Q 900 1178 1048 958 
Q 1197 738 1509 602 
Q 1822 466 2213 466 
Q 2559 466 2825 569 
Q 3091 672 3220 851 
Q 3350 1031 3350 1244 
Q 3350 1459 3225 1620 
Q 3100 1781 2813 1891 
Q 2628 1963 1997 2114 
Q 1366 2266 1113 2400 
Q 784 2572 623 2826 
Q 463 3081 463 3397 
Q 463 3744 659 4045 
Q 856 4347 1234 4503 
Q 1613 4659 2075 4659 
Q 2584 4659 2973 4495 
Q 3363 4331 3572 4012 
Q 3781 3694 3797 3291 
L 3216 3247 
Q 3169 3681 2898 3903 
Q 2628 4125 2100 4125 
Q 1550 4125 1298 3923 
Q 1047 3722 1047 3438 
Q 1047 3191 1225 3031 
Q 1400 2872 2139 2705 
Q 2878 2538 3153 2413 
Q 3553 2228 3743 1945 
Q 3934 1663 3934 1294 
Q 3934 928 3725 604 
Q 3516 281 3123 101 
Q 2731 -78 2241 -78 
Q 1619 -78 1198 103 
Q 778 284 539 648 
Q 300 1013 288 1472 
z
" transform="scale(0.015625)"/>
      <path id="ArialMT-74" d="M 1650 503 
L 1731 6 
Q 1494 -44 1306 -44 
Q 1000 -44 831 53 
Q 663 150 594 308 
Q 525 466 525 972 
L 525 2881 
L 113 2881 
L 113 3319 
L 525 3319 
L 525 4141 
L 1084 4478 
L 1084 3319 
L 1650 3319 
L 1650 2881 
L 1084 2881 
L 1084 941 
Q 1084 700 1114 631 
Q 1144 563 1211 522 
Q 1278 481 1403 481 
Q 1497 481 1650 503 
z
" transform="scale(0.015625)"/>
      <path id="ArialMT-72" d="M 416 0 
L 416 3319 
L 922 3319 
L 922 2816 
Q 1116 3169 1280 3281 
Q 1444 3394 1641 3394 
Q 1925 3394 2219 3213 
L 2025 2691 
Q 1819 2813 1613 2813 
Q 1428 2813 1281 2702 
Q 1134 2591 1072 2394 
Q 978 2094 978 1738 
L 978 0 
L 416 0 
z
" transform="scale(0.015625)"/>
      <path id="ArialMT-79" d="M 397 -1278 
L 334 -750 
Q 519 -800 656 -800 
Q 844 -800 956 -737 
Q 1069 -675 1141 -563 
Q 1194 -478 1313 -144 
Q 1328 -97 1363 -6 
L 103 3319 
L 709 3319 
L 1400 1397 
Q 1534 1031 1641 628 
Q 1738 1016 1872 1384 
L 2581 3319 
L 3144 3319 
L 1881 -56 
Q 1678 -603 1566 -809 
Q 1416 -1088 1222 -1217 
Q 1028 -1347 759 -1347 
Q 597 -1347 397 -1278 
z
" transform="scale(0.015625)"/>
      <path id="ArialMT-70" d="M 422 -1272 
L 422 3319 
L 934 3319 
L 934 2888 
Q 1116 3141 1344 3267 
Q 1572 3394 1897 3394 
Q 2322 3394 2647 3175 
Q 2972 2956 3137 2557 
Q 3303 2159 3303 1684 
Q 3303 1175 3120 767 
Q 2938 359 2589 142 
Q 2241 -75 1856 -75 
Q 1575 -75 1351 44 
Q 1128 163 984 344 
L 984 -1272 
L 422 -1272 
z
M 931 1641 
Q 931 1000 1190 694 
Q 1450 388 1819 388 
Q 2194 388 2461 705 
Q 2728 1022 2728 1688 
Q 2728 2322 2467 2637 
Q 2206 2953 1844 2953 
Q 1484 2953 1207 2617 
Q 931 2281 931 1641 
z
" transform="scale(0.015625)"/>
      <path id="ArialMT-65" d="M 2694 1069 
L 3275 997 
Q 3138 488 2766 206 
Q 2394 -75 1816 -75 
Q 1088 -75 661 373 
Q 234 822 234 1631 
Q 234 2469 665 2931 
Q 1097 3394 1784 3394 
Q 2450 3394 2872 2941 
Q 3294 2488 3294 1666 
Q 3294 1616 3291 1516 
L 816 1516 
Q 847 969 1125 678 
Q 1403 388 1819 388 
Q 2128 388 2347 550 
Q 2566 713 2694 1069 
z
M 847 1978 
L 2700 1978 
Q 2663 2397 2488 2606 
Q 2219 2931 1791 2931 
Q 1403 2931 1139 2672 
Q 875 2413 847 1978 
z
" transform="scale(0.015625)"/>
     </defs>
     <use xlink:href="#ArialMT-53"/>
     <use xlink:href="#ArialMT-74" transform="translate(66.699219 0)"/>
     <use xlink:href="#ArialMT-61" transform="translate(94.482422 0)"/>
     <use xlink:href="#ArialMT-74" transform="translate(150.097656 0)"/>
     <use xlink:href="#ArialMT-69" transform="translate(177.880859 0)"/>
     <use xlink:href="#ArialMT-6f" transform="translate(200.097656 0)"/>
     <use xlink:href="#ArialMT-6e" transform="translate(255.712891 0)"/>
     <use xlink:href="#ArialMT-61" transform="translate(311.328125 0)"/>
     <use xlink:href="#ArialMT-72" transform="translate(366.943359 0)"/>
     <use xlink:href="#ArialMT-79" transform="translate(400.244141 0)"/>
     <use xlink:href="#ArialMT-20" transform="translate(450.244141 0)"/>
     <use xlink:href="#ArialMT-70" transform="translate(478.027344 0)"/>
     <use xlink:href="#ArialMT-6c" transform="translate(533.642578 0)"/>
     <use xlink:href="#ArialMT-61" transform="translate(555.859375 0)"/>
     <use xlink:href="#ArialMT-74" transform="translate(611.474609 0)"/>
     <use xlink:href="#ArialMT-65" transform="translate(639.257812 0)"/>
    </g>
   </g>
   <g id="patch_40">
    <path d="M 750.56 271.392 
L 470.88 481.92 
L 191.2 271.392 
L 191.2 271.392 
L 191.421116 274.017838 
L 192.084114 276.639525 
L 193.187945 279.252914 
L 194.730864 281.853873 
L 196.710432 284.43829 
L 199.123519 287.002077 
L 201.966308 289.541183 
L 205.234306 292.05159 
L 208.922343 294.529331 
L 213.02459 296.970487 
L 217.534559 299.371197 
L 222.445119 301.727667 
L 227.748506 304.03617 
L 233.436333 306.293056 
L 239.499608 308.494756 
L 245.928743 310.63779 
L 252.713572 312.718767 
L 259.843367 314.734398 
L 267.306854 316.681496 
L 275.092233 318.556982 
L 283.187192 320.357891 
L 291.578931 322.081374 
L 300.254183 323.724707 
L 309.199229 325.285292 
L 318.399926 326.76066 
L 327.841725 328.148478 
L 337.509697 329.446553 
L 347.388555 330.652832 
L 357.462678 331.765408 
L 367.716138 332.78252 
L 378.13272 333.702562 
L 388.695955 334.524077 
L 399.38914 335.245768 
L 410.195367 335.866493 
L 421.097549 336.385271 
L 432.078446 336.801281 
L 443.120698 337.113865 
L 454.206842 337.322529 
L 465.31935 337.426944 
L 476.44065 337.426944 
L 487.553158 337.322529 
L 498.639302 337.113865 
L 509.681554 336.801281 
L 520.662451 336.385271 
L 531.564633 335.866493 
L 542.37086 335.245768 
L 553.064045 334.524077 
L 563.62728 333.702562 
L 574.043862 332.78252 
L 584.297322 331.765408 
L 594.371445 330.652832 
L 604.250303 329.446553 
L 613.918275 328.148478 
L 623.360074 326.76066 
L 632.560771 325.285292 
L 641.505817 323.724707 
L 650.181069 322.081374 
L 658.572808 320.357891 
L 666.667767 318.556982 
L 674.453146 316.681496 
L 681.916633 314.734398 
L 689.046428 312.718767 
L 695.831257 310.63779 
L 702.260392 308.494756 
L 708.323667 306.293056 
L 714.011494 304.03617 
L 719.314881 301.727667 
L 724.225441 299.371197 
L 728.73541 296.970487 
L 732.837657 294.529331 
L 736.525694 292.05159 
L 739.793692 289.541183 
L 742.636481 287.002077 
L 745.049568 284.43829 
L 747.029136 281.853873 
L 748.572055 279.252914 
L 749.675886 276.639525 
L 750.338884 274.017838 
z
" clip-path="url(#pc060b771ce)" style="fill: #c9ccd1; stroke: #202124; stroke-width: 1.8; stroke-linejoin: miter"/>
   </g>
   <g id="patch_41">
    <path d="M 470.88 481.92 
L 191.2 271.392 
L 191.2 271.392 
L 191.421116 274.017838 
L 192.084114 276.639525 
L 193.187945 279.252914 
L 194.730864 281.853873 
L 196.710432 284.43829 
L 199.123519 287.002077 
L 201.966308 289.541183 
L 205.234306 292.05159 
L 208.922343 294.529331 
L 213.02459 296.970487 
L 217.534559 299.371197 
L 222.445119 301.727667 
L 227.748506 304.03617 
L 233.436333 306.293056 
L 239.499608 308.494756 
L 245.928743 310.63779 
L 252.713572 312.718767 
L 259.843367 314.734398 
L 267.306854 316.681496 
L 275.092233 318.556982 
L 283.187192 320.357891 
L 291.578931 322.081374 
L 300.254183 323.724707 
L 309.199229 325.285292 
L 318.399926 326.76066 
L 327.841725 328.148478 
L 337.509697 329.446553 
L 347.388555 330.652832 
L 357.462678 331.765408 
L 367.716138 332.78252 
L 378.13272 333.702562 
L 388.695955 334.524077 
L 399.38914 335.245768 
L 410.195367 335.866493 
L 421.097549 336.385271 
L 432.078446 336.801281 
L 443.120698 337.113865 
L 454.206842 337.322529 
L 465.31935 337.426944 
L 476.44065 337.426944 
z
" clip-path="url(#pc060b771ce)" style="fill: #5f6368; opacity: 0.32"/>
   </g>
   <g id="patch_42">
    <path d="M 470.88 481.92 
L 750.56 271.392 
L 750.56 271.392 
L 750.338884 274.017838 
L 749.675886 276.639525 
L 748.572055 279.252914 
L 747.029136 281.853873 
L 745.049568 284.43829 
L 742.636481 287.002077 
L 739.793692 289.541183 
L 736.525694 292.05159 
L 732.837657 294.529331 
L 728.73541 296.970487 
L 724.225441 299.371197 
L 719.314881 301.727667 
L 714.011494 304.03617 
L 708.323667 306.293056 
L 702.260392 308.494756 
L 695.831257 310.63779 
L 689.046428 312.718767 
L 681.916633 314.734398 
L 674.453146 316.681496 
L 666.667767 318.556982 
L 658.572808 320.357891 
L 650.181069 322.081374 
L 641.505817 323.724707 
L 632.560771 325.285292 
L 623.360074 326.76066 
L 613.918275 328.148478 
L 604.250303 329.446553 
L 594.371445 330.652832 
L 584.297322 331.765408 
L 574.043862 332.78252 
L 563.62728 333.702562 
L 553.064045 334.524077 
L 542.37086 335.245768 
L 531.564633 335.866493 
L 520.662451 336.385271 
L 509.681554 336.801281 
L 498.639302 337.113865 
L 487.553158 337.322529 
L 476.44065 337.426944 
z
" clip-path="url(#pc060b771ce)" style="fill: #ffffff; opacity: 0.2"/>
   </g>
   <g id="patch_43">
    <path d="M 470.88 337.44 
C 545.052003 337.44 616.196098 330.480766 668.643625 318.094989 
C 721.091151 305.709211 750.56 288.908134 750.56 271.392 
C 750.56 253.875866 721.091151 237.074789 668.643625 224.689011 
C 616.196098 212.303234 545.052003 205.344 470.88 205.344 
C 396.707997 205.344 325.563902 212.303234 273.116375 224.689011 
C 220.668849 237.074789 191.2 253.875866 191.2 271.392 
C 191.2 288.908134 220.668849 305.709211 273.116375 318.094989 
C 325.563902 330.480766 396.707997 337.44 470.88 337.44 
z
" clip-path="url(#pc060b771ce)" style="fill: #dadce0; stroke: #202124; stroke-width: 1.5; stroke-linejoin: miter"/>
   </g>
   <g id="patch_44">
    <path d="M 757.92 271.392 
L 757.693065 274.214776 
L 757.01262 277.033089 
L 755.879741 279.842482 
L 754.296218 282.638513 
L 752.264556 285.416761 
L 749.787967 288.172833 
L 746.870368 290.902371 
L 743.516371 293.60106 
L 739.731279 296.264631 
L 735.521079 298.888873 
L 730.892427 301.469637 
L 725.852641 304.002842 
L 720.409692 306.484483 
L 714.572184 308.910636 
L 708.34935 311.277463 
L 701.751027 313.581224 
L 694.78765 315.818275 
L 687.470229 317.985078 
L 679.810334 320.078209 
L 671.820077 322.094356 
L 663.512093 324.030333 
L 654.899518 325.883077 
L 645.99597 327.64966 
L 636.815528 329.327289 
L 627.372707 330.913309 
L 617.68244 332.405214 
L 607.760048 333.800645 
L 597.62122 335.097395 
L 587.281988 336.293413 
L 576.758701 337.386809 
L 566.067998 338.375854 
L 555.226783 339.258983 
L 544.252198 340.034801 
L 533.161597 340.70208 
L 521.972516 341.259766 
L 510.702647 341.706977 
L 499.36981 342.043005 
L 487.991926 342.267319 
L 476.586983 342.379565 
L 465.173017 342.379565 
L 453.768074 342.267319 
L 442.39019 342.043005 
L 431.057353 341.706977 
L 419.787484 341.259766 
L 408.598403 340.70208 
L 397.507802 340.034801 
L 386.533217 339.258983 
L 375.692002 338.375854 
L 365.001299 337.386809 
L 354.478012 336.293413 
L 344.13878 335.097395 
L 333.999952 333.800645 
L 324.07756 332.405214 
L 314.387293 330.913309 
L 304.944472 329.327289 
L 295.76403 327.64966 
L 286.860482 325.883077 
L 278.247907 324.030333 
L 269.939923 322.094356 
L 261.949666 320.078209 
L 254.289771 317.985078 
L 246.97235 315.818275 
L 240.008973 313.581224 
L 233.41065 311.277463 
L 227.187816 308.910636 
L 221.350308 306.484483 
L 215.907359 304.002842 
L 210.867573 301.469637 
L 206.238921 298.888873 
L 202.028721 296.264631 
L 198.243629 293.60106 
L 194.889632 290.902371 
L 191.972033 288.172833 
L 189.495444 285.416761 
L 187.463782 282.638513 
L 185.880259 279.842482 
L 184.74738 277.033089 
L 184.066935 274.214776 
L 183.84 271.392 
L 183.84 543.84 
L 184.066935 546.662776 
L 184.74738 549.481089 
L 185.880259 552.290482 
L 187.463782 555.086513 
L 189.495444 557.864761 
L 191.972033 560.620833 
L 194.889632 563.350371 
L 198.243629 566.04906 
L 202.028721 568.712631 
L 206.238921 571.336873 
L 210.867573 573.917637 
L 215.907359 576.450842 
L 221.350308 578.932483 
L 227.187816 581.358636 
L 233.41065 583.725463 
L 240.008973 586.029224 
L 246.97235 588.266275 
L 254.289771 590.433078 
L 261.949666 592.526209 
L 269.939923 594.542356 
L 278.247907 596.478333 
L 286.860482 598.331077 
L 295.76403 600.09766 
L 304.944472 601.775289 
L 314.387293 603.361309 
L 324.07756 604.853214 
L 333.999952 606.248645 
L 344.13878 607.545395 
L 354.478012 608.741413 
L 365.001299 609.834809 
L 375.692002 610.823854 
L 386.533217 611.706983 
L 397.507802 612.482801 
L 408.598403 613.15008 
L 419.787484 613.707766 
L 431.057353 614.154977 
L 442.39019 614.491005 
L 453.768074 614.715319 
L 465.173017 614.827565 
L 476.586983 614.827565 
L 487.991926 614.715319 
L 499.36981 614.491005 
L 510.702647 614.154977 
L 521.972516 613.707766 
L 533.161597 613.15008 
L 544.252198 612.482801 
L 555.226783 611.706983 
L 566.067998 610.823854 
L 576.758701 609.834809 
L 587.281988 608.741413 
L 597.62122 607.545395 
L 607.760048 606.248645 
L 617.68244 604.853214 
L 627.372707 603.361309 
L 636.815528 601.775289 
L 645.99597 600.09766 
L 654.899518 598.331077 
L 663.512093 596.478333 
L 671.820077 594.542356 
L 679.810334 592.526209 
L 687.470229 590.433078 
L 694.78765 588.266275 
L 701.751027 586.029224 
L 708.34935 583.725463 
L 714.572184 581.358636 
L 720.409692 578.932483 
L 725.852641 576.450842 
L 730.892427 573.917637 
L 735.521079 571.336873 
L 739.731279 568.712631 
L 743.516371 566.04906 
L 746.870368 563.350371 
L 749.787967 560.620833 
L 752.264556 557.864761 
L 754.296218 555.086513 
L 755.879741 552.290482 
L 757.01262 549.481089 
L 757.693065 546.662776 
L 757.92 543.84 
z
" clip-path="url(#pc060b771ce)" style="fill: #d2e3fc; opacity: 0.28"/>
   </g>
   <g id="patch_45">
    <path d="M 183.84 271.392 
C 183.84 290.215573 214.102273 308.287437 267.91207 321.597713 
C 321.721866 334.907989 394.781455 342.3936 470.88 342.3936 
C 546.978545 342.3936 620.038134 334.907989 673.84793 321.597713 
C 727.657727 308.287437 757.92 290.215573 757.92 271.392 
" clip-path="url(#pc060b771ce)" style="fill: none; opacity: 0.85; stroke: #4285f4; stroke-width: 1.2; stroke-linejoin: miter"/>
   </g>
   <g id="patch_46">
    <path d="M 183.84 543.84 
C 183.84 562.663573 214.102273 580.735437 267.91207 594.045713 
C 321.721866 607.355989 394.781455 614.8416 470.88 614.8416 
C 546.978545 614.8416 620.038134 607.355989 673.84793 594.045713 
C 727.657727 580.735437 757.92 562.663573 757.92 543.84 
" clip-path="url(#pc060b771ce)" style="fill: none; opacity: 0.85; stroke: #4285f4; stroke-width: 1.2; stroke-linejoin: miter"/>
   </g>
   <g id="line2d_1">
    <path d="M 183.84 543.84 
L 183.84 271.392 
" clip-path="url(#pc060b771ce)" style="fill: none; stroke: #4285f4; stroke-opacity: 0.85; stroke-width: 1.2; stroke-linecap: square"/>
   </g>
   <g id="line2d_2">
    <path d="M 757.92 543.84 
L 757.92 271.392 
" clip-path="url(#pc060b771ce)" style="fill: none; stroke: #4285f4; stroke-opacity: 0.85; stroke-width: 1.2; stroke-linecap: square"/>
   </g>
   <g id="patch_47">
    <path d="M 559.2 164.064 
L 558.913605 165.92413 
L 558.056279 167.772195 
L 556.633581 169.596212 
L 554.654739 171.384351 
L 552.132584 173.125014 
L 549.083476 174.806913 
L 545.527188 176.41914 
L 541.486785 177.951239 
L 536.988469 179.393274 
L 532.061415 180.735893 
L 526.737576 181.970388 
L 521.051478 183.088753 
L 515.04 184.083736 
L 508.742127 184.948883 
L 502.198704 185.678583 
L 495.452166 186.268105 
L 488.546269 186.713625 
L 481.5258 187.012253 
L 474.436288 187.162052 
L 467.323712 187.162052 
L 460.2342 187.012253 
L 453.213731 186.713625 
L 446.307834 186.268105 
L 439.561296 185.678583 
L 433.017873 184.948883 
L 426.72 184.083736 
L 420.708522 183.088753 
L 415.022424 181.970388 
L 409.698585 180.735893 
L 404.771531 179.393274 
L 400.273215 177.951239 
L 396.232812 176.41914 
L 392.676524 174.806913 
L 389.627416 173.125014 
L 387.105261 171.384351 
L 385.126419 169.596212 
L 383.703721 167.772195 
L 382.846395 165.92413 
L 382.56 164.064 
L 382.56 271.392 
L 382.846395 273.25213 
L 383.703721 275.100195 
L 385.126419 276.924212 
L 387.105261 278.712351 
L 389.627416 280.453014 
L 392.676524 282.134913 
L 396.232812 283.74714 
L 400.273215 285.279239 
L 404.771531 286.721274 
L 409.698585 288.063893 
L 415.022424 289.298388 
L 420.708522 290.416753 
L 426.72 291.411736 
L 433.017873 292.276883 
L 439.561296 293.006583 
L 446.307834 293.596105 
L 453.213731 294.041625 
L 460.2342 294.340253 
L 467.323712 294.490052 
L 474.436288 294.490052 
L 481.5258 294.340253 
L 488.546269 294.041625 
L 495.452166 293.596105 
L 502.198704 293.006583 
L 508.742127 292.276883 
L 515.04 291.411736 
L 521.051478 290.416753 
L 526.737576 289.298388 
L 532.061415 288.063893 
L 536.988469 286.721274 
L 541.486785 285.279239 
L 545.527188 283.74714 
L 549.083476 282.134913 
L 552.132584 280.453014 
L 554.654739 278.712351 
L 556.633581 276.924212 
L 558.056279 275.100195 
L 558.913605 273.25213 
L 559.2 271.392 
z
" clip-path="url(#pc060b771ce)" style="fill: #dadce0; stroke: #202124; stroke-width: 1.3; stroke-linejoin: miter"/>
   </g>
   <g id="patch_48">
    <path d="M 470.88 187.1808 
C 494.302738 187.1808 516.769294 184.745068 533.331671 180.410046 
C 549.894048 176.075024 559.2 170.194647 559.2 164.064 
C 559.2 157.933353 549.894048 152.052976 533.331671 147.717954 
C 516.769294 143.382932 494.302738 140.9472 470.88 140.9472 
C 447.457262 140.9472 424.990706 143.382932 408.428329 147.717954 
C 391.865952 152.052976 382.56 157.933353 382.56 164.064 
C 382.56 170.194647 391.865952 176.075024 408.428329 180.410046 
C 424.990706 184.745068 447.457262 187.1808 470.88 187.1808 
z
" clip-path="url(#pc060b771ce)" style="fill: #f1f3f4; stroke: #202124; stroke-width: 1.3; stroke-linejoin: miter"/>
   </g>
   <g id="patch_49">
    <path d="M 219.187912 300.208612 
Q 242.558019 312.044107 262.935872 322.364213 
" style="fill: none; stroke: #ffa500; stroke-width: 3; stroke-linecap: round"/>
    <path d="M 257.606134 315.181324 
L 262.935872 322.364213 
L 253.991718 322.31827 
z
" style="fill: #ffa500; stroke: #ffa500; stroke-width: 3; stroke-linecap: round"/>
   </g>
   <g id="patch_50">
    <path d="M 354.670467 331.470775 
Q 380.150517 334.276668 402.29662 336.715423 
" style="fill: none; stroke: #ffa500; stroke-width: 3; stroke-linecap: round"/>
    <path d="M 394.782528 331.863782 
L 402.29662 336.715423 
L 393.906852 339.815712 
z
" style="fill: #ffa500; stroke: #ffa500; stroke-width: 3; stroke-linecap: round"/>
   </g>
   <g id="patch_51">
    <path d="M 472.8779 337.44 
Q 498.480437 337.44 520.728871 337.44 
" style="fill: none; stroke: #ffa500; stroke-width: 3; stroke-linecap: round"/>
    <path d="M 512.728871 333.44 
L 520.728871 337.44 
L 512.728871 341.44 
z
" style="fill: #ffa500; stroke: #ffa500; stroke-width: 3; stroke-linecap: round"/>
   </g>
   <g id="patch_52">
    <path d="M 591.066218 331.032858 
Q 616.546268 328.226965 638.692371 325.788211 
" style="fill: none; stroke: #ffa500; stroke-width: 3; stroke-linecap: round"/>
    <path d="M 630.302603 322.687921 
L 638.692371 325.788211 
L 631.178278 330.639851 
z
" style="fill: #ffa500; stroke: #ffa500; stroke-width: 3; stroke-linecap: round"/>
   </g>
   <g id="patch_53">
    <path d="M 726.140235 298.40157 
Q 749.510343 286.566074 769.888196 276.245969 
" style="fill: none; stroke: #ffa500; stroke-width: 3; stroke-linecap: round"/>
    <path d="M 760.944042 276.291912 
L 769.888196 276.245969 
L 764.558458 283.428858 
z
" style="fill: #ffa500; stroke: #ffa500; stroke-width: 3; stroke-linecap: round"/>
   </g>
   <g id="patch_54">
    <path d="M 472.882617 502.56 
Q 476.401813 502.56 477.461334 502.56 
" style="fill: none; opacity: 0.95; stroke: #ffa500; stroke-width: 2.2; stroke-linecap: round"/>
    <path d="M 471.861334 499.76 
L 477.461334 502.56 
L 471.861334 505.36 
z
" style="fill: #ffa500; opacity: 0.95; stroke: #ffa500; stroke-width: 2.2; stroke-linecap: round"/>
   </g>
   <g id="line2d_3">
    <path d="M 470.88 543.84 
L 526.08 337.44 
" clip-path="url(#pc060b771ce)" style="fill: none; stroke-dasharray: 4.44,1.92; stroke-dashoffset: 0; stroke: #ffa500; stroke-opacity: 0.9; stroke-width: 1.2"/>
   </g>
   <g id="patch_55">
    <path d="M 472.882617 461.28 
Q 481.91891 461.28 488.495528 461.28 
" style="fill: none; opacity: 0.95; stroke: #ffa500; stroke-width: 2.2; stroke-linecap: round"/>
    <path d="M 482.895528 458.48 
L 488.495528 461.28 
L 482.895528 464.08 
z
" style="fill: #ffa500; opacity: 0.95; stroke: #ffa500; stroke-width: 2.2; stroke-linecap: round"/>
   </g>
   <g id="line2d_4">
    <path d="M 470.88 543.84 
L 526.08 337.44 
" clip-path="url(#pc060b771ce)" style="fill: none; stroke-dasharray: 4.44,1.92; stroke-dashoffset: 0; stroke: #ffa500; stroke-opacity: 0.9; stroke-width: 1.2"/>
   </g>
   <g id="patch_56">
    <path d="M 472.88127 420 
Q 487.439684 420 499.538424 420 
" style="fill: none; opacity: 0.95; stroke: #ffa500; stroke-width: 2.2; stroke-linecap: round"/>
    <path d="M 493.938424 417.2 
L 499.538424 420 
L 493.938424 422.8 
z
" style="fill: #ffa500; opacity: 0.95; stroke: #ffa500; stroke-width: 2.2; stroke-linecap: round"/>
   </g>
   <g id="line2d_5">
    <path d="M 470.88 543.84 
L 526.08 337.44 
" clip-path="url(#pc060b771ce)" style="fill: none; stroke-dasharray: 4.44,1.92; stroke-dashoffset: 0; stroke: #ffa500; stroke-opacity: 0.9; stroke-width: 1.2"/>
   </g>
   <g id="patch_57">
    <path d="M 472.882617 378.72 
Q 492.961666 378.72 510.58104 378.72 
" style="fill: none; opacity: 0.95; stroke: #ffa500; stroke-width: 2.2; stroke-linecap: round"/>
    <path d="M 504.98104 375.92 
L 510.58104 378.72 
L 504.98104 381.52 
z
" style="fill: #ffa500; opacity: 0.95; stroke: #ffa500; stroke-width: 2.2; stroke-linecap: round"/>
   </g>
   <g id="line2d_6">
    <path d="M 470.88 543.84 
L 526.08 337.44 
" clip-path="url(#pc060b771ce)" style="fill: none; stroke-dasharray: 4.44,1.92; stroke-dashoffset: 0; stroke: #ffa500; stroke-opacity: 0.9; stroke-width: 1.2"/>
   </g>
   <g id="patch_58">
    <path d="M 525.369499 79.897046 
C 514.545557 75.527865 500.771812 72.556954 485.794791 71.361028 
C 470.817769 70.165101 455.298441 70.796939 441.204674 73.176423 
C 427.110907 75.555907 415.064692 79.578024 406.593502 84.732767 
C 398.122312 89.88751 393.6 95.947387 393.6 102.144 
C 393.6 108.340613 398.122312 114.40049 406.593502 119.555233 
C 415.064692 124.709976 427.110907 128.732093 441.204674 131.111577 
C 455.298441 133.491061 470.817769 134.122899 485.794791 132.926972 
C 500.771812 131.731046 514.545557 128.760135 525.369499 124.390954 
" clip-path="url(#pc060b771ce)" style="fill: none; stroke: #1a73e8; stroke-width: 2.4; stroke-linejoin: miter"/>
   </g>
   <g id="text_11">
    <!-- Cone -->
    <g style="fill: #202124" transform="translate(292.603906 273.159806) scale(0.26 -0.26)">
     <defs>
      <path id="ArialMT-43" d="M 3763 1606 
L 4369 1453 
Q 4178 706 3683 314 
Q 3188 -78 2472 -78 
Q 1731 -78 1267 223 
Q 803 525 561 1097 
Q 319 1669 319 2325 
Q 319 3041 592 3573 
Q 866 4106 1370 4382 
Q 1875 4659 2481 4659 
Q 3169 4659 3637 4309 
Q 4106 3959 4291 3325 
L 3694 3184 
Q 3534 3684 3231 3912 
Q 2928 4141 2469 4141 
Q 1941 4141 1586 3887 
Q 1231 3634 1087 3207 
Q 944 2781 944 2328 
Q 944 1744 1114 1308 
Q 1284 872 1643 656 
Q 2003 441 2422 441 
Q 2931 441 3284 734 
Q 3638 1028 3763 1606 
z
" transform="scale(0.015625)"/>
     </defs>
     <use xlink:href="#ArialMT-43"/>
     <use xlink:href="#ArialMT-6f" transform="translate(72.216797 0)"/>
     <use xlink:href="#ArialMT-6e" transform="translate(127.832031 0)"/>
     <use xlink:href="#ArialMT-65" transform="translate(183.447266 0)"/>
    </g>
   </g>
   <g id="patch_59">
    <path d="M 533.367874 84.043256 
Q 538.078477 87.639824 541.011812 89.87944 
" style="fill: none; stroke: #1a73e8; stroke-width: 2; stroke-linecap: round"/>
    <path d="M 537.080656 81.845386 
L 541.011812 89.87944 
L 532.225875 88.203932 
z
" style="fill: #1a73e8; stroke: #1a73e8; stroke-width: 2; stroke-linecap: round"/>
   </g>
   <g id="line2d_7">
    <path d="M 757.92 543.84 
L 798.4 543.84 
" clip-path="url(#pc060b771ce)" style="fill: none; stroke-dasharray: 1.8,2.97; stroke-dashoffset: 0; stroke: #1a73e8; stroke-opacity: 0.8; stroke-width: 1.8"/>
   </g>
   <g id="line2d_8">
    <path d="M 757.92 271.392 
L 798.4 271.392 
" clip-path="url(#pc060b771ce)" style="fill: none; stroke-dasharray: 1.8,2.97; stroke-dashoffset: 0; stroke: #1a73e8; stroke-opacity: 0.8; stroke-width: 1.8"/>
   </g>
   <g id="line2d_9">
    <path d="M 470.88 481.92 
L 551.84 481.92 
" clip-path="url(#pc060b771ce)" style="fill: none; stroke: #34a853; stroke-width: 2; stroke-linecap: square"/>
   </g>
   <g id="patch_60">
    <path d="M 551.84 481.92 
C 551.84 472.957882 550.657344 464.044925 548.330535 455.471298 
C 546.003725 446.89767 542.55829 438.757434 538.106397 431.315599 
" clip-path="url(#pc060b771ce)" style="fill: none; stroke: #34a853; stroke-width: 2.6; stroke-linejoin: miter"/>
   </g>
   <g id="patch_61">
    <path d="M 794.72 538.262665 
Q 794.72 407.616915 794.72 276.971165 
" style="fill: none; stroke: #1a73e8; stroke-width: 3.2; stroke-linecap: round"/>
    <path d="M 799.12 529.462665 
L 794.72 538.262665 
L 790.32 529.462665 
" style="fill: none; stroke: #1a73e8; stroke-width: 3.2; stroke-linecap: round"/>
    <path d="M 790.32 285.771165 
L 794.72 276.971165 
L 799.12 285.771165 
" style="fill: none; stroke: #1a73e8; stroke-width: 3.2; stroke-linecap: round"/>
   </g>
   <g id="patch_62">
    <path d="M 474.223135 168.192 
Q 610.718688 168.192 747.21424 168.192 
" style="fill: none; stroke: #5f6368; stroke-width: 1.2; stroke-linecap: round"/>
    <path d="M 479.023135 170.592 
L 474.223135 168.192 
L 479.023135 165.792 
z
" style="fill: #5f6368; stroke: #5f6368; stroke-width: 1.2; stroke-linecap: round"/>
    <path d="M 742.41424 165.792 
L 747.21424 168.192 
L 742.41424 170.592 
z
" style="fill: #5f6368; stroke: #5f6368; stroke-width: 1.2; stroke-linecap: round"/>
   </g>
   <g id="line2d_10">
    <path d="M 470.88 543.84 
L 470.88 481.92 
" clip-path="url(#pc060b771ce)" style="fill: none; stroke-dasharray: 2,2; stroke-dashoffset: 0; stroke: #ea4335; stroke-opacity: 0.85"/>
   </g>
   <g id="line2d_11">
    <path d="M 463.52 481.92 
L 290.56 481.92 
" clip-path="url(#pc060b771ce)" style="fill: none; stroke: #ea4335; stroke-opacity: 0.9; stroke-width: 2.2; stroke-linecap: square"/>
   </g>
   <g id="line2d_12">
    <path d="M 463.52 543.84 
L 290.56 543.84 
" clip-path="url(#pc060b771ce)" style="fill: none; stroke: #ea4335; stroke-opacity: 0.9; stroke-width: 2.2; stroke-linecap: square"/>
   </g>
   <g id="patch_63">
    <path d="M 308.96 538.263043 
Q 308.96 512.88064 308.96 487.498237 
" style="fill: none; stroke: #ea4335; stroke-width: 3.2; stroke-linecap: round"/>
    <path d="M 313.36 529.463043 
L 308.96 538.263043 
L 304.56 529.463043 
" style="fill: none; stroke: #ea4335; stroke-width: 3.2; stroke-linecap: round"/>
    <path d="M 304.56 496.298237 
L 308.96 487.498237 
L 313.36 496.298237 
" style="fill: none; stroke: #ea4335; stroke-width: 3.2; stroke-linecap: round"/>
   </g>
   <g id="text_12">
    <!-- $h$ -->
    <g style="fill: #ea4335" transform="translate(276.84 520.635469) scale(0.3 -0.3)">
     <defs>
      <path id="Cmmi10-68" d="M 341 116 
Q 341 153 347 172 
L 1275 3872 
Q 1300 3981 1306 4044 
Q 1306 4147 891 4147 
Q 825 4147 825 4231 
Q 828 4247 839 4287 
Q 850 4328 867 4350 
Q 884 4372 916 4372 
L 1778 4441 
L 1797 4441 
Q 1797 4434 1819 4423 
Q 1841 4413 1844 4409 
Q 1856 4378 1856 4359 
L 1356 2363 
Q 1750 2828 2291 2828 
Q 2516 2828 2680 2750 
Q 2844 2672 2936 2514 
Q 3028 2356 3028 2138 
Q 3028 1875 2911 1503 
Q 2794 1131 2619 672 
Q 2528 463 2528 288 
Q 2528 97 2675 97 
Q 2925 97 3092 364 
Q 3259 631 3328 941 
Q 3341 978 3378 978 
L 3456 978 
Q 3481 978 3497 961 
Q 3513 944 3513 922 
Q 3513 916 3506 903 
Q 3450 672 3339 448 
Q 3228 225 3059 76 
Q 2891 -72 2663 -72 
Q 2438 -72 2278 83 
Q 2119 238 2119 459 
Q 2119 578 2169 709 
Q 2350 1191 2470 1569 
Q 2591 1947 2591 2234 
Q 2591 2419 2519 2541 
Q 2447 2663 2278 2663 
Q 1934 2663 1678 2452 
Q 1422 2241 1234 1894 
L 800 147 
Q 775 50 703 -11 
Q 631 -72 538 -72 
Q 456 -72 398 -17 
Q 341 38 341 116 
z
" transform="scale(0.015625)"/>
     </defs>
     <use xlink:href="#Cmmi10-68" transform="translate(0 0.609375)"/>
    </g>
   </g>
  </g>
 </g>
 <defs>
  <clipPath id="pc060b771ce">
   <rect x="7.2" y="7.2" width="927.36" height="743.04"/>
  </clipPath>
 </defs>
</svg>
