<?xml version="1.0" encoding="utf-8" standalone="no"?>
<!DOCTYPE svg PUBLIC "-//W3C//DTD SVG 1.1//EN"
  "http://www.w3.org/Graphics/SVG/1.1/DTD/svg11.dtd">
<svg xmlns:xlink="http://www.w3.org/1999/xlink" width="640.435114pt" height="555.217145pt" viewBox="0 0 640.435114 555.217145" xmlns="http://www.w3.org/2000/svg" version="1.1">
 <metadata>
  <rdf:RDF xmlns:dc="http://purl.org/dc/elements/1.1/" xmlns:cc="http://creativecommons.org/ns#" xmlns:rdf="http://www.w3.org/1999/02/22-rdf-syntax-ns#">
   <cc:Work>
    <dc:type rdf:resource="http://purl.org/dc/dcmitype/StillImage"/>
    <dc:date>2026-05-20T12:39:55.848359</dc:date>
    <dc:format>image/svg+xml</dc:format>
    <dc:creator>
     <cc:Agent>
      <dc:title>Matplotlib v3.10.0, https://matplotlib.org/</dc:title>
     </cc:Agent>
    </dc:creator>
   </cc:Work>
  </rdf:RDF>
 </metadata>
 <defs>
  <style type="text/css">*{stroke-linejoin: round; stroke-linecap: butt}</style>
 </defs>
 <g id="figure_1">
  <g id="patch_1">
   <path d="M 0 555.217145 
L 640.435114 555.217145 
L 640.435114 0 
L 0 0 
z
" style="fill: #ffffff"/>
  </g>
  <g id="axes_1">
   <g id="patch_2">
    <path d="M 79.146875 496.958551 
L 561.288239 496.958551 
L 561.288239 14.817187 
L 79.146875 14.817187 
z
" style="fill: #ffffff"/>
   </g>
   <g id="matplotlib.axis_1">
    <g id="xtick_1">
     <g id="line2d_1">
      <defs>
       <path id="m9cbda80f85" d="M 0 0 
L 0 4 
" style="stroke: #000000; stroke-width: 0.8"/>
      </defs>
      <g>
       <use xlink:href="#m9cbda80f85" x="109.729545" y="496.958551" style="stroke: #000000; stroke-width: 0.8"/>
      </g>
     </g>
     <g id="text_1">
      <!-- 1 -->
      <g transform="translate(105.507279 515.884332) scale(0.15 -0.15)">
       <defs>
        <path id="Roboto-Regular-31" d="M 2128 0 
L 1513 0 
L 1513 3950 
L 581 3938 
L 581 4381 
L 2128 4550 
L 2128 0 
z
" transform="scale(0.015625)"/>
       </defs>
       <use xlink:href="#Roboto-Regular-31"/>
      </g>
     </g>
    </g>
    <g id="xtick_2">
     <g id="line2d_2">
      <g>
       <use xlink:href="#m9cbda80f85" x="134.49284" y="496.958551" style="stroke: #000000; stroke-width: 0.8"/>
      </g>
     </g>
     <g id="text_2">
      <!-- 2 -->
      <g transform="translate(130.270575 515.884332) scale(0.15 -0.15)">
       <defs>
        <path id="Roboto-Regular-32" d="M 3319 0 
L 369 0 
L 369 422 
L 1859 2078 
Q 2259 2525 2401 2787 
Q 2544 3050 2544 3325 
Q 2544 3666 2345 3898 
Q 2147 4131 1819 4131 
Q 1347 4131 1123 3889 
Q 900 3647 900 3209 
L 309 3209 
L 303 3228 
Q 288 3816 694 4216 
Q 1100 4616 1819 4616 
Q 2431 4616 2795 4258 
Q 3159 3900 3159 3347 
Q 3159 2975 2939 2601 
Q 2719 2228 2322 1800 
L 1125 497 
L 1131 481 
L 3319 481 
L 3319 0 
z
" transform="scale(0.015625)"/>
       </defs>
       <use xlink:href="#Roboto-Regular-32"/>
      </g>
     </g>
    </g>
    <g id="xtick_3">
     <g id="line2d_3">
      <g>
       <use xlink:href="#m9cbda80f85" x="159.256136" y="496.958551" style="stroke: #000000; stroke-width: 0.8"/>
      </g>
     </g>
     <g id="text_3">
      <!-- 3 -->
      <g transform="translate(155.03387 515.884332) scale(0.15 -0.15)">
       <defs>
        <path id="Roboto-Regular-33" d="M 1213 2559 
L 1750 2559 
Q 2159 2559 2329 2764 
Q 2500 2969 2500 3334 
Q 2500 3725 2306 3928 
Q 2113 4131 1734 4131 
Q 1375 4131 1158 3920 
Q 941 3709 941 3359 
L 350 3359 
L 344 3378 
Q 328 3894 717 4255 
Q 1106 4616 1734 4616 
Q 2366 4616 2741 4280 
Q 3116 3944 3116 3322 
Q 3116 3041 2945 2761 
Q 2775 2481 2434 2334 
Q 2844 2200 3014 1912 
Q 3184 1625 3184 1269 
Q 3184 647 2776 290 
Q 2369 -66 1734 -66 
Q 1113 -66 705 270 
Q 297 606 313 1181 
L 322 1200 
L 909 1200 
Q 909 841 1129 628 
Q 1350 416 1734 416 
Q 2125 416 2347 628 
Q 2569 841 2569 1256 
Q 2569 1678 2372 1878 
Q 2175 2078 1750 2078 
L 1213 2078 
L 1213 2559 
z
" transform="scale(0.015625)"/>
       </defs>
       <use xlink:href="#Roboto-Regular-33"/>
      </g>
     </g>
    </g>
    <g id="xtick_4">
     <g id="line2d_4">
      <g>
       <use xlink:href="#m9cbda80f85" x="184.019431" y="496.958551" style="stroke: #000000; stroke-width: 0.8"/>
      </g>
     </g>
     <g id="text_4">
      <!-- 4 -->
      <g transform="translate(179.797166 515.884332) scale(0.15 -0.15)">
       <defs>
        <path id="Roboto-Regular-34" d="M 2828 1531 
L 3456 1531 
L 3456 1050 
L 2828 1050 
L 2828 0 
L 2216 0 
L 2216 1050 
L 172 1050 
L 172 1397 
L 2178 4550 
L 2828 4550 
L 2828 1531 
z
M 828 1531 
L 2216 1531 
L 2216 3666 
L 2197 3669 
L 2138 3513 
L 828 1531 
z
" transform="scale(0.015625)"/>
       </defs>
       <use xlink:href="#Roboto-Regular-34"/>
      </g>
     </g>
    </g>
    <g id="xtick_5">
     <g id="line2d_5">
      <g>
       <use xlink:href="#m9cbda80f85" x="208.782727" y="496.958551" style="stroke: #000000; stroke-width: 0.8"/>
      </g>
     </g>
     <g id="text_5">
      <!-- 5 -->
      <g transform="translate(204.560461 515.884332) scale(0.15 -0.15)">
       <defs>
        <path id="Roboto-Regular-35" d="M 547 2053 
L 809 4550 
L 3088 4550 
L 3088 4003 
L 1331 4003 
L 1181 2725 
Q 1325 2831 1501 2901 
Q 1678 2972 1909 2978 
Q 2538 2984 2898 2568 
Q 3259 2153 3259 1450 
Q 3259 766 2892 350 
Q 2525 -66 1822 -66 
Q 1244 -66 859 250 
Q 475 566 491 1178 
L 497 1197 
L 1053 1197 
Q 1053 825 1267 620 
Q 1481 416 1822 416 
Q 2213 416 2428 691 
Q 2644 966 2644 1444 
Q 2644 1881 2425 2162 
Q 2206 2444 1822 2444 
Q 1459 2444 1296 2334 
Q 1134 2225 1059 2000 
L 547 2053 
z
" transform="scale(0.015625)"/>
       </defs>
       <use xlink:href="#Roboto-Regular-35"/>
      </g>
     </g>
    </g>
    <g id="xtick_6">
     <g id="line2d_6">
      <g>
       <use xlink:href="#m9cbda80f85" x="233.546023" y="496.958551" style="stroke: #000000; stroke-width: 0.8"/>
      </g>
     </g>
     <g id="text_6">
      <!-- 6 -->
      <g transform="translate(229.323757 515.884332) scale(0.15 -0.15)">
       <defs>
        <path id="Roboto-Regular-36" d="M 2109 4616 
Q 2344 4616 2573 4562 
Q 2803 4509 2953 4428 
L 2822 3956 
Q 2669 4034 2501 4082 
Q 2334 4131 2109 4131 
Q 1622 4131 1323 3740 
Q 1025 3350 1025 2722 
L 1025 2650 
Q 1225 2825 1483 2923 
Q 1741 3022 2038 3022 
Q 2647 3022 3009 2600 
Q 3372 2178 3372 1531 
Q 3372 825 2986 379 
Q 2600 -66 1956 -66 
Q 1288 -66 850 418 
Q 413 903 413 1784 
L 413 2653 
Q 413 3528 900 4072 
Q 1388 4616 2109 4616 
z
M 1900 2563 
Q 1584 2563 1362 2434 
Q 1141 2306 1025 2094 
L 1025 1725 
Q 1025 1097 1290 756 
Q 1556 416 1956 416 
Q 2334 416 2545 736 
Q 2756 1056 2756 1531 
Q 2756 1981 2529 2272 
Q 2303 2563 1900 2563 
z
" transform="scale(0.015625)"/>
       </defs>
       <use xlink:href="#Roboto-Regular-36"/>
      </g>
     </g>
    </g>
    <g id="xtick_7">
     <g id="line2d_7">
      <g>
       <use xlink:href="#m9cbda80f85" x="258.309318" y="496.958551" style="stroke: #000000; stroke-width: 0.8"/>
      </g>
     </g>
     <g id="text_7">
      <!-- 7 -->
      <g transform="translate(254.087052 515.884332) scale(0.15 -0.15)">
       <defs>
        <path id="Roboto-Regular-37" d="M 3319 4066 
Q 2494 3084 2205 2326 
Q 1916 1569 1788 491 
L 1738 0 
L 1122 0 
L 1172 491 
Q 1303 1566 1681 2412 
Q 2059 3259 2716 4066 
L 241 4066 
L 241 4550 
L 3319 4550 
L 3319 4066 
z
" transform="scale(0.015625)"/>
       </defs>
       <use xlink:href="#Roboto-Regular-37"/>
      </g>
     </g>
    </g>
    <g id="xtick_8">
     <g id="line2d_8">
      <g>
       <use xlink:href="#m9cbda80f85" x="283.072614" y="496.958551" style="stroke: #000000; stroke-width: 0.8"/>
      </g>
     </g>
     <g id="text_8">
      <!-- 8 -->
      <g transform="translate(278.850348 515.884332) scale(0.15 -0.15)">
       <defs>
        <path id="Roboto-Regular-38" d="M 3156 3363 
Q 3156 3006 2956 2739 
Q 2756 2472 2416 2341 
Q 2809 2203 3045 1909 
Q 3281 1616 3281 1231 
Q 3281 600 2870 267 
Q 2459 -66 1803 -66 
Q 1134 -66 726 267 
Q 319 600 319 1231 
Q 319 1616 550 1909 
Q 781 2203 1175 2341 
Q 834 2472 640 2739 
Q 447 3006 447 3363 
Q 447 3963 817 4289 
Q 1188 4616 1797 4616 
Q 2397 4616 2776 4289 
Q 3156 3963 3156 3363 
z
M 2669 1244 
Q 2669 1619 2422 1859 
Q 2175 2100 1797 2100 
Q 1413 2100 1173 1859 
Q 934 1619 934 1244 
Q 934 856 1171 636 
Q 1409 416 1803 416 
Q 2188 416 2428 637 
Q 2669 859 2669 1244 
z
M 2541 3350 
Q 2541 3688 2330 3909 
Q 2119 4131 1797 4131 
Q 1469 4131 1266 3917 
Q 1063 3703 1063 3350 
Q 1063 3003 1267 2793 
Q 1472 2584 1803 2584 
Q 2128 2584 2334 2793 
Q 2541 3003 2541 3350 
z
" transform="scale(0.015625)"/>
       </defs>
       <use xlink:href="#Roboto-Regular-38"/>
      </g>
     </g>
    </g>
    <g id="xtick_9">
     <g id="line2d_9">
      <g>
       <use xlink:href="#m9cbda80f85" x="307.835909" y="496.958551" style="stroke: #000000; stroke-width: 0.8"/>
      </g>
     </g>
     <g id="text_9">
      <!-- 9 -->
      <g transform="translate(303.613643 515.884332) scale(0.15 -0.15)">
       <defs>
        <path id="Roboto-Regular-39" d="M 1597 416 
Q 2047 416 2317 756 
Q 2588 1097 2588 1769 
L 2588 1975 
Q 2434 1753 2204 1639 
Q 1975 1525 1694 1525 
Q 1034 1525 646 1933 
Q 259 2341 259 3056 
Q 259 3741 670 4178 
Q 1081 4616 1669 4616 
Q 2381 4616 2792 4170 
Q 3203 3725 3203 2859 
L 3203 1775 
Q 3203 884 2758 409 
Q 2313 -66 1597 -66 
Q 1356 -66 1107 -20 
Q 859 25 663 119 
L 756 591 
Q 941 494 1139 455 
Q 1338 416 1597 416 
z
M 1694 2006 
Q 2034 2006 2261 2153 
Q 2488 2300 2588 2528 
L 2588 2922 
Q 2588 3519 2358 3825 
Q 2128 4131 1688 4131 
Q 1350 4131 1112 3829 
Q 875 3528 875 3056 
Q 875 2588 1095 2297 
Q 1316 2006 1694 2006 
z
" transform="scale(0.015625)"/>
       </defs>
       <use xlink:href="#Roboto-Regular-39"/>
      </g>
     </g>
    </g>
    <g id="xtick_10">
     <g id="line2d_10">
      <g>
       <use xlink:href="#m9cbda80f85" x="332.599205" y="496.958551" style="stroke: #000000; stroke-width: 0.8"/>
      </g>
     </g>
     <g id="text_10">
      <!-- 10 -->
      <g transform="translate(324.151158 515.884332) scale(0.15 -0.15)">
       <defs>
        <path id="Roboto-Regular-30" d="M 3250 1734 
Q 3250 863 2864 398 
Q 2478 -66 1806 -66 
Q 1134 -66 743 400 
Q 353 866 353 1734 
L 353 2813 
Q 353 3681 742 4148 
Q 1131 4616 1800 4616 
Q 2472 4616 2861 4148 
Q 3250 3681 3250 2813 
L 3250 1734 
z
M 2634 2944 
Q 2634 3534 2420 3832 
Q 2206 4131 1800 4131 
Q 1394 4131 1181 3832 
Q 969 3534 969 2944 
L 969 1609 
Q 969 1019 1184 717 
Q 1400 416 1806 416 
Q 2213 416 2423 716 
Q 2634 1016 2634 1609 
L 2634 2944 
z
" transform="scale(0.015625)"/>
       </defs>
       <use xlink:href="#Roboto-Regular-31"/>
       <use xlink:href="#Roboto-Regular-30" transform="translate(56.298828 0)"/>
      </g>
     </g>
    </g>
    <g id="xtick_11">
     <g id="line2d_11">
      <g>
       <use xlink:href="#m9cbda80f85" x="357.3625" y="496.958551" style="stroke: #000000; stroke-width: 0.8"/>
      </g>
     </g>
     <g id="text_11">
      <!-- 11 -->
      <g transform="translate(348.917969 515.884332) scale(0.15 -0.15)">
       <use xlink:href="#Roboto-Regular-31"/>
       <use xlink:href="#Roboto-Regular-31" transform="translate(56.298828 0)"/>
      </g>
     </g>
    </g>
    <g id="xtick_12">
     <g id="line2d_12">
      <g>
       <use xlink:href="#m9cbda80f85" x="382.125796" y="496.958551" style="stroke: #000000; stroke-width: 0.8"/>
      </g>
     </g>
     <g id="text_12">
      <!-- 12 -->
      <g transform="translate(373.681264 515.884332) scale(0.15 -0.15)">
       <use xlink:href="#Roboto-Regular-31"/>
       <use xlink:href="#Roboto-Regular-32" transform="translate(56.298828 0)"/>
      </g>
     </g>
    </g>
    <g id="xtick_13">
     <g id="line2d_13">
      <g>
       <use xlink:href="#m9cbda80f85" x="406.889091" y="496.958551" style="stroke: #000000; stroke-width: 0.8"/>
      </g>
     </g>
     <g id="text_13">
      <!-- 13 -->
      <g transform="translate(398.44456 515.884332) scale(0.15 -0.15)">
       <use xlink:href="#Roboto-Regular-31"/>
       <use xlink:href="#Roboto-Regular-33" transform="translate(56.298828 0)"/>
      </g>
     </g>
    </g>
    <g id="xtick_14">
     <g id="line2d_14">
      <g>
       <use xlink:href="#m9cbda80f85" x="431.652387" y="496.958551" style="stroke: #000000; stroke-width: 0.8"/>
      </g>
     </g>
     <g id="text_14">
      <!-- 14 -->
      <g transform="translate(423.207855 515.884332) scale(0.15 -0.15)">
       <use xlink:href="#Roboto-Regular-31"/>
       <use xlink:href="#Roboto-Regular-34" transform="translate(56.298828 0)"/>
      </g>
     </g>
    </g>
    <g id="xtick_15">
     <g id="line2d_15">
      <g>
       <use xlink:href="#m9cbda80f85" x="456.415682" y="496.958551" style="stroke: #000000; stroke-width: 0.8"/>
      </g>
     </g>
     <g id="text_15">
      <!-- 15 -->
      <g transform="translate(447.971151 515.884332) scale(0.15 -0.15)">
       <use xlink:href="#Roboto-Regular-31"/>
       <use xlink:href="#Roboto-Regular-35" transform="translate(56.298828 0)"/>
      </g>
     </g>
    </g>
    <g id="xtick_16">
     <g id="line2d_16">
      <g>
       <use xlink:href="#m9cbda80f85" x="481.178978" y="496.958551" style="stroke: #000000; stroke-width: 0.8"/>
      </g>
     </g>
     <g id="text_16">
      <!-- 16 -->
      <g transform="translate(472.734446 515.884332) scale(0.15 -0.15)">
       <use xlink:href="#Roboto-Regular-31"/>
       <use xlink:href="#Roboto-Regular-36" transform="translate(56.298828 0)"/>
      </g>
     </g>
    </g>
    <g id="xtick_17">
     <g id="line2d_17">
      <g>
       <use xlink:href="#m9cbda80f85" x="505.942273" y="496.958551" style="stroke: #000000; stroke-width: 0.8"/>
      </g>
     </g>
     <g id="text_17">
      <!-- 17 -->
      <g transform="translate(497.497742 515.884332) scale(0.15 -0.15)">
       <use xlink:href="#Roboto-Regular-31"/>
       <use xlink:href="#Roboto-Regular-37" transform="translate(56.298828 0)"/>
      </g>
     </g>
    </g>
    <g id="xtick_18">
     <g id="line2d_18">
      <g>
       <use xlink:href="#m9cbda80f85" x="530.705569" y="496.958551" style="stroke: #000000; stroke-width: 0.8"/>
      </g>
     </g>
     <g id="text_18">
      <!-- 18 -->
      <g transform="translate(522.261037 515.884332) scale(0.15 -0.15)">
       <use xlink:href="#Roboto-Regular-31"/>
       <use xlink:href="#Roboto-Regular-38" transform="translate(56.298828 0)"/>
      </g>
     </g>
    </g>
    <g id="text_19">
     <!-- Cell -->
     <g style="fill: #202124" transform="translate(298.558338 542.735895) scale(0.26 -0.26)">
      <defs>
       <path id="Roboto-Regular-43" d="M 3778 1456 
L 3784 1438 
Q 3797 797 3334 365 
Q 2872 -66 2113 -66 
Q 1341 -66 855 481 
Q 369 1028 369 1869 
L 369 2678 
Q 369 3519 855 4067 
Q 1341 4616 2113 4616 
Q 2884 4616 3340 4205 
Q 3797 3794 3784 3116 
L 3778 3097 
L 3188 3097 
Q 3188 3575 2906 3853 
Q 2625 4131 2113 4131 
Q 1597 4131 1290 3715 
Q 984 3300 984 2684 
L 984 1869 
Q 984 1247 1290 831 
Q 1597 416 2113 416 
Q 2625 416 2906 692 
Q 3188 969 3188 1456 
L 3778 1456 
z
" transform="scale(0.015625)"/>
       <path id="Roboto-Regular-65" d="M 1850 -66 
Q 1144 -66 726 404 
Q 309 875 309 1625 
L 309 1763 
Q 309 2484 739 2964 
Q 1169 3444 1756 3444 
Q 2441 3444 2791 3031 
Q 3141 2619 3141 1931 
L 3141 1547 
L 947 1547 
L 938 1531 
Q 947 1044 1184 730 
Q 1422 416 1850 416 
Q 2163 416 2398 505 
Q 2634 594 2806 750 
L 3047 350 
Q 2866 172 2569 53 
Q 2272 -66 1850 -66 
z
M 1756 2959 
Q 1447 2959 1228 2698 
Q 1009 2438 959 2044 
L 966 2028 
L 2525 2028 
L 2525 2109 
Q 2525 2472 2331 2715 
Q 2138 2959 1756 2959 
z
" transform="scale(0.015625)"/>
       <path id="Roboto-Regular-6c" d="M 1113 0 
L 497 0 
L 497 4875 
L 1113 4875 
L 1113 0 
z
" transform="scale(0.015625)"/>
      </defs>
      <use xlink:href="#Roboto-Regular-43"/>
      <use xlink:href="#Roboto-Regular-65" transform="translate(63.330078 0)"/>
      <use xlink:href="#Roboto-Regular-6c" transform="translate(116.210938 0)"/>
      <use xlink:href="#Roboto-Regular-6c" transform="translate(141.40625 0)"/>
     </g>
    </g>
   </g>
   <g id="matplotlib.axis_2">
    <g id="ytick_1">
     <g id="line2d_19">
      <defs>
       <path id="m96dd56532b" d="M 0 0 
L -4 0 
" style="stroke: #000000; stroke-width: 0.8"/>
      </defs>
      <g>
       <use xlink:href="#m96dd56532b" x="79.146875" y="496.958551" style="stroke: #000000; stroke-width: 0.8"/>
      </g>
     </g>
     <g id="text_20">
      <!-- 0 -->
      <g transform="translate(60.378125 504.575739) scale(0.2 -0.2)">
       <use xlink:href="#Roboto-Regular-30"/>
      </g>
     </g>
    </g>
    <g id="ytick_2">
     <g id="line2d_20">
      <g>
       <use xlink:href="#m96dd56532b" x="79.146875" y="439.724296" style="stroke: #000000; stroke-width: 0.8"/>
      </g>
     </g>
     <g id="text_21">
      <!-- 20 -->
      <g transform="translate(49.11875 447.341484) scale(0.2 -0.2)">
       <use xlink:href="#Roboto-Regular-32"/>
       <use xlink:href="#Roboto-Regular-30" transform="translate(56.298828 0)"/>
      </g>
     </g>
    </g>
    <g id="ytick_3">
     <g id="line2d_21">
      <g>
       <use xlink:href="#m96dd56532b" x="79.146875" y="382.490041" style="stroke: #000000; stroke-width: 0.8"/>
      </g>
     </g>
     <g id="text_22">
      <!-- 40 -->
      <g transform="translate(49.11875 390.107229) scale(0.2 -0.2)">
       <use xlink:href="#Roboto-Regular-34"/>
       <use xlink:href="#Roboto-Regular-30" transform="translate(56.298828 0)"/>
      </g>
     </g>
    </g>
    <g id="ytick_4">
     <g id="line2d_22">
      <g>
       <use xlink:href="#m96dd56532b" x="79.146875" y="325.255786" style="stroke: #000000; stroke-width: 0.8"/>
      </g>
     </g>
     <g id="text_23">
      <!-- 60 -->
      <g transform="translate(49.11875 332.872974) scale(0.2 -0.2)">
       <use xlink:href="#Roboto-Regular-36"/>
       <use xlink:href="#Roboto-Regular-30" transform="translate(56.298828 0)"/>
      </g>
     </g>
    </g>
    <g id="ytick_5">
     <g id="line2d_23">
      <g>
       <use xlink:href="#m96dd56532b" x="79.146875" y="268.021531" style="stroke: #000000; stroke-width: 0.8"/>
      </g>
     </g>
     <g id="text_24">
      <!-- 80 -->
      <g transform="translate(49.11875 275.638719) scale(0.2 -0.2)">
       <use xlink:href="#Roboto-Regular-38"/>
       <use xlink:href="#Roboto-Regular-30" transform="translate(56.298828 0)"/>
      </g>
     </g>
    </g>
    <g id="ytick_6">
     <g id="line2d_24">
      <g>
       <use xlink:href="#m96dd56532b" x="79.146875" y="210.787276" style="stroke: #000000; stroke-width: 0.8"/>
      </g>
     </g>
     <g id="text_25">
      <!-- 100 -->
      <g transform="translate(37.85 218.404464) scale(0.2 -0.2)">
       <use xlink:href="#Roboto-Regular-31"/>
       <use xlink:href="#Roboto-Regular-30" transform="translate(56.298828 0)"/>
       <use xlink:href="#Roboto-Regular-30" transform="translate(112.646484 0)"/>
      </g>
     </g>
    </g>
    <g id="ytick_7">
     <g id="line2d_25">
      <g>
       <use xlink:href="#m96dd56532b" x="79.146875" y="153.553021" style="stroke: #000000; stroke-width: 0.8"/>
      </g>
     </g>
     <g id="text_26">
      <!-- 120 -->
      <g transform="translate(37.859375 161.170209) scale(0.2 -0.2)">
       <use xlink:href="#Roboto-Regular-31"/>
       <use xlink:href="#Roboto-Regular-32" transform="translate(56.298828 0)"/>
       <use xlink:href="#Roboto-Regular-30" transform="translate(112.597656 0)"/>
      </g>
     </g>
    </g>
    <g id="ytick_8">
     <g id="line2d_26">
      <g>
       <use xlink:href="#m96dd56532b" x="79.146875" y="96.318767" style="stroke: #000000; stroke-width: 0.8"/>
      </g>
     </g>
     <g id="text_27">
      <!-- 140 -->
      <g transform="translate(37.859375 103.935954) scale(0.2 -0.2)">
       <use xlink:href="#Roboto-Regular-31"/>
       <use xlink:href="#Roboto-Regular-34" transform="translate(56.298828 0)"/>
       <use xlink:href="#Roboto-Regular-30" transform="translate(112.597656 0)"/>
      </g>
     </g>
    </g>
    <g id="ytick_9">
     <g id="line2d_27">
      <g>
       <use xlink:href="#m96dd56532b" x="79.146875" y="39.084512" style="stroke: #000000; stroke-width: 0.8"/>
      </g>
     </g>
     <g id="text_28">
      <!-- 160 -->
      <g transform="translate(37.859375 46.701699) scale(0.2 -0.2)">
       <use xlink:href="#Roboto-Regular-31"/>
       <use xlink:href="#Roboto-Regular-36" transform="translate(56.298828 0)"/>
       <use xlink:href="#Roboto-Regular-30" transform="translate(112.597656 0)"/>
      </g>
     </g>
    </g>
    <g id="text_29">
     <!-- Viscosity (k cP) -->
     <g style="fill: #202124" transform="translate(27.971563 346.609588) rotate(-90) scale(0.26 -0.26)">
      <defs>
       <path id="Roboto-Regular-56" d="M 1913 1131 
L 2016 772 
L 2034 772 
L 2138 1131 
L 3313 4550 
L 3978 4550 
L 2288 0 
L 1759 0 
L 69 4550 
L 738 4550 
L 1913 1131 
z
" transform="scale(0.015625)"/>
       <path id="Roboto-Regular-69" d="M 1113 0 
L 497 0 
L 497 3381 
L 1113 3381 
L 1113 0 
z
M 1113 4247 
L 497 4247 
L 497 4875 
L 1113 4875 
L 1113 4247 
z
" transform="scale(0.015625)"/>
       <path id="Roboto-Regular-73" d="M 2413 897 
Q 2413 1100 2258 1231 
Q 2103 1363 1672 1459 
Q 1056 1594 745 1823 
Q 434 2053 434 2450 
Q 434 2863 784 3153 
Q 1134 3444 1697 3444 
Q 2288 3444 2636 3141 
Q 2984 2838 2969 2403 
L 2963 2384 
L 2375 2384 
Q 2375 2606 2189 2782 
Q 2003 2959 1697 2959 
Q 1369 2959 1209 2815 
Q 1050 2672 1050 2469 
Q 1050 2269 1190 2153 
Q 1331 2038 1763 1947 
Q 2403 1809 2715 1573 
Q 3028 1338 3028 941 
Q 3028 491 2664 212 
Q 2300 -66 1713 -66 
Q 1066 -66 694 262 
Q 322 591 341 1028 
L 347 1047 
L 934 1047 
Q 950 719 1178 567 
Q 1406 416 1713 416 
Q 2041 416 2227 548 
Q 2413 681 2413 897 
z
" transform="scale(0.015625)"/>
       <path id="Roboto-Regular-63" d="M 1822 416 
Q 2128 416 2361 605 
Q 2594 794 2594 1069 
L 3147 1069 
L 3153 1050 
Q 3169 613 2764 273 
Q 2359 -66 1822 -66 
Q 1084 -66 693 415 
Q 303 897 303 1625 
L 303 1756 
Q 303 2478 695 2961 
Q 1088 3444 1822 3444 
Q 2416 3444 2792 3094 
Q 3169 2744 3156 2234 
L 3150 2216 
L 2594 2216 
Q 2594 2525 2375 2742 
Q 2156 2959 1822 2959 
Q 1338 2959 1130 2611 
Q 922 2263 922 1756 
L 922 1625 
Q 922 1106 1128 761 
Q 1334 416 1822 416 
z
" transform="scale(0.015625)"/>
       <path id="Roboto-Regular-6f" d="M 303 1722 
Q 303 2472 709 2958 
Q 1116 3444 1813 3444 
Q 2516 3444 2923 2959 
Q 3331 2475 3331 1722 
L 3331 1653 
Q 3331 897 2925 415 
Q 2519 -66 1819 -66 
Q 1119 -66 711 417 
Q 303 900 303 1653 
L 303 1722 
z
M 919 1653 
Q 919 1116 1145 766 
Q 1372 416 1819 416 
Q 2259 416 2487 766 
Q 2716 1116 2716 1653 
L 2716 1722 
Q 2716 2253 2486 2606 
Q 2256 2959 1813 2959 
Q 1372 2959 1145 2606 
Q 919 2253 919 1722 
L 919 1653 
z
" transform="scale(0.015625)"/>
       <path id="Roboto-Regular-74" d="M 1259 4197 
L 1259 3381 
L 1900 3381 
L 1900 2925 
L 1259 2925 
L 1259 872 
Q 1259 634 1357 537 
Q 1456 441 1619 441 
Q 1672 441 1736 453 
Q 1800 466 1850 484 
L 1931 63 
Q 1863 6 1730 -30 
Q 1597 -66 1463 -66 
Q 1088 -66 866 161 
Q 644 388 644 872 
L 644 2925 
L 106 2925 
L 106 3381 
L 644 3381 
L 644 4197 
L 1259 4197 
z
" transform="scale(0.015625)"/>
       <path id="Roboto-Regular-79" d="M 1481 1253 
L 1591 828 
L 1609 828 
L 2441 3381 
L 3125 3381 
L 1703 -519 
Q 1575 -859 1336 -1112 
Q 1097 -1366 691 -1366 
Q 616 -1366 500 -1348 
Q 384 -1331 322 -1316 
L 384 -831 
Q 366 -828 495 -837 
Q 625 -847 659 -847 
Q 856 -847 981 -672 
Q 1106 -497 1191 -284 
L 1338 69 
L 81 3381 
L 769 3381 
L 1481 1253 
z
" transform="scale(0.015625)"/>
       <path id="Roboto-Regular-20" transform="scale(0.015625)"/>
       <path id="Roboto-Regular-28" d="M 413 1847 
Q 413 3078 909 3950 
Q 1406 4822 1953 5113 
L 1972 5109 
L 2091 4747 
Q 1663 4413 1345 3675 
Q 1028 2938 1028 1853 
L 1028 1813 
Q 1028 728 1343 -9 
Q 1659 -747 2091 -1109 
L 1972 -1447 
L 1953 -1447 
Q 1406 -1156 909 -286 
Q 413 584 413 1819 
L 413 1847 
z
" transform="scale(0.015625)"/>
       <path id="Roboto-Regular-6b" d="M 1466 1559 
L 1066 1559 
L 1066 0 
L 450 0 
L 450 4875 
L 1066 4875 
L 1066 2050 
L 1459 2050 
L 2384 3381 
L 3122 3381 
L 1966 1844 
L 3288 0 
L 2563 0 
L 1466 1559 
z
" transform="scale(0.015625)"/>
       <path id="Roboto-Regular-50" d="M 1178 1825 
L 1178 0 
L 563 0 
L 563 4550 
L 2303 4550 
Q 3031 4550 3434 4175 
Q 3838 3800 3838 3188 
Q 3838 2566 3434 2195 
Q 3031 1825 2303 1825 
L 1178 1825 
z
M 1178 2306 
L 2303 2306 
Q 2766 2306 2994 2554 
Q 3222 2803 3222 3181 
Q 3222 3559 2992 3812 
Q 2763 4066 2303 4066 
L 1178 4066 
L 1178 2306 
z
" transform="scale(0.015625)"/>
       <path id="Roboto-Regular-29" d="M 1697 1819 
Q 1697 584 1198 -286 
Q 700 -1156 156 -1447 
L 138 -1447 
L 19 -1109 
Q 441 -781 761 -29 
Q 1081 722 1081 1813 
L 1081 1853 
Q 1081 2922 751 3676 
Q 422 4431 19 4775 
L 138 5113 
L 156 5113 
Q 700 4822 1198 3950 
Q 1697 3078 1697 1847 
L 1697 1819 
z
" transform="scale(0.015625)"/>
      </defs>
      <use xlink:href="#Roboto-Regular-56"/>
      <use xlink:href="#Roboto-Regular-69" transform="translate(63.232422 0)"/>
      <use xlink:href="#Roboto-Regular-73" transform="translate(88.427734 0)"/>
      <use xlink:href="#Roboto-Regular-63" transform="translate(140.722656 0)"/>
      <use xlink:href="#Roboto-Regular-6f" transform="translate(193.798828 0)"/>
      <use xlink:href="#Roboto-Regular-73" transform="translate(250.634766 0)"/>
      <use xlink:href="#Roboto-Regular-69" transform="translate(302.929688 0)"/>
      <use xlink:href="#Roboto-Regular-74" transform="translate(328.125 0)"/>
      <use xlink:href="#Roboto-Regular-79" transform="translate(362.695312 0)"/>
      <use xlink:href="#Roboto-Regular-20" transform="translate(412.988281 0)"/>
      <use xlink:href="#Roboto-Regular-28" transform="translate(437.841797 0)"/>
      <use xlink:href="#Roboto-Regular-6b" transform="translate(470.996094 0)"/>
      <use xlink:href="#Roboto-Regular-20" transform="translate(522.265625 0)"/>
      <use xlink:href="#Roboto-Regular-63" transform="translate(547.119141 0)"/>
      <use xlink:href="#Roboto-Regular-50" transform="translate(600.195312 0)"/>
      <use xlink:href="#Roboto-Regular-29" transform="translate(664.257812 0)"/>
     </g>
    </g>
   </g>
   <g id="patch_3">
    <path d="M 101.062392 496.958551 
L 109.729545 496.958551 
L 109.729545 494.096838 
L 101.062392 494.096838 
z
" clip-path="url(#p1ef807a6fc)" style="fill: #4285f4; opacity: 0.75; stroke: #000000; stroke-width: 0.8; stroke-linejoin: miter"/>
   </g>
   <g id="patch_4">
    <path d="M 109.729545 496.958551 
L 118.396698 496.958551 
L 118.396698 492.738106 
L 109.729545 492.738106 
z
" clip-path="url(#p1ef807a6fc)" style="fill: #ffa500; opacity: 0.75; stroke: #000000; stroke-width: 0.8; stroke-linejoin: miter"/>
   </g>
   <g id="patch_5">
    <path d="M 125.825687 496.958551 
L 134.49284 496.958551 
L 134.49284 493.656135 
L 125.825687 493.656135 
z
" clip-path="url(#p1ef807a6fc)" style="fill: #4285f4; opacity: 0.75; stroke: #000000; stroke-width: 0.8; stroke-linejoin: miter"/>
   </g>
   <g id="patch_6">
    <path d="M 134.49284 496.958551 
L 143.159994 496.958551 
L 143.159994 492.4298 
L 134.49284 492.4298 
z
" clip-path="url(#p1ef807a6fc)" style="fill: #ffa500; opacity: 0.75; stroke: #000000; stroke-width: 0.8; stroke-linejoin: miter"/>
   </g>
   <g id="patch_7">
    <path d="M 150.588983 496.958551 
L 159.256136 496.958551 
L 159.256136 487.380399 
L 150.588983 487.380399 
z
" clip-path="url(#p1ef807a6fc)" style="fill: #4285f4; opacity: 0.75; stroke: #000000; stroke-width: 0.8; stroke-linejoin: miter"/>
   </g>
   <g id="patch_8">
    <path d="M 159.256136 496.958551 
L 167.923289 496.958551 
L 167.923289 485.92496 
L 159.256136 485.92496 
z
" clip-path="url(#p1ef807a6fc)" style="fill: #ffa500; opacity: 0.75; stroke: #000000; stroke-width: 0.8; stroke-linejoin: miter"/>
   </g>
   <g id="patch_9">
    <path d="M 175.352278 496.958551 
L 184.019431 496.958551 
L 184.019431 478.039768 
L 175.352278 478.039768 
z
" clip-path="url(#p1ef807a6fc)" style="fill: #4285f4; opacity: 0.75; stroke: #000000; stroke-width: 0.8; stroke-linejoin: miter"/>
   </g>
   <g id="patch_10">
    <path d="M 184.019431 496.958551 
L 192.686585 496.958551 
L 192.686585 475.749491 
L 184.019431 475.749491 
z
" clip-path="url(#p1ef807a6fc)" style="fill: #ffa500; opacity: 0.75; stroke: #000000; stroke-width: 0.8; stroke-linejoin: miter"/>
   </g>
   <g id="patch_11">
    <path d="M 200.115574 496.958551 
L 208.782727 496.958551 
L 208.782727 480.174606 
L 200.115574 480.174606 
z
" clip-path="url(#p1ef807a6fc)" style="fill: #4285f4; opacity: 0.75; stroke: #000000; stroke-width: 0.8; stroke-linejoin: miter"/>
   </g>
   <g id="patch_12">
    <path d="M 208.782727 496.958551 
L 217.44988 496.958551 
L 217.44988 480.082545 
L 208.782727 480.082545 
z
" clip-path="url(#p1ef807a6fc)" style="fill: #ffa500; opacity: 0.75; stroke: #000000; stroke-width: 0.8; stroke-linejoin: miter"/>
   </g>
   <g id="patch_13">
    <path d="M 224.878869 496.958551 
L 233.546023 496.958551 
L 233.546023 471.403456 
L 224.878869 471.403456 
z
" clip-path="url(#p1ef807a6fc)" style="fill: #4285f4; opacity: 0.75; stroke: #000000; stroke-width: 0.8; stroke-linejoin: miter"/>
   </g>
   <g id="patch_14">
    <path d="M 233.546023 496.958551 
L 242.213176 496.958551 
L 242.213176 468.527175 
L 233.546023 468.527175 
z
" clip-path="url(#p1ef807a6fc)" style="fill: #ffa500; opacity: 0.75; stroke: #000000; stroke-width: 0.8; stroke-linejoin: miter"/>
   </g>
   <g id="patch_15">
    <path d="M 249.642165 496.958551 
L 258.309318 496.958551 
L 258.309318 463.018638 
L 249.642165 463.018638 
z
" clip-path="url(#p1ef807a6fc)" style="fill: #4285f4; opacity: 0.75; stroke: #000000; stroke-width: 0.8; stroke-linejoin: miter"/>
   </g>
   <g id="patch_16">
    <path d="M 258.309318 496.958551 
L 266.976471 496.958551 
L 266.976471 459.132385 
L 258.309318 459.132385 
z
" clip-path="url(#p1ef807a6fc)" style="fill: #ffa500; opacity: 0.75; stroke: #000000; stroke-width: 0.8; stroke-linejoin: miter"/>
   </g>
   <g id="patch_17">
    <path d="M 274.40546 496.958551 
L 283.072614 496.958551 
L 283.072614 455.206162 
L 274.40546 455.206162 
z
" clip-path="url(#p1ef807a6fc)" style="fill: #4285f4; opacity: 0.75; stroke: #000000; stroke-width: 0.8; stroke-linejoin: miter"/>
   </g>
   <g id="patch_18">
    <path d="M 283.072614 496.958551 
L 291.739767 496.958551 
L 291.739767 446.519565 
L 283.072614 446.519565 
z
" clip-path="url(#p1ef807a6fc)" style="fill: #ffa500; opacity: 0.75; stroke: #000000; stroke-width: 0.8; stroke-linejoin: miter"/>
   </g>
   <g id="patch_19">
    <path d="M 299.168756 496.958551 
L 307.835909 496.958551 
L 307.835909 442.586009 
L 299.168756 442.586009 
z
" clip-path="url(#p1ef807a6fc)" style="fill: #4285f4; opacity: 0.75; stroke: #000000; stroke-width: 0.8; stroke-linejoin: miter"/>
   </g>
   <g id="patch_20">
    <path d="M 307.835909 496.958551 
L 316.503062 496.958551 
L 316.503062 446.106958 
L 307.835909 446.106958 
z
" clip-path="url(#p1ef807a6fc)" style="fill: #ffa500; opacity: 0.75; stroke: #000000; stroke-width: 0.8; stroke-linejoin: miter"/>
   </g>
   <g id="patch_21">
    <path d="M 323.932051 496.958551 
L 332.599205 496.958551 
L 332.599205 431.91182 
L 323.932051 431.91182 
z
" clip-path="url(#p1ef807a6fc)" style="fill: #4285f4; opacity: 0.75; stroke: #000000; stroke-width: 0.8; stroke-linejoin: miter"/>
   </g>
   <g id="patch_22">
    <path d="M 332.599205 496.958551 
L 341.266358 496.958551 
L 341.266358 431.967404 
L 332.599205 431.967404 
z
" clip-path="url(#p1ef807a6fc)" style="fill: #ffa500; opacity: 0.75; stroke: #000000; stroke-width: 0.8; stroke-linejoin: miter"/>
   </g>
   <g id="patch_23">
    <path d="M 348.695347 496.958551 
L 357.3625 496.958551 
L 357.3625 405.755766 
L 348.695347 405.755766 
z
" clip-path="url(#p1ef807a6fc)" style="fill: #4285f4; opacity: 0.75; stroke: #000000; stroke-width: 0.8; stroke-linejoin: miter"/>
   </g>
   <g id="patch_24">
    <path d="M 357.3625 496.958551 
L 366.029654 496.958551 
L 366.029654 413.134668 
L 357.3625 413.134668 
z
" clip-path="url(#p1ef807a6fc)" style="fill: #ffa500; opacity: 0.75; stroke: #000000; stroke-width: 0.8; stroke-linejoin: miter"/>
   </g>
   <g id="patch_25">
    <path d="M 373.458642 496.958551 
L 382.125796 496.958551 
L 382.125796 380.057585 
L 373.458642 380.057585 
z
" clip-path="url(#p1ef807a6fc)" style="fill: #4285f4; opacity: 0.75; stroke: #000000; stroke-width: 0.8; stroke-linejoin: miter"/>
   </g>
   <g id="patch_26">
    <path d="M 382.125796 496.958551 
L 390.792949 496.958551 
L 390.792949 378.187323 
L 382.125796 378.187323 
z
" clip-path="url(#p1ef807a6fc)" style="fill: #ffa500; opacity: 0.75; stroke: #000000; stroke-width: 0.8; stroke-linejoin: miter"/>
   </g>
   <g id="patch_27">
    <path d="M 398.221938 496.958551 
L 406.889091 496.958551 
L 406.889091 358.108249 
L 398.221938 358.108249 
z
" clip-path="url(#p1ef807a6fc)" style="fill: #4285f4; opacity: 0.75; stroke: #000000; stroke-width: 0.8; stroke-linejoin: miter"/>
   </g>
   <g id="patch_28">
    <path d="M 406.889091 496.958551 
L 415.556245 496.958551 
L 415.556245 351.781353 
L 406.889091 351.781353 
z
" clip-path="url(#p1ef807a6fc)" style="fill: #ffa500; opacity: 0.75; stroke: #000000; stroke-width: 0.8; stroke-linejoin: miter"/>
   </g>
   <g id="patch_29">
    <path d="M 422.985233 496.958551 
L 431.652387 496.958551 
L 431.652387 391.017945 
L 422.985233 391.017945 
z
" clip-path="url(#p1ef807a6fc)" style="fill: #4285f4; opacity: 0.75; stroke: #000000; stroke-width: 0.8; stroke-linejoin: miter"/>
   </g>
   <g id="patch_30">
    <path d="M 431.652387 496.958551 
L 440.31954 496.958551 
L 440.31954 378.918504 
L 431.652387 378.918504 
z
" clip-path="url(#p1ef807a6fc)" style="fill: #ffa500; opacity: 0.75; stroke: #000000; stroke-width: 0.8; stroke-linejoin: miter"/>
   </g>
   <g id="patch_31">
    <path d="M 447.748529 496.958551 
L 456.415682 496.958551 
L 456.415682 299.271435 
L 447.748529 299.271435 
z
" clip-path="url(#p1ef807a6fc)" style="fill: #4285f4; opacity: 0.75; stroke: #000000; stroke-width: 0.8; stroke-linejoin: miter"/>
   </g>
   <g id="patch_32">
    <path d="M 456.415682 496.958551 
L 465.082836 496.958551 
L 465.082836 288.326549 
L 456.415682 288.326549 
z
" clip-path="url(#p1ef807a6fc)" style="fill: #ffa500; opacity: 0.75; stroke: #000000; stroke-width: 0.8; stroke-linejoin: miter"/>
   </g>
   <g id="patch_33">
    <path d="M 472.511824 496.958551 
L 481.178978 496.958551 
L 481.178978 294.549609 
L 472.511824 294.549609 
z
" clip-path="url(#p1ef807a6fc)" style="fill: #4285f4; opacity: 0.75; stroke: #000000; stroke-width: 0.8; stroke-linejoin: miter"/>
   </g>
   <g id="patch_34">
    <path d="M 481.178978 496.958551 
L 489.846131 496.958551 
L 489.846131 297.239644 
L 481.178978 297.239644 
z
" clip-path="url(#p1ef807a6fc)" style="fill: #ffa500; opacity: 0.75; stroke: #000000; stroke-width: 0.8; stroke-linejoin: miter"/>
   </g>
   <g id="patch_35">
    <path d="M 497.27512 496.958551 
L 505.942273 496.958551 
L 505.942273 230.046603 
L 497.27512 230.046603 
z
" clip-path="url(#p1ef807a6fc)" style="fill: #4285f4; opacity: 0.75; stroke: #000000; stroke-width: 0.8; stroke-linejoin: miter"/>
   </g>
   <g id="patch_36">
    <path d="M 505.942273 496.958551 
L 514.609427 496.958551 
L 514.609427 212.320486 
L 505.942273 212.320486 
z
" clip-path="url(#p1ef807a6fc)" style="fill: #ffa500; opacity: 0.75; stroke: #000000; stroke-width: 0.8; stroke-linejoin: miter"/>
   </g>
   <g id="patch_37">
    <path d="M 522.038415 496.958551 
L 530.705569 496.958551 
L 530.705569 139.8168 
L 522.038415 139.8168 
z
" clip-path="url(#p1ef807a6fc)" style="fill: #4285f4; opacity: 0.75; stroke: #000000; stroke-width: 0.8; stroke-linejoin: miter"/>
   </g>
   <g id="patch_38">
    <path d="M 530.705569 496.958551 
L 539.372722 496.958551 
L 539.372722 186.91278 
L 530.705569 186.91278 
z
" clip-path="url(#p1ef807a6fc)" style="fill: #ffa500; opacity: 0.75; stroke: #000000; stroke-width: 0.8; stroke-linejoin: miter"/>
   </g>
   <g id="patch_39">
    <path d="M 79.146875 496.958551 
L 79.146875 14.817187 
" style="fill: none; stroke: #000000; stroke-width: 1.5; stroke-linejoin: miter; stroke-linecap: square"/>
   </g>
   <g id="patch_40">
    <path d="M 561.288239 496.958551 
L 561.288239 14.817187 
" style="fill: none; stroke: #000000; stroke-width: 1.5; stroke-linejoin: miter; stroke-linecap: square"/>
   </g>
   <g id="patch_41">
    <path d="M 79.146875 496.958551 
L 561.288239 496.958551 
" style="fill: none; stroke: #000000; stroke-width: 1.5; stroke-linejoin: miter; stroke-linecap: square"/>
   </g>
   <g id="patch_42">
    <path d="M 79.146875 14.817187 
L 561.288239 14.817187 
" style="fill: none; stroke: #000000; stroke-width: 1.5; stroke-linejoin: miter; stroke-linecap: square"/>
   </g>
   <g id="legend_1">
    <g id="patch_43">
     <path d="M 101.146875 52.051562 
L 141.146875 52.051562 
L 141.146875 38.051562 
L 101.146875 38.051562 
z
" style="fill: #4285f4; opacity: 0.75"/>
    </g>
    <g id="text_30">
     <!-- Real Viscosity -->
     <g transform="translate(157.146875 52.051562) scale(0.2 -0.2)">
      <defs>
       <path id="Roboto-Regular-52" d="M 1178 1972 
L 1178 0 
L 563 0 
L 563 4547 
L 2209 4547 
Q 2956 4547 3350 4215 
Q 3744 3884 3744 3253 
Q 3744 2903 3561 2643 
Q 3378 2384 3028 2231 
Q 3403 2109 3567 1836 
Q 3731 1563 3731 1159 
L 3731 731 
Q 3731 519 3778 350 
Q 3825 181 3941 75 
L 3941 0 
L 3306 0 
Q 3184 106 3150 312 
Q 3116 519 3116 738 
L 3116 1153 
Q 3116 1522 2900 1747 
Q 2684 1972 2322 1972 
L 1178 1972 
z
M 1178 2456 
L 2147 2456 
Q 2669 2456 2898 2654 
Q 3128 2853 3128 3259 
Q 3128 3644 2904 3855 
Q 2681 4066 2209 4066 
L 1178 4066 
L 1178 2456 
z
" transform="scale(0.015625)"/>
       <path id="Roboto-Regular-61" d="M 2525 0 
Q 2494 153 2476 270 
Q 2459 388 2456 506 
Q 2284 263 2007 98 
Q 1731 -66 1413 -66 
Q 884 -66 607 204 
Q 331 475 331 950 
Q 331 1434 723 1707 
Q 1116 1981 1788 1981 
L 2456 1981 
L 2456 2316 
Q 2456 2613 2275 2786 
Q 2094 2959 1763 2959 
Q 1466 2959 1280 2807 
Q 1094 2656 1094 2444 
L 506 2444 
L 500 2463 
Q 481 2831 848 3137 
Q 1216 3444 1797 3444 
Q 2372 3444 2722 3151 
Q 3072 2859 3072 2309 
L 3072 681 
Q 3072 500 3090 331 
Q 3109 163 3159 0 
L 2525 0 
z
M 1503 450 
Q 1838 450 2106 622 
Q 2375 794 2456 1016 
L 2456 1566 
L 1766 1566 
Q 1394 1566 1170 1378 
Q 947 1191 947 938 
Q 947 713 1087 581 
Q 1228 450 1503 450 
z
" transform="scale(0.015625)"/>
      </defs>
      <use xlink:href="#Roboto-Regular-52"/>
      <use xlink:href="#Roboto-Regular-65" transform="translate(66.259766 0)"/>
      <use xlink:href="#Roboto-Regular-61" transform="translate(119.140625 0)"/>
      <use xlink:href="#Roboto-Regular-6c" transform="translate(174.121094 0)"/>
      <use xlink:href="#Roboto-Regular-20" transform="translate(199.316406 0)"/>
      <use xlink:href="#Roboto-Regular-56" transform="translate(224.169922 0)"/>
      <use xlink:href="#Roboto-Regular-69" transform="translate(287.402344 0)"/>
      <use xlink:href="#Roboto-Regular-73" transform="translate(312.597656 0)"/>
      <use xlink:href="#Roboto-Regular-63" transform="translate(364.892578 0)"/>
      <use xlink:href="#Roboto-Regular-6f" transform="translate(417.96875 0)"/>
      <use xlink:href="#Roboto-Regular-73" transform="translate(474.804688 0)"/>
      <use xlink:href="#Roboto-Regular-69" transform="translate(527.099609 0)"/>
      <use xlink:href="#Roboto-Regular-74" transform="translate(552.294922 0)"/>
      <use xlink:href="#Roboto-Regular-79" transform="translate(586.865234 0)"/>
     </g>
    </g>
    <g id="patch_44">
     <path d="M 101.146875 81.554687 
L 141.146875 81.554687 
L 141.146875 67.554687 
L 101.146875 67.554687 
z
" style="fill: #ffa500; opacity: 0.85"/>
    </g>
    <g id="text_31">
     <!-- Predicted Viscosity -->
     <g transform="translate(157.146875 81.554687) scale(0.2 -0.2)">
      <defs>
       <path id="Roboto-Regular-72" d="M 2047 2838 
L 1731 2856 
Q 1488 2856 1320 2740 
Q 1153 2625 1063 2416 
L 1063 0 
L 447 0 
L 447 3381 
L 997 3381 
L 1056 2888 
Q 1200 3150 1411 3297 
Q 1622 3444 1897 3444 
Q 1966 3444 2028 3433 
Q 2091 3422 2131 3409 
L 2047 2838 
z
" transform="scale(0.015625)"/>
       <path id="Roboto-Regular-64" d="M 306 1628 
Q 306 2444 654 2944 
Q 1003 3444 1631 3444 
Q 1928 3444 2158 3334 
Q 2388 3225 2550 3016 
L 2550 4875 
L 3166 4875 
L 3166 0 
L 2663 0 
L 2591 416 
Q 2425 178 2184 56 
Q 1944 -66 1625 -66 
Q 1006 -66 656 382 
Q 306 831 306 1563 
L 306 1628 
z
M 922 1563 
Q 922 1050 1131 742 
Q 1341 434 1781 434 
Q 2056 434 2243 559 
Q 2431 684 2550 909 
L 2550 2488 
Q 2431 2697 2242 2820 
Q 2053 2944 1788 2944 
Q 1344 2944 1133 2578 
Q 922 2213 922 1628 
L 922 1563 
z
" transform="scale(0.015625)"/>
      </defs>
      <use xlink:href="#Roboto-Regular-50"/>
      <use xlink:href="#Roboto-Regular-72" transform="translate(64.0625 0)"/>
      <use xlink:href="#Roboto-Regular-65" transform="translate(98.339844 0)"/>
      <use xlink:href="#Roboto-Regular-64" transform="translate(151.220703 0)"/>
      <use xlink:href="#Roboto-Regular-69" transform="translate(208.056641 0)"/>
      <use xlink:href="#Roboto-Regular-63" transform="translate(233.251953 0)"/>
      <use xlink:href="#Roboto-Regular-74" transform="translate(286.328125 0)"/>
      <use xlink:href="#Roboto-Regular-65" transform="translate(320.898438 0)"/>
      <use xlink:href="#Roboto-Regular-64" transform="translate(373.779297 0)"/>
      <use xlink:href="#Roboto-Regular-20" transform="translate(430.615234 0)"/>
      <use xlink:href="#Roboto-Regular-56" transform="translate(455.46875 0)"/>
      <use xlink:href="#Roboto-Regular-69" transform="translate(518.701172 0)"/>
      <use xlink:href="#Roboto-Regular-73" transform="translate(543.896484 0)"/>
      <use xlink:href="#Roboto-Regular-63" transform="translate(596.191406 0)"/>
      <use xlink:href="#Roboto-Regular-6f" transform="translate(649.267578 0)"/>
      <use xlink:href="#Roboto-Regular-73" transform="translate(706.103516 0)"/>
      <use xlink:href="#Roboto-Regular-69" transform="translate(758.398438 0)"/>
      <use xlink:href="#Roboto-Regular-74" transform="translate(783.59375 0)"/>
      <use xlink:href="#Roboto-Regular-79" transform="translate(818.164062 0)"/>
     </g>
    </g>
    <g id="line2d_28">
     <path d="M 101.146875 104.057812 
L 121.146875 104.057812 
L 141.146875 104.057812 
" style="fill: none; stroke: #ffffff; stroke-width: 2; stroke-linecap: square"/>
     <defs>
      <path id="m154ad205ad" d="M 0 10 
C 2.652031 10 5.195799 8.946337 7.071068 7.071068 
C 8.946337 5.195799 10 2.652031 10 0 
C 10 -2.652031 8.946337 -5.195799 7.071068 -7.071068 
C 5.195799 -8.946337 2.652031 -10 0 -10 
C -2.652031 -10 -5.195799 -8.946337 -7.071068 -7.071068 
C -8.946337 -5.195799 -10 -2.652031 -10 0 
C -10 2.652031 -8.946337 5.195799 -7.071068 7.071068 
C -5.195799 8.946337 -2.652031 10 0 10 
z
"/>
     </defs>
     <g>
      <use xlink:href="#m154ad205ad" x="121.146875" y="104.057812" style="fill: #34a853"/>
     </g>
    </g>
    <g id="text_32">
     <!-- Error ≤ 10% -->
     <g transform="translate(157.146875 111.057812) scale(0.2 -0.2)">
      <defs>
       <path id="Roboto-Regular-45" d="M 3263 2109 
L 1178 2109 
L 1178 481 
L 3581 481 
L 3581 0 
L 563 0 
L 563 4550 
L 3547 4550 
L 3547 4066 
L 1178 4066 
L 1178 2594 
L 3263 2594 
L 3263 2109 
z
" transform="scale(0.015625)"/>
       <path id="Roboto-Regular-2264" d="M 3122 22 
L 513 22 
L 513 506 
L 3122 506 
L 3122 22 
z
M 1297 2160 
L 1031 2110 
L 1031 2093 
L 1297 2040 
L 3044 1398 
L 3044 833 
L 494 1898 
L 494 2318 
L 3044 3381 
L 3044 2816 
L 1297 2160 
z
" transform="scale(0.015625)"/>
       <path id="Roboto-Regular-25" d="M 325 3675 
Q 325 4072 581 4344 
Q 838 4616 1266 4616 
Q 1694 4616 1950 4345 
Q 2206 4075 2206 3675 
L 2206 3434 
Q 2206 3038 1951 2769 
Q 1697 2500 1272 2500 
Q 841 2500 583 2769 
Q 325 3038 325 3434 
L 325 3675 
z
M 781 3434 
Q 781 3203 907 3042 
Q 1034 2881 1272 2881 
Q 1500 2881 1625 3040 
Q 1750 3200 1750 3434 
L 1750 3675 
Q 1750 3906 1623 4070 
Q 1497 4234 1266 4234 
Q 1031 4234 906 4070 
Q 781 3906 781 3675 
L 781 3434 
z
M 2528 1116 
Q 2528 1513 2784 1783 
Q 3041 2053 3469 2053 
Q 3894 2053 4151 1783 
Q 4409 1513 4409 1116 
L 4409 872 
Q 4409 472 4153 203 
Q 3897 -66 3475 -66 
Q 3044 -66 2786 203 
Q 2528 472 2528 872 
L 2528 1116 
z
M 2984 872 
Q 2984 638 3111 477 
Q 3238 316 3475 316 
Q 3703 316 3828 477 
Q 3953 638 3953 872 
L 3953 1116 
Q 3953 1347 3825 1509 
Q 3697 1672 3469 1672 
Q 3238 1672 3111 1509 
Q 2984 1347 2984 1116 
L 2984 872 
z
M 1431 344 
L 1091 553 
L 3313 4109 
L 3653 3900 
L 1431 344 
z
" transform="scale(0.015625)"/>
      </defs>
      <use xlink:href="#Roboto-Regular-45"/>
      <use xlink:href="#Roboto-Regular-72" transform="translate(58.447266 0)"/>
      <use xlink:href="#Roboto-Regular-72" transform="translate(92.724609 0)"/>
      <use xlink:href="#Roboto-Regular-6f" transform="translate(127.001953 0)"/>
      <use xlink:href="#Roboto-Regular-72" transform="translate(183.837891 0)"/>
      <use xlink:href="#Roboto-Regular-20" transform="translate(218.115234 0)"/>
      <use xlink:href="#Roboto-Regular-2264" transform="translate(242.96875 0)"/>
      <use xlink:href="#Roboto-Regular-20" transform="translate(295.703125 0)"/>
      <use xlink:href="#Roboto-Regular-31" transform="translate(320.556641 0)"/>
      <use xlink:href="#Roboto-Regular-30" transform="translate(376.855469 0)"/>
      <use xlink:href="#Roboto-Regular-25" transform="translate(433.203125 0)"/>
     </g>
    </g>
    <g id="line2d_29">
     <path d="M 101.146875 133.354687 
L 121.146875 133.354687 
L 141.146875 133.354687 
" style="fill: none; stroke: #ffffff; stroke-width: 2; stroke-linecap: square"/>
     <defs>
      <path id="mb5807a5007" d="M 0 10 
C 2.652031 10 5.195799 8.946337 7.071068 7.071068 
C 8.946337 5.195799 10 2.652031 10 0 
C 10 -2.652031 8.946337 -5.195799 7.071068 -7.071068 
C 5.195799 -8.946337 2.652031 -10 0 -10 
C -2.652031 -10 -5.195799 -8.946337 -7.071068 -7.071068 
C -8.946337 -5.195799 -10 -2.652031 -10 0 
C -10 2.652031 -8.946337 5.195799 -7.071068 7.071068 
C -5.195799 8.946337 -2.652031 10 0 10 
z
"/>
     </defs>
     <g>
      <use xlink:href="#mb5807a5007" x="121.146875" y="133.354687" style="fill: #9e9e9e"/>
     </g>
    </g>
    <g id="text_33">
     <!-- 10% &lt; Error ≤ 15% -->
     <g transform="translate(157.146875 140.354687) scale(0.2 -0.2)">
      <defs>
       <path id="Roboto-Regular-3c" d="M 1025 1747 
L 759 1691 
L 759 1672 
L 1025 1613 
L 2772 900 
L 2772 272 
L 222 1456 
L 222 1922 
L 2772 3103 
L 2772 2475 
L 1025 1747 
z
" transform="scale(0.015625)"/>
      </defs>
      <use xlink:href="#Roboto-Regular-31"/>
      <use xlink:href="#Roboto-Regular-30" transform="translate(56.298828 0)"/>
      <use xlink:href="#Roboto-Regular-25" transform="translate(112.646484 0)"/>
      <use xlink:href="#Roboto-Regular-20" transform="translate(185.791016 0)"/>
      <use xlink:href="#Roboto-Regular-3c" transform="translate(210.644531 0)"/>
      <use xlink:href="#Roboto-Regular-20" transform="translate(261.425781 0)"/>
      <use xlink:href="#Roboto-Regular-45" transform="translate(286.279297 0)"/>
      <use xlink:href="#Roboto-Regular-72" transform="translate(344.726562 0)"/>
      <use xlink:href="#Roboto-Regular-72" transform="translate(379.003906 0)"/>
      <use xlink:href="#Roboto-Regular-6f" transform="translate(413.28125 0)"/>
      <use xlink:href="#Roboto-Regular-72" transform="translate(470.117188 0)"/>
      <use xlink:href="#Roboto-Regular-20" transform="translate(504.394531 0)"/>
      <use xlink:href="#Roboto-Regular-2264" transform="translate(529.248047 0)"/>
      <use xlink:href="#Roboto-Regular-20" transform="translate(581.982422 0)"/>
      <use xlink:href="#Roboto-Regular-31" transform="translate(606.835938 0)"/>
      <use xlink:href="#Roboto-Regular-35" transform="translate(663.134766 0)"/>
      <use xlink:href="#Roboto-Regular-25" transform="translate(719.433594 0)"/>
     </g>
    </g>
    <g id="line2d_30">
     <path d="M 101.146875 162.651562 
L 121.146875 162.651562 
L 141.146875 162.651562 
" style="fill: none; stroke: #ffffff; stroke-width: 2; stroke-linecap: square"/>
     <defs>
      <path id="mf4d00e30f3" d="M 0 10 
C 2.652031 10 5.195799 8.946337 7.071068 7.071068 
C 8.946337 5.195799 10 2.652031 10 0 
C 10 -2.652031 8.946337 -5.195799 7.071068 -7.071068 
C 5.195799 -8.946337 2.652031 -10 0 -10 
C -2.652031 -10 -5.195799 -8.946337 -7.071068 -7.071068 
C -8.946337 -5.195799 -10 -2.652031 -10 0 
C -10 2.652031 -8.946337 5.195799 -7.071068 7.071068 
C -5.195799 8.946337 -2.652031 10 0 10 
z
"/>
     </defs>
     <g>
      <use xlink:href="#mf4d00e30f3" x="121.146875" y="162.651562" style="fill: #ea4335"/>
     </g>
    </g>
    <g id="text_34">
     <!-- Error &gt; 15% -->
     <g transform="translate(157.146875 169.651562) scale(0.2 -0.2)">
      <defs>
       <path id="Roboto-Regular-3e" d="M 425 2494 
L 425 3103 
L 3100 1922 
L 3100 1456 
L 425 272 
L 425 884 
L 2294 1628 
L 2559 1681 
L 2559 1700 
L 2294 1763 
L 425 2494 
z
" transform="scale(0.015625)"/>
      </defs>
      <use xlink:href="#Roboto-Regular-45"/>
      <use xlink:href="#Roboto-Regular-72" transform="translate(58.447266 0)"/>
      <use xlink:href="#Roboto-Regular-72" transform="translate(92.724609 0)"/>
      <use xlink:href="#Roboto-Regular-6f" transform="translate(127.001953 0)"/>
      <use xlink:href="#Roboto-Regular-72" transform="translate(183.837891 0)"/>
      <use xlink:href="#Roboto-Regular-20" transform="translate(218.115234 0)"/>
      <use xlink:href="#Roboto-Regular-3e" transform="translate(242.96875 0)"/>
      <use xlink:href="#Roboto-Regular-20" transform="translate(295.3125 0)"/>
      <use xlink:href="#Roboto-Regular-31" transform="translate(320.166016 0)"/>
      <use xlink:href="#Roboto-Regular-35" transform="translate(376.464844 0)"/>
      <use xlink:href="#Roboto-Regular-25" transform="translate(432.763672 0)"/>
     </g>
    </g>
   </g>
  </g>
  <g id="axes_2">
   <g id="matplotlib.axis_3">
    <g id="ytick_10">
     <g id="line2d_31">
      <defs>
       <path id="mfeb9c5f1b7" d="M 0 0 
L 4 0 
" style="stroke: #000000; stroke-width: 0.8"/>
      </defs>
      <g>
       <use xlink:href="#mfeb9c5f1b7" x="561.288239" y="496.958551" style="stroke: #000000; stroke-width: 0.8"/>
      </g>
     </g>
     <g id="text_35">
      <!-- 0 -->
      <g transform="translate(568.788239 504.575739) scale(0.2 -0.2)">
       <use xlink:href="#Roboto-Regular-30"/>
      </g>
     </g>
    </g>
    <g id="ytick_11">
     <g id="line2d_32">
      <g>
       <use xlink:href="#mfeb9c5f1b7" x="561.288239" y="400.530278" style="stroke: #000000; stroke-width: 0.8"/>
      </g>
     </g>
     <g id="text_36">
      <!-- 20 -->
      <g transform="translate(568.788239 408.147466) scale(0.2 -0.2)">
       <use xlink:href="#Roboto-Regular-32"/>
       <use xlink:href="#Roboto-Regular-30" transform="translate(56.298828 0)"/>
      </g>
     </g>
    </g>
    <g id="ytick_12">
     <g id="line2d_33">
      <g>
       <use xlink:href="#mfeb9c5f1b7" x="561.288239" y="304.102006" style="stroke: #000000; stroke-width: 0.8"/>
      </g>
     </g>
     <g id="text_37">
      <!-- 40 -->
      <g transform="translate(568.788239 311.719193) scale(0.2 -0.2)">
       <use xlink:href="#Roboto-Regular-34"/>
       <use xlink:href="#Roboto-Regular-30" transform="translate(56.298828 0)"/>
      </g>
     </g>
    </g>
    <g id="ytick_13">
     <g id="line2d_34">
      <g>
       <use xlink:href="#mfeb9c5f1b7" x="561.288239" y="207.673733" style="stroke: #000000; stroke-width: 0.8"/>
      </g>
     </g>
     <g id="text_38">
      <!-- 60 -->
      <g transform="translate(568.788239 215.29092) scale(0.2 -0.2)">
       <use xlink:href="#Roboto-Regular-36"/>
       <use xlink:href="#Roboto-Regular-30" transform="translate(56.298828 0)"/>
      </g>
     </g>
    </g>
    <g id="ytick_14">
     <g id="line2d_35">
      <g>
       <use xlink:href="#mfeb9c5f1b7" x="561.288239" y="111.24546" style="stroke: #000000; stroke-width: 0.8"/>
      </g>
     </g>
     <g id="text_39">
      <!-- 80 -->
      <g transform="translate(568.788239 118.862648) scale(0.2 -0.2)">
       <use xlink:href="#Roboto-Regular-38"/>
       <use xlink:href="#Roboto-Regular-30" transform="translate(56.298828 0)"/>
      </g>
     </g>
    </g>
    <g id="ytick_15">
     <g id="line2d_36">
      <g>
       <use xlink:href="#mfeb9c5f1b7" x="561.288239" y="14.817187" style="stroke: #000000; stroke-width: 0.8"/>
      </g>
     </g>
     <g id="text_40">
      <!-- 100 -->
      <g transform="translate(568.788239 22.434375) scale(0.2 -0.2)">
       <use xlink:href="#Roboto-Regular-31"/>
       <use xlink:href="#Roboto-Regular-30" transform="translate(56.298828 0)"/>
       <use xlink:href="#Roboto-Regular-30" transform="translate(112.646484 0)"/>
      </g>
     </g>
    </g>
    <g id="text_41">
     <!-- Relative Error (%) -->
     <g style="fill: #202124" transform="translate(627.356676 355.985838) rotate(-90) scale(0.26 -0.26)">
      <defs>
       <path id="Roboto-Regular-76" d="M 1575 997 
L 1628 759 
L 1647 759 
L 1706 997 
L 2484 3381 
L 3113 3381 
L 1869 0 
L 1403 0 
L 144 3381 
L 775 3381 
L 1575 997 
z
" transform="scale(0.015625)"/>
      </defs>
      <use xlink:href="#Roboto-Regular-52"/>
      <use xlink:href="#Roboto-Regular-65" transform="translate(66.259766 0)"/>
      <use xlink:href="#Roboto-Regular-6c" transform="translate(119.140625 0)"/>
      <use xlink:href="#Roboto-Regular-61" transform="translate(144.335938 0)"/>
      <use xlink:href="#Roboto-Regular-74" transform="translate(199.316406 0)"/>
      <use xlink:href="#Roboto-Regular-69" transform="translate(233.886719 0)"/>
      <use xlink:href="#Roboto-Regular-76" transform="translate(259.082031 0)"/>
      <use xlink:href="#Roboto-Regular-65" transform="translate(309.375 0)"/>
      <use xlink:href="#Roboto-Regular-20" transform="translate(362.255859 0)"/>
      <use xlink:href="#Roboto-Regular-45" transform="translate(387.109375 0)"/>
      <use xlink:href="#Roboto-Regular-72" transform="translate(445.556641 0)"/>
      <use xlink:href="#Roboto-Regular-72" transform="translate(479.833984 0)"/>
      <use xlink:href="#Roboto-Regular-6f" transform="translate(514.111328 0)"/>
      <use xlink:href="#Roboto-Regular-72" transform="translate(570.947266 0)"/>
      <use xlink:href="#Roboto-Regular-20" transform="translate(605.224609 0)"/>
      <use xlink:href="#Roboto-Regular-28" transform="translate(630.078125 0)"/>
      <use xlink:href="#Roboto-Regular-25" transform="translate(663.232422 0)"/>
      <use xlink:href="#Roboto-Regular-29" transform="translate(736.376953 0)"/>
     </g>
    </g>
   </g>
   <g id="line2d_37">
    <path d="M 109.729545 268.03937 
L 134.49284 317.917978 
L 159.256136 423.69525 
L 184.019431 438.591312 
L 208.782727 494.313982 
L 233.546023 442.692505 
L 258.309318 441.751483 
L 283.072614 396.648893 
L 307.835909 465.736999 
L 332.599205 496.54655 
L 357.3625 457.950158 
L 382.125796 489.244922 
L 406.889091 474.989149 
L 431.652387 441.893345 
L 456.415682 470.264945 
L 481.178978 490.550842 
L 505.942273 464.938649 
L 530.705569 433.378979 
" clip-path="url(#p1ef807a6fc)" style="fill: none; stroke-dasharray: 4.44,1.92; stroke-dashoffset: 0; stroke: #3c4043; stroke-opacity: 0.4; stroke-width: 1.2"/>
   </g>
   <g id="line2d_38">
    <path d="M 79.146875 448.744415 
L 561.288239 448.744415 
" clip-path="url(#p1ef807a6fc)" style="fill: none; stroke-dasharray: 7.4,3.2; stroke-dashoffset: 0; stroke: #34a853; stroke-opacity: 0.8; stroke-width: 2"/>
   </g>
   <g id="line2d_39">
    <path d="M 79.146875 424.637347 
L 561.288239 424.637347 
" clip-path="url(#p1ef807a6fc)" style="fill: none; stroke-dasharray: 7.4,3.2; stroke-dashoffset: 0; stroke: #9e9e9e; stroke-opacity: 0.8; stroke-width: 2"/>
   </g>
   <g id="patch_45">
    <path d="M 79.146875 496.958551 
L 79.146875 14.817187 
" style="fill: none; stroke: #000000; stroke-width: 1.5; stroke-linejoin: miter; stroke-linecap: square"/>
   </g>
   <g id="patch_46">
    <path d="M 561.288239 496.958551 
L 561.288239 14.817187 
" style="fill: none; stroke: #000000; stroke-width: 1.5; stroke-linejoin: miter; stroke-linecap: square"/>
   </g>
   <g id="patch_47">
    <path d="M 79.146875 496.958551 
L 561.288239 496.958551 
" style="fill: none; stroke: #000000; stroke-width: 1.5; stroke-linejoin: miter; stroke-linecap: square"/>
   </g>
   <g id="patch_48">
    <path d="M 79.146875 14.817187 
L 561.288239 14.817187 
" style="fill: none; stroke: #000000; stroke-width: 1.5; stroke-linejoin: miter; stroke-linecap: square"/>
   </g>
   <g id="PathCollection_1">
    <defs>
     <path id="C0_0_3b084191cc" d="M 0 5.700877 
C 1.51189 5.700877 2.962061 5.100197 4.031129 4.031129 
C 5.100197 2.962061 5.700877 1.51189 5.700877 -0 
C 5.700877 -1.51189 5.100197 -2.962061 4.031129 -4.031129 
C 2.962061 -5.100197 1.51189 -5.700877 0 -5.700877 
C -1.51189 -5.700877 -2.962061 -5.100197 -4.031129 -4.031129 
C -5.100197 -2.962061 -5.700877 -1.51189 -5.700877 0 
C -5.700877 1.51189 -5.100197 2.962061 -4.031129 4.031129 
C -2.962061 5.100197 -1.51189 5.700877 0 5.700877 
z
"/>
    </defs>
    <g clip-path="url(#p1ef807a6fc)">
     <use xlink:href="#C0_0_3b084191cc" x="109.729545" y="268.03937" style="fill: #ea4335; stroke: #000000; stroke-width: 0.8"/>
    </g>
    <g clip-path="url(#p1ef807a6fc)">
     <use xlink:href="#C0_0_3b084191cc" x="134.49284" y="317.917978" style="fill: #ea4335; stroke: #000000; stroke-width: 0.8"/>
    </g>
    <g clip-path="url(#p1ef807a6fc)">
     <use xlink:href="#C0_0_3b084191cc" x="159.256136" y="423.69525" style="fill: #ea4335; stroke: #000000; stroke-width: 0.8"/>
    </g>
    <g clip-path="url(#p1ef807a6fc)">
     <use xlink:href="#C0_0_3b084191cc" x="184.019431" y="438.591312" style="fill: #9e9e9e; stroke: #000000; stroke-width: 0.8"/>
    </g>
    <g clip-path="url(#p1ef807a6fc)">
     <use xlink:href="#C0_0_3b084191cc" x="208.782727" y="494.313982" style="fill: #34a853; stroke: #000000; stroke-width: 0.8"/>
    </g>
    <g clip-path="url(#p1ef807a6fc)">
     <use xlink:href="#C0_0_3b084191cc" x="233.546023" y="442.692505" style="fill: #9e9e9e; stroke: #000000; stroke-width: 0.8"/>
    </g>
    <g clip-path="url(#p1ef807a6fc)">
     <use xlink:href="#C0_0_3b084191cc" x="258.309318" y="441.751483" style="fill: #9e9e9e; stroke: #000000; stroke-width: 0.8"/>
    </g>
    <g clip-path="url(#p1ef807a6fc)">
     <use xlink:href="#C0_0_3b084191cc" x="283.072614" y="396.648893" style="fill: #ea4335; stroke: #000000; stroke-width: 0.8"/>
    </g>
    <g clip-path="url(#p1ef807a6fc)">
     <use xlink:href="#C0_0_3b084191cc" x="307.835909" y="465.736999" style="fill: #34a853; stroke: #000000; stroke-width: 0.8"/>
    </g>
    <g clip-path="url(#p1ef807a6fc)">
     <use xlink:href="#C0_0_3b084191cc" x="332.599205" y="496.54655" style="fill: #34a853; stroke: #000000; stroke-width: 0.8"/>
    </g>
    <g clip-path="url(#p1ef807a6fc)">
     <use xlink:href="#C0_0_3b084191cc" x="357.3625" y="457.950158" style="fill: #34a853; stroke: #000000; stroke-width: 0.8"/>
    </g>
    <g clip-path="url(#p1ef807a6fc)">
     <use xlink:href="#C0_0_3b084191cc" x="382.125796" y="489.244922" style="fill: #34a853; stroke: #000000; stroke-width: 0.8"/>
    </g>
    <g clip-path="url(#p1ef807a6fc)">
     <use xlink:href="#C0_0_3b084191cc" x="406.889091" y="474.989149" style="fill: #34a853; stroke: #000000; stroke-width: 0.8"/>
    </g>
    <g clip-path="url(#p1ef807a6fc)">
     <use xlink:href="#C0_0_3b084191cc" x="431.652387" y="441.893345" style="fill: #9e9e9e; stroke: #000000; stroke-width: 0.8"/>
    </g>
    <g clip-path="url(#p1ef807a6fc)">
     <use xlink:href="#C0_0_3b084191cc" x="456.415682" y="470.264945" style="fill: #34a853; stroke: #000000; stroke-width: 0.8"/>
    </g>
    <g clip-path="url(#p1ef807a6fc)">
     <use xlink:href="#C0_0_3b084191cc" x="481.178978" y="490.550842" style="fill: #34a853; stroke: #000000; stroke-width: 0.8"/>
    </g>
    <g clip-path="url(#p1ef807a6fc)">
     <use xlink:href="#C0_0_3b084191cc" x="505.942273" y="464.938649" style="fill: #34a853; stroke: #000000; stroke-width: 0.8"/>
    </g>
    <g clip-path="url(#p1ef807a6fc)">
     <use xlink:href="#C0_0_3b084191cc" x="530.705569" y="433.378979" style="fill: #9e9e9e; stroke: #000000; stroke-width: 0.8"/>
    </g>
   </g>
  </g>
 </g>
 <defs>
  <clipPath id="p1ef807a6fc">
   <rect x="79.146875" y="14.817187" width="482.141364" height="482.141364"/>
  </clipPath>
 </defs>
</svg>
