<?xml version="1.0" encoding="utf-8" standalone="no"?>
<!DOCTYPE svg PUBLIC "-//W3C//DTD SVG 1.1//EN"
  "http://www.w3.org/Graphics/SVG/1.1/DTD/svg11.dtd">
<svg xmlns:xlink="http://www.w3.org/1999/xlink" width="641.225455pt" height="595.48483pt" viewBox="0 0 641.225455 595.48483" xmlns="http://www.w3.org/2000/svg" version="1.1">
 <metadata>
  <rdf:RDF xmlns:dc="http://purl.org/dc/elements/1.1/" xmlns:cc="http://creativecommons.org/ns#" xmlns:rdf="http://www.w3.org/1999/02/22-rdf-syntax-ns#">
   <cc:Work>
    <dc:type rdf:resource="http://purl.org/dc/dcmitype/StillImage"/>
    <dc:date>2026-05-20T12:40:01.614403</dc:date>
    <dc:format>image/svg+xml</dc:format>
    <dc:creator>
     <cc:Agent>
      <dc:title>Matplotlib v3.10.0, https://matplotlib.org/</dc:title>
     </cc:Agent>
    </dc:creator>
   </cc:Work>
  </rdf:RDF>
 </metadata>
 <defs>
  <style type="text/css">*{stroke-linejoin: round; stroke-linecap: butt}</style>
 </defs>
 <g id="figure_1">
  <g id="patch_1">
   <path d="M 0 595.48483 
L 641.225455 595.48483 
L 641.225455 0 
L 0 0 
z
" style="fill: #ffffff"/>
  </g>
  <g id="axes_1">
   <g id="patch_2">
    <path d="M 99.128125 530.837955 
L 622.76608 530.837955 
L 622.76608 7.2 
L 99.128125 7.2 
z
" style="fill: #ffffff"/>
   </g>
   <g id="matplotlib.axis_1">
    <g id="xtick_1">
     <g id="line2d_1">
      <defs>
       <path id="m288eff24d8" d="M 0 0 
L 0 4 
" style="stroke: #000000; stroke-width: 0.8"/>
      </defs>
      <g>
       <use xlink:href="#m288eff24d8" x="99.128125" y="530.837955" style="stroke: #000000; stroke-width: 0.8"/>
      </g>
     </g>
     <g id="text_1">
      <!-- 0 -->
      <g transform="translate(93.49375 553.57233) scale(0.2 -0.2)">
       <defs>
        <path id="Roboto-Regular-30" d="M 3250 1734 
Q 3250 863 2864 398 
Q 2478 -66 1806 -66 
Q 1134 -66 743 400 
Q 353 866 353 1734 
L 353 2813 
Q 353 3681 742 4148 
Q 1131 4616 1800 4616 
Q 2472 4616 2861 4148 
Q 3250 3681 3250 2813 
L 3250 1734 
z
M 2634 2944 
Q 2634 3534 2420 3832 
Q 2206 4131 1800 4131 
Q 1394 4131 1181 3832 
Q 969 3534 969 2944 
L 969 1609 
Q 969 1019 1184 717 
Q 1400 416 1806 416 
Q 2213 416 2423 716 
Q 2634 1016 2634 1609 
L 2634 2944 
z
" transform="scale(0.015625)"/>
       </defs>
       <use xlink:href="#Roboto-Regular-30"/>
      </g>
     </g>
    </g>
    <g id="xtick_2">
     <g id="line2d_2">
      <g>
       <use xlink:href="#m288eff24d8" x="203.855716" y="530.837955" style="stroke: #000000; stroke-width: 0.8"/>
      </g>
     </g>
     <g id="text_2">
      <!-- 5 -->
      <g transform="translate(198.226028 553.57233) scale(0.2 -0.2)">
       <defs>
        <path id="Roboto-Regular-35" d="M 547 2053 
L 809 4550 
L 3088 4550 
L 3088 4003 
L 1331 4003 
L 1181 2725 
Q 1325 2831 1501 2901 
Q 1678 2972 1909 2978 
Q 2538 2984 2898 2568 
Q 3259 2153 3259 1450 
Q 3259 766 2892 350 
Q 2525 -66 1822 -66 
Q 1244 -66 859 250 
Q 475 566 491 1178 
L 497 1197 
L 1053 1197 
Q 1053 825 1267 620 
Q 1481 416 1822 416 
Q 2213 416 2428 691 
Q 2644 966 2644 1444 
Q 2644 1881 2425 2162 
Q 2206 2444 1822 2444 
Q 1459 2444 1296 2334 
Q 1134 2225 1059 2000 
L 547 2053 
z
" transform="scale(0.015625)"/>
       </defs>
       <use xlink:href="#Roboto-Regular-35"/>
      </g>
     </g>
    </g>
    <g id="xtick_3">
     <g id="line2d_3">
      <g>
       <use xlink:href="#m288eff24d8" x="308.583307" y="530.837955" style="stroke: #000000; stroke-width: 0.8"/>
      </g>
     </g>
     <g id="text_3">
      <!-- 10 -->
      <g transform="translate(297.319244 553.57233) scale(0.2 -0.2)">
       <defs>
        <path id="Roboto-Regular-31" d="M 2128 0 
L 1513 0 
L 1513 3950 
L 581 3938 
L 581 4381 
L 2128 4550 
L 2128 0 
z
" transform="scale(0.015625)"/>
       </defs>
       <use xlink:href="#Roboto-Regular-31"/>
       <use xlink:href="#Roboto-Regular-30" transform="translate(56.298828 0)"/>
      </g>
     </g>
    </g>
    <g id="xtick_4">
     <g id="line2d_4">
      <g>
       <use xlink:href="#m288eff24d8" x="413.310898" y="530.837955" style="stroke: #000000; stroke-width: 0.8"/>
      </g>
     </g>
     <g id="text_4">
      <!-- 15 -->
      <g transform="translate(402.051523 553.57233) scale(0.2 -0.2)">
       <use xlink:href="#Roboto-Regular-31"/>
       <use xlink:href="#Roboto-Regular-35" transform="translate(56.298828 0)"/>
      </g>
     </g>
    </g>
    <g id="xtick_5">
     <g id="line2d_5">
      <g>
       <use xlink:href="#m288eff24d8" x="518.038489" y="530.837955" style="stroke: #000000; stroke-width: 0.8"/>
      </g>
     </g>
     <g id="text_5">
      <!-- 20 -->
      <g transform="translate(506.774426 553.57233) scale(0.2 -0.2)">
       <defs>
        <path id="Roboto-Regular-32" d="M 3319 0 
L 369 0 
L 369 422 
L 1859 2078 
Q 2259 2525 2401 2787 
Q 2544 3050 2544 3325 
Q 2544 3666 2345 3898 
Q 2147 4131 1819 4131 
Q 1347 4131 1123 3889 
Q 900 3647 900 3209 
L 309 3209 
L 303 3228 
Q 288 3816 694 4216 
Q 1100 4616 1819 4616 
Q 2431 4616 2795 4258 
Q 3159 3900 3159 3347 
Q 3159 2975 2939 2601 
Q 2719 2228 2322 1800 
L 1125 497 
L 1131 481 
L 3319 481 
L 3319 0 
z
" transform="scale(0.015625)"/>
       </defs>
       <use xlink:href="#Roboto-Regular-32"/>
       <use xlink:href="#Roboto-Regular-30" transform="translate(56.298828 0)"/>
      </g>
     </g>
    </g>
    <g id="xtick_6">
     <g id="line2d_6">
      <g>
       <use xlink:href="#m288eff24d8" x="622.76608" y="530.837955" style="stroke: #000000; stroke-width: 0.8"/>
      </g>
     </g>
     <g id="text_6">
      <!-- 25 -->
      <g transform="translate(611.506705 553.57233) scale(0.2 -0.2)">
       <use xlink:href="#Roboto-Regular-32"/>
       <use xlink:href="#Roboto-Regular-35" transform="translate(56.298828 0)"/>
      </g>
     </g>
    </g>
    <g id="text_7">
     <!-- Relative Error (%) -->
     <g style="fill: #202124" transform="translate(260.849134 582.406392) scale(0.26 -0.26)">
      <defs>
       <path id="Roboto-Regular-52" d="M 1178 1972 
L 1178 0 
L 563 0 
L 563 4547 
L 2209 4547 
Q 2956 4547 3350 4215 
Q 3744 3884 3744 3253 
Q 3744 2903 3561 2643 
Q 3378 2384 3028 2231 
Q 3403 2109 3567 1836 
Q 3731 1563 3731 1159 
L 3731 731 
Q 3731 519 3778 350 
Q 3825 181 3941 75 
L 3941 0 
L 3306 0 
Q 3184 106 3150 312 
Q 3116 519 3116 738 
L 3116 1153 
Q 3116 1522 2900 1747 
Q 2684 1972 2322 1972 
L 1178 1972 
z
M 1178 2456 
L 2147 2456 
Q 2669 2456 2898 2654 
Q 3128 2853 3128 3259 
Q 3128 3644 2904 3855 
Q 2681 4066 2209 4066 
L 1178 4066 
L 1178 2456 
z
" transform="scale(0.015625)"/>
       <path id="Roboto-Regular-65" d="M 1850 -66 
Q 1144 -66 726 404 
Q 309 875 309 1625 
L 309 1763 
Q 309 2484 739 2964 
Q 1169 3444 1756 3444 
Q 2441 3444 2791 3031 
Q 3141 2619 3141 1931 
L 3141 1547 
L 947 1547 
L 938 1531 
Q 947 1044 1184 730 
Q 1422 416 1850 416 
Q 2163 416 2398 505 
Q 2634 594 2806 750 
L 3047 350 
Q 2866 172 2569 53 
Q 2272 -66 1850 -66 
z
M 1756 2959 
Q 1447 2959 1228 2698 
Q 1009 2438 959 2044 
L 966 2028 
L 2525 2028 
L 2525 2109 
Q 2525 2472 2331 2715 
Q 2138 2959 1756 2959 
z
" transform="scale(0.015625)"/>
       <path id="Roboto-Regular-6c" d="M 1113 0 
L 497 0 
L 497 4875 
L 1113 4875 
L 1113 0 
z
" transform="scale(0.015625)"/>
       <path id="Roboto-Regular-61" d="M 2525 0 
Q 2494 153 2476 270 
Q 2459 388 2456 506 
Q 2284 263 2007 98 
Q 1731 -66 1413 -66 
Q 884 -66 607 204 
Q 331 475 331 950 
Q 331 1434 723 1707 
Q 1116 1981 1788 1981 
L 2456 1981 
L 2456 2316 
Q 2456 2613 2275 2786 
Q 2094 2959 1763 2959 
Q 1466 2959 1280 2807 
Q 1094 2656 1094 2444 
L 506 2444 
L 500 2463 
Q 481 2831 848 3137 
Q 1216 3444 1797 3444 
Q 2372 3444 2722 3151 
Q 3072 2859 3072 2309 
L 3072 681 
Q 3072 500 3090 331 
Q 3109 163 3159 0 
L 2525 0 
z
M 1503 450 
Q 1838 450 2106 622 
Q 2375 794 2456 1016 
L 2456 1566 
L 1766 1566 
Q 1394 1566 1170 1378 
Q 947 1191 947 938 
Q 947 713 1087 581 
Q 1228 450 1503 450 
z
" transform="scale(0.015625)"/>
       <path id="Roboto-Regular-74" d="M 1259 4197 
L 1259 3381 
L 1900 3381 
L 1900 2925 
L 1259 2925 
L 1259 872 
Q 1259 634 1357 537 
Q 1456 441 1619 441 
Q 1672 441 1736 453 
Q 1800 466 1850 484 
L 1931 63 
Q 1863 6 1730 -30 
Q 1597 -66 1463 -66 
Q 1088 -66 866 161 
Q 644 388 644 872 
L 644 2925 
L 106 2925 
L 106 3381 
L 644 3381 
L 644 4197 
L 1259 4197 
z
" transform="scale(0.015625)"/>
       <path id="Roboto-Regular-69" d="M 1113 0 
L 497 0 
L 497 3381 
L 1113 3381 
L 1113 0 
z
M 1113 4247 
L 497 4247 
L 497 4875 
L 1113 4875 
L 1113 4247 
z
" transform="scale(0.015625)"/>
       <path id="Roboto-Regular-76" d="M 1575 997 
L 1628 759 
L 1647 759 
L 1706 997 
L 2484 3381 
L 3113 3381 
L 1869 0 
L 1403 0 
L 144 3381 
L 775 3381 
L 1575 997 
z
" transform="scale(0.015625)"/>
       <path id="Roboto-Regular-20" transform="scale(0.015625)"/>
       <path id="Roboto-Regular-45" d="M 3263 2109 
L 1178 2109 
L 1178 481 
L 3581 481 
L 3581 0 
L 563 0 
L 563 4550 
L 3547 4550 
L 3547 4066 
L 1178 4066 
L 1178 2594 
L 3263 2594 
L 3263 2109 
z
" transform="scale(0.015625)"/>
       <path id="Roboto-Regular-72" d="M 2047 2838 
L 1731 2856 
Q 1488 2856 1320 2740 
Q 1153 2625 1063 2416 
L 1063 0 
L 447 0 
L 447 3381 
L 997 3381 
L 1056 2888 
Q 1200 3150 1411 3297 
Q 1622 3444 1897 3444 
Q 1966 3444 2028 3433 
Q 2091 3422 2131 3409 
L 2047 2838 
z
" transform="scale(0.015625)"/>
       <path id="Roboto-Regular-6f" d="M 303 1722 
Q 303 2472 709 2958 
Q 1116 3444 1813 3444 
Q 2516 3444 2923 2959 
Q 3331 2475 3331 1722 
L 3331 1653 
Q 3331 897 2925 415 
Q 2519 -66 1819 -66 
Q 1119 -66 711 417 
Q 303 900 303 1653 
L 303 1722 
z
M 919 1653 
Q 919 1116 1145 766 
Q 1372 416 1819 416 
Q 2259 416 2487 766 
Q 2716 1116 2716 1653 
L 2716 1722 
Q 2716 2253 2486 2606 
Q 2256 2959 1813 2959 
Q 1372 2959 1145 2606 
Q 919 2253 919 1722 
L 919 1653 
z
" transform="scale(0.015625)"/>
       <path id="Roboto-Regular-28" d="M 413 1847 
Q 413 3078 909 3950 
Q 1406 4822 1953 5113 
L 1972 5109 
L 2091 4747 
Q 1663 4413 1345 3675 
Q 1028 2938 1028 1853 
L 1028 1813 
Q 1028 728 1343 -9 
Q 1659 -747 2091 -1109 
L 1972 -1447 
L 1953 -1447 
Q 1406 -1156 909 -286 
Q 413 584 413 1819 
L 413 1847 
z
" transform="scale(0.015625)"/>
       <path id="Roboto-Regular-25" d="M 325 3675 
Q 325 4072 581 4344 
Q 838 4616 1266 4616 
Q 1694 4616 1950 4345 
Q 2206 4075 2206 3675 
L 2206 3434 
Q 2206 3038 1951 2769 
Q 1697 2500 1272 2500 
Q 841 2500 583 2769 
Q 325 3038 325 3434 
L 325 3675 
z
M 781 3434 
Q 781 3203 907 3042 
Q 1034 2881 1272 2881 
Q 1500 2881 1625 3040 
Q 1750 3200 1750 3434 
L 1750 3675 
Q 1750 3906 1623 4070 
Q 1497 4234 1266 4234 
Q 1031 4234 906 4070 
Q 781 3906 781 3675 
L 781 3434 
z
M 2528 1116 
Q 2528 1513 2784 1783 
Q 3041 2053 3469 2053 
Q 3894 2053 4151 1783 
Q 4409 1513 4409 1116 
L 4409 872 
Q 4409 472 4153 203 
Q 3897 -66 3475 -66 
Q 3044 -66 2786 203 
Q 2528 472 2528 872 
L 2528 1116 
z
M 2984 872 
Q 2984 638 3111 477 
Q 3238 316 3475 316 
Q 3703 316 3828 477 
Q 3953 638 3953 872 
L 3953 1116 
Q 3953 1347 3825 1509 
Q 3697 1672 3469 1672 
Q 3238 1672 3111 1509 
Q 2984 1347 2984 1116 
L 2984 872 
z
M 1431 344 
L 1091 553 
L 3313 4109 
L 3653 3900 
L 1431 344 
z
" transform="scale(0.015625)"/>
       <path id="Roboto-Regular-29" d="M 1697 1819 
Q 1697 584 1198 -286 
Q 700 -1156 156 -1447 
L 138 -1447 
L 19 -1109 
Q 441 -781 761 -29 
Q 1081 722 1081 1813 
L 1081 1853 
Q 1081 2922 751 3676 
Q 422 4431 19 4775 
L 138 5113 
L 156 5113 
Q 700 4822 1198 3950 
Q 1697 3078 1697 1847 
L 1697 1819 
z
" transform="scale(0.015625)"/>
      </defs>
      <use xlink:href="#Roboto-Regular-52"/>
      <use xlink:href="#Roboto-Regular-65" transform="translate(66.259766 0)"/>
      <use xlink:href="#Roboto-Regular-6c" transform="translate(119.140625 0)"/>
      <use xlink:href="#Roboto-Regular-61" transform="translate(144.335938 0)"/>
      <use xlink:href="#Roboto-Regular-74" transform="translate(199.316406 0)"/>
      <use xlink:href="#Roboto-Regular-69" transform="translate(233.886719 0)"/>
      <use xlink:href="#Roboto-Regular-76" transform="translate(259.082031 0)"/>
      <use xlink:href="#Roboto-Regular-65" transform="translate(309.375 0)"/>
      <use xlink:href="#Roboto-Regular-20" transform="translate(362.255859 0)"/>
      <use xlink:href="#Roboto-Regular-45" transform="translate(387.109375 0)"/>
      <use xlink:href="#Roboto-Regular-72" transform="translate(445.556641 0)"/>
      <use xlink:href="#Roboto-Regular-72" transform="translate(479.833984 0)"/>
      <use xlink:href="#Roboto-Regular-6f" transform="translate(514.111328 0)"/>
      <use xlink:href="#Roboto-Regular-72" transform="translate(570.947266 0)"/>
      <use xlink:href="#Roboto-Regular-20" transform="translate(605.224609 0)"/>
      <use xlink:href="#Roboto-Regular-28" transform="translate(630.078125 0)"/>
      <use xlink:href="#Roboto-Regular-25" transform="translate(663.232422 0)"/>
      <use xlink:href="#Roboto-Regular-29" transform="translate(736.376953 0)"/>
     </g>
    </g>
   </g>
   <g id="matplotlib.axis_2">
    <g id="ytick_1">
     <g id="line2d_7">
      <defs>
       <path id="mf9c60011a3" d="M 0 0 
L -4 0 
" style="stroke: #000000; stroke-width: 0.8"/>
      </defs>
      <g>
       <use xlink:href="#mf9c60011a3" x="99.128125" y="530.837955" style="stroke: #000000; stroke-width: 0.8"/>
      </g>
     </g>
     <g id="text_8">
      <!-- 0.0% -->
      <g transform="translate(49.109375 538.455142) scale(0.2 -0.2)">
       <defs>
        <path id="Roboto-Regular-2e" d="M 1119 0 
L 503 0 
L 503 631 
L 1119 631 
L 1119 0 
z
" transform="scale(0.015625)"/>
       </defs>
       <use xlink:href="#Roboto-Regular-30"/>
       <use xlink:href="#Roboto-Regular-2e" transform="translate(56.347656 0)"/>
       <use xlink:href="#Roboto-Regular-30" transform="translate(83.105469 0)"/>
       <use xlink:href="#Roboto-Regular-25" transform="translate(139.453125 0)"/>
      </g>
     </g>
    </g>
    <g id="ytick_2">
     <g id="line2d_8">
      <g>
       <use xlink:href="#mf9c60011a3" x="99.128125" y="460.551051" style="stroke: #000000; stroke-width: 0.8"/>
      </g>
     </g>
     <g id="text_9">
      <!-- 2.0% -->
      <g transform="translate(49.11875 468.168238) scale(0.2 -0.2)">
       <use xlink:href="#Roboto-Regular-32"/>
       <use xlink:href="#Roboto-Regular-2e" transform="translate(56.298828 0)"/>
       <use xlink:href="#Roboto-Regular-30" transform="translate(83.056641 0)"/>
       <use xlink:href="#Roboto-Regular-25" transform="translate(139.404297 0)"/>
      </g>
     </g>
    </g>
    <g id="ytick_3">
     <g id="line2d_9">
      <g>
       <use xlink:href="#mf9c60011a3" x="99.128125" y="390.264147" style="stroke: #000000; stroke-width: 0.8"/>
      </g>
     </g>
     <g id="text_10">
      <!-- 4.0% -->
      <g transform="translate(49.11875 397.881334) scale(0.2 -0.2)">
       <defs>
        <path id="Roboto-Regular-34" d="M 2828 1531 
L 3456 1531 
L 3456 1050 
L 2828 1050 
L 2828 0 
L 2216 0 
L 2216 1050 
L 172 1050 
L 172 1397 
L 2178 4550 
L 2828 4550 
L 2828 1531 
z
M 828 1531 
L 2216 1531 
L 2216 3666 
L 2197 3669 
L 2138 3513 
L 828 1531 
z
" transform="scale(0.015625)"/>
       </defs>
       <use xlink:href="#Roboto-Regular-34"/>
       <use xlink:href="#Roboto-Regular-2e" transform="translate(56.298828 0)"/>
       <use xlink:href="#Roboto-Regular-30" transform="translate(83.056641 0)"/>
       <use xlink:href="#Roboto-Regular-25" transform="translate(139.404297 0)"/>
      </g>
     </g>
    </g>
    <g id="ytick_4">
     <g id="line2d_10">
      <g>
       <use xlink:href="#mf9c60011a3" x="99.128125" y="319.977243" style="stroke: #000000; stroke-width: 0.8"/>
      </g>
     </g>
     <g id="text_11">
      <!-- 6.0% -->
      <g transform="translate(49.11875 327.59443) scale(0.2 -0.2)">
       <defs>
        <path id="Roboto-Regular-36" d="M 2109 4616 
Q 2344 4616 2573 4562 
Q 2803 4509 2953 4428 
L 2822 3956 
Q 2669 4034 2501 4082 
Q 2334 4131 2109 4131 
Q 1622 4131 1323 3740 
Q 1025 3350 1025 2722 
L 1025 2650 
Q 1225 2825 1483 2923 
Q 1741 3022 2038 3022 
Q 2647 3022 3009 2600 
Q 3372 2178 3372 1531 
Q 3372 825 2986 379 
Q 2600 -66 1956 -66 
Q 1288 -66 850 418 
Q 413 903 413 1784 
L 413 2653 
Q 413 3528 900 4072 
Q 1388 4616 2109 4616 
z
M 1900 2563 
Q 1584 2563 1362 2434 
Q 1141 2306 1025 2094 
L 1025 1725 
Q 1025 1097 1290 756 
Q 1556 416 1956 416 
Q 2334 416 2545 736 
Q 2756 1056 2756 1531 
Q 2756 1981 2529 2272 
Q 2303 2563 1900 2563 
z
" transform="scale(0.015625)"/>
       </defs>
       <use xlink:href="#Roboto-Regular-36"/>
       <use xlink:href="#Roboto-Regular-2e" transform="translate(56.298828 0)"/>
       <use xlink:href="#Roboto-Regular-30" transform="translate(83.056641 0)"/>
       <use xlink:href="#Roboto-Regular-25" transform="translate(139.404297 0)"/>
      </g>
     </g>
    </g>
    <g id="ytick_5">
     <g id="line2d_11">
      <g>
       <use xlink:href="#mf9c60011a3" x="99.128125" y="249.690338" style="stroke: #000000; stroke-width: 0.8"/>
      </g>
     </g>
     <g id="text_12">
      <!-- 8.0% -->
      <g transform="translate(49.11875 257.307526) scale(0.2 -0.2)">
       <defs>
        <path id="Roboto-Regular-38" d="M 3156 3363 
Q 3156 3006 2956 2739 
Q 2756 2472 2416 2341 
Q 2809 2203 3045 1909 
Q 3281 1616 3281 1231 
Q 3281 600 2870 267 
Q 2459 -66 1803 -66 
Q 1134 -66 726 267 
Q 319 600 319 1231 
Q 319 1616 550 1909 
Q 781 2203 1175 2341 
Q 834 2472 640 2739 
Q 447 3006 447 3363 
Q 447 3963 817 4289 
Q 1188 4616 1797 4616 
Q 2397 4616 2776 4289 
Q 3156 3963 3156 3363 
z
M 2669 1244 
Q 2669 1619 2422 1859 
Q 2175 2100 1797 2100 
Q 1413 2100 1173 1859 
Q 934 1619 934 1244 
Q 934 856 1171 636 
Q 1409 416 1803 416 
Q 2188 416 2428 637 
Q 2669 859 2669 1244 
z
M 2541 3350 
Q 2541 3688 2330 3909 
Q 2119 4131 1797 4131 
Q 1469 4131 1266 3917 
Q 1063 3703 1063 3350 
Q 1063 3003 1267 2793 
Q 1472 2584 1803 2584 
Q 2128 2584 2334 2793 
Q 2541 3003 2541 3350 
z
" transform="scale(0.015625)"/>
       </defs>
       <use xlink:href="#Roboto-Regular-38"/>
       <use xlink:href="#Roboto-Regular-2e" transform="translate(56.298828 0)"/>
       <use xlink:href="#Roboto-Regular-30" transform="translate(83.056641 0)"/>
       <use xlink:href="#Roboto-Regular-25" transform="translate(139.404297 0)"/>
      </g>
     </g>
    </g>
    <g id="ytick_6">
     <g id="line2d_12">
      <g>
       <use xlink:href="#mf9c60011a3" x="99.128125" y="179.403434" style="stroke: #000000; stroke-width: 0.8"/>
      </g>
     </g>
     <g id="text_13">
      <!-- 10.0% -->
      <g transform="translate(37.85 187.020622) scale(0.2 -0.2)">
       <use xlink:href="#Roboto-Regular-31"/>
       <use xlink:href="#Roboto-Regular-30" transform="translate(56.298828 0)"/>
       <use xlink:href="#Roboto-Regular-2e" transform="translate(112.646484 0)"/>
       <use xlink:href="#Roboto-Regular-30" transform="translate(139.404297 0)"/>
       <use xlink:href="#Roboto-Regular-25" transform="translate(195.751953 0)"/>
      </g>
     </g>
    </g>
    <g id="ytick_7">
     <g id="line2d_13">
      <g>
       <use xlink:href="#mf9c60011a3" x="99.128125" y="109.11653" style="stroke: #000000; stroke-width: 0.8"/>
      </g>
     </g>
     <g id="text_14">
      <!-- 12.0% -->
      <g transform="translate(37.859375 116.733718) scale(0.2 -0.2)">
       <use xlink:href="#Roboto-Regular-31"/>
       <use xlink:href="#Roboto-Regular-32" transform="translate(56.298828 0)"/>
       <use xlink:href="#Roboto-Regular-2e" transform="translate(112.597656 0)"/>
       <use xlink:href="#Roboto-Regular-30" transform="translate(139.355469 0)"/>
       <use xlink:href="#Roboto-Regular-25" transform="translate(195.703125 0)"/>
      </g>
     </g>
    </g>
    <g id="ytick_8">
     <g id="line2d_14">
      <g>
       <use xlink:href="#mf9c60011a3" x="99.128125" y="38.829626" style="stroke: #000000; stroke-width: 0.8"/>
      </g>
     </g>
     <g id="text_15">
      <!-- 14.0% -->
      <g transform="translate(37.859375 46.446814) scale(0.2 -0.2)">
       <use xlink:href="#Roboto-Regular-31"/>
       <use xlink:href="#Roboto-Regular-34" transform="translate(56.298828 0)"/>
       <use xlink:href="#Roboto-Regular-2e" transform="translate(112.597656 0)"/>
       <use xlink:href="#Roboto-Regular-30" transform="translate(139.355469 0)"/>
       <use xlink:href="#Roboto-Regular-25" transform="translate(195.703125 0)"/>
      </g>
     </g>
    </g>
    <g id="text_16">
     <!-- Frequency (%) -->
     <g style="fill: #202124" transform="translate(27.971563 351.814759) rotate(-90) scale(0.26 -0.26)">
      <defs>
       <path id="Roboto-Regular-46" d="M 3253 2013 
L 1178 2013 
L 1178 0 
L 563 0 
L 563 4550 
L 3572 4550 
L 3572 4066 
L 1178 4066 
L 1178 2497 
L 3253 2497 
L 3253 2013 
z
" transform="scale(0.015625)"/>
       <path id="Roboto-Regular-71" d="M 306 1628 
Q 306 2444 654 2944 
Q 1003 3444 1631 3444 
Q 1941 3444 2175 3326 
Q 2409 3209 2572 2984 
L 2663 3381 
L 3131 3381 
L 3131 -1300 
L 2516 -1300 
L 2516 319 
Q 2353 128 2131 31 
Q 1909 -66 1625 -66 
Q 1006 -66 656 382 
Q 306 831 306 1563 
L 306 1628 
z
M 922 1563 
Q 922 1050 1133 733 
Q 1344 416 1781 416 
Q 2034 416 2214 528 
Q 2394 641 2516 844 
L 2516 2550 
Q 2394 2741 2214 2850 
Q 2034 2959 1788 2959 
Q 1347 2959 1134 2586 
Q 922 2213 922 1628 
L 922 1563 
z
" transform="scale(0.015625)"/>
       <path id="Roboto-Regular-75" d="M 2594 500 
Q 2434 228 2184 81 
Q 1934 -66 1606 -66 
Q 1053 -66 743 287 
Q 434 641 434 1388 
L 434 3381 
L 1050 3381 
L 1050 1381 
Q 1050 841 1209 637 
Q 1369 434 1706 434 
Q 2034 434 2248 567 
Q 2463 700 2572 944 
L 2572 3381 
L 3188 3381 
L 3188 0 
L 2634 0 
L 2594 500 
z
" transform="scale(0.015625)"/>
       <path id="Roboto-Regular-6e" d="M 997 3381 
L 1041 2878 
Q 1209 3147 1464 3295 
Q 1719 3444 2044 3444 
Q 2591 3444 2891 3123 
Q 3191 2803 3191 2134 
L 3191 0 
L 2575 0 
L 2575 2122 
Q 2575 2569 2398 2756 
Q 2222 2944 1859 2944 
Q 1594 2944 1389 2816 
Q 1184 2688 1063 2466 
L 1063 0 
L 447 0 
L 447 3381 
L 997 3381 
z
" transform="scale(0.015625)"/>
       <path id="Roboto-Regular-63" d="M 1822 416 
Q 2128 416 2361 605 
Q 2594 794 2594 1069 
L 3147 1069 
L 3153 1050 
Q 3169 613 2764 273 
Q 2359 -66 1822 -66 
Q 1084 -66 693 415 
Q 303 897 303 1625 
L 303 1756 
Q 303 2478 695 2961 
Q 1088 3444 1822 3444 
Q 2416 3444 2792 3094 
Q 3169 2744 3156 2234 
L 3150 2216 
L 2594 2216 
Q 2594 2525 2375 2742 
Q 2156 2959 1822 2959 
Q 1338 2959 1130 2611 
Q 922 2263 922 1756 
L 922 1625 
Q 922 1106 1128 761 
Q 1334 416 1822 416 
z
" transform="scale(0.015625)"/>
       <path id="Roboto-Regular-79" d="M 1481 1253 
L 1591 828 
L 1609 828 
L 2441 3381 
L 3125 3381 
L 1703 -519 
Q 1575 -859 1336 -1112 
Q 1097 -1366 691 -1366 
Q 616 -1366 500 -1348 
Q 384 -1331 322 -1316 
L 384 -831 
Q 366 -828 495 -837 
Q 625 -847 659 -847 
Q 856 -847 981 -672 
Q 1106 -497 1191 -284 
L 1338 69 
L 81 3381 
L 769 3381 
L 1481 1253 
z
" transform="scale(0.015625)"/>
      </defs>
      <use xlink:href="#Roboto-Regular-46"/>
      <use xlink:href="#Roboto-Regular-72" transform="translate(58.251953 0)"/>
      <use xlink:href="#Roboto-Regular-65" transform="translate(92.529297 0)"/>
      <use xlink:href="#Roboto-Regular-71" transform="translate(145.410156 0)"/>
      <use xlink:href="#Roboto-Regular-75" transform="translate(202.246094 0)"/>
      <use xlink:href="#Roboto-Regular-65" transform="translate(259.082031 0)"/>
      <use xlink:href="#Roboto-Regular-6e" transform="translate(311.962891 0)"/>
      <use xlink:href="#Roboto-Regular-63" transform="translate(368.798828 0)"/>
      <use xlink:href="#Roboto-Regular-79" transform="translate(421.875 0)"/>
      <use xlink:href="#Roboto-Regular-20" transform="translate(472.167969 0)"/>
      <use xlink:href="#Roboto-Regular-28" transform="translate(497.021484 0)"/>
      <use xlink:href="#Roboto-Regular-25" transform="translate(530.175781 0)"/>
      <use xlink:href="#Roboto-Regular-29" transform="translate(603.320312 0)"/>
     </g>
    </g>
   </g>
   <g id="FillBetweenPolyCollection_1">
    <path d="M 99.128125 327.364658 
L 99.128125 530.837955 
L 104.012794 530.837955 
L 108.897463 530.837955 
L 113.782131 530.837955 
L 118.6668 530.837955 
L 123.551469 530.837955 
L 128.436138 530.837955 
L 133.320807 530.837955 
L 138.205476 530.837955 
L 143.090144 530.837955 
L 147.974813 530.837955 
L 152.859482 530.837955 
L 157.744151 530.837955 
L 162.62882 530.837955 
L 167.513488 530.837955 
L 172.398157 530.837955 
L 177.282826 530.837955 
L 182.167495 530.837955 
L 187.052164 530.837955 
L 191.936832 530.837955 
L 196.821501 530.837955 
L 201.70617 530.837955 
L 206.590839 530.837955 
L 211.475508 530.837955 
L 216.360177 530.837955 
L 221.244845 530.837955 
L 226.129514 530.837955 
L 231.014183 530.837955 
L 235.898852 530.837955 
L 240.783521 530.837955 
L 245.668189 530.837955 
L 250.552858 530.837955 
L 255.437527 530.837955 
L 260.322196 530.837955 
L 265.206865 530.837955 
L 270.091533 530.837955 
L 274.976202 530.837955 
L 279.860871 530.837955 
L 284.74554 530.837955 
L 289.630209 530.837955 
L 294.514878 530.837955 
L 299.399546 530.837955 
L 304.284215 530.837955 
L 309.168884 530.837955 
L 314.053553 530.837955 
L 318.938222 530.837955 
L 323.82289 530.837955 
L 328.707559 530.837955 
L 333.592228 530.837955 
L 338.476897 530.837955 
L 343.361566 530.837955 
L 348.246234 530.837955 
L 353.130903 530.837955 
L 358.015572 530.837955 
L 362.900241 530.837955 
L 367.78491 530.837955 
L 372.669579 530.837955 
L 377.554247 530.837955 
L 382.438916 530.837955 
L 387.323585 530.837955 
L 392.208254 530.837955 
L 397.092923 530.837955 
L 401.977591 530.837955 
L 406.86226 530.837955 
L 411.746929 530.837955 
L 416.631598 530.837955 
L 421.516267 530.837955 
L 426.400936 530.837955 
L 431.285604 530.837955 
L 436.170273 530.837955 
L 441.054942 530.837955 
L 445.939611 530.837955 
L 450.82428 530.837955 
L 455.708948 530.837955 
L 460.593617 530.837955 
L 465.478286 530.837955 
L 470.362955 530.837955 
L 475.247624 530.837955 
L 480.132292 530.837955 
L 485.016961 530.837955 
L 489.90163 530.837955 
L 494.786299 530.837955 
L 499.670968 530.837955 
L 504.555637 530.837955 
L 509.440305 530.837955 
L 514.324974 530.837955 
L 519.209643 530.837955 
L 524.094312 530.837955 
L 528.978981 530.837955 
L 533.863649 530.837955 
L 538.748318 530.837955 
L 543.632987 530.837955 
L 548.517656 530.837955 
L 553.402325 530.837955 
L 558.286993 530.837955 
L 563.171662 530.837955 
L 568.056331 530.837955 
L 572.941 530.837955 
L 577.825669 530.837955 
L 582.710338 530.837955 
L 587.595006 530.837955 
L 592.479675 530.837955 
L 597.364344 530.837955 
L 602.249013 530.837955 
L 607.133682 530.837955 
L 612.01835 530.837955 
L 616.903019 530.837955 
L 621.787688 530.837955 
L 626.672357 530.837955 
L 631.557026 530.837955 
L 636.441694 530.837955 
L 641.326363 530.837955 
L 646.211032 530.837955 
L 651.095701 530.837955 
L 655.98037 530.837955 
L 660.865039 530.837955 
L 665.749707 530.837955 
L 670.634376 530.837955 
L 675.519045 530.837955 
L 680.403714 530.837955 
L 685.288383 530.837955 
L 690.173051 530.837955 
L 695.05772 530.837955 
L 699.942389 530.837955 
L 704.827058 530.837955 
L 709.711727 530.837955 
L 714.596396 530.837955 
L 719.481064 530.837955 
L 724.365733 530.837955 
L 729.250402 530.837955 
L 734.135071 530.837955 
L 739.01974 530.837955 
L 743.904408 530.837955 
L 748.789077 530.837955 
L 753.673746 530.837955 
L 758.558415 530.837955 
L 763.443084 530.837955 
L 768.327752 530.837955 
L 773.212421 530.837955 
L 778.09709 530.837955 
L 782.981759 530.837955 
L 787.866428 530.837955 
L 792.751097 530.837955 
L 797.635765 530.837955 
L 802.520434 530.837955 
L 807.405103 530.837955 
L 812.289772 530.837955 
L 817.174441 530.837955 
L 822.059109 530.837955 
L 826.943778 530.837955 
L 831.828447 530.837955 
L 836.713116 530.837955 
L 841.597785 530.837955 
L 846.482453 530.837955 
L 851.367122 530.837955 
L 856.251791 530.837955 
L 861.13646 530.837955 
L 866.021129 530.837955 
L 870.905798 530.837955 
L 875.790466 530.837955 
L 880.675135 530.837955 
L 885.559804 530.837955 
L 890.444473 530.837955 
L 895.329142 530.837955 
L 900.21381 530.837955 
L 905.098479 530.837955 
L 909.983148 530.837955 
L 914.867817 530.837955 
L 919.752486 530.837955 
L 924.637154 530.837955 
L 929.521823 530.837955 
L 934.406492 530.837955 
L 939.291161 530.837955 
L 944.17583 530.837955 
L 949.060499 530.837955 
L 953.945167 530.837955 
L 958.829836 530.837955 
L 963.714505 530.837955 
L 968.599174 530.837955 
L 973.483843 530.837955 
L 978.368511 530.837955 
L 983.25318 530.837955 
L 988.137849 530.837955 
L 993.022518 530.837955 
L 997.907187 530.837955 
L 1002.791856 530.837955 
L 1007.676524 530.837955 
L 1012.561193 530.837955 
L 1017.445862 530.837955 
L 1022.330531 530.837955 
L 1027.2152 530.837955 
L 1032.099868 530.837955 
L 1036.984537 530.837955 
L 1041.869206 530.837955 
L 1046.753875 530.837955 
L 1051.638544 530.837955 
L 1056.523212 530.837955 
L 1061.407881 530.837955 
L 1066.29255 530.837955 
L 1071.177219 530.837955 
L 1076.061888 530.837955 
L 1080.946557 530.837955 
L 1085.831225 530.837955 
L 1090.715894 530.837955 
L 1095.600563 530.837955 
L 1100.485232 530.837955 
L 1105.369901 530.837955 
L 1110.254569 530.837955 
L 1115.139238 530.837955 
L 1120.023907 530.837955 
L 1124.908576 530.837955 
L 1129.793245 530.837955 
L 1134.677913 530.837955 
L 1139.562582 530.837955 
L 1144.447251 530.837955 
L 1149.33192 530.837955 
L 1154.216589 530.837955 
L 1159.101258 530.837955 
L 1163.985926 530.837955 
L 1168.870595 530.837955 
L 1173.755264 530.837955 
L 1178.639933 530.837955 
L 1183.524602 530.837955 
L 1188.40927 530.837955 
L 1193.293939 530.837955 
L 1198.178608 530.837955 
L 1203.063277 530.837955 
L 1207.947946 530.837955 
L 1212.832614 530.837955 
L 1217.717283 530.837955 
L 1222.601952 530.837955 
L 1227.486621 530.837955 
L 1232.37129 530.837955 
L 1237.255959 530.837955 
L 1242.140627 530.837955 
L 1247.025296 530.837955 
L 1251.909965 530.837955 
L 1256.794634 530.837955 
L 1261.679303 530.837955 
L 1266.563971 530.837955 
L 1271.44864 530.837955 
L 1276.333309 530.837955 
L 1281.217978 530.837955 
L 1286.102647 530.837955 
L 1290.987316 530.837955 
L 1295.871984 530.837955 
L 1300.756653 530.837955 
L 1305.641322 530.837955 
L 1310.525991 530.837955 
L 1315.41066 530.837955 
L 1320.295328 530.837955 
L 1325.179997 530.837955 
L 1330.064666 530.837955 
L 1334.949335 530.837955 
L 1339.834004 530.837955 
L 1344.718672 530.837955 
L 1349.603341 530.837955 
L 1354.48801 530.837955 
L 1359.372679 530.837955 
L 1364.257348 530.837955 
L 1369.142017 530.837955 
L 1374.026685 530.837955 
L 1378.911354 530.837955 
L 1383.796023 530.837955 
L 1388.680692 530.837955 
L 1393.565361 530.837955 
L 1398.450029 530.837955 
L 1403.334698 530.837955 
L 1408.219367 530.837955 
L 1413.104036 530.837955 
L 1417.988705 530.837955 
L 1422.873373 530.837955 
L 1427.758042 530.837955 
L 1432.642711 530.837955 
L 1437.52738 530.837955 
L 1442.412049 530.837955 
L 1447.296718 530.837955 
L 1452.181386 530.837955 
L 1457.066055 530.837955 
L 1461.950724 530.837955 
L 1466.835393 530.837955 
L 1471.720062 530.837955 
L 1476.60473 530.837955 
L 1481.489399 530.837955 
L 1486.374068 530.837955 
L 1491.258737 530.837955 
L 1496.143406 530.837955 
L 1501.028074 530.837955 
L 1505.912743 530.837955 
L 1510.797412 530.837955 
L 1515.682081 530.837955 
L 1520.56675 530.837955 
L 1525.451419 530.837955 
L 1530.336087 530.837955 
L 1535.220756 530.837955 
L 1540.105425 530.837955 
L 1544.990094 530.837955 
L 1549.874763 530.837955 
L 1554.759431 530.837955 
L 1559.6441 530.837955 
L 1564.528769 530.837955 
L 1569.413438 530.837955 
L 1574.298107 530.837955 
L 1579.182776 530.837955 
L 1584.067444 530.837955 
L 1588.952113 530.837955 
L 1593.836782 530.837955 
L 1598.721451 530.837955 
L 1603.60612 530.837955 
L 1608.490788 530.837955 
L 1613.375457 530.837955 
L 1618.260126 530.837955 
L 1623.144795 530.837955 
L 1628.029464 530.837955 
L 1632.914132 530.837955 
L 1637.798801 530.837955 
L 1642.68347 530.837955 
L 1647.568139 530.837955 
L 1652.452808 530.837955 
L 1657.337477 530.837955 
L 1662.222145 530.837955 
L 1667.106814 530.837955 
L 1671.991483 530.837955 
L 1676.876152 530.837955 
L 1681.760821 530.837955 
L 1686.645489 530.837955 
L 1691.530158 530.837955 
L 1696.414827 530.837955 
L 1701.299496 530.837955 
L 1706.184165 530.837955 
L 1711.068833 530.837955 
L 1715.953502 530.837955 
L 1720.838171 530.837955 
L 1725.72284 530.837955 
L 1730.607509 530.837955 
L 1735.492178 530.837955 
L 1740.376846 530.837955 
L 1745.261515 530.837955 
L 1750.146184 530.837955 
L 1755.030853 530.837955 
L 1759.915522 530.837955 
L 1764.80019 530.837955 
L 1769.684859 530.837955 
L 1774.569528 530.837955 
L 1779.454197 530.837955 
L 1784.338866 530.837955 
L 1789.223534 530.837955 
L 1794.108203 530.837955 
L 1798.992872 530.837955 
L 1803.877541 530.837955 
L 1808.76221 530.837955 
L 1813.646879 530.837955 
L 1818.531547 530.837955 
L 1823.416216 530.837955 
L 1828.300885 530.837955 
L 1833.185554 530.837955 
L 1838.070223 530.837955 
L 1842.954891 530.837955 
L 1847.83956 530.837955 
L 1852.724229 530.837955 
L 1857.608898 530.837955 
L 1862.493567 530.837955 
L 1867.378236 530.837955 
L 1872.262904 530.837955 
L 1877.147573 530.837955 
L 1882.032242 530.837955 
L 1886.916911 530.837955 
L 1891.80158 530.837955 
L 1896.686248 530.837955 
L 1901.570917 530.837955 
L 1906.455586 530.837955 
L 1911.340255 530.837955 
L 1916.224924 530.837955 
L 1921.109592 530.837955 
L 1925.994261 530.837955 
L 1930.87893 530.837955 
L 1935.763599 530.837955 
L 1940.648268 530.837955 
L 1945.532937 530.837955 
L 1950.417605 530.837955 
L 1955.302274 530.837955 
L 1960.186943 530.837955 
L 1965.071612 530.837955 
L 1969.956281 530.837955 
L 1974.840949 530.837955 
L 1979.725618 530.837955 
L 1984.610287 530.837955 
L 1989.494956 530.837955 
L 1994.379625 530.837955 
L 1999.264293 530.837955 
L 2004.148962 530.837955 
L 2009.033631 530.837955 
L 2013.9183 530.837955 
L 2018.802969 530.837955 
L 2023.687638 530.837955 
L 2028.572306 530.837955 
L 2033.456975 530.837955 
L 2038.341644 530.837955 
L 2043.226313 530.837955 
L 2048.110982 530.837955 
L 2048.110982 529.5709 
L 2048.110982 529.5709 
L 2043.226313 529.579978 
L 2038.341644 529.606824 
L 2033.456975 529.650301 
L 2028.572306 529.708601 
L 2023.687638 529.779372 
L 2018.802969 529.859877 
L 2013.9183 529.947162 
L 2009.033631 530.038242 
L 2004.148962 530.13026 
L 1999.264293 530.220632 
L 1994.379625 530.307152 
L 1989.494956 530.388063 
L 1984.610287 530.462085 
L 1979.725618 530.528412 
L 1974.840949 530.586674 
L 1969.956281 530.636883 
L 1965.071612 530.679357 
L 1960.186943 530.714645 
L 1955.302274 530.74345 
L 1950.417605 530.76656 
L 1945.532937 530.784789 
L 1940.648268 530.798929 
L 1935.763599 530.809718 
L 1930.87893 530.817815 
L 1925.994261 530.823796 
L 1921.109592 530.828142 
L 1916.224924 530.831252 
L 1911.340255 530.833441 
L 1906.455586 530.834959 
L 1901.570917 530.835995 
L 1896.686248 530.836691 
L 1891.80158 530.837151 
L 1886.916911 530.837451 
L 1882.032242 530.837644 
L 1877.147573 530.837765 
L 1872.262904 530.837841 
L 1867.378236 530.837887 
L 1862.493567 530.837915 
L 1857.608898 530.837932 
L 1852.724229 530.837942 
L 1847.83956 530.837947 
L 1842.954891 530.837951 
L 1838.070223 530.837952 
L 1833.185554 530.837953 
L 1828.300885 530.837954 
L 1823.416216 530.837954 
L 1818.531547 530.837954 
L 1813.646879 530.837954 
L 1808.76221 530.837955 
L 1803.877541 530.837955 
L 1798.992872 530.837955 
L 1794.108203 530.837955 
L 1789.223534 530.837955 
L 1784.338866 530.837955 
L 1779.454197 530.837955 
L 1774.569528 530.837955 
L 1769.684859 530.837955 
L 1764.80019 530.837955 
L 1759.915522 530.837955 
L 1755.030853 530.837955 
L 1750.146184 530.837955 
L 1745.261515 530.837955 
L 1740.376846 530.837955 
L 1735.492178 530.837955 
L 1730.607509 530.837955 
L 1725.72284 530.837955 
L 1720.838171 530.837955 
L 1715.953502 530.837955 
L 1711.068833 530.837955 
L 1706.184165 530.837955 
L 1701.299496 530.837955 
L 1696.414827 530.837954 
L 1691.530158 530.837954 
L 1686.645489 530.837954 
L 1681.760821 530.837954 
L 1676.876152 530.837954 
L 1671.991483 530.837953 
L 1667.106814 530.837952 
L 1662.222145 530.83795 
L 1657.337477 530.837946 
L 1652.452808 530.83794 
L 1647.568139 530.837929 
L 1642.68347 530.83791 
L 1637.798801 530.837878 
L 1632.914132 530.837826 
L 1628.029464 530.83774 
L 1623.144795 530.837603 
L 1618.260126 530.837387 
L 1613.375457 530.837049 
L 1608.490788 530.83653 
L 1603.60612 530.835747 
L 1598.721451 530.83458 
L 1593.836782 530.832868 
L 1588.952113 530.830394 
L 1584.067444 530.826873 
L 1579.182776 530.821937 
L 1574.298107 530.815121 
L 1569.413438 530.805852 
L 1564.528769 530.793438 
L 1559.6441 530.777064 
L 1554.759431 530.755797 
L 1549.874763 530.728599 
L 1544.990094 530.694349 
L 1540.105425 530.651888 
L 1535.220756 530.60007 
L 1530.336087 530.537826 
L 1525.451419 530.464247 
L 1520.56675 530.37867 
L 1515.682081 530.280765 
L 1510.797412 530.170623 
L 1505.912743 530.048831 
L 1501.028074 529.916523 
L 1496.143406 529.775417 
L 1491.258737 529.627808 
L 1486.374068 529.47653 
L 1481.489399 529.324888 
L 1476.60473 529.176544 
L 1471.720062 529.035379 
L 1466.835393 528.905332 
L 1461.950724 528.790221 
L 1457.066055 528.693568 
L 1452.181386 528.618421 
L 1447.296718 528.56721 
L 1442.412049 528.541613 
L 1437.52738 528.542479 
L 1432.642711 528.569781 
L 1427.758042 528.622612 
L 1422.873373 528.699241 
L 1417.988705 528.797196 
L 1413.104036 528.913392 
L 1408.219367 529.044282 
L 1403.334698 529.186035 
L 1398.450029 529.334711 
L 1393.565361 529.486437 
L 1388.680692 529.637572 
L 1383.796023 529.784838 
L 1378.911354 529.925434 
L 1374.026685 530.057101 
L 1369.142017 530.178162 
L 1364.257348 530.287516 
L 1359.372679 530.38461 
L 1354.48801 530.469383 
L 1349.603341 530.542186 
L 1344.718672 530.603697 
L 1339.834004 530.654833 
L 1334.949335 530.696659 
L 1330.064666 530.730311 
L 1325.179997 530.756925 
L 1320.295328 530.777584 
L 1315.41066 530.793274 
L 1310.525991 530.804854 
L 1305.641322 530.813037 
L 1300.756653 530.81838 
L 1295.871984 530.821274 
L 1290.987316 530.82195 
L 1286.102647 530.820477 
L 1281.217978 530.816764 
L 1276.333309 530.810568 
L 1271.44864 530.801498 
L 1266.563971 530.78903 
L 1261.679303 530.772519 
L 1256.794634 530.751226 
L 1251.909965 530.724348 
L 1247.025296 530.691064 
L 1242.140627 530.650588 
L 1237.255959 530.602231 
L 1232.37129 530.545467 
L 1227.486621 530.480007 
L 1222.601952 530.405862 
L 1217.717283 530.323398 
L 1212.832614 530.233367 
L 1207.947946 530.136918 
L 1203.063277 530.035572 
L 1198.178608 529.931167 
L 1193.293939 529.825774 
L 1188.40927 529.721577 
L 1183.524602 529.62075 
L 1178.639933 529.525322 
L 1173.755264 529.437049 
L 1168.870595 529.357322 
L 1163.985926 529.287097 
L 1159.101258 529.22688 
L 1154.216589 529.176757 
L 1149.33192 529.136462 
L 1144.447251 529.105491 
L 1139.562582 529.083228 
L 1134.677913 529.069077 
L 1129.793245 529.062581 
L 1124.908576 529.063506 
L 1120.023907 529.071886 
L 1115.139238 529.088018 
L 1110.254569 529.112401 
L 1105.369901 529.14565 
L 1100.485232 529.188365 
L 1095.600563 529.241002 
L 1090.715894 529.303747 
L 1085.831225 529.376415 
L 1080.946557 529.458386 
L 1076.061888 529.548592 
L 1071.177219 529.645543 
L 1066.29255 529.747401 
L 1061.407881 529.852085 
L 1056.523212 529.957403 
L 1051.638544 530.061177 
L 1046.753875 530.161375 
L 1041.869206 530.256212 
L 1036.984537 530.34423 
L 1032.099868 530.424338 
L 1027.2152 530.495828 
L 1022.330531 530.558347 
L 1017.445862 530.611857 
L 1012.561193 530.656564 
L 1007.676524 530.692848 
L 1002.791856 530.721178 
L 997.907187 530.742042 
L 993.022518 530.755873 
L 988.137849 530.763002 
L 983.25318 530.763617 
L 978.368511 530.757743 
L 973.483843 530.745246 
L 968.599174 530.72585 
L 963.714505 530.699178 
L 958.829836 530.664806 
L 953.945167 530.622334 
L 949.060499 530.571473 
L 944.17583 530.512126 
L 939.291161 530.444482 
L 934.406492 530.369085 
L 929.521823 530.286904 
L 924.637154 530.199357 
L 919.752486 530.108318 
L 914.867817 530.016078 
L 909.983148 529.92526 
L 905.098479 529.838705 
L 900.21381 529.759318 
L 895.329142 529.689889 
L 890.444473 529.632905 
L 885.559804 529.590369 
L 880.675135 529.563631 
L 875.790466 529.553264 
L 870.905798 529.558978 
L 866.021129 529.579597 
L 861.13646 529.613085 
L 856.251791 529.656639 
L 851.367122 529.70682 
L 846.482453 529.75973 
L 841.597785 529.81121 
L 836.713116 529.857042 
L 831.828447 529.893158 
L 826.943778 529.915818 
L 822.059109 529.921767 
L 817.174441 529.90835 
L 812.289772 529.873593 
L 807.405103 529.816241 
L 802.520434 529.73576 
L 797.635765 529.6323 
L 792.751097 529.506648 
L 787.866428 529.360153 
L 782.981759 529.194648 
L 778.09709 529.01238 
L 773.212421 528.815943 
L 768.327752 528.608235 
L 763.443084 528.392426 
L 758.558415 528.171948 
L 753.673746 527.950491 
L 748.789077 527.732008 
L 743.904408 527.520695 
L 739.01974 527.320967 
L 734.135071 527.137379 
L 729.250402 526.974517 
L 724.365733 526.836837 
L 719.481064 526.728459 
L 714.596396 526.652936 
L 709.711727 526.613003 
L 704.827058 526.61034 
L 699.942389 526.645374 
L 695.05772 526.71714 
L 690.173051 526.823229 
L 685.288383 526.959834 
L 680.403714 527.1219 
L 675.519045 527.303375 
L 670.634376 527.497533 
L 665.749707 527.697361 
L 660.865039 527.895964 
L 655.98037 528.086951 
L 651.095701 528.264782 
L 646.211032 528.42503 
L 641.326363 528.564544 
L 636.441694 528.681503 
L 631.557026 528.775359 
L 626.672357 528.846676 
L 621.787688 528.896893 
L 616.903019 528.928042 
L 612.01835 528.94243 
L 607.133682 528.942345 
L 602.249013 528.929797 
L 597.364344 528.906316 
L 592.479675 528.872826 
L 587.595006 528.829598 
L 582.710338 528.776282 
L 577.825669 528.711997 
L 572.941 528.635478 
L 568.056331 528.545254 
L 563.171662 528.439834 
L 558.286993 528.3179 
L 553.402325 528.178475 
L 548.517656 528.02107 
L 543.632987 527.845795 
L 538.748318 527.653434 
L 533.863649 527.445483 
L 528.978981 527.224142 
L 524.094312 526.992268 
L 519.209643 526.753286 
L 514.324974 526.511045 
L 509.440305 526.269649 
L 504.555637 526.033227 
L 499.670968 525.805684 
L 494.786299 525.59043 
L 489.90163 525.390097 
L 485.016961 525.206276 
L 480.132292 525.039287 
L 475.247624 524.888005 
L 470.362955 524.749754 
L 465.478286 524.620289 
L 460.593617 524.493871 
L 455.708948 524.363419 
L 450.82428 524.220755 
L 445.939611 524.056896 
L 441.054942 523.862401 
L 436.170273 523.627716 
L 431.285604 523.343515 
L 426.400936 523.000995 
L 421.516267 522.592099 
L 416.631598 522.109645 
L 411.746929 521.547342 
L 406.86226 520.899671 
L 401.977591 520.161627 
L 397.092923 519.328315 
L 392.208254 518.39441 
L 387.323585 517.353479 
L 382.438916 516.197206 
L 377.554247 514.914541 
L 372.669579 513.490808 
L 367.78491 511.906841 
L 362.900241 510.138188 
L 358.015572 508.154439 
L 353.130903 505.91877 
L 348.246234 503.387713 
L 343.361566 500.511246 
L 338.476897 497.233211 
L 333.592228 493.49208 
L 328.707559 489.222089 
L 323.82289 484.354685 
L 318.938222 478.820279 
L 314.053553 472.550213 
L 309.168884 465.478887 
L 304.284215 457.545957 
L 299.399546 448.698514 
L 294.514878 438.893182 
L 289.630209 428.098042 
L 284.74554 416.294359 
L 279.860871 403.478061 
L 274.976202 389.660963 
L 270.091533 374.871743 
L 265.206865 359.156694 
L 260.322196 342.580276 
L 255.437527 325.225503 
L 250.552858 307.194195 
L 245.668189 288.607113 
L 240.783521 269.603968 
L 235.898852 250.343296 
L 231.014183 231.002127 
L 226.129514 211.775401 
L 221.244845 192.875007 
L 216.360177 174.528339 
L 211.475508 156.976249 
L 206.590839 140.470259 
L 201.70617 125.268948 
L 196.821501 111.633418 
L 191.936832 99.821844 
L 187.052164 90.083125 
L 182.167495 82.649761 
L 177.282826 77.730154 
L 172.398157 75.500603 
L 167.513488 76.09735 
L 162.62882 79.609091 
L 157.744151 86.070403 
L 152.859482 95.456565 
L 147.974813 107.680215 
L 143.090144 122.590236 
L 138.205476 139.973164 
L 133.320807 159.55728 
L 128.436138 181.019387 
L 123.551469 203.994094 
L 118.6668 228.085242 
L 113.782131 252.878944 
L 108.897463 277.957565 
L 104.012794 302.913888 
L 99.128125 327.364658 
z
" clip-path="url(#peb0597dc24)" style="fill: #4285f4; fill-opacity: 0.35"/>
   </g>
   <g id="line2d_15">
    <path d="M 99.128125 327.364658 
L 108.897463 277.957565 
L 118.6668 228.085242 
L 123.551469 203.994094 
L 128.436138 181.019387 
L 133.320807 159.55728 
L 138.205476 139.973164 
L 143.090144 122.590236 
L 147.974813 107.680215 
L 152.859482 95.456565 
L 157.744151 86.070403 
L 162.62882 79.609091 
L 167.513488 76.09735 
L 172.398157 75.500603 
L 177.282826 77.730154 
L 182.167495 82.649761 
L 187.052164 90.083125 
L 191.936832 99.821844 
L 196.821501 111.633418 
L 201.70617 125.268948 
L 206.590839 140.470259 
L 211.475508 156.976249 
L 216.360177 174.528339 
L 221.244845 192.875007 
L 231.014183 231.002127 
L 245.668189 288.607113 
L 250.552858 307.194195 
L 255.437527 325.225503 
L 260.322196 342.580276 
L 265.206865 359.156694 
L 270.091533 374.871743 
L 274.976202 389.660963 
L 279.860871 403.478061 
L 284.74554 416.294359 
L 289.630209 428.098042 
L 294.514878 438.893182 
L 299.399546 448.698514 
L 304.284215 457.545957 
L 309.168884 465.478887 
L 314.053553 472.550213 
L 318.938222 478.820279 
L 323.82289 484.354685 
L 328.707559 489.222089 
L 333.592228 493.49208 
L 338.476897 497.233211 
L 343.361566 500.511246 
L 348.246234 503.387713 
L 353.130903 505.91877 
L 358.015572 508.154439 
L 362.900241 510.138188 
L 367.78491 511.906841 
L 372.669579 513.490808 
L 377.554247 514.914541 
L 382.438916 516.197206 
L 387.323585 517.353479 
L 397.092923 519.328315 
L 406.86226 520.899671 
L 416.631598 522.109645 
L 426.400936 523.000995 
L 436.170273 523.627716 
L 450.82428 524.220755 
L 494.786299 525.59043 
L 524.094312 526.992268 
L 543.632987 527.845795 
L 563.171662 528.439834 
L 582.710338 528.776282 
L 607.133682 528.942345 
L 626.672357 528.846676 
L 642.225455 528.538864 
L 642.225455 528.538864 
" clip-path="url(#peb0597dc24)" style="fill: none; stroke: #4285f4; stroke-width: 2.5; stroke-linecap: square"/>
   </g>
   <g id="patch_3">
    <path d="M 99.128125 530.837955 
L 99.128125 7.2 
" style="fill: none; stroke: #000000; stroke-width: 1.5; stroke-linejoin: miter; stroke-linecap: square"/>
   </g>
   <g id="patch_4">
    <path d="M 622.76608 530.837955 
L 622.76608 7.2 
" style="fill: none; stroke: #000000; stroke-width: 1.5; stroke-linejoin: miter; stroke-linecap: square"/>
   </g>
   <g id="patch_5">
    <path d="M 99.128125 530.837955 
L 622.76608 530.837955 
" style="fill: none; stroke: #000000; stroke-width: 1.5; stroke-linejoin: miter; stroke-linecap: square"/>
   </g>
   <g id="patch_6">
    <path d="M 99.128125 7.2 
L 622.76608 7.2 
" style="fill: none; stroke: #000000; stroke-width: 1.5; stroke-linejoin: miter; stroke-linecap: square"/>
   </g>
  </g>
 </g>
 <defs>
  <clipPath id="peb0597dc24">
   <rect x="99.128125" y="7.2" width="523.637955" height="523.637955"/>
  </clipPath>
 </defs>
</svg>
