<?xml version="1.0" encoding="utf-8" standalone="no"?>
<!DOCTYPE svg PUBLIC "-//W3C//DTD SVG 1.1//EN"
  "http://www.w3.org/Graphics/SVG/1.1/DTD/svg11.dtd">
<svg xmlns:xlink="http://www.w3.org/1999/xlink" width="566.241186pt" height="548.524003pt" viewBox="0 0 566.241186 548.524003" xmlns="http://www.w3.org/2000/svg" version="1.1">
 <metadata>
  <rdf:RDF xmlns:dc="http://purl.org/dc/elements/1.1/" xmlns:cc="http://creativecommons.org/ns#" xmlns:rdf="http://www.w3.org/1999/02/22-rdf-syntax-ns#">
   <cc:Work>
    <dc:type rdf:resource="http://purl.org/dc/dcmitype/StillImage"/>
    <dc:date>2026-05-25T12:01:31.853424</dc:date>
    <dc:format>image/svg+xml</dc:format>
    <dc:creator>
     <cc:Agent>
      <dc:title>Matplotlib v3.10.0, https://matplotlib.org/</dc:title>
     </cc:Agent>
    </dc:creator>
   </cc:Work>
  </rdf:RDF>
 </metadata>
 <defs>
  <style type="text/css">*{stroke-linejoin: round; stroke-linecap: butt}</style>
 </defs>
 <g id="figure_1">
  <g id="patch_1">
   <path d="M 0 548.524003 
L 566.241186 548.524003 
L 566.241186 0 
L 0 0 
z
" style="fill: #ffffff"/>
  </g>
  <g id="axes_1">
   <g id="patch_2">
    <path d="M 72.68 491.726503 
L 557.206503 491.726503 
L 557.206503 7.2 
L 72.68 7.2 
z
" style="fill: #ffffff"/>
   </g>
   <g id="matplotlib.axis_1">
    <g id="xtick_1">
     <g id="line2d_1">
      <path d="M 81.997817 491.726503 
L 81.997817 7.2 
" clip-path="url(#p833df3c2db)" style="fill: none; stroke: #e8eaed; stroke-opacity: 0.9; stroke-width: 0.8; stroke-linecap: square"/>
     </g>
     <g id="line2d_2">
      <defs>
       <path id="m5bd60d9645" d="M 0 0 
L 0 4 
" style="stroke: #000000; stroke-width: 0.8"/>
      </defs>
      <g>
       <use xlink:href="#m5bd60d9645" x="81.997817" y="491.726503" style="stroke: #000000; stroke-width: 0.8"/>
      </g>
     </g>
     <g id="text_1">
      <!-- 0.0 -->
      <g transform="translate(70.841567 511.414003) scale(0.16 -0.16)">
       <defs>
        <path id="Roboto-Regular-30" d="M 3250 1734 
Q 3250 863 2864 398 
Q 2478 -66 1806 -66 
Q 1134 -66 743 400 
Q 353 866 353 1734 
L 353 2813 
Q 353 3681 742 4148 
Q 1131 4616 1800 4616 
Q 2472 4616 2861 4148 
Q 3250 3681 3250 2813 
L 3250 1734 
z
M 2634 2944 
Q 2634 3534 2420 3832 
Q 2206 4131 1800 4131 
Q 1394 4131 1181 3832 
Q 969 3534 969 2944 
L 969 1609 
Q 969 1019 1184 717 
Q 1400 416 1806 416 
Q 2213 416 2423 716 
Q 2634 1016 2634 1609 
L 2634 2944 
z
" transform="scale(0.015625)"/>
        <path id="Roboto-Regular-2e" d="M 1119 0 
L 503 0 
L 503 631 
L 1119 631 
L 1119 0 
z
" transform="scale(0.015625)"/>
       </defs>
       <use xlink:href="#Roboto-Regular-30"/>
       <use xlink:href="#Roboto-Regular-2e" transform="translate(56.347656 0)"/>
       <use xlink:href="#Roboto-Regular-30" transform="translate(83.105469 0)"/>
      </g>
     </g>
    </g>
    <g id="xtick_2">
     <g id="line2d_3">
      <path d="M 175.175991 491.726503 
L 175.175991 7.2 
" clip-path="url(#p833df3c2db)" style="fill: none; stroke: #e8eaed; stroke-opacity: 0.9; stroke-width: 0.8; stroke-linecap: square"/>
     </g>
     <g id="line2d_4">
      <g>
       <use xlink:href="#m5bd60d9645" x="175.175991" y="491.726503" style="stroke: #000000; stroke-width: 0.8"/>
      </g>
     </g>
     <g id="text_2">
      <!-- 0.2 -->
      <g transform="translate(164.023491 511.414003) scale(0.16 -0.16)">
       <defs>
        <path id="Roboto-Regular-32" d="M 3319 0 
L 369 0 
L 369 422 
L 1859 2078 
Q 2259 2525 2401 2787 
Q 2544 3050 2544 3325 
Q 2544 3666 2345 3898 
Q 2147 4131 1819 4131 
Q 1347 4131 1123 3889 
Q 900 3647 900 3209 
L 309 3209 
L 303 3228 
Q 288 3816 694 4216 
Q 1100 4616 1819 4616 
Q 2431 4616 2795 4258 
Q 3159 3900 3159 3347 
Q 3159 2975 2939 2601 
Q 2719 2228 2322 1800 
L 1125 497 
L 1131 481 
L 3319 481 
L 3319 0 
z
" transform="scale(0.015625)"/>
       </defs>
       <use xlink:href="#Roboto-Regular-30"/>
       <use xlink:href="#Roboto-Regular-2e" transform="translate(56.347656 0)"/>
       <use xlink:href="#Roboto-Regular-32" transform="translate(83.105469 0)"/>
      </g>
     </g>
    </g>
    <g id="xtick_3">
     <g id="line2d_5">
      <path d="M 268.354165 491.726503 
L 268.354165 7.2 
" clip-path="url(#p833df3c2db)" style="fill: none; stroke: #e8eaed; stroke-opacity: 0.9; stroke-width: 0.8; stroke-linecap: square"/>
     </g>
     <g id="line2d_6">
      <g>
       <use xlink:href="#m5bd60d9645" x="268.354165" y="491.726503" style="stroke: #000000; stroke-width: 0.8"/>
      </g>
     </g>
     <g id="text_3">
      <!-- 0.4 -->
      <g transform="translate(257.201665 511.414003) scale(0.16 -0.16)">
       <defs>
        <path id="Roboto-Regular-34" d="M 2828 1531 
L 3456 1531 
L 3456 1050 
L 2828 1050 
L 2828 0 
L 2216 0 
L 2216 1050 
L 172 1050 
L 172 1397 
L 2178 4550 
L 2828 4550 
L 2828 1531 
z
M 828 1531 
L 2216 1531 
L 2216 3666 
L 2197 3669 
L 2138 3513 
L 828 1531 
z
" transform="scale(0.015625)"/>
       </defs>
       <use xlink:href="#Roboto-Regular-30"/>
       <use xlink:href="#Roboto-Regular-2e" transform="translate(56.347656 0)"/>
       <use xlink:href="#Roboto-Regular-34" transform="translate(83.105469 0)"/>
      </g>
     </g>
    </g>
    <g id="xtick_4">
     <g id="line2d_7">
      <path d="M 361.532339 491.726503 
L 361.532339 7.2 
" clip-path="url(#p833df3c2db)" style="fill: none; stroke: #e8eaed; stroke-opacity: 0.9; stroke-width: 0.8; stroke-linecap: square"/>
     </g>
     <g id="line2d_8">
      <g>
       <use xlink:href="#m5bd60d9645" x="361.532339" y="491.726503" style="stroke: #000000; stroke-width: 0.8"/>
      </g>
     </g>
     <g id="text_4">
      <!-- 0.6 -->
      <g transform="translate(350.379839 511.414003) scale(0.16 -0.16)">
       <defs>
        <path id="Roboto-Regular-36" d="M 2109 4616 
Q 2344 4616 2573 4562 
Q 2803 4509 2953 4428 
L 2822 3956 
Q 2669 4034 2501 4082 
Q 2334 4131 2109 4131 
Q 1622 4131 1323 3740 
Q 1025 3350 1025 2722 
L 1025 2650 
Q 1225 2825 1483 2923 
Q 1741 3022 2038 3022 
Q 2647 3022 3009 2600 
Q 3372 2178 3372 1531 
Q 3372 825 2986 379 
Q 2600 -66 1956 -66 
Q 1288 -66 850 418 
Q 413 903 413 1784 
L 413 2653 
Q 413 3528 900 4072 
Q 1388 4616 2109 4616 
z
M 1900 2563 
Q 1584 2563 1362 2434 
Q 1141 2306 1025 2094 
L 1025 1725 
Q 1025 1097 1290 756 
Q 1556 416 1956 416 
Q 2334 416 2545 736 
Q 2756 1056 2756 1531 
Q 2756 1981 2529 2272 
Q 2303 2563 1900 2563 
z
" transform="scale(0.015625)"/>
       </defs>
       <use xlink:href="#Roboto-Regular-30"/>
       <use xlink:href="#Roboto-Regular-2e" transform="translate(56.347656 0)"/>
       <use xlink:href="#Roboto-Regular-36" transform="translate(83.105469 0)"/>
      </g>
     </g>
    </g>
    <g id="xtick_5">
     <g id="line2d_9">
      <path d="M 454.710512 491.726503 
L 454.710512 7.2 
" clip-path="url(#p833df3c2db)" style="fill: none; stroke: #e8eaed; stroke-opacity: 0.9; stroke-width: 0.8; stroke-linecap: square"/>
     </g>
     <g id="line2d_10">
      <g>
       <use xlink:href="#m5bd60d9645" x="454.710512" y="491.726503" style="stroke: #000000; stroke-width: 0.8"/>
      </g>
     </g>
     <g id="text_5">
      <!-- 0.8 -->
      <g transform="translate(443.558012 511.414003) scale(0.16 -0.16)">
       <defs>
        <path id="Roboto-Regular-38" d="M 3156 3363 
Q 3156 3006 2956 2739 
Q 2756 2472 2416 2341 
Q 2809 2203 3045 1909 
Q 3281 1616 3281 1231 
Q 3281 600 2870 267 
Q 2459 -66 1803 -66 
Q 1134 -66 726 267 
Q 319 600 319 1231 
Q 319 1616 550 1909 
Q 781 2203 1175 2341 
Q 834 2472 640 2739 
Q 447 3006 447 3363 
Q 447 3963 817 4289 
Q 1188 4616 1797 4616 
Q 2397 4616 2776 4289 
Q 3156 3963 3156 3363 
z
M 2669 1244 
Q 2669 1619 2422 1859 
Q 2175 2100 1797 2100 
Q 1413 2100 1173 1859 
Q 934 1619 934 1244 
Q 934 856 1171 636 
Q 1409 416 1803 416 
Q 2188 416 2428 637 
Q 2669 859 2669 1244 
z
M 2541 3350 
Q 2541 3688 2330 3909 
Q 2119 4131 1797 4131 
Q 1469 4131 1266 3917 
Q 1063 3703 1063 3350 
Q 1063 3003 1267 2793 
Q 1472 2584 1803 2584 
Q 2128 2584 2334 2793 
Q 2541 3003 2541 3350 
z
" transform="scale(0.015625)"/>
       </defs>
       <use xlink:href="#Roboto-Regular-30"/>
       <use xlink:href="#Roboto-Regular-2e" transform="translate(56.347656 0)"/>
       <use xlink:href="#Roboto-Regular-38" transform="translate(83.105469 0)"/>
      </g>
     </g>
    </g>
    <g id="xtick_6">
     <g id="line2d_11">
      <path d="M 547.888686 491.726503 
L 547.888686 7.2 
" clip-path="url(#p833df3c2db)" style="fill: none; stroke: #e8eaed; stroke-opacity: 0.9; stroke-width: 0.8; stroke-linecap: square"/>
     </g>
     <g id="line2d_12">
      <g>
       <use xlink:href="#m5bd60d9645" x="547.888686" y="491.726503" style="stroke: #000000; stroke-width: 0.8"/>
      </g>
     </g>
     <g id="text_6">
      <!-- 1.0 -->
      <g transform="translate(536.736186 511.414003) scale(0.16 -0.16)">
       <defs>
        <path id="Roboto-Regular-31" d="M 2128 0 
L 1513 0 
L 1513 3950 
L 581 3938 
L 581 4381 
L 2128 4550 
L 2128 0 
z
" transform="scale(0.015625)"/>
       </defs>
       <use xlink:href="#Roboto-Regular-31"/>
       <use xlink:href="#Roboto-Regular-2e" transform="translate(56.298828 0)"/>
       <use xlink:href="#Roboto-Regular-30" transform="translate(83.056641 0)"/>
      </g>
     </g>
    </g>
    <g id="text_7">
     <!-- $x_1$  (mole fraction of component 1) -->
     <g style="fill: #202124" transform="translate(144.773252 536.264003) scale(0.22 -0.22)">
      <defs>
       <path id="Cmmi10-78" d="M 500 184 
Q 613 97 819 97 
Q 1019 97 1172 289 
Q 1325 481 1381 709 
L 1672 1844 
Q 1741 2153 1741 2266 
Q 1741 2425 1652 2544 
Q 1563 2663 1403 2663 
Q 1200 2663 1022 2536 
Q 844 2409 722 2214 
Q 600 2019 550 1819 
Q 538 1778 500 1778 
L 422 1778 
Q 372 1778 372 1838 
L 372 1856 
Q 434 2094 584 2320 
Q 734 2547 951 2687 
Q 1169 2828 1416 2828 
Q 1650 2828 1839 2703 
Q 2028 2578 2106 2363 
Q 2216 2559 2386 2693 
Q 2556 2828 2759 2828 
Q 2897 2828 3040 2779 
Q 3184 2731 3275 2631 
Q 3366 2531 3366 2381 
Q 3366 2219 3261 2101 
Q 3156 1984 2994 1984 
Q 2891 1984 2822 2050 
Q 2753 2116 2753 2216 
Q 2753 2350 2845 2451 
Q 2938 2553 3066 2572 
Q 2950 2663 2747 2663 
Q 2541 2663 2389 2472 
Q 2238 2281 2175 2047 
L 1894 916 
Q 1825 659 1825 494 
Q 1825 331 1917 214 
Q 2009 97 2163 97 
Q 2463 97 2698 361 
Q 2934 625 3009 941 
Q 3022 978 3059 978 
L 3138 978 
Q 3163 978 3178 961 
Q 3194 944 3194 922 
Q 3194 916 3188 903 
Q 3097 522 2806 225 
Q 2516 -72 2150 -72 
Q 1916 -72 1727 54 
Q 1538 181 1459 397 
Q 1359 209 1182 68 
Q 1006 -72 806 -72 
Q 669 -72 523 -23 
Q 378 25 287 125 
Q 197 225 197 378 
Q 197 528 301 651 
Q 406 775 563 775 
Q 669 775 741 711 
Q 813 647 813 544 
Q 813 409 723 309 
Q 634 209 500 184 
z
" transform="scale(0.015625)"/>
       <path id="Cmr10-31" d="M 594 0 
L 594 225 
Q 1394 225 1394 428 
L 1394 3788 
Q 1063 3628 556 3628 
L 556 3853 
Q 1341 3853 1741 4263 
L 1831 4263 
Q 1853 4263 1873 4245 
Q 1894 4228 1894 4206 
L 1894 428 
Q 1894 225 2694 225 
L 2694 0 
L 594 0 
z
" transform="scale(0.015625)"/>
       <path id="Roboto-Regular-20" transform="scale(0.015625)"/>
       <path id="Roboto-Regular-28" d="M 413 1847 
Q 413 3078 909 3950 
Q 1406 4822 1953 5113 
L 1972 5109 
L 2091 4747 
Q 1663 4413 1345 3675 
Q 1028 2938 1028 1853 
L 1028 1813 
Q 1028 728 1343 -9 
Q 1659 -747 2091 -1109 
L 1972 -1447 
L 1953 -1447 
Q 1406 -1156 909 -286 
Q 413 584 413 1819 
L 413 1847 
z
" transform="scale(0.015625)"/>
       <path id="Roboto-Regular-6d" d="M 997 3381 
L 1041 2938 
Q 1206 3178 1461 3311 
Q 1716 3444 2053 3444 
Q 2391 3444 2633 3287 
Q 2875 3131 2997 2819 
Q 3156 3106 3418 3275 
Q 3681 3444 4031 3444 
Q 4547 3444 4847 3089 
Q 5147 2734 5147 2022 
L 5147 0 
L 4531 0 
L 4531 2028 
Q 4531 2528 4359 2736 
Q 4188 2944 3847 2944 
Q 3531 2944 3336 2725 
Q 3141 2506 3106 2172 
L 3106 2147 
L 3106 0 
L 2488 0 
L 2488 2028 
Q 2488 2503 2311 2723 
Q 2134 2944 1803 2944 
Q 1522 2944 1340 2828 
Q 1159 2713 1063 2503 
L 1063 0 
L 447 0 
L 447 3381 
L 997 3381 
z
" transform="scale(0.015625)"/>
       <path id="Roboto-Regular-6f" d="M 303 1722 
Q 303 2472 709 2958 
Q 1116 3444 1813 3444 
Q 2516 3444 2923 2959 
Q 3331 2475 3331 1722 
L 3331 1653 
Q 3331 897 2925 415 
Q 2519 -66 1819 -66 
Q 1119 -66 711 417 
Q 303 900 303 1653 
L 303 1722 
z
M 919 1653 
Q 919 1116 1145 766 
Q 1372 416 1819 416 
Q 2259 416 2487 766 
Q 2716 1116 2716 1653 
L 2716 1722 
Q 2716 2253 2486 2606 
Q 2256 2959 1813 2959 
Q 1372 2959 1145 2606 
Q 919 2253 919 1722 
L 919 1653 
z
" transform="scale(0.015625)"/>
       <path id="Roboto-Regular-6c" d="M 1113 0 
L 497 0 
L 497 4875 
L 1113 4875 
L 1113 0 
z
" transform="scale(0.015625)"/>
       <path id="Roboto-Regular-65" d="M 1850 -66 
Q 1144 -66 726 404 
Q 309 875 309 1625 
L 309 1763 
Q 309 2484 739 2964 
Q 1169 3444 1756 3444 
Q 2441 3444 2791 3031 
Q 3141 2619 3141 1931 
L 3141 1547 
L 947 1547 
L 938 1531 
Q 947 1044 1184 730 
Q 1422 416 1850 416 
Q 2163 416 2398 505 
Q 2634 594 2806 750 
L 3047 350 
Q 2866 172 2569 53 
Q 2272 -66 1850 -66 
z
M 1756 2959 
Q 1447 2959 1228 2698 
Q 1009 2438 959 2044 
L 966 2028 
L 2525 2028 
L 2525 2109 
Q 2525 2472 2331 2715 
Q 2138 2959 1756 2959 
z
" transform="scale(0.015625)"/>
       <path id="Roboto-Regular-66" d="M 703 0 
L 703 2925 
L 175 2925 
L 175 3381 
L 703 3381 
L 703 3809 
Q 703 4350 986 4645 
Q 1269 4941 1775 4941 
Q 1881 4941 1989 4923 
Q 2097 4906 2228 4875 
L 2153 4406 
Q 2097 4419 2017 4428 
Q 1938 4438 1850 4438 
Q 1581 4438 1450 4277 
Q 1319 4116 1319 3809 
L 1319 3381 
L 2022 3381 
L 2022 2925 
L 1319 2925 
L 1319 0 
L 703 0 
z
" transform="scale(0.015625)"/>
       <path id="Roboto-Regular-72" d="M 2047 2838 
L 1731 2856 
Q 1488 2856 1320 2740 
Q 1153 2625 1063 2416 
L 1063 0 
L 447 0 
L 447 3381 
L 997 3381 
L 1056 2888 
Q 1200 3150 1411 3297 
Q 1622 3444 1897 3444 
Q 1966 3444 2028 3433 
Q 2091 3422 2131 3409 
L 2047 2838 
z
" transform="scale(0.015625)"/>
       <path id="Roboto-Regular-61" d="M 2525 0 
Q 2494 153 2476 270 
Q 2459 388 2456 506 
Q 2284 263 2007 98 
Q 1731 -66 1413 -66 
Q 884 -66 607 204 
Q 331 475 331 950 
Q 331 1434 723 1707 
Q 1116 1981 1788 1981 
L 2456 1981 
L 2456 2316 
Q 2456 2613 2275 2786 
Q 2094 2959 1763 2959 
Q 1466 2959 1280 2807 
Q 1094 2656 1094 2444 
L 506 2444 
L 500 2463 
Q 481 2831 848 3137 
Q 1216 3444 1797 3444 
Q 2372 3444 2722 3151 
Q 3072 2859 3072 2309 
L 3072 681 
Q 3072 500 3090 331 
Q 3109 163 3159 0 
L 2525 0 
z
M 1503 450 
Q 1838 450 2106 622 
Q 2375 794 2456 1016 
L 2456 1566 
L 1766 1566 
Q 1394 1566 1170 1378 
Q 947 1191 947 938 
Q 947 713 1087 581 
Q 1228 450 1503 450 
z
" transform="scale(0.015625)"/>
       <path id="Roboto-Regular-63" d="M 1822 416 
Q 2128 416 2361 605 
Q 2594 794 2594 1069 
L 3147 1069 
L 3153 1050 
Q 3169 613 2764 273 
Q 2359 -66 1822 -66 
Q 1084 -66 693 415 
Q 303 897 303 1625 
L 303 1756 
Q 303 2478 695 2961 
Q 1088 3444 1822 3444 
Q 2416 3444 2792 3094 
Q 3169 2744 3156 2234 
L 3150 2216 
L 2594 2216 
Q 2594 2525 2375 2742 
Q 2156 2959 1822 2959 
Q 1338 2959 1130 2611 
Q 922 2263 922 1756 
L 922 1625 
Q 922 1106 1128 761 
Q 1334 416 1822 416 
z
" transform="scale(0.015625)"/>
       <path id="Roboto-Regular-74" d="M 1259 4197 
L 1259 3381 
L 1900 3381 
L 1900 2925 
L 1259 2925 
L 1259 872 
Q 1259 634 1357 537 
Q 1456 441 1619 441 
Q 1672 441 1736 453 
Q 1800 466 1850 484 
L 1931 63 
Q 1863 6 1730 -30 
Q 1597 -66 1463 -66 
Q 1088 -66 866 161 
Q 644 388 644 872 
L 644 2925 
L 106 2925 
L 106 3381 
L 644 3381 
L 644 4197 
L 1259 4197 
z
" transform="scale(0.015625)"/>
       <path id="Roboto-Regular-69" d="M 1113 0 
L 497 0 
L 497 3381 
L 1113 3381 
L 1113 0 
z
M 1113 4247 
L 497 4247 
L 497 4875 
L 1113 4875 
L 1113 4247 
z
" transform="scale(0.015625)"/>
       <path id="Roboto-Regular-6e" d="M 997 3381 
L 1041 2878 
Q 1209 3147 1464 3295 
Q 1719 3444 2044 3444 
Q 2591 3444 2891 3123 
Q 3191 2803 3191 2134 
L 3191 0 
L 2575 0 
L 2575 2122 
Q 2575 2569 2398 2756 
Q 2222 2944 1859 2944 
Q 1594 2944 1389 2816 
Q 1184 2688 1063 2466 
L 1063 0 
L 447 0 
L 447 3381 
L 997 3381 
z
" transform="scale(0.015625)"/>
       <path id="Roboto-Regular-70" d="M 3328 1563 
Q 3328 831 2978 382 
Q 2628 -66 2013 -66 
Q 1700 -66 1464 39 
Q 1228 144 1063 353 
L 1063 -1300 
L 447 -1300 
L 447 3381 
L 919 3381 
L 1016 2944 
Q 1181 3188 1428 3316 
Q 1675 3444 2003 3444 
Q 2631 3444 2979 2945 
Q 3328 2447 3328 1628 
L 3328 1563 
z
M 2713 1628 
Q 2713 2203 2486 2573 
Q 2259 2944 1819 2944 
Q 1553 2944 1365 2823 
Q 1178 2703 1063 2494 
L 1063 859 
Q 1178 650 1365 533 
Q 1553 416 1825 416 
Q 2263 416 2488 736 
Q 2713 1056 2713 1563 
L 2713 1628 
z
" transform="scale(0.015625)"/>
       <path id="Roboto-Regular-29" d="M 1697 1819 
Q 1697 584 1198 -286 
Q 700 -1156 156 -1447 
L 138 -1447 
L 19 -1109 
Q 441 -781 761 -29 
Q 1081 722 1081 1813 
L 1081 1853 
Q 1081 2922 751 3676 
Q 422 4431 19 4775 
L 138 5113 
L 156 5113 
Q 700 4822 1198 3950 
Q 1697 3078 1697 1847 
L 1697 1819 
z
" transform="scale(0.015625)"/>
      </defs>
      <use xlink:href="#Cmmi10-78" transform="translate(0 0.109375)"/>
      <use xlink:href="#Cmr10-31" transform="translate(57.080078 -16.896875) scale(0.7)"/>
      <use xlink:href="#Roboto-Regular-20" transform="translate(98.457422 0.109375)"/>
      <use xlink:href="#Roboto-Regular-20" transform="translate(123.310937 0.109375)"/>
      <use xlink:href="#Roboto-Regular-28" transform="translate(148.164453 0.109375)"/>
      <use xlink:href="#Roboto-Regular-6d" transform="translate(181.31875 0.109375)"/>
      <use xlink:href="#Roboto-Regular-6f" transform="translate(268.721094 0.109375)"/>
      <use xlink:href="#Roboto-Regular-6c" transform="translate(325.557031 0.109375)"/>
      <use xlink:href="#Roboto-Regular-65" transform="translate(350.752344 0.109375)"/>
      <use xlink:href="#Roboto-Regular-20" transform="translate(403.633203 0.109375)"/>
      <use xlink:href="#Roboto-Regular-66" transform="translate(428.486719 0.109375)"/>
      <use xlink:href="#Roboto-Regular-72" transform="translate(463.008203 0.109375)"/>
      <use xlink:href="#Roboto-Regular-61" transform="translate(497.285547 0.109375)"/>
      <use xlink:href="#Roboto-Regular-63" transform="translate(552.266016 0.109375)"/>
      <use xlink:href="#Roboto-Regular-74" transform="translate(605.342188 0.109375)"/>
      <use xlink:href="#Roboto-Regular-69" transform="translate(639.9125 0.109375)"/>
      <use xlink:href="#Roboto-Regular-6f" transform="translate(665.107813 0.109375)"/>
      <use xlink:href="#Roboto-Regular-6e" transform="translate(721.94375 0.109375)"/>
      <use xlink:href="#Roboto-Regular-20" transform="translate(778.779688 0.109375)"/>
      <use xlink:href="#Roboto-Regular-6f" transform="translate(803.633203 0.109375)"/>
      <use xlink:href="#Roboto-Regular-66" transform="translate(860.469141 0.109375)"/>
      <use xlink:href="#Roboto-Regular-20" transform="translate(894.990625 0.109375)"/>
      <use xlink:href="#Roboto-Regular-63" transform="translate(919.844141 0.109375)"/>
      <use xlink:href="#Roboto-Regular-6f" transform="translate(972.920313 0.109375)"/>
      <use xlink:href="#Roboto-Regular-6d" transform="translate(1029.75625 0.109375)"/>
      <use xlink:href="#Roboto-Regular-70" transform="translate(1117.158594 0.109375)"/>
      <use xlink:href="#Roboto-Regular-6f" transform="translate(1173.994531 0.109375)"/>
      <use xlink:href="#Roboto-Regular-6e" transform="translate(1230.830469 0.109375)"/>
      <use xlink:href="#Roboto-Regular-65" transform="translate(1287.666406 0.109375)"/>
      <use xlink:href="#Roboto-Regular-6e" transform="translate(1340.547266 0.109375)"/>
      <use xlink:href="#Roboto-Regular-74" transform="translate(1397.383203 0.109375)"/>
      <use xlink:href="#Roboto-Regular-20" transform="translate(1431.953516 0.109375)"/>
      <use xlink:href="#Roboto-Regular-31" transform="translate(1456.807031 0.109375)"/>
      <use xlink:href="#Roboto-Regular-29" transform="translate(1513.105859 0.109375)"/>
     </g>
    </g>
   </g>
   <g id="matplotlib.axis_2">
    <g id="ytick_1">
     <g id="line2d_13">
      <path d="M 72.68 469.702572 
L 557.206503 469.702572 
" clip-path="url(#p833df3c2db)" style="fill: none; stroke: #e8eaed; stroke-opacity: 0.9; stroke-width: 0.8; stroke-linecap: square"/>
     </g>
     <g id="line2d_14">
      <defs>
       <path id="m30f82e7ec3" d="M 0 0 
L -4 0 
" style="stroke: #000000; stroke-width: 0.8"/>
      </defs>
      <g>
       <use xlink:href="#m30f82e7ec3" x="72.68" y="469.702572" style="stroke: #000000; stroke-width: 0.8"/>
      </g>
     </g>
     <g id="text_8">
      <!-- 10.0 -->
      <g transform="translate(33.86 475.796322) scale(0.16 -0.16)">
       <use xlink:href="#Roboto-Regular-31"/>
       <use xlink:href="#Roboto-Regular-30" transform="translate(56.298828 0)"/>
       <use xlink:href="#Roboto-Regular-2e" transform="translate(112.646484 0)"/>
       <use xlink:href="#Roboto-Regular-30" transform="translate(139.404297 0)"/>
      </g>
     </g>
    </g>
    <g id="ytick_2">
     <g id="line2d_15">
      <path d="M 72.68 381.606844 
L 557.206503 381.606844 
" clip-path="url(#p833df3c2db)" style="fill: none; stroke: #e8eaed; stroke-opacity: 0.9; stroke-width: 0.8; stroke-linecap: square"/>
     </g>
     <g id="line2d_16">
      <g>
       <use xlink:href="#m30f82e7ec3" x="72.68" y="381.606844" style="stroke: #000000; stroke-width: 0.8"/>
      </g>
     </g>
     <g id="text_9">
      <!-- 20.0 -->
      <g transform="translate(33.86 387.700594) scale(0.16 -0.16)">
       <use xlink:href="#Roboto-Regular-32"/>
       <use xlink:href="#Roboto-Regular-30" transform="translate(56.298828 0)"/>
       <use xlink:href="#Roboto-Regular-2e" transform="translate(112.646484 0)"/>
       <use xlink:href="#Roboto-Regular-30" transform="translate(139.404297 0)"/>
      </g>
     </g>
    </g>
    <g id="ytick_3">
     <g id="line2d_17">
      <path d="M 72.68 293.511116 
L 557.206503 293.511116 
" clip-path="url(#p833df3c2db)" style="fill: none; stroke: #e8eaed; stroke-opacity: 0.9; stroke-width: 0.8; stroke-linecap: square"/>
     </g>
     <g id="line2d_18">
      <g>
       <use xlink:href="#m30f82e7ec3" x="72.68" y="293.511116" style="stroke: #000000; stroke-width: 0.8"/>
      </g>
     </g>
     <g id="text_10">
      <!-- 30.0 -->
      <g transform="translate(33.86 299.604866) scale(0.16 -0.16)">
       <defs>
        <path id="Roboto-Regular-33" d="M 1213 2559 
L 1750 2559 
Q 2159 2559 2329 2764 
Q 2500 2969 2500 3334 
Q 2500 3725 2306 3928 
Q 2113 4131 1734 4131 
Q 1375 4131 1158 3920 
Q 941 3709 941 3359 
L 350 3359 
L 344 3378 
Q 328 3894 717 4255 
Q 1106 4616 1734 4616 
Q 2366 4616 2741 4280 
Q 3116 3944 3116 3322 
Q 3116 3041 2945 2761 
Q 2775 2481 2434 2334 
Q 2844 2200 3014 1912 
Q 3184 1625 3184 1269 
Q 3184 647 2776 290 
Q 2369 -66 1734 -66 
Q 1113 -66 705 270 
Q 297 606 313 1181 
L 322 1200 
L 909 1200 
Q 909 841 1129 628 
Q 1350 416 1734 416 
Q 2125 416 2347 628 
Q 2569 841 2569 1256 
Q 2569 1678 2372 1878 
Q 2175 2078 1750 2078 
L 1213 2078 
L 1213 2559 
z
" transform="scale(0.015625)"/>
       </defs>
       <use xlink:href="#Roboto-Regular-33"/>
       <use xlink:href="#Roboto-Regular-30" transform="translate(56.298828 0)"/>
       <use xlink:href="#Roboto-Regular-2e" transform="translate(112.646484 0)"/>
       <use xlink:href="#Roboto-Regular-30" transform="translate(139.404297 0)"/>
      </g>
     </g>
    </g>
    <g id="ytick_4">
     <g id="line2d_19">
      <path d="M 72.68 205.415388 
L 557.206503 205.415388 
" clip-path="url(#p833df3c2db)" style="fill: none; stroke: #e8eaed; stroke-opacity: 0.9; stroke-width: 0.8; stroke-linecap: square"/>
     </g>
     <g id="line2d_20">
      <g>
       <use xlink:href="#m30f82e7ec3" x="72.68" y="205.415388" style="stroke: #000000; stroke-width: 0.8"/>
      </g>
     </g>
     <g id="text_11">
      <!-- 40.0 -->
      <g transform="translate(33.86 211.509138) scale(0.16 -0.16)">
       <use xlink:href="#Roboto-Regular-34"/>
       <use xlink:href="#Roboto-Regular-30" transform="translate(56.298828 0)"/>
       <use xlink:href="#Roboto-Regular-2e" transform="translate(112.646484 0)"/>
       <use xlink:href="#Roboto-Regular-30" transform="translate(139.404297 0)"/>
      </g>
     </g>
    </g>
    <g id="ytick_5">
     <g id="line2d_21">
      <path d="M 72.68 117.31966 
L 557.206503 117.31966 
" clip-path="url(#p833df3c2db)" style="fill: none; stroke: #e8eaed; stroke-opacity: 0.9; stroke-width: 0.8; stroke-linecap: square"/>
     </g>
     <g id="line2d_22">
      <g>
       <use xlink:href="#m30f82e7ec3" x="72.68" y="117.31966" style="stroke: #000000; stroke-width: 0.8"/>
      </g>
     </g>
     <g id="text_12">
      <!-- 50.0 -->
      <g transform="translate(33.86 123.41341) scale(0.16 -0.16)">
       <defs>
        <path id="Roboto-Regular-35" d="M 547 2053 
L 809 4550 
L 3088 4550 
L 3088 4003 
L 1331 4003 
L 1181 2725 
Q 1325 2831 1501 2901 
Q 1678 2972 1909 2978 
Q 2538 2984 2898 2568 
Q 3259 2153 3259 1450 
Q 3259 766 2892 350 
Q 2525 -66 1822 -66 
Q 1244 -66 859 250 
Q 475 566 491 1178 
L 497 1197 
L 1053 1197 
Q 1053 825 1267 620 
Q 1481 416 1822 416 
Q 2213 416 2428 691 
Q 2644 966 2644 1444 
Q 2644 1881 2425 2162 
Q 2206 2444 1822 2444 
Q 1459 2444 1296 2334 
Q 1134 2225 1059 2000 
L 547 2053 
z
" transform="scale(0.015625)"/>
       </defs>
       <use xlink:href="#Roboto-Regular-35"/>
       <use xlink:href="#Roboto-Regular-30" transform="translate(56.298828 0)"/>
       <use xlink:href="#Roboto-Regular-2e" transform="translate(112.646484 0)"/>
       <use xlink:href="#Roboto-Regular-30" transform="translate(139.404297 0)"/>
      </g>
     </g>
    </g>
    <g id="ytick_6">
     <g id="line2d_23">
      <path d="M 72.68 29.223932 
L 557.206503 29.223932 
" clip-path="url(#p833df3c2db)" style="fill: none; stroke: #e8eaed; stroke-opacity: 0.9; stroke-width: 0.8; stroke-linecap: square"/>
     </g>
     <g id="line2d_24">
      <g>
       <use xlink:href="#m30f82e7ec3" x="72.68" y="29.223932" style="stroke: #000000; stroke-width: 0.8"/>
      </g>
     </g>
     <g id="text_13">
      <!-- 60.0 -->
      <g transform="translate(33.86 35.317682) scale(0.16 -0.16)">
       <use xlink:href="#Roboto-Regular-36"/>
       <use xlink:href="#Roboto-Regular-30" transform="translate(56.298828 0)"/>
       <use xlink:href="#Roboto-Regular-2e" transform="translate(112.646484 0)"/>
       <use xlink:href="#Roboto-Regular-30" transform="translate(139.404297 0)"/>
      </g>
     </g>
    </g>
    <g id="text_14">
     <!-- $\eta_m$  (k cP) -->
     <g style="fill: #202124" transform="translate(24.8 296.543252) rotate(-90) scale(0.22 -0.22)">
      <defs>
       <path id="Cmmi10-b4" d="M 684 -72 
Q 606 -72 550 -22 
Q 494 28 494 109 
Q 494 147 500 166 
L 978 2075 
Q 1025 2253 1025 2388 
Q 1025 2663 838 2663 
Q 638 2663 541 2423 
Q 444 2184 353 1819 
Q 353 1800 334 1789 
Q 316 1778 300 1778 
L 225 1778 
Q 203 1778 187 1801 
Q 172 1825 172 1844 
Q 241 2122 305 2315 
Q 369 2509 505 2668 
Q 641 2828 844 2828 
Q 1081 2828 1267 2678 
Q 1453 2528 1453 2291 
Q 1641 2541 1894 2684 
Q 2147 2828 2444 2828 
Q 2778 2828 2979 2648 
Q 3181 2469 3181 2138 
Q 3181 1947 3138 1784 
L 2394 -1178 
Q 2375 -1269 2300 -1325 
Q 2225 -1381 2131 -1381 
Q 2053 -1381 1997 -1332 
Q 1941 -1284 1941 -1203 
Q 1941 -1166 1947 -1153 
L 2681 1797 
Q 2747 2059 2747 2234 
Q 2747 2413 2672 2538 
Q 2597 2663 2431 2663 
Q 1803 2663 1388 1888 
L 953 141 
Q 931 53 854 -9 
Q 778 -72 684 -72 
z
" transform="scale(0.015625)"/>
       <path id="Cmmi10-6d" d="M 494 109 
Q 494 147 500 166 
L 978 2075 
Q 1025 2253 1025 2388 
Q 1025 2663 838 2663 
Q 638 2663 541 2423 
Q 444 2184 353 1819 
Q 353 1800 334 1789 
Q 316 1778 300 1778 
L 225 1778 
Q 203 1778 187 1801 
Q 172 1825 172 1844 
Q 241 2122 305 2315 
Q 369 2509 505 2668 
Q 641 2828 844 2828 
Q 1084 2828 1268 2676 
Q 1453 2525 1453 2291 
Q 1644 2541 1900 2684 
Q 2156 2828 2444 2828 
Q 2747 2828 2967 2673 
Q 3188 2519 3188 2234 
Q 3384 2513 3648 2670 
Q 3913 2828 4225 2828 
Q 4556 2828 4757 2648 
Q 4959 2469 4959 2138 
Q 4959 1875 4842 1503 
Q 4725 1131 4550 672 
Q 4459 450 4459 288 
Q 4459 97 4609 97 
Q 4859 97 5025 365 
Q 5191 634 5259 941 
Q 5278 978 5313 978 
L 5388 978 
Q 5413 978 5430 961 
Q 5447 944 5447 922 
Q 5447 916 5441 903 
Q 5353 541 5136 234 
Q 4919 -72 4594 -72 
Q 4369 -72 4209 83 
Q 4050 238 4050 459 
Q 4050 572 4103 709 
Q 4284 1191 4404 1569 
Q 4525 1947 4525 2234 
Q 4525 2413 4453 2538 
Q 4381 2663 4213 2663 
Q 3863 2663 3606 2448 
Q 3350 2234 3163 1881 
Q 3150 1819 3144 1784 
L 2731 141 
Q 2709 53 2632 -9 
Q 2556 -72 2463 -72 
Q 2388 -72 2330 -22 
Q 2272 28 2272 109 
Q 2272 147 2278 166 
L 2688 1797 
Q 2753 2059 2753 2234 
Q 2753 2413 2679 2538 
Q 2606 2663 2431 2663 
Q 2197 2663 2000 2559 
Q 1803 2456 1656 2286 
Q 1509 2116 1388 1881 
L 953 141 
Q 931 53 854 -9 
Q 778 -72 684 -72 
Q 606 -72 550 -22 
Q 494 28 494 109 
z
" transform="scale(0.015625)"/>
       <path id="Roboto-Regular-6b" d="M 1466 1559 
L 1066 1559 
L 1066 0 
L 450 0 
L 450 4875 
L 1066 4875 
L 1066 2050 
L 1459 2050 
L 2384 3381 
L 3122 3381 
L 1966 1844 
L 3288 0 
L 2563 0 
L 1466 1559 
z
" transform="scale(0.015625)"/>
       <path id="Roboto-Regular-50" d="M 1178 1825 
L 1178 0 
L 563 0 
L 563 4550 
L 2303 4550 
Q 3031 4550 3434 4175 
Q 3838 3800 3838 3188 
Q 3838 2566 3434 2195 
Q 3031 1825 2303 1825 
L 1178 1825 
z
M 1178 2306 
L 2303 2306 
Q 2766 2306 2994 2554 
Q 3222 2803 3222 3181 
Q 3222 3559 2992 3812 
Q 2763 4066 2303 4066 
L 1178 4066 
L 1178 2306 
z
" transform="scale(0.015625)"/>
      </defs>
      <use xlink:href="#Cmmi10-b4" transform="translate(0 0.109375)"/>
      <use xlink:href="#Cmmi10-6d" transform="translate(49.609375 -16.896875) scale(0.7)"/>
      <use xlink:href="#Roboto-Regular-20" transform="translate(117.441797 0.109375)"/>
      <use xlink:href="#Roboto-Regular-20" transform="translate(142.295312 0.109375)"/>
      <use xlink:href="#Roboto-Regular-28" transform="translate(167.148828 0.109375)"/>
      <use xlink:href="#Roboto-Regular-6b" transform="translate(200.303125 0.109375)"/>
      <use xlink:href="#Roboto-Regular-20" transform="translate(251.572656 0.109375)"/>
      <use xlink:href="#Roboto-Regular-63" transform="translate(276.426172 0.109375)"/>
      <use xlink:href="#Roboto-Regular-50" transform="translate(329.502344 0.109375)"/>
      <use xlink:href="#Roboto-Regular-29" transform="translate(393.564844 0.109375)"/>
     </g>
    </g>
   </g>
   <g id="line2d_25">
    <path d="M 81.997817 29.223932 
L 89.46701 44.716365 
L 96.936202 59.737545 
L 104.405394 74.302316 
L 111.874587 88.425043 
L 119.343779 102.11962 
L 126.812971 115.399492 
L 135.215812 129.859824 
L 143.618654 143.829629 
L 152.021495 157.32614 
L 160.424336 170.365965 
L 168.827178 182.965108 
L 177.230019 195.138995 
L 185.63286 206.902493 
L 194.035702 218.269932 
L 202.438543 229.255123 
L 210.841384 239.871381 
L 219.244226 250.131541 
L 227.647067 260.047976 
L 236.049908 269.632614 
L 244.45275 278.896956 
L 252.855591 287.85209 
L 261.258432 296.508709 
L 270.594923 305.789588 
L 279.931413 314.728257 
L 289.267903 323.337787 
L 298.604394 331.630733 
L 307.940884 339.619155 
L 317.277374 347.314637 
L 326.613865 354.728309 
L 335.950355 361.870863 
L 345.286845 368.752571 
L 355.556985 376.032941 
L 365.827124 383.02222 
L 376.097264 389.732465 
L 386.367403 396.175219 
L 396.637542 402.361529 
L 406.907682 408.30197 
L 418.11147 414.513926 
L 429.315259 420.457879 
L 440.519047 426.14581 
L 451.722835 431.589144 
L 462.926624 436.798779 
L 475.064061 442.190873 
L 487.201499 447.333474 
L 499.338936 452.238543 
L 511.476374 456.917446 
L 524.54746 461.715716 
L 537.618547 466.277015 
L 547.888686 469.702572 
L 547.888686 469.702572 
" clip-path="url(#p833df3c2db)" style="fill: none; stroke: #4285f4; stroke-width: 2.4; stroke-linecap: square"/>
   </g>
   <g id="patch_3">
    <path d="M 72.68 491.726503 
L 72.68 7.2 
" style="fill: none; stroke: #000000; stroke-width: 1.5; stroke-linejoin: miter; stroke-linecap: square"/>
   </g>
   <g id="patch_4">
    <path d="M 557.206503 491.726503 
L 557.206503 7.2 
" style="fill: none; stroke: #000000; stroke-width: 1.5; stroke-linejoin: miter; stroke-linecap: square"/>
   </g>
   <g id="patch_5">
    <path d="M 72.68 491.726503 
L 557.206503 491.726503 
" style="fill: none; stroke: #000000; stroke-width: 1.5; stroke-linejoin: miter; stroke-linecap: square"/>
   </g>
   <g id="patch_6">
    <path d="M 72.68 7.2 
L 557.206503 7.2 
" style="fill: none; stroke: #000000; stroke-width: 1.5; stroke-linejoin: miter; stroke-linecap: square"/>
   </g>
   <g id="PathCollection_1">
    <defs>
     <path id="mdd0c16554a" d="M 0 3.708099 
C 0.983399 3.708099 1.926654 3.317391 2.622022 2.622022 
C 3.317391 1.926654 3.708099 0.983399 3.708099 0 
C 3.708099 -0.983399 3.317391 -1.926654 2.622022 -2.622022 
C 1.926654 -3.317391 0.983399 -3.708099 0 -3.708099 
C -0.983399 -3.708099 -1.926654 -3.317391 -2.622022 -2.622022 
C -3.317391 -1.926654 -3.708099 -0.983399 -3.708099 0 
C -3.708099 0.983399 -3.317391 1.926654 -2.622022 2.622022 
C -1.926654 3.317391 -0.983399 3.708099 0 3.708099 
z
" style="stroke: #ffffff; stroke-width: 0.8"/>
    </defs>
    <g clip-path="url(#p833df3c2db)">
     <use xlink:href="#mdd0c16554a" x="81.997817" y="29.223932" style="fill: #4285f4; stroke: #ffffff; stroke-width: 0.8"/>
     <use xlink:href="#mdd0c16554a" x="547.888686" y="469.702572" style="fill: #4285f4; stroke: #ffffff; stroke-width: 0.8"/>
    </g>
   </g>
   <g id="legend_1">
    <g id="patch_7">
     <path d="M 367.926503 42.17 
L 548.106503 42.17 
Q 550.706503 42.17 550.706503 39.57 
L 550.706503 16.3 
Q 550.706503 13.7 548.106503 13.7 
L 367.926503 13.7 
Q 365.326503 13.7 365.326503 16.3 
L 365.326503 39.57 
Q 365.326503 42.17 367.926503 42.17 
z
" style="fill: #ffffff; opacity: 0.95; stroke: #dadce0; stroke-linejoin: miter"/>
    </g>
    <g id="line2d_26">
     <path d="M 373.126503 26.96 
L 386.126503 26.96 
L 399.126503 26.96 
" style="fill: none; stroke: #4285f4; stroke-width: 2.4; stroke-linecap: square"/>
    </g>
    <g id="text_15">
     <!-- $\eta_1=10.0$, $\eta_2=60.0$ k cP -->
     <g transform="translate(409.526503 31.51) scale(0.13 -0.13)">
      <defs>
       <path id="Cmr10-3d" d="M 481 850 
Q 428 850 393 890 
Q 359 931 359 978 
Q 359 1031 393 1068 
Q 428 1106 481 1106 
L 4500 1106 
Q 4547 1106 4581 1068 
Q 4616 1031 4616 978 
Q 4616 931 4581 890 
Q 4547 850 4500 850 
L 481 850 
z
M 481 2094 
Q 428 2094 393 2131 
Q 359 2169 359 2222 
Q 359 2269 393 2309 
Q 428 2350 481 2350 
L 4500 2350 
Q 4547 2350 4581 2309 
Q 4616 2269 4616 2222 
Q 4616 2169 4581 2131 
Q 4547 2094 4500 2094 
L 481 2094 
z
" transform="scale(0.015625)"/>
       <path id="Cmr10-30" d="M 1600 -141 
Q 816 -141 533 504 
Q 250 1150 250 2041 
Q 250 2597 351 3087 
Q 453 3578 754 3920 
Q 1056 4263 1600 4263 
Q 2022 4263 2290 4056 
Q 2559 3850 2700 3523 
Q 2841 3197 2892 2823 
Q 2944 2450 2944 2041 
Q 2944 1491 2842 1011 
Q 2741 531 2444 195 
Q 2147 -141 1600 -141 
z
M 1600 25 
Q 1956 25 2131 390 
Q 2306 756 2347 1200 
Q 2388 1644 2388 2144 
Q 2388 2625 2347 3031 
Q 2306 3438 2132 3767 
Q 1959 4097 1600 4097 
Q 1238 4097 1063 3765 
Q 888 3434 847 3029 
Q 806 2625 806 2144 
Q 806 1788 823 1472 
Q 841 1156 916 820 
Q 991 484 1158 254 
Q 1325 25 1600 25 
z
" transform="scale(0.015625)"/>
       <path id="Cmmi10-3a" d="M 538 353 
Q 538 497 644 600 
Q 750 703 891 703 
Q 978 703 1062 656 
Q 1147 609 1194 525 
Q 1241 441 1241 353 
Q 1241 213 1137 106 
Q 1034 0 891 0 
Q 750 0 644 106 
Q 538 213 538 353 
z
" transform="scale(0.015625)"/>
       <path id="Roboto-Regular-2c" d="M 984 150 
L 516 -806 
L 150 -806 
L 369 181 
L 369 691 
L 984 691 
L 984 150 
z
" transform="scale(0.015625)"/>
       <path id="Cmr10-32" d="M 319 0 
L 319 172 
Q 319 188 331 206 
L 1325 1306 
Q 1550 1550 1690 1715 
Q 1831 1881 1968 2097 
Q 2106 2313 2186 2536 
Q 2266 2759 2266 3009 
Q 2266 3272 2169 3511 
Q 2072 3750 1880 3894 
Q 1688 4038 1416 4038 
Q 1138 4038 916 3870 
Q 694 3703 603 3438 
Q 628 3444 672 3444 
Q 816 3444 917 3347 
Q 1019 3250 1019 3097 
Q 1019 2950 917 2848 
Q 816 2747 672 2747 
Q 522 2747 420 2851 
Q 319 2956 319 3097 
Q 319 3338 409 3548 
Q 500 3759 670 3923 
Q 841 4088 1055 4175 
Q 1269 4263 1509 4263 
Q 1875 4263 2190 4108 
Q 2506 3953 2690 3670 
Q 2875 3388 2875 3009 
Q 2875 2731 2753 2481 
Q 2631 2231 2440 2026 
Q 2250 1822 1953 1562 
Q 1656 1303 1563 1216 
L 838 519 
L 1453 519 
Q 1906 519 2211 526 
Q 2516 534 2534 550 
Q 2609 631 2688 1141 
L 2875 1141 
L 2694 0 
L 319 0 
z
" transform="scale(0.015625)"/>
       <path id="Cmr10-36" d="M 1600 -141 
Q 1203 -141 937 70 
Q 672 281 526 617 
Q 381 953 325 1322 
Q 269 1691 269 2069 
Q 269 2575 466 3084 
Q 663 3594 1045 3928 
Q 1428 4263 1953 4263 
Q 2172 4263 2361 4180 
Q 2550 4097 2658 3936 
Q 2766 3775 2766 3547 
Q 2766 3416 2677 3327 
Q 2588 3238 2456 3238 
Q 2331 3238 2240 3328 
Q 2150 3419 2150 3547 
Q 2150 3672 2240 3762 
Q 2331 3853 2456 3853 
L 2491 3853 
Q 2409 3969 2261 4023 
Q 2113 4078 1953 4078 
Q 1759 4078 1595 3993 
Q 1431 3909 1300 3765 
Q 1169 3622 1081 3448 
Q 994 3275 945 3053 
Q 897 2831 884 2637 
Q 872 2444 872 2150 
Q 984 2413 1190 2580 
Q 1397 2747 1656 2747 
Q 1941 2747 2175 2631 
Q 2409 2516 2578 2311 
Q 2747 2106 2836 1843 
Q 2925 1581 2925 1313 
Q 2925 938 2758 598 
Q 2591 259 2287 59 
Q 1984 -141 1600 -141 
z
M 1600 63 
Q 1847 63 1997 175 
Q 2147 288 2217 473 
Q 2288 659 2305 848 
Q 2322 1038 2322 1313 
Q 2322 1675 2287 1931 
Q 2253 2188 2100 2383 
Q 1947 2578 1631 2578 
Q 1372 2578 1205 2403 
Q 1038 2228 961 1961 
Q 884 1694 884 1447 
Q 884 1363 891 1319 
Q 891 1309 889 1303 
Q 888 1297 884 1288 
Q 884 1013 940 731 
Q 997 450 1156 256 
Q 1316 63 1600 63 
z
" transform="scale(0.015625)"/>
      </defs>
      <use xlink:href="#Cmmi10-b4" transform="translate(0 0.828125)"/>
      <use xlink:href="#Cmr10-31" transform="translate(49.609375 -16.178125) scale(0.7)"/>
      <use xlink:href="#Cmr10-3d" transform="translate(108.545312 0.828125)"/>
      <use xlink:href="#Cmr10-31" transform="translate(203.789453 0.828125)"/>
      <use xlink:href="#Cmr10-30" transform="translate(253.789453 0.828125)"/>
      <use xlink:href="#Cmmi10-3a" transform="translate(303.789453 0.828125)"/>
      <use xlink:href="#Cmr10-30" transform="translate(331.475 0.828125)"/>
      <use xlink:href="#Roboto-Regular-2c" transform="translate(381.475 0.828125)"/>
      <use xlink:href="#Roboto-Regular-20" transform="translate(401.201563 0.828125)"/>
      <use xlink:href="#Cmmi10-b4" transform="translate(426.055078 0.828125)"/>
      <use xlink:href="#Cmr10-32" transform="translate(475.664453 -16.178125) scale(0.7)"/>
      <use xlink:href="#Cmr10-3d" transform="translate(534.600391 0.828125)"/>
      <use xlink:href="#Cmr10-36" transform="translate(629.844531 0.828125)"/>
      <use xlink:href="#Cmr10-30" transform="translate(679.844531 0.828125)"/>
      <use xlink:href="#Cmmi10-3a" transform="translate(729.844531 0.828125)"/>
      <use xlink:href="#Cmr10-30" transform="translate(757.530078 0.828125)"/>
      <use xlink:href="#Roboto-Regular-20" transform="translate(807.530078 0.828125)"/>
      <use xlink:href="#Roboto-Regular-6b" transform="translate(832.383594 0.828125)"/>
      <use xlink:href="#Roboto-Regular-20" transform="translate(883.653125 0.828125)"/>
      <use xlink:href="#Roboto-Regular-63" transform="translate(908.506641 0.828125)"/>
      <use xlink:href="#Roboto-Regular-50" transform="translate(961.582813 0.828125)"/>
     </g>
    </g>
   </g>
  </g>
 </g>
 <defs>
  <clipPath id="p833df3c2db">
   <rect x="72.68" y="7.2" width="484.526503" height="484.526503"/>
  </clipPath>
 </defs>
</svg>
