<svg width="1240" height="1260" viewBox="0 0 1240 1260" xmlns="http://www.w3.org/2000/svg">

  <defs>
    <style>
      .bg { fill: #FFFFFF; }
      .box { rx: 18; ry: 18; stroke-width: 1.5; }
      .title { font: 600 24px Google Sans, Arial, sans-serif; text-anchor: middle; }
      .text { font: 22px Google Sans, Arial, sans-serif; fill: #3C4043; }
      .arrow { fill: none; stroke: #3C4043; stroke-width: 2; marker-end: url(#arrowhead); }
      .icon-bg { fill: #FFFFFF; stroke-width: 1.5; }
      .icon-line { fill: none; stroke-width: 2; stroke-linecap: round; stroke-linejoin: round; }
      .icon-fill { stroke: none; }
    </style>

    <marker id="arrowhead" markerWidth="8" markerHeight="8" refX="7" refY="4" orient="auto">
      <polyline points="1.5,1.5 7,4 1.5,6.5" fill="none" stroke="#3C4043" stroke-width="1.6" stroke-linecap="round" stroke-linejoin="round"/>
    </marker>

    <filter id="shadow">
      <feDropShadow dx="0" dy="2" stdDeviation="3" flood-color="#000000" flood-opacity="0.12"/>
    </filter>
  </defs>

  <rect x="0" y="0" width="1240" height="1260" class="bg"/>

  <!-- 1 SYSTEM INITIALIZATION (LEFT COLUMN) -->
  <rect x="80" y="40" width="541" height="170" fill="#E8F0FE" stroke="#1A73E8" class="box" filter="url(#shadow)"/>
  <line x1="167" y1="100" x2="167" y2="190" stroke="#DADCE0" stroke-width="1.5"/>
  <text x="350" y="75" class="title" fill="#1A73E8">1. System Initialization</text>
  <text x="185" y="105" class="text">• CNC homing</text>
  <text x="185" y="128" class="text">• Viscometer initialization</text>
  <text x="185" y="151" class="text">• Pump / washing station initialization</text>
  <text x="185" y="174" class="text">• Runtime parameter loading</text>
  <g transform="translate(-385 47)">
  <circle cx="515" cy="78" r="28" class="icon-bg" stroke="#1A73E8"/>
  <circle cx="515" cy="78" r="23" fill="none" stroke="#D2E3FC" stroke-width="2"/>
  <circle cx="515" cy="78" r="9" class="icon-line" stroke="#1A73E8"/>
  <line x1="515" y1="58" x2="515" y2="66" class="icon-line" stroke="#1A73E8"/>
  <line x1="515" y1="90" x2="515" y2="98" class="icon-line" stroke="#1A73E8"/>
  <line x1="495" y1="78" x2="503" y2="78" class="icon-line" stroke="#1A73E8"/>
  <line x1="527" y1="78" x2="535" y2="78" class="icon-line" stroke="#1A73E8"/>
  <line x1="501" y1="64" x2="506" y2="69" class="icon-line" stroke="#1A73E8"/>
  <line x1="524" y1="87" x2="529" y2="92" class="icon-line" stroke="#1A73E8"/>
  </g>

  <!-- 2 CALIBRATION (RIGHT COLUMN) -->
  <rect x="680" y="40" width="541" height="170" fill="#E6F4EA" stroke="#188038" class="box" filter="url(#shadow)"/>
  <line x1="767" y1="100" x2="767" y2="190" stroke="#DADCE0" stroke-width="1.5"/>
  <text x="950" y="75" class="title" fill="#188038">2. Calibration / Recalibration</text>
  <text x="785" y="105" class="text">• Determine per-cell safe Z positions</text>
  <text x="785" y="128" class="text">• Establish spindle-floor reference heights</text>
  <text x="785" y="151" class="text">• Store calibration map</text>
  <g transform="translate(-335 47)">
  <circle cx="1065" cy="78" r="23" fill="none" stroke="#CEEAD6" stroke-width="2"/>
  <circle cx="1065" cy="78" r="14" class="icon-line" stroke="#188038"/>
  <circle cx="1065" cy="78" r="7" class="icon-line" stroke="#188038"/>
  <line x1="1065" y1="56" x2="1065" y2="64" class="icon-line" stroke="#188038"/>
  <line x1="1065" y1="92" x2="1065" y2="100" class="icon-line" stroke="#188038"/>
  <line x1="1043" y1="78" x2="1051" y2="78" class="icon-line" stroke="#188038"/>
  <line x1="1079" y1="78" x2="1087" y2="78" class="icon-line" stroke="#188038"/>
  </g>

  <!-- 3 SAMPLE SELECTION (LEFT COLUMN) -->
  <rect x="80" y="250" width="541" height="150" fill="#FEF7E0" stroke="#F9AB00" class="box" filter="url(#shadow)"/>
  <line x1="167" y1="300" x2="167" y2="380" stroke="#DADCE0" stroke-width="1.5"/>
  <text x="350" y="285" class="title" fill="#F9AB00">3. Sample Cell Selection</text>
  <text x="185" y="315" class="text">• Full tray / row / custom cells</text>
  <text x="185" y="338" class="text">• Assign RPM profiles</text>
  <g transform="translate(-385 37)">
  <circle cx="515" cy="288" r="28" class="icon-bg" stroke="#F9AB00"/>
  <circle cx="515" cy="288" r="23" fill="none" stroke="#FEEFC3" stroke-width="2"/>
  <rect x="500" y="272" width="30" height="30" fill="none" stroke="#F9AB00" stroke-width="2" rx="4"/>
  <line x1="506" y1="280" x2="524" y2="280" class="icon-line" stroke="#F9AB00"/>
  <polyline points="506,289 510,293 518,285" class="icon-line" stroke="#F9AB00"/>
  <polyline points="506,298 510,302 518,294" class="icon-line" stroke="#F9AB00"/>
  </g>

  <!-- 4 Z DESCENT (RIGHT COLUMN) -->
  <rect x="680" y="250" width="541" height="150" fill="#E8F0FE" stroke="#1A73E8" class="box" filter="url(#shadow)"/>
  <line x1="767" y1="300" x2="767" y2="380" stroke="#DADCE0" stroke-width="1.5"/>
  <text x="950" y="285" class="title" fill="#1A73E8">4. Automated Z-Descent Characterization</text>
  <text x="785" y="315" class="text">• Move spindle above sample</text>
  <text x="785" y="338" class="text">• Incremental Z-step descent</text>
  <text x="785" y="361" class="text">• Maintain controlled spindle-floor gap</text>
  <g transform="translate(-335 37)">
  <circle cx="1065" cy="288" r="23" fill="none" stroke="#D2E3FC" stroke-width="2"/>
  <line x1="1065" y1="268" x2="1065" y2="295" class="icon-line" stroke="#1A73E8"/>
  <polyline points="1055,287 1065,297 1075,287" class="icon-line" stroke="#1A73E8"/>
  <line x1="1054" y1="303" x2="1076" y2="303" class="icon-line" stroke="#1A73E8"/>
  </g>

  <!-- 5 RPM SWEEP (LEFT COLUMN) -->
  <rect x="80" y="450" width="541" height="170" fill="#F3E8FD" stroke="#A142F4" class="box" filter="url(#shadow)"/>
  <line x1="167" y1="500" x2="167" y2="600" stroke="#DADCE0" stroke-width="1.5"/>
  <text x="350" y="485" class="title" fill="#A142F4">5. RPM Sweep &amp; Torque Acquisition</text>
  <text x="185" y="515" class="text">• Apply rotational speeds</text>
  <text x="185" y="538" class="text">• Measure torque vs time</text>
  <text x="185" y="561" class="text">• Compute rotational drag</text>
  <text x="185" y="584" class="text">• Live data streaming</text>
  <g transform="translate(-385 47)">
  <circle cx="515" cy="488" r="28" class="icon-bg" stroke="#A142F4"/>
  <circle cx="515" cy="488" r="23" fill="none" stroke="#E9D7FE" stroke-width="2"/>
  <path d="M498 497 A17 17 0 0 1 532 497" class="icon-line" stroke="#A142F4"/>
  <line x1="515" y1="497" x2="526" y2="486" class="icon-line" stroke="#A142F4"/>
  <circle cx="515" cy="497" r="3" class="icon-fill" fill="#A142F4"/>
  <line x1="504" y1="503" x2="526" y2="503" class="icon-line" stroke="#A142F4"/>
  </g>

  <!-- 6 FEEDBACK (RIGHT COLUMN) -->
  <rect x="680" y="450" width="541" height="170" fill="#E0F2F1" stroke="#00ACC1" class="box" filter="url(#shadow)"/>
  <line x1="767" y1="500" x2="767" y2="600" stroke="#DADCE0" stroke-width="1.5"/>
  <text x="950" y="485" class="title" fill="#00ACC1">6. Physics-Constrained Feedback Analysis</text>
  <text x="785" y="515" class="text">• Trend slope analysis</text>
  <text x="785" y="538" class="text">• Second-derivative anomaly detection</text>
  <text x="785" y="561" class="text">• Confidence-weighted hit detection</text>
  <text x="785" y="584" class="text">• Smart early-exit evaluation</text>
  <g transform="translate(-335 47)">
  <circle cx="1065" cy="488" r="28" class="icon-bg" stroke="#00ACC1"/>
  <circle cx="1065" cy="488" r="23" fill="none" stroke="#CDEFF3" stroke-width="2"/>
  <line x1="1048" y1="500" x2="1048" y2="476" class="icon-line" stroke="#00ACC1"/>
  <line x1="1048" y1="500" x2="1082" y2="500" class="icon-line" stroke="#00ACC1"/>
  <polyline points="1052,494 1058,488 1065,491 1072,482 1078,486" class="icon-line" stroke="#00ACC1"/>
  <circle cx="1078" cy="486" r="2" class="icon-fill" fill="#00ACC1"/>
  </g>

  <!-- 7A CONTINUE (LEFT COLUMN) -->
  <rect x="80" y="670" width="541" height="120" fill="#E8F0FE" stroke="#1A73E8" class="box" filter="url(#shadow)"/>
  <line x1="167" y1="700" x2="167" y2="770" stroke="#DADCE0" stroke-width="1.5"/>
  <text x="350" y="715" class="title" fill="#1A73E8">7A. Continue Descent</text>
  <text x="185" y="745" class="text">Next Z increment</text>
  <g transform="translate(-385 30)">
  <circle cx="515" cy="700" r="28" class="icon-bg" stroke="#1A73E8"/>
  <circle cx="515" cy="700" r="23" fill="none" stroke="#D2E3FC" stroke-width="2"/>
  <path d="M502 692 H520 V707" class="icon-line" stroke="#1A73E8"/>
  <polyline points="513,700 520,707 527,700" class="icon-line" stroke="#1A73E8"/>
  <line x1="502" y1="712" x2="528" y2="712" class="icon-line" stroke="#1A73E8"/>
  </g>

  <!-- 7B HIT (RIGHT COLUMN) -->
  <rect x="680" y="670" width="541" height="120" fill="#FCE8E6" stroke="#D93025" class="box" filter="url(#shadow)"/>
  <line x1="767" y1="700" x2="767" y2="770" stroke="#DADCE0" stroke-width="1.5"/>
  <text x="950" y="715" class="title" fill="#D93025">7B. Hit-Point Detected</text>
  <text x="785" y="745" class="text">End current cell</text>
  <g transform="translate(-335 30)">
  <circle cx="1065" cy="700" r="28" class="icon-bg" stroke="#D93025"/>
  <circle cx="1065" cy="700" r="23" fill="none" stroke="#FAD2CF" stroke-width="2"/>
  <circle cx="1065" cy="700" r="13" class="icon-line" stroke="#D93025"/>
  <circle cx="1065" cy="700" r="6" class="icon-line" stroke="#D93025"/>
  <circle cx="1065" cy="700" r="2.5" class="icon-fill" fill="#D93025"/>
  </g>

  <!-- 8 VISCOSITY (CENTER SPAN) -->
  <rect x="278.5" y="840" width="663" height="140" fill="#E8F0FE" stroke="#1A73E8" class="box" filter="url(#shadow)"/>
  <line x1="365.5" y1="870" x2="365.5" y2="970" stroke="#DADCE0" stroke-width="1.5"/>
  <text x="610" y="875" class="title" fill="#1A73E8">8. Predicted Viscosity Estimation</text>
  <text x="383.5" y="905" class="text">• Hyperbolic drag curve fitting</text>
  <text x="383.5" y="928" class="text">• Physics-informed viscosity prediction</text>
  <text x="383.5" y="951" class="text">• Data logging and export</text>
  <g transform="translate(-646.5 32)">
  <circle cx="975" cy="878" r="28" class="icon-bg" stroke="#1A73E8"/>
  <circle cx="975" cy="878" r="23" fill="none" stroke="#D2E3FC" stroke-width="2"/>
  <path d="M962 864 H988 L983 894 H967 Z" class="icon-line" stroke="#1A73E8"/>
  <line x1="968" y1="879" x2="982" y2="879" class="icon-line" stroke="#1A73E8"/>
  <circle cx="975" cy="887" r="2" class="icon-fill" fill="#1A73E8"/>
  </g>

  <!-- 9 WASH (LEFT COLUMN) -->
  <rect x="80" y="1030" width="541" height="170" fill="#E6F4EA" stroke="#188038" class="box" filter="url(#shadow)"/>
  <line x1="167" y1="1080" x2="167" y2="1180" stroke="#DADCE0" stroke-width="1.5"/>
  <text x="350" y="1065" class="title" fill="#188038">9. Automated Two-Stage Washing</text>
  <text x="185" y="1095" class="text">• Station-1 washing &amp; agitation</text>
  <text x="185" y="1118" class="text">• Concurrent fill/drain operations</text>
  <text x="185" y="1141" class="text">• Station-2 rinsing</text>
  <text x="185" y="1164" class="text">• Cross-contamination prevention</text>
  <g transform="translate(-385 47)">
  <circle cx="515" cy="1068" r="28" class="icon-bg" stroke="#188038"/>
  <circle cx="515" cy="1068" r="23" fill="none" stroke="#CEEAD6" stroke-width="2"/>
  <path d="M515 1049 C507 1059 507 1067 515 1075 C523 1067 523 1059 515 1049 Z" class="icon-line" stroke="#188038"/>
  <line x1="502" y1="1082" x2="528" y2="1082" class="icon-line" stroke="#188038"/>
  <line x1="505" y1="1089" x2="525" y2="1089" class="icon-line" stroke="#188038"/>
  </g>

  <!-- 10 LOOP (RIGHT COLUMN) -->
  <rect x="680" y="1030" width="541" height="170" fill="#F1F3F4" stroke="#5F6368" class="box" filter="url(#shadow)"/>
  <line x1="767" y1="1080" x2="767" y2="1180" stroke="#DADCE0" stroke-width="1.5"/>
  <text x="950" y="1065" class="title" fill="#5F6368">10. Move to Next Sample Cell</text>
  <text x="785" y="1095" class="text">Repeat automated cycle</text>
  <g transform="translate(-335 47)">
  <circle cx="1065" cy="1068" r="28" class="icon-bg" stroke="#5F6368"/>
  <circle cx="1065" cy="1068" r="23" fill="none" stroke="#E8EAED" stroke-width="2"/>
  <path d="M1051 1068 A14 14 0 1 1 1065 1082" class="icon-line" stroke="#5F6368"/>
  <polyline points="1057,1080 1067,1082 1064,1072" class="icon-line" stroke="#5F6368"/>
  <line x1="1065" y1="1057" x2="1065" y2="1068" class="icon-line" stroke="#5F6368"/>
  </g>

  <!-- FLOW CONNECTORS -->
  <path d="M621 125 H680" class="arrow"/>
  <path d="M950 210 V230 H350 V250" class="arrow"/>
  <path d="M621 325 H680" class="arrow"/>
  <path d="M950 400 V430 H350 V450" class="arrow"/>
  <path d="M621 535 H680" class="arrow"/>
  <path d="M950 620 V645 H350 V670" class="arrow"/>
  <path d="M950 620 V670" class="arrow"/>
  <path d="M350 790 V820 H610 V840" class="arrow"/>
  <path d="M950 790 V820 H610 V840" class="arrow"/>
  <path d="M610 980 V1010 H350 V1030" class="arrow"/>
  <path d="M621 1115 H680" class="arrow"/>

</svg>
